<?xml version="1.0" encoding="iso-8859-1"?>
<!-- Generator: Adobe Illustrator 19.0.0, SVG Export Plug-In . SVG Version: 6.00 Build 0)  -->
<svg version="1.1" id="Capa_1" xmlns="http://www.w3.org/2000/svg" xmlns:xlink="http://www.w3.org/1999/xlink" x="0px" y="0px"
	 viewBox="0 0 467.889 467.889" style="enable-background:new 0 0 467.889 467.889;" xml:space="preserve">
<path style="fill:#D5D6DB;" d="M151.259,60.52c21.741,23.887,63.296,13.053,94.659,5.334
	c72.055-17.735,193.237-34.328,216.642,46.303c12.209,42.06,13.079,150.435-106.384,126.091
	c-41.821-8.522-85.34-5.739-125.858,7.672c-67.407,22.31-158.588,33.14-129.362-87.105c3.864-15.898,15.348-7.274-4.009-65.322
	C90.498,74.154,113.746,19.304,151.259,60.52z"/>
<ellipse style="fill:#FCD462;" cx="348.395" cy="140.473" rx="76.207" ry="48.99"/>
<ellipse style="fill:#EBF0F3;" cx="368.626" cy="132.675" rx="37.251" ry="23.945"/>
<g>
	<circle style="fill:#DC8744;" cx="148.534" cy="169.826" r="9.903"/>
	<circle style="fill:#DC8744;" cx="181.945" cy="189.444" r="9.903"/>
	<circle style="fill:#DC8744;" cx="162.14" cy="219.153" r="9.903"/>
	<circle style="fill:#DC8744;" cx="194.233" cy="219.153" r="9.903"/>
	<circle style="fill:#DC8744;" cx="123.646" cy="199.347" r="9.903"/>
</g>
<path style="fill:#44C4A1;" d="M415.267,388.91c-2.606,0-5.204-1.084-7.044-3.217c-91.312-105.146-135.656-95.431-182.616-85.125
	c-4.055,0.893-8.129,1.777-12.239,2.615c-146.637,29.608-195.11-86.2-195.583-87.366c-1.923-4.784,0.392-10.216,5.176-12.139
	c4.748-1.896,10.197,0.383,12.129,5.158l0,0c1.713,4.201,43.442,102.576,174.578,76.048c4.01-0.811,7.983-1.677,11.938-2.552
	c50.194-10.99,102.111-22.418,200.705,91.13c3.381,3.891,2.962,9.778-0.93,13.159C419.623,388.153,417.436,388.91,415.267,388.91z"
	/>
<path style="fill:#3EA69B;" d="M404.38,404.462c-2.606,0-5.203-1.084-7.044-3.217C306.023,296.1,261.679,305.814,214.72,316.121
	c-4.055,0.893-8.129,1.777-12.239,2.615C55.844,348.345,7.372,232.536,6.898,231.37c-1.923-4.784,0.392-10.216,5.176-12.139
	c4.748-1.896,10.197,0.383,12.129,5.158l0,0c1.713,4.201,43.442,102.576,174.578,76.048c4.01-0.811,7.983-1.677,11.938-2.552
	c50.194-10.99,102.111-22.418,200.705,91.13c3.381,3.891,2.962,9.778-0.93,13.159C408.736,403.706,406.549,404.462,404.38,404.462z"
	/>
<path style="fill:#44C4A1;" d="M398.159,422.348c-2.606,0-5.204-1.084-7.044-3.217c-91.312-105.146-135.656-95.431-182.616-85.125
	c-4.055,0.893-8.129,1.777-12.239,2.615C49.623,366.23,1.151,250.422,0.677,249.256c-1.923-4.784,0.392-10.216,5.176-12.139
	c4.748-1.896,10.197,0.383,12.129,5.158l0,0c1.713,4.201,43.442,102.576,174.578,76.048c4.01-0.811,7.983-1.677,11.938-2.552
	c50.194-10.99,102.111-22.418,200.705,91.13c3.381,3.891,2.962,9.778-0.93,13.159C402.515,421.592,400.328,422.348,398.159,422.348z
	"/>
<g>
</g>
<g>
</g>
<g>
</g>
<g>
</g>
<g>
</g>
<g>
</g>
<g>
</g>
<g>
</g>
<g>
</g>
<g>
</g>
<g>
</g>
<g>
</g>
<g>
</g>
<g>
</g>
<g>
</g>
</svg>
