<?xml version="1.0" encoding="iso-8859-1"?>
<!-- Generator: Adobe Illustrator 19.0.0, SVG Export Plug-In . SVG Version: 6.00 Build 0)  -->
<svg version="1.1" id="Capa_1" xmlns="http://www.w3.org/2000/svg" xmlns:xlink="http://www.w3.org/1999/xlink" x="0px" y="0px"
	 viewBox="0 0 468.293 468.293" style="enable-background:new 0 0 468.293 468.293;" xml:space="preserve">
<path style="fill:#D5D6DB;" d="M113.424,0v468.293h305.751c10.941,0,19.81-8.869,19.81-19.81V19.81
	c0-10.941-8.869-19.81-19.81-19.81H113.424z"/>
<path style="fill:#2E9AE1;" d="M290.844,131.984c-56.33,0-102.162,45.832-102.162,102.162s45.832,102.162,102.162,102.162
	s102.162-45.832,102.162-102.162S347.175,131.984,290.844,131.984z M204.796,241.974h39.809c0.403,11.781,1.731,23.537,3.916,34.596
	h-32.908C209.724,266.173,205.924,254.463,204.796,241.974z M298.672,176.005v-24.68c5.029,4.428,10.131,12.85,14.24,24.68H298.672z
	 M317.265,191.722c2.182,10.041,3.661,21.616,4.098,34.535h-22.691v-34.535H317.265z M282.955,151.385v24.62h-14.179
	C272.869,164.223,277.945,155.828,282.955,151.385z M282.955,191.722v34.535h-22.629c0.437-12.92,1.916-24.494,4.098-34.535H282.955
	z M244.605,226.257h-39.807c1.135-12.466,4.935-24.155,10.813-34.535h32.908C246.339,202.762,245.011,214.496,244.605,226.257z
	 M260.325,241.974h22.63v34.596h-18.531C262.238,266.514,260.759,254.918,260.325,241.974z M282.955,292.288v24.62
	c-5.009-4.442-10.086-12.838-14.179-24.62H282.955z M298.672,316.968v-24.68h14.24C308.803,304.118,303.701,312.54,298.672,316.968z
	 M298.672,276.571v-34.596h22.692c-0.434,12.944-1.913,24.54-4.099,34.596H298.672z M337.084,241.974h39.809
	c-1.128,12.488-4.928,24.199-10.816,34.596h-32.908C335.353,265.511,336.68,253.755,337.084,241.974z M337.083,226.257
	c-0.406-11.761-1.733-23.495-3.914-34.535h32.908c5.878,10.381,9.678,22.069,10.813,34.535H337.083z M354.625,176.005h-25.327
	c-2.615-8.735-5.852-16.652-9.719-23.288C333.135,157.517,345.119,165.587,354.625,176.005z M262.109,152.717
	c-3.867,6.637-7.103,14.553-9.719,23.288h-25.327C236.569,165.587,248.553,157.517,262.109,152.717z M227.063,292.288h25.327
	c2.615,8.735,5.852,16.651,9.719,23.288C248.553,310.775,236.569,302.706,227.063,292.288z M319.58,315.576
	c3.866-6.637,7.103-14.553,9.719-23.288h25.327C345.119,302.706,333.135,310.775,319.58,315.576z"/>
<path style="fill:#2F4859;" d="M58.05,19.81v428.672c0,10.941,8.869,19.81,19.81,19.81h64.842V0H77.861
	C66.92,0,58.05,8.869,58.05,19.81z"/>
<g>
	<path style="fill:#EBF0F3;" d="M78.778,48.631h-38.67c-5.965,0-10.8,4.836-10.8,10.8c0,5.965,4.835,10.8,10.8,10.8h38.67
		c5.965,0,10.8-4.835,10.8-10.8C89.578,53.467,84.743,48.631,78.778,48.631z"/>
	<path style="fill:#EBF0F3;" d="M78.778,118.517h-38.67c-5.965,0-10.8,4.836-10.8,10.8c0,5.965,4.835,10.8,10.8,10.8h38.67
		c5.965,0,10.8-4.835,10.8-10.8C89.578,123.353,84.743,118.517,78.778,118.517z"/>
	<path style="fill:#EBF0F3;" d="M78.778,188.403h-38.67c-5.965,0-10.8,4.836-10.8,10.8c0,5.965,4.835,10.8,10.8,10.8h38.67
		c5.965,0,10.8-4.835,10.8-10.8C89.578,193.239,84.743,188.403,78.778,188.403z"/>
	<path style="fill:#EBF0F3;" d="M78.778,258.289h-38.67c-5.965,0-10.8,4.836-10.8,10.8c0,5.965,4.835,10.8,10.8,10.8h38.67
		c5.965,0,10.8-4.835,10.8-10.8C89.578,263.125,84.743,258.289,78.778,258.289z"/>
	<path style="fill:#EBF0F3;" d="M78.778,328.175h-38.67c-5.965,0-10.8,4.836-10.8,10.8c0,5.965,4.835,10.8,10.8,10.8h38.67
		c5.965,0,10.8-4.835,10.8-10.8C89.578,333.01,84.743,328.175,78.778,328.175z"/>
	<path style="fill:#EBF0F3;" d="M78.778,398.061h-38.67c-5.965,0-10.8,4.836-10.8,10.8c0,5.965,4.835,10.8,10.8,10.8h38.67
		c5.965,0,10.8-4.835,10.8-10.8C89.578,402.896,84.743,398.061,78.778,398.061z"/>
</g>
<g>
</g>
<g>
</g>
<g>
</g>
<g>
</g>
<g>
</g>
<g>
</g>
<g>
</g>
<g>
</g>
<g>
</g>
<g>
</g>
<g>
</g>
<g>
</g>
<g>
</g>
<g>
</g>
<g>
</g>
</svg>
