<?xml version="1.0" encoding="iso-8859-1"?>
<!-- Generator: Adobe Illustrator 19.0.0, SVG Export Plug-In . SVG Version: 6.00 Build 0)  -->
<svg version="1.1" id="Capa_1" xmlns="http://www.w3.org/2000/svg" xmlns:xlink="http://www.w3.org/1999/xlink" x="0px" y="0px"
	 viewBox="0 0 468.293 468.293" style="enable-background:new 0 0 468.293 468.293;" xml:space="preserve">
<path style="fill:#DC8744;" d="M215.771,250.735v205.954c0,6.411-5.193,11.604-11.523,11.604H55.261
	c-6.33,0-11.523-5.194-11.523-11.604V250.735c0-13.795,2.353-27.347,6.897-40.168c4.544-12.822,11.361-24.831,20.043-35.462
	c17.447-21.261,27.022-47.959,27.022-75.549V40.723h64.107v58.832c0,13.795,2.434,27.347,6.979,40.168
	c4.544,12.74,11.361,24.75,20.044,35.38C206.277,196.446,215.771,223.144,215.771,250.735z"/>
<path style="fill:#E56353;" d="M154.224,0h-48.94c-6.781,0-12.278,5.497-12.278,12.278v64.222h73.495V12.278
	C166.502,5.497,161.005,0,154.224,0z"/>
<rect x="43.739" y="284.722" style="fill:#FCD462;" width="172.032" height="112.578"/>
<g>
	<rect x="334.804" y="389.176" style="fill:#64798A;" width="27.055" height="62.564"/>
	<path style="fill:#64798A;" d="M348.337,440.998c-22.356,0-40.479,12.221-40.479,27.295h80.959
		C388.816,453.219,370.693,440.998,348.337,440.998z"/>
</g>
<path style="fill:#D5D6DB;" d="M410.857,367.87c11.524-16.575,16.657-37.704,11.97-59.451l-22.676-105.21
	c-34.542,20.355-69.085,20.356-103.628,0l-22.676,105.21c-4.687,21.747,0.447,42.876,11.97,59.451H410.857z"/>
<path style="fill:#E56353;" d="M348.337,400.642c-48.526,0-84.719-44.793-74.494-92.184l0.243-1.055l3.652-17.203
	c0.649,0.406,1.299,0.893,1.867,1.299c6.005,4.301,10.792,7.79,21.098,7.79c10.387,0,15.093-3.489,21.18-7.79
	c6.735-4.869,15.093-10.874,30.674-10.874c15.499,0,23.858,6.005,30.593,10.874c6.086,4.301,10.793,7.79,21.18,7.79
	c7.141,0,11.604-1.623,15.662-4.139l2.84,13.308c0.244,1.055,0.406,2.191,0.568,3.246
	C431.351,357.877,395.728,400.642,348.337,400.642z"/>
<g>
</g>
<g>
</g>
<g>
</g>
<g>
</g>
<g>
</g>
<g>
</g>
<g>
</g>
<g>
</g>
<g>
</g>
<g>
</g>
<g>
</g>
<g>
</g>
<g>
</g>
<g>
</g>
<g>
</g>
</svg>
