<?xml version="1.0" encoding="iso-8859-1"?>
<!-- Generator: Adobe Illustrator 19.0.0, SVG Export Plug-In . SVG Version: 6.00 Build 0)  -->
<svg version="1.1" id="Capa_1" xmlns="http://www.w3.org/2000/svg" xmlns:xlink="http://www.w3.org/1999/xlink" x="0px" y="0px"
	 viewBox="0 0 468.293 468.293" style="enable-background:new 0 0 468.293 468.293;" xml:space="preserve">
<path style="fill:#D5D6DB;" d="M424.143,60.843H44.15c-11.039,0-19.988,8.949-19.988,19.988v285.764h419.97V80.831
	C444.131,69.792,435.182,60.843,424.143,60.843z"/>
<rect x="50.519" y="87.202" style="fill:#2E9AE1;" width="367.254" height="253.034"/>
<path style="fill:#64798A;" d="M0,358.248c0,27.173,22.028,49.201,49.201,49.201h369.89c27.173,0,49.201-22.028,49.201-49.201H0z"/>
<g>
	<path style="fill:#EBF0F3;" d="M126.166,251.735l-18.152-76.032h15.715l11.462,52.227l13.899-52.227h18.256l13.329,53.108
		l11.669-53.108H207.8l-18.463,76.032h-16.285l-15.144-56.843l-15.092,56.843H126.166z"/>
	<path style="fill:#EBF0F3;" d="M215.164,251.735v-76.032h15.352v76.032H215.164z"/>
	<path style="fill:#EBF0F3;" d="M243.378,231.456v-14.574h28.629v14.574H243.378z"/>
	<path style="fill:#EBF0F3;" d="M280.616,251.735v-76.032h52.123v12.862h-36.771v17.997h31.741v12.862h-31.741v32.311H280.616z"/>
	<path style="fill:#EBF0F3;" d="M344.927,251.735v-76.032h15.352v76.032H344.927z"/>
</g>
<path style="fill:#D5D6DB;" d="M191.28,351.879v15.44c0,5.666,4.593,10.259,10.259,10.259h65.215
	c5.666,0,10.259-4.593,10.259-10.259v-15.44H191.28z"/>
<g>
</g>
<g>
</g>
<g>
</g>
<g>
</g>
<g>
</g>
<g>
</g>
<g>
</g>
<g>
</g>
<g>
</g>
<g>
</g>
<g>
</g>
<g>
</g>
<g>
</g>
<g>
</g>
<g>
</g>
</svg>
