<?xml version="1.0" encoding="iso-8859-1"?>
<!-- Generator: Adobe Illustrator 19.0.0, SVG Export Plug-In . SVG Version: 6.00 Build 0)  -->
<svg version="1.1" id="Capa_1" xmlns="http://www.w3.org/2000/svg" xmlns:xlink="http://www.w3.org/1999/xlink" x="0px" y="0px"
	 viewBox="0 0 468.293 468.293" style="enable-background:new 0 0 468.293 468.293;" xml:space="preserve">
<rect x="193.336" y="85.766" style="fill:#2F4859;" width="81.608" height="68.745"/>
<path style="fill:#E1E6E9;" d="M372.729,120.134H95.563c-8.344,0-15.641,5.622-17.769,13.69L0.618,426.419
	c-3.074,11.655,5.715,23.063,17.769,23.063h431.52c12.053,0,20.843-11.409,17.769-23.063l-77.177-292.595
	C388.37,125.755,381.073,120.134,372.729,120.134z"/>
<path style="fill:#D5D6DB;" d="M6.495,404.137l-5.877,22.281c-3.074,11.655,5.715,23.063,17.769,23.063h431.52
	c12.053,0,20.843-11.409,17.769-23.063l-5.877-22.281H6.495z"/>
<path style="fill:#64798A;" d="M60.643,18.811c20.69,49.559,69.134,81.831,122.839,81.831h101.33
	c53.705,0,102.149-32.272,122.839-81.831H60.643z"/>
<circle style="fill:#D15241;" cx="234.146" cy="273.92" r="93.371"/>
<path style="fill:#EBF0F3;" d="M306.268,273.878c0,39.829-32.281,72.11-72.11,72.11s-72.11-32.281-72.11-72.11
	c0-38.879,30.762-70.592,69.309-72.015c0.902-0.095,1.851-0.095,2.801-0.095c0.902,0,1.851,0,2.753,0.046
	C275.459,203.286,306.268,234.95,306.268,273.878z"/>
<g>
	<path style="fill:#2F4859;" d="M236.912,201.814v11.299c0,1.519-1.234,2.753-2.753,2.753c-1.567,0-2.801-1.233-2.801-2.753v-11.25
		c0.902-0.095,1.851-0.095,2.801-0.095C235.06,201.768,236.01,201.768,236.912,201.814z"/>
	<path style="fill:#2F4859;" d="M185.137,220.969l7.99,7.99c1.074,1.074,1.074,2.819-0.001,3.893
		c-1.108,1.108-2.853,1.109-3.927,0.034l-7.955-7.955c0.571-0.705,1.242-1.376,1.913-2.048
		C183.795,222.245,184.466,221.574,185.137,220.969z"/>
	<path style="fill:#2F4859;" d="M162.071,271.124h11.299c1.519,0,2.753,1.234,2.753,2.753c0,1.567-1.233,2.801-2.753,2.801h-11.25
		c-0.095-0.902-0.095-1.852-0.095-2.801C162.025,272.975,162.025,272.026,162.071,271.124z"/>
	<path style="fill:#2F4859;" d="M181.226,322.899l7.99-7.99c1.074-1.074,2.819-1.074,3.893,0.001
		c1.108,1.108,1.109,2.853,0.034,3.927l-7.955,7.955c-0.705-0.571-1.376-1.242-2.048-1.913
		C182.503,324.241,181.831,323.569,181.226,322.899z"/>
	<path style="fill:#2F4859;" d="M231.381,345.964v-11.299c0-1.519,1.234-2.753,2.753-2.753c1.567,0,2.801,1.233,2.801,2.753v11.25
		c-0.902,0.095-1.851,0.095-2.801,0.095C233.232,346.011,232.283,346.011,231.381,345.964z"/>
	<path style="fill:#2F4859;" d="M283.156,326.809l-7.99-7.99c-1.074-1.074-1.074-2.819,0.001-3.893
		c1.108-1.108,2.853-1.109,3.927-0.034l7.955,7.955c-0.571,0.705-1.242,1.376-1.913,2.048
		C284.498,325.533,283.826,326.204,283.156,326.809z"/>
	<path style="fill:#2F4859;" d="M306.221,276.655h-11.299c-1.519,0-2.753-1.234-2.753-2.753c0-1.567,1.233-2.801,2.753-2.801h11.25
		c0.095,0.902,0.095,1.851,0.095,2.801C306.268,274.803,306.268,275.753,306.221,276.655z"/>
	<path style="fill:#2F4859;" d="M287.066,224.88l-7.99,7.99c-1.074,1.074-2.819,1.074-3.893-0.001
		c-1.108-1.108-1.109-2.853-0.034-3.927l7.955-7.955c0.705,0.571,1.376,1.242,2.048,1.913
		C285.79,223.538,286.461,224.209,287.066,224.88z"/>
</g>
<path style="fill:#FCD462;" d="M234.146,233.687c-1.547,0-2.802,1.254-2.802,2.802v34.587c0,1.547,1.254,2.802,2.802,2.802
	s2.802-1.254,2.802-2.802v-34.587C236.948,234.942,235.694,233.687,234.146,233.687z"/>
<circle style="fill:#E56353;" cx="234.146" cy="273.92" r="9.047"/>
<g>
</g>
<g>
</g>
<g>
</g>
<g>
</g>
<g>
</g>
<g>
</g>
<g>
</g>
<g>
</g>
<g>
</g>
<g>
</g>
<g>
</g>
<g>
</g>
<g>
</g>
<g>
</g>
<g>
</g>
</svg>
