<?xml version="1.0" encoding="iso-8859-1"?>
<!-- Generator: Adobe Illustrator 19.0.0, SVG Export Plug-In . SVG Version: 6.00 Build 0)  -->
<svg version="1.1" id="Capa_1" xmlns="http://www.w3.org/2000/svg" xmlns:xlink="http://www.w3.org/1999/xlink" x="0px" y="0px"
	 viewBox="0 0 468.293 468.293" style="enable-background:new 0 0 468.293 468.293;" xml:space="preserve">
<g>
	<ellipse style="fill:#FCD462;" cx="344.522" cy="189.013" rx="82.382" ry="82.382"/>
	<path style="fill:#FCD462;" d="M344.523,65.24c-3.269,0-5.92,2.65-5.92,5.92v22.833c0,3.269,2.65,5.919,5.92,5.919
		c3.269,0,5.92-2.65,5.92-5.919V71.159C350.442,67.89,347.792,65.24,344.523,65.24z"/>
	<path style="fill:#FCD462;" d="M297.158,74.661c-3.021,1.251-4.455,4.714-3.204,7.735l8.738,21.095
		c1.251,3.02,4.714,4.455,7.734,3.203c3.021-1.251,4.455-4.714,3.204-7.734l-8.738-21.095
		C303.641,74.844,300.179,73.41,297.158,74.661z"/>
	<path style="fill:#FCD462;" d="M257.004,101.491c-2.312,2.312-2.312,6.06,0,8.372l16.145,16.145c2.312,2.312,6.06,2.312,8.372,0
		c2.312-2.312,2.312-6.06,0-8.372l-16.145-16.145C263.064,99.179,259.316,99.179,257.004,101.491z"/>
	<path style="fill:#FCD462;" d="M230.174,141.645c-1.251,3.021,0.183,6.483,3.204,7.735l21.095,8.738
		c3.02,1.251,6.483-0.183,7.734-3.204s-0.183-6.483-3.203-7.734l-21.095-8.738C234.888,137.19,231.425,138.624,230.174,141.645z"/>
	<path style="fill:#FCD462;" d="M220.753,189.01c0,3.269,2.65,5.92,5.92,5.92h22.833c3.269,0,5.919-2.65,5.919-5.92
		c0-3.269-2.65-5.92-5.919-5.92h-22.833C223.403,183.09,220.753,185.74,220.753,189.01z"/>
	<path style="fill:#FCD462;" d="M230.174,236.374c1.251,3.021,4.714,4.455,7.735,3.204l21.095-8.738
		c3.02-1.251,4.455-4.714,3.203-7.734s-4.714-4.455-7.734-3.204l-21.095,8.738C230.357,229.891,228.923,233.354,230.174,236.374z"/>
	<path style="fill:#FCD462;" d="M257.004,276.528c2.312,2.312,6.06,2.312,8.372,0l16.145-16.145c2.312-2.312,2.312-6.06,0-8.372
		c-2.312-2.312-6.06-2.312-8.372,0l-16.145,16.145C254.692,270.468,254.692,274.216,257.004,276.528z"/>
	<path style="fill:#FCD462;" d="M297.158,303.358c3.021,1.251,6.483-0.183,7.735-3.204l8.738-21.095
		c1.251-3.02-0.183-6.483-3.204-7.734s-6.483,0.183-7.734,3.203l-8.738,21.095C292.703,298.644,294.137,302.107,297.158,303.358z"/>
	<path style="fill:#FCD462;" d="M344.523,312.78c3.269,0,5.92-2.65,5.92-5.92v-22.833c0-3.269-2.65-5.919-5.92-5.919
		c-3.269,0-5.92,2.65-5.92,5.919v22.833C338.603,310.129,341.253,312.78,344.523,312.78z"/>
	<path style="fill:#FCD462;" d="M391.887,303.358c3.021-1.251,4.455-4.714,3.204-7.735l-8.738-21.095
		c-1.251-3.02-4.714-4.455-7.734-3.203s-4.455,4.714-3.204,7.734l8.738,21.095C385.404,303.175,388.867,304.609,391.887,303.358z"/>
	<path style="fill:#FCD462;" d="M432.041,276.528c2.312-2.312,2.312-6.06,0-8.372l-16.145-16.145c-2.312-2.312-6.06-2.312-8.372,0
		s-2.312,6.06,0,8.372l16.145,16.145C425.981,278.84,429.729,278.84,432.041,276.528z"/>
	<path style="fill:#FCD462;" d="M458.871,236.374c1.251-3.021-0.183-6.483-3.204-7.735l-21.095-8.738
		c-3.02-1.251-6.483,0.183-7.734,3.204c-1.251,3.021,0.183,6.483,3.203,7.734l21.095,8.738
		C454.157,240.829,457.62,239.395,458.871,236.374z"/>
	<path style="fill:#FCD462;" d="M468.293,189.01c0-3.269-2.65-5.92-5.92-5.92H439.54c-3.269,0-5.919,2.65-5.919,5.92
		c0,3.269,2.65,5.92,5.919,5.92h22.833C465.642,194.929,468.293,192.279,468.293,189.01z"/>
	<path style="fill:#FCD462;" d="M458.871,141.645c-1.251-3.021-4.714-4.455-7.735-3.204l-21.095,8.738
		c-3.02,1.251-4.455,4.714-3.203,7.734c1.251,3.021,4.714,4.455,7.734,3.204l21.095-8.738
		C458.688,148.128,460.122,144.665,458.871,141.645z"/>
	<path style="fill:#FCD462;" d="M432.041,101.491c-2.312-2.312-6.06-2.312-8.372,0l-16.145,16.145c-2.312,2.312-2.312,6.06,0,8.372
		c2.312,2.312,6.06,2.312,8.372,0l16.145-16.145C434.353,107.551,434.353,103.803,432.041,101.491z"/>
	<path style="fill:#FCD462;" d="M391.887,74.661c-3.021-1.251-6.483,0.183-7.735,3.204l-8.738,21.095
		c-1.251,3.02,0.183,6.483,3.204,7.734c3.021,1.251,6.483-0.183,7.734-3.203l8.738-21.095
		C396.342,79.375,394.908,75.912,391.887,74.661z"/>
</g>
<path style="fill:#EBF0F3;" d="M381.71,251.054c-4.463,0-8.81,0.462-13.061,1.2c0.875-4.515,1.366-9.166,1.366-13.937
	c0-40.241-32.622-72.864-72.864-72.864c-1.928,0-3.821,0.142-5.711,0.288c0-0.097,0.015-0.191,0.015-0.288
	c0-40.241-32.622-72.864-72.864-72.864c-0.65,0-1.28,0.08-1.926,0.097c-0.646-0.017-1.276-0.097-1.927-0.097
	c-40.241,0-72.864,32.622-72.864,72.864c0,0.097,0.014,0.191,0.015,0.288c-1.89-0.147-3.783-0.288-5.711-0.288
	c-40.241,0-72.864,32.622-72.864,72.864c0,6.712,0.982,13.182,2.681,19.355C28.978,261.137,0,292.267,0,330.189
	c0,40.241,32.622,72.864,72.864,72.864H381.71c41.973,0,76-34.026,76-76C457.709,285.08,423.683,251.054,381.71,251.054z"/>
<g>
</g>
<g>
</g>
<g>
</g>
<g>
</g>
<g>
</g>
<g>
</g>
<g>
</g>
<g>
</g>
<g>
</g>
<g>
</g>
<g>
</g>
<g>
</g>
<g>
</g>
<g>
</g>
<g>
</g>
</svg>
