<?xml version="1.0" encoding="iso-8859-1"?>
<!-- Generator: Adobe Illustrator 19.0.0, SVG Export Plug-In . SVG Version: 6.00 Build 0)  -->
<svg version="1.1" id="Capa_1" xmlns="http://www.w3.org/2000/svg" xmlns:xlink="http://www.w3.org/1999/xlink" x="0px" y="0px"
	 viewBox="0 0 468.293 468.293" style="enable-background:new 0 0 468.293 468.293;" xml:space="preserve">
<path style="fill:#D5D6DB;" d="M420.775,23.397L288.542,152.803L0,435.174c0,0,184.26,60.385,364.464-204.223l-43.049-43.99
	c0,0,97.771-16.515,98.566-90.039C419.981,96.922,528.151,93.765,420.775,23.397z"/>
<path style="fill:#DC8744;" d="M321.414,186.961c0,0,97.771-16.515,98.566-90.039c0,0,108.17-3.156,0.795-73.524L288.542,152.803"/>
<g>
	<circle style="fill:#64798A;" cx="338.295" cy="151.19" r="12.975"/>
	<circle style="fill:#64798A;" cx="368.203" cy="120.289" r="12.975"/>
	<circle style="fill:#64798A;" cx="399.547" cy="87.602" r="12.975"/>
	<circle style="fill:#64798A;" cx="430.892" cy="55.633" r="12.975"/>
</g>
<path style="fill:#EBF0F3;" d="M33.772,444.895l-0.794-8.617c168.826-15.4,296.242-236.112,297.509-238.342l7.518,4.275
	C336.722,204.475,207.109,429.081,33.772,444.895z"/>
<g>
</g>
<g>
</g>
<g>
</g>
<g>
</g>
<g>
</g>
<g>
</g>
<g>
</g>
<g>
</g>
<g>
</g>
<g>
</g>
<g>
</g>
<g>
</g>
<g>
</g>
<g>
</g>
<g>
</g>
</svg>
