<?xml version="1.0" encoding="iso-8859-1"?>
<!-- Generator: Adobe Illustrator 19.0.0, SVG Export Plug-In . SVG Version: 6.00 Build 0)  -->
<svg version="1.1" id="Capa_1" xmlns="http://www.w3.org/2000/svg" xmlns:xlink="http://www.w3.org/1999/xlink" x="0px" y="0px"
	 viewBox="0 0 468.274 468.274" style="enable-background:new 0 0 468.274 468.274;" xml:space="preserve">
<rect x="34.263" y="77.156" style="fill:#D5D6DB;" width="399.735" height="391.118"/>
<path style="fill:#2F4859;" d="M434.01,56.788v47.029H34.264V56.788C34.264,25.512,59.659,0,91.051,0h286.054
	C408.497,0,434.01,25.512,434.01,56.788z"/>
<g>
	<path style="fill:#64798A;" d="M371.755,35.27c-9.199,0-16.656,7.457-16.656,16.657s7.457,16.657,16.656,16.657
		c9.199,0,16.656-7.457,16.656-16.657S380.954,35.27,371.755,35.27z"/>
	<path style="fill:#64798A;" d="M312.48,35.27c-9.199,0-16.656,7.457-16.656,16.657s7.457,16.657,16.656,16.657
		c9.198,0,16.656-7.457,16.656-16.657S321.678,35.27,312.48,35.27z"/>
	<rect x="97.396" y="34.298" style="fill:#64798A;" width="111.691" height="35.272"/>
</g>
<path style="fill:#EBF0F3;" d="M234.098,146.966c-70.886,0-128.35,57.466-128.35,128.348c0,70.888,57.464,128.351,128.35,128.351
	s128.35-57.463,128.35-128.351C362.448,204.432,304.983,146.966,234.098,146.966z"/>
<path style="fill:#E1E6E9;" d="M234.098,146.966c-70.886,0-128.35,57.466-128.35,128.348c0,70.888,57.464,128.351,128.35,128.351
	s128.35-57.463,128.35-128.351C362.448,204.432,304.983,146.966,234.098,146.966z"/>
<path style="fill:#2E9AE1;" d="M230.846,191.707c-44.746,1.722-80.519,38.444-80.519,83.607c0,46.266,37.506,83.771,83.77,83.771
	c44.151,0,80.24-34.178,83.454-77.507C262.568,278.156,233.668,236.001,230.846,191.707z"/>
<g>
</g>
<g>
</g>
<g>
</g>
<g>
</g>
<g>
</g>
<g>
</g>
<g>
</g>
<g>
</g>
<g>
</g>
<g>
</g>
<g>
</g>
<g>
</g>
<g>
</g>
<g>
</g>
<g>
</g>
</svg>
