<?xml version="1.0" encoding="iso-8859-1"?>
<!-- Generator: Adobe Illustrator 19.0.0, SVG Export Plug-In . SVG Version: 6.00 Build 0)  -->
<svg version="1.1" id="Capa_1" xmlns="http://www.w3.org/2000/svg" xmlns:xlink="http://www.w3.org/1999/xlink" x="0px" y="0px"
	 viewBox="0 0 468.293 468.293" style="enable-background:new 0 0 468.293 468.293;" xml:space="preserve">
<path style="fill:#31978C;" d="M45.649,244.883l126.015,126.015c8.424,8.424,22.081,8.424,30.504,0l208.061-208.061
	c8.424-8.424,8.424-22.081,0-30.504L284.214,6.318c-8.424-8.424-22.081-8.424-30.504,0L45.649,214.379
	C37.225,222.802,37.225,236.46,45.649,244.883z"/>
<path style="fill:#44C4A1;" d="M238.189,49.913L89.244,198.858c19.171,19.171,19.171,50.253,0,69.424l59.021,59.021
	c19.171-19.171,50.253-19.171,69.424,0l148.946-148.946c-19.171-19.171-19.171-50.253,0-69.424l-59.021-59.021
	C288.442,69.083,257.36,69.083,238.189,49.913z"/>
<path style="fill:#DC8744;" d="M10.032,170.686v251.765c0,25.318,20.524,45.842,45.842,45.842h356.546
	c25.318,0,45.842-20.524,45.842-45.842V170.686c0-25.318-20.524-45.842-45.842-45.842H55.873
	C30.556,124.844,10.032,145.368,10.032,170.686z"/>
<path style="fill:#F7BE56;" d="M384.872,248.683c-26.446,0-47.885,21.439-47.885,47.885s21.439,47.885,47.885,47.885h73.389v-95.77
	H384.872z"/>
<path style="fill:#EBF0F3;" d="M386.952,273.769c-12.592,0-22.799,10.208-22.799,22.8s10.208,22.8,22.799,22.8
	c12.592,0,22.8-10.208,22.8-22.8S399.544,273.769,386.952,273.769z"/>
<g>
</g>
<g>
</g>
<g>
</g>
<g>
</g>
<g>
</g>
<g>
</g>
<g>
</g>
<g>
</g>
<g>
</g>
<g>
</g>
<g>
</g>
<g>
</g>
<g>
</g>
<g>
</g>
<g>
</g>
</svg>
