<?xml version="1.0" encoding="iso-8859-1"?>
<!-- Generator: Adobe Illustrator 19.0.0, SVG Export Plug-In . SVG Version: 6.00 Build 0)  -->
<svg version="1.1" id="Capa_1" xmlns="http://www.w3.org/2000/svg" xmlns:xlink="http://www.w3.org/1999/xlink" x="0px" y="0px"
	 viewBox="0 0 468.293 468.293" style="enable-background:new 0 0 468.293 468.293;" xml:space="preserve">
<path style="fill:#FCD462;" d="M0,27.324v413.644c0,15.091,12.285,27.324,27.438,27.324H319.8c15.154,0,27.438-12.234,27.438-27.324
	V27.324C347.238,12.234,334.953,0,319.8,0H27.438C12.285,0,0,12.234,0,27.324z"/>
<rect x="31.444" y="34.841" style="fill:#D5D6DB;" width="284.347" height="398.567"/>
<g>
	<ellipse style="fill:#2F4859;" cx="171.707" cy="98.591" rx="48.016" ry="47.816"/>
	<path style="fill:#2F4859;" d="M272.022,243.012l-32.983-48.902l-1.874-2.827h-0.015c-2.443-17.349-17.365-30.711-35.46-30.711
		h-56.145c-18.094,0-33.016,13.362-35.46,30.711h-0.015l-1.874,2.827l-32.983,48.902c-4.542,6.728-2.725,15.943,4.088,20.579
		c6.869,4.523,16.066,2.714,20.721-4.07l8.175-12.155l1.498-2.223v161.523c0,5.995,4.88,10.854,10.9,10.854h29.01
		c6.02,0,10.9-4.86,10.9-10.854v-78.883c0-7.212,5.871-13.059,13.114-13.059c7.242,0,13.114,5.847,13.114,13.059v78.883
		c0,5.995,4.88,10.854,10.9,10.854h29.01c6.02,0,10.9-4.86,10.9-10.854V245.142l1.498,2.223l8.175,12.155
		c4.655,6.784,13.852,8.593,20.721,4.07C274.747,258.954,276.564,249.739,272.022,243.012z"/>
</g>
<g>
	<polygon style="fill:#2E9AE1;" points="468.293,128.6 422.814,68.859 377.336,128.6 402.674,128.6 402.674,217.817 
		442.954,217.817 442.954,128.6 	"/>
	<polygon style="fill:#2E9AE1;" points="377.336,339.692 422.814,399.433 468.293,339.692 442.954,339.692 442.954,250.475 
		402.674,250.475 402.674,339.692 	"/>
</g>
<g>
</g>
<g>
</g>
<g>
</g>
<g>
</g>
<g>
</g>
<g>
</g>
<g>
</g>
<g>
</g>
<g>
</g>
<g>
</g>
<g>
</g>
<g>
</g>
<g>
</g>
<g>
</g>
<g>
</g>
</svg>
