<?xml version="1.0" encoding="iso-8859-1"?>
<!-- Generator: Adobe Illustrator 19.0.0, SVG Export Plug-In . SVG Version: 6.00 Build 0)  -->
<svg version="1.1" id="Capa_1" xmlns="http://www.w3.org/2000/svg" xmlns:xlink="http://www.w3.org/1999/xlink" x="0px" y="0px"
	 viewBox="0 0 468.293 468.293" style="enable-background:new 0 0 468.293 468.293;" xml:space="preserve">
<path style="fill:#EBF0F3;" d="M385.491,300.077c-60.651-46.741-242.038-46.741-302.69,0c-35,26.974-49.677,168.216-49.677,168.216
	h402.044C435.168,468.293,420.492,327.051,385.491,300.077z"/>
<g>
	<circle style="fill:#2F4859;" cx="234.521" cy="399.735" r="11.732"/>
	<circle style="fill:#2F4859;" cx="234.521" cy="356.714" r="11.732"/>
</g>
<path style="fill:#64798A;" d="M303.953,369.937v43.313c17.046,17.046,44.688,17.046,61.734,0l0.001-43.313H303.953z"/>
<path style="fill:#2F4859;" d="M371.202,372.444v-7.419c0-1.938-1.571-3.509-3.509-3.509h-65.745c-1.938,0-3.509,1.571-3.509,3.509
	v7.419c0,1.938,1.571,3.509,3.509,3.509h65.745C369.631,375.953,371.202,374.382,371.202,372.444z"/>
<polygon style="fill:#F7BE56;" points="176.898,214.866 176.898,288.308 214.537,313.522 260.867,313.522 291.395,285.251 
	291.395,214.866 "/>
<path style="fill:#FCD462;" d="M233.573,254.87c0,0-75.893-35.708-86.48-73.823c-0.096,0-0.193,0-0.193,0
	c-6.449,0.674-13.09-13.187-14.822-30.896c-1.829-17.711,2.021-32.534,8.47-33.208c1.059-0.094,2.117,0.385,3.176,0.963V90.474
	c0-16.552,4.428-32.05,12.224-45.333c3.85-6.833,8.759-13.089,14.245-18.672c4.139-4.138,8.759-7.989,13.668-11.26
	C198.201,5.583,215.429,0,234.102,0c50.05,0,90.475,40.521,90.475,90.474v26.854c0.674-0.287,1.348-0.385,2.021-0.385
	c6.449,0.674,10.299,15.497,8.47,33.208c-1.636,16.844-7.7,30.029-13.86,30.8C306.38,225.092,233.573,254.87,233.573,254.87z"/>
<path style="fill:#2F4859;" d="M324.577,90.474v13.091l-8.92,24.23c-0.863,2.343-4.315,1.949-4.626-0.528
	c-2.982-23.74-15.232-23.22-15.232-23.22l-54.092-3.656l-40.04-33.304l-36.382-15.977l-9.337-5.969
	c3.85-6.833,8.759-13.089,14.245-18.672C186.554,10.107,209.077,0,234.102,0C284.152,0,324.577,40.521,324.577,90.474z"/>
<path style="fill:#3A556A;" d="M201.666,67.086c-6.352-3.271-14.148-2.597-19.635,2.31c-14.534,13.091-20.309,37.828-20.886,69.203
	l-17.422-22.232V90.474c0-16.552,4.428-32.05,12.224-45.333c3.85-6.833,8.759-13.089,14.245-18.672
	c4.139-4.138,8.759-7.989,13.668-11.26C193.388,29.935,198.875,52.458,201.666,67.086z"/>
<g>
	<path style="fill:#D1D8F2;" d="M269.739,343.569c-1.214-0.83-25.397-33.183-25.397-33.183l47.268-54.444l12.342,11.878
		L269.739,343.569z"/>
	<path style="fill:#D1D8F2;" d="M198.554,343.569c1.214-0.83,25.397-33.183,25.397-33.183l-47.268-54.444l-12.342,11.878
		L198.554,343.569z"/>
</g>
<g>
	<path style="fill:#2F4859;" d="M195.168,291.127c-9.527,6.509-9.527,45.033,0,51.543c9.73,6.648,39.325-25.771,39.325-25.771
		S204.898,284.479,195.168,291.127z"/>
	<path style="fill:#2F4859;" d="M273.818,291.127c-9.73-6.648-39.325,25.771-39.325,25.771s29.595,32.42,39.325,25.771
		C283.346,336.16,283.346,297.636,273.818,291.127z"/>
	<path style="fill:#2F4859;" d="M240.632,328.995h-12.277c-2.334,0-4.226-1.892-4.226-4.226v-15.742
		c0-2.334,1.892-4.226,4.226-4.226h12.277c2.334,0,4.226,1.892,4.226,4.226v15.742C244.857,327.104,242.965,328.995,240.632,328.995
		z"/>
</g>
<g>
</g>
<g>
</g>
<g>
</g>
<g>
</g>
<g>
</g>
<g>
</g>
<g>
</g>
<g>
</g>
<g>
</g>
<g>
</g>
<g>
</g>
<g>
</g>
<g>
</g>
<g>
</g>
<g>
</g>
</svg>
