<?xml version="1.0" encoding="iso-8859-1"?>
<!-- Generator: Adobe Illustrator 19.0.0, SVG Export Plug-In . SVG Version: 6.00 Build 0)  -->
<svg version="1.1" id="Capa_1" xmlns="http://www.w3.org/2000/svg" xmlns:xlink="http://www.w3.org/1999/xlink" x="0px" y="0px"
	 viewBox="0 0 389.807 389.807" style="enable-background:new 0 0 389.807 389.807;" xml:space="preserve">
<path style="fill:#FCD462;" d="M389.807,87.128v215.55c0,14.356-11.613,25.969-25.969,25.969H25.969
	C11.613,328.647,0,317.034,0,302.678V87.128c0-14.356,11.613-25.969,25.969-25.969h337.868
	C378.193,61.159,389.807,72.773,389.807,87.128z"/>
<g>
	<path style="fill:#2F4859;" d="M27.304,281.196L27.304,281.196c0,5.3,4.296,9.596,9.596,9.596h316.007
		c5.3,0,9.596-4.296,9.596-9.596l0,0c0-5.3-4.296-9.596-9.596-9.596H36.9C31.6,271.6,27.304,275.897,27.304,281.196z"/>
	<path style="fill:#2F4859;" d="M197.82,228.123L197.82,228.123c0,5.3,4.296,9.596,9.596,9.596h145.491
		c5.3,0,9.596-4.296,9.596-9.596v0c0-5.3-4.296-9.596-9.596-9.596H207.416C202.116,218.527,197.82,222.824,197.82,228.123z"/>
</g>
<path style="fill:#EBF0F3;" d="M160.857,166.806c0,19.544-8.055,37.277-21.105,49.889c-12.55,12.239-29.659,19.793-48.578,19.793
	c-18.981,0-36.089-7.555-48.639-19.793c-13.05-12.612-21.104-30.345-21.104-49.889c0-38.524,31.22-69.744,69.744-69.744
	C129.637,97.062,160.857,128.281,160.857,166.806z"/>
<g>
	<path style="fill:#1C75A1;" d="M139.751,216.694c-12.55,12.239-29.659,19.793-48.578,19.793c-18.981,0-36.089-7.555-48.639-19.793
		c9.491-17.046,27.723-28.597,48.639-28.597C112.091,188.098,130.261,199.649,139.751,216.694z"/>
	<path style="fill:#1C75A1;" d="M91.154,128.801c-14.585,0-26.407,11.823-26.407,26.407c0,14.584,11.822,26.406,26.407,26.406
		c14.584,0,26.405-11.822,26.405-26.406C117.56,140.624,105.738,128.801,91.154,128.801z"/>
</g>
<g>
	<path style="fill:#EBF0F3;" d="M223.399,184.677l-26.396-73.847h16.17l18.688,54.655l18.084-54.655h15.817l-26.446,73.847H223.399z
		"/>
	<path style="fill:#EBF0F3;" d="M272.915,184.677V110.83h14.91v73.847H272.915z"/>
	<path style="fill:#EBF0F3;" d="M302.031,184.677V110.83h23.927c9.067,0,14.978,0.369,17.731,1.108
		c4.231,1.108,7.774,3.518,10.629,7.229c2.854,3.711,4.282,8.505,4.282,14.382c0,4.534-0.823,8.345-2.468,11.435
		c-1.646,3.09-3.736,5.516-6.271,7.279c-2.535,1.763-5.113,2.93-7.732,3.501c-3.56,0.705-8.715,1.058-15.465,1.058h-9.722v27.856
		H302.031z M316.942,123.323v20.955h8.16c5.877,0,9.806-0.386,11.787-1.159c1.981-0.772,3.535-1.981,4.66-3.627
		c1.125-1.646,1.688-3.56,1.688-5.743c0-2.687-0.789-4.903-2.368-6.649c-1.578-1.746-3.576-2.838-5.994-3.274
		c-1.78-0.336-5.356-0.504-10.73-0.504H316.942z"/>
</g>
<g>
</g>
<g>
</g>
<g>
</g>
<g>
</g>
<g>
</g>
<g>
</g>
<g>
</g>
<g>
</g>
<g>
</g>
<g>
</g>
<g>
</g>
<g>
</g>
<g>
</g>
<g>
</g>
<g>
</g>
</svg>
