<?xml version="1.0" encoding="iso-8859-1"?>
<!-- Generator: Adobe Illustrator 19.0.0, SVG Export Plug-In . SVG Version: 6.00 Build 0)  -->
<svg version="1.1" id="Capa_1" xmlns="http://www.w3.org/2000/svg" xmlns:xlink="http://www.w3.org/1999/xlink" x="0px" y="0px"
	 viewBox="0 0 468.293 468.293" style="enable-background:new 0 0 468.293 468.293;" xml:space="preserve">
<path style="fill:#2F4859;" d="M418.057,442.469L418.057,442.469c-14.204,13.615-45.042,0.637-65.227-24.451L177.259,209.96
	l18.705-17.928l200.429,184.233C420.602,397.495,432.261,428.855,418.057,442.469z"/>
<polyline style="fill:#D5D6DB;" points="194.186,193.736 196.161,100.607 119.21,20.323 0,134.583 80.13,218.185 180.031,207.303 
	"/>
<g>
	<path style="fill:#64798A;" d="M184.427,140.285l-2.534,2.429c-3.942,3.778-10.2,3.645-13.978-0.296l-65.601-68.443
		c-3.778-3.942-3.645-10.2,0.296-13.978l2.534-2.429c3.942-3.778,10.2-3.645,13.978,0.296l65.601,68.443
		C188.502,130.249,188.369,136.507,184.427,140.285z"/>
	<path style="fill:#64798A;" d="M155.122,168.373l-2.534,2.429c-3.942,3.778-10.2,3.645-13.978-0.296l-65.601-68.443
		c-3.778-3.942-3.645-10.2,0.296-13.978l2.534-2.429c3.942-3.778,10.2-3.645,13.978,0.296l65.601,68.443
		C159.197,158.337,159.064,164.595,155.122,168.373z"/>
	<path style="fill:#64798A;" d="M122.389,199.747l-2.534,2.429c-3.942,3.778-10.2,3.645-13.978-0.296l-65.601-68.443
		c-3.778-3.942-3.645-10.2,0.296-13.978l2.534-2.429c3.942-3.778,10.2-3.645,13.978,0.296l65.601,68.443
		C126.464,189.711,126.331,195.969,122.389,199.747z"/>
	
		<ellipse transform="matrix(-0.692 -0.7219 0.7219 -0.692 359.1319 974.1364)" style="fill:#64798A;" cx="387.392" cy="410.45" rx="22.516" ry="15.398"/>
</g>
<path style="fill:#D5D6DB;" d="M425.248,27.271L305.46,144.498L44.075,400.292c0,0,166.918,54.702,330.161-185.002l-38.998-39.85
	c0,0,88.569-14.961,89.289-81.565C424.528,93.875,522.517,91.016,425.248,27.271z"/>
<path style="fill:#2F4859;" d="M335.238,175.44c0,0,88.569-14.961,89.289-81.565c0,0,97.989-2.859,0.72-66.604L305.46,144.498"/>
<g>
	<circle style="fill:#64798A;" cx="350.533" cy="143.035" r="11.757"/>
	<circle style="fill:#64798A;" cx="377.606" cy="115.044" r="11.757"/>
	<circle style="fill:#64798A;" cx="405.979" cy="85.417" r="11.757"/>
	<circle style="fill:#64798A;" cx="434.388" cy="56.47" r="11.757"/>
</g>
<path style="fill:#EBF0F3;" d="M74.669,409.098l-0.719-7.806c152.936-13.951,268.36-213.889,269.508-215.91l6.811,3.872
	C349.105,191.306,231.692,394.773,74.669,409.098z"/>
<g>
</g>
<g>
</g>
<g>
</g>
<g>
</g>
<g>
</g>
<g>
</g>
<g>
</g>
<g>
</g>
<g>
</g>
<g>
</g>
<g>
</g>
<g>
</g>
<g>
</g>
<g>
</g>
<g>
</g>
</svg>
