<?xml version="1.0" encoding="iso-8859-1"?>
<!-- Generator: Adobe Illustrator 19.0.0, SVG Export Plug-In . SVG Version: 6.00 Build 0)  -->
<svg version="1.1" id="Capa_1" xmlns="http://www.w3.org/2000/svg" xmlns:xlink="http://www.w3.org/1999/xlink" x="0px" y="0px"
	 viewBox="0 0 468.293 468.293" style="enable-background:new 0 0 468.293 468.293;" xml:space="preserve">
<path style="fill:#E56353;" d="M158.243,0.169c-0.251-0.047-0.504-0.084-0.752-0.111c-5.229-0.564-10.084,2.997-11.049,8.255
	c-1.009,5.508,2.637,10.79,8.145,11.796l36.039,6.605L65.92,120.377c-4.477,3.361-5.381,9.717-2.019,14.192
	c3.366,4.48,9.72,5.379,14.194,2.017l124.197-93.28l-4.19,34.519c-0.673,5.559,3.285,10.616,8.844,11.289
	c0.047,0.005,0.091,0.01,0.138,0.015c5.503,0.593,10.478-3.348,11.149-8.857l8.207-67.608L158.243,0.169z"/>
<path style="fill:#2F4859;" d="M280.147,276.092l-107.416,81.744V209.886c0-29.662,24.046-53.708,53.708-53.708h0
	c29.662,0,53.708,24.046,53.708,53.708V276.092z"/>
<polygon style="fill:#64798A;" points="154.796,416.173 53.091,416.173 53.091,383.746 140.553,383.746 318.904,189.577 
	415.201,189.577 415.201,222.004 333.147,222.004 "/>
<g>
	<circle style="fill:#2F4859;" cx="226.441" cy="122.38" r="28.372"/>
	<polygon style="fill:#2F4859;" points="53.091,416.173 53.091,468.293 154.664,468.293 332.002,293.512 348.718,275.079 
		415.201,275.079 415.201,222.004 333.147,222.004 154.796,416.173 	"/>
</g>
<g>
</g>
<g>
</g>
<g>
</g>
<g>
</g>
<g>
</g>
<g>
</g>
<g>
</g>
<g>
</g>
<g>
</g>
<g>
</g>
<g>
</g>
<g>
</g>
<g>
</g>
<g>
</g>
<g>
</g>
</svg>
