<?xml version="1.0" encoding="iso-8859-1"?>
<!-- Generator: Adobe Illustrator 19.0.0, SVG Export Plug-In . SVG Version: 6.00 Build 0)  -->
<svg version="1.1" id="Capa_1" xmlns="http://www.w3.org/2000/svg" xmlns:xlink="http://www.w3.org/1999/xlink" x="0px" y="0px"
	 viewBox="0 0 468.293 468.293" style="enable-background:new 0 0 468.293 468.293;" xml:space="preserve">
<path style="fill:#2F4859;" d="M216.57,12.128l0,408.495c0,12-8.985,22.756-20.969,23.383c-12.78,0.669-23.353-9.495-23.353-22.129
	v-8.516c0-6.698-5.43-12.128-12.128-12.128h0c-6.698,0-12.128,5.43-12.128,12.128v8.516c0,25.635,20.781,46.416,46.416,46.416h0
	c25.635,0,46.416-20.776,46.416-46.41c0-48.538,0-319.174,0-409.838C240.826,5.369,235.415,0,228.74,0h-0.042
	C222,0,216.57,5.43,216.57,12.128z"/>
<path style="fill:#D5D6DB;" d="M234.147,27.091c-119.697,0-216.731,97.034-216.731,216.731h433.461
	C450.877,124.125,353.843,27.091,234.147,27.091z"/>
<path style="fill:#E56353;" d="M234.147,27.091c-77.559,0-140.433,97.034-140.433,216.731h280.865
	C374.579,124.125,311.705,27.091,234.147,27.091z"/>
<path style="fill:#D5D6DB;" d="M234.147,27.091c-30.84,0-55.842,97.034-55.842,216.731h111.683
	C289.988,124.125,264.987,27.091,234.147,27.091z"/>
<g>
</g>
<g>
</g>
<g>
</g>
<g>
</g>
<g>
</g>
<g>
</g>
<g>
</g>
<g>
</g>
<g>
</g>
<g>
</g>
<g>
</g>
<g>
</g>
<g>
</g>
<g>
</g>
<g>
</g>
</svg>
