<?xml version="1.0" encoding="iso-8859-1"?>
<!-- Generator: Adobe Illustrator 19.0.0, SVG Export Plug-In . SVG Version: 6.00 Build 0)  -->
<svg version="1.1" id="Capa_1" xmlns="http://www.w3.org/2000/svg" xmlns:xlink="http://www.w3.org/1999/xlink" x="0px" y="0px"
	 viewBox="0 0 468.293 468.293" style="enable-background:new 0 0 468.293 468.293;" xml:space="preserve">
<g>
	<path style="fill:#64798A;" d="M325.875,428.615v30.802c0,4.893,3.967,8.859,8.86,8.859h46.426c4.893,0,8.86-3.966,8.86-8.859
		v-30.802H325.875z"/>
	<path style="fill:#64798A;" d="M78.272,428.615v30.802c0,4.893,3.967,8.859,8.86,8.859h46.426c4.892,0,8.86-3.966,8.86-8.859
		v-30.802H78.272z"/>
</g>
<g>
	<path style="fill:#2F4859;" d="M119.242,129.652h30.008l44.422-80.705c2.15-3.906,0.725-8.815-3.18-10.965
		c-3.895-2.139-8.81-0.728-10.97,3.18L134.257,123.4L66.916,4.124c-2.197-3.89-7.133-5.254-11.002-3.062
		c-3.885,2.192-5.257,7.117-3.065,10.999L119.242,129.652z"/>
	<path style="fill:#2F4859;" d="M428.595,113.055H39.697C17.772,113.055,0,130.828,0,152.753V399.01
		c0,21.924,17.772,39.697,39.697,39.697h388.898c21.925,0,39.697-17.773,39.697-39.697V152.753
		C468.293,130.828,450.52,113.055,428.595,113.055z"/>
</g>
<g>
	<rect x="31.176" y="162.185" style="fill:#EBF0F3;" width="326.993" height="227.397"/>
	<circle style="fill:#EBF0F3;" cx="408.183" cy="207.254" r="25.569"/>
	<path style="fill:#EBF0F3;" d="M430.389,356.621h-44.407c-3.715,0-6.728,3.012-6.728,6.728s3.013,6.728,6.728,6.728h44.407
		c3.716,0,6.728-3.012,6.728-6.728S434.106,356.621,430.389,356.621z"/>
	<path style="fill:#EBF0F3;" d="M430.389,317.26h-44.407c-3.715,0-6.728,3.012-6.728,6.728s3.013,6.728,6.728,6.728h44.407
		c3.716,0,6.728-3.012,6.728-6.728S434.106,317.26,430.389,317.26z"/>
	<path style="fill:#EBF0F3;" d="M385.982,291.356h44.407c3.716,0,6.728-3.012,6.728-6.728s-3.012-6.728-6.728-6.728h-44.407
		c-3.715,0-6.728,3.012-6.728,6.728S382.267,291.356,385.982,291.356z"/>
</g>
<path style="fill:#E56353;" d="M408.186,195.59c-6.441,0-11.662,5.221-11.662,11.663c0,6.441,5.221,11.662,11.662,11.662
	c6.442,0,11.663-5.221,11.663-11.662C419.849,200.811,414.628,195.59,408.186,195.59z"/>
<g>
</g>
<g>
</g>
<g>
</g>
<g>
</g>
<g>
</g>
<g>
</g>
<g>
</g>
<g>
</g>
<g>
</g>
<g>
</g>
<g>
</g>
<g>
</g>
<g>
</g>
<g>
</g>
<g>
</g>
</svg>
