<?xml version="1.0" encoding="iso-8859-1"?>
<!-- Generator: Adobe Illustrator 19.0.0, SVG Export Plug-In . SVG Version: 6.00 Build 0)  -->
<svg version="1.1" id="Capa_1" xmlns="http://www.w3.org/2000/svg" xmlns:xlink="http://www.w3.org/1999/xlink" x="0px" y="0px"
	 viewBox="0 0 468.318 468.318" style="enable-background:new 0 0 468.318 468.318;" xml:space="preserve">
<g>
	<rect x="10.409" y="320.755" style="fill:#2F4859;" width="447.5" height="57.831"/>
	<path style="fill:#2F4859;" d="M402.583,356.843H63.343V204.464c0-93.529,76.091-169.62,169.62-169.62s169.62,76.091,169.62,169.62
		V356.843z M92.215,327.971h281.497V204.464c0-77.606-63.139-140.749-140.749-140.749S92.215,126.858,92.215,204.464V327.971z"/>
	<path style="fill:#2F4859;" d="M238.519,49.281h-3.896c-6.897,0-12.488-5.591-12.488-12.488V12.488
		C222.135,5.591,227.726,0,234.623,0h3.896c6.897,0,12.488,5.591,12.488,12.488v24.305C251.007,43.69,245.416,49.281,238.519,49.281
		z"/>
</g>
<path style="fill:#3A556A;" d="M276.507,135.133h-82.91v-12.97c0-13.597,11.063-24.663,24.663-24.663h33.587
	c13.597,0,24.66,11.066,24.66,24.663V135.133z M208.138,120.697h53.827c-0.712-4.948-4.98-8.762-10.118-8.762H218.26
	C213.118,111.936,208.85,115.749,208.138,120.697z"/>
<path style="fill:#2D93BA;" d="M296.347,119.076H174.862c-14.944,0-27.058,12.114-27.058,27.058v147.564
	c0,14.944,12.114,27.058,27.058,27.058h121.485c14.944,0,27.058-12.114,27.058-27.058V146.134
	C323.405,131.19,311.291,119.076,296.347,119.076z"/>
<g>
	<path style="fill:#FCD462;" d="M174.586,119.076c-14.791,0-26.782,11.99-26.782,26.782v15.186h24.941
		c12.25,0,22.18-9.93,22.18-22.18v-19.787H174.586z"/>
	<path style="fill:#FCD462;" d="M301.225,119.076h-24.941v15.186c0,14.791,11.991,26.782,26.782,26.782h20.34v-19.787
		C323.405,129.006,313.475,119.076,301.225,119.076z"/>
	<path style="fill:#FCD462;" d="M173.021,278.788H148.08v15.186c0,14.791,11.991,26.782,26.782,26.782h20.34v-19.787
		C195.202,288.719,185.271,278.788,173.021,278.788z"/>
	<path style="fill:#FCD462;" d="M303.342,278.788c-14.791,0-26.782,11.991-26.782,26.782v15.186h24.941
		c12.25,0,22.18-9.931,22.18-22.18v-19.787H303.342z"/>
</g>
<circle style="fill:#3A556A;" cx="87.452" cy="423.461" r="44.856"/>
<circle style="fill:#D5D6DB;" cx="87.452" cy="423.461" r="28.666"/>
<circle style="fill:#3A556A;" cx="370.607" cy="423.461" r="44.856"/>
<circle style="fill:#D5D6DB;" cx="370.607" cy="423.461" r="28.666"/>
<g>
</g>
<g>
</g>
<g>
</g>
<g>
</g>
<g>
</g>
<g>
</g>
<g>
</g>
<g>
</g>
<g>
</g>
<g>
</g>
<g>
</g>
<g>
</g>
<g>
</g>
<g>
</g>
<g>
</g>
</svg>
