<?xml version="1.0" encoding="iso-8859-1"?>
<!-- Generator: Adobe Illustrator 19.0.0, SVG Export Plug-In . SVG Version: 6.00 Build 0)  -->
<svg version="1.1" id="Capa_1" xmlns="http://www.w3.org/2000/svg" xmlns:xlink="http://www.w3.org/1999/xlink" x="0px" y="0px"
	 viewBox="0 0 468.293 468.293" style="enable-background:new 0 0 468.293 468.293;" xml:space="preserve">
<path style="fill:#2F4859;" d="M417.194,187.734L245.108,82.965c1.361-6.022,5.167-11.315,12.868-17.815
	c10.967-9.266,15.511-23.786,11.858-37.896c-3.242-12.569-13.459-22.786-26.018-26.018c-11.368-2.932-23.146-0.6-32.272,6.474
	c-9.116,7.055-14.34,17.702-14.34,29.21c0,5.664,4.583,10.247,10.247,10.247c5.664,0,10.247-4.583,10.247-10.247
	c0-5.124,2.332-9.867,6.394-13.009c4.123-3.192,9.316-4.183,14.6-2.832c5.374,1.381,9.917,5.924,11.308,11.298
	c1.681,6.524-0.28,12.919-5.244,17.112c-9.136,7.71-18.351,17.615-20.355,32.745l-173.297,105.5
	c-7.865,4.783-11.478,13.95-8.986,22.806c2.482,8.856,10.327,14.81,19.533,14.81h344.996c9.206,0,17.052-5.954,19.533-14.81
	C428.662,201.674,425.049,192.517,417.194,187.734z M61.751,205.246l172.408-104.962l172.488,104.572L61.751,205.246z"/>
<path style="fill:#D5D6DB;" d="M348.964,195.311v253.924c0,10.552-8.505,19.058-18.957,19.058H138.286
	c-10.452,0-18.957-8.506-18.957-19.058V195.311c0-10.552,8.505-19.058,18.957-19.058h191.721
	C340.459,176.253,348.964,184.759,348.964,195.311z"/>
<g>
	<rect x="119.327" y="318.064" style="fill:#2E9AE1;" width="229.638" height="30.739"/>
	<rect x="119.327" y="388.059" style="fill:#2E9AE1;" width="229.638" height="30.739"/>
</g>
<g>
</g>
<g>
</g>
<g>
</g>
<g>
</g>
<g>
</g>
<g>
</g>
<g>
</g>
<g>
</g>
<g>
</g>
<g>
</g>
<g>
</g>
<g>
</g>
<g>
</g>
<g>
</g>
<g>
</g>
</svg>
