<?xml version="1.0" encoding="iso-8859-1"?>
<!-- Generator: Adobe Illustrator 19.0.0, SVG Export Plug-In . SVG Version: 6.00 Build 0)  -->
<svg version="1.1" id="Capa_1" xmlns="http://www.w3.org/2000/svg" xmlns:xlink="http://www.w3.org/1999/xlink" x="0px" y="0px"
	 viewBox="0 0 468.292 468.292" style="enable-background:new 0 0 468.292 468.292;" xml:space="preserve">
<path style="fill:#2F4859;" d="M377.072,351.306h-61.835V184.355h61.835c21.518,0,39.024,17.506,39.024,39.024v88.902
	C416.096,333.8,398.59,351.306,377.072,351.306z M333.968,332.574h43.104c11.189,0,20.293-9.104,20.293-20.293v-88.902
	c0-11.189-9.104-20.293-20.293-20.293h-43.104V332.574z"/>
<rect x="257.648" y="1.906" transform="matrix(-0.9722 -0.234 0.234 -0.9722 523.7633 255.261)" style="fill:#DC8744;" width="38.75" height="189.314"/>
<rect x="192.437" y="37.645" transform="matrix(-0.9769 -0.2135 0.2135 -0.9769 398.7109 270.5827)" style="fill:#FCD462;" width="43.064" height="152.226"/>
<rect x="137.987" y="49.658" transform="matrix(-0.9569 -0.2904 0.2904 -0.9569 267.8047 291.2807)" style="fill:#44C4A1;" width="35.053" height="152.226"/>
<path style="fill:#3A556A;" d="M286.66,468.292H114.177c-34.231,0-61.981-27.75-61.981-61.981v-276.02h296.445v276.02
	C348.641,440.542,320.891,468.292,286.66,468.292z"/>
<path style="fill:#27A2DB;" d="M275.688,430.134H124.273c-23.375,0-42.323-18.949-42.323-42.323V180.378h236.061v207.433
	C318.011,411.186,299.063,430.134,275.688,430.134z"/>
<g>
</g>
<g>
</g>
<g>
</g>
<g>
</g>
<g>
</g>
<g>
</g>
<g>
</g>
<g>
</g>
<g>
</g>
<g>
</g>
<g>
</g>
<g>
</g>
<g>
</g>
<g>
</g>
<g>
</g>
</svg>
