<?xml version="1.0" encoding="iso-8859-1"?>
<!-- Generator: Adobe Illustrator 19.0.0, SVG Export Plug-In . SVG Version: 6.00 Build 0)  -->
<svg version="1.1" id="Capa_1" xmlns="http://www.w3.org/2000/svg" xmlns:xlink="http://www.w3.org/1999/xlink" x="0px" y="0px"
	 viewBox="0 0 468.293 468.293" style="enable-background:new 0 0 468.293 468.293;" xml:space="preserve">
<path style="fill:#3A556A;" d="M269.939,138.818h-69.64V95.488h69.64V138.818z M206.543,132.574h57.152v-30.841h-57.152V132.574z"/>
<g>
	<rect x="401.758" y="217.912" style="fill:#2F4859;" width="25.038" height="9.516"/>
	<path style="fill:#2F4859;" d="M463.718,200.145l-37.337-2.009c-2.767-0.148-5.093,2.055-5.093,4.827V224.1
		c0,2.772,2.326,4.975,5.093,4.827l37.337-2.009c2.565-0.136,4.574-2.257,4.574-4.827v-17.118
		C468.293,202.402,466.284,200.282,463.718,200.145z"/>
	<rect x="44.906" y="217.912" style="fill:#2F4859;" width="25.038" height="9.516"/>
	<path style="fill:#2F4859;" d="M45.31,198.136l-37.337,2.009c-2.566,0.136-4.575,2.257-4.575,4.827v17.118
		c0,2.571,2.009,4.691,4.575,4.827l37.337,2.009c2.769,0.148,5.094-2.055,5.094-4.827v-21.136
		C50.404,200.191,48.078,197.988,45.31,198.136z"/>
	<path style="fill:#2F4859;" d="M355.759,390.597v26.756c0,9.848,7.983,17.831,17.831,17.831h35.758
		c9.848,0,17.831-7.983,17.831-17.831v-26.756H355.759z"/>
	<path style="fill:#2F4859;" d="M60.894,435.184h35.758c9.848,0,17.831-7.983,17.831-17.831v-26.756H43.063v26.756
		C43.063,427.201,51.047,435.184,60.894,435.184z"/>
</g>
<path style="fill:#F7BE56;" d="M464.715,303.235l-15.407-25.115L415.594,223.1H50.444L4.421,298.183
	c-5.849,9.541-5.938,21.629-0.01,31.121c10.368,16.602,15.423,32.651,13.745,48.017c-1.247,11.421,7.162,21.54,18.651,21.54h392.424
	c11.489,0,19.898-10.118,18.651-21.54c-1.807-16.552,4.197-33.898,16.241-51.872C468.605,318.761,468.925,310.098,464.715,303.235z"
	/>
<path style="fill:#64798A;" d="M302.594,361.004H167.648c-20.921,0-37.88,16.958-37.88,37.88h210.705
	C340.474,377.962,323.515,361.004,302.594,361.004z"/>
<g>
	<path style="fill:#EBF0F3;" d="M435.343,314.884h-62.436c0.474-20.359,17.236-36.742,37.69-36.742h38.733l3.44,5.608
		C461.126,297.372,451.324,314.884,435.343,314.884z"/>
	<path style="fill:#EBF0F3;" d="M93.658,314.884H21.201c-9.999,0-16.14-10.947-10.928-19.48l10.544-17.262h38.826
		c19.209,0,35.161,14.447,37.426,33.068C97.309,313.177,95.639,314.884,93.658,314.884z"/>
</g>
<path style="fill:#FCD462;" d="M424.187,239.472l-35.76-69.495c-14.321-27.832-42.997-45.325-74.297-45.325H156.112
	c-31.3,0-59.976,17.494-74.297,45.325l-35.76,69.495H424.187z"/>
<path style="fill:#2E9AE1;" d="M396.901,239.472l-30.599-59.466c-12.254-23.815-36.791-38.784-63.574-38.784H167.515
	c-26.783,0-51.32,14.969-63.575,38.784l-30.599,59.466H396.901z"/>
<path style="fill:#2F4859;" d="M169.72,44.059v53.86c0,6.047,4.902,10.95,10.95,10.95h108.904c6.047,0,10.95-4.902,10.95-10.95
	v-53.86c0-6.047-4.902-10.95-10.95-10.95H180.669C174.622,33.109,169.72,38.011,169.72,44.059z"/>
<g>
	<path style="fill:#FCD462;" d="M196.666,87.254V60.226h-9.653v-5.503h25.851v5.503h-9.63v27.027H196.666z"/>
	<path style="fill:#FCD462;" d="M243.065,87.254h-7.145l-2.84-7.389h-13.003l-2.685,7.389h-6.968l12.67-32.53h6.945L243.065,87.254z
		 M230.972,74.384l-4.482-12.071l-4.394,12.071H230.972z"/>
	<path style="fill:#FCD462;" d="M243.243,87.254l11.117-16.975l-10.074-15.555h7.678l6.524,10.451l6.391-10.451h7.611L262.37,70.523
		l11.117,16.731h-7.922l-7.212-11.25l-7.234,11.25H243.243z"/>
	<path style="fill:#FCD462;" d="M276.661,87.254v-32.53h6.568v32.53H276.661z"/>
</g>
<g>
</g>
<g>
</g>
<g>
</g>
<g>
</g>
<g>
</g>
<g>
</g>
<g>
</g>
<g>
</g>
<g>
</g>
<g>
</g>
<g>
</g>
<g>
</g>
<g>
</g>
<g>
</g>
<g>
</g>
</svg>
