<?xml version="1.0" encoding="iso-8859-1"?>
<!-- Generator: Adobe Illustrator 19.0.0, SVG Export Plug-In . SVG Version: 6.00 Build 0)  -->
<svg version="1.1" id="Capa_1" xmlns="http://www.w3.org/2000/svg" xmlns:xlink="http://www.w3.org/1999/xlink" x="0px" y="0px"
	 viewBox="0 0 468.293 468.293" style="enable-background:new 0 0 468.293 468.293;" xml:space="preserve">
<rect x="38.562" y="172.769" style="fill:#1C75A1;" width="63.001" height="153.8"/>
<path style="fill:#27A2DB;" d="M371.368,447.569c-1.666,11.324,9.278,20.724,20.724,20.724h0c11.445,0,22.389-9.4,20.724-20.724
	c-2.618-17.8-20.724-68.919-20.724-68.919S373.987,429.769,371.368,447.569z"/>
<path style="fill:#2D93BA;" d="M377.311,448.37c-1.188,8.077,6.618,14.781,14.781,14.781l0,0c8.164,0,15.97-6.705,14.781-14.781
	c-1.868-12.696-14.781-49.157-14.781-49.157S379.178,435.674,377.311,448.37z"/>
<path style="fill:#D5D6DB;" d="M401.242,211.468h-42.964H101.537v72.778h257.952v94.404h70.241V239.957
	C429.73,224.223,416.975,211.468,401.242,211.468z"/>
<rect x="259.871" y="135.555" style="fill:#1C75A1;" width="23.315" height="44.507"/>
<ellipse style="fill:#D5D6DB;" cx="272.297" cy="76.294" rx="69.058" ry="76.294"/>
<rect x="226.273" y="172.769" style="fill:#2D93BA;" width="92.041" height="38.693"/>
<g>
</g>
<g>
</g>
<g>
</g>
<g>
</g>
<g>
</g>
<g>
</g>
<g>
</g>
<g>
</g>
<g>
</g>
<g>
</g>
<g>
</g>
<g>
</g>
<g>
</g>
<g>
</g>
<g>
</g>
</svg>
