<?xml version="1.0" encoding="iso-8859-1"?>
<!-- Generator: Adobe Illustrator 19.0.0, SVG Export Plug-In . SVG Version: 6.00 Build 0)  -->
<svg version="1.1" id="Capa_1" xmlns="http://www.w3.org/2000/svg" xmlns:xlink="http://www.w3.org/1999/xlink" x="0px" y="0px"
	 viewBox="0 0 468.293 468.293" style="enable-background:new 0 0 468.293 468.293;" xml:space="preserve">
<path style="fill:#F7BE56;" d="M256.532,25.735c-8.021,0-14.521,6.499-14.521,14.521s6.499,14.521,14.521,14.521
	c26.021,0,47.192,21.171,47.192,47.192v10.673h-98.417v-10.673c0-42.035-34.198-76.234-76.234-76.234
	c-8.021,0-14.521,6.499-14.521,14.521s6.499,14.521,14.521,14.521c26.021,0,47.192,21.171,47.192,47.192v165.173h29.041v-55.034
	h98.417v60.681h29.041v-170.82C332.765,59.933,298.567,25.735,256.532,25.735z M303.724,183.066h-98.417v-41.383h98.417V183.066z"/>
<g>
	<path style="fill:#2E9AE1;" d="M453.772,442.558c-25.071,0-38.249-5.908-49.872-11.122c-10.267-4.604-19.129-8.579-37.989-8.579
		s-27.727,3.975-37.994,8.579c-11.623,5.214-24.801,11.122-49.872,11.122c-25.071,0-38.244-5.908-49.868-11.122
		c-10.267-4.604-19.129-8.579-37.984-8.579s-27.718,3.975-37.984,8.579c-11.623,5.214-24.797,11.122-49.868,11.122
		c-25.061,0-38.23-5.908-49.849-11.122c-10.262-4.604-19.12-8.579-37.97-8.579C6.499,422.856,0,416.357,0,408.336
		c0-8.021,6.499-14.521,14.521-14.521c25.066,0,38.235,5.909,49.858,11.122c10.257,4.604,19.115,8.579,37.961,8.579
		c18.855,0,27.718-3.975,37.984-8.579c11.623-5.214,24.797-11.122,49.868-11.122s38.244,5.909,49.868,11.122
		c10.267,4.604,19.129,8.579,37.985,8.579c18.86,0,27.723-3.975,37.989-8.579c11.623-5.214,24.801-11.122,49.877-11.122
		c25.071,0,38.249,5.909,49.872,11.122c10.267,4.604,19.129,8.579,37.989,8.579c8.021,0,14.521,6.499,14.521,14.521
		S461.793,442.558,453.772,442.558z"/>
	<path style="fill:#2E9AE1;" d="M453.772,368.555c-25.071,0-38.249-5.908-49.872-11.122c-10.267-4.604-19.129-8.579-37.989-8.579
		s-27.727,3.975-37.994,8.579c-11.623,5.214-24.801,11.122-49.872,11.122c-25.071,0-38.244-5.908-49.868-11.122
		c-10.267-4.604-19.129-8.579-37.984-8.579s-27.718,3.975-37.984,8.579c-11.623,5.214-24.797,11.122-49.868,11.122
		c-25.061,0-38.23-5.908-49.849-11.122c-10.262-4.604-19.12-8.579-37.97-8.579C6.499,348.854,0,342.354,0,334.333
		s6.499-14.521,14.521-14.521c25.066,0,38.235,5.908,49.858,11.122c10.257,4.604,19.115,8.579,37.961,8.579
		c18.855,0,27.718-3.975,37.984-8.579c11.623-5.214,24.797-11.122,49.868-11.122s38.244,5.908,49.868,11.122
		c10.267,4.604,19.129,8.579,37.985,8.579c18.86,0,27.723-3.975,37.989-8.579c11.623-5.214,24.801-11.122,49.877-11.122
		c25.071,0,38.249,5.908,49.872,11.122c10.267,4.604,19.129,8.579,37.989,8.579c8.021,0,14.521,6.499,14.521,14.521
		S461.793,368.555,453.772,368.555z"/>
	<path style="fill:#2E9AE1;" d="M453.772,294.548c-25.071,0-38.249-5.908-49.872-11.117c-10.267-4.604-19.129-8.579-37.989-8.579
		c-18.865,0-27.727,3.975-37.994,8.579c-11.628,5.209-24.801,11.117-49.872,11.117c-25.071,0-38.244-5.908-49.868-11.117
		c-10.262-4.604-19.129-8.579-37.984-8.579s-27.723,3.975-37.984,8.579c-11.623,5.209-24.797,11.117-49.868,11.117
		c-25.061,0-38.23-5.908-49.849-11.117c-10.262-4.604-19.12-8.579-37.97-8.579C6.499,274.851,0,268.352,0,260.33
		s6.499-14.521,14.521-14.521c25.066,0,38.235,5.908,49.853,11.122c10.262,4.599,19.12,8.574,37.966,8.574
		c18.855,0,27.723-3.975,37.984-8.579c11.623-5.209,24.797-11.117,49.868-11.117s38.244,5.908,49.868,11.117
		c10.262,4.604,19.129,8.579,37.985,8.579c18.86,0,27.723-3.975,37.989-8.579c11.628-5.209,24.801-11.117,49.877-11.117
		c25.071,0,38.249,5.908,49.872,11.117c10.267,4.604,19.129,8.579,37.989,8.579c8.021,0,14.521,6.499,14.521,14.521
		S461.793,294.548,453.772,294.548z"/>
</g>
<g>
</g>
<g>
</g>
<g>
</g>
<g>
</g>
<g>
</g>
<g>
</g>
<g>
</g>
<g>
</g>
<g>
</g>
<g>
</g>
<g>
</g>
<g>
</g>
<g>
</g>
<g>
</g>
<g>
</g>
</svg>
