<?xml version="1.0" encoding="iso-8859-1"?>
<!-- Generator: Adobe Illustrator 19.0.0, SVG Export Plug-In . SVG Version: 6.00 Build 0)  -->
<svg version="1.1" id="Capa_1" xmlns="http://www.w3.org/2000/svg" xmlns:xlink="http://www.w3.org/1999/xlink" x="0px" y="0px"
	 viewBox="0 0 468.293 468.293" style="enable-background:new 0 0 468.293 468.293;" xml:space="preserve">
<path style="fill:#FCD462;" d="M22.268,171.703c0,0,17.841-94.244,214.092-107.046l231.933,107.046H22.268z"/>
<path style="fill:#F6C358;" d="M22.268,171.703c0,0-66.904,118.196,31.222,231.933h414.803V171.703"/>
<g>
	<circle style="fill:#DC8744;" cx="316.628" cy="233.029" r="33.455"/>
	<circle style="fill:#DC8744;" cx="424.273" cy="211.843" r="20.63"/>
	<circle style="fill:#DC8744;" cx="434.825" cy="305.514" r="33.455"/>
	<circle style="fill:#DC8744;" cx="200.691" cy="216.289" r="33.455"/>
	<circle style="fill:#DC8744;" cx="108.887" cy="346.786" r="33.455"/>
	<circle style="fill:#DC8744;" cx="50.145" cy="233.029" r="33.455"/>
	<circle style="fill:#DC8744;" cx="278.728" cy="351.226" r="33.455"/>
	<circle style="fill:#DC8744;" cx="197.058" cy="311.633" r="16.165"/>
	<circle style="fill:#DC8744;" cx="120.688" cy="233.029" r="18.401"/>
	<ellipse style="fill:#DC8744;" cx="211.481" cy="92.254" rx="18.676" ry="6.412"/>
	<ellipse style="fill:#DC8744;" cx="219.373" cy="128.749" rx="18.676" ry="6.412"/>
	<ellipse style="fill:#DC8744;" cx="280.913" cy="118.178" rx="18.676" ry="6.412"/>
	<ellipse style="fill:#DC8744;" cx="263.955" cy="92.254" rx="18.676" ry="6.412"/>
	<ellipse style="fill:#DC8744;" cx="273.108" cy="149.404" rx="18.676" ry="6.412"/>
	<ellipse style="fill:#DC8744;" cx="347.785" cy="136.579" rx="18.676" ry="6.412"/>
	<ellipse style="fill:#DC8744;" cx="393.491" cy="155.81" rx="18.675" ry="6.412"/>
	<ellipse style="fill:#DC8744;" cx="148.542" cy="98.666" rx="18.676" ry="6.412"/>
	<ellipse style="fill:#DC8744;" cx="141.861" cy="128.749" rx="18.676" ry="6.412"/>
	<ellipse style="fill:#DC8744;" cx="197.058" cy="155.81" rx="18.676" ry="6.412"/>
	<ellipse style="fill:#DC8744;" cx="90.212" cy="149.404" rx="18.676" ry="6.412"/>
</g>
<g>
</g>
<g>
</g>
<g>
</g>
<g>
</g>
<g>
</g>
<g>
</g>
<g>
</g>
<g>
</g>
<g>
</g>
<g>
</g>
<g>
</g>
<g>
</g>
<g>
</g>
<g>
</g>
<g>
</g>
</svg>
