<?xml version="1.0" encoding="iso-8859-1"?>
<!-- Generator: Adobe Illustrator 19.0.0, SVG Export Plug-In . SVG Version: 6.00 Build 0)  -->
<svg version="1.1" id="Capa_1" xmlns="http://www.w3.org/2000/svg" xmlns:xlink="http://www.w3.org/1999/xlink" x="0px" y="0px"
	 viewBox="0 0 468.293 468.293" style="enable-background:new 0 0 468.293 468.293;" xml:space="preserve">
<path style="fill:#E56353;" d="M214.84,345.103H89.731c-49.231,0-89.14,42.104-89.14,94.042v29.148h303.391v-29.148
	C303.981,387.207,264.072,345.103,214.84,345.103z"/>
<path style="fill:#F6C358;" d="M125.766,314.515v23.196c0,12.068,9.783,21.851,21.851,21.851h2.689
	c12.068,0,21.851-9.783,21.851-21.851v-23.196H125.766z"/>
<path style="fill:#FAD362;" d="M175.268,99.154H120.7c-27.741,0-50.229,22.488-50.229,50.229v96.737
	c0,42.809,34.704,77.513,77.513,77.513s77.513-34.704,77.513-77.513v-96.737C225.497,121.643,203.009,99.154,175.268,99.154z"/>
<g>
	<path style="fill:#F6C358;" d="M242.215,181.949c2.014-20.642-17.117-16.11-17.117-16.11v47.828
		C245.236,206.619,242.215,181.949,242.215,181.949z"/>
	<path style="fill:#F6C358;" d="M70.071,165.839c0,0-19.131-4.531-17.118,16.111c0,0-3.021,24.669,17.118,31.718V165.839z"/>
	<polygon style="fill:#F6C358;" points="56.73,190.76 58.743,190.76 58.743,176.16 66.547,176.16 66.547,174.146 56.73,174.146 	"/>
</g>
<path style="fill:#3A556A;" d="M50.47,135.768c4.356-5.284,8.441-10.845,12.231-16.646c-2.233,7.994-4.476,16.041-5.374,24.353
	s-0.382,16.993,2.723,24.616c0.985,2.419,2.216,4.701,3.445,6.978c4.586,8.498,9.172,16.995,13.758,25.493
	c-6.504-12.105-6.417-27.067-6.138-41.172c0.052-2.626,0.106-5.274,0.639-7.833c0.544-2.613,1.572-5.065,2.604-7.489
	c3.999-9.39,8.243-18.829,14.527-26.51c3.422-4.183,7.498-7.931,9.571-13.098c1.042-2.598,1.52-5.431,1.859-8.251
	c0.549-4.564,0.753-9.252-0.196-13.734c-0.949-4.481-3.163-8.769-6.632-11.272c-3.353-2.42-7.522-2.971-11.516-2.902
	c-3.489,0.061-7.231,0.675-9.777,3.333C72.194,71.635,47.756,84.88,50.47,135.768z"/>
<path style="fill:#64798A;" d="M218.689,205.877c3.823-8.103,4.704-17.529,4.676-26.684c-0.044-14.798-2.497-30.151-10.283-42.139
	c-7.786-11.988-21.838-19.724-34.646-15.814c-5.936,1.812-11.128,5.866-16.95,8.091c-7.103,2.714-49.446,5.137-69.013-20.925
	c-5.535-7.372-5.729-18.093-5.922-27.703c-0.134-6.667,0.163-13.519,2.521-19.649c2.559-6.654,7.368-11.948,12.64-16.179
	c9.226-7.407,20.22-12.051,31.534-13.322c1.001,4.338,0.128,9.164-2.303,12.731c10.609-4.788,21.356-9.618,32.697-11.337
	c11.342-1.719,23.528-0.022,32.886,7.324c-7.079-0.236-14.205,1.559-20.506,5.163c14.766-0.099,68.215,20.021,71.643,104.106
	c-2.732-5.48-5.464-10.959-8.197-16.439c1.392,7.772,2.792,15.652,2.327,23.561C240.688,175.459,229.44,191.339,218.689,205.877z"/>
<g>
	<path style="fill:#3A556A;" d="M333.279,268.854V248.85c63.09,0,114.42-51.33,114.42-114.42c0-63.097-51.33-114.427-114.42-114.427
		c-33.404,0-65.056,14.547-86.837,39.909l-15.172-13.036C256.853,17.086,294.034,0,333.279,0c74.12,0,134.424,60.303,134.424,134.43
		C467.702,208.551,407.399,268.854,333.279,268.854z"/>
	<polygon style="fill:#3A556A;" points="375.473,312.826 308.73,259.49 362.066,192.741 377.694,205.23 336.847,256.352 
		387.962,297.198 	"/>
</g>
<g>
	<path style="fill:#2F4859;" d="M309.03,108.306c2.097-2.956,3.139-5.821,3.139-8.582c0-2.767-0.905-5.072-2.722-6.928
		c-1.817-1.856-4.148-2.787-6.987-2.787c-5.209,0-10.145,3.712-14.807,11.135l-14.801-8.764c3.868-5.997,8.113-10.542,12.73-13.622
		c4.617-3.08,10.503-4.617,17.646-4.617s13.42,2.273,18.831,6.811c5.411,4.539,8.113,10.718,8.113,18.532
		c0,4.265-1.087,8.354-3.256,12.261c-2.175,3.907-6.179,8.901-12.02,14.983l-14.924,15.517h32.688v16.578h-58.389v-13.739
		l24.281-24.874C303.443,115.234,306.94,111.269,309.03,108.306z"/>
	<path style="fill:#2F4859;" d="M376.6,123.055v-14.449h17.763v14.449h9.357v15.986h-9.357v19.782H376.6V139.04h-33.28v-14.091
		l29.491-48.914h20.134l-28.071,47.02H376.6z"/>
</g>
<g>
</g>
<g>
</g>
<g>
</g>
<g>
</g>
<g>
</g>
<g>
</g>
<g>
</g>
<g>
</g>
<g>
</g>
<g>
</g>
<g>
</g>
<g>
</g>
<g>
</g>
<g>
</g>
<g>
</g>
</svg>
