<?xml version="1.0" encoding="iso-8859-1"?>
<!-- Generator: Adobe Illustrator 19.0.0, SVG Export Plug-In . SVG Version: 6.00 Build 0)  -->
<svg version="1.1" id="Capa_1" xmlns="http://www.w3.org/2000/svg" xmlns:xlink="http://www.w3.org/1999/xlink" x="0px" y="0px"
	 viewBox="0 0 468.305 468.305" style="enable-background:new 0 0 468.305 468.305;" xml:space="preserve">
<g>
	<path style="fill:#44C4A1;" d="M403.831,341.527H221.737L113.963,193.506c-3.485-3.642-4.574-8.891-2.757-13.666
		c1.949-5.129,6.749-8.441,12.231-8.441h138.672l152.322,142.828c4.755,4.22,6.423,11.021,4.084,17.171
		C416.175,337.555,410.411,341.527,403.831,341.527z M403.831,325.063v8.232V325.063L403.831,325.063L403.831,325.063z
		 M230.114,325.063h171.808l-146.325-137.2H130.222L230.114,325.063z"/>
	<path style="fill:#44C4A1;" d="M225.934,341.527c-0.595,0-1.198-0.064-1.801-0.201c-4.438-0.989-7.231-5.386-6.242-9.824
		l42.534-190.708c0.993-4.438,5.426-7.243,9.828-6.238c4.438,0.989,7.231,5.386,6.242,9.824l-42.534,190.708
		C233.104,338.922,229.704,341.527,225.934,341.527z"/>
</g>
<circle style="fill:#64798A;" cx="72.254" cy="303.882" r="72.254"/>
<circle style="fill:#EBF0F3;" cx="72.254" cy="303.882" r="58.268"/>
<g>
	<circle style="fill:#64798A;" cx="72.254" cy="303.882" r="19.369"/>
	<circle style="fill:#64798A;" cx="396.051" cy="303.882" r="72.254"/>
</g>
<circle style="fill:#EBF0F3;" cx="396.051" cy="303.882" r="58.268"/>
<circle style="fill:#64798A;" cx="396.051" cy="303.882" r="19.369"/>
<path style="fill:#44C4A1;" d="M72.261,312.088c-1.475,0-2.966-0.394-4.313-1.222c-3.867-2.388-5.073-7.452-2.693-11.327
	c0.567-0.924,55.613-91.66,42.277-176.68l-38.233-14.784c-4.241-1.64-6.351-6.407-4.711-10.644
	c1.644-4.245,6.431-6.343,10.644-4.711l46.875,18.12l0.84,4.518c17.248,92.609-41.179,188.77-43.676,192.814
	C77.716,310.697,75.023,312.088,72.261,312.088z"/>
<path style="fill:#DC8744;" d="M216.838,126.919h99.297c0,0,25.039,35.561-43.56,31.212c0,0-20.857,0.533-27.783,0
	c-10.705-0.823-23.039-11.028-31.213-31.212H216.838z"/>
<path style="fill:#44C4A1;" d="M146.352,136.759c-0.953,0-1.917-0.161-2.858-0.514l-31.497-11.664
	c-4.265-1.576-6.439-6.311-4.864-10.579c1.584-4.261,6.339-6.455,10.579-4.856l31.497,11.664c4.265,1.576,6.439,6.311,4.864,10.579
	C152.844,134.709,149.696,136.759,146.352,136.759z"/>
<g>
</g>
<g>
</g>
<g>
</g>
<g>
</g>
<g>
</g>
<g>
</g>
<g>
</g>
<g>
</g>
<g>
</g>
<g>
</g>
<g>
</g>
<g>
</g>
<g>
</g>
<g>
</g>
<g>
</g>
</svg>
