<?xml version="1.0" encoding="iso-8859-1"?>
<!-- Generator: Adobe Illustrator 19.0.0, SVG Export Plug-In . SVG Version: 6.00 Build 0)  -->
<svg version="1.1" id="Capa_1" xmlns="http://www.w3.org/2000/svg" xmlns:xlink="http://www.w3.org/1999/xlink" x="0px" y="0px"
	 viewBox="0 0 468.293 468.293" style="enable-background:new 0 0 468.293 468.293;" xml:space="preserve">
<g>
	<path style="fill:#DC8744;" d="M400.686,419.184h-14.808c-8.439,0-15.281-6.841-15.281-15.281v-37.651h45.37v37.651
		C415.967,412.342,409.125,419.184,400.686,419.184z"/>
	<path style="fill:#DC8744;" d="M165.33,419.184h-14.808c-8.439,0-15.281-6.841-15.281-15.281v-37.651h45.37v37.651
		C180.61,412.342,173.769,419.184,165.33,419.184z"/>
</g>
<path style="fill:#2E9AE1;" d="M122.953,185.403V353.02h305.301V185.403c0-57.248-46.409-103.658-103.658-103.658H226.61
	C169.362,81.746,122.953,128.155,122.953,185.403z"/>
<g>
	<path style="fill:#2D93BA;" d="M445.608,185.718c-12.529,0-22.685,10.156-22.685,22.685v100.822H128.285V208.403
		c0-12.529-10.156-22.685-22.685-22.685s-22.685,10.156-22.685,22.685v146.179c0,14.797,11.996,26.793,26.793,26.793h331.792
		c14.797,0,26.793-11.996,26.793-26.793V208.403C468.293,195.874,458.136,185.718,445.608,185.718z"/>
	<circle style="fill:#2D93BA;" cx="298.021" cy="154.661" r="17.252"/>
	<circle style="fill:#2D93BA;" cx="253.128" cy="154.661" r="17.252"/>
	<circle style="fill:#2D93BA;" cx="369.077" cy="277.086" r="17.252"/>
	<circle style="fill:#2D93BA;" cx="322.31" cy="277.086" r="17.252"/>
	<circle style="fill:#2D93BA;" cx="275.606" cy="277.086" r="17.252"/>
	<circle style="fill:#2D93BA;" cx="228.901" cy="277.086" r="17.252"/>
	<circle style="fill:#2D93BA;" cx="182.147" cy="277.086" r="17.252"/>
	<circle style="fill:#2D93BA;" cx="320.5" cy="195.484" r="17.252"/>
	<circle style="fill:#2D93BA;" cx="275.606" cy="195.484" r="17.252"/>
	<circle style="fill:#2D93BA;" cx="230.706" cy="195.484" r="17.252"/>
	<circle style="fill:#2D93BA;" cx="299.145" cy="236.269" r="17.252"/>
	<circle style="fill:#2D93BA;" cx="344.039" cy="236.269" r="17.252"/>
	<circle style="fill:#2D93BA;" cx="254.189" cy="236.269" r="17.252"/>
	<circle style="fill:#2D93BA;" cx="207.191" cy="236.269" r="17.252"/>
	<circle style="fill:#2D93BA;" cx="275.606" cy="113.883" r="17.252"/>
</g>
<path style="fill:#D5D6DB;" d="M78.238,402.911H67.022V141.583H50.749v261.328H39.534c-8.987,0-16.273,7.286-16.273,16.273v0h71.25
	v0C94.511,410.197,87.225,402.911,78.238,402.911z"/>
<polygon style="fill:#FCD462;" points="89.355,49.109 28.416,49.109 0,154.257 117.771,154.257 "/>
<g>
</g>
<g>
</g>
<g>
</g>
<g>
</g>
<g>
</g>
<g>
</g>
<g>
</g>
<g>
</g>
<g>
</g>
<g>
</g>
<g>
</g>
<g>
</g>
<g>
</g>
<g>
</g>
<g>
</g>
</svg>
