<?xml version="1.0" encoding="iso-8859-1"?>
<!-- Generator: Adobe Illustrator 19.0.0, SVG Export Plug-In . SVG Version: 6.00 Build 0)  -->
<svg version="1.1" id="Capa_1" xmlns="http://www.w3.org/2000/svg" xmlns:xlink="http://www.w3.org/1999/xlink" x="0px" y="0px"
	 viewBox="0 0 468.293 468.293" style="enable-background:new 0 0 468.293 468.293;" xml:space="preserve">
<circle style="fill:#D15241;" cx="390.244" cy="369.633" r="78.049"/>
<g>
	<path style="fill:#FFFFFF;" d="M452.976,368.724c-1.985,0-3.7-1.476-3.96-3.492c-6.475-50.939-50.107-53.766-51.968-53.859
		c-2.193-0.114-3.898-1.985-3.783-4.189c0.104-2.193,1.902-3.596,4.168-3.794c0.52,0.031,52.165,3.128,59.503,60.844
		c0.281,2.183-1.268,4.178-3.461,4.459C453.309,368.714,453.142,368.724,452.976,368.724z"/>
	<circle style="fill:#FFFFFF;" cx="453.744" cy="378.318" r="5.157"/>
</g>
<circle style="fill:#D15241;" cx="234.146" cy="369.633" r="78.049"/>
<g>
	<path style="fill:#FFFFFF;" d="M296.878,368.724c-1.985,0-3.7-1.476-3.96-3.492c-6.475-50.939-50.107-53.766-51.968-53.859
		c-2.193-0.114-3.898-1.985-3.783-4.189c0.104-2.193,1.902-3.596,4.168-3.794c0.52,0.031,52.165,3.128,59.503,60.844
		c0.281,2.183-1.268,4.178-3.461,4.459C297.211,368.714,297.045,368.724,296.878,368.724z"/>
	<circle style="fill:#FFFFFF;" cx="297.647" cy="378.318" r="5.157"/>
</g>
<circle style="fill:#D15241;" cx="78.049" cy="369.633" r="78.049"/>
<g>
	<path style="fill:#FFFFFF;" d="M140.781,368.724c-1.985,0-3.7-1.476-3.96-3.492c-6.475-50.939-50.107-53.766-51.968-53.859
		c-2.193-0.114-3.898-1.985-3.783-4.189c0.104-2.193,1.902-3.596,4.168-3.794c0.52,0.031,52.165,3.128,59.503,60.844
		c0.281,2.183-1.268,4.178-3.461,4.459C141.113,368.714,140.947,368.724,140.781,368.724z"/>
	<circle style="fill:#FFFFFF;" cx="141.549" cy="378.318" r="5.157"/>
</g>
<circle style="fill:#D15241;" cx="156.098" cy="235.27" r="78.049"/>
<g>
	<path style="fill:#FFFFFF;" d="M218.83,234.356c-1.985,0-3.7-1.476-3.96-3.492c-6.475-50.939-50.107-53.766-51.968-53.859
		c-2.193-0.114-3.898-1.985-3.783-4.189c0.104-2.193,1.902-3.596,4.168-3.794c0.52,0.031,52.165,3.128,59.503,60.844
		c0.281,2.183-1.268,4.178-3.461,4.459C219.162,234.346,218.996,234.356,218.83,234.356z"/>
	<circle style="fill:#FFFFFF;" cx="219.567" cy="243.968" r="5.157"/>
</g>
<circle style="fill:#D15241;" cx="312.195" cy="234.334" r="78.049"/>
<g>
	<path style="fill:#FFFFFF;" d="M374.927,233.445c-1.985,0-3.7-1.476-3.96-3.492c-6.475-50.939-50.107-53.766-51.968-53.859
		c-2.193-0.114-3.898-1.985-3.783-4.189c0.104-2.193,1.902-3.596,4.168-3.794c0.52,0.031,52.165,3.128,59.503,60.844
		c0.281,2.183-1.268,4.178-3.461,4.459C375.26,233.434,375.094,233.445,374.927,233.445z"/>
	<circle style="fill:#FFFFFF;" cx="375.696" cy="243.075" r="5.157"/>
</g>
<circle style="fill:#D15241;" cx="234.146" cy="98.66" r="78.049"/>
<g>
	<path style="fill:#FFFFFF;" d="M296.878,97.746c-1.985,0-3.7-1.476-3.96-3.492c-6.475-50.939-50.107-53.766-51.968-53.859
		c-2.193-0.114-3.898-1.985-3.783-4.189c0.104-2.193,1.902-3.596,4.168-3.794c0.52,0.031,52.165,3.128,59.503,60.844
		c0.281,2.183-1.268,4.178-3.461,4.459C297.211,97.736,297.045,97.746,296.878,97.746z"/>
	<circle style="fill:#FFFFFF;" cx="297.647" cy="107.358" r="5.157"/>
</g>
<g>
</g>
<g>
</g>
<g>
</g>
<g>
</g>
<g>
</g>
<g>
</g>
<g>
</g>
<g>
</g>
<g>
</g>
<g>
</g>
<g>
</g>
<g>
</g>
<g>
</g>
<g>
</g>
<g>
</g>
</svg>
