<?xml version="1.0" encoding="iso-8859-1"?>
<!-- Generator: Adobe Illustrator 19.0.0, SVG Export Plug-In . SVG Version: 6.00 Build 0)  -->
<svg version="1.1" id="Capa_1" xmlns="http://www.w3.org/2000/svg" xmlns:xlink="http://www.w3.org/1999/xlink" x="0px" y="0px"
	 viewBox="0 0 474.526 474.526" style="enable-background:new 0 0 474.526 474.526;" xml:space="preserve">
<path style="fill:#D5D6DB;" d="M446.806,182.203h-129.12v80.183h145.518v-63.785C463.204,189.546,455.862,182.203,446.806,182.203z"
	/>
<g>
	<path style="fill:#2F4859;" d="M366.223,206.416v20.222c0,7.15,5.796,12.946,12.946,12.946H412.3
		c7.15,0,12.946-5.797,12.946-12.946v-20.222H366.223z"/>
	<path style="fill:#2F4859;" d="M60.434,224.688c0,6.959,5.642,12.602,12.602,12.602h32.249c6.96,0,12.602-5.642,12.602-12.602
		v-19.684H60.434V224.688z"/>
</g>
<path style="fill:#EBF0F3;" d="M24.423,182.203v80.183h424.674v-63.785c0-9.056-7.342-16.398-16.398-16.398H24.423z"/>
<path style="fill:#3A556A;" d="M6.233,247.307v51.233v18.529v38.057c0,6.681,5.416,12.097,12.097,12.097h0
	c6.681,0,12.097-5.416,12.097-12.097v-24.665h419.905v24.665c0,6.681,5.416,12.097,12.097,12.097l0,0
	c6.681,0,12.097-5.416,12.097-12.097V317.07v-18.529v-51.233H6.233z"/>
<path style="fill:#DC8744;" d="M131.256,212.687H75.068c-9.629,0-17.434,7.808-17.434,17.435c0,9.629,7.806,17.435,17.434,17.435
	h56.188c9.629,0,17.435-7.806,17.435-17.435C148.69,220.495,140.884,212.687,131.256,212.687z"/>
<path style="fill:#2F4859;" d="M0,121.485v138.101c0,4.703,3.812,8.515,8.515,8.515h43.518V121.485
	c0-7.833-6.35-14.182-14.182-14.182H14.182C6.35,107.302,0,113.652,0,121.485z"/>
<g>
</g>
<g>
</g>
<g>
</g>
<g>
</g>
<g>
</g>
<g>
</g>
<g>
</g>
<g>
</g>
<g>
</g>
<g>
</g>
<g>
</g>
<g>
</g>
<g>
</g>
<g>
</g>
<g>
</g>
</svg>
