<?xml version="1.0" encoding="iso-8859-1"?>
<!-- Generator: Adobe Illustrator 19.0.0, SVG Export Plug-In . SVG Version: 6.00 Build 0)  -->
<svg version="1.1" id="Capa_1" xmlns="http://www.w3.org/2000/svg" xmlns:xlink="http://www.w3.org/1999/xlink" x="0px" y="0px"
	 viewBox="0 0 468.324 468.324" style="enable-background:new 0 0 468.324 468.324;" xml:space="preserve">
<rect x="216.179" y="296.46" style="fill:#2F4859;" width="35.977" height="171.863"/>
<circle style="fill:#EBF0F3;" cx="234.162" cy="165.994" r="165.994"/>
<path style="fill:#2F4859;" d="M194.468,238.508v-127.04h41.162c15.598,0,25.766,0.635,30.504,1.906
	c7.279,1.906,13.374,6.052,18.285,12.435s7.366,14.631,7.366,24.741c0,7.799-1.415,14.356-4.246,19.671s-6.427,9.489-10.789,12.522
	c-4.362,3.033-8.796,5.041-13.302,6.023c-6.124,1.213-14.992,1.82-26.604,1.82h-16.725v47.922H194.468z M220.118,132.958v36.05
	h14.039c10.11,0,16.869-0.664,20.278-1.993c3.409-1.329,6.081-3.409,8.016-6.239c1.935-2.831,2.903-6.124,2.903-9.879
	c0-4.622-1.358-8.435-4.073-11.439c-2.715-3.004-6.153-4.882-10.312-5.633c-3.062-0.578-9.215-0.867-18.458-0.867H220.118z"/>
<path style="fill:#D15241;" d="M340.913,71.068c-3.709-4.154-7.641-8.086-11.795-11.795c-25.222-22.551-58.531-36.202-94.956-36.202
	c-78.783,0-142.953,64.169-142.953,142.953c0,36.424,13.65,69.732,36.202,94.956c3.709,4.154,7.641,8.086,11.795,11.795
	c25.222,22.551,58.531,36.202,94.956,36.202c78.783,0,142.953-64.169,142.953-142.953C377.115,129.599,363.465,96.29,340.913,71.068
	z M113.316,166.024c0-66.617,54.229-120.846,120.846-120.846c29.265,0,56.114,10.542,77.043,28.067L141.383,243.067
	C123.858,222.14,113.316,195.289,113.316,166.024z M234.162,286.87c-29.266,0-56.115-10.543-77.043-28.067l5.208-5.209
	L321.734,94.189l5.207-5.208c17.525,20.927,28.067,47.777,28.067,77.043C355.008,232.641,300.779,286.87,234.162,286.87z"/>
<g>
</g>
<g>
</g>
<g>
</g>
<g>
</g>
<g>
</g>
<g>
</g>
<g>
</g>
<g>
</g>
<g>
</g>
<g>
</g>
<g>
</g>
<g>
</g>
<g>
</g>
<g>
</g>
<g>
</g>
</svg>
