<?xml version="1.0" encoding="iso-8859-1"?>
<!-- Generator: Adobe Illustrator 19.0.0, SVG Export Plug-In . SVG Version: 6.00 Build 0)  -->
<svg version="1.1" id="Capa_1" xmlns="http://www.w3.org/2000/svg" xmlns:xlink="http://www.w3.org/1999/xlink" x="0px" y="0px"
	 viewBox="0 0 468.293 468.293" style="enable-background:new 0 0 468.293 468.293;" xml:space="preserve">
<path style="fill:#2F4859;" d="M367.597,54.315v413.978h33.002V54.315C400.598,24.364,376.234,0,346.283,0H232.153
	c-29.951,0-54.315,24.364-54.315,54.315v59.472h33.002V54.315c0-11.753,9.561-21.314,21.314-21.314h114.131
	C358.036,33.002,367.597,42.563,367.597,54.315z"/>
<path style="fill:#64798A;" d="M194.338,80.898c-64.045,0-115.965,51.92-115.965,115.965h231.93
	C310.303,132.817,258.384,80.898,194.338,80.898z"/>
<path style="fill:#2F4859;" d="M67.694,187.992L67.694,187.992c0,4.899,3.971,8.87,8.87,8.87h235.547c4.899,0,8.87-3.971,8.87-8.87
	l0,0c0-4.899-3.971-8.87-8.87-8.87H76.565C71.666,179.122,67.694,183.093,67.694,187.992z"/>
<g>
	<path style="fill:#2E9AE1;" d="M285.657,232.331c-3.04,0-5.5-1.731-5.5-3.87v-16.87c0-2.139,2.46-3.87,5.5-3.87s5.5,1.731,5.5,3.87
		v16.87C291.157,230.6,288.697,232.331,285.657,232.331z"/>
	<path style="fill:#2E9AE1;" d="M285.657,265.353c-3.04,0-5.5-1.731-5.5-3.87v-16.878c0-2.139,2.46-3.87,5.5-3.87
		s5.5,1.731,5.5,3.87v16.878C291.157,263.623,288.697,265.353,285.657,265.353z"/>
	<path style="fill:#2E9AE1;" d="M285.657,298.376c-3.04,0-5.5-1.731-5.5-3.87v-16.878c0-2.139,2.46-3.87,5.5-3.87
		s5.5,1.731,5.5,3.87v16.878C291.157,296.645,288.697,298.376,285.657,298.376z"/>
	<path style="fill:#2E9AE1;" d="M285.657,331.391c-3.04,0-5.5-1.731-5.5-3.87v-16.87c0-2.139,2.46-3.87,5.5-3.87s5.5,1.731,5.5,3.87
		v16.87C291.157,329.66,288.697,331.391,285.657,331.391z"/>
	<path style="fill:#2E9AE1;" d="M233.475,232.331c-3.04,0-5.5-1.731-5.5-3.87v-16.87c0-2.139,2.46-3.87,5.5-3.87
		c3.04,0,5.5,1.731,5.5,3.87v16.87C238.975,230.6,236.515,232.331,233.475,232.331z"/>
	<path style="fill:#2E9AE1;" d="M233.475,265.353c-3.04,0-5.5-1.731-5.5-3.87v-16.878c0-2.139,2.46-3.87,5.5-3.87
		c3.04,0,5.5,1.731,5.5,3.87v16.878C238.975,263.623,236.515,265.353,233.475,265.353z"/>
	<path style="fill:#2E9AE1;" d="M233.475,298.376c-3.04,0-5.5-1.731-5.5-3.87v-16.878c0-2.139,2.46-3.87,5.5-3.87
		c3.04,0,5.5,1.731,5.5,3.87v16.878C238.975,296.645,236.515,298.376,233.475,298.376z"/>
	<path style="fill:#2E9AE1;" d="M233.475,331.391c-3.04,0-5.5-1.731-5.5-3.87v-16.87c0-2.139,2.46-3.87,5.5-3.87
		c3.04,0,5.5,1.731,5.5,3.87v16.87C238.975,329.66,236.515,331.391,233.475,331.391z"/>
	<path style="fill:#2E9AE1;" d="M181.293,232.331c-3.04,0-5.5-1.731-5.5-3.87v-16.87c0-2.139,2.46-3.87,5.5-3.87
		c3.04,0,5.5,1.731,5.5,3.87v16.87C186.793,230.6,184.333,232.331,181.293,232.331z"/>
	<path style="fill:#2E9AE1;" d="M181.293,265.353c-3.04,0-5.5-1.731-5.5-3.87v-16.878c0-2.139,2.46-3.87,5.5-3.87
		c3.04,0,5.5,1.731,5.5,3.87v16.878C186.793,263.623,184.333,265.353,181.293,265.353z"/>
	<path style="fill:#2E9AE1;" d="M181.293,298.376c-3.04,0-5.5-1.731-5.5-3.87v-16.878c0-2.139,2.46-3.87,5.5-3.87
		c3.04,0,5.5,1.731,5.5,3.87v16.878C186.793,296.645,184.333,298.376,181.293,298.376z"/>
	<path style="fill:#2E9AE1;" d="M181.293,331.391c-3.04,0-5.5-1.731-5.5-3.87v-16.87c0-2.139,2.46-3.87,5.5-3.87
		c3.04,0,5.5,1.731,5.5,3.87v16.87C186.793,329.66,184.333,331.391,181.293,331.391z"/>
	<path style="fill:#2E9AE1;" d="M129.11,232.331c-3.04,0-5.5-1.731-5.5-3.87v-16.87c0-2.139,2.46-3.87,5.5-3.87
		c3.04,0,5.5,1.731,5.5,3.87v16.87C134.611,230.6,132.151,232.331,129.11,232.331z"/>
	<path style="fill:#2E9AE1;" d="M129.11,265.353c-3.04,0-5.5-1.731-5.5-3.87v-16.878c0-2.139,2.46-3.87,5.5-3.87
		c3.04,0,5.5,1.731,5.5,3.87v16.878C134.611,263.623,132.151,265.353,129.11,265.353z"/>
	<path style="fill:#2E9AE1;" d="M129.11,298.376c-3.04,0-5.5-1.731-5.5-3.87v-16.878c0-2.139,2.46-3.87,5.5-3.87
		c3.04,0,5.5,1.731,5.5,3.87v16.878C134.611,296.645,132.151,298.376,129.11,298.376z"/>
	<path style="fill:#2E9AE1;" d="M129.11,331.391c-3.04,0-5.5-1.731-5.5-3.87v-16.87c0-2.139,2.46-3.87,5.5-3.87
		c3.04,0,5.5,1.731,5.5,3.87v16.87C134.611,329.66,132.151,331.391,129.11,331.391z"/>
	<path style="fill:#2E9AE1;" d="M259.566,232.331c-3.04,0-5.5-1.731-5.5-3.87v-16.87c0-2.139,2.46-3.87,5.5-3.87s5.5,1.731,5.5,3.87
		v16.87C265.066,230.6,262.606,232.331,259.566,232.331z"/>
	<path style="fill:#2E9AE1;" d="M259.566,265.353c-3.04,0-5.5-1.731-5.5-3.87v-16.878c0-2.139,2.46-3.87,5.5-3.87
		s5.5,1.731,5.5,3.87v16.878C265.066,263.623,262.606,265.353,259.566,265.353z"/>
	<path style="fill:#2E9AE1;" d="M259.566,298.376c-3.04,0-5.5-1.731-5.5-3.87v-16.878c0-2.139,2.46-3.87,5.5-3.87
		s5.5,1.731,5.5,3.87v16.878C265.066,296.645,262.606,298.376,259.566,298.376z"/>
	<path style="fill:#2E9AE1;" d="M259.566,331.391c-3.04,0-5.5-1.731-5.5-3.87v-16.87c0-2.139,2.46-3.87,5.5-3.87s5.5,1.731,5.5,3.87
		v16.87C265.066,329.66,262.606,331.391,259.566,331.391z"/>
	<path style="fill:#2E9AE1;" d="M207.384,232.331c-3.04,0-5.5-1.731-5.5-3.87v-16.87c0-2.139,2.46-3.87,5.5-3.87s5.5,1.731,5.5,3.87
		v16.87C212.884,230.6,210.424,232.331,207.384,232.331z"/>
	<path style="fill:#2E9AE1;" d="M207.384,265.353c-3.04,0-5.5-1.731-5.5-3.87v-16.878c0-2.139,2.46-3.87,5.5-3.87
		s5.5,1.731,5.5,3.87v16.878C212.884,263.623,210.424,265.353,207.384,265.353z"/>
	<path style="fill:#2E9AE1;" d="M207.384,298.376c-3.04,0-5.5-1.731-5.5-3.87v-16.878c0-2.139,2.46-3.87,5.5-3.87
		s5.5,1.731,5.5,3.87v16.878C212.884,296.645,210.424,298.376,207.384,298.376z"/>
	<path style="fill:#2E9AE1;" d="M207.384,331.391c-3.04,0-5.5-1.731-5.5-3.87v-16.87c0-2.139,2.46-3.87,5.5-3.87s5.5,1.731,5.5,3.87
		v16.87C212.884,329.66,210.424,331.391,207.384,331.391z"/>
	<path style="fill:#2E9AE1;" d="M155.202,232.331c-3.04,0-5.5-1.731-5.5-3.87v-16.87c0-2.139,2.46-3.87,5.5-3.87
		c3.04,0,5.5,1.731,5.5,3.87v16.87C160.702,230.6,158.242,232.331,155.202,232.331z"/>
	<path style="fill:#2E9AE1;" d="M155.202,265.353c-3.04,0-5.5-1.731-5.5-3.87v-16.878c0-2.139,2.46-3.87,5.5-3.87
		c3.04,0,5.5,1.731,5.5,3.87v16.878C160.702,263.623,158.242,265.353,155.202,265.353z"/>
	<path style="fill:#2E9AE1;" d="M155.202,298.376c-3.04,0-5.5-1.731-5.5-3.87v-16.878c0-2.139,2.46-3.87,5.5-3.87
		c3.04,0,5.5,1.731,5.5,3.87v16.878C160.702,296.645,158.242,298.376,155.202,298.376z"/>
	<path style="fill:#2E9AE1;" d="M155.202,331.391c-3.04,0-5.5-1.731-5.5-3.87v-16.87c0-2.139,2.46-3.87,5.5-3.87
		c3.04,0,5.5,1.731,5.5,3.87v16.87C160.702,329.66,158.242,331.391,155.202,331.391z"/>
	<path style="fill:#2E9AE1;" d="M103.019,232.331c-3.04,0-5.5-1.731-5.5-3.87v-16.87c0-2.139,2.46-3.87,5.5-3.87
		c3.04,0,5.5,1.731,5.5,3.87v16.87C108.52,230.6,106.06,232.331,103.019,232.331z"/>
	<path style="fill:#2E9AE1;" d="M103.019,265.353c-3.04,0-5.5-1.731-5.5-3.87v-16.878c0-2.139,2.46-3.87,5.5-3.87
		c3.04,0,5.5,1.731,5.5,3.87v16.878C108.52,263.623,106.06,265.353,103.019,265.353z"/>
	<path style="fill:#2E9AE1;" d="M103.019,298.376c-3.04,0-5.5-1.731-5.5-3.87v-16.878c0-2.139,2.46-3.87,5.5-3.87
		c3.04,0,5.5,1.731,5.5,3.87v16.878C108.52,296.645,106.06,298.376,103.019,298.376z"/>
	<path style="fill:#2E9AE1;" d="M103.019,331.391c-3.04,0-5.5-1.731-5.5-3.87v-16.87c0-2.139,2.46-3.87,5.5-3.87
		c3.04,0,5.5,1.731,5.5,3.87v16.87C108.52,329.66,106.06,331.391,103.019,331.391z"/>
</g>
<path style="fill:#FFFFFF;" d="M174.593,105.157c-14.966,5.354-28.404,12.464-39.881,22.313
	c-11.582,9.725-20.802,21.816-28.559,35.688c2.408-15.838,11.584-30.554,23.971-41.096
	C142.558,111.573,158.579,104.939,174.593,105.157z"/>
<g>
</g>
<g>
</g>
<g>
</g>
<g>
</g>
<g>
</g>
<g>
</g>
<g>
</g>
<g>
</g>
<g>
</g>
<g>
</g>
<g>
</g>
<g>
</g>
<g>
</g>
<g>
</g>
<g>
</g>
</svg>
