<?xml version="1.0" encoding="iso-8859-1"?>
<!-- Generator: Adobe Illustrator 19.0.0, SVG Export Plug-In . SVG Version: 6.00 Build 0)  -->
<svg version="1.1" id="Capa_1" xmlns="http://www.w3.org/2000/svg" xmlns:xlink="http://www.w3.org/1999/xlink" x="0px" y="0px"
	 viewBox="0 0 468.293 468.293" style="enable-background:new 0 0 468.293 468.293;" xml:space="preserve">
<g>
	<polygon style="fill:#D5D6DB;" points="314.335,145.969 246.815,78.741 66.303,78.741 66.303,120.336 229.51,120.336 
		284.795,175.381 	"/>
	<path style="fill:#D5D6DB;" d="M448.878,259.781c-5.855-71.955-66.316-128.544-140.091-128.544
		c-73.776,0-134.237,56.588-140.091,128.544H448.878z"/>
	<path style="fill:#D5D6DB;" d="M448.822,254.249H168.752c-10.754,0-19.471,8.68-19.471,19.386v0.001
		c0,10.706,8.717,19.386,19.471,19.386h280.069c10.754,0,19.471-8.68,19.471-19.386v-0.001
		C468.293,262.929,459.575,254.249,448.822,254.249z"/>
	<path style="fill:#D5D6DB;" d="M0,0v259.781c39.999,0,72.424-32.285,72.424-72.111V72.111C72.424,32.285,39.999,0,0,0z"/>
</g>
<g>
	<path style="fill:#2E9AE1;" d="M423.716,327.505c0,0-18.764,21.362-18.764,31.68c0,10.319,8.401,18.683,18.764,18.683
		c10.363,0,18.764-8.364,18.764-18.683C442.48,348.866,423.716,327.505,423.716,327.505z"/>
	<path style="fill:#2E9AE1;" d="M376.091,369.856c0,0-18.764,21.362-18.764,31.68c0,10.319,8.401,18.683,18.764,18.683
		c10.363,0,18.764-8.364,18.764-18.683C394.856,391.217,376.091,369.856,376.091,369.856z"/>
	<path style="fill:#2E9AE1;" d="M368.536,302.323c0,0-18.764,21.362-18.764,31.68c0,10.319,8.401,18.683,18.764,18.683
		c10.363,0,18.764-8.364,18.764-18.683C387.3,323.685,368.536,302.323,368.536,302.323z"/>
	<path style="fill:#2E9AE1;" d="M297.813,344.674c0,0-18.764,21.362-18.764,31.68c0,10.319,8.401,18.683,18.764,18.683
		c10.363,0,18.764-8.364,18.764-18.683C316.577,366.036,297.813,344.674,297.813,344.674z"/>
	<path style="fill:#2E9AE1;" d="M316.577,413.351c0,0-18.764,21.362-18.764,31.68c0,10.319,8.401,18.683,18.764,18.683
		c10.363,0,18.764-8.364,18.764-18.683C335.341,434.713,316.577,413.351,316.577,413.351z"/>
	<path style="fill:#2E9AE1;" d="M250.188,417.929c0,0-18.764,21.362-18.764,31.68c0,10.319,8.401,18.683,18.764,18.683
		c10.363,0,18.764-8.364,18.764-18.683C268.952,439.291,250.188,417.929,250.188,417.929z"/>
	<path style="fill:#2E9AE1;" d="M193.858,372.908c0,0-18.764,21.362-18.764,31.68c0,10.319,8.401,18.683,18.764,18.683
		c10.363,0,18.764-8.364,18.764-18.683C212.623,394.269,193.858,372.908,193.858,372.908z"/>
	<path style="fill:#2E9AE1;" d="M239.842,319.492c0,0-18.764,21.362-18.764,31.68c0,10.319,8.401,18.683,18.764,18.683
		c10.363,0,18.764-8.364,18.764-18.683C258.606,340.854,239.842,319.492,239.842,319.492z"/>
	<path style="fill:#2E9AE1;" d="M423.718,368.711c-5.276,0-9.569-4.274-9.569-9.528"/>
</g>
<path style="fill:#EBF0F3;" d="M423.718,368.711c-2.549,1.397-5.917,0.485-7.982-1.581c-2.08-2.051-3-5.41-1.587-7.948
	c1.396,2.459,2.544,4.052,4.025,5.521C419.643,366.184,421.248,367.33,423.718,368.711z"/>
<path style="fill:#2E9AE1;" d="M376.091,411.062c-5.272,0-9.565-4.274-9.565-9.528"/>
<path style="fill:#EBF0F3;" d="M376.091,411.062c-2.548,1.397-5.916,0.483-7.979-1.582c-2.079-2.051-2.998-5.408-1.585-7.946
	c1.396,2.458,2.543,4.051,4.023,5.52C372.018,408.534,373.622,409.681,376.091,411.062z"/>
<path style="fill:#2E9AE1;" d="M368.538,343.529c-5.276,0-9.569-4.274-9.569-9.528"/>
<path style="fill:#EBF0F3;" d="M368.538,343.529c-2.549,1.397-5.917,0.485-7.982-1.581c-2.08-2.051-3-5.41-1.587-7.947
	c1.396,2.459,2.544,4.052,4.025,5.521C364.462,341.002,366.068,342.148,368.538,343.529z"/>
<path style="fill:#2E9AE1;" d="M297.811,385.88c-5.272,0-9.565-4.274-9.565-9.528"/>
<path style="fill:#EBF0F3;" d="M297.811,385.88c-2.548,1.397-5.916,0.483-7.979-1.582c-2.079-2.051-2.998-5.408-1.585-7.946
	c1.396,2.458,2.543,4.051,4.023,5.52C293.738,383.352,295.342,384.499,297.811,385.88z"/>
<path style="fill:#2E9AE1;" d="M316.577,454.557c-5.276,0-9.569-4.274-9.569-9.528"/>
<path style="fill:#EBF0F3;" d="M316.577,454.557c-2.549,1.397-5.917,0.485-7.982-1.581c-2.08-2.051-3-5.41-1.587-7.947
	c1.396,2.459,2.544,4.052,4.025,5.521C312.502,452.03,314.108,453.176,316.577,454.557z"/>
<path style="fill:#2E9AE1;" d="M250.188,459.136c-5.276,0-9.569-4.274-9.569-9.528"/>
<path style="fill:#EBF0F3;" d="M250.188,459.136c-2.549,1.397-5.917,0.485-7.982-1.581c-2.08-2.051-3-5.41-1.587-7.948
	c1.396,2.459,2.544,4.052,4.025,5.521C246.113,456.608,247.719,457.755,250.188,459.136z"/>
<path style="fill:#2E9AE1;" d="M193.859,414.116c-5.276,0-9.569-4.274-9.569-9.528"/>
<path style="fill:#EBF0F3;" d="M193.859,414.116c-2.549,1.397-5.917,0.485-7.982-1.581c-2.08-2.051-3-5.41-1.587-7.947
	c1.396,2.459,2.544,4.052,4.025,5.521C189.783,411.588,191.389,412.735,193.859,414.116z"/>
<path style="fill:#2E9AE1;" d="M239.842,360.699c-5.276,0-9.569-4.274-9.569-9.528"/>
<path style="fill:#EBF0F3;" d="M239.842,360.699c-2.549,1.397-5.917,0.485-7.982-1.581c-2.08-2.051-3-5.41-1.587-7.947
	c1.396,2.459,2.544,4.052,4.025,5.521C235.767,358.171,237.373,359.318,239.842,360.699z"/>
<g>
</g>
<g>
</g>
<g>
</g>
<g>
</g>
<g>
</g>
<g>
</g>
<g>
</g>
<g>
</g>
<g>
</g>
<g>
</g>
<g>
</g>
<g>
</g>
<g>
</g>
<g>
</g>
<g>
</g>
</svg>
