<?xml version="1.0" encoding="iso-8859-1"?>
<!-- Generator: Adobe Illustrator 19.0.0, SVG Export Plug-In . SVG Version: 6.00 Build 0)  -->
<svg version="1.1" id="Capa_1" xmlns="http://www.w3.org/2000/svg" xmlns:xlink="http://www.w3.org/1999/xlink" x="0px" y="0px"
	 viewBox="0 0 468.293 468.293" style="enable-background:new 0 0 468.293 468.293;" xml:space="preserve">
<path style="fill:#EBF0F3;" d="M468.293,167.571l-44.685,44.685l-62.514-60.652l-0.959-0.959v255.811H106.24V150.645l-61.612,61.611
	L0,167.571L102.968,64.603h95.915c0,19.465,15.798,35.263,35.263,35.263s35.263-15.798,35.263-35.263h94.053L468.293,167.571z"/>
<path style="fill:#D15241;" d="M269.409,64.603c0,19.465-15.798,35.263-35.263,35.263s-35.263-15.798-35.263-35.263H107.2v309.072
	h253.894V64.603H269.409z M318.891,61.895v0.45c0.056-0.113,0.056-0.282,0.056-0.508C318.947,61.895,318.891,61.895,318.891,61.895z
	"/>
<g>
	<rect x="107.202" y="340.917" style="fill:#E56353;" width="253.896" height="32.78"/>
	<rect x="107.202" y="271.017" style="fill:#E56353;" width="253.896" height="32.774"/>
	<rect x="107.202" y="201.122" style="fill:#E56353;" width="253.896" height="32.774"/>
</g>
<path style="fill:#EBF0F3;" d="M291.978,64.603c0,31.934-25.897,57.831-57.831,57.831s-57.831-25.898-57.831-57.831h22.568
	c0,19.465,15.798,35.263,35.263,35.263s35.263-15.798,35.263-35.263H291.978z"/>
<g>
</g>
<g>
</g>
<g>
</g>
<g>
</g>
<g>
</g>
<g>
</g>
<g>
</g>
<g>
</g>
<g>
</g>
<g>
</g>
<g>
</g>
<g>
</g>
<g>
</g>
<g>
</g>
<g>
</g>
</svg>
