<?xml version="1.0" encoding="iso-8859-1"?>
<!-- Generator: Adobe Illustrator 19.0.0, SVG Export Plug-In . SVG Version: 6.00 Build 0)  -->
<svg version="1.1" id="Capa_1" xmlns="http://www.w3.org/2000/svg" xmlns:xlink="http://www.w3.org/1999/xlink" x="0px" y="0px"
	 viewBox="0 0 468.293 468.293" style="enable-background:new 0 0 468.293 468.293;" xml:space="preserve">
<path style="fill:#F7BE56;" d="M222.61,91.149c-64.035,0-115.946,111.824-115.946,249.766c0,41.196,4.714,79.937,12.933,114.163
	c1.88,7.83,9.047,13.215,17.099,13.215h171.826c8.052,0,15.219-5.386,17.099-13.215c8.219-34.225,12.933-72.967,12.933-114.163
	C338.556,202.973,286.645,91.149,222.61,91.149z"/>
<path style="fill:#2D93BA;" d="M130.985,272.527c-2.478,20.644-3.99,42.591-3.99,66.041c0,37.485,3.752,74.495,10.916,108.466
	h169.397c7.164-33.971,10.916-70.981,10.916-108.466c0-23.45-1.512-45.397-3.99-66.041H130.985z"/>
<g>
	<path style="fill:#2F4859;" d="M167.183,86.8v34.784h110.914V86.8c0-7.383-5.985-13.368-13.368-13.368h-84.178
		C173.169,73.432,167.183,79.417,167.183,86.8z"/>
	<rect x="205.237" y="10.309" style="fill:#2F4859;" width="35.103" height="76.007"/>
	<path style="fill:#2F4859;" d="M357.902,45.758L312.146,0H168.985c-7.026,0-12.722,5.696-12.722,12.722v0.002
		c0,7.026,5.696,12.722,12.722,12.722h132.621l38.304,38.303c4.968,4.968,13.024,4.968,17.992,0l0,0
		C362.87,58.781,362.87,50.726,357.902,45.758z"/>
</g>
<g>
</g>
<g>
</g>
<g>
</g>
<g>
</g>
<g>
</g>
<g>
</g>
<g>
</g>
<g>
</g>
<g>
</g>
<g>
</g>
<g>
</g>
<g>
</g>
<g>
</g>
<g>
</g>
<g>
</g>
</svg>
