<?xml version="1.0" encoding="iso-8859-1"?>
<!-- Generator: Adobe Illustrator 19.0.0, SVG Export Plug-In . SVG Version: 6.00 Build 0)  -->
<svg version="1.1" id="Capa_1" xmlns="http://www.w3.org/2000/svg" xmlns:xlink="http://www.w3.org/1999/xlink" x="0px" y="0px"
	 viewBox="0 0 468.293 468.293" style="enable-background:new 0 0 468.293 468.293;" xml:space="preserve">
<path style="fill:#2E9AE1;" d="M277.713,340.465c-10.364-10.364-26.228-11.305-35.432-2.1l-11.625,11.625
	c-6.888,6.888-19.387,6.861-34.086,1.202c-14.676-5.681-31.523-16.921-47.035-32.433c-31.024-31.024-45.007-67.345-31.231-81.121
	l11.625-11.625c9.204-9.205,8.264-25.068-2.1-35.432L69.01,131.762c-10.364-10.364-26.228-11.304-35.432-2.1l-19.187,19.187
	c-37.395,37.395,0.604,136.019,84.819,220.234c42.083,42.083,87.835,72.668,127.689,88.011
	c39.854,15.344,73.837,15.516,92.546-3.192l19.187-19.187c9.204-9.204,8.264-25.068-2.1-35.432L277.713,340.465z"/>
<g>
	<path style="fill:#1C75A1;" d="M229.898,350.593l96.428,96.428l12.306-12.306c9.204-9.204,8.264-25.068-2.1-35.432l-58.818-58.818
		c-10.364-10.364-26.228-11.305-35.432-2.1l-11.625,11.625C230.426,350.219,230.14,350.379,229.898,350.593z"/>
	<path style="fill:#1C75A1;" d="M21.272,141.968l96.428,96.428c0.214-0.242,0.374-0.528,0.604-0.758l11.625-11.625
		c9.204-9.205,8.264-25.068-2.1-35.432L69.01,131.762c-10.364-10.364-26.228-11.304-35.432-2.1L21.272,141.968z"/>
</g>
<g>
	<path style="fill:#2F4859;" d="M335.438,134.634v29.017H225.93c1.186-10.969,4.743-21.364,10.673-31.185
		c5.929-9.821,17.64-22.847,35.132-39.078c14.082-13.119,22.717-22.013,25.904-26.682c4.299-6.448,6.448-12.822,6.448-19.122
		c0-6.967-1.871-12.322-5.614-16.065c-3.743-3.743-8.913-5.614-15.509-5.614c-6.522,0-11.711,1.964-15.565,5.892
		c-3.854,3.928-6.078,10.451-6.671,19.567l-31.129-3.113c1.853-17.195,7.671-29.536,17.455-37.022
		C256.836,3.743,269.066,0,283.741,0c16.083,0,28.72,4.336,37.911,13.008s13.786,19.456,13.786,32.352
		c0,7.338-1.316,14.323-3.947,20.957c-2.631,6.633-6.8,13.582-12.507,20.845c-3.78,4.818-10.599,11.748-20.456,20.79
		s-16.102,15.046-18.733,18.01c-2.631,2.965-4.762,5.855-6.393,8.672H335.438z"/>
	<path style="fill:#2F4859;" d="M417.819,163.651v-32.797h-66.705v-27.349L421.821,0h26.237v103.393h20.234v27.46h-20.234v32.797
		H417.819z M417.819,103.393V47.694l-37.466,55.699H417.819z"/>
</g>
<g>
	<path style="fill:#DC8744;" d="M242.155,273.855v-70.967h14.329v27.932h28.077v-27.932h14.329v70.967h-14.329v-31.03h-28.077v31.03
		H242.155z"/>
	<path style="fill:#DC8744;" d="M313.752,273.855v-70.967h30.159c7.584,0,13.095,0.637,16.532,1.912
		c3.437,1.275,6.188,3.542,8.254,6.801c2.065,3.26,3.098,6.987,3.098,11.182c0,5.325-1.565,9.722-4.696,13.191
		c-3.13,3.469-7.81,5.656-14.039,6.559c3.098,1.807,5.656,3.792,7.673,5.954c2.017,2.162,4.736,6.003,8.157,11.521l8.665,13.845
		h-17.137l-10.359-15.442c-3.679-5.519-6.196-8.996-7.552-10.432c-1.355-1.436-2.792-2.42-4.308-2.953
		c-1.517-0.533-3.921-0.799-7.213-0.799h-2.905v29.626H313.752z M328.081,232.901h10.602c6.874,0,11.166-0.29,12.877-0.871
		s3.05-1.581,4.018-3.001c0.968-1.42,1.452-3.195,1.452-5.325c0-2.388-0.637-4.316-1.912-5.785
		c-1.275-1.468-3.074-2.396-5.398-2.784c-1.162-0.161-4.647-0.242-10.456-0.242h-11.182V232.901z"/>
	<path style="fill:#DC8744;" d="M381.67,250.764l13.942-1.355c0.839,4.68,2.541,8.117,5.107,10.311
		c2.566,2.195,6.027,3.292,10.384,3.292c4.615,0,8.092-0.976,10.432-2.929c2.34-1.952,3.51-4.236,3.51-6.85
		c0-1.678-0.492-3.106-1.476-4.284s-2.703-2.203-5.156-3.074c-1.678-0.581-5.502-1.614-11.473-3.098
		c-7.681-1.904-13.07-4.244-16.169-7.019c-4.357-3.905-6.535-8.665-6.535-14.281c0-3.615,1.025-6.995,3.074-10.142
		c2.049-3.147,5.002-5.543,8.859-7.189c3.857-1.646,8.512-2.469,13.966-2.469c8.907,0,15.612,1.952,20.114,5.857
		c4.502,3.905,6.866,9.117,7.092,15.636l-14.329,0.629c-0.613-3.647-1.928-6.269-3.945-7.866c-2.017-1.597-5.043-2.396-9.077-2.396
		c-4.163,0-7.423,0.855-9.779,2.566c-1.517,1.097-2.275,2.566-2.275,4.405c0,1.678,0.71,3.114,2.13,4.308
		c1.807,1.517,6.196,3.098,13.167,4.744c6.971,1.646,12.126,3.348,15.467,5.107c3.34,1.759,5.954,4.163,7.842,7.213
		c1.888,3.05,2.832,6.818,2.832,11.303c0,4.066-1.13,7.875-3.389,11.424c-2.259,3.55-5.454,6.188-9.585,7.915
		c-4.131,1.727-9.278,2.59-15.442,2.59c-8.972,0-15.862-2.073-20.671-6.221C385.478,264.746,382.606,258.703,381.67,250.764z"/>
</g>
<g>
</g>
<g>
</g>
<g>
</g>
<g>
</g>
<g>
</g>
<g>
</g>
<g>
</g>
<g>
</g>
<g>
</g>
<g>
</g>
<g>
</g>
<g>
</g>
<g>
</g>
<g>
</g>
<g>
</g>
</svg>
