<?xml version="1.0" encoding="iso-8859-1"?>
<!-- Generator: Adobe Illustrator 19.0.0, SVG Export Plug-In . SVG Version: 6.00 Build 0)  -->
<svg version="1.1" id="Capa_1" xmlns="http://www.w3.org/2000/svg" xmlns:xlink="http://www.w3.org/1999/xlink" x="0px" y="0px"
	 viewBox="0 0 468.293 468.293" style="enable-background:new 0 0 468.293 468.293;" xml:space="preserve">
<g>
	<path style="fill:#2F4859;" d="M154.19,215.485l-52.718,123.511H39.651v-33.412c0-21.899-17.752-39.651-39.651-39.651v168.003
		c21.899,0,39.651-17.753,39.651-39.651v-33.412h69.05c4.381,0,8.34-2.614,10.06-6.644l59.22-138.743H154.19z"/>
	<path style="fill:#2F4859;" d="M157.472,167.63l-16.195,45.757c-4.577,12.932,2.196,27.126,15.128,31.703
		c12.932,4.577,27.126-2.196,31.703-15.128l16.195-45.757L157.472,167.63z"/>
</g>
<rect x="376.264" y="102.194" style="fill:#64798A;" width="42.808" height="71.63"/>
<path style="fill:#E1E6E9;" d="M337.034,78.86v118.292h42.809c6.092,0,11.031-4.939,11.031-11.031v-96.23
	c0-6.092-4.939-11.031-11.031-11.031H337.034z"/>
<path style="fill:#EBF0F3;" d="M347.63,68.275H122.03c-7.362,0-13.331,5.968-13.331,13.331v112.8
	c0,7.362,5.968,13.331,13.331,13.331H347.63c7.362,0,13.331-5.968,13.331-13.331v-112.8
	C360.961,74.243,354.993,68.275,347.63,68.275z"/>
<path style="fill:#D5D6DB;" d="M102.414,34.357c-5.213,0-9.439,4.226-9.439,9.438v41.702c0,5.213,4.226,9.439,9.439,9.439h246.313
	c47.228,0,91.632-22.498,119.566-60.579H102.414z"/>
<path style="fill:#EBF0F3;" d="M164.985,212.522c-5.034,0-9.115,4.081-9.115,9.115c0,5.034,4.081,9.115,9.115,9.115
	s9.115-4.081,9.115-9.115C174.1,216.603,170.019,212.522,164.985,212.522z"/>
<circle style="fill:#E56353;" cx="335.173" cy="173.83" r="9.266"/>
<g>
</g>
<g>
</g>
<g>
</g>
<g>
</g>
<g>
</g>
<g>
</g>
<g>
</g>
<g>
</g>
<g>
</g>
<g>
</g>
<g>
</g>
<g>
</g>
<g>
</g>
<g>
</g>
<g>
</g>
</svg>
