<?xml version="1.0" encoding="iso-8859-1"?>
<!-- Generator: Adobe Illustrator 19.0.0, SVG Export Plug-In . SVG Version: 6.00 Build 0)  -->
<svg version="1.1" id="Capa_1" xmlns="http://www.w3.org/2000/svg" xmlns:xlink="http://www.w3.org/1999/xlink" x="0px" y="0px"
	 viewBox="0 0 478.102 478.102" style="enable-background:new 0 0 478.102 478.102;" xml:space="preserve">
<g>
	<path style="fill:#D5D6DB;" d="M355.928,0L104.086,337.959l32.784,40.562c0,0,107.37-115.738,147.645-159.025
		C316.566,185.049,403.983,91.895,355.928,0z"/>
	<path style="fill:#D5D6DB;" d="M89.066,10.972l271.971,321.983l-24.395,48.071c0,0-120.079-114.565-162.918-155.317
		C139.633,193.278,46.701,105.625,89.066,10.972z"/>
</g>
<circle style="fill:#3A556A;" cx="224.534" cy="229.585" r="21.96"/>
<circle style="fill:#64798A;" cx="224.534" cy="229.585" r="13.175"/>
<g>
	<path style="fill:#44C4A1;" d="M388.321,478.102c-46.799,0-84.877-38.078-84.877-84.877s38.078-84.877,84.877-84.877
		s84.877,38.078,84.877,84.877S435.12,478.102,388.321,478.102z M388.321,348.291c-24.777,0-44.935,20.158-44.935,44.935
		c0,24.777,20.158,44.935,44.935,44.935s44.935-20.158,44.935-44.935C433.255,368.449,413.097,348.291,388.321,348.291z"/>
	<path style="fill:#44C4A1;" d="M89.782,478.102c-46.799,0-84.877-38.078-84.877-84.877s38.078-84.877,84.877-84.877
		s84.877,38.078,84.877,84.877S136.581,478.102,89.782,478.102z M89.782,348.291c-24.777,0-44.935,20.158-44.935,44.935
		c0,24.777,20.158,44.935,44.935,44.935s44.935-20.158,44.935-44.935C134.716,368.449,114.558,348.291,89.782,348.291z"/>
</g>
<g>
</g>
<g>
</g>
<g>
</g>
<g>
</g>
<g>
</g>
<g>
</g>
<g>
</g>
<g>
</g>
<g>
</g>
<g>
</g>
<g>
</g>
<g>
</g>
<g>
</g>
<g>
</g>
<g>
</g>
</svg>
