<?xml version="1.0" encoding="iso-8859-1"?>
<!-- Generator: Adobe Illustrator 19.0.0, SVG Export Plug-In . SVG Version: 6.00 Build 0)  -->
<svg version="1.1" id="Capa_1" xmlns="http://www.w3.org/2000/svg" xmlns:xlink="http://www.w3.org/1999/xlink" x="0px" y="0px"
	 viewBox="0 0 468.293 468.293" style="enable-background:new 0 0 468.293 468.293;" xml:space="preserve">
<path style="fill:#64798A;" d="M429.489,0H38.803C22.931,0,10.065,12.866,10.065,28.738v390.687
	c0,15.872,12.866,28.738,28.739,28.738h45.353v11.979c0,4.501,3.649,8.15,8.15,8.15h44.152c4.501,0,8.15-3.649,8.15-8.15v-11.979
	h179.075v11.979c0,4.501,3.649,8.15,8.15,8.15h44.152c4.501,0,8.15-3.649,8.15-8.15v-11.979h45.353
	c15.872,0,28.739-12.866,28.739-28.738V28.738C458.228,12.866,445.362,0,429.489,0z"/>
<rect x="48.047" y="37.982" style="fill:#EBF0F3;" width="372.199" height="372.199"/>
<g>
	<path style="fill:#2F4859;" d="M405.026,100.282v51.184c0,3.504,2.841,6.345,6.345,6.345h16.234c3.504,0,6.345-2.841,6.345-6.345
		v-51.184c0-3.504-2.841-6.345-6.345-6.345h-16.234C407.867,93.937,405.026,96.778,405.026,100.282z"/>
	<path style="fill:#2F4859;" d="M411.371,354.226h16.234c3.504,0,6.345-2.841,6.345-6.345v-51.184c0-3.504-2.841-6.345-6.345-6.345
		h-16.234c-3.504,0-6.345,2.841-6.345,6.345v51.184C405.026,351.386,407.867,354.226,411.371,354.226z"/>
</g>
<path style="fill:#1C75A1;" d="M207.64,185.965c0,1.273-0.075,2.472-0.15,3.67c-0.748,9.812-4.718,18.8-10.785,25.84
	c-1.498,1.872-3.295,3.595-5.168,5.168c-7.041,6.067-16.029,9.962-25.841,10.711c-1.199,0.075-2.396,0.15-3.67,0.15
	c-1.199,0-2.396-0.075-3.595-0.15c-9.811-0.749-18.8-4.644-25.841-10.711c-1.872-1.498-3.595-3.296-5.168-5.168
	c-6.142-7.041-10.037-16.029-10.785-25.84c-0.075-1.198-0.15-2.397-0.15-3.67c0-1.198,0.075-2.397,0.15-3.595
	c0.748-9.887,4.643-18.8,10.785-25.915c1.498-1.872,3.22-3.595,5.093-5.168c7.116-6.067,16.029-9.962,25.916-10.711
	c1.199-0.075,2.396-0.15,3.595-0.15c1.274,0,2.471,0.075,3.67,0.15c9.811,0.749,18.8,4.644,25.841,10.786
	c1.872,1.498,3.67,3.221,5.168,5.093c6.142,7.116,10.037,16.029,10.785,25.915C207.565,183.568,207.64,184.767,207.64,185.965z"/>
<g>
	<path style="fill:#FCD462;" d="M165.696,140.576v13.107c0,2.022-1.648,3.67-3.67,3.67c-1.947,0-3.595-1.648-3.595-3.67v-13.107
		c1.199-0.075,2.396-0.15,3.595-0.15C163.3,140.426,164.497,140.501,165.696,140.576z"/>
	<path style="fill:#FCD462;" d="M141.803,165.742c-1.423,1.423-3.67,1.423-5.093,0l-9.287-9.287c1.498-1.872,3.22-3.595,5.093-5.168
		l9.287,9.287C143.226,161.997,143.226,164.319,141.803,165.742z"/>
	<path style="fill:#FCD462;" d="M133.415,185.965c0,2.022-1.573,3.67-3.595,3.67h-13.182c-0.075-1.198-0.15-2.397-0.15-3.67
		c0-1.198,0.075-2.397,0.15-3.595h13.182C131.842,182.37,133.415,183.942,133.415,185.965z"/>
	<path style="fill:#FCD462;" d="M141.803,211.356l-9.212,9.287c-1.872-1.498-3.595-3.296-5.168-5.168l9.287-9.287
		c1.423-1.348,3.67-1.348,5.093,0C143.226,207.611,143.226,209.933,141.803,211.356z"/>
	<path style="fill:#FCD462;" d="M165.696,218.246v13.107c-1.199,0.075-2.396,0.15-3.67,0.15c-1.199,0-2.396-0.075-3.595-0.15
		v-13.107c0-2.022,1.648-3.67,3.595-3.67C164.049,214.576,165.696,216.224,165.696,218.246z"/>
	<path style="fill:#FCD462;" d="M196.705,215.475c-1.498,1.872-3.295,3.595-5.168,5.168l-9.212-9.287
		c-1.424-1.423-1.424-3.745,0-5.168c1.423-1.348,3.67-1.348,5.093,0L196.705,215.475z"/>
	<path style="fill:#FCD462;" d="M207.64,185.965c0,1.273-0.075,2.472-0.15,3.67h-13.182c-2.022,0-3.595-1.648-3.595-3.67
		c0-2.022,1.573-3.595,3.595-3.595h13.182C207.565,183.568,207.64,184.767,207.64,185.965z"/>
	<path style="fill:#FCD462;" d="M196.705,156.454l-9.287,9.287c-1.423,1.423-3.67,1.423-5.093,0c-1.424-1.423-1.424-3.745,0-5.168
		l9.212-9.212C193.409,152.859,195.207,154.582,196.705,156.454z"/>
</g>
<path style="fill:#2F4859;" d="M347.653,263.384v-78.605c8.774-4.756,14.802-13.933,14.802-24.614
	c0-15.522-12.583-28.105-28.105-28.105c-15.522,0-28.105,12.583-28.105,28.105c0,10.681,6.028,19.858,14.802,24.614v78.605
	c-8.774,4.756-14.802,13.933-14.802,24.614c0,15.522,12.583,28.105,28.105,28.105c15.522,0,28.105-12.583,28.105-28.105
	C362.455,277.317,356.427,268.14,347.653,263.384z"/>
<g>
</g>
<g>
</g>
<g>
</g>
<g>
</g>
<g>
</g>
<g>
</g>
<g>
</g>
<g>
</g>
<g>
</g>
<g>
</g>
<g>
</g>
<g>
</g>
<g>
</g>
<g>
</g>
<g>
</g>
</svg>
