<?xml version="1.0" encoding="iso-8859-1"?>
<!-- Generator: Adobe Illustrator 19.0.0, SVG Export Plug-In . SVG Version: 6.00 Build 0)  -->
<svg version="1.1" id="Capa_1" xmlns="http://www.w3.org/2000/svg" xmlns:xlink="http://www.w3.org/1999/xlink" x="0px" y="0px"
	 viewBox="0 0 468.293 468.293" style="enable-background:new 0 0 468.293 468.293;" xml:space="preserve">
<g>
	<path style="fill:#2F4859;" d="M340.529,427.537v16.02c0,5.823,4.72,10.543,10.544,10.543h21.219
		c5.823,0,10.544-4.72,10.544-10.543v-16.02H340.529z"/>
	<path style="fill:#2F4859;" d="M85.457,427.537v16.02c0,5.823,4.72,10.543,10.544,10.543h21.219c5.823,0,10.544-4.72,10.544-10.543
		v-16.02H85.457z"/>
</g>
<path style="fill:#F0EEF3;" d="M412.971,351.989h21.648L356.722,94.693l63.334-19.877c2.471-0.774,4.563-2.449,5.861-4.685
	l23.42-40.381c2.871-4.953,1.186-11.292-3.764-14.165c-4.953-2.863-11.292-1.174-14.16,3.764l-21.402,36.9l-147.992,46.446
	c-5.461,1.715-8.497,7.528-6.784,12.986c1.389,4.427,5.476,7.265,9.883,7.265c1.027,0,2.072-0.157,3.104-0.481l68.731-21.57
	L412.971,351.989z"/>
<path style="fill:#348ECD;" d="M392.79,301.459L38.889,345.376c-23.213,2.881-40.198,23.294-38.809,46.644
	c1.389,23.35,20.674,43.26,44.066,43.37h356.611c38.817,0.18,69.719-32.462,67.415-71.212
	C465.867,325.429,431.313,296.677,392.79,301.459z"/>
<g>
	<circle style="fill:#F0EEF3;" cx="395.177" cy="368.14" r="42.427"/>
	<path style="fill:#F0EEF3;" d="M57.989,361.759c-15.159,0-27.449,12.29-27.449,27.447c0,15.162,12.29,27.449,27.449,27.449
		c15.16,0,27.449-12.287,27.449-27.449C85.438,374.048,73.149,361.759,57.989,361.759z"/>
</g>
<g>
</g>
<g>
</g>
<g>
</g>
<g>
</g>
<g>
</g>
<g>
</g>
<g>
</g>
<g>
</g>
<g>
</g>
<g>
</g>
<g>
</g>
<g>
</g>
<g>
</g>
<g>
</g>
<g>
</g>
</svg>
