<?xml version="1.0" encoding="iso-8859-1"?>
<!-- Generator: Adobe Illustrator 19.0.0, SVG Export Plug-In . SVG Version: 6.00 Build 0)  -->
<svg version="1.1" id="Capa_1" xmlns="http://www.w3.org/2000/svg" xmlns:xlink="http://www.w3.org/1999/xlink" x="0px" y="0px"
	 viewBox="0 0 468.293 468.293" style="enable-background:new 0 0 468.293 468.293;" xml:space="preserve">
<g>
	<path style="fill:#2F4859;" d="M103.272,122.361c-0.286-5.562-4.879-9.924-10.448-9.924c-5.569,0-10.162,4.362-10.448,9.924
		L70.359,355.816h44.932L103.272,122.361z"/>
	<rect x="71.18" y="445.502" style="fill:#2F4859;" width="63.17" height="17.652"/>
	<rect x="372.948" y="445.502" style="fill:#2F4859;" width="63.17" height="17.652"/>
</g>
<path style="fill:#D5D6DB;" d="M452.143,448.915H55.182c-8.919,0-16.15-7.231-16.15-16.15v-65.733c0-8.919,7.231-16.15,16.15-16.15
	h396.961c8.919,0,16.15,7.23,16.15,16.15v65.733C468.293,441.685,461.062,448.915,452.143,448.915z"/>
<circle style="fill:#EBF0F3;" cx="93.284" cy="399.921" r="35.684"/>
<circle style="fill:#E56353;" cx="93.284" cy="399.921" r="24.963"/>
<g>
	<path style="fill:#3A556A;" d="M146.038,103.195c-0.079,1.969-0.91,3.907-2.473,5.35c-3.126,2.885-7.996,2.689-10.881-0.437
		c-18.897-20.478-50.931-21.765-71.409-2.868c-3.126,2.885-7.996,2.69-10.881-0.437c-2.885-3.126-2.689-7.996,0.437-10.881
		c26.719-24.66,68.514-22.982,93.17,3.741C145.445,99.227,146.117,101.226,146.038,103.195z"/>
	<path style="fill:#3A556A;" d="M171.304,79.876c-0.079,1.969-0.91,3.907-2.473,5.35c-3.126,2.885-7.996,2.69-10.881-0.437
		c-31.754-34.407-85.583-36.568-119.993-4.818c-3.126,2.885-7.996,2.69-10.881-0.437c-2.885-3.126-2.69-7.996,0.437-10.881
		c40.651-37.513,104.242-34.959,141.754,5.692C170.711,75.908,171.383,77.907,171.304,79.876z"/>
	<path style="fill:#3A556A;" d="M198.437,54.841c-0.079,1.969-0.91,3.907-2.473,5.35c-3.126,2.885-7.996,2.69-10.881-0.437
		c-22.071-23.917-52.13-37.806-84.649-39.112C67.917,19.336,36.84,30.77,12.923,52.841c-3.126,2.885-7.996,2.69-10.881-0.437
		s-2.69-7.996,0.437-10.881C29.417,16.661,64.424,3.782,101.053,5.253c36.629,1.471,70.49,17.116,95.348,44.058
		C197.844,50.874,198.516,52.873,198.437,54.841z"/>
</g>
<g>
	<circle style="fill:#44C4A1;" cx="423.212" cy="399.921" r="12.931"/>
	<circle style="fill:#44C4A1;" cx="382.252" cy="399.921" r="12.931"/>
	<circle style="fill:#44C4A1;" cx="341.292" cy="399.921" r="12.931"/>
	<circle style="fill:#44C4A1;" cx="300.338" cy="399.921" r="12.931"/>
	<circle style="fill:#44C4A1;" cx="259.372" cy="399.921" r="12.931"/>
	<circle style="fill:#44C4A1;" cx="218.418" cy="399.921" r="12.931"/>
</g>
<g>
</g>
<g>
</g>
<g>
</g>
<g>
</g>
<g>
</g>
<g>
</g>
<g>
</g>
<g>
</g>
<g>
</g>
<g>
</g>
<g>
</g>
<g>
</g>
<g>
</g>
<g>
</g>
<g>
</g>
</svg>
