<?xml version="1.0" encoding="iso-8859-1"?>
<!-- Generator: Adobe Illustrator 19.0.0, SVG Export Plug-In . SVG Version: 6.00 Build 0)  -->
<svg version="1.1" id="Capa_1" xmlns="http://www.w3.org/2000/svg" xmlns:xlink="http://www.w3.org/1999/xlink" x="0px" y="0px"
	 viewBox="0 0 468.293 468.293" style="enable-background:new 0 0 468.293 468.293;" xml:space="preserve">
<polygon style="fill:#D5D6DB;" points="369.164,372.455 101.163,389.41 89.549,400.25 95.16,422.764 323.135,429.157 
	376.725,426.044 378.69,400.25 "/>
<g>
	<path style="fill:#64798A;" d="M272.821,38.083c-3.566,0.503-6.014,3.905-6.014,7.507v35.163c0,3.506,2.395,6.755,5.855,7.318
		c4.409,0.718,8.22-2.667,8.22-6.941V45.048C280.882,40.825,277.163,37.471,272.821,38.083z"/>
	<path style="fill:#64798A;" d="M184.851,38.083c-3.566,0.503-6.014,3.905-6.014,7.507v35.163c0,3.506,2.395,6.755,5.855,7.318
		c4.409,0.718,8.22-2.667,8.22-6.941V45.048C192.912,40.825,189.192,37.471,184.851,38.083z"/>
</g>
<path style="fill:#E1E6E9;" d="M89.569,91.492V400.25h289.134V91.492c0-12.028-9.751-21.779-21.779-21.779H111.349
	C99.32,69.713,89.569,79.464,89.569,91.492z"/>
<g>
	<rect x="209.545" y="96.905" style="fill:#2E9AE1;" width="49.189" height="49.189"/>
	<rect x="299.645" y="96.905" style="fill:#2E9AE1;" width="49.189" height="49.189"/>
	<rect x="209.545" y="167.805" style="fill:#2E9AE1;" width="49.189" height="49.189"/>
	<rect x="299.645" y="167.805" style="fill:#2E9AE1;" width="49.189" height="49.189"/>
	<rect x="209.545" y="237.518" style="fill:#2E9AE1;" width="49.189" height="49.189"/>
	<rect x="119.446" y="96.905" style="fill:#2E9AE1;" width="49.189" height="49.189"/>
	<rect x="119.446" y="167.805" style="fill:#2E9AE1;" width="49.189" height="49.189"/>
	<rect x="119.446" y="237.518" style="fill:#2E9AE1;" width="49.189" height="49.189"/>
	<rect x="299.645" y="237.518" style="fill:#2E9AE1;" width="49.189" height="49.189"/>
	<rect x="209.545" y="308.405" style="fill:#2E9AE1;" width="49.189" height="49.189"/>
	<rect x="299.645" y="308.405" style="fill:#2E9AE1;" width="49.189" height="49.189"/>
</g>
<path style="fill:#64798A;" d="M149.107,308.407c-19.086,0-34.559,15.473-34.559,34.559v57.284h69.118v-57.284
	C183.666,323.88,168.194,308.407,149.107,308.407z"/>
<path style="fill:#D15241;" d="M138.956,7.771v37.534c0,4.292,3.479,7.771,7.771,7.771h166.264c4.292,0,7.771-3.479,7.771-7.771
	V7.771c0-4.292-3.479-7.771-7.771-7.771H146.727C142.436,0,138.956,3.479,138.956,7.771z"/>
<g>
	<polygon style="fill:#EBF0F3;" points="183.942,23.659 173.237,23.659 173.237,13.009 167.774,13.009 167.774,40.066 
		173.237,40.066 173.237,28.236 183.942,28.236 183.942,40.066 189.405,40.066 189.405,13.009 183.942,13.009 	"/>
	<path style="fill:#EBF0F3;" d="M207.03,12.548c-2.203,0-4.147,0.357-5.833,1.07c-1.268,0.529-2.433,1.341-3.497,2.436
		c-1.064,1.095-1.904,2.332-2.52,3.709c-0.825,1.87-1.236,4.184-1.236,6.94c0,4.306,1.188,7.687,3.562,10.141
		c2.375,2.455,5.574,3.682,9.597,3.682c3.974,0,7.149-1.234,9.524-3.7c2.374-2.467,3.561-5.885,3.561-10.252
		c0-4.405-1.196-7.844-3.589-10.317C214.205,13.785,211.016,12.548,207.03,12.548z M212.446,33.505
		c-1.397,1.569-3.183,2.353-5.361,2.353s-3.974-0.791-5.389-2.372c-1.415-1.581-2.122-3.903-2.122-6.967
		c0-3.113,0.689-5.441,2.066-6.985c1.378-1.544,3.193-2.316,5.445-2.316s4.057,0.763,5.417,2.289
		c1.359,1.526,2.039,3.839,2.039,6.94C214.541,29.583,213.843,31.936,212.446,33.505z"/>
	<polygon style="fill:#EBF0F3;" points="222.514,17.587 230.542,17.587 230.542,40.066 236.005,40.066 236.005,17.587 
		244.016,17.587 244.016,13.009 222.514,13.009 	"/>
	<polygon style="fill:#EBF0F3;" points="253.003,28.144 266.587,28.144 266.587,23.585 253.003,23.585 253.003,17.587 
		267.602,17.587 267.602,13.009 247.54,13.009 247.54,40.066 268.118,40.066 268.118,35.507 253.003,35.507 	"/>
	<polygon style="fill:#EBF0F3;" points="278.361,35.507 278.361,13.231 272.898,13.231 272.898,40.066 291.945,40.066 
		291.945,35.507 	"/>
</g>
<polygon style="fill:#D5D6DB;" points="416.1,468.293 52.193,468.293 89.549,400.25 378.69,400.25 "/>
<path style="fill:#E56353;" d="M177.391,468.293h-69.11c-1.708-26.203,24.282-41.786,6.244-68.043h69.163
	C201.673,426.506,175.737,442.036,177.391,468.293z"/>
<path style="fill:#2F4859;" d="M323.63,266.667c-34.532,34.532-90.722,34.532-125.254,0s-34.532-90.722,0-125.254
	s90.722-34.532,125.254,0S358.163,232.135,323.63,266.667z M210.876,153.912c-27.64,27.64-27.64,72.616,0,100.256
	s72.616,27.64,100.256,0c27.64-27.64,27.64-72.616,0-100.256C283.491,126.272,238.516,126.272,210.876,153.912z"/>
<g style="opacity:0.18;">
	<ellipse style="fill:#64798A;" cx="261.01" cy="204.052" rx="73.959" ry="73.959"/>
</g>
<rect x="312.629" y="256.823" transform="matrix(-0.7071 0.7071 -0.7071 -0.7071 752.6565 231.1574)" style="fill:#2F4859;" width="31.65" height="29.272"/>
<path style="fill:#F7BE56;" d="M314.848,298.448l47.6,47.6c11.201,11.201,29.362,11.201,40.564,0
	c11.201-11.201,11.201-29.362,0-40.564l-47.6-47.6L314.848,298.448z"/>
<path style="fill:#FCD462;" d="M367.927,262.083l-3.896-3.896c-2.464-2.464-6.458-2.464-8.922,0l-38.854,38.854
	c-2.464,2.464-2.464,6.458,0,8.922l3.896,3.896c2.464,2.464,6.458,2.464,8.922,0l38.854-38.854
	C370.391,268.542,370.391,264.547,367.927,262.083z"/>
<g>
</g>
<g>
</g>
<g>
</g>
<g>
</g>
<g>
</g>
<g>
</g>
<g>
</g>
<g>
</g>
<g>
</g>
<g>
</g>
<g>
</g>
<g>
</g>
<g>
</g>
<g>
</g>
<g>
</g>
</svg>
