<?xml version="1.0" encoding="iso-8859-1"?>
<!-- Generator: Adobe Illustrator 19.0.0, SVG Export Plug-In . SVG Version: 6.00 Build 0)  -->
<svg version="1.1" id="Capa_1" xmlns="http://www.w3.org/2000/svg" xmlns:xlink="http://www.w3.org/1999/xlink" x="0px" y="0px"
	 viewBox="0 0 468.293 468.293" style="enable-background:new 0 0 468.293 468.293;" xml:space="preserve">
<path style="fill:#EBF0F3;" d="M412.012,76.427l4.499-4.499c5.563-5.563,5.563-14.584,0-20.147c-5.563-5.563-14.583-5.563-20.147,0
	l-4.499,4.499L412.012,76.427z"/>
<path style="fill:#D5D6DB;" d="M464.656,134.657C429.337,82.629,385.663,38.956,333.636,3.637c-8.661-5.88-20.306-4.51-27.339,3.244
	C211.368,111.564,111.564,211.368,6.881,306.297c-7.755,7.032-9.124,18.677-3.244,27.339
	c35.319,52.028,78.993,95.701,131.021,131.021c8.661,5.88,20.306,4.51,27.339-3.244c94.929-104.683,194.733-204.487,299.416-299.416
	C469.166,154.963,470.536,143.318,464.656,134.657z"/>
<g>
	<path style="fill:#2F4859;" d="M238.168,334.354l-19.923-19.923c-1.673-1.673-1.179-4.873,1.103-7.155
		c2.282-2.282,5.483-2.776,7.155-1.103l19.923,19.923c1.673,1.673,1.179,4.873-1.103,7.155
		C243.041,335.533,239.84,336.026,238.168,334.354z"/>
	<path style="fill:#2F4859;" d="M205.479,367.042l-19.923-19.923c-1.673-1.673-1.179-4.873,1.103-7.155
		c2.282-2.282,5.483-2.776,7.155-1.103l19.923,19.923c1.673,1.673,1.179,4.873-1.103,7.155
		C210.352,368.221,207.152,368.714,205.479,367.042z"/>
	<path style="fill:#2F4859;" d="M172.791,399.73l-19.923-19.923c-1.673-1.673-1.179-4.873,1.103-7.155
		c2.282-2.282,5.483-2.776,7.155-1.103l19.923,19.923c1.673,1.673,1.179,4.873-1.103,7.155S174.463,401.403,172.791,399.73z"/>
	<path style="fill:#2F4859;" d="M195.536,291.721l-18.964-18.964c-1.593-1.593-1.034-4.728,1.248-7.011
		c2.282-2.282,5.418-2.841,7.011-1.248l18.964,18.964c1.593,1.593,1.034,4.728-1.248,7.011
		C200.264,292.756,197.128,293.314,195.536,291.721z"/>
	<path style="fill:#2F4859;" d="M162.847,324.41l-18.964-18.964c-1.593-1.593-1.034-4.728,1.248-7.011
		c2.282-2.282,5.418-2.841,7.011-1.248l18.964,18.964c1.593,1.593,1.034,4.728-1.248,7.011
		C167.575,325.444,164.44,326.002,162.847,324.41z"/>
	<path style="fill:#2F4859;" d="M130.159,357.098l-18.964-18.964c-1.593-1.593-1.034-4.728,1.248-7.011
		c2.282-2.282,5.418-2.841,7.011-1.248l18.964,18.964c1.593,1.593,1.034,4.728-1.248,7.011
		C134.887,358.133,131.751,358.691,130.159,357.098z"/>
	<path style="fill:#2F4859;" d="M104.24,391.233l-27.18-27.18c-2.282-2.282-2.282-5.976,0-8.259c2.282-2.282,5.976-2.282,8.259,0
		l27.18,27.18c2.282,2.283,2.282,5.976,0,8.259C110.216,393.515,106.522,393.515,104.24,391.233z"/>
	<path style="fill:#2F4859;" d="M153.998,250.184l-20.195-20.195c-1.695-1.695-1.22-4.914,1.062-7.197
		c2.282-2.282,5.501-2.758,7.197-1.062l20.195,20.195c1.695,1.695,1.22,4.914-1.062,7.197
		C158.912,251.404,155.693,251.879,153.998,250.184z"/>
	<path style="fill:#2F4859;" d="M121.31,282.872l-20.195-20.195c-1.695-1.695-1.22-4.914,1.062-7.197
		c2.282-2.282,5.501-2.757,7.197-1.062l20.195,20.195c1.695,1.695,1.22,4.914-1.062,7.197
		C126.224,284.093,123.005,284.568,121.31,282.872z"/>
	<path style="fill:#2F4859;" d="M88.621,315.561l-20.195-20.195c-1.695-1.695-1.22-4.914,1.062-7.197
		c2.282-2.282,5.501-2.758,7.197-1.062l20.195,20.195c1.695,1.695,1.22,4.914-1.062,7.197
		C93.535,316.781,90.317,317.256,88.621,315.561z"/>
	<path style="fill:#2F4859;" d="M419.278,144.472l-13.73-13.73c-4.19-4.19-10.983-4.189-15.172,0s-4.19,10.982,0,15.172l13.73,13.73
		c4.19,4.19,10.983,4.189,15.172,0C423.467,155.455,423.467,148.662,419.278,144.472z"/>
</g>
<path style="fill:#D15241;" d="M337.55,62.745l-13.73-13.73c-4.19-4.19-10.983-4.189-15.172,0c-4.189,4.189-4.19,10.982,0,15.172
	l13.73,13.73c4.19,4.19,10.983,4.189,15.172,0C341.74,73.727,341.74,66.934,337.55,62.745z"/>
<path style="fill:#CE412D;" d="M272.458,253.811c-14.455-1.236-28.41-7.433-39.477-18.499c-10.984-10.984-17.181-24.94-18.5-39.477
	l27.336,0.083c1.155,7.434,4.624,14.537,10.323,20.235c5.781,5.781,12.883,9.25,20.317,10.405L272.458,253.811z"/>
<path style="fill:#FCD462;" d="M252.222,163.875c-5.781,5.781-9.166,12.965-10.405,20.316l-27.253-0.001
	c1.239-14.452,7.349-28.492,18.415-39.558c10.985-10.985,25.025-17.096,39.479-18.502l-0.001,27.421
	C265.106,154.79,257.922,158.175,252.222,163.875z"/>
<path style="fill:#CE412D;" d="M342.079,184.19l-27.255,0.001c-1.238-7.351-4.624-14.537-10.405-20.317
	c-5.699-5.699-12.884-9.085-20.318-10.24l0.001-27.42c14.536,1.321,28.576,7.433,39.56,18.417
	C334.729,155.697,340.841,169.737,342.079,184.19z"/>
<path style="fill:#FCD462;" d="M323.661,235.314c-11.065,11.066-25.023,17.259-39.475,18.498l-0.083-27.336
	c7.515-1.074,14.617-4.542,20.398-10.322c5.7-5.7,9.168-12.802,10.242-20.317l27.42-0.002
	C340.839,210.372,334.645,224.329,323.661,235.314z"/>
<g>
</g>
<g>
</g>
<g>
</g>
<g>
</g>
<g>
</g>
<g>
</g>
<g>
</g>
<g>
</g>
<g>
</g>
<g>
</g>
<g>
</g>
<g>
</g>
<g>
</g>
<g>
</g>
<g>
</g>
</svg>
