<?xml version="1.0" encoding="iso-8859-1"?>
<!-- Generator: Adobe Illustrator 19.0.0, SVG Export Plug-In . SVG Version: 6.00 Build 0)  -->
<svg version="1.1" id="Capa_1" xmlns="http://www.w3.org/2000/svg" xmlns:xlink="http://www.w3.org/1999/xlink" x="0px" y="0px"
	 viewBox="0 0 468.293 468.293" style="enable-background:new 0 0 468.293 468.293;" xml:space="preserve">
<path style="fill:#64798A;" d="M331.198,206.311c-32.065,10.265-64.017,15.902-95.858,16.499v0.075
	c-0.411-0.037-0.784-0.037-1.157-0.037c-0.411,0-0.821,0-1.195,0.037v-0.075c-31.841-0.597-63.793-6.233-95.895-16.499
	c10.75-29.452,17.805-62.898,20.866-100.71c0.858-10.601,1.381-21.576,1.605-32.923c0.373-20.231,8.921-38.373,22.397-51.512
	c6.682-6.495,14.558-11.721,23.255-15.379c3.919-1.643,7.988-2.949,12.206-3.882C222.836,0.634,228.435,0,234.184,0
	c0.933,0,1.829,0,2.762,0.037c0,0,0-0.037,0.037,0c28.668,1.083,53.453,18.365,64.95,43.039c0.336,0.709,0.672,1.455,0.971,2.202
	c3.621,8.436,5.637,17.693,5.861,27.398C309.735,124.302,317.499,168.572,331.198,206.311z"/>
<path style="fill:#44C4A1;" d="M353.595,197.874v132.775H114.698V198.024c0-10.415,6.868-19.709,16.947-22.509
	c6.122-1.717,12.244-3.285,18.291-4.666c6.458-1.531,12.841-2.837,19.187-3.994c0.224-0.037,0.411-0.075,0.634-0.112
	c0.858-0.149,1.68-0.298,2.538-0.447c9.407-1.643,18.701-2.874,27.921-3.77c1.978-0.187,3.957-0.374,5.935-0.486
	c19.074-1.605,37.776-1.605,56.104-0.149c1.978,0.112,3.994,0.298,5.972,0.485c9.369,0.858,18.664,2.091,27.847,3.695
	c0.896,0.149,1.754,0.299,2.65,0.448c0.149,0.037,0.299,0.037,0.448,0.075c6.421,1.157,12.841,2.464,19.187,3.956
	c6.196,1.493,12.355,3.099,18.477,4.853C346.801,178.277,353.595,187.497,353.595,197.874z"/>
<path style="fill:#FCD462;" d="M205.541,116.528v54.608c0,25.765,10.235,50.476,28.454,68.695h0
	c18.219-18.219,28.454-42.93,28.454-68.695v-54.608H205.541z"/>
<path style="fill:#44C4A1;" d="M287.599,294.447v-83.469c-8.966-1.549-18.034-2.756-27.177-3.593
	c-1.979-0.188-3.995-0.373-5.973-0.486c-18.328-1.456-37.03-1.456-56.104,0.149c-1.979,0.113-3.957,0.299-5.936,0.486
	c-5.355,0.52-10.747,1.194-16.16,1.956v84.957H287.599z"/>
<path style="fill:#EBF0F3;" d="M296.036,166.305l-29.302,77.881l-32.624-35.157l-32.624,35.157l-29.228-77.644
	c9.407-1.734,18.701-3.035,27.921-3.981c1.978-0.197,3.957-0.395,5.935-0.513c8.399,15.017,17.805,28.26,27.996,40.084
	c10.228-11.863,19.709-25.146,28.108-40.241c1.978,0.118,3.994,0.315,5.972,0.512C277.559,163.309,286.853,164.61,296.036,166.305z"
	/>
<ellipse style="fill:#F7BE56;" cx="236.519" cy="85.042" rx="58.605" ry="68.745"/>
<g>
	<path style="fill:#64798A;" d="M222.561,16.26c0,5.122-0.325,10.122-1.016,14.999c-5.081,37.601-28.942,67.356-59.389,74.348
		c0.853-10.609,1.382-21.585,1.626-32.926c0.366-20.244,8.902-38.373,22.398-51.503c6.667-6.504,14.553-11.747,23.252-15.406
		c3.902-1.626,7.967-2.927,12.195-3.861C222.236,6.585,222.561,11.382,222.561,16.26z"/>
	<path style="fill:#64798A;" d="M302.904,45.279c-9.519,5.972-20.754,9.444-32.848,9.444c-19.709,0-37.216-9.145-48.526-23.479
		c-5.823-7.317-10.079-16.014-12.094-25.457c3.882-1.643,7.951-2.949,12.206-3.882c4.927-1.157,10.078-1.792,15.304-1.866
		c0,0,0-0.037,0.037,0c28.668,1.083,53.453,18.365,64.95,43.039C302.269,43.785,302.606,44.532,302.904,45.279z"/>
</g>
<path style="fill:#E1E6E9;" d="M18.768,292.25v161.494c0,8.035,6.513,14.548,14.548,14.548h401.662
	c8.035,0,14.548-6.513,14.548-14.548V292.25H18.768z"/>
<path style="fill:#D5D6DB;" d="M450.377,275.892H17.916C8.021,275.892,0,283.913,0,293.808s8.021,17.916,17.916,17.916h432.461
	c9.895,0,17.916-8.021,17.916-17.916S460.272,275.892,450.377,275.892z"/>
<g>
</g>
<g>
</g>
<g>
</g>
<g>
</g>
<g>
</g>
<g>
</g>
<g>
</g>
<g>
</g>
<g>
</g>
<g>
</g>
<g>
</g>
<g>
</g>
<g>
</g>
<g>
</g>
<g>
</g>
</svg>
