<?xml version="1.0" encoding="iso-8859-1"?>
<!-- Generator: Adobe Illustrator 19.0.0, SVG Export Plug-In . SVG Version: 6.00 Build 0)  -->
<svg version="1.1" id="Capa_1" xmlns="http://www.w3.org/2000/svg" xmlns:xlink="http://www.w3.org/1999/xlink" x="0px" y="0px"
	 viewBox="0 0 468.293 468.293" style="enable-background:new 0 0 468.293 468.293;" xml:space="preserve">
<path style="fill:#2F4859;" d="M356.879,20.177c-1.157-6.579-7.415-10.999-14.008-9.804L50.289,86.935
	c-5.776,1.02-9.989,6.04-9.989,11.906v46.743h24.18v-36.599l282.594-74.8C353.648,33.028,358.041,26.756,356.879,20.177z"/>
<path style="fill:#E1E6E9;" d="M450.863,132.486H17.43C7.804,132.486,0,140.29,0,149.916v290.769c0,9.627,7.804,17.43,17.43,17.43
	h433.433c9.626,0,17.43-7.803,17.43-17.43V149.916C468.293,140.29,460.489,132.486,450.863,132.486z"/>
<rect x="30.208" y="163.609" style="fill:#F7BE56;" width="407.852" height="79.216"/>
<g>
	<path style="fill:#FCD462;" d="M406.504,205.004v37.817h-13.299v-37.817c0-3.627,2.998-6.626,6.625-6.626
		C403.506,198.378,406.504,201.377,406.504,205.004z"/>
	<path style="fill:#FCD462;" d="M365.059,224.348v18.473H351.76v-18.473c0-3.627,2.998-6.626,6.673-6.626
		C362.109,217.722,365.059,220.721,365.059,224.348z"/>
	<path style="fill:#FCD462;" d="M323.662,205.004v37.817h-13.299v-37.817c0-3.627,2.95-6.626,6.625-6.626
		S323.662,201.377,323.662,205.004z"/>
	<path style="fill:#FCD462;" d="M282.217,224.348v18.473h-13.299v-18.473c0-3.627,2.999-6.626,6.674-6.626
		C279.267,217.722,282.217,220.721,282.217,224.348z"/>
	<path style="fill:#FCD462;" d="M240.82,205.004v37.817h-13.348v-37.817c0-3.627,2.998-6.626,6.674-6.626
		S240.82,201.377,240.82,205.004z"/>
	<path style="fill:#FCD462;" d="M199.375,224.348v18.473h-13.299v-18.473c0-3.627,2.949-6.626,6.625-6.626
		C196.376,217.722,199.375,220.721,199.375,224.348z"/>
	<path style="fill:#FCD462;" d="M157.93,205.004v37.817h-13.299v-37.817c0-3.627,2.998-6.626,6.674-6.626
		C154.98,198.378,157.93,201.377,157.93,205.004z"/>
	<path style="fill:#FCD462;" d="M116.533,224.348v18.473h-13.299v-18.473c0-3.627,2.951-6.626,6.626-6.626
		C113.535,217.722,116.533,220.721,116.533,224.348z"/>
	<path style="fill:#FCD462;" d="M75.088,205.004v37.817H61.789v-37.817c0-3.627,2.998-6.626,6.674-6.626
		C72.089,198.378,75.088,201.377,75.088,205.004z"/>
</g>
<g>
	<path style="fill:#E56353;" d="M67.353,382.902c-8.263,0-14.962,6.7-14.962,14.964c0,8.264,6.699,14.962,14.962,14.962
		c8.264,0,14.964-6.699,14.964-14.962C82.317,389.602,75.617,382.902,67.353,382.902z"/>
	<path style="fill:#E56353;" d="M111.984,382.902c-8.264,0-14.962,6.7-14.962,14.964c0,8.264,6.698,14.962,14.962,14.962
		s14.962-6.699,14.962-14.962C126.947,389.602,120.248,382.902,111.984,382.902z"/>
</g>
<path style="fill:#3A556A;" d="M355.763,282.797c-35.225,0-63.78,28.556-63.78,63.78c0,35.226,28.555,63.782,63.78,63.782
	c35.226,0,63.782-28.556,63.782-63.782C419.545,311.353,390.989,282.797,355.763,282.797z"/>
<g>
	<path style="fill:#64798A;" d="M405.216,306.299h-98.897c2.37-2.901,4.981-5.609,7.835-8.076h83.18
		C400.187,300.69,402.846,303.35,405.216,306.299z"/>
	<path style="fill:#64798A;" d="M416.92,328.449H294.616c0.822-2.756,1.837-5.464,3.046-8.076h116.259
		C415.13,322.985,416.097,325.693,416.92,328.449z"/>
	<path style="fill:#64798A;" d="M419.531,346.584c0,1.354-0.048,2.66-0.145,4.014H292.149c-0.097-1.354-0.145-2.66-0.145-4.014
		s0.048-2.708,0.145-4.014h127.237C419.483,343.876,419.531,345.23,419.531,346.584z"/>
	<path style="fill:#64798A;" d="M416.92,364.719c-0.823,2.805-1.838,5.465-2.999,8.076H297.662c-1.209-2.61-2.224-5.271-3.046-8.076
		H416.92z"/>
	<path style="fill:#64798A;" d="M405.216,386.869c-2.37,2.902-5.029,5.609-7.882,8.076h-83.18c-2.854-2.466-5.465-5.174-7.835-8.076
		H405.216z"/>
</g>
<g>
</g>
<g>
</g>
<g>
</g>
<g>
</g>
<g>
</g>
<g>
</g>
<g>
</g>
<g>
</g>
<g>
</g>
<g>
</g>
<g>
</g>
<g>
</g>
<g>
</g>
<g>
</g>
<g>
</g>
</svg>
