<?xml version="1.0" encoding="iso-8859-1"?>
<!-- Generator: Adobe Illustrator 19.0.0, SVG Export Plug-In . SVG Version: 6.00 Build 0)  -->
<svg version="1.1" id="Capa_1" xmlns="http://www.w3.org/2000/svg" xmlns:xlink="http://www.w3.org/1999/xlink" x="0px" y="0px"
	 viewBox="0 0 468.293 468.293" style="enable-background:new 0 0 468.293 468.293;" xml:space="preserve">
<path style="fill:#D5D6DB;" d="M468.293,25.669v416.954c0,14.177-11.493,25.669-25.669,25.669H25.669
	C11.493,468.293,0,456.8,0,442.623V25.669C0,11.493,11.493,0,25.669,0h416.954C456.8,0,468.293,11.493,468.293,25.669z"/>
<rect x="47.329" y="47.329" style="fill:#2E9AE1;" width="110.373" height="110.373"/>
<g>
	<path style="fill:#2F4859;" d="M195.382,118.711V62.577h11.028l22.974,37.486V62.577h10.53v56.134h-11.372l-22.63-36.606v36.606
		H195.382z"/>
	<path style="fill:#2F4859;" d="M251.899,118.711V62.577h41.622v9.496h-30.288v12.444h28.182v9.458h-28.182v15.278h31.36v9.458
		H251.899z"/>
	<path style="fill:#2F4859;" d="M312.169,118.711l-13.402-56.134h11.602l8.462,38.559l10.262-38.559h13.478l9.841,39.21l8.615-39.21
		h11.411l-13.631,56.134h-12.023l-11.181-41.966l-11.143,41.966H312.169z"/>
	<path style="fill:#2F4859;" d="M375.348,100.446l11.028-1.072c0.664,3.701,2.01,6.42,4.04,8.156s4.767,2.604,8.213,2.604
		c3.65,0,6.401-0.772,8.252-2.317c1.851-1.544,2.776-3.35,2.776-5.418c0-1.327-0.389-2.457-1.168-3.389
		c-0.779-0.932-2.138-1.742-4.078-2.431c-1.327-0.459-4.352-1.276-9.075-2.451c-6.075-1.506-10.338-3.357-12.789-5.552
		c-3.446-3.089-5.169-6.854-5.169-11.296c0-2.859,0.81-5.533,2.431-8.022c1.621-2.489,3.957-4.384,7.007-5.686
		c3.051-1.302,6.733-1.953,11.047-1.953c7.046,0,12.349,1.544,15.91,4.633s5.431,7.211,5.61,12.368l-11.334,0.498
		c-0.485-2.885-1.525-4.959-3.121-6.222c-1.595-1.264-3.989-1.895-7.18-1.895c-3.293,0-5.871,0.676-7.735,2.029
		c-1.2,0.868-1.8,2.029-1.8,3.484c0,1.327,0.562,2.463,1.685,3.408c1.429,1.2,4.901,2.451,10.415,3.752
		c5.514,1.302,9.592,2.648,12.234,4.04c2.642,1.391,4.71,3.293,6.203,5.705c1.493,2.412,2.24,5.393,2.24,8.941
		c0,3.216-0.893,6.229-2.68,9.037c-1.787,2.808-4.314,4.895-7.582,6.261c-3.267,1.366-7.339,2.049-12.215,2.049
		c-7.096,0-12.547-1.64-16.35-4.92C378.36,111.506,376.088,106.726,375.348,100.446z"/>
	<path style="fill:#2F4859;" d="M51.785,219.657h364.722c5.114,0,9.26-4.146,9.26-9.26c0-5.114-4.146-9.26-9.26-9.26H51.785
		c-5.114,0-9.26,4.146-9.26,9.26C42.525,215.511,46.671,219.657,51.785,219.657z"/>
	<path style="fill:#2F4859;" d="M415.796,139.154l-211.508,0c-5.114,0-9.26,4.146-9.26,9.26v0c0,5.114,4.146,9.26,9.26,9.26h212.22
		c5.557,0,9.97-4.894,9.165-10.607C425.012,142.375,420.535,139.154,415.796,139.154z"/>
	<path style="fill:#2F4859;" d="M416.508,255.462H51.785c-5.114,0-9.26,4.146-9.26,9.26c0,5.114,4.146,9.26,9.26,9.26h364.722
		c5.114,0,9.26-4.146,9.26-9.26C425.768,259.608,421.622,255.462,416.508,255.462z"/>
	<path style="fill:#2F4859;" d="M416.508,309.786H51.785c-5.114,0-9.26,4.146-9.26,9.26c0,5.114,4.146,9.26,9.26,9.26h364.722
		c5.114,0,9.26-4.146,9.26-9.26C425.768,313.932,421.622,309.786,416.508,309.786z"/>
	<path style="fill:#2F4859;" d="M416.508,364.111H51.785c-5.114,0-9.26,4.146-9.26,9.26c0,5.114,4.146,9.26,9.26,9.26h364.722
		c5.114,0,9.26-4.146,9.26-9.26C425.768,368.257,421.622,364.111,416.508,364.111z"/>
	<path style="fill:#2F4859;" d="M416.508,418.436H51.785c-5.114,0-9.26,4.146-9.26,9.26c0,5.114,4.146,9.26,9.26,9.26h364.722
		c5.114,0,9.26-4.146,9.26-9.26C425.768,422.582,421.622,418.436,416.508,418.436z"/>
</g>
<g>
</g>
<g>
</g>
<g>
</g>
<g>
</g>
<g>
</g>
<g>
</g>
<g>
</g>
<g>
</g>
<g>
</g>
<g>
</g>
<g>
</g>
<g>
</g>
<g>
</g>
<g>
</g>
<g>
</g>
</svg>
