<?xml version="1.0" encoding="iso-8859-1"?>
<!-- Generator: Adobe Illustrator 19.0.0, SVG Export Plug-In . SVG Version: 6.00 Build 0)  -->
<svg version="1.1" id="Capa_1" xmlns="http://www.w3.org/2000/svg" xmlns:xlink="http://www.w3.org/1999/xlink" x="0px" y="0px"
	 viewBox="0 0 468.293 468.293" style="enable-background:new 0 0 468.293 468.293;" xml:space="preserve">
<path style="fill:#DC8744;" d="M174.629,122.811V74.822c0-8.748,7.118-15.866,15.866-15.866h87.302
	c8.748,0,15.867,7.118,15.867,15.866v47.989h31.149V74.822c0-25.923-21.092-47.015-47.015-47.015h-87.302
	c-25.923,0-47.015,21.092-47.015,47.015v47.989H174.629z"/>
<path style="fill:#64798A;" d="M468.293,143.494v254.425c0,23.486-19.064,42.55-42.55,42.55H42.611
	C19.063,440.468,0,421.405,0,397.918V143.494c0-23.486,19.063-42.549,42.611-42.549h383.132
	C449.229,100.944,468.293,120.008,468.293,143.494z"/>
<rect x="346.661" y="100.942" style="fill:#D5D6DB;" width="31.151" height="339.543"/>
<path style="fill:#EBF0F3;" d="M389.299,256.689h-54.137c-9.469,0-17.132,7.663-17.132,17.132v62.173
	c0,9.469,7.663,17.194,17.132,17.194h54.137c9.469,0,17.194-7.725,17.194-17.194v-62.173
	C406.494,264.352,398.769,256.689,389.299,256.689z M395.715,335.994c0,3.551-2.865,6.479-6.416,6.479h-20.496v-17.692l-6.542-9.407
	l-6.542,9.407v17.692h-20.558c-3.551,0-6.417-2.928-6.417-6.479v-62.173c0-3.551,2.866-6.417,6.417-6.417h54.137
	c3.551,0,6.416,2.866,6.416,6.417V335.994z"/>
<rect x="90.455" y="100.942" style="fill:#D5D6DB;" width="31.151" height="339.543"/>
<path style="fill:#EBF0F3;" d="M133.13,256.689H78.993c-9.469,0-17.194,7.663-17.194,17.132v62.173
	c0,9.469,7.725,17.194,17.194,17.194h54.136c9.469,0,17.132-7.725,17.132-17.194v-62.173
	C150.262,264.352,142.599,256.689,133.13,256.689z M139.547,335.994c0,3.551-2.865,6.479-6.417,6.479h-20.558v-17.692l-6.542-9.407
	l-6.541,9.407v17.692H78.993c-3.551,0-6.417-2.928-6.417-6.479v-62.173c0-3.551,2.865-6.417,6.417-6.417h54.136
	c3.551,0,6.417,2.866,6.417,6.417V335.994z"/>
<g>
</g>
<g>
</g>
<g>
</g>
<g>
</g>
<g>
</g>
<g>
</g>
<g>
</g>
<g>
</g>
<g>
</g>
<g>
</g>
<g>
</g>
<g>
</g>
<g>
</g>
<g>
</g>
<g>
</g>
</svg>
