<?xml version="1.0" encoding="iso-8859-1"?>
<!-- Generator: Adobe Illustrator 19.0.0, SVG Export Plug-In . SVG Version: 6.00 Build 0)  -->
<svg version="1.1" id="Capa_1" xmlns="http://www.w3.org/2000/svg" xmlns:xlink="http://www.w3.org/1999/xlink" x="0px" y="0px"
	 viewBox="0 0 468.293 468.293" style="enable-background:new 0 0 468.293 468.293;" xml:space="preserve">
<path style="fill:#DC8744;" d="M241.654,322.438c-5.706,0-10.336-4.63-10.336-10.336V68.31c0-5.706,4.63-10.336,10.336-10.336
	c5.706,0,10.336,4.63,10.336,10.336v243.792C251.99,317.808,247.36,322.438,241.654,322.438z"/>
<path style="fill:#44C4A1;" d="M245.779,140.537c0,0,16.368-165.423-151.252-137.323C94.527,3.214,89.738,169.425,245.779,140.537z"
	/>
<g>
	<path style="fill:#3EA69B;" d="M100.887,11.992c-0.219-1.241,0.128-2.565,1.046-3.563c1.566-1.692,4.205-1.796,5.897-0.231
		l126.593,116.929c1.701,1.568,1.792,4.206,0.236,5.901c-1.565,1.692-4.205,1.796-5.897,0.231L102.168,14.329
		C101.467,13.687,101.04,12.859,100.887,11.992z"/>
	<path style="fill:#3EA69B;" d="M165.845,107.972c-0.058-0.329-0.077-0.67-0.055-1.017c0.158-2.301,2.155-4.036,4.452-3.877
		l36.788,2.546l-7.294-41.428c-0.4-2.273,1.115-4.437,3.389-4.837c2.273-0.4,4.437,1.115,4.837,3.389l9.146,51.943l-47.435-3.28
		C167.718,111.273,166.169,109.815,165.845,107.972z"/>
	<path style="fill:#3EA69B;" d="M124.769,71.386c-0.087-0.494-0.087-1.012,0.012-1.53c0.446-2.265,2.646-3.737,4.911-3.291
		l46.071,9.081l-2.96-46.398c-0.148-2.301,1.605-4.287,3.906-4.435c2.286-0.142,4.249,1.604,4.431,3.903l3.641,57.227
		l-56.711-11.183C126.329,74.415,125.06,73.036,124.769,71.386z"/>
	<path style="fill:#3EA69B;" d="M107.163,47.636c-0.04-0.229-0.066-0.469-0.068-0.713c-0.008-2.305,1.856-4.182,4.165-4.191
		l26.972-0.103l-6.865-30.146c-0.685-2.289,0.89-4.492,3.144-5.001c2.245-0.511,4.481,0.896,4.993,3.146l9.185,40.313l-37.4,0.142
		C109.229,51.091,107.51,49.604,107.163,47.636z"/>
</g>
<polygon style="fill:#FCD462;" points="303.668,468.293 170.341,468.293 109.173,312.104 364.836,312.104 "/>
<path style="fill:#44C4A1;" d="M229.752,204.92c0,0,151.803,67.738,178.039-100.184C407.791,104.736,251.586,47.737,229.752,204.92z
	"/>
<g>
	<path style="fill:#3EA69B;" d="M397.455,108.001c1.247,0.184,2.393,0.931,3.051,2.117c1.111,2.019,0.377,4.557-1.642,5.669
		l-150.905,83.221c-2.025,1.119-4.557,0.373-5.673-1.639c-1.111-2.019-0.377-4.557,1.642-5.669l150.905-83.221
		C395.663,108.016,396.583,107.872,397.455,108.001z"/>
	<path style="fill:#3EA69B;" d="M285.88,139.348c0.331,0.049,0.66,0.139,0.983,0.269c2.134,0.876,3.149,3.318,2.274,5.448
		l-14.025,34.105l41.613,6.153c2.283,0.338,3.858,2.458,3.52,4.742s-2.458,3.858-4.742,3.52l-52.175-7.714l18.082-43.976
		C282.156,140.084,284.028,139.074,285.88,139.348z"/>
	<path style="fill:#3EA69B;" d="M333.559,111.918c0.496,0.073,0.987,0.237,1.448,0.494c2.008,1.138,2.711,3.691,1.573,5.699
		l-23.156,40.851l44.961,11.834c2.23,0.585,3.561,2.876,2.976,5.107c-0.587,2.214-2.863,3.526-5.102,2.972l-55.451-14.605
		l28.509-50.283C330.192,112.443,331.901,111.673,333.559,111.918z"/>
	<path style="fill:#3EA69B;" d="M361.651,102.707c0.23,0.034,0.466,0.085,0.698,0.161c2.19,0.72,3.382,3.081,2.662,5.275
		l-8.414,25.626l30.771,3c2.388,0.073,3.982,2.262,3.753,4.562c-0.223,2.292-2.265,3.969-4.561,3.745l-41.151-4.007l11.668-35.533
		C357.721,103.577,359.674,102.414,361.651,102.707z"/>
</g>
<path style="fill:#44C4A1;" d="M244.244,266.291c0,0-30.77-163.358-183.742-89.294C60.501,176.997,102.605,337.858,244.244,266.291z
	"/>
<g>
	<path style="fill:#3EA69B;" d="M69.071,183.635c-0.558-1.13-0.598-2.498,0.002-3.713c1.027-2.064,3.531-2.906,5.595-1.879
		l154.347,76.65c2.073,1.027,2.902,3.533,1.884,5.597c-1.027,2.063-3.531,2.906-5.595,1.879l-154.347-76.65
		C70.104,185.099,69.461,184.424,69.071,183.635z"/>
	<path style="fill:#3EA69B;" d="M158.379,257.497c-0.148-0.3-0.262-0.621-0.339-0.961c-0.495-2.253,0.934-4.479,3.183-4.972
		l36.021-7.893l-18.641-37.71c-1.023-2.069-0.176-4.571,1.893-5.594c2.069-1.023,4.571-0.176,5.594,1.893l23.372,47.281
		l-46.446,10.18C161.105,260.139,159.209,259.175,158.379,257.497z"/>
	<path style="fill:#3EA69B;" d="M108.679,233.926c-0.222-0.45-0.368-0.946-0.418-1.472c-0.208-2.299,1.49-4.33,3.789-4.539
		l46.767-4.23l-15.878-43.698c-0.789-2.167,0.336-4.565,2.503-5.354c2.154-0.778,4.529,0.345,5.349,2.501l19.573,53.898
		l-57.568,5.202C111.028,236.395,109.422,235.429,108.679,233.926z"/>
	<path style="fill:#3EA69B;" d="M85.109,216.08c-0.103-0.208-0.195-0.431-0.265-0.665c-0.656-2.21,0.606-4.535,2.82-5.192
		l25.856-7.677l-15.058-27.002c-1.3-2.005-0.408-4.561,1.613-5.683c2.011-1.122,4.552-0.399,5.676,1.616l20.142,36.108
		l-35.853,10.644C88.062,218.815,85.995,217.872,85.109,216.08z"/>
</g>
<g>
</g>
<g>
</g>
<g>
</g>
<g>
</g>
<g>
</g>
<g>
</g>
<g>
</g>
<g>
</g>
<g>
</g>
<g>
</g>
<g>
</g>
<g>
</g>
<g>
</g>
<g>
</g>
<g>
</g>
</svg>
