<?xml version="1.0" encoding="iso-8859-1"?>
<!-- Generator: Adobe Illustrator 19.0.0, SVG Export Plug-In . SVG Version: 6.00 Build 0)  -->
<svg version="1.1" id="Capa_1" xmlns="http://www.w3.org/2000/svg" xmlns:xlink="http://www.w3.org/1999/xlink" x="0px" y="0px"
	 viewBox="0 0 468.293 468.293" style="enable-background:new 0 0 468.293 468.293;" xml:space="preserve">
<circle style="fill:#DC8744;" cx="234.146" cy="234.146" r="234.146"/>
<circle style="fill:#FCD462;" cx="234.146" cy="234.146" r="199.274"/>
<g>
	<path style="fill:#E56353;" d="M249.092,119.564c-16.485,0-29.891-13.409-29.891-29.891s13.406-29.891,29.891-29.891
		s29.891,13.409,29.891,29.891S265.577,119.564,249.092,119.564z M249.092,74.728c-8.239,0-14.946,6.703-14.946,14.946
		s6.707,14.946,14.946,14.946s14.946-6.703,14.946-14.946S257.331,74.728,249.092,74.728z"/>
	<path style="fill:#E56353;" d="M302.649,388.583c-16.485,0-29.891-13.409-29.891-29.891s13.406-29.891,29.891-29.891
		c16.485,0,29.891,13.409,29.891,29.891S319.134,388.583,302.649,388.583z M302.649,343.747c-8.239,0-14.945,6.703-14.945,14.946
		s6.707,14.946,14.945,14.946c8.239,0,14.945-6.703,14.945-14.946S310.888,343.747,302.649,343.747z"/>
	<path style="fill:#E56353;" d="M120.274,166.313c-16.485,0-29.891-13.409-29.891-29.891s13.406-29.891,29.891-29.891
		s29.891,13.409,29.891,29.891S136.76,166.313,120.274,166.313z M120.274,121.476c-8.239,0-14.946,6.703-14.946,14.946
		c0,8.243,6.707,14.946,14.946,14.946s14.946-6.703,14.946-14.946C135.22,128.179,128.513,121.476,120.274,121.476z"/>
	<path style="fill:#E56353;" d="M385.47,241.619c-16.485,0-29.891-13.409-29.891-29.891s13.406-29.891,29.891-29.891
		c16.485,0,29.891,13.409,29.891,29.891S401.955,241.619,385.47,241.619z M385.47,196.783c-8.239,0-14.946,6.703-14.946,14.946
		c0,8.243,6.707,14.946,14.946,14.946s14.945-6.703,14.945-14.946C400.415,203.485,393.709,196.783,385.47,196.783z"/>
	<path style="fill:#E56353;" d="M218.578,300.041c-16.485,0-29.891-13.409-29.891-29.891s13.406-29.891,29.891-29.891
		s29.891,13.409,29.891,29.891S235.063,300.041,218.578,300.041z M218.578,255.205c-8.239,0-14.946,6.703-14.946,14.945
		c0,8.243,6.707,14.945,14.946,14.945s14.945-6.703,14.945-14.945C233.524,261.908,226.817,255.205,218.578,255.205z"/>
	<path style="fill:#E56353;" d="M158.887,404.649c-16.485,0-29.891-13.409-29.891-29.891c0-16.482,13.406-29.891,29.891-29.891
		s29.891,13.409,29.891,29.891C188.778,391.24,175.372,404.649,158.887,404.649z M158.887,359.813
		c-8.239,0-14.946,6.703-14.946,14.946c0,8.243,6.707,14.946,14.946,14.946c8.239,0,14.946-6.703,14.946-14.946
		C173.833,366.515,167.126,359.813,158.887,359.813z"/>
	<path style="fill:#E56353;" d="M83.064,264.039c-16.485,0-29.891-13.409-29.891-29.891s13.406-29.891,29.891-29.891
		s29.891,13.409,29.891,29.891S99.549,264.039,83.064,264.039z M83.064,219.202c-8.239,0-14.946,6.703-14.946,14.946
		c0,8.243,6.707,14.945,14.946,14.945c8.239,0,14.946-6.703,14.946-14.945C98.009,225.905,91.303,219.202,83.064,219.202z"/>
</g>
<g>
	<circle style="fill:#44C4A1;" cx="189.403" cy="89.675" r="15.566"/>
	<circle style="fill:#44C4A1;" cx="234.146" cy="167.561" r="15.566"/>
	<circle style="fill:#44C4A1;" cx="158.889" cy="254.564" r="15.566"/>
	<circle style="fill:#44C4A1;" cx="242.263" cy="369.87" r="15.566"/>
	<circle style="fill:#44C4A1;" cx="113.427" cy="320.706" r="15.566"/>
</g>
<g>
	<circle style="fill:#64798A;" cx="309.51" cy="105.241" r="15.566"/>
	<circle style="fill:#64798A;" cx="355.59" cy="151.989" r="15.566"/>
	<circle style="fill:#64798A;" cx="409.163" cy="270.149" r="15.566"/>
	<circle style="fill:#64798A;" cx="293.925" cy="211.731" r="15.566"/>
	<circle style="fill:#64798A;" cx="166.962" cy="183.127" r="15.566"/>
	<circle style="fill:#64798A;" cx="355.59" cy="315.099" r="15.566"/>
	<circle style="fill:#64798A;" cx="287.095" cy="305.139" r="15.566"/>
</g>
<g>
</g>
<g>
</g>
<g>
</g>
<g>
</g>
<g>
</g>
<g>
</g>
<g>
</g>
<g>
</g>
<g>
</g>
<g>
</g>
<g>
</g>
<g>
</g>
<g>
</g>
<g>
</g>
<g>
</g>
</svg>
