<?xml version="1.0" encoding="iso-8859-1"?>
<!-- Generator: Adobe Illustrator 19.0.0, SVG Export Plug-In . SVG Version: 6.00 Build 0)  -->
<svg version="1.1" id="Capa_1" xmlns="http://www.w3.org/2000/svg" xmlns:xlink="http://www.w3.org/1999/xlink" x="0px" y="0px"
	 viewBox="0 0 468.293 468.293" style="enable-background:new 0 0 468.293 468.293;" xml:space="preserve">
<path style="fill:#E56353;" d="M234.143,0C136.674,0,57.66,79.02,57.66,176.49s176.484,291.803,176.484,291.803
	s176.49-194.334,176.49-291.803S331.616,0,234.143,0z"/>
<path style="fill:#EBF0F3;" d="M246.339,83.472c-61.349-7.734-112.942,43.865-105.206,105.214
	c5.271,41.799,39.027,75.55,80.826,80.815c61.345,7.727,112.934-43.862,105.202-105.206
	C321.893,122.496,288.138,88.742,246.339,83.472z"/>
<path style="fill:#E56353;" d="M201.338,209.243v-65.512c0-4.575,3.709-8.284,8.284-8.284h0.006c4.575,0,8.284,3.709,8.284,8.284
	v24.021h32.476v-24.021c0-4.575,3.709-8.284,8.284-8.284l0,0c4.575,0,8.284,3.709,8.284,8.284v65.512
	c0,4.575-3.709,8.284-8.284,8.284l0,0c-4.575,0-8.284-3.709-8.284-8.284v-27.607h-32.476v27.607c0,4.575-3.709,8.284-8.284,8.284
	h-0.006C205.047,217.526,201.338,213.818,201.338,209.243z"/>
<g>
</g>
<g>
</g>
<g>
</g>
<g>
</g>
<g>
</g>
<g>
</g>
<g>
</g>
<g>
</g>
<g>
</g>
<g>
</g>
<g>
</g>
<g>
</g>
<g>
</g>
<g>
</g>
<g>
</g>
</svg>
