<?xml version="1.0" encoding="iso-8859-1"?>
<!-- Generator: Adobe Illustrator 19.0.0, SVG Export Plug-In . SVG Version: 6.00 Build 0)  -->
<svg version="1.1" id="Capa_1" xmlns="http://www.w3.org/2000/svg" xmlns:xlink="http://www.w3.org/1999/xlink" x="0px" y="0px"
	 viewBox="0 0 468.311 468.311" style="enable-background:new 0 0 468.311 468.311;" xml:space="preserve">
<rect x="368.64" y="160.603" style="fill:#2F4859;" width="19.493" height="153.694"/>
<circle style="fill:#EBF0F3;" cx="378.38" cy="89.94" r="89.931"/>
<path style="fill:#2F4859;" d="M356.859,129.208V60.382h22.3c8.451,0,13.959,0.344,16.526,1.033
	c3.944,1.033,7.246,3.279,9.906,6.737c2.66,3.459,3.991,7.926,3.991,13.404c0,4.225-0.767,7.778-2.3,10.657
	c-1.534,2.879-3.482,5.141-5.845,6.784c-2.363,1.643-4.765,2.731-7.207,3.263c-3.318,0.657-8.122,0.986-14.413,0.986h-9.061v25.962
	H356.859z M370.755,72.025v19.53h7.606c5.477,0,9.139-0.36,10.986-1.08c1.847-0.72,3.294-1.847,4.343-3.38
	c1.049-1.534,1.573-3.318,1.573-5.352c0-2.504-0.736-4.57-2.207-6.197c-1.471-1.628-3.333-2.645-5.587-3.052
	c-1.659-0.313-4.992-0.469-10-0.469H370.755z"/>
<path style="fill:#D15241;" d="M436.198,38.494c-2.009-2.25-4.14-4.381-6.39-6.39c-13.665-12.218-31.71-19.613-51.444-19.613
	c-42.682,0-77.447,34.765-77.447,77.447c0,19.733,7.395,37.779,19.613,51.444c2.01,2.25,4.14,4.381,6.39,6.39
	c13.665,12.218,31.71,19.613,51.444,19.613c42.682,0,77.447-34.765,77.447-77.447C455.811,70.205,448.416,52.159,436.198,38.494z
	 M312.894,89.938c0-36.091,29.379-65.47,65.47-65.47c15.855,0,30.401,5.711,41.739,15.206l-92.003,92.004
	C318.605,120.34,312.894,105.793,312.894,89.938z M378.364,155.409c-15.855,0-30.401-5.712-41.739-15.206l2.821-2.822l86.361-86.36
	l2.821-2.821c9.495,11.337,15.206,25.884,15.206,41.739C443.834,126.029,414.455,155.409,378.364,155.409z"/>
<polygon style="fill:#FE6F58;" points="283.208,187.243 99.956,187.243 18.957,316.091 364.207,316.091 "/>
<g>
	<polygon style="fill:#84DBFF;" points="279.063,211.914 192.607,211.914 192.607,317.028 334.306,317.028 	"/>
	<polygon style="fill:#84DBFF;" points="51.94,317.028 168.497,317.028 168.497,211.914 114.747,211.914 	"/>
</g>
<path style="fill:#FF7058;" d="M374.584,307.836H15.032C6.73,307.836,0,314.566,0,322.868v79.465c0,8.302,6.73,15.032,15.032,15.032
	h418.33c9.013,0,16.319-7.306,16.319-16.319v-18.112C449.682,341.459,416.059,307.836,374.584,307.836z"/>
<path style="fill:#D15241;" d="M0,395.787v6.546c0,8.303,6.73,15.033,15.033,15.033h418.33c9.013,0,16.319-7.307,16.319-16.319
	v-5.26H0z"/>
<g>
	<path style="fill:#435B6D;" d="M102.876,366.429c-28.132,0-50.936,22.804-50.936,50.937c0,28.131,22.805,50.936,50.936,50.936
		c28.131,0,50.936-22.804,50.936-50.936C153.812,389.234,131.007,366.429,102.876,366.429z"/>
	<path style="fill:#435B6D;" d="M346.806,366.429c-28.131,0-50.936,22.804-50.936,50.937c0,28.131,22.805,50.936,50.936,50.936
		c28.132,0,50.936-22.804,50.936-50.936C397.742,389.234,374.938,366.429,346.806,366.429z"/>
</g>
<g>
	<path style="fill:#EBF0F3;" d="M102.876,395.345c-12.162,0-22.021,9.859-22.021,22.022c0,12.162,9.859,22.02,22.021,22.02
		c12.162,0,22.021-9.858,22.021-22.02C124.897,405.204,115.038,395.345,102.876,395.345z"/>
	<path style="fill:#EBF0F3;" d="M346.806,395.345c-12.162,0-22.021,9.859-22.021,22.022c0,12.162,9.859,22.02,22.021,22.02
		c12.162,0,22.021-9.858,22.021-22.02C368.827,405.204,358.968,395.345,346.806,395.345z"/>
</g>
<g>
</g>
<g>
</g>
<g>
</g>
<g>
</g>
<g>
</g>
<g>
</g>
<g>
</g>
<g>
</g>
<g>
</g>
<g>
</g>
<g>
</g>
<g>
</g>
<g>
</g>
<g>
</g>
<g>
</g>
</svg>
