<?xml version="1.0" encoding="iso-8859-1"?>
<!-- Generator: Adobe Illustrator 19.0.0, SVG Export Plug-In . SVG Version: 6.00 Build 0)  -->
<svg version="1.1" id="Capa_1" xmlns="http://www.w3.org/2000/svg" xmlns:xlink="http://www.w3.org/1999/xlink" x="0px" y="0px"
	 viewBox="0 0 468.293 468.293" style="enable-background:new 0 0 468.293 468.293;" xml:space="preserve">
<polyline style="fill:#E56353;" points="21.649,170.91 227.883,0 446.644,170.91 "/>
<polygon style="fill:#F6C358;" points="225.246,44.436 82.257,170.91 84.315,170.91 84.315,468.293 374.862,468.293 374.862,170.91 
	376.92,170.91 "/>
<path style="fill:#3A556A;" d="M302.008,221.295c14.307,13.426,21.461,34.042,21.461,61.855s-7.35,48.162-22.045,61.047
	c-14.698,12.885-37.129,19.327-67.299,19.327h-27.152v62.823h-45.548V201.159h72.116
	C264.879,201.159,287.701,207.876,302.008,221.295z M268.578,309.887c5.448-6.763,8.175-16.644,8.175-29.635
	c0-12.992-3.552-22.232-10.655-27.706c-7.107-5.481-18.152-8.218-33.14-8.218h-25.984v75.708h30.657
	C252.812,320.035,263.126,316.65,268.578,309.887z"/>
<g>
</g>
<g>
</g>
<g>
</g>
<g>
</g>
<g>
</g>
<g>
</g>
<g>
</g>
<g>
</g>
<g>
</g>
<g>
</g>
<g>
</g>
<g>
</g>
<g>
</g>
<g>
</g>
<g>
</g>
</svg>
