<?xml version="1.0" encoding="iso-8859-1"?>
<!-- Generator: Adobe Illustrator 19.0.0, SVG Export Plug-In . SVG Version: 6.00 Build 0)  -->
<svg version="1.1" id="Capa_1" xmlns="http://www.w3.org/2000/svg" xmlns:xlink="http://www.w3.org/1999/xlink" x="0px" y="0px"
	 viewBox="0 0 468.293 468.293" style="enable-background:new 0 0 468.293 468.293;" xml:space="preserve">
<path style="fill:#64798A;" d="M346.261,262.123H122.032L191.47,0h85.353L346.261,262.123z M141.004,247.527h186.285L265.591,14.596
	h-62.888L141.004,247.527z"/>
<path style="fill:#E56353;" d="M420.689,201.915H47.604c-16.561,0-29.987,13.426-29.987,29.987v206.404
	c0,16.561,13.426,29.987,29.987,29.987h373.085c16.561,0,29.987-13.426,29.987-29.987V231.902
	C450.676,215.34,437.25,201.915,420.689,201.915z"/>
<path style="fill:#EBF0F3;" d="M38.446,444.206c-0.464,0-0.837-0.374-0.837-0.837V226.838c0-0.464,0.374-0.837,0.837-0.837h391.401
	c0.464,0,0.837,0.374,0.837,0.837v216.531c0,0.464-0.374,0.837-0.837,0.837H38.446z"/>
<g>
	<path style="fill:#CE412D;" d="M72.202,335.325c0-8.713,1.303-16.026,3.909-21.939c1.945-4.357,4.6-8.266,7.964-11.728
		c3.365-3.462,7.05-6.029,11.057-7.702c5.329-2.256,11.475-3.384,18.438-3.384c12.603,0,22.688,3.909,30.253,11.728
		c7.566,7.819,11.349,18.691,11.349,32.616c0,13.809-3.754,24.613-11.261,32.412s-17.543,11.699-30.107,11.699
		c-12.72,0-22.833-3.88-30.341-11.64C75.956,359.626,72.202,348.939,72.202,335.325z M89.998,334.741
		c0,9.686,2.237,17.028,6.71,22.026c4.473,4.998,10.153,7.498,17.038,7.498s12.535-2.48,16.95-7.439
		c4.415-4.96,6.622-12.399,6.622-22.318c0-9.802-2.149-17.115-6.447-21.939c-4.298-4.823-10.007-7.235-17.125-7.235
		c-7.118,0-12.856,2.441-17.213,7.323C92.177,317.538,89.998,324.9,89.998,334.741z"/>
	<path style="fill:#CE412D;" d="M168.651,377.568v-85.538h27.715c10.503,0,17.349,0.428,20.538,1.284
		c4.901,1.284,9.005,4.075,12.311,8.373s4.96,9.851,4.96,16.658c0,5.251-0.953,9.666-2.859,13.245
		c-1.906,3.579-4.327,6.389-7.264,8.431c-2.937,2.042-5.922,3.394-8.956,4.055c-4.123,0.817-10.094,1.225-17.913,1.225h-11.261
		v32.266H168.651z M185.922,306.501v24.273h9.452c6.807,0,11.358-0.447,13.653-1.342c2.295-0.895,4.094-2.295,5.397-4.201
		c1.303-1.906,1.955-4.123,1.955-6.652c0-3.112-0.914-5.679-2.742-7.702c-1.828-2.023-4.143-3.287-6.943-3.793
		c-2.062-0.389-6.204-0.583-12.428-0.583H185.922z"/>
	<path style="fill:#CE412D;" d="M248.354,377.568v-85.538h63.424v14.47h-46.153v18.963h42.944v14.412h-42.944v23.281h47.787v14.412
		H248.354z"/>
	<path style="fill:#CE412D;" d="M328.232,377.568v-85.538h16.804l35.009,57.122v-57.122h16.046v85.538h-17.329l-34.484-55.78v55.78
		H328.232z"/>
</g>
<g>
	<path style="fill:#D5D6DB;" d="M336.772,235.211c-10.832,0-19.614,8.781-19.614,19.614c0,10.832,8.782,19.614,19.614,19.614
		s19.614-8.781,19.614-19.614C356.386,243.992,347.604,235.211,336.772,235.211z"/>
	<path style="fill:#D5D6DB;" d="M131.52,235.211c-10.832,0-19.614,8.781-19.614,19.614c0,10.832,8.782,19.614,19.614,19.614
		c10.832,0,19.614-8.781,19.614-19.614C151.135,243.992,142.353,235.211,131.52,235.211z"/>
</g>
<path style="fill:#2F4859;" d="M324.003,262.123H144.289c-4.031,0-7.298-3.267-7.298-7.298v0c0-4.031,3.267-7.298,7.298-7.298
	h179.714c4.031,0,7.298,3.267,7.298,7.298v0C331.301,258.856,328.034,262.123,324.003,262.123z"/>
<g>
</g>
<g>
</g>
<g>
</g>
<g>
</g>
<g>
</g>
<g>
</g>
<g>
</g>
<g>
</g>
<g>
</g>
<g>
</g>
<g>
</g>
<g>
</g>
<g>
</g>
<g>
</g>
<g>
</g>
</svg>
