<?xml version="1.0" encoding="iso-8859-1"?>
<!-- Generator: Adobe Illustrator 19.0.0, SVG Export Plug-In . SVG Version: 6.00 Build 0)  -->
<svg version="1.1" id="Capa_1" xmlns="http://www.w3.org/2000/svg" xmlns:xlink="http://www.w3.org/1999/xlink" x="0px" y="0px"
	 viewBox="0 0 468.293 468.293" style="enable-background:new 0 0 468.293 468.293;" xml:space="preserve">
<circle style="fill:#64798A;" cx="242.638" cy="247.688" r="150.228"/>
<circle style="fill:#3A556A;" cx="242.638" cy="247.688" r="100.152"/>
<path style="fill:#DC8744;" d="M445.23,394.755L445.23,394.755c-14.454,0-24.584-21.28-22.874-44.223l7.37-125.269h30.626
	l7.752,125.269C469.815,373.475,459.684,394.755,445.23,394.755z"/>
<path style="fill:#D5D6DB;" d="M458.384,225.263V70.376c0,0-63.096,34.821-27.073,154.887"/>
<path style="fill:#DC8744;" d="M34.744,397.299L34.744,397.299c-14.454,0-24.584-21.28-22.874-44.223l9.338-125.269H48.28
	l9.338,125.269C59.328,376.02,49.197,397.299,34.744,397.299z"/>
<g>
	<path style="fill:#D5D6DB;" d="M0,175.918c0,0,7.2,45.574,27.975,51.89h15.341c0,0,22.561-10.829,20.305-51.89H0z"/>
	<polygon style="fill:#D5D6DB;" points="5.866,98.083 7.896,98.083 13.762,175.918 0,175.918 	"/>
	<polygon style="fill:#D5D6DB;" points="55.884,98.083 57.914,98.083 63.78,175.918 50.018,175.918 	"/>
	<polygon style="fill:#D5D6DB;" points="30.875,98.083 32.905,98.083 38.771,175.918 25.009,175.918 	"/>
	<path style="fill:#D5D6DB;" d="M174.201,195.384c12.327,13.544,35.889,7.401,53.673,3.024
		c40.856-10.056,109.567-19.464,122.838,26.254c6.923,23.848,7.416,85.299-60.321,71.495c-23.713-4.832-48.389-3.254-71.363,4.35
		c-38.22,12.65-89.921,18.79-73.35-49.389c2.191-9.015,8.702-4.124-2.273-37.038C139.749,203.115,152.931,172.014,174.201,195.384z"
		/>
</g>
<ellipse style="fill:#FCD462;" cx="285.971" cy="240.695" rx="43.214" ry="27.779"/>
<ellipse style="fill:#EBF0F3;" cx="297.46" cy="236.324" rx="21.123" ry="13.58"/>
<g>
	<circle style="fill:#DC8744;" cx="172.644" cy="257.366" r="5.613"/>
	<circle style="fill:#DC8744;" cx="191.625" cy="268.48" r="5.613"/>
	<circle style="fill:#DC8744;" cx="180.374" cy="285.339" r="5.613"/>
	<circle style="fill:#DC8744;" cx="198.556" cy="285.339" r="5.613"/>
	<circle style="fill:#DC8744;" cx="158.545" cy="274.1" r="5.613"/>
</g>
<g>
</g>
<g>
</g>
<g>
</g>
<g>
</g>
<g>
</g>
<g>
</g>
<g>
</g>
<g>
</g>
<g>
</g>
<g>
</g>
<g>
</g>
<g>
</g>
<g>
</g>
<g>
</g>
<g>
</g>
</svg>
