<?xml version="1.0" encoding="iso-8859-1"?>
<!-- Generator: Adobe Illustrator 19.0.0, SVG Export Plug-In . SVG Version: 6.00 Build 0)  -->
<svg version="1.1" id="Capa_1" xmlns="http://www.w3.org/2000/svg" xmlns:xlink="http://www.w3.org/1999/xlink" x="0px" y="0px"
	 viewBox="0 0 468.293 468.293" style="enable-background:new 0 0 468.293 468.293;" xml:space="preserve">
<path style="fill:#D5D6DB;" d="M468.293,25.285v319.423c-49.939,26.663-93.456,64.003-123.586,123.585H25.285
	C11.32,468.293,0,456.972,0,443.008V25.285C0,11.32,11.32,0,25.285,0h417.723C456.972,0,468.293,11.32,468.293,25.285z"/>
<path style="fill:#EBF0F3;" d="M344.707,369.992v98.3l123.586-123.585h-98.301C356.027,344.708,344.707,356.028,344.707,369.992z"/>
<g>
	<path style="fill:#2F4859;" d="M86.397,106.962V33.439h14.444l30.092,49.099V33.439h13.792v73.524h-14.895l-29.64-47.946v47.946
		H86.397z"/>
	<path style="fill:#2F4859;" d="M160.422,106.962V33.439h54.516v12.438h-39.671v16.3h36.912v12.388h-36.912v20.011h41.075v12.388
		H160.422z"/>
	<path style="fill:#2F4859;" d="M239.362,106.962l-17.553-73.524h15.196l11.084,50.504l13.441-50.504h17.654l12.889,51.356
		l11.284-51.356h14.945l-17.854,73.524H284.7l-14.645-54.967l-14.594,54.967H239.362z"/>
	<path style="fill:#2F4859;" d="M322.114,83.04l14.444-1.404c0.869,4.848,2.633,8.409,5.291,10.683
		c2.658,2.274,6.244,3.41,10.758,3.41c4.781,0,8.384-1.011,10.808-3.034c2.424-2.023,3.636-4.388,3.636-7.097
		c0-1.739-0.51-3.218-1.53-4.438c-1.02-1.22-2.8-2.282-5.341-3.185c-1.739-0.602-5.701-1.672-11.886-3.21
		c-7.958-1.973-13.541-4.397-16.751-7.272c-4.514-4.046-6.771-8.977-6.771-14.795c0-3.745,1.062-7.247,3.185-10.507
		c2.123-3.26,5.182-5.742,9.178-7.448c3.996-1.705,8.819-2.558,14.469-2.558c9.228,0,16.174,2.023,20.838,6.068
		s7.113,9.445,7.347,16.199l-14.845,0.652c-0.635-3.778-1.998-6.495-4.087-8.15c-2.09-1.655-5.224-2.483-9.404-2.483
		c-4.313,0-7.69,0.886-10.131,2.658c-1.571,1.137-2.357,2.658-2.357,4.564c0,1.739,0.736,3.226,2.207,4.464
		c1.872,1.571,6.42,3.21,13.641,4.915c7.222,1.705,12.563,3.469,16.024,5.291c3.461,1.822,6.169,4.313,8.125,7.473
		c1.956,3.16,2.934,7.063,2.934,11.711c0,4.213-1.17,8.158-3.511,11.836c-2.34,3.678-5.651,6.411-9.93,8.2
		c-4.28,1.789-9.613,2.683-15.999,2.683c-9.295,0-16.433-2.148-21.415-6.445C326.059,97.525,323.084,91.265,322.114,83.04z"/>
</g>
<g>
	<rect x="40.273" y="135.305" style="fill:#EBF0F3;" width="387.746" height="19.799"/>
	<rect x="197.495" y="191.5" style="fill:#EBF0F3;" width="230.506" height="19.799"/>
	<rect x="197.495" y="247.696" style="fill:#EBF0F3;" width="230.506" height="19.799"/>
	<rect x="40.273" y="303.891" style="fill:#EBF0F3;" width="387.746" height="19.799"/>
	<rect x="40.273" y="360.086" style="fill:#EBF0F3;" width="268.613" height="19.799"/>
	<rect x="40.273" y="416.281" style="fill:#EBF0F3;" width="268.613" height="19.799"/>
</g>
<path style="fill:#FCD462;" d="M40.276,191.742v75.524c0,5.347,4.335,9.682,9.682,9.682H169.17c5.347,0,9.682-4.335,9.682-9.682
	v-75.524c0-5.347-4.335-9.682-9.682-9.682H49.958C44.611,182.06,40.276,186.395,40.276,191.742z"/>
<g>
</g>
<g>
</g>
<g>
</g>
<g>
</g>
<g>
</g>
<g>
</g>
<g>
</g>
<g>
</g>
<g>
</g>
<g>
</g>
<g>
</g>
<g>
</g>
<g>
</g>
<g>
</g>
<g>
</g>
</svg>
