<?xml version="1.0" encoding="iso-8859-1"?>
<!-- Generator: Adobe Illustrator 19.0.0, SVG Export Plug-In . SVG Version: 6.00 Build 0)  -->
<svg version="1.1" id="Capa_1" xmlns="http://www.w3.org/2000/svg" xmlns:xlink="http://www.w3.org/1999/xlink" x="0px" y="0px"
	 viewBox="0 0 468.293 468.293" style="enable-background:new 0 0 468.293 468.293;" xml:space="preserve">
<rect y="47.326" style="fill:#FCD462;" width="468.293" height="372.911"/>
<circle style="fill:#E1E6E9;" cx="151.252" cy="231.19" r="121.837"/>
<circle style="fill:#64798A;" cx="151.252" cy="231.19" r="54.553"/>
<circle style="fill:#E1E6E9;" cx="151.252" cy="231.19" r="23.034"/>
<g>
	<circle style="fill:#DC8744;" cx="393.74" cy="109.328" r="42.434"/>
	<circle style="fill:#DC8744;" cx="393.74" cy="208.15" r="42.434"/>
</g>
<g>
	<ellipse style="fill:#64798A;" cx="393.74" cy="368.574" rx="31.532" ry="23.034"/>
	<path style="fill:#64798A;" d="M348.513,377.36c-117.402,0-159.555-71.427-161.469-74.78c-1.707-3-0.659-6.811,2.335-8.518
		c2.994-1.707,6.805-0.659,8.518,2.335c2.043,3.549,49.915,83.366,188.988,66c3.433-0.39,6.537,2,6.97,5.421
		c0.427,3.421-2,6.543-5.421,6.97C374.257,376.561,360.958,377.36,348.513,377.36z"/>
</g>
<rect y="401.299" style="fill:#F6C358;" width="468.293" height="19.668"/>
<g>
</g>
<g>
</g>
<g>
</g>
<g>
</g>
<g>
</g>
<g>
</g>
<g>
</g>
<g>
</g>
<g>
</g>
<g>
</g>
<g>
</g>
<g>
</g>
<g>
</g>
<g>
</g>
<g>
</g>
</svg>
