<?xml version="1.0" encoding="iso-8859-1"?>
<!-- Generator: Adobe Illustrator 19.0.0, SVG Export Plug-In . SVG Version: 6.00 Build 0)  -->
<svg version="1.1" id="Capa_1" xmlns="http://www.w3.org/2000/svg" xmlns:xlink="http://www.w3.org/1999/xlink" x="0px" y="0px"
	 viewBox="0 0 390.049 390.049" style="enable-background:new 0 0 390.049 390.049;" xml:space="preserve">
<path style="fill:#64798A;" d="M274.416,390.049H129.809c-12.342,0-22.892-8.882-24.997-21.042L71.085,224.089h262.055
	l-33.727,144.917C297.309,381.167,286.758,390.049,274.416,390.049z"/>
<g>
	<polygon style="fill:#27A2DB;" points="269.012,390.049 242.252,390.049 258.308,223.545 295.771,223.545 	"/>
	<polygon style="fill:#27A2DB;" points="215.493,390.049 188.733,390.049 183.381,223.545 220.844,223.545 	"/>
	<polygon style="fill:#27A2DB;" points="161.973,390.049 135.214,390.049 108.454,223.545 145.918,223.545 	"/>
</g>
<path style="fill:#F6C358;" d="M61.13,234.279C36.941,189.923,2.129,95.651,195.374,85.865
	c51.843-2.625,165.881,6.524,151.415,148.414c-1.805,17.708-9.366,71.267-67.122-12.479c0,0-18.464,69.561-67.769-0.569
	c0,0-16.524,66.868-68.036,0C143.861,221.232,86.724,281.214,61.13,234.279z"/>
<g>
	<circle style="fill:#64798A;" cx="295.801" cy="164.055" r="12.488"/>
	<circle style="fill:#64798A;" cx="108.484" cy="139.079" r="12.488"/>
	<circle style="fill:#64798A;" cx="242.253" cy="200.132" r="12.488"/>
	<circle style="fill:#64798A;" cx="174.463" cy="192.327" r="12.488"/>
	<circle style="fill:#64798A;" cx="83.571" cy="204.815" r="12.488"/>
</g>
<ellipse transform="matrix(-0.8472 -0.5312 0.5312 -0.8472 331.6074 319.0497)" style="fill:#CE412D;" cx="211.681" cy="111.842" rx="41.172" ry="42.677"/>
<path style="fill:#D15241;" d="M178.793,103.16c0,0,15.3-1.062,13.893-16.771C192.686,86.389,178.024,85.535,178.793,103.16z"/>
<path style="fill:#DC8744;" d="M187.259,99.866C134.842,89.542,80.086,9.92,77.411,6.838L83.048,0
	c0.635,0.73,57.667,87.494,107.097,97.23L187.259,99.866z"/>
<path style="fill:#EBF0F3;" d="M212.029,149.089c-0.334,0.533-0.959,0.854-1.628,0.764c-26.927-3.588-32.795-24.496-32.853-24.706
	c-0.236-0.886,0.292-1.793,1.176-2.031c0.884-0.237,1.796,0.288,2.034,1.171c0.209,0.774,5.428,18.988,30.083,22.272
	c0.91,0.121,1.545,0.956,1.424,1.866C212.236,148.67,212.152,148.893,212.029,149.089z"/>
<g>
</g>
<g>
</g>
<g>
</g>
<g>
</g>
<g>
</g>
<g>
</g>
<g>
</g>
<g>
</g>
<g>
</g>
<g>
</g>
<g>
</g>
<g>
</g>
<g>
</g>
<g>
</g>
<g>
</g>
</svg>
