<?xml version="1.0" encoding="iso-8859-1"?>
<!-- Generator: Adobe Illustrator 19.0.0, SVG Export Plug-In . SVG Version: 6.00 Build 0)  -->
<svg version="1.1" id="Capa_1" xmlns="http://www.w3.org/2000/svg" xmlns:xlink="http://www.w3.org/1999/xlink" x="0px" y="0px"
	 viewBox="0 0 515.122 515.122" style="enable-background:new 0 0 515.122 515.122;" xml:space="preserve">
<g>
	<path style="fill:#2F4859;" d="M372.356,433.597v42.58c0,5.651,4.581,10.233,10.233,10.233h62.917
		c5.651,0,10.233-4.581,10.233-10.233v-42.58H372.356z"/>
	<path style="fill:#2F4859;" d="M69.616,486.41h62.916c5.651,0,10.233-4.581,10.233-10.233v-42.58H59.383v42.58
		C59.383,481.829,63.965,486.41,69.616,486.41z"/>
	<polygon style="fill:#2F4859;" points="107.046,116.09 89.756,327.602 143.35,327.602 126.059,116.09 	"/>
</g>
<g>
	<path style="fill:#EBF0F3;" d="M86.474,65.864c-2.439-2.439-6.39-2.439-8.829,0c-21.457,21.451-21.457,56.366,0,77.817
		c1.22,1.22,2.817,1.829,4.415,1.829c1.598,0,3.195-0.61,4.415-1.829c2.439-2.439,2.439-6.39,0-8.829
		c-16.585-16.585-16.585-43.573,0-60.159C88.913,72.254,88.913,68.303,86.474,65.864z"/>
	<path style="fill:#EBF0F3;" d="M190.778,30.541c-2.439-2.439-6.39-2.439-8.829,0s-2.439,6.39,0,8.829
		c17.439,17.439,27.043,40.671,27.043,65.402s-9.604,47.957-27.043,65.396c-2.439,2.439-2.439,6.39,0,8.829
		c1.22,1.22,2.817,1.829,4.415,1.829c1.598,0,3.195-0.61,4.415-1.829c19.799-19.799,30.701-46.159,30.701-74.226
		S210.577,50.34,190.778,30.541z"/>
	<path style="fill:#EBF0F3;" d="M24.114,104.773c0-24.732,9.604-47.963,27.043-65.402c2.439-2.439,2.439-6.39,0-8.829
		c-2.439-2.439-6.39-2.439-8.829,0C22.528,50.34,11.626,76.706,11.626,104.773s10.902,54.427,30.701,74.226
		c1.22,1.22,2.817,1.829,4.415,1.829s3.195-0.61,4.415-1.829c2.439-2.439,2.439-6.39,0-8.829
		C33.717,152.73,24.114,129.504,24.114,104.773z"/>
	<path style="fill:#EBF0F3;" d="M49.071,104.773c0-18.055,7.012-35.006,19.744-47.738c2.439-2.439,2.439-6.39,0-8.829
		c-2.439-2.439-6.39-2.439-8.829,0c-15.091,15.085-23.402,35.177-23.402,56.567s8.311,41.482,23.402,56.567
		c1.22,1.22,2.817,1.829,4.415,1.829c1.598,0,3.195-0.61,4.415-1.829c2.439-2.439,2.439-6.39,0-8.829
		C56.083,139.779,49.071,122.828,49.071,104.773z"/>
	<path style="fill:#EBF0F3;" d="M173.12,48.206c-2.439-2.439-6.39-2.439-8.829,0c-2.439,2.439-2.439,6.39,0,8.829
		c12.732,12.732,19.744,29.683,19.744,47.738s-7.012,35.006-19.744,47.738c-2.439,2.439-2.439,6.39,0,8.829
		c1.22,1.22,2.817,1.829,4.415,1.829s3.195-0.61,4.415-1.829c15.091-15.085,23.402-35.177,23.402-56.567
		S188.211,63.291,173.12,48.206z"/>
	<path style="fill:#EBF0F3;" d="M155.461,65.864c-2.439-2.439-6.39-2.439-8.829,0c-2.439,2.439-2.439,6.39,0,8.829
		c16.585,16.585,16.585,43.573,0,60.159c-2.439,2.439-2.439,6.39,0,8.829c1.22,1.22,2.817,1.829,4.415,1.829s3.195-0.61,4.415-1.829
		C176.919,122.23,176.919,87.315,155.461,65.864z"/>
	<circle style="fill:#EBF0F3;" cx="116.555" cy="104.773" r="23.808"/>
</g>
<polygon style="fill:#2F4859;" points="389.063,116.09 371.772,327.602 425.366,327.602 408.075,116.09 "/>
<g>
	<path style="fill:#EBF0F3;" d="M368.49,65.864c-2.439-2.439-6.39-2.439-8.829,0c-21.457,21.451-21.457,56.366,0,77.817
		c1.22,1.22,2.817,1.829,4.415,1.829c1.598,0,3.195-0.61,4.415-1.829c2.439-2.439,2.439-6.39,0-8.829
		c-16.585-16.585-16.585-43.573,0-60.159C370.929,72.254,370.929,68.303,368.49,65.864z"/>
	<path style="fill:#EBF0F3;" d="M472.795,30.541c-2.439-2.439-6.39-2.439-8.829,0s-2.439,6.39,0,8.829
		c17.439,17.439,27.043,40.671,27.043,65.402s-9.604,47.957-27.043,65.396c-2.439,2.439-2.439,6.39,0,8.829
		c1.22,1.22,2.817,1.829,4.415,1.829c1.598,0,3.195-0.61,4.415-1.829c19.799-19.799,30.701-46.159,30.701-74.226
		S492.594,50.34,472.795,30.541z"/>
	<path style="fill:#EBF0F3;" d="M306.13,104.773c0-24.732,9.604-47.963,27.043-65.402c2.439-2.439,2.439-6.39,0-8.829
		c-2.439-2.439-6.39-2.439-8.829,0c-19.799,19.799-30.701,46.165-30.701,74.232s10.902,54.427,30.701,74.226
		c1.22,1.22,2.817,1.829,4.415,1.829s3.195-0.61,4.415-1.829c2.439-2.439,2.439-6.39,0-8.829
		C315.734,152.73,306.13,129.504,306.13,104.773z"/>
	<path style="fill:#EBF0F3;" d="M331.087,104.773c0-18.055,7.012-35.006,19.744-47.738c2.439-2.439,2.439-6.39,0-8.829
		c-2.439-2.439-6.39-2.439-8.829,0C326.911,63.291,318.6,83.383,318.6,104.773s8.311,41.482,23.402,56.567
		c1.22,1.22,2.817,1.829,4.415,1.829s3.195-0.61,4.415-1.829c2.439-2.439,2.439-6.39,0-8.829
		C338.1,139.779,331.087,122.828,331.087,104.773z"/>
	<path style="fill:#EBF0F3;" d="M455.136,48.206c-2.439-2.439-6.39-2.439-8.829,0c-2.439,2.439-2.439,6.39,0,8.829
		c12.732,12.732,19.744,29.683,19.744,47.738s-7.012,35.006-19.744,47.738c-2.439,2.439-2.439,6.39,0,8.829
		c1.22,1.22,2.817,1.829,4.415,1.829c1.598,0,3.195-0.61,4.415-1.829c15.091-15.085,23.402-35.177,23.402-56.567
		S470.228,63.291,455.136,48.206z"/>
	<path style="fill:#EBF0F3;" d="M437.478,65.864c-2.439-2.439-6.39-2.439-8.829,0c-2.439,2.439-2.439,6.39,0,8.829
		c16.585,16.585,16.585,43.573,0,60.159c-2.439,2.439-2.439,6.39,0,8.829c1.22,1.22,2.817,1.829,4.415,1.829s3.195-0.61,4.415-1.829
		C458.935,122.23,458.935,87.315,437.478,65.864z"/>
	<circle style="fill:#EBF0F3;" cx="398.548" cy="104.773" r="23.808"/>
</g>
<path style="fill:#3A556A;" d="M515.122,335.667v107.187c0,9.472-7.678,17.15-17.15,17.15H17.15c-9.472,0-17.15-7.678-17.15-17.15
	V335.667c0-9.472,7.678-17.15,17.15-17.15h480.822C507.444,318.517,515.122,326.195,515.122,335.667z"/>
<rect x="56.507" y="318.514" style="fill:#D5D6DB;" width="402.17" height="89.475"/>
<circle style="fill:#CE412D;" cx="108.706" cy="363.258" r="21.073"/>
<rect x="241.764" y="350.77" style="fill:#44C4A1;" width="24.976" height="24.976"/>
<rect x="295.337" y="350.77" style="fill:#CE412D;" width="24.976" height="24.976"/>
<rect x="348.972" y="350.77" style="fill:#F7BE56;" width="24.976" height="24.976"/>
<rect x="402.544" y="350.77" style="fill:#2E9AE1;" width="24.976" height="24.976"/>
<g>
</g>
<g>
</g>
<g>
</g>
<g>
</g>
<g>
</g>
<g>
</g>
<g>
</g>
<g>
</g>
<g>
</g>
<g>
</g>
<g>
</g>
<g>
</g>
<g>
</g>
<g>
</g>
<g>
</g>
</svg>
