<?xml version="1.0" encoding="iso-8859-1"?>
<!-- Generator: Adobe Illustrator 19.0.0, SVG Export Plug-In . SVG Version: 6.00 Build 0)  -->
<svg version="1.1" id="Capa_1" xmlns="http://www.w3.org/2000/svg" xmlns:xlink="http://www.w3.org/1999/xlink" x="0px" y="0px"
	 viewBox="0 0 468.293 468.293" style="enable-background:new 0 0 468.293 468.293;" xml:space="preserve">
<path style="fill:#2F4859;" d="M378.602,0H89.691C74.296,0,61.816,12.479,61.816,27.875v412.544
	c0,15.395,12.48,27.875,27.875,27.875h288.911c15.395,0,27.875-12.48,27.875-27.875V27.875C406.476,12.479,393.997,0,378.602,0z"/>
<rect x="91.536" y="29.733" style="fill:#2E9AE1;" width="285.196" height="363.02"/>
<g>
	<circle style="fill:#EBF0F3;" cx="234.146" cy="222.595" r="23.858"/>
	<path style="fill:#EBF0F3;" d="M326.471,130.276c-50.91-50.91-133.74-50.91-184.65,0c-3.206,3.206-3.206,8.401,0,11.607
		c3.206,3.206,8.401,3.206,11.607,0c44.505-44.505,116.93-44.505,161.435,0c1.603,1.603,3.703,2.405,5.804,2.405
		c2.1,0,4.2-0.802,5.804-2.405C329.678,138.677,329.678,133.482,326.471,130.276z"/>
	<path style="fill:#EBF0F3;" d="M165.04,153.494c-3.206,3.206-3.206,8.401,0,11.607s8.401,3.206,11.607,0
		c31.703-31.703,83.295-31.703,114.998,0c1.603,1.603,3.703,2.405,5.804,2.405c2.1,0,4.2-0.802,5.804-2.405
		c3.206-3.206,3.206-8.401,0-11.607C265.144,115.386,203.148,115.386,165.04,153.494z"/>
	<path style="fill:#EBF0F3;" d="M188.258,176.709c-3.206,3.206-3.206,8.401,0,11.607c3.206,3.206,8.401,3.206,11.607,0
		c18.902-18.902,49.659-18.902,68.561,0c1.603,1.603,3.703,2.405,5.804,2.405c2.1,0,4.2-0.802,5.804-2.405
		c3.206-3.206,3.206-8.401,0-11.607C254.736,151.402,213.557,151.402,188.258,176.709z"/>
</g>
<path style="fill:#D5D6DB;" d="M263.353,419.128H204.94c-6.288,0-11.386,5.098-11.386,11.385c0,6.288,5.097,11.385,11.386,11.385
	h58.413c6.288,0,11.386-5.097,11.386-11.385C274.738,424.226,269.641,419.128,263.353,419.128z"/>
<g>
</g>
<g>
</g>
<g>
</g>
<g>
</g>
<g>
</g>
<g>
</g>
<g>
</g>
<g>
</g>
<g>
</g>
<g>
</g>
<g>
</g>
<g>
</g>
<g>
</g>
<g>
</g>
<g>
</g>
</svg>
