<?xml version="1.0" encoding="iso-8859-1"?>
<!-- Generator: Adobe Illustrator 19.0.0, SVG Export Plug-In . SVG Version: 6.00 Build 0)  -->
<svg version="1.1" id="Capa_1" xmlns="http://www.w3.org/2000/svg" xmlns:xlink="http://www.w3.org/1999/xlink" x="0px" y="0px"
	 viewBox="0 0 468.293 468.293" style="enable-background:new 0 0 468.293 468.293;" xml:space="preserve">
<g>
	<path style="fill:#2F4859;" d="M354.585,382.565v27.086c0,3.166,2.567,5.733,5.733,5.733h44.915c3.166,0,5.733-2.567,5.733-5.733
		v-27.086H354.585z"/>
	<path style="fill:#2F4859;" d="M57.327,382.565v27.086c0,3.166,2.567,5.733,5.733,5.733h44.915c3.166,0,5.733-2.567,5.733-5.733
		v-27.086H57.327z"/>
</g>
<path style="fill:#D5D6DB;" d="M0,77.312v291.578c0,13.478,10.926,24.404,24.404,24.404h419.486
	c13.478,0,24.404-10.926,24.404-24.404V77.312c0-13.478-10.926-24.404-24.404-24.404H24.404C10.926,52.909,0,63.835,0,77.312z"/>
<rect x="30.295" y="83.2" style="fill:#2E9AE1;" width="325.245" height="279.802"/>
<path style="fill:#E56353;" d="M411.912,276.187c16.662,0,30.344,12.471,32.263,28.527c0.151,1.313,0.252,2.626,0.252,3.938
	c0,1.363-0.101,2.676-0.252,3.989c-1.969,16.106-15.652,28.527-32.263,28.527s-30.294-12.421-32.263-28.527
	c-0.152-1.313-0.252-2.625-0.252-3.989c0-1.313,0.1-2.626,0.252-3.938C381.568,288.658,395.251,276.187,411.912,276.187z"/>
<path style="fill:#CE412D;" d="M379.649,304.714h64.526c0.151,1.313,0.252,2.626,0.252,3.938c0,1.363-0.101,2.676-0.252,3.989
	h-64.526c-0.152-1.313-0.252-2.625-0.252-3.989C379.397,307.339,379.498,306.026,379.649,304.714z"/>
<path style="fill:#E56353;" d="M411.912,253.02c-16.662,0-30.344-12.471-32.263-28.527c-0.151-1.313-0.252-2.626-0.252-3.938
	c0-1.363,0.101-2.676,0.252-3.989c1.969-16.106,15.652-28.527,32.263-28.527s30.294,12.421,32.263,28.527
	c0.152,1.313,0.252,2.625,0.252,3.989c0,1.313-0.1,2.626-0.252,3.938C442.257,240.549,428.574,253.02,411.912,253.02z"/>
<path style="fill:#CE412D;" d="M444.175,224.493h-64.526c-0.151-1.313-0.252-2.626-0.252-3.938c0-1.363,0.101-2.676,0.252-3.989
	h64.526c0.152,1.313,0.252,2.625,0.252,3.989C444.428,221.868,444.327,223.181,444.175,224.493z"/>
<g>
	<rect x="369.389" y="105.035" style="fill:#FCD462;" width="84.992" height="17.67"/>
	<rect x="369.389" y="142.049" style="fill:#FCD462;" width="84.992" height="17.67"/>
</g>
<g>
</g>
<g>
</g>
<g>
</g>
<g>
</g>
<g>
</g>
<g>
</g>
<g>
</g>
<g>
</g>
<g>
</g>
<g>
</g>
<g>
</g>
<g>
</g>
<g>
</g>
<g>
</g>
<g>
</g>
</svg>
