<?xml version="1.0" encoding="iso-8859-1"?>
<!-- Generator: Adobe Illustrator 19.0.0, SVG Export Plug-In . SVG Version: 6.00 Build 0)  -->
<svg version="1.1" id="Capa_1" xmlns="http://www.w3.org/2000/svg" xmlns:xlink="http://www.w3.org/1999/xlink" x="0px" y="0px"
	 viewBox="0 0 468.293 468.293" style="enable-background:new 0 0 468.293 468.293;" xml:space="preserve">
<path style="fill:#2F4859;" d="M69.457,445.421c-29.223-30.216-28.916-78.57,0.919-108.405l13.154,13.154
	c-24.213,24.213-22.818,64.48,4.187,86.843c23.535,19.489,58.453,16.582,80.059-5.024l84.423-84.423
	c3.632-3.632,9.521-3.632,13.154,0v0c3.632,3.632,3.632,9.521,0,13.154l-84.189,84.189
	C150.584,475.487,99.521,476.507,69.457,445.421z"/>
<path style="fill:#64798A;" d="M222.695,105.414L58.972,302.552c-13.833,16.656-12.703,41.107,2.606,56.417l0,0
	c15.31,15.31,39.76,16.439,56.417,2.606l197.138-163.723L222.695,105.414z"/>
<circle style="fill:#EBF0F3;" cx="315.89" cy="104.635" r="104.635"/>
<path style="fill:#D5D6DB;" d="M401.41,169.463L251.085,19.138c-5.708-5.708-14.964-5.709-20.672,0
	c-5.709,5.709-5.709,14.964,0,20.673l150.325,150.325c5.708,5.708,14.964,5.708,20.672-0.001
	C407.119,184.426,407.119,175.171,401.41,169.463z"/>
<path style="fill:#2F4859;" d="M175.057,245.216c-3.557-3.557-9.324-3.557-12.881,0l-25.758,25.758
	c-3.557,3.557-3.557,9.324,0,12.881c3.557,3.557,9.324,3.557,12.881,0l25.758-25.758
	C178.614,254.539,178.614,248.773,175.057,245.216z"/>
<path style="fill:#2E9AE1;" d="M185.005,235.268c-6.266-6.266-16.425-6.266-22.69,0c-6.266,6.266-6.266,16.425,0,22.691
	c6.266,6.266,16.425,6.266,22.691,0C191.271,251.693,191.271,241.534,185.005,235.268z"/>
<g>
</g>
<g>
</g>
<g>
</g>
<g>
</g>
<g>
</g>
<g>
</g>
<g>
</g>
<g>
</g>
<g>
</g>
<g>
</g>
<g>
</g>
<g>
</g>
<g>
</g>
<g>
</g>
<g>
</g>
</svg>
