<?xml version="1.0" encoding="iso-8859-1"?>
<!-- Generator: Adobe Illustrator 19.0.0, SVG Export Plug-In . SVG Version: 6.00 Build 0)  -->
<svg version="1.1" id="Capa_1" xmlns="http://www.w3.org/2000/svg" xmlns:xlink="http://www.w3.org/1999/xlink" x="0px" y="0px"
	 viewBox="0 0 468.293 468.293" style="enable-background:new 0 0 468.293 468.293;" xml:space="preserve">
<path style="fill:#2F4859;" d="M170.881,121.852v-52.19c0-4.598,3.739-8.337,8.337-8.337h109.856c4.598,0,8.337,3.739,8.337,8.337
	v52.19h31.857v-52.19c0-22.163-18.031-40.194-40.194-40.194H179.219c-22.163,0-40.194,18.031-40.194,40.194v52.19H170.881z"/>
<path style="fill:#64798A;" d="M431.658,105.923H36.635C16.402,105.923,0,122.325,0,142.558V402.19
	c0,20.233,16.402,36.635,36.635,36.635h395.022c20.233,0,36.635-16.402,36.635-36.635V142.558
	C468.293,122.325,451.891,105.923,431.658,105.923z"/>
<circle style="fill:#EBF0F3;" cx="234.146" cy="272.359" r="103.93"/>
<path style="fill:#D15241;" d="M287.904,260.03h-41.414v-41.414c0-6.818-5.527-12.344-12.344-12.344h0
	c-6.818,0-12.344,5.527-12.344,12.344v41.414h-41.414c-6.818,0-12.344,5.527-12.344,12.344v0c0,6.818,5.527,12.344,12.344,12.344
	h41.414v41.414c0,6.818,5.527,12.344,12.344,12.344h0c6.818,0,12.344-5.527,12.344-12.344v-41.414h41.414
	c6.818,0,12.344-5.527,12.344-12.344v0C300.249,265.557,294.722,260.03,287.904,260.03z"/>
<g>
</g>
<g>
</g>
<g>
</g>
<g>
</g>
<g>
</g>
<g>
</g>
<g>
</g>
<g>
</g>
<g>
</g>
<g>
</g>
<g>
</g>
<g>
</g>
<g>
</g>
<g>
</g>
<g>
</g>
</svg>
