<?xml version="1.0" encoding="iso-8859-1"?>
<!-- Generator: Adobe Illustrator 19.0.0, SVG Export Plug-In . SVG Version: 6.00 Build 0)  -->
<svg version="1.1" id="Capa_1" xmlns="http://www.w3.org/2000/svg" xmlns:xlink="http://www.w3.org/1999/xlink" x="0px" y="0px"
	 viewBox="0 0 468.292 468.292" style="enable-background:new 0 0 468.292 468.292;" xml:space="preserve">
<path style="fill:#D5D6DB;" d="M453.718,164.412c-0.953-0.033-1.881,0.046-2.79,0.184c0.581-1.518,0.985-3.128,1.044-4.845
	c0.288-8.332-6.233-15.322-14.566-15.61c-8.334-0.288-15.322,6.233-15.611,14.566c-0.122,3.519,1.022,6.757,2.952,9.393
	l-84.67,52.302l13.955,22.591l87.477-54.035c2.656,3.279,6.614,5.473,11.163,5.63c8.333,0.289,15.322-6.233,15.61-14.566
	C468.571,171.689,462.05,164.701,453.718,164.412z"/>
<path style="fill:#F6C358;" d="M375.334,287.777c0,59.98-72.042,107.428-168.706,107.428S31.602,346.583,31.602,286.603
	S109.964,164.43,206.628,164.43S375.334,227.798,375.334,287.777z"/>
<path style="fill:#FCD462;" d="M360.621,197.836c0,0-106.196,9.551-134.919,24.73c-37.037,19.572-34.002,73.448-9.483,98.192
	s69.405,21.77,98.275-8.583c18.138-19.07,70.262-78.395,70.262-78.395L360.621,197.836z"/>
<g>
	<path style="fill:#FFFFFF;" d="M56.638,278.639c-0.301,0-0.612-0.03-0.913-0.08c-2.801-0.502-4.658-3.172-4.156-5.963
		c11.313-63.16,93.715-82.232,97.219-83.015c2.821-0.612,5.511,1.144,6.133,3.895c0.612,2.771-1.124,5.521-3.895,6.143
		c-0.793,0.171-79.24,18.39-89.339,74.784C61.246,276.893,59.077,278.639,56.638,278.639z"/>
	<circle style="fill:#FFFFFF;" cx="56.632" cy="293.588" r="7.711"/>
</g>
<polygon style="fill:#31978C;" points="380.322,458.593 58.248,458.593 0,384.927 438.57,384.927 "/>
<g>
	<path style="fill:#DC8744;" d="M122.488,138.598l-17.587-12.738c-8.111-5.872-13.3-14.957-14.254-24.925
		c-0.944-9.968,2.439-19.875,9.285-27.173c8.583-9.135,9.195-23.429,1.435-33.266L87.104,22.438l16.141-12.738l14.264,18.069
		c14.003,17.747,12.899,43.575-2.58,60.068c-2.861,3.042-4.206,6.997-3.814,11.142c0.391,4.156,2.469,7.79,5.852,10.239
		l17.587,12.738L122.488,138.598z"/>
	<path style="fill:#DC8744;" d="M198.365,138.598l-17.587-12.738c-8.111-5.872-13.3-14.957-14.254-24.925
		c-0.944-9.968,2.439-19.875,9.285-27.173c8.583-9.135,9.195-23.429,1.425-33.256l-14.254-18.079l16.141-12.728l14.254,18.069
		c14.013,17.747,12.909,43.565-2.57,60.068c-2.861,3.042-4.206,6.997-3.814,11.142c0.391,4.156,2.469,7.79,5.852,10.239
		l17.587,12.738L198.365,138.598z"/>
	<path style="fill:#DC8744;" d="M260.762,138.598l-17.587-12.738c-8.111-5.872-13.3-14.957-14.254-24.925
		c-0.944-9.968,2.439-19.875,9.285-27.173c8.572-9.125,9.185-23.429,1.425-33.266l-14.254-18.069l16.141-12.728l14.254,18.069
		c14.013,17.747,12.909,43.575-2.57,60.068c-2.861,3.042-4.206,6.997-3.814,11.142c0.391,4.156,2.469,7.79,5.852,10.239
		l17.587,12.738L260.762,138.598z"/>
</g>
<g>
</g>
<g>
</g>
<g>
</g>
<g>
</g>
<g>
</g>
<g>
</g>
<g>
</g>
<g>
</g>
<g>
</g>
<g>
</g>
<g>
</g>
<g>
</g>
<g>
</g>
<g>
</g>
<g>
</g>
</svg>
