<?xml version="1.0" encoding="iso-8859-1"?>
<!-- Generator: Adobe Illustrator 19.0.0, SVG Export Plug-In . SVG Version: 6.00 Build 0)  -->
<svg version="1.1" id="Capa_1" xmlns="http://www.w3.org/2000/svg" xmlns:xlink="http://www.w3.org/1999/xlink" x="0px" y="0px"
	 viewBox="0 0 468.293 468.293" style="enable-background:new 0 0 468.293 468.293;" xml:space="preserve">
<g>
	<path style="fill:#F6C358;" d="M359.816,286.399c0,0,27.958-8.455,21.055,28.361c-2.672,14.252-10.846,62.284-33.716,49.73"/>
	<path style="fill:#F6C358;" d="M106.748,286.196c0,0-28.645-6.476-18.381,29.74c3.973,14.02,16.534,61.327,38.176,47.217"/>
</g>
<path style="fill:#FCD462;" d="M102.693,276.946c0,0,27.521,194.788,132.708,191.301c63.747-2.113,118.672-68.957,130.156-191.301
	v-26.693H102.693V276.946z"/>
<g>
	<path style="fill:#64798A;" d="M96.313,250.252l12.637,78.786c0.781,4.871,5.561,8.495,11.203,8.495h0
		c6.819,0,12.088-5.219,11.22-11.115l-11.211-76.166H96.313z"/>
	<path style="fill:#64798A;" d="M372.639,250.252l-12.637,78.786c-0.781,4.871-5.561,8.495-11.203,8.495h0
		c-6.819,0-12.088-5.219-11.22-11.115l11.211-76.166H372.639z"/>
	<path style="fill:#64798A;" d="M298.767,391.805c-5.438,13.824-23.662,6.037-29.001,1.74c-19.696-15.853-35.345-0.95-35.345-0.95
		c-14.5-11.849-20.958-7.872-26.282-4.345c-39.548,26.208-38.97,3.555-38.97,3.555c-19.485,37.521,64.799,16.983,64.799,16.983
		C322.783,425.377,298.767,391.805,298.767,391.805z"/>
</g>
<polygon style="fill:#D5D6DB;" points="322.525,0 145.768,0 76.512,250.252 391.781,250.252 "/>
<g>
	<path style="fill:#64798A;" d="M76.512,250.252c0,0,82.581-127.656,296.128-69.166l-18.514-66.899
		c0,0-171.124-30.708-257.813,64.515L76.512,250.252z"/>
	<circle style="fill:#64798A;" cx="285.346" cy="309.385" r="16.359"/>
	<circle style="fill:#64798A;" cx="182.603" cy="309.385" r="16.359"/>
</g>
<g>
</g>
<g>
</g>
<g>
</g>
<g>
</g>
<g>
</g>
<g>
</g>
<g>
</g>
<g>
</g>
<g>
</g>
<g>
</g>
<g>
</g>
<g>
</g>
<g>
</g>
<g>
</g>
<g>
</g>
</svg>
