<?xml version="1.0" encoding="iso-8859-1"?>
<!-- Generator: Adobe Illustrator 19.0.0, SVG Export Plug-In . SVG Version: 6.00 Build 0)  -->
<svg version="1.1" id="Capa_1" xmlns="http://www.w3.org/2000/svg" xmlns:xlink="http://www.w3.org/1999/xlink" x="0px" y="0px"
	 viewBox="0 0 468.293 468.293" style="enable-background:new 0 0 468.293 468.293;" xml:space="preserve">
<path style="fill:#2F4859;" d="M172.039,108.098V58.794c0-3.575,2.911-6.483,6.482-6.483h111.25c3.572,0,6.482,2.908,6.482,6.483
	v49.304h30.793V58.794c0-20.553-16.72-37.276-37.275-37.276h-111.25c-20.556,0-37.275,16.722-37.275,37.276v49.304H172.039z"/>
<path style="fill:#D5D6DB;" d="M468.293,135.813v277.712c0,18.354-14.836,33.249-33.191,33.249H33.248
	C14.894,446.775,0,431.88,0,413.525V135.813c0-18.354,14.894-33.19,33.248-33.19h401.853
	C453.457,102.623,468.293,117.459,468.293,135.813z"/>
<g>
	<path style="fill:#64798A;" d="M468.293,135.813v277.712c0,18.354-14.836,33.249-33.191,33.249h-28.85V102.623h28.85
		C453.457,102.623,468.293,117.459,468.293,135.813z"/>
	<path style="fill:#64798A;" d="M62.099,102.623v344.152h-28.85C14.894,446.775,0,431.88,0,413.525V135.813
		c0-18.354,14.894-33.19,33.248-33.19H62.099z"/>
</g>
<g>
</g>
<g>
</g>
<g>
</g>
<g>
</g>
<g>
</g>
<g>
</g>
<g>
</g>
<g>
</g>
<g>
</g>
<g>
</g>
<g>
</g>
<g>
</g>
<g>
</g>
<g>
</g>
<g>
</g>
</svg>
