<?xml version="1.0" encoding="iso-8859-1"?>
<!-- Generator: Adobe Illustrator 19.0.0, SVG Export Plug-In . SVG Version: 6.00 Build 0)  -->
<svg version="1.1" id="Capa_1" xmlns="http://www.w3.org/2000/svg" xmlns:xlink="http://www.w3.org/1999/xlink" x="0px" y="0px"
	 viewBox="0 0 468.293 468.293" style="enable-background:new 0 0 468.293 468.293;" xml:space="preserve">
<path style="fill:#44C4A1;" d="M234.196,0c-62.043,0-112.391,51.34-112.391,113.381c0,8.921,3.568,16.851,9.416,22.696
	c5.749,5.749,13.776,9.316,22.597,9.316c18.433,0,35.484-14.983,36.436-33.391c0.943-18.235,10.53-35.143,27.471-42.122
	c34.494-14.206,67.512,10.809,67.512,43.501c0,26.265-20.491,48.621-46.755,48.621c-21.655,1.096-53.447,7.953-87.134,26.067
	l-22.144,12.735c-4.577,2.63-7.399,7.508-7.399,12.788v224.475c0,16.623,13.602,30.226,30.226,30.226h164.326
	c16.64,0,30.13-13.49,30.13-30.13V112.292C346.487,50.249,296.139,0,234.196,0z"/>
<path style="fill:#CE412D;" d="M292.937,254.615c-31.057-31.057-81.568-31.057-112.625,0c-31.047,31.047-31.047,81.568,0,112.614
	c15.529,15.529,35.921,23.293,56.312,23.293c20.392,0,40.784-7.764,56.312-23.293C323.983,336.183,323.983,285.662,292.937,254.615z
	 M195.755,270.059c11.273-11.262,26.066-16.904,40.869-16.904c11.311,0,22.585,3.349,32.318,9.927l-80.162,80.163
	C173.589,320.774,175.876,289.939,195.755,270.059z M277.493,351.786c-19.913,19.896-50.792,22.152-73.274,6.906l80.177-80.179
	C299.656,300.993,297.399,331.88,277.493,351.786z"/>
<g>
</g>
<g>
</g>
<g>
</g>
<g>
</g>
<g>
</g>
<g>
</g>
<g>
</g>
<g>
</g>
<g>
</g>
<g>
</g>
<g>
</g>
<g>
</g>
<g>
</g>
<g>
</g>
<g>
</g>
</svg>
