<?xml version="1.0" encoding="iso-8859-1"?>
<!-- Generator: Adobe Illustrator 19.0.0, SVG Export Plug-In . SVG Version: 6.00 Build 0)  -->
<svg version="1.1" id="Capa_1" xmlns="http://www.w3.org/2000/svg" xmlns:xlink="http://www.w3.org/1999/xlink" x="0px" y="0px"
	 viewBox="0 0 468.293 468.293" style="enable-background:new 0 0 468.293 468.293;" xml:space="preserve">
<path style="fill:#FFFFFF;" d="M234.188,0C104.83,0,0,104.83,0,234.188c0,129.274,104.83,234.104,234.188,234.104
	c129.274,0,234.104-104.83,234.104-234.104C468.293,104.83,363.462,0,234.188,0z M234.186,372.394
	c-76.384,0-138.288-61.903-138.288-138.208c0-76.384,61.903-138.288,138.288-138.288c76.305,0,138.208,61.903,138.208,138.288
	C372.394,310.491,310.491,372.394,234.186,372.394z"/>
<g>
	<path style="fill:#E56353;" d="M468.293,234.188c0,20.412-2.604,40.151-7.56,59.05c-34.355-0.251-68.711,0.841-103.15,3.109
		c9.491-18.647,14.784-39.815,14.784-62.159s-5.293-43.512-14.868-62.243c34.438,2.268,68.879,3.36,103.234,3.192
		C465.688,194.037,468.293,213.776,468.293,234.188z"/>
	<path style="fill:#E56353;" d="M234.188,0c20.412,0,40.151,2.604,59.05,7.56c-0.251,34.355,0.841,68.711,3.109,103.15
		c-18.647-9.491-39.815-14.784-62.159-14.784s-43.512,5.293-62.243,14.868c2.268-34.438,3.36-68.879,3.192-103.234
		C194.037,2.604,213.776,0,234.188,0z"/>
	<path style="fill:#E56353;" d="M0,234.104c0-20.412,2.604-40.151,7.56-59.05c34.355,0.251,68.711-0.841,103.15-3.109
		c-9.491,18.647-14.784,39.815-14.784,62.159s5.293,43.512,14.868,62.243c-34.438-2.268-68.879-3.36-103.234-3.192
		C2.604,274.256,0,254.516,0,234.104z"/>
	<path style="fill:#E56353;" d="M234.104,468.293c-20.412,0-40.151-2.604-59.05-7.56c0.251-34.355-0.841-68.711-3.109-103.15
		c18.647,9.491,39.815,14.784,62.159,14.784s43.512-5.293,62.243-14.868c-2.268,34.438-3.36,68.879-3.192,103.234
		C274.256,465.688,254.516,468.293,234.104,468.293z"/>
</g>
<g>
</g>
<g>
</g>
<g>
</g>
<g>
</g>
<g>
</g>
<g>
</g>
<g>
</g>
<g>
</g>
<g>
</g>
<g>
</g>
<g>
</g>
<g>
</g>
<g>
</g>
<g>
</g>
<g>
</g>
</svg>
