<?xml version="1.0" encoding="iso-8859-1"?>
<!-- Generator: Adobe Illustrator 19.0.0, SVG Export Plug-In . SVG Version: 6.00 Build 0)  -->
<svg version="1.1" id="Capa_1" xmlns="http://www.w3.org/2000/svg" xmlns:xlink="http://www.w3.org/1999/xlink" x="0px" y="0px"
	 viewBox="0 0 468.293 468.293" style="enable-background:new 0 0 468.293 468.293;" xml:space="preserve">
<polygon style="fill:#3A556A;" points="136.327,335.276 168.676,423.22 299.616,423.22 331.966,335.276 "/>
<path style="fill:#2F4859;" d="M455.229,18.309H13.063C5.848,18.309,0,24.157,0,31.371v271.767v51.211
	c0,7.215,5.848,13.063,13.063,13.063h442.166c7.215,0,13.063-5.849,13.063-13.063v-51.211V31.371
	C468.293,24.157,462.444,18.309,455.229,18.309z"/>
<circle style="fill:#EBF0F3;" cx="234.146" cy="335.298" r="17.758"/>
<path style="fill:#2F4859;" d="M315.498,420.259H152.795c-16.416,0-29.725,13.308-29.725,29.725v0.001h222.153v-0.001
	C345.223,433.567,331.914,420.259,315.498,420.259z"/>
<rect x="25.544" y="43.283" style="fill:#64798A;" width="417.205" height="259.284"/>
<g>
</g>
<g>
</g>
<g>
</g>
<g>
</g>
<g>
</g>
<g>
</g>
<g>
</g>
<g>
</g>
<g>
</g>
<g>
</g>
<g>
</g>
<g>
</g>
<g>
</g>
<g>
</g>
<g>
</g>
</svg>
