<?xml version="1.0" encoding="iso-8859-1"?>
<!-- Generator: Adobe Illustrator 19.0.0, SVG Export Plug-In . SVG Version: 6.00 Build 0)  -->
<svg version="1.1" id="Capa_1" xmlns="http://www.w3.org/2000/svg" xmlns:xlink="http://www.w3.org/1999/xlink" x="0px" y="0px"
	 viewBox="0 0 468.293 468.293" style="enable-background:new 0 0 468.293 468.293;" xml:space="preserve">
<path style="fill:#EBF0F3;" d="M33.519,96.073v280.611h401.244V96.073c0-8.358-6.775-15.133-15.133-15.133H48.652
	C40.294,80.94,33.519,87.715,33.519,96.073z"/>
<rect x="58.811" y="108.051" style="fill:#2E9AE1;" width="350.658" height="241.52"/>
<path style="fill:#EBF0F3;" d="M448.149,440.676H20.098c-15.306,0-24.334-15.981-18.108-28.745c0.415-0.778,0.83-1.505,1.297-2.231
	c0.415-0.675,0.882-1.297,1.401-1.92l28.848-34.711h401.227l28.848,34.711c0.519,0.623,0.986,1.245,1.401,1.92
	c0.467,0.726,0.882,1.453,1.297,2.231C472.535,424.643,463.455,440.676,448.149,440.676z"/>
<path style="fill:#D5D6DB;" d="M465.012,409.701c-3.477,5.344-9.443,9.132-16.863,9.132H20.098c-7.42,0-13.386-3.788-16.811-9.132
	c0.415-0.675,0.882-1.297,1.401-1.92l28.848-34.711h401.227l28.848,34.711C464.129,408.404,464.597,409.026,465.012,409.701z"/>
<polygon style="fill:#EBF0F3;" points="265.485,392.574 202.808,392.574 190.368,408.14 277.924,408.14 "/>
<g>
	<path style="fill:#2F4859;" d="M147.765,63.343c-2.838,2.838-2.838,7.436,0,10.274c2.838,2.838,7.436,2.838,10.274,0
		c20.293-20.293,47.327-31.469,76.106-31.469s55.806,11.175,76.099,31.469c2.838,2.838,7.436,2.838,10.274,0
		c1.419-1.419,2.129-3.278,2.129-5.137c0-1.859-0.71-3.718-2.129-5.137c-23.039-23.039-53.713-35.726-86.374-35.726
		S170.804,40.304,147.765,63.343z"/>
	<path style="fill:#2F4859;" d="M168.317,83.891c-2.838,2.838-2.838,7.436,0,10.274c2.838,2.838,7.436,2.838,10.274,0
		c14.815-14.815,34.541-22.975,55.551-22.975s40.735,8.16,55.551,22.975c2.838,2.838,7.436,2.838,10.274,0
		c1.419-1.419,2.129-3.278,2.129-5.137c0-1.859-0.71-3.718-2.129-5.137c-17.554-17.561-40.934-27.233-65.825-27.233
		S185.871,66.33,168.317,83.891z"/>
	<path style="fill:#2F4859;" d="M188.865,104.44c-2.838,2.838-2.838,7.436,0,10.274c2.838,2.838,7.436,2.838,10.274,0
		c19.3-19.3,50.704-19.3,70.004,0c2.838,2.838,7.436,2.838,10.274,0c1.419-1.419,2.129-3.278,2.129-5.137
		c0-1.859-0.71-3.718-2.129-5.137C254.456,79.471,213.827,79.471,188.865,104.44z"/>
	<circle style="fill:#2F4859;" cx="234.14" cy="149.716" r="27.698"/>
</g>
<g>
</g>
<g>
</g>
<g>
</g>
<g>
</g>
<g>
</g>
<g>
</g>
<g>
</g>
<g>
</g>
<g>
</g>
<g>
</g>
<g>
</g>
<g>
</g>
<g>
</g>
<g>
</g>
<g>
</g>
</svg>
