<?xml version="1.0" encoding="iso-8859-1"?>
<!-- Generator: Adobe Illustrator 19.0.0, SVG Export Plug-In . SVG Version: 6.00 Build 0)  -->
<svg version="1.1" id="Capa_1" xmlns="http://www.w3.org/2000/svg" xmlns:xlink="http://www.w3.org/1999/xlink" x="0px" y="0px"
	 viewBox="0 0 468.293 468.293" style="enable-background:new 0 0 468.293 468.293;" xml:space="preserve">
<path style="fill:#DC8744;" d="M195.99,291.644c-2.009,0-4.05-0.477-5.944-1.49L6.697,192.297
	c-6.166-3.285-8.496-10.949-5.203-17.107c3.285-6.158,10.957-8.496,17.107-5.203l183.349,97.857
	c6.166,3.285,8.496,10.949,5.203,17.107C204.881,289.216,200.509,291.644,195.99,291.644z"/>
<path style="fill:#E1E6E9;" d="M408.522,337.341H232.389c-33.01,0-59.771-26.76-59.771-59.771v-35.677h295.674v35.677
	C468.293,310.581,441.532,337.341,408.522,337.341z"/>
<g>
	<rect x="183.159" y="337.311" style="fill:#64798A;" width="285.134" height="30.383"/>
	<path style="fill:#64798A;" d="M357.227,212.302c-2.371,0-4.734-0.996-6.405-2.947c-3.029-3.532-2.618-8.85,0.922-11.887
		c6.298-5.4,9.656-10.373,9.961-14.785c0.387-5.59-4.396-10.998-8.232-15.345l-1.984-2.28c-17.971-21.28,0.799-49.089,14.719-62.162
		c3.375-3.202,8.701-3.029,11.904,0.362c3.186,3.383,3.029,8.718-0.354,11.912c-0.255,0.247-25.421,24.763-13.394,39.004l1.745,2
		c4.972,5.623,13.287,15.049,12.414,27.677c-0.634,9.08-5.952,17.971-15.814,26.426C361.121,211.635,359.17,212.302,357.227,212.302
		z"/>
	<path style="fill:#64798A;" d="M316.848,237.591c-2.371,0-4.734-0.996-6.405-2.947c-3.029-3.532-2.618-8.85,0.922-11.887
		c6.298-5.4,9.656-10.373,9.961-14.785c0.387-5.59-4.388-10.998-8.224-15.345l-1.984-2.28c-17.971-21.28,0.79-49.089,14.711-62.162
		c3.375-3.194,8.71-3.029,11.896,0.362c3.194,3.383,3.038,8.718-0.346,11.912c-0.255,0.247-25.413,24.763-13.386,39.004l1.745,2.009
		c4.972,5.623,13.287,15.049,12.406,27.669c-0.634,9.08-5.952,17.971-15.814,26.426
		C320.742,236.924,318.791,237.591,316.848,237.591z"/>
	<path style="fill:#64798A;" d="M280.115,220.731c-2.371,0-4.734-0.996-6.405-2.947c-3.03-3.532-2.618-8.85,0.922-11.887
		c6.298-5.4,9.656-10.373,9.961-14.785c0.387-5.59-4.396-10.998-8.232-15.345l-1.984-2.28c-17.971-21.28,0.799-49.089,14.719-62.162
		c3.375-3.202,8.701-3.029,11.904,0.362c3.186,3.383,3.029,8.718-0.354,11.912c-0.255,0.247-25.421,24.763-13.394,39.004l1.745,2
		c4.972,5.623,13.287,15.049,12.414,27.677c-0.634,9.08-5.952,17.971-15.814,26.426
		C284.009,220.065,282.058,220.731,280.115,220.731z"/>
</g>
<g>
</g>
<g>
</g>
<g>
</g>
<g>
</g>
<g>
</g>
<g>
</g>
<g>
</g>
<g>
</g>
<g>
</g>
<g>
</g>
<g>
</g>
<g>
</g>
<g>
</g>
<g>
</g>
<g>
</g>
</svg>
