<?xml version="1.0" encoding="iso-8859-1"?>
<!-- Generator: Adobe Illustrator 19.0.0, SVG Export Plug-In . SVG Version: 6.00 Build 0)  -->
<svg version="1.1" id="Capa_1" xmlns="http://www.w3.org/2000/svg" xmlns:xlink="http://www.w3.org/1999/xlink" x="0px" y="0px"
	 viewBox="0 0 468.293 468.293" style="enable-background:new 0 0 468.293 468.293;" xml:space="preserve">
<polygon style="fill:#E56353;" points="362.717,99.578 321.887,34.231 247.066,38.97 "/>
<rect x="263.922" y="89.216" transform="matrix(-0.4639 0.8859 -0.8859 -0.4639 510.6654 -120.8608)" style="fill:#64798A;" width="55.958" height="9.728"/>
<path style="fill:#D5D6DB;" d="M323.019,271.596c-3.816-43.831-24.33-138.68,0-175.986H171.434
	c38.188,38.928,5.959,132.395,0,175.986c-5.574,40.774,29.863,74.833,69.194,78.32v90.797h-10.363
	c-20.09,0-36.377,7.489-36.377,27.579h106.676c0-20.091-16.286-27.579-36.377-27.579h-10.363v-90.796
	C292.952,346.442,326.587,312.588,323.019,271.596z"/>
<path style="fill:#FCD462;" d="M299.958,152.38h-105.24c26.513,27.026,4.137,91.918,0,122.181
	c-4.086,29.885,23.559,54.616,52.62,54.616c29.061,0,55.236-24.566,52.62-54.616C297.309,244.131,283.066,178.28,299.958,152.38z"/>
<polygon style="fill:#64798A;" points="287.555,294.12 205.256,28.478 105.575,9.561 107.39,0 212.821,20.01 296.85,291.241 "/>
<g>
</g>
<g>
</g>
<g>
</g>
<g>
</g>
<g>
</g>
<g>
</g>
<g>
</g>
<g>
</g>
<g>
</g>
<g>
</g>
<g>
</g>
<g>
</g>
<g>
</g>
<g>
</g>
<g>
</g>
</svg>
