<?xml version="1.0" encoding="iso-8859-1"?>
<!-- Generator: Adobe Illustrator 19.0.0, SVG Export Plug-In . SVG Version: 6.00 Build 0)  -->
<svg version="1.1" id="Capa_1" xmlns="http://www.w3.org/2000/svg" xmlns:xlink="http://www.w3.org/1999/xlink" x="0px" y="0px"
	 viewBox="0 0 468.293 468.293" style="enable-background:new 0 0 468.293 468.293;" xml:space="preserve">
<rect y="392.414" style="fill:#64798A;" width="468.293" height="17.951"/>
<g>
	<path style="fill:#F6C358;" d="M383.795,205.439c-7.756,0-14.049-6.288-14.049-14.049v-54.279
		c0-28.171-22.912-51.087-51.082-51.087h-54.284c-7.756,0-14.049-6.288-14.049-14.049s6.293-14.049,14.049-14.049h54.284
		c43.655,0,79.18,35.52,79.18,79.184v54.279C397.844,199.151,391.551,205.439,383.795,205.439z"/>
	<path style="fill:#F6C358;" d="M385.339,173.347C281.858,149.623,185.944,131.854,0,351.815c0,0,335.804,6.376,468.293,0
		C468.293,351.815,461.88,190.893,385.339,173.347z M292.154,277.664c-45.439,0-82.276-16.243-82.276-36.279
		s36.837-36.279,82.276-36.279c45.441,0,82.277,16.243,82.277,36.279S337.595,277.664,292.154,277.664z"/>
</g>
<path style="fill:#FCD462;" d="M385.339,314.839C281.858,309.937,185.944,306.264,0,351.722c0,0,336.317,6.359,468.293,0
	C468.293,351.722,461.88,318.466,385.339,314.839z"/>
<ellipse style="fill:#EBF0F3;" cx="292.152" cy="240.032" rx="25.163" ry="5.657"/>
<g>
</g>
<g>
</g>
<g>
</g>
<g>
</g>
<g>
</g>
<g>
</g>
<g>
</g>
<g>
</g>
<g>
</g>
<g>
</g>
<g>
</g>
<g>
</g>
<g>
</g>
<g>
</g>
<g>
</g>
</svg>
