<?xml version="1.0" encoding="iso-8859-1"?>
<!-- Generator: Adobe Illustrator 19.0.0, SVG Export Plug-In . SVG Version: 6.00 Build 0)  -->
<svg version="1.1" id="Capa_1" xmlns="http://www.w3.org/2000/svg" xmlns:xlink="http://www.w3.org/1999/xlink" x="0px" y="0px"
	 viewBox="0 0 468.293 468.293" style="enable-background:new 0 0 468.293 468.293;" xml:space="preserve">
<g>
	<polygon style="fill:#F7BE56;" points="354.581,429.18 371.305,468.293 393.694,468.293 393.694,429.18 	"/>
	<polygon style="fill:#F7BE56;" points="113.698,429.18 96.974,468.293 74.585,468.293 74.585,429.18 	"/>
</g>
<path style="fill:#FCD462;" d="M429.399,11.827v409.063c0,6.56-5.265,11.827-11.739,11.827H50.633
	c-6.474,0-11.739-5.266-11.739-11.827V11.827C38.894,5.266,44.159,0,50.633,0H417.66C424.134,0,429.399,5.266,429.399,11.827z"/>
<rect x="252.641" y="321.461" style="fill:#F7BE56;" width="158.264" height="84.88"/>
<path style="fill:#64798A;" d="M311.987,352.861L311.987,352.861c0,4.211,3.413,7.624,7.624,7.624h22.516
	c4.211,0,7.624-3.413,7.624-7.624v0c0-4.211-3.413-7.624-7.624-7.624h-22.516C315.4,345.237,311.987,348.65,311.987,352.861z"/>
<rect x="57.381" y="321.461" style="fill:#F7BE56;" width="158.264" height="84.88"/>
<path style="fill:#64798A;" d="M146.472,345.237h-22.876c-4.211,0-7.624,3.413-7.624,7.624v0c0,4.211,3.413,7.624,7.624,7.624
	h22.876c4.211,0,7.624-3.413,7.624-7.624v0C154.096,348.65,150.683,345.237,146.472,345.237z"/>
<g>
	<rect x="254.064" y="26.38" style="fill:#F7BE56;" width="155.404" height="259.671"/>
	<rect x="58.811" y="26.38" style="fill:#F7BE56;" width="155.404" height="259.671"/>
</g>
<g>
	<path style="fill:#64798A;" d="M181.621,141.767c-7.98,0-14.449,6.469-14.449,14.448s6.469,14.449,14.449,14.449
		c7.98,0,14.448-6.47,14.448-14.449S189.6,141.767,181.621,141.767z"/>
	<path style="fill:#64798A;" d="M282.506,141.767c-7.98,0-14.449,6.469-14.449,14.448s6.469,14.449,14.449,14.449
		c7.98,0,14.448-6.47,14.448-14.449S290.485,141.767,282.506,141.767z"/>
</g>
<g>
</g>
<g>
</g>
<g>
</g>
<g>
</g>
<g>
</g>
<g>
</g>
<g>
</g>
<g>
</g>
<g>
</g>
<g>
</g>
<g>
</g>
<g>
</g>
<g>
</g>
<g>
</g>
<g>
</g>
</svg>
