<?xml version="1.0" encoding="iso-8859-1"?>
<!-- Generator: Adobe Illustrator 19.0.0, SVG Export Plug-In . SVG Version: 6.00 Build 0)  -->
<svg version="1.1" id="Capa_1" xmlns="http://www.w3.org/2000/svg" xmlns:xlink="http://www.w3.org/1999/xlink" x="0px" y="0px"
	 viewBox="0 0 468.293 468.293" style="enable-background:new 0 0 468.293 468.293;" xml:space="preserve">
<path style="fill:#E1E6E9;" d="M203.186,337.562v99.77c0,17.1,13.862,30.961,30.96,30.961h0.001c17.099,0,30.96-13.861,30.96-30.961
	v-99.77H203.186z"/>
<path style="fill:#DC8744;" d="M277.326,73.798C255.085,53.381,239.434,27.779,229.118,0
	c-60.813,2.634-109.312,52.75-109.312,114.213V332.23c0,8.834,7.162,15.996,15.996,15.996h196.689
	c8.834,0,15.996-7.162,15.996-15.996V120.545C322.574,109.449,298.722,93.44,277.326,73.798z"/>
<path style="fill:#F7BE56;" d="M277.326,73.798C255.085,53.381,239.434,27.779,229.118,0
	c-60.813,2.634-109.312,52.75-109.312,114.213v59.836h228.681v-53.504C322.574,109.449,298.722,93.44,277.326,73.798z"/>
<g>
</g>
<g>
</g>
<g>
</g>
<g>
</g>
<g>
</g>
<g>
</g>
<g>
</g>
<g>
</g>
<g>
</g>
<g>
</g>
<g>
</g>
<g>
</g>
<g>
</g>
<g>
</g>
<g>
</g>
</svg>
