<?xml version="1.0" encoding="iso-8859-1"?>
<!-- Generator: Adobe Illustrator 19.0.0, SVG Export Plug-In . SVG Version: 6.00 Build 0)  -->
<svg version="1.1" id="Capa_1" xmlns="http://www.w3.org/2000/svg" xmlns:xlink="http://www.w3.org/1999/xlink" x="0px" y="0px"
	 viewBox="0 0 468.293 468.293" style="enable-background:new 0 0 468.293 468.293;" xml:space="preserve">
<polygon style="fill:#D5D6DB;" points="403.29,100.201 403.29,468.293 65.002,468.293 65.002,100.201 234.146,15.632 "/>
<g>
	<rect x="267.177" y="154.037" style="fill:#2E9AE1;" width="86.553" height="71.48"/>
	<rect x="114.576" y="154.037" style="fill:#2E9AE1;" width="86.553" height="71.48"/>
	<rect x="267.177" y="273.733" style="fill:#2E9AE1;" width="86.553" height="71.48"/>
	<rect x="114.576" y="273.733" style="fill:#2E9AE1;" width="86.553" height="71.48"/>
</g>
<path style="fill:#64798A;" d="M234.146,365.575c-23.348,0-42.276,18.481-42.276,41.278v61.439h84.552v-61.439
	C276.422,384.056,257.495,365.575,234.146,365.575z"/>
<path style="fill:#E56353;" d="M459.589,110.837L241.444,1.717c-4.581-2.29-10.014-2.29-14.595,0L8.703,110.837
	c-7.864,3.939-10.972,13.357-6.934,21.044c4.034,7.679,13.684,10.717,21.552,6.77L234.146,33.195l210.825,105.455
	c2.341,1.175,4.835,1.725,7.297,1.725c5.812,0,11.421-3.099,14.255-8.495C470.561,124.194,467.454,114.775,459.589,110.837z"/>
<g>
</g>
<g>
</g>
<g>
</g>
<g>
</g>
<g>
</g>
<g>
</g>
<g>
</g>
<g>
</g>
<g>
</g>
<g>
</g>
<g>
</g>
<g>
</g>
<g>
</g>
<g>
</g>
<g>
</g>
</svg>
