<?xml version="1.0" encoding="iso-8859-1"?>
<!-- Generator: Adobe Illustrator 19.0.0, SVG Export Plug-In . SVG Version: 6.00 Build 0)  -->
<svg version="1.1" id="Capa_1" xmlns="http://www.w3.org/2000/svg" xmlns:xlink="http://www.w3.org/1999/xlink" x="0px" y="0px"
	 viewBox="0 0 468.293 468.293" style="enable-background:new 0 0 468.293 468.293;" xml:space="preserve">
<ellipse style="fill:#D15241;" cx="315.18" cy="342.478" rx="110.161" ry="106.271"/>
<g>
	<path style="fill:#CE412D;" d="M287.81,259.358c0,0,28.31,32.003,67.698,7.385C355.508,266.743,333.352,233.51,287.81,259.358z"/>
	<ellipse style="fill:#CE412D;" cx="163.784" cy="376.788" rx="94.851" ry="91.504"/>
</g>
<path style="fill:#D15241;" d="M141.294,304.612c0,0,20.065,27.555,47.98,6.359C189.274,310.971,173.571,282.356,141.294,304.612z"
	/>
<path style="fill:#44C4A1;" d="M189.266,43.409c0,0-145.053-40.6-146.314,113.401C42.952,156.81,190.527,187.2,189.266,43.409z"/>
<g>
	<path style="fill:#3EA69B;" d="M51.785,152.514c-1.142,0-2.269-0.517-3.015-1.493c-1.264-1.663-0.942-4.035,0.721-5.299
		l124.24-94.6c1.667-1.271,4.035-0.939,5.303,0.717c1.264,1.663,0.942,4.035-0.721,5.299l-124.24,94.6
		C53.388,152.262,52.583,152.514,51.785,152.514z"/>
	<path style="fill:#3EA69B;" d="M147.645,109.626c-0.303,0-0.61-0.037-0.916-0.111c-2.029-0.503-3.263-2.557-2.76-4.582l8.052-32.43
		h-38.117c-2.092,0-3.784-1.692-3.784-3.784c0-2.092,1.692-3.784,3.784-3.784h47.791l-10.38,41.816
		C150.885,108.473,149.341,109.626,147.645,109.626z"/>
	<path style="fill:#3EA69B;" d="M108.541,140.533c-0.455,0-0.916-0.081-1.364-0.251c-1.951-0.754-2.919-2.949-2.165-4.9
		l15.343-39.688l-41.871-4.649c-2.077-0.229-3.573-2.106-3.344-4.183c0.233-2.062,2.099-3.54,4.179-3.341l51.642,5.743
		l-18.89,48.852C111.49,139.617,110.06,140.533,108.541,140.533z"/>
	<path style="fill:#3EA69B;" d="M84.581,152.514c-0.211,0-0.429-0.015-0.647-0.052c-2.058-0.355-3.44-2.313-3.086-4.375
		l4.146-24.086l-27.981,1.389c-2.151,0.251-3.869-1.5-3.969-3.592c-0.103-2.084,1.504-3.858,3.592-3.961l37.419-1.862l-5.75,33.398
		C87.988,151.213,86.391,152.514,84.581,152.514z"/>
</g>
<g>
	<path style="fill:#DC8744;" d="M321.659,276.051C320.293,275.031,179.508,180.457,202.962,0l19.53,2.539
		c-21.978,169.12,106.091,272.378,107.365,273.32L321.659,276.051z"/>
	<path style="fill:#DC8744;" d="M157.49,316.664C115.044,205.78,200.317,8.674,202.962,0l19.53,2.539
		c-0.625,2.058-96.658,211.88-56.63,316.446L157.49,316.664z"/>
</g>
<g>
	<path style="fill:#EBF0F3;" d="M381.351,407.014c-0.894,0-1.789-0.317-2.5-0.971c-1.5-1.385-1.601-3.721-0.221-5.222
		c38.498-41.898,18.237-87.228,2.731-110.519c-1.13-1.702-0.673-3.991,1.024-5.125c1.702-1.125,3.996-0.673,5.121,1.029
		c13.448,20.204,40.037,72.294-3.433,119.616C383.342,406.611,382.347,407.014,381.351,407.014z"/>
	<path style="fill:#EBF0F3;" d="M94.054,421.419c-1.399,0-2.741-0.798-3.361-2.164c-25.036-54.937,7.404-90.671,7.731-91.027
		c1.39-1.491,3.721-1.567,5.212-0.183c1.491,1.385,1.577,3.721,0.197,5.212c-1.212,1.308-29.344,32.637-6.419,82.94
		c0.846,1.856,0.024,4.039-1.832,4.885C95.087,421.314,94.568,421.419,94.054,421.419z"/>
</g>
<g>
</g>
<g>
</g>
<g>
</g>
<g>
</g>
<g>
</g>
<g>
</g>
<g>
</g>
<g>
</g>
<g>
</g>
<g>
</g>
<g>
</g>
<g>
</g>
<g>
</g>
<g>
</g>
<g>
</g>
</svg>
