<?xml version="1.0" encoding="iso-8859-1"?>
<!-- Generator: Adobe Illustrator 19.0.0, SVG Export Plug-In . SVG Version: 6.00 Build 0)  -->
<svg version="1.1" id="Capa_1" xmlns="http://www.w3.org/2000/svg" xmlns:xlink="http://www.w3.org/1999/xlink" x="0px" y="0px"
	 viewBox="0 0 468.293 468.293" style="enable-background:new 0 0 468.293 468.293;" xml:space="preserve">
<path style="fill:#D5D6DB;" d="M436.2,217.031L246.856,103.176c1.661-8.595,6.575-16.412,14.139-22.045
	c14.253-10.603,20.835-28.106,17.174-45.679c-3.556-17.059-17.409-30.912-34.471-34.468c-13.536-2.818-27.365,0.488-37.933,9.084
	c-10.573,8.593-16.633,21.329-16.633,34.938c0,6.647,5.39,12.037,12.037,12.037s12.037-5.39,12.037-12.037
	c0-6.333,2.821-12.257,7.746-16.26c4.99-4.061,11.332-5.545,17.832-4.194c7.829,1.631,14.188,7.984,15.816,15.81
	c1.728,8.29-1.328,16.513-7.976,21.456c-13.603,10.126-22.133,24.683-24.081,40.694L32.092,217.031
	c-9.028,5.425-13.201,15.893-10.385,26.04c2.815,10.15,11.784,16.968,22.317,16.968h380.246c10.532,0,19.501-6.818,22.317-16.968
	C449.401,232.924,445.228,222.456,436.2,217.031z M47.321,235.965l186.826-112.344l186.826,112.344H47.321z"/>
<path style="fill:#FFFFFF;" d="M364.055,222.034H104.238c-8.04,0-14.558,6.518-14.558,14.558v217.144
	c0,8.04,6.518,14.558,14.558,14.558h259.817c8.04,0,14.558-6.518,14.558-14.558V236.591
	C378.612,228.551,372.094,222.034,364.055,222.034z"/>
<rect x="89.681" y="392.929" style="fill:#E56353;" width="288.905" height="22.228"/>
<path style="fill:#FCD462;" d="M89.681,439.177v14.558c0,8.04,6.518,14.558,14.558,14.558h259.817
	c8.04,0,14.558-6.518,14.558-14.558v-14.558H89.681z"/>
<g>
</g>
<g>
</g>
<g>
</g>
<g>
</g>
<g>
</g>
<g>
</g>
<g>
</g>
<g>
</g>
<g>
</g>
<g>
</g>
<g>
</g>
<g>
</g>
<g>
</g>
<g>
</g>
<g>
</g>
</svg>
