<?xml version="1.0" encoding="iso-8859-1"?>
<!-- Generator: Adobe Illustrator 19.0.0, SVG Export Plug-In . SVG Version: 6.00 Build 0)  -->
<svg version="1.1" id="Capa_1" xmlns="http://www.w3.org/2000/svg" xmlns:xlink="http://www.w3.org/1999/xlink" x="0px" y="0px"
	 viewBox="0 0 468.299 468.299" style="enable-background:new 0 0 468.299 468.299;" xml:space="preserve">
<path style="fill:#64798A;" d="M232.156,399.206c-46.911,0-84.939,15.465-84.939,34.543c0,19.082,38.029,34.549,84.939,34.549
	c46.911,0,84.94-15.468,84.94-34.549C317.096,414.671,279.068,399.206,232.156,399.206z"/>
<path style="fill:#D5D6DB;" d="M114.406,15.629l-3.951,3.904c-78.06,77.136-84.96,202.619-10.776,283.403
	c31.907,34.745,72.981,55.741,116.018,63.287v53.97c0,8.983,7.37,16.265,16.46,16.265h0c9.091,0,16.46-7.282,16.46-16.265v-50.854
	c1.062,0.016,2.12,0.148,3.183,0.148c52.564,0,105.138-19.781,145.153-59.322l7.759-7.667L114.406,15.629z M122.165,294.832
	c-68.874-68.059-71.382-177.247-7.534-248.302l258.811,255.747C301.535,365.358,191.039,362.89,122.165,294.832z"/>
<ellipse style="fill:#2E9AE1;" cx="251.795" cy="166.718" rx="168.71" ry="166.718"/>
<g>
	<path style="fill:#44C4A1;" d="M215.236,166.843c-3.16,9.066-2.155,19.047,0.069,28.381c1.815,7.617,4.537,15.263,9.773,21.134
		c4.246,4.761,9.975,8.112,16.092,10.047c11.398,3.605,24.304,2.259,34.689-3.619c14.558-8.239,23.359-27.319,16.195-42.309
		c-1.688-3.531-4.344-6.84-8.051-8.192c-3.707-1.352-8.525-0.134-10.259,3.375c-1.205,2.438-0.937,5.711-3.08,7.407
		c-2.819,2.231-7.283-0.716-7.885-4.234s1.184-6.946,2.675-10.196c7.781-16.957,8.498-36.956,1.952-54.414
		c0.745,2.944-6.052,15.858-8.482,18.209c-3.86,3.735-11.436,5.208-16.22,7.675C231.127,146.075,219.668,154.124,215.236,166.843z"
		/>
	<path style="fill:#44C4A1;" d="M420.516,166.563c-1.207,1.628-2.414,3.145-3.621,4.773c-2.634,3.577-5.706,7.481-10.095,8.458
		c-5.267,1.3-10.864-1.954-13.827-6.507c-2.963-4.445-3.95-9.975-4.828-15.289c-0.878,2.385-1.755,4.771-2.743,7.156
		c-8.559,2.711-17.887,3.037-26.666,0.977c-8.23-3.254-18.107-1.845-25.019,3.577c-5.268,4.231-8.67,10.521-9.438,17.025
		c-0.768-38.387-1.427-76.665-2.304-115.158c0-3.471-0.11-6.941,0.658-10.304c1.097-5.205,3.95-9.867,6.694-14.312
		c4.28-7.05,8.669-13.989,12.949-20.93C389.241,55.527,420.406,107.357,420.516,166.563z"/>
	<path style="fill:#44C4A1;" d="M203.239,93.911c-10.095,23.967-20.082,47.931-30.177,71.786c-1.975,4.771-3.95,9.541-7.791,13.12
		c-3.731,3.471-9.547,5.205-14.046,2.819c-4.609-2.385-5.706-9.869-1.317-12.58c-23.484-0.757-46.638-9.107-65.512-22.879v-0.109
		c6.584-53.35,38.627-98.787,83.838-124.268c2.524,8.35,6.145,16.374,13.827,22.881c8.559,7.264,21.727,8.35,25.788,20.059
		C211.14,74.175,206.861,85.236,203.239,93.911z"/>
	<path style="fill:#44C4A1;" d="M319.888,24.404c0,5.856-0.11,11.818-2.524,17.24c-2.414,5.316-7.681,9.869-13.607,9.435
		c-1.097,6.724-2.304,13.446-3.402,20.062c-6.474,2.06-14.046-3.905-13.497-10.627c-3.402,2.817-6.804,5.528-10.205,8.239
		c1.317-5.311-3.95-11.167-9.437-10.409c2.194,2.605,2.084,6.833-0.22,9.327c-2.195,2.602-6.475,3.254-9.328,1.411
		c-2.743-1.628-4.06-4.665-5.047-7.593c-1.536-4.553-2.524-9.216-3.183-13.878c-12.4,8.456-30.836,8.998-41.59-1.52
		c-9.437-9.324-10.535-22.99-12.949-36.327c17.777-6.288,36.871-9.758,56.843-9.758c24.252,0,47.296,4.988,68.036,14.097
		C319.888,17.574,319.888,20.934,319.888,24.404z"/>
</g>
<g>
</g>
<g>
</g>
<g>
</g>
<g>
</g>
<g>
</g>
<g>
</g>
<g>
</g>
<g>
</g>
<g>
</g>
<g>
</g>
<g>
</g>
<g>
</g>
<g>
</g>
<g>
</g>
<g>
</g>
</svg>
