<?xml version="1.0" encoding="iso-8859-1"?>
<!-- Generator: Adobe Illustrator 19.0.0, SVG Export Plug-In . SVG Version: 6.00 Build 0)  -->
<svg version="1.1" id="Capa_1" xmlns="http://www.w3.org/2000/svg" xmlns:xlink="http://www.w3.org/1999/xlink" x="0px" y="0px"
	 viewBox="0 0 468.293 468.293" style="enable-background:new 0 0 468.293 468.293;" xml:space="preserve">
<g>
	<rect x="210.232" y="328.492" style="fill:#2F4859;" width="47.791" height="110.505"/>
	<path style="fill:#2F4859;" d="M234.147,420.074c-39.494,0-71.51,21.589-71.51,48.219h143.021
		C305.658,441.663,273.642,420.074,234.147,420.074z"/>
</g>
<path style="fill:#EBF0F3;" d="M365.741,185.863L325.682,0C264.66,35.959,203.638,35.96,142.613,0l-40.06,185.863
	c-18.071,83.842,45.825,162.979,131.594,162.979S383.812,269.705,365.741,185.863z"/>
<path style="fill:#E56353;" d="M234.147,348.782c-85.726,0-149.663-79.131-131.6-162.851l0.43-1.864l6.451-30.391
	c1.147,0.717,2.294,1.577,3.298,2.294c10.608,7.597,19.066,13.762,37.272,13.762c18.349,0,26.664-6.164,37.415-13.762
	c11.899-8.602,26.664-19.21,54.189-19.21c27.38,0,42.146,10.608,54.044,19.21c10.752,7.597,19.066,13.762,37.416,13.762
	c12.615,0,20.5-2.866,27.667-7.311l5.017,23.51c0.43,1.864,0.717,3.871,1.004,5.735
	C380.799,273.235,317.867,348.782,234.147,348.782z"/>
<g>
</g>
<g>
</g>
<g>
</g>
<g>
</g>
<g>
</g>
<g>
</g>
<g>
</g>
<g>
</g>
<g>
</g>
<g>
</g>
<g>
</g>
<g>
</g>
<g>
</g>
<g>
</g>
<g>
</g>
</svg>
