<?xml version="1.0" encoding="iso-8859-1"?>
<!-- Generator: Adobe Illustrator 19.0.0, SVG Export Plug-In . SVG Version: 6.00 Build 0)  -->
<svg version="1.1" id="Capa_1" xmlns="http://www.w3.org/2000/svg" xmlns:xlink="http://www.w3.org/1999/xlink" x="0px" y="0px"
	 viewBox="0 0 468.293 468.293" style="enable-background:new 0 0 468.293 468.293;" xml:space="preserve">
<path style="fill:#D5D6DB;" d="M383.124,197.841c-13.045,0-25.36,5.258-36.245,14.578c-11.656,9.98-26.192,15.981-41.537,15.981
	h-142.39c-15.346,0-29.881-6.001-41.537-15.981c-10.886-9.32-23.2-14.578-36.246-14.578c-44.303,0-80.218,60.543-80.218,135.226
	s35.915,135.226,80.218,135.226c11.967,0,23.305-4.452,33.496-12.392c10.599-8.259,24.011-12.056,37.447-12.056h156.07
	c13.437,0,26.848,3.797,37.447,12.056c10.191,7.94,21.529,12.392,33.496,12.392c44.304,0,80.219-60.543,80.219-135.226
	S427.428,197.841,383.124,197.841z"/>
<rect x="150.491" y="263.899" style="fill:#27A2DB;" width="167.312" height="143.31"/>
<rect x="150.491" y="396.925" style="fill:#1C75A1;" width="167.312" height="10.309"/>
<path style="fill:#64798A;" d="M375.452,283.133l-37.509,37.509c-7.069,7.069-7.069,18.531,0,25.6c7.069,7.069,18.531,7.069,25.6,0
	l37.509-37.509c7.069-7.069,7.069-18.531,0-25.6C393.983,276.063,382.522,276.063,375.452,283.133z"/>
<path style="fill:#E56353;" d="M360.364,343.057c-5.309,5.309-13.937,5.309-19.239,0.006c-5.306-5.306-5.306-13.934,0.003-19.243
	c5.303-5.302,13.931-5.302,19.236,0.003C365.666,329.126,365.666,337.754,360.364,343.057z"/>
<path style="fill:#44C4A1;" d="M397.873,305.547c-5.309,5.309-13.937,5.309-19.239,0.006c-5.306-5.306-5.306-13.934,0.003-19.243
	c5.302-5.302,13.931-5.302,19.236,0.003C403.176,291.617,403.176,300.245,397.873,305.547z"/>
<path style="fill:#64798A;" d="M408.389,316.069l-37.509,37.509c-7.069,7.069-7.069,18.531,0,25.6c7.069,7.069,18.531,7.069,25.6,0
	l37.509-37.509c7.069-7.069,7.069-18.531,0-25.6C426.919,309,415.458,309,408.389,316.069z"/>
<path style="fill:#F6C358;" d="M393.3,375.993c-5.309,5.309-13.937,5.309-19.239,0.006c-5.306-5.306-5.306-13.934,0.003-19.243
	c5.303-5.302,13.931-5.302,19.236,0.003C398.603,362.063,398.603,370.691,393.3,375.993z"/>
<path style="fill:#27A2DB;" d="M430.81,338.484c-5.309,5.309-13.937,5.309-19.239,0.006c-5.306-5.306-5.306-13.934,0.003-19.243
	c5.302-5.302,13.931-5.302,19.236,0.003C436.112,324.553,436.112,333.181,430.81,338.484z"/>
<path style="fill:#3A556A;" d="M234.859,195.859c-6.902,0-12.502-5.596-12.502-12.502V90.983C222.357,40.813,263.174,0,313.344,0
	h87.406c6.902,0,12.502,5.596,12.502,12.502s-5.6,12.502-12.502,12.502h-87.406c-36.382,0-65.984,29.598-65.984,65.98v92.375
	C247.36,190.263,241.76,195.859,234.859,195.859z"/>
<path style="fill:#D15241;" d="M127.718,318.609H97.532v-30.186c0-2.896-2.347-5.243-5.243-5.243h-19.7
	c-2.896,0-5.243,2.347-5.243,5.243v30.186H37.159c-2.896,0-5.243,2.347-5.243,5.243v19.7c0,2.896,2.347,5.243,5.243,5.243h30.187
	v30.187c0,2.896,2.347,5.243,5.243,5.243h19.7c2.896,0,5.243-2.347,5.243-5.243v-30.187h30.186c2.896,0,5.243-2.347,5.243-5.243
	v-19.7C132.961,320.956,130.613,318.609,127.718,318.609z"/>
<g>
	<polygon style="fill:#E56353;" points="82.438,291.64 74.575,299.504 90.302,299.504 	"/>
	<polygon style="fill:#E56353;" points="82.438,375.764 90.302,367.9 74.575,367.9 	"/>
	<polygon style="fill:#E56353;" points="124.5,333.702 116.636,325.838 116.636,341.566 	"/>
	<polygon style="fill:#E56353;" points="40.377,333.702 48.24,341.566 48.24,325.838 	"/>
	<rect x="196.664" y="183.358" style="fill:#E56353;" width="74.989" height="45.044"/>
</g>
<g>
</g>
<g>
</g>
<g>
</g>
<g>
</g>
<g>
</g>
<g>
</g>
<g>
</g>
<g>
</g>
<g>
</g>
<g>
</g>
<g>
</g>
<g>
</g>
<g>
</g>
<g>
</g>
<g>
</g>
</svg>
