<?xml version="1.0" encoding="iso-8859-1"?>
<!-- Generator: Adobe Illustrator 19.0.0, SVG Export Plug-In . SVG Version: 6.00 Build 0)  -->
<svg version="1.1" id="Capa_1" xmlns="http://www.w3.org/2000/svg" xmlns:xlink="http://www.w3.org/1999/xlink" x="0px" y="0px"
	 viewBox="0 0 468.293 468.293" style="enable-background:new 0 0 468.293 468.293;" xml:space="preserve">
<circle style="fill:#2F4859;" cx="234.146" cy="234.146" r="234.146"/>
<circle style="fill:#EBF0F3;" cx="234.146" cy="234.146" r="209.208"/>
<g>
	<path style="fill:#1C75A1;" d="M105.869,217.619c2.662-5.165,3.995-10.156,3.995-14.98c0-4.824-1.154-8.855-3.467-12.092
		c-2.313-3.229-5.276-4.856-8.891-4.856c-6.633,0-12.917,6.482-18.844,19.424l-18.841-15.29
		c4.923-10.466,10.323-18.384,16.202-23.764c5.879-5.372,13.366-8.054,22.463-8.054c9.093,0,17.079,3.959,23.966,11.878
		c6.879,7.927,10.323,18.702,10.323,32.341c0,7.435-1.381,14.56-4.142,21.383c-2.765,6.816-7.867,15.528-15.302,26.136L94.34,276.81
		h41.601v28.929H61.63v-23.97l30.901-43.386C98.76,229.703,103.207,222.784,105.869,217.619z"/>
	<path style="fill:#1C75A1;" d="M191.863,243.342v-25.208h22.613v25.208h11.906v27.89h-11.906v34.507h-22.613v-34.507h-42.354
		v-24.589l37.534-85.328h25.624l-35.725,82.027H191.863z"/>
	<path style="fill:#1C75A1;" d="M299.943,139.408h21.403l-63.309,189.476h-21.253L299.943,139.408z"/>
	<path style="fill:#1C75A1;" d="M332.352,207.597v-46.282h76.12v24.375l-42.656,120.049h-25.625l40.696-116.74h-26.529v18.598
		H332.352z"/>
</g>
<g>
</g>
<g>
</g>
<g>
</g>
<g>
</g>
<g>
</g>
<g>
</g>
<g>
</g>
<g>
</g>
<g>
</g>
<g>
</g>
<g>
</g>
<g>
</g>
<g>
</g>
<g>
</g>
<g>
</g>
</svg>
