<?xml version="1.0" encoding="iso-8859-1"?>
<!-- Generator: Adobe Illustrator 19.0.0, SVG Export Plug-In . SVG Version: 6.00 Build 0)  -->
<svg version="1.1" id="Capa_1" xmlns="http://www.w3.org/2000/svg" xmlns:xlink="http://www.w3.org/1999/xlink" x="0px" y="0px"
	 viewBox="0 0 468.293 468.293" style="enable-background:new 0 0 468.293 468.293;" xml:space="preserve">
<path style="fill:#E56353;" d="M369.505,202.482c2.592-10.627,4.117-21.671,4.117-33.097c0-77.031-62.445-139.476-139.476-139.476
	S94.671,92.354,94.671,169.385c0,11.426,1.526,22.47,4.117,33.097H369.505z"/>
<rect x="201.309" y="135.069" transform="matrix(-0.1666 0.986 -0.986 -0.1666 533.9929 -124.3085)" style="fill:#F7BE56;" width="236.445" height="56.901"/>
<rect x="187.288" y="146.939" transform="matrix(-0.1666 0.986 -0.986 -0.1666 515.3127 -113.2329)" style="fill:#FCD462;" width="236.445" height="28.447"/>
<polygon style="fill:#EFA733;" points="341.16,35.408 311.153,42.238 337.251,58.547 367.256,51.716 "/>
<rect x="93.47" y="119.554" transform="matrix(-0.2047 0.9788 -0.9788 -0.2047 425.4945 -49.7181)" style="fill:#F7BE56;" width="278.952" height="56.901"/>
<rect x="79.546" y="130.892" transform="matrix(-0.2047 0.9788 -0.9788 -0.2047 405.8926 -39.569)" style="fill:#FCD462;" width="278.952" height="28.447"/>
<polygon style="fill:#EFA733;" points="263.894,0 233.645,5.662 259.091,22.971 289.338,17.308 "/>
<polygon style="fill:#F7BE56;" points="188.479,232.593 156.905,47.974 100.825,57.568 130.754,232.593 "/>
<polygon style="fill:#FCD462;" points="159.617,232.593 128.865,52.771 100.825,57.568 130.754,232.593 "/>
<polygon style="fill:#EFA733;" points="126.888,41.205 100.823,57.567 130.844,64.337 156.907,47.976 "/>
<polygon style="fill:#CE412D;" points="374.099,169.364 362.731,277.756 349.873,400.815 342.751,468.293 125.542,468.293 
	118.42,400.815 105.562,277.756 94.193,169.364 "/>
<polygon style="fill:#EBF0F3;" points="362.731,277.756 349.873,400.815 118.42,400.815 105.562,277.756 "/>
<g>
</g>
<g>
</g>
<g>
</g>
<g>
</g>
<g>
</g>
<g>
</g>
<g>
</g>
<g>
</g>
<g>
</g>
<g>
</g>
<g>
</g>
<g>
</g>
<g>
</g>
<g>
</g>
<g>
</g>
</svg>
