<?xml version="1.0" encoding="iso-8859-1"?>
<!-- Generator: Adobe Illustrator 19.0.0, SVG Export Plug-In . SVG Version: 6.00 Build 0)  -->
<svg version="1.1" id="Capa_1" xmlns="http://www.w3.org/2000/svg" xmlns:xlink="http://www.w3.org/1999/xlink" x="0px" y="0px"
	 viewBox="0 0 468.293 468.293" style="enable-background:new 0 0 468.293 468.293;" xml:space="preserve">
<g>
	<rect x="168.573" y="71.992" style="fill:#3A556A;" width="23.052" height="53.872"/>
	<rect x="364.85" y="71.992" style="fill:#3A556A;" width="23.052" height="53.872"/>
</g>
<polygon style="fill:#2F4859;" points="468.293,56.714 88.183,56.714 88.183,0 61.515,0 61.515,56.714 0,56.714 0,83.382 
	61.515,83.382 61.515,468.293 88.183,468.293 88.183,83.382 468.293,83.382 "/>
<path style="fill:#E56353;" d="M126.407,135.829v164.632c0,10.113,8.199,18.312,18.312,18.312h267.038
	c10.113,0,18.312-8.199,18.312-18.312V135.829c0-10.113-8.199-18.312-18.312-18.312H144.719
	C134.606,117.517,126.407,125.715,126.407,135.829z"/>
<rect x="146.139" y="139.626" style="fill:#EBF0F3;" width="264.18" height="157.034"/>
<g>
	<path style="fill:#64798A;" d="M233.174,240.843v12.552h-47.371c0.513-4.745,2.052-9.242,4.617-13.49
		c2.565-4.248,7.631-9.883,15.197-16.905c6.092-5.675,9.827-9.522,11.206-11.542c1.86-2.789,2.789-5.547,2.789-8.272
		c0-3.014-0.81-5.33-2.429-6.949c-1.619-1.619-3.855-2.429-6.709-2.429c-2.821,0-5.066,0.85-6.733,2.549
		c-1.667,1.699-2.629,4.521-2.886,8.464l-13.466-1.347c0.802-7.438,3.318-12.777,7.551-16.015c4.232-3.238,9.522-4.857,15.871-4.857
		c6.957,0,12.424,1.876,16.4,5.627c3.976,3.751,5.963,8.416,5.963,13.995c0,3.174-0.569,6.196-1.707,9.065
		c-1.138,2.87-2.942,5.875-5.41,9.017c-1.635,2.084-4.585,5.082-8.849,8.993c-4.264,3.912-6.965,6.509-8.104,7.791
		c-1.138,1.282-2.06,2.533-2.765,3.751H233.174z"/>
	<path style="fill:#64798A;" d="M268.811,253.395v-14.187h-28.856v-11.831l30.587-44.774h11.35v44.726h8.753v11.879h-8.753v14.187
		H268.811z M268.811,227.329v-24.094l-16.207,24.094H268.811z"/>
	<path style="fill:#64798A;" d="M292.761,254.598l17.458-72.909h10.148l-17.65,72.909H292.761z"/>
	<path style="fill:#64798A;" d="M324.454,196.405v-12.552h46.217v9.811c-3.815,3.751-7.695,9.138-11.638,16.159
		c-3.944,7.022-6.949,14.484-9.017,22.387c-2.068,7.903-3.086,14.965-3.054,21.185h-13.033c0.224-9.747,2.236-19.686,6.036-29.818
		c3.799-10.132,8.873-19.189,15.221-27.172H324.454z"/>
</g>
<g>
</g>
<g>
</g>
<g>
</g>
<g>
</g>
<g>
</g>
<g>
</g>
<g>
</g>
<g>
</g>
<g>
</g>
<g>
</g>
<g>
</g>
<g>
</g>
<g>
</g>
<g>
</g>
<g>
</g>
</svg>
