<?xml version="1.0" encoding="iso-8859-1"?>
<!-- Generator: Adobe Illustrator 19.0.0, SVG Export Plug-In . SVG Version: 6.00 Build 0)  -->
<svg version="1.1" id="Capa_1" xmlns="http://www.w3.org/2000/svg" xmlns:xlink="http://www.w3.org/1999/xlink" x="0px" y="0px"
	 viewBox="0 0 468.293 468.293" style="enable-background:new 0 0 468.293 468.293;" xml:space="preserve">
<path style="fill:#2F4859;" d="M453.447,89.074L350.995,191.525c-4.1,4.1-10.746,4.1-14.846,0l0,0c-4.1-4.1-4.1-10.746,0-14.846
	L438.601,74.228l-14.846-14.846L321.304,161.834c-4.1,4.1-10.746,4.1-14.846,0l0,0c-4.099-4.1-4.099-10.746,0-14.846L408.91,44.537
	l-14.846-14.846L291.613,132.143c-4.1,4.1-10.746,4.1-14.846,0l0,0c-4.099-4.1-4.099-10.746,0-14.846L379.218,14.846L364.373,0
	l-99.155,99.155c-14.069,14.069-20.623,32.81-19.768,51.296c1.564,33.787-14.391,66.055-40.036,88.107
	C120.255,311.787,9.106,415.032,9.106,415.032c-12.141,12.141-12.141,32.011,0.001,44.154c12.143,12.143,32.011,12.141,44.153,0
	c0,0,103.245-111.149,176.474-196.308c22.052-25.645,54.321-41.6,88.107-40.036c18.487,0.856,37.227-5.698,51.297-19.768
	l99.155-99.155L453.447,89.074z"/>
<g>
</g>
<g>
</g>
<g>
</g>
<g>
</g>
<g>
</g>
<g>
</g>
<g>
</g>
<g>
</g>
<g>
</g>
<g>
</g>
<g>
</g>
<g>
</g>
<g>
</g>
<g>
</g>
<g>
</g>
</svg>
