<?xml version="1.0" encoding="iso-8859-1"?>
<!-- Generator: Adobe Illustrator 19.0.0, SVG Export Plug-In . SVG Version: 6.00 Build 0)  -->
<svg version="1.1" id="Capa_1" xmlns="http://www.w3.org/2000/svg" xmlns:xlink="http://www.w3.org/1999/xlink" x="0px" y="0px"
	 viewBox="0 0 468.293 468.293" style="enable-background:new 0 0 468.293 468.293;" xml:space="preserve">
<path style="fill:#CE412D;" d="M24.501,159.803l40.992,281.798c2.134,15.34,14.405,26.692,28.851,26.692h279.604
	c14.447,0,26.717-11.352,28.851-26.692l40.992-281.798L24.501,159.803L24.501,159.803z"/>
<g>
	<path style="fill:#E56353;" d="M385.077,234.235c-8.879-3.079-18.447,2.197-21.298,11.77l-49.764,153.893
		c-2.857,9.562,2.051,19.804,10.963,22.865c1.715,0.592,3.458,0.876,5.173,0.876c7.164,0,13.825-4.926,16.125-12.646l49.764-153.893
		C398.897,247.539,393.989,237.296,385.077,234.235z"/>
	<path style="fill:#E56353;" d="M284.534,233.466c-9.331-1.012-17.647,6.175-18.645,16.157l-16.588,153.893
		c-0.993,9.988,5.746,18.946,15.05,20.017c0.612,0.065,1.219,0.101,1.82,0.101c8.548,0,15.893-6.927,16.825-16.258l16.588-153.893
		C300.576,243.495,293.837,234.537,284.534,233.466z"/>
	<path style="fill:#E56353;" d="M202.404,249.623c-0.998-9.994-9.303-17.093-18.645-16.157c-9.303,1.072-16.042,10.029-15.05,20.017
		l16.588,153.893c0.932,9.337,8.278,16.258,16.825,16.258c0.601,0,1.208-0.036,1.82-0.101c9.303-1.072,16.042-10.029,15.05-20.017
		L202.404,249.623z"/>
	<path style="fill:#E56353;" d="M104.513,246.005c-2.851-9.574-12.419-14.855-21.298-11.77c-8.912,3.061-13.82,13.303-10.963,22.865
		l49.764,153.893c2.3,7.726,8.961,12.646,16.125,12.646c1.715,0,3.458-0.284,5.173-0.876c8.912-3.061,13.82-13.303,10.963-22.865
		L104.513,246.005z"/>
	<path style="fill:#E56353;" d="M444.284,139.331H24.009C10.749,139.331,0,150.872,0,165.108s10.749,25.776,24.009,25.776h420.274
		c13.26,0,24.009-11.54,24.009-25.776S457.544,139.331,444.284,139.331z"/>
</g>
<path style="fill:#2F4859;" d="M292.148,2.2c-9.824,5.198-13.864,17.965-9.022,28.512l61.961,134.97
	c4.842,10.547,16.733,14.884,26.557,9.686c9.829-5.201,13.864-17.965,9.022-28.512l-61.961-134.97
	C313.863,1.339,301.977-3,292.148,2.2z"/>
<ellipse style="fill:#EBF0F3;" cx="362.084" cy="154.349" rx="10.69" ry="11.476"/>
<path style="fill:#2F4859;" d="M176.145,2.199c9.824,5.198,13.864,17.965,9.022,28.512l-61.961,134.97
	c-4.842,10.547-16.733,14.884-26.557,9.686c-9.829-5.201-13.864-17.965-9.022-28.512l61.961-134.97
	C154.429,1.338,166.316-3.001,176.145,2.199z"/>
<ellipse style="fill:#EBF0F3;" cx="106.184" cy="154.349" rx="10.69" ry="11.476"/>
<g>
</g>
<g>
</g>
<g>
</g>
<g>
</g>
<g>
</g>
<g>
</g>
<g>
</g>
<g>
</g>
<g>
</g>
<g>
</g>
<g>
</g>
<g>
</g>
<g>
</g>
<g>
</g>
<g>
</g>
</svg>
