<?xml version="1.0" encoding="iso-8859-1"?>
<!-- Generator: Adobe Illustrator 19.0.0, SVG Export Plug-In . SVG Version: 6.00 Build 0)  -->
<svg version="1.1" id="Capa_1" xmlns="http://www.w3.org/2000/svg" xmlns:xlink="http://www.w3.org/1999/xlink" x="0px" y="0px"
	 viewBox="0 0 468.293 468.293" style="enable-background:new 0 0 468.293 468.293;" xml:space="preserve">
<path style="fill:#44C4A1;" d="M407.869,393.875l-143.91-216.596l-0.95,0.632l-7.101-111.676L83.961,180.478l100.2,49.82
	l143.91,216.595c14.641,22.035,44.373,28.031,66.408,13.389C416.515,445.642,422.509,415.91,407.869,393.875z"/>
<rect x="262.474" y="240.051" transform="matrix(-0.8329 0.5534 -0.5534 -0.8329 686.6776 384.5492)" style="fill:#FCD462;" width="45.624" height="111.772"/>
<rect x="262.663" y="259.371" transform="matrix(-0.8329 0.5534 -0.5534 -0.8329 687.1835 384.9728)" style="fill:#64798A;" width="45.624" height="73.709"/>
<rect x="272.827" y="293.182" transform="matrix(-0.8329 0.5534 -0.5534 -0.8329 714.326 407.5422)" style="fill:#3A556A;" width="45.624" height="36.851"/>
<g>
	<path style="fill:#FCD462;" d="M195.021,101.204c-3.114,0-5.928-2.139-6.663-5.306L168.156,8.379
		c-0.849-3.682,1.45-7.358,5.132-8.207c3.682-0.835,7.351,1.45,8.207,5.132l20.202,87.519c0.849,3.682-1.45,7.358-5.132,8.207
		C196.05,101.151,195.529,101.204,195.021,101.204z"/>
	<path style="fill:#FCD462;" d="M134.969,141.108c-1.256,0-2.533-0.348-3.676-1.076L55.576,91.714
		c-3.188-2.032-4.117-6.262-2.085-9.45c2.032-3.181,6.262-4.117,9.45-2.085l75.717,48.317c3.188,2.032,4.117,6.262,2.085,9.45
		C139.439,139.992,137.227,141.108,134.969,141.108z"/>
	<path style="fill:#FCD462;" d="M164.734,121.333c-2.219,0-4.391-1.076-5.707-3.054l-49.701-74.808
		c-2.092-3.148-1.236-7.398,1.911-9.49c3.154-2.098,7.391-1.23,9.49,1.911l49.701,74.808c2.092,3.148,1.236,7.398-1.911,9.49
		C167.347,120.965,166.037,121.333,164.734,121.333z"/>
</g>
<g>
</g>
<g>
</g>
<g>
</g>
<g>
</g>
<g>
</g>
<g>
</g>
<g>
</g>
<g>
</g>
<g>
</g>
<g>
</g>
<g>
</g>
<g>
</g>
<g>
</g>
<g>
</g>
<g>
</g>
</svg>
