<?xml version="1.0" encoding="iso-8859-1"?>
<!-- Generator: Adobe Illustrator 19.0.0, SVG Export Plug-In . SVG Version: 6.00 Build 0)  -->
<svg version="1.1" id="Capa_1" xmlns="http://www.w3.org/2000/svg" xmlns:xlink="http://www.w3.org/1999/xlink" x="0px" y="0px"
	 viewBox="0 0 468.973 468.973" style="enable-background:new 0 0 468.973 468.973;" xml:space="preserve">
<path style="fill:#FCD462;" d="M360.41,80.406c0,0,136.669,226.121-55.522,320.199L240.323,296.63l-46.479,103.976
	c0,0-213.545-32.427-98.231-320.199l83.849,104.112c0,0,61.498-89.817,55.023-184.518c0,0,85.916,128.997,64.562,184.518
	C299.048,184.518,356.139,148.74,360.41,80.406z"/>
<path style="fill:#F6C358;" d="M319.864,133.652c0,0,92.663,153.313-37.644,217.099l-43.775-70.497l-31.513,70.497
	c0,0-144.786-21.986-66.602-217.099l56.851,70.589c0,0,41.696-60.897,37.306-125.105c0,0,58.252,87.461,43.774,125.105
	C278.26,204.241,316.968,179.983,319.864,133.652z"/>
<g>
	<path style="fill:#DC8744;" d="M432.317,397.35L43.389,466.936c-8.189,1.465-16.016-3.986-17.481-12.175l-1.427-7.978
		c-1.465-8.189,3.986-16.016,12.175-17.481l388.929-69.586c8.189-1.465,16.016,3.986,17.481,12.175l1.427,7.978
		C445.957,388.058,440.506,395.885,432.317,397.35z"/>
	<path style="fill:#DC8744;" d="M425.078,468.709L36.812,395.512c-8.175-1.541-13.553-9.418-12.012-17.593l1.501-7.964
		c1.541-8.175,9.418-13.553,17.593-12.012L432.16,431.14c8.175,1.541,13.553,9.418,12.012,17.593l-1.501,7.964
		C441.129,464.872,433.253,470.25,425.078,468.709z"/>
</g>
<g>
</g>
<g>
</g>
<g>
</g>
<g>
</g>
<g>
</g>
<g>
</g>
<g>
</g>
<g>
</g>
<g>
</g>
<g>
</g>
<g>
</g>
<g>
</g>
<g>
</g>
<g>
</g>
<g>
</g>
</svg>
