<?xml version="1.0" encoding="iso-8859-1"?>
<!-- Generator: Adobe Illustrator 19.0.0, SVG Export Plug-In . SVG Version: 6.00 Build 0)  -->
<svg version="1.1" id="Capa_1" xmlns="http://www.w3.org/2000/svg" xmlns:xlink="http://www.w3.org/1999/xlink" x="0px" y="0px"
	 viewBox="0 0 468.293 468.293" style="enable-background:new 0 0 468.293 468.293;" xml:space="preserve">
<rect x="102.075" y="200.567" style="fill:#64798A;" width="255.188" height="67.153"/>
<g>
	<path style="fill:#2F4859;" d="M408.301,168.748v130.796c0,16.566,13.43,29.996,29.996,29.996h0
		c16.566,0,29.996-13.43,29.996-29.996V168.748c0-16.566-13.43-29.996-29.996-29.996h0
		C421.731,138.752,408.301,152.182,408.301,168.748z"/>
	<path style="fill:#2F4859;" d="M348.309,139.234v189.824c0,16.566,13.43,29.996,29.996,29.996h0
		c16.566,0,29.996-13.43,29.996-29.996V139.234c0-16.566-13.43-29.996-29.996-29.996h0
		C361.739,109.238,348.309,122.668,348.309,139.234z"/>
	<path style="fill:#2F4859;" d="M59.992,168.748v130.796c0,16.566-13.43,29.996-29.996,29.996h0C13.43,329.54,0,316.111,0,299.544
		V168.748c0-16.566,13.43-29.996,29.996-29.996h0C46.562,138.752,59.992,152.182,59.992,168.748z"/>
	<path style="fill:#2F4859;" d="M119.983,139.234v189.824c0,16.566-13.43,29.996-29.996,29.996h0
		c-16.566,0-29.996-13.43-29.996-29.996V139.234c0-16.566,13.43-29.996,29.996-29.996h0
		C106.554,109.238,119.983,122.668,119.983,139.234z"/>
</g>
<g>
</g>
<g>
</g>
<g>
</g>
<g>
</g>
<g>
</g>
<g>
</g>
<g>
</g>
<g>
</g>
<g>
</g>
<g>
</g>
<g>
</g>
<g>
</g>
<g>
</g>
<g>
</g>
<g>
</g>
</svg>
