<?xml version="1.0" encoding="iso-8859-1"?>
<!-- Generator: Adobe Illustrator 19.0.0, SVG Export Plug-In . SVG Version: 6.00 Build 0)  -->
<svg version="1.1" id="Capa_1" xmlns="http://www.w3.org/2000/svg" xmlns:xlink="http://www.w3.org/1999/xlink" x="0px" y="0px"
	 viewBox="0 0 468.293 468.293" style="enable-background:new 0 0 468.293 468.293;" xml:space="preserve">
<path style="fill:#F7BE56;" d="M116.593,234.148c0.006-0.428,0.039-0.841,0.039-1.269h0c-0.027,0-0.051,0.003-0.078,0.003
	C114.906,170.167,52.69,138.728,0,155.162h0c0,39.569,33.6,72.44,94.659,78.986C33.601,240.692,0,273.563,0,313.129
	c52.69,16.437,114.906-15.002,116.554-77.717c0.027,0,0.051,0.003,0.078,0.003C116.632,234.986,116.599,234.574,116.593,234.148z"/>
<path style="fill:#E56353;" d="M468.293,234.173c0,0-45.875,59.371-111.8,90.861c-23.826,11.441-50.263,19.162-78.088,19.162
	c-104.858,0-189.889-110.023-189.889-110.023s85.031-110.078,189.889-110.078c27.825,0,54.262,7.775,78.088,19.159h0.056
	C422.417,174.802,468.293,234.173,468.293,234.173z"/>
<path style="fill:#CE412D;" d="M468.293,234.173c0,0-45.875,59.371-111.8,90.861c-13.552,6.498-27.881,11.775-42.876,15.108
	c-4.221,1.001-8.553,1.776-12.885,2.389c-7.331,1.109-14.774,1.665-22.327,1.665c-104.858,0-189.889-110.023-189.889-110.023
	s85.031-110.078,189.889-110.078c7.553,0,14.996,0.553,22.327,1.665c4.332,0.61,8.608,1.445,12.83,2.389
	c14.995,3.333,29.38,8.664,42.932,15.105h0.056C422.417,174.802,468.293,234.173,468.293,234.173z"/>
<path style="fill:#D15241;" d="M468.293,234.173c0,0-45.875,59.371-111.8,90.861c-13.552,6.498-27.881,11.775-42.876,15.108
	c-88.03-19.827-154.566-105.969-154.566-105.969s66.536-86.197,154.51-106.023c14.995,3.333,29.38,8.664,42.932,15.105h0.056
	C422.417,174.802,468.293,234.173,468.293,234.173z"/>
<path style="fill:#F7BE56;" d="M468.293,234.175c0,0-45.875,59.371-111.8,90.861c-14.607-27.046-22.938-57.983-22.938-90.861
	s8.331-63.87,22.938-90.918h0.056C422.417,174.804,468.293,234.175,468.293,234.175z"/>
<circle style="fill:#EBF0F3;" cx="399.984" cy="234.146" r="23.602"/>
<circle style="fill:#2F4859;" cx="399.984" cy="234.146" r="10.109"/>
<g>
</g>
<g>
</g>
<g>
</g>
<g>
</g>
<g>
</g>
<g>
</g>
<g>
</g>
<g>
</g>
<g>
</g>
<g>
</g>
<g>
</g>
<g>
</g>
<g>
</g>
<g>
</g>
<g>
</g>
</svg>
