<?xml version="1.0" encoding="iso-8859-1"?>
<!-- Generator: Adobe Illustrator 19.0.0, SVG Export Plug-In . SVG Version: 6.00 Build 0)  -->
<svg version="1.1" id="Capa_1" xmlns="http://www.w3.org/2000/svg" xmlns:xlink="http://www.w3.org/1999/xlink" x="0px" y="0px"
	 viewBox="0 0 468.293 468.293" style="enable-background:new 0 0 468.293 468.293;" xml:space="preserve">
<path style="fill:#D5D6DB;" d="M234.146,0C128.331,0,42.552,86.03,42.552,192.154v250.558H425.74V192.154
	C425.74,86.03,339.962,0,234.146,0z"/>
<path style="fill:#FCD462;" d="M143.52,369.935c0.403,16.892,2.668,34.381,11.637,48.683c0.033,0.052,0.065,0.104,0.098,0.155
	c5.228,8.262,14.933,12.564,24.69,12.564l123.917,0c13.781,0,26.336-8.799,30.278-22.043c3.976-13.36,4.406-28.123,4.64-42.249
	c0.321-19.3,0.629-38.749-2.845-57.735c-3.474-18.986-11.03-37.707-24.509-51.486c-6.425-6.571-15.608-12.186-24.375-9.469
	c-5.665,1.756-9.751,6.589-13.507,11.192c-8.562,10.496-17.426,21.623-19.801,34.976c4.196-23.963-0.049-49.325-11.82-70.599
	c-15.77-28.503-43.213-47.936-70.857-65.541c13.751,10.956,20.979,29.781,21.45,47.811c0.567,21.636-6.552,42.618-12.643,63.381
	c-6.092,20.762-11.258,42.71-6.749,63.875c-14.599-14.614-29.198-29.231-43.796-43.844c6.216,8.68,10.302,19.121,12.139,29.746
	C144.345,335.999,143.117,353.043,143.52,369.935z"/>
<path style="fill:#CE412D;" d="M179.146,394.073c0.245,10.251,1.619,20.866,7.063,29.545c0.02,0.031,0.04,0.063,0.059,0.094
	c3.173,5.014,9.063,7.625,14.984,7.625l75.204,0c8.363,0,15.983-5.34,18.375-13.378c2.413-8.108,2.674-17.068,2.816-25.64
	c0.195-11.713,0.382-23.516-1.727-35.039c-2.108-11.523-6.694-22.884-14.874-31.246c-3.9-3.988-9.472-7.396-14.793-5.747
	c-3.438,1.066-5.918,3.999-8.197,6.792c-5.196,6.37-10.576,13.123-12.017,21.227c2.547-14.543-0.029-29.935-7.174-42.846
	c-9.571-17.298-26.226-29.092-43.003-39.776c8.346,6.649,12.732,18.074,13.018,29.016c0.344,13.131-3.976,25.864-7.673,38.466
	c-3.697,12.6-6.832,25.92-4.096,38.765c-8.86-8.869-17.72-17.74-26.58-26.609c3.773,5.268,6.252,11.604,7.367,18.052
	C179.647,373.477,178.901,383.821,179.146,394.073z"/>
<polygon style="fill:#2F4859;" points="425.74,430.434 42.552,430.434 0,468.293 468.293,468.293 "/>
<g>
</g>
<g>
</g>
<g>
</g>
<g>
</g>
<g>
</g>
<g>
</g>
<g>
</g>
<g>
</g>
<g>
</g>
<g>
</g>
<g>
</g>
<g>
</g>
<g>
</g>
<g>
</g>
<g>
</g>
</svg>
