<?xml version="1.0" encoding="iso-8859-1"?>
<!-- Generator: Adobe Illustrator 19.0.0, SVG Export Plug-In . SVG Version: 6.00 Build 0)  -->
<svg version="1.1" id="Capa_1" xmlns="http://www.w3.org/2000/svg" xmlns:xlink="http://www.w3.org/1999/xlink" x="0px" y="0px"
	 viewBox="0 0 468.293 468.293" style="enable-background:new 0 0 468.293 468.293;" xml:space="preserve">
<g>
	<path style="fill:#DC8744;" d="M389.216,357.368h-32.117l41.944,54.759c2.514,3.273,6.298,4.991,10.132,4.991
		c2.701,0,5.427-0.859,7.742-2.626c5.589-4.282,6.647-12.285,2.365-17.873L389.216,357.368z"/>
	<path style="fill:#DC8744;" d="M373.617,435.353l-20.469-44.528h-28.045l25.363,55.182c2.141,4.667,6.759,7.418,11.588,7.418
		c1.78,0,3.585-0.373,5.315-1.17C373.766,449.318,376.567,441.75,373.617,435.353z"/>
	<path style="fill:#DC8744;" d="M257.123,391.357l10.125,66.12c0.958,6.31,6.398,10.816,12.584,10.816
		c0.635,0,1.282-0.05,1.942-0.149c6.958-1.058,11.737-7.568,10.667-14.525l-9.534-62.261H257.123z"/>
	<path style="fill:#DC8744;" d="M194.597,391.357l-9.534,62.261c-1.07,6.958,3.709,13.467,10.667,14.525
		c0.66,0.1,1.307,0.149,1.942,0.149c6.186,0,11.625-4.518,12.584-10.816l10.125-66.12H194.597z"/>
	<path style="fill:#DC8744;" d="M127.762,383.391l-23.876,51.962c-2.95,6.398-0.137,13.965,6.248,16.903
		c1.73,0.797,3.535,1.17,5.315,1.17c4.829,0,9.447-2.751,11.588-7.418l28.77-62.616H127.762z"/>
	<path style="fill:#DC8744;" d="M96.566,334.535l-47.554,62.087c-4.282,5.589-3.224,13.592,2.365,17.873
		c2.315,1.767,5.041,2.626,7.742,2.626c3.834,0,7.617-1.718,10.132-4.991l59.433-77.595H96.566z"/>
</g>
<path style="fill:#E56353;" d="M308.757,187.977c6.5-21.625,22.24-40.304,42.45-50.376c-1.546,25.991-2.905,53.109,7.484,76.984
	c7.127,16.378,19.29,29.983,28.5,45.287c11.344,18.85,18.199,40.664,17.81,62.66c-0.389,21.997-8.335,44.094-23.409,60.119
	c-27.647,29.392-72.098,33.608-112.381,35.967c-38.4,2.249-78.225,4.285-114.015-9.813c-20.613-8.12-39.147-21.497-53.257-38.577
	c-29.603-35.835-37.766-88.129-20.494-131.281c6.627-16.557,16.576-31.571,24.046-47.765c7.47-16.194,12.461-34.492,8.304-51.834
	c-1.253-5.228-3.328-10.354-3.322-15.729c0.006-5.376,2.871-11.294,8.091-12.578c5.087-1.251,10.05,2.233,13.904,5.781
	c22.629,20.835,35.765,51.606,35.159,82.361C224.551,152.351,250.848,71.333,232.277,0c14.164,3.692,27.074,11.805,36.898,22.656
	c19.28,21.297,25.78,51.342,26.651,80.056s-3.119,57.458-1.432,86.136c1.232,20.954,4.17,56.723,18.092,73.295
	c6.413-8.335-2.744-22.137-4.79-30.605C304.247,217.262,304.524,202.058,308.757,187.977z"/>
<path style="fill:#F7BE56;" d="M273.754,304.099c3.25-10.812,11.12-20.152,21.225-25.188c-0.773,12.995-1.453,26.555,3.742,38.492
	c3.564,8.189,9.645,14.991,14.25,22.643c5.672,9.425,9.099,20.332,8.905,31.33c-0.195,10.998-4.167,22.047-11.704,30.059
	c-13.824,14.696-36.049,16.804-56.19,17.983c-19.2,1.124-39.113,2.143-57.007-4.907c-10.307-4.06-19.573-10.748-26.628-19.289
	c-14.801-17.918-18.883-44.064-10.247-65.641c3.313-8.278,8.288-15.786,12.023-23.883c3.735-8.097,6.23-17.246,4.152-25.917
	c-0.626-2.614-1.664-5.177-1.661-7.865c0.003-2.688,1.435-5.647,4.045-6.289c2.543-0.626,5.025,1.116,6.952,2.89
	c11.315,10.418,17.882,25.803,17.579,41.18c28.462-23.414,41.61-63.924,32.325-99.59c7.082,1.846,13.537,5.902,18.449,11.328
	c9.64,10.648,12.89,25.671,13.325,40.028s-1.559,28.729-0.716,43.068c0.616,10.477,2.085,28.362,9.046,36.648
	c3.206-4.168-1.372-11.068-2.395-15.302C271.499,318.741,271.637,311.139,273.754,304.099z"/>
<g>
</g>
<g>
</g>
<g>
</g>
<g>
</g>
<g>
</g>
<g>
</g>
<g>
</g>
<g>
</g>
<g>
</g>
<g>
</g>
<g>
</g>
<g>
</g>
<g>
</g>
<g>
</g>
<g>
</g>
</svg>
