<?xml version="1.0" encoding="iso-8859-1"?>
<!-- Generator: Adobe Illustrator 19.0.0, SVG Export Plug-In . SVG Version: 6.00 Build 0)  -->
<svg version="1.1" id="Capa_1" xmlns="http://www.w3.org/2000/svg" xmlns:xlink="http://www.w3.org/1999/xlink" x="0px" y="0px"
	 viewBox="0 0 468.293 468.293" style="enable-background:new 0 0 468.293 468.293;" xml:space="preserve">
<path style="fill:#64798A;" d="M119.631,327.9h239.937c0,0,0.473-180.326,0-242.465C359.277,47.102,340.147-2.114,226.518,0.07
	c-36.618,0.704-99.209,19.354-106.887,94.939V327.9z"/>
<path style="fill:#D5D6DB;" d="M259.443,267.423l14.566,6.728l93.265,41.934c18.392,8.269,31.349,25.993,34.194,46.772
	l14.436,105.432H52.39L64.647,357.45c1.917-17.332,12.582-32.238,27.91-39.009l100.265-44.291l11.026-3.844"/>
<path style="fill:#F6C358;" d="M248.5,315.03h-28.667c-14.548,0-26.341-11.793-26.341-26.341v-61.8h81.35v61.8
	C274.841,303.237,263.048,315.03,248.5,315.03z"/>
<path style="fill:#FCD462;" d="M336.07,94.308c-8.906,105.719-51.5,163.48-100.935,165.306
	c-81.572,3.013-102.914-165.306-102.914-165.306l78.539-58.813h54.58L336.07,94.308z"/>
<path style="fill:#64798A;" d="M334.503,106.686c-9.164-37.395-56.738-64.941-100.822-64.941c-50.95,0-95.838,37.471-95.838,83.529
	h-18.213c0-57.654,51.161-104.557,114.051-104.557c55.857,0,102.463,37.001,112.187,85.671"/>
<g>
	<rect x="270.336" y="419.091" style="fill:#E56353;" width="57.232" height="19.125"/>
	<polygon style="fill:#E56353;" points="193.492,272.753 235.802,315.03 162.92,356.158 162.92,287.359 	"/>
	<polygon style="fill:#E56353;" points="274.841,272.753 234.352,315.03 304.237,356.158 304.237,287.359 	"/>
	<rect x="232.46" y="315.03" style="fill:#E56353;" width="6.687" height="153.263"/>
	<circle style="fill:#E56353;" cx="218.081" cy="353.28" r="8.436"/>
	<circle style="fill:#E56353;" cx="218.081" cy="385.499" r="8.436"/>
	<circle style="fill:#E56353;" cx="218.081" cy="417.78" r="8.435"/>
	<circle style="fill:#E56353;" cx="218.081" cy="449.998" r="8.435"/>
</g>
<path style="fill:#FCD462;" d="M315.119,114.9c0,0-9.763-36.594-12.831-46.821c0,0-21.593,37.966-9.262,44.295L315.119,114.9z"/>
<path style="fill:#64798A;" d="M142.334,82.762c0,0,121.756,79.766,208.39,32.138l-46.488-84.31l-94.594-7.526L142.334,82.762z"/>
<g>
</g>
<g>
</g>
<g>
</g>
<g>
</g>
<g>
</g>
<g>
</g>
<g>
</g>
<g>
</g>
<g>
</g>
<g>
</g>
<g>
</g>
<g>
</g>
<g>
</g>
<g>
</g>
<g>
</g>
</svg>
