<?xml version="1.0" encoding="iso-8859-1"?>
<!-- Generator: Adobe Illustrator 19.0.0, SVG Export Plug-In . SVG Version: 6.00 Build 0)  -->
<svg version="1.1" id="Capa_1" xmlns="http://www.w3.org/2000/svg" xmlns:xlink="http://www.w3.org/1999/xlink" x="0px" y="0px"
	 viewBox="0 0 468.293 468.293" style="enable-background:new 0 0 468.293 468.293;" xml:space="preserve">
<path style="fill:#F6C358;" d="M430.614,375.974L14.655,260.191c0,0,15.948-192.726,229.648-78.776
	C303.727,213.102,428.47,290.209,430.614,375.974z"/>
<path style="fill:#44C4A1;" d="M412.032,424.574c0,0,77.903,5.003,47.885-55.032c0,0,21.441-41.91-4.288-60.264
	c0,0,31.447-99.145-5.718-68.756c0,0,5.718-169.728-37.879-53.946c0,0-42.168-59.52-33.591,7.405c0,0-45.741-45.999-35.735,19.754
	c0,0-20.796-27.987-18.582,26.787c0,0-37.495,0.372-0.165,33.249l-2.694,102.203L412.032,424.574z"/>
<path style="fill:#3EA69B;" d="M236.809,322.04c0,0,77.903,5.003,47.885-55.032c0,0,21.441-41.91-4.288-60.264
	c0,0,31.447-99.145-5.718-68.756c0,0,5.718-169.728-37.879-53.946c0,0-42.168-59.52-33.591,7.405c0,0-45.741-45.999-35.735,19.754
	c0,0-20.796-27.987-18.582,26.787c0,0-37.495,0.372-0.165,33.249l-2.694,102.203L236.809,322.04z"/>
<circle style="fill:#D5D6DB;" cx="204.051" cy="182.878" r="41.947"/>
<circle style="fill:#D15241;" cx="155.454" cy="193.979" r="40.023"/>
<circle style="fill:#D5D6DB;" cx="293.089" cy="240.515" r="30.021"/>
<circle style="fill:#D15241;" cx="244.074" cy="234.003" r="40.023"/>
<circle style="fill:#D5D6DB;" cx="372.012" cy="294.981" r="40.023"/>
<g>
	<circle style="fill:#D15241;" cx="307.412" cy="285.409" r="40.023"/>
	<circle style="fill:#D15241;" cx="390.618" cy="349.284" r="40.023"/>
</g>
<path style="fill:#FCD462;" d="M412.032,424.574L18.467,315.025C5.011,311.279-2.781,297.368,0.92,283.9
	c13.201-48.037,60.688-141.393,224.8-53.884C285.145,261.702,409.888,338.809,412.032,424.574z"/>
<g>
	<ellipse style="fill:#DC8744;" cx="93.627" cy="240.515" rx="9.647" ry="18.226"/>
	<ellipse style="fill:#DC8744;" cx="178.326" cy="258.747" rx="9.647" ry="18.226"/>
	<ellipse style="fill:#DC8744;" cx="187.973" cy="334.985" rx="9.647" ry="18.226"/>
	<ellipse style="fill:#DC8744;" cx="115.431" cy="303.641" rx="6.075" ry="11.476"/>
	<ellipse style="fill:#DC8744;" cx="287.675" cy="294.981" rx="9.647" ry="18.226"/>
	<ellipse style="fill:#DC8744;" cx="232.286" cy="309.26" rx="7.149" ry="13.499"/>
	<ellipse style="fill:#DC8744;" cx="297.335" cy="357.751" rx="7.505" ry="14.174"/>
	<ellipse style="fill:#DC8744;" cx="44.288" cy="285.409" rx="7.505" ry="14.174"/>
	<ellipse style="fill:#DC8744;" cx="362.334" cy="367.516" rx="9.647" ry="18.226"/>
</g>
<g>
</g>
<g>
</g>
<g>
</g>
<g>
</g>
<g>
</g>
<g>
</g>
<g>
</g>
<g>
</g>
<g>
</g>
<g>
</g>
<g>
</g>
<g>
</g>
<g>
</g>
<g>
</g>
<g>
</g>
</svg>
