<?xml version="1.0" encoding="iso-8859-1"?>
<!-- Generator: Adobe Illustrator 19.0.0, SVG Export Plug-In . SVG Version: 6.00 Build 0)  -->
<svg version="1.1" id="Capa_1" xmlns="http://www.w3.org/2000/svg" xmlns:xlink="http://www.w3.org/1999/xlink" x="0px" y="0px"
	 viewBox="0 0 468.293 468.293" style="enable-background:new 0 0 468.293 468.293;" xml:space="preserve">
<rect x="17.602" y="239.691" style="fill:#44C4A1;" width="433.077" height="72.429"/>
<path style="fill:#F7BE56;" d="M450.92,298.537H17.353C7.769,298.537,0,306.306,0,315.89v10.563
	c0,31.529,25.56,57.088,57.088,57.088h354.097c31.529,0,57.088-25.56,57.088-57.088V315.89
	C468.273,306.306,460.503,298.537,450.92,298.537z"/>
<rect x="17.602" y="166.775" style="fill:#CE412D;" width="433.077" height="77.456"/>
<path style="fill:#F7BE56;" d="M468.293,174.08c0,8.692-7.082,15.854-15.854,15.854H15.854C7.082,189.933,0,182.772,0,174.08
	c0-42.732,30.018-78.384,70.015-87.155c6.197-1.45,12.635-2.173,19.234-2.173h289.715c1.287,0,2.656,0,3.943,0.081
	C430.389,86.925,468.293,126.036,468.293,174.08z"/>
<g>
	<path style="fill:#DC8744;" d="M141.558,134.647c-6.599,6.519-17.222,6.519-23.821,0L70.015,86.925
		c6.197-1.45,12.635-2.173,19.234-2.173h26.235l26.074,26.074C148.157,117.343,148.157,128.047,141.558,134.647z"/>
	<path style="fill:#DC8744;" d="M275.23,134.647c-6.599,6.519-17.303,6.519-23.821,0l-49.895-49.895h47.642l26.074,26.074
		C281.829,117.343,281.829,128.047,275.23,134.647z"/>
	<path style="fill:#DC8744;" d="M408.901,134.647c-6.599,6.519-17.302,6.519-23.821,0l-49.896-49.895h43.779
		c1.287,0,2.656,0,3.943,0.081l25.994,25.994C415.5,117.343,415.5,128.047,408.901,134.647z"/>
</g>
<polygon style="fill:#FCD462;" points="251.689,244.216 318.553,311.08 385.417,244.216 "/>
<g>
</g>
<g>
</g>
<g>
</g>
<g>
</g>
<g>
</g>
<g>
</g>
<g>
</g>
<g>
</g>
<g>
</g>
<g>
</g>
<g>
</g>
<g>
</g>
<g>
</g>
<g>
</g>
<g>
</g>
</svg>
