<?xml version="1.0" encoding="iso-8859-1"?>
<!-- Generator: Adobe Illustrator 19.0.0, SVG Export Plug-In . SVG Version: 6.00 Build 0)  -->
<svg version="1.1" id="Capa_1" xmlns="http://www.w3.org/2000/svg" xmlns:xlink="http://www.w3.org/1999/xlink" x="0px" y="0px"
	 viewBox="0 0 468.28 468.28" style="enable-background:new 0 0 468.28 468.28;" xml:space="preserve">
<polygon style="fill:#3EA69B;" points="275.26,57.132 425.264,235.352 121.892,427.7 33.958,323.227 "/>
<g>
	<polygon style="fill:#D5D6DB;" points="256.455,119.766 360.341,243.192 150.239,376.403 89.34,304.05 	"/>
	
		<rect x="221.849" y="118.556" transform="matrix(0.6439 0.7651 -0.7651 0.6439 233.3406 -229.9953)" style="fill:#D5D6DB;" width="283.848" height="34.285"/>
	<path style="fill:#D5D6DB;" d="M32.665,321.69l89.658,106.522l-13.396,11.276c-22.865,19.245-57.002,16.31-76.247-6.555
		l-19.965-23.72c-19.245-22.865-16.311-57.002,6.555-76.247L32.665,321.69z"/>
</g>
<g>
	
		<ellipse transform="matrix(-0.6439 -0.7651 0.7651 -0.6439 -282.8484 695.0888)" style="fill:#64798A;" cx="20.318" cy="413.361" rx="7.405" ry="1.567"/>
	
		<ellipse transform="matrix(-0.6439 -0.7651 0.7651 -0.6439 -275.057 723.919)" style="fill:#64798A;" cx="30.922" cy="425.963" rx="7.405" ry="1.567"/>
	
		<ellipse transform="matrix(-0.6439 -0.7651 0.7651 -0.6439 -266.6454 721.6911)" style="fill:#64798A;" cx="34.609" cy="422.892" rx="7.405" ry="1.567"/>
	
		<ellipse transform="matrix(-0.6439 -0.7651 0.7651 -0.6439 -274.4642 692.8518)" style="fill:#64798A;" cx="23.989" cy="410.292" rx="7.405" ry="1.567"/>
</g>
<g>
</g>
<g>
</g>
<g>
</g>
<g>
</g>
<g>
</g>
<g>
</g>
<g>
</g>
<g>
</g>
<g>
</g>
<g>
</g>
<g>
</g>
<g>
</g>
<g>
</g>
<g>
</g>
<g>
</g>
</svg>
