<?xml version="1.0" encoding="iso-8859-1"?>
<!-- Generator: Adobe Illustrator 19.0.0, SVG Export Plug-In . SVG Version: 6.00 Build 0)  -->
<svg version="1.1" id="Capa_1" xmlns="http://www.w3.org/2000/svg" xmlns:xlink="http://www.w3.org/1999/xlink" x="0px" y="0px"
	 viewBox="0 0 468.293 468.293" style="enable-background:new 0 0 468.293 468.293;" xml:space="preserve">
<path style="fill:#64798A;" d="M0,92.123V376.17c0,16.959,13.748,30.708,30.708,30.708h406.877
	c16.959,0,30.708-13.748,30.708-30.708V92.123c0-16.959-13.748-30.708-30.708-30.708H30.708C13.748,61.415,0,75.164,0,92.123z"/>
<rect x="30.708" y="92.123" style="fill:#EBF0F3;" width="406.853" height="284.035"/>
<g>
	<path style="fill:#2E9AE1;" d="M95.962,218.977v-92.905h68.886v15.716H114.72v20.596h46.642v15.653H114.72v25.286h51.902v15.653
		H95.962z"/>
	<path style="fill:#2E9AE1;" d="M173.086,218.977l31.75-48.48l-28.771-44.424h21.927l18.632,29.849l18.251-29.849h21.737
		l-28.898,45.122l31.75,47.783H236.84l-20.596-32.13l-20.66,32.13H173.086z"/>
	<path style="fill:#2E9AE1;" d="M268.526,218.977v-92.905h18.758v92.905H268.526z"/>
	<path style="fill:#2E9AE1;" d="M326.069,218.977v-77.188h-27.567v-15.716h73.829v15.716h-27.504v77.188H326.069z"/>
	<polygon style="fill:#2E9AE1;" points="331.643,288.482 258.457,234.744 258.457,264.342 136.649,264.342 136.649,312.622 
		258.457,312.622 258.457,342.221 	"/>
</g>
<g>
</g>
<g>
</g>
<g>
</g>
<g>
</g>
<g>
</g>
<g>
</g>
<g>
</g>
<g>
</g>
<g>
</g>
<g>
</g>
<g>
</g>
<g>
</g>
<g>
</g>
<g>
</g>
<g>
</g>
</svg>
