<?xml version="1.0" encoding="iso-8859-1"?>
<!-- Generator: Adobe Illustrator 19.0.0, SVG Export Plug-In . SVG Version: 6.00 Build 0)  -->
<svg version="1.1" id="Capa_1" xmlns="http://www.w3.org/2000/svg" xmlns:xlink="http://www.w3.org/1999/xlink" x="0px" y="0px"
	 viewBox="0 0 468.293 468.293" style="enable-background:new 0 0 468.293 468.293;" xml:space="preserve">
<g>
	<path style="fill:#2F4859;" d="M161.908,382.085l-38.332-38.332l-17.899,17.899l38.332,38.332c4.942,4.942,12.955,4.942,17.898,0
		C166.85,395.041,166.85,387.028,161.908,382.085z"/>
	<path style="fill:#2F4859;" d="M114.627,399.406l-23.352-23.352l-17.899,17.899l23.352,23.352c4.942,4.942,12.955,4.942,17.898,0
		C119.569,412.362,119.569,404.349,114.627,399.406z"/>
	<path style="fill:#2F4859;" d="M97.306,446.687l-38.332-38.332l-17.899,17.899l38.332,38.332c4.942,4.942,12.955,4.942,17.898,0
		C102.248,459.643,102.248,451.63,97.306,446.687z"/>
</g>
<path style="fill:#D5D6DB;" d="M313.714,119.133L16.52,416.327c-6.599,6.599-6.599,17.298,0,23.896
	c6.599,6.599,17.298,6.599,23.897,0l297.195-297.195L313.714,119.133z"/>
<path style="fill:#3A556A;" d="M414.731,140.732c-1.054-1.054-2.109-2.024-3.247-2.994c8.898-3.5,17.164-8.814,24.332-15.983
	c27.874-27.874,27.874-72.996,0-100.871C407.942-6.99,362.862-6.947,334.988,20.927c-7.169,7.169-12.483,15.434-15.983,24.332
	c-0.928-1.096-1.94-2.193-2.994-3.247c-27.875-27.875-72.997-27.874-100.871,0c-27.875,27.875-27.874,72.996,0,100.871
	c24.332,24.332,61.779,27.368,89.443,9.235c-18.133,27.663-15.055,65.153,9.277,89.485c27.874,27.874,72.996,27.875,100.871,0
	C442.606,213.728,442.606,168.606,414.731,140.732z M242.552,115.472c-12.735-12.735-12.693-33.356,0-46.05
	c12.735-12.735,33.314-12.735,46.05,0c12.693,12.693,12.693,33.272-0.042,46.007C275.866,128.123,255.245,128.165,242.552,115.472z
	 M362.356,94.344c-12.693-12.693-12.693-33.272,0.042-46.007c12.735-12.735,33.314-12.735,46.007-0.042
	c12.735,12.735,12.736,33.314,0,46.05C395.671,107.08,375.092,107.08,362.356,94.344z M341.272,214.192
	c-12.693-12.693-12.694-33.356,0-46.05c12.735-12.735,33.356-12.693,46.05,0c12.735,12.735,12.736,33.314,0,46.05
	C374.628,226.885,354.007,226.927,341.272,214.192z"/>
<g>
</g>
<g>
</g>
<g>
</g>
<g>
</g>
<g>
</g>
<g>
</g>
<g>
</g>
<g>
</g>
<g>
</g>
<g>
</g>
<g>
</g>
<g>
</g>
<g>
</g>
<g>
</g>
<g>
</g>
</svg>
