<?xml version="1.0" encoding="iso-8859-1"?>
<!-- Generator: Adobe Illustrator 19.0.0, SVG Export Plug-In . SVG Version: 6.00 Build 0)  -->
<svg version="1.1" id="Capa_1" xmlns="http://www.w3.org/2000/svg" xmlns:xlink="http://www.w3.org/1999/xlink" x="0px" y="0px"
	 viewBox="0 0 468.293 468.293" style="enable-background:new 0 0 468.293 468.293;" xml:space="preserve">
<rect x="103.399" y="199.874" style="fill:#D5D6DB;" width="261.463" height="68.546"/>
<g>
	<path style="fill:#2F4859;" d="M435.886,137.434c-17.898,0-32.408,14.509-32.408,32.407v128.611
		c0,17.898,14.51,32.407,32.408,32.407s32.407-14.509,32.407-32.407V169.841C468.293,151.943,453.784,137.434,435.886,137.434z"/>
	<path style="fill:#2F4859;" d="M371.071,108.59c-17.898,0-32.407,14.509-32.407,32.407v186.299
		c0,17.898,14.509,32.407,32.407,32.407s32.407-14.509,32.407-32.407V140.997C403.478,123.099,388.969,108.59,371.071,108.59z"/>
	<path style="fill:#2F4859;" d="M32.407,137.434c17.898,0,32.408,14.509,32.408,32.407v128.611c0,17.898-14.51,32.407-32.408,32.407
		S0,316.35,0,298.452V169.841C0,151.943,14.509,137.434,32.407,137.434z"/>
	<path style="fill:#2F4859;" d="M97.222,108.59c17.898,0,32.407,14.509,32.407,32.407v186.299c0,17.898-14.509,32.407-32.407,32.407
		s-32.407-14.509-32.407-32.407V140.997C64.815,123.099,79.324,108.59,97.222,108.59z"/>
</g>
<g>
</g>
<g>
</g>
<g>
</g>
<g>
</g>
<g>
</g>
<g>
</g>
<g>
</g>
<g>
</g>
<g>
</g>
<g>
</g>
<g>
</g>
<g>
</g>
<g>
</g>
<g>
</g>
<g>
</g>
</svg>
