<?xml version="1.0" encoding="iso-8859-1"?>
<!-- Generator: Adobe Illustrator 19.0.0, SVG Export Plug-In . SVG Version: 6.00 Build 0)  -->
<svg version="1.1" id="Capa_1" xmlns="http://www.w3.org/2000/svg" xmlns:xlink="http://www.w3.org/1999/xlink" x="0px" y="0px"
	 viewBox="0 0 468.293 468.293" style="enable-background:new 0 0 468.293 468.293;" xml:space="preserve">
<path style="fill:#FCD462;" d="M116.859,80.887c-0.051,1.55-0.146,3.054-0.378,4.552c-1.329,12.647-6.772,24.063-14.869,32.926
	c-2.038,2.261-4.297,4.332-6.687,6.216c-9.378,7.543-21.081,12.225-33.833,12.719c-1.511,0.133-3.017,0.129-4.567,0.078
	c-1.551-0.051-3.054-0.146-4.552-0.378c-12.647-1.329-24.063-6.771-32.925-14.915c-2.261-2.037-4.334-4.251-6.218-6.641
	C5.287,106.068,0.606,94.319,0.111,81.612c-0.133-1.511-0.129-3.017-0.078-4.567c0.051-1.551,0.146-3.054,0.378-4.552
	C1.741,59.8,7.182,48.43,15.326,39.568c2.037-2.261,4.252-4.379,6.642-6.264C31.344,25.806,43.093,21.126,55.8,20.63
	c1.511-0.133,3.017-0.129,4.567-0.078c1.55,0.051,3.053,0.146,4.552,0.378c12.692,1.33,24.062,6.771,32.926,14.869
	c2.261,2.037,4.378,4.298,6.262,6.688c7.497,9.376,12.18,21.079,12.673,33.832C116.914,77.83,116.91,79.336,116.859,80.887z"/>
<path style="fill:#F7BE56;" d="M116.482,85.439l-47.151-1.551l32.282,34.477c-2.038,2.261-4.297,4.332-6.687,6.216L62.645,90.105
	l-1.552,47.196c-1.511,0.133-3.017,0.129-4.567,0.078c-1.551-0.051-3.054-0.146-4.552-0.378l1.552-47.196l-34.477,32.281
	c-2.261-2.037-4.334-4.251-6.218-6.641l34.476-32.281L0.111,81.612c-0.133-1.511-0.129-3.017-0.078-4.567
	c0.051-1.551,0.146-3.054,0.378-4.552l47.196,1.552L15.326,39.568c2.037-2.261,4.252-4.379,6.642-6.264L54.249,67.78L55.8,20.63
	c1.511-0.133,3.017-0.129,4.567-0.078c1.55,0.051,3.053,0.146,4.552,0.378l-1.551,47.15l34.476-32.281
	c2.261,2.037,4.378,4.298,6.262,6.688L69.631,74.769l47.151,1.551c0.133,1.511,0.129,3.017,0.078,4.567
	C116.808,82.437,116.713,83.94,116.482,85.439z"/>
<path style="fill:#D5D6DB;" d="M289.781,398.472V297.037l178.512-213.57H69.591l178.512,213.569v101.436
	c-34.442,5.825-59.845,25.659-59.845,49.301h161.368C349.626,424.131,324.223,404.297,289.781,398.472z"/>
<polygon style="fill:#E56353;" points="134.613,161.259 247.473,296.283 290.412,296.283 403.271,161.259 "/>
<g>
</g>
<g>
</g>
<g>
</g>
<g>
</g>
<g>
</g>
<g>
</g>
<g>
</g>
<g>
</g>
<g>
</g>
<g>
</g>
<g>
</g>
<g>
</g>
<g>
</g>
<g>
</g>
<g>
</g>
</svg>
