<?xml version="1.0" encoding="iso-8859-1"?>
<!-- Generator: Adobe Illustrator 19.0.0, SVG Export Plug-In . SVG Version: 6.00 Build 0)  -->
<svg version="1.1" id="Capa_1" xmlns="http://www.w3.org/2000/svg" xmlns:xlink="http://www.w3.org/1999/xlink" x="0px" y="0px"
	 viewBox="0 0 468.247 468.247" style="enable-background:new 0 0 468.247 468.247;" xml:space="preserve">
<g>
	<path style="fill:#E3E3E3;" d="M425.774,378.774h-385c-19,0-34.9-12.4-39.5-30.8s3.5-36.8,20.3-45.8l216.2-115.6l208.1,112.3
		c17.4,9.4,25.9,28.6,21,47.8C462.074,365.874,445.574,378.774,425.774,378.774z M237.674,225.174l-200.1,107
		c-3.8,2-3.9,5.2-3.3,7.5c0.6,2.3,2.2,5.1,6.5,5.1h385c5.8,0,7.6-4,8.2-6.4c0.5-1.9,1-6.7-4.2-9.5L237.674,225.174z"/>
	<path style="fill:#E3E3E3;" d="M258.274,236.274l-20.6-10.8l-20.3,10.6l0.1-30.7c0-7.3,0.9-12.8,2.8-16.5
		c1.9-3.7,5.9-8.6,11.9-14.9l18.3-18.8c2.7-3.2,4-7.4,4-12.5s-1.4-9.3-4.3-12.7s-6.6-5.1-11.3-5.1c-4.7,0-8.6,2-11.7,6
		c-3.1,4-5,9.4-5.8,16h-42.7c2-17.9,8.5-31.9,19.6-42.1s25-15.3,41.7-15.3s30.3,4.6,40.8,13.7s15.7,21.7,15.7,37.8
		c0,7.2-0.9,12.5-2.7,16c-1.8,3.5-3.1,6-3.8,7.5c-0.7,1.5-2.4,3.8-5,6.8s-4.3,5-5.2,5.9c-4.3,4.3-8.4,8.3-12.2,12.1
		c-3.9,3.8-6.4,6.8-7.7,9.3c-1.2,2.4-1.9,6-1.9,10.9v26.8H258.274z"/>
</g>
<g>
</g>
<g>
</g>
<g>
</g>
<g>
</g>
<g>
</g>
<g>
</g>
<g>
</g>
<g>
</g>
<g>
</g>
<g>
</g>
<g>
</g>
<g>
</g>
<g>
</g>
<g>
</g>
<g>
</g>
</svg>
