<?xml version="1.0" encoding="iso-8859-1"?>
<!-- Generator: Adobe Illustrator 19.0.0, SVG Export Plug-In . SVG Version: 6.00 Build 0)  -->
<svg version="1.1" id="Capa_1" xmlns="http://www.w3.org/2000/svg" xmlns:xlink="http://www.w3.org/1999/xlink" x="0px" y="0px"
	 viewBox="0 0 468.293 468.293" style="enable-background:new 0 0 468.293 468.293;" xml:space="preserve">
<path style="fill:#E1E6E9;" d="M197.902,3.517c-4.184-4.476-11.195-4.708-15.666-0.53L58.155,118.926l0.513-38.013
	c0.081-6.121-4.814-11.155-10.936-11.236c-0.051,0-0.1,0-0.151,0c-6.051,0-10.998,4.865-11.082,10.933l-1.004,74.452l75.594,5.596
	c0.279,0.021,0.557,0.032,0.831,0.032c5.75,0,10.611-4.438,11.044-10.267c0.452-6.105-4.13-11.42-10.235-11.869l-39.948-2.96
	L197.368,19.18C201.842,15.002,202.08,7.987,197.902,3.517z"/>
<path style="fill:#F6C358;" d="M285.143,258.159l-117.438,89.371V185.776c0-32.43,26.289-58.719,58.719-58.719h0
	c32.43,0,58.719,26.289,58.719,58.719V258.159z"/>
<polygon style="fill:#64798A;" points="148.096,411.31 36.903,411.31 36.903,375.857 132.525,375.857 327.517,163.572 
	432.798,163.572 432.798,199.025 343.088,199.025 "/>
<circle style="fill:#FCD462;" cx="226.423" cy="90.125" r="31.02"/>
<polygon style="fill:#D5D6DB;" points="36.903,411.31 36.903,468.293 147.952,468.293 341.836,277.205 360.112,257.052 
	432.798,257.052 432.798,199.025 343.088,199.025 148.096,411.31 "/>
<g>
</g>
<g>
</g>
<g>
</g>
<g>
</g>
<g>
</g>
<g>
</g>
<g>
</g>
<g>
</g>
<g>
</g>
<g>
</g>
<g>
</g>
<g>
</g>
<g>
</g>
<g>
</g>
<g>
</g>
</svg>
