<?xml version="1.0" encoding="iso-8859-1"?>
<!-- Generator: Adobe Illustrator 19.0.0, SVG Export Plug-In . SVG Version: 6.00 Build 0)  -->
<svg version="1.1" id="Capa_1" xmlns="http://www.w3.org/2000/svg" xmlns:xlink="http://www.w3.org/1999/xlink" x="0px" y="0px"
	 viewBox="0 0 469.782 469.782" style="enable-background:new 0 0 469.782 469.782;" xml:space="preserve">
<circle style="fill:#3A556A;" cx="211.102" cy="435.765" r="34.017"/>
<circle style="fill:#D5D6DB;" cx="211.102" cy="435.765" r="20.218"/>
<circle style="fill:#3A556A;" cx="365.613" cy="435.765" r="34.017"/>
<circle style="fill:#D5D6DB;" cx="365.613" cy="435.765" r="20.218"/>
<path style="fill:#27A2DB;" d="M417.445,402.913H164.472c-15.529,0-28.162-12.637-28.162-28.162v-259.84l-81.89-78.279
	c-6.149-5.875-6.371-15.623-0.493-21.776c5.882-6.145,15.634-6.378,21.779-0.489l91.412,87.365v270.37h250.325
	c8.507,0,15.405,6.897,15.405,15.405C432.849,396.015,425.952,402.913,417.445,402.913z"/>
<path style="fill:#E56353;" d="M128.444,59.455l-26.013,28.398L41.999,32.498c-6.357-5.823-6.79-15.697-0.967-22.054l4.925-5.377
	c5.823-6.357,15.697-6.79,22.054-0.967L128.444,59.455z"/>
<path style="fill:#2F4859;" d="M245.106,372.104h-59.693V232.758c0-5.46,4.426-9.886,9.886-9.886h39.92
	c5.46,0,9.886,4.426,9.886,9.886V372.104z"/>
<g>
	<path style="fill:#64798A;" d="M321.326,372.104h-59.693V267.405c0-4.921,3.989-8.911,8.911-8.911h41.872
		c4.921,0,8.911,3.989,8.911,8.911V372.104z"/>
	<path style="fill:#64798A;" d="M217.57,182.435h-3.418c-4.041,0-7.317,3.276-7.317,7.317v33.12h18.052v-33.12
		C224.887,185.71,221.611,182.435,217.57,182.435z"/>
</g>
<path style="fill:#2F4859;" d="M293.189,218.058h-3.418c-4.041,0-7.317,3.276-7.317,7.317v33.12h18.052v-33.12
	C300.506,221.334,297.23,218.058,293.189,218.058z"/>
<path style="fill:#E56353;" d="M395.782,372.104h-59.693v-90.074c0-4.49,3.64-8.13,8.13-8.13h43.433c4.49,0,8.13,3.64,8.13,8.13
	V372.104z"/>
<path style="fill:#2F4859;" d="M367.644,233.462h-3.418c-4.041,0-7.317,3.276-7.317,7.317v33.12h18.052v-33.12
	C374.961,236.738,371.685,233.462,367.644,233.462z"/>
<g>
</g>
<g>
</g>
<g>
</g>
<g>
</g>
<g>
</g>
<g>
</g>
<g>
</g>
<g>
</g>
<g>
</g>
<g>
</g>
<g>
</g>
<g>
</g>
<g>
</g>
<g>
</g>
<g>
</g>
</svg>
