<?xml version="1.0" encoding="iso-8859-1"?>
<!-- Generator: Adobe Illustrator 19.0.0, SVG Export Plug-In . SVG Version: 6.00 Build 0)  -->
<svg version="1.1" id="Capa_1" xmlns="http://www.w3.org/2000/svg" xmlns:xlink="http://www.w3.org/1999/xlink" x="0px" y="0px"
	 viewBox="0 0 468.293 468.293" style="enable-background:new 0 0 468.293 468.293;" xml:space="preserve">
<path style="fill:#31978C;" d="M5.923,300.314L167.978,462.37c7.897,7.897,20.701,7.897,28.598,0L462.37,196.576
	c7.897-7.897,7.897-20.701,0-28.598L300.314,5.923c-7.897-7.897-20.701-7.897-28.598,0L5.923,271.716
	C-1.974,279.614-1.974,292.417,5.923,300.314z"/>
<path style="fill:#44C4A1;" d="M137.979,398.727l-68.412-68.412c24.466-24.466,24.466-64.132,0-88.598L241.715,69.569
	c24.466,24.466,64.132,24.466,88.598,0l68.412,68.412c-24.466,24.466-24.466,64.132,0,88.598L226.576,398.727
	C202.111,374.262,162.444,374.262,137.979,398.727z"/>
<ellipse style="fill:#31978C;" cx="234.146" cy="234.146" rx="75.114" ry="75.114"/>
<path style="fill:#44C4A1;" d="M252.737,259.203l-19.352-19.352c-7.759,4.311-14.795,6.128-21.108,5.45
	c-6.312-0.677-11.962-3.51-16.951-8.498c-5.05-5.05-7.698-10.885-7.944-17.505s2.017-12.84,6.79-18.66l-4.573-4.573l6.697-6.697
	l4.573,4.573c5.481-4.311,11.046-6.535,16.697-6.674c5.65-0.139,11.185,1.701,16.604,5.519l-10.161,13.21
	c-4.342-2.925-8.652-3.541-12.932-1.847l18.059,18.059c9.391-5.389,17.02-7.829,22.886-7.321c5.866,0.508,11.293,3.256,16.281,8.244
	c5.573,5.573,8.583,11.955,9.03,19.145c0.446,7.19-1.901,14.218-7.044,21.084l8.637,8.637l-6.697,6.697l-8.406-8.406
	c-5.974,4.68-12.286,7.02-18.937,7.02c-6.651,0-13.471-2.571-20.461-7.713l10.762-13.348c2.956,1.971,6.004,3.172,9.145,3.603
	C247.471,260.281,250.273,260.065,252.737,259.203z M204.24,210.706c-1.201,2.433-1.601,4.927-1.201,7.482
	c0.4,2.556,1.493,4.726,3.279,6.512c1.632,1.632,3.641,2.656,6.027,3.071c2.386,0.416,5.011,0.054,7.875-1.085L204.24,210.706z
	 M260.08,253.152c1.878-2.74,2.687-5.689,2.425-8.845c-0.262-3.156-1.547-5.889-3.857-8.198c-2.063-2.063-4.449-3.233-7.159-3.51
	c-2.71-0.277-5.85,0.57-9.422,2.54L260.08,253.152z"/>
<g>
</g>
<g>
</g>
<g>
</g>
<g>
</g>
<g>
</g>
<g>
</g>
<g>
</g>
<g>
</g>
<g>
</g>
<g>
</g>
<g>
</g>
<g>
</g>
<g>
</g>
<g>
</g>
<g>
</g>
</svg>
