<?xml version="1.0" encoding="iso-8859-1"?>
<!-- Generator: Adobe Illustrator 19.0.0, SVG Export Plug-In . SVG Version: 6.00 Build 0)  -->
<svg version="1.1" id="Capa_1" xmlns="http://www.w3.org/2000/svg" xmlns:xlink="http://www.w3.org/1999/xlink" x="0px" y="0px"
	 viewBox="0 0 468.28 468.28" style="enable-background:new 0 0 468.28 468.28;" xml:space="preserve">
<rect x="209.984" style="fill:#DC8744;" width="42.552" height="129.224"/>
<path style="fill:#D5D6DB;" d="M415.507,277.49c0-101.757-82.49-184.247-184.247-184.247c-101.757,0-184.247,82.49-184.247,184.247
	H415.507z"/>
<path style="fill:#2F4859;" d="M417.874,270.004H44.644c-11.967,0-21.669,9.702-21.669,21.669c0,11.967,9.701,21.669,21.669,21.669
	h373.23c11.967,0,21.669-9.701,21.669-21.669C439.543,279.705,429.841,270.004,417.874,270.004z"/>
<g>
	<circle style="fill:#EBF0F3;" cx="402.465" cy="353.53" r="14.286"/>
	<circle style="fill:#EBF0F3;" cx="431.018" cy="407.983" r="14.286"/>
	<circle style="fill:#EBF0F3;" cx="355.592" cy="353.53" r="14.286"/>
	<circle style="fill:#EBF0F3;" cx="384.189" cy="407.983" r="14.286"/>
	<circle style="fill:#EBF0F3;" cx="308.713" cy="353.53" r="14.286"/>
	<circle style="fill:#EBF0F3;" cx="337.297" cy="407.983" r="14.286"/>
	<circle style="fill:#EBF0F3;" cx="261.809" cy="353.53" r="14.286"/>
	<circle style="fill:#EBF0F3;" cx="290.406" cy="407.983" r="14.286"/>
	<circle style="fill:#EBF0F3;" cx="214.967" cy="353.53" r="14.286"/>
	<circle style="fill:#EBF0F3;" cx="243.539" cy="407.983" r="14.286"/>
	<circle style="fill:#EBF0F3;" cx="168.088" cy="353.53" r="14.286"/>
	<circle style="fill:#EBF0F3;" cx="196.66" cy="407.983" r="14.286"/>
	<circle style="fill:#EBF0F3;" cx="121.215" cy="353.53" r="14.286"/>
	<circle style="fill:#EBF0F3;" cx="149.787" cy="407.983" r="14.286"/>
	<circle style="fill:#EBF0F3;" cx="74.342" cy="353.53" r="14.286"/>
	<circle style="fill:#EBF0F3;" cx="102.914" cy="407.983" r="14.286"/>
	<circle style="fill:#EBF0F3;" cx="60.068" cy="453.994" r="14.286"/>
	<circle style="fill:#EBF0F3;" cx="106.929" cy="453.994" r="14.286"/>
	<circle style="fill:#EBF0F3;" cx="153.789" cy="453.994" r="14.286"/>
	<circle style="fill:#EBF0F3;" cx="200.681" cy="453.994" r="14.286"/>
	<circle style="fill:#EBF0F3;" cx="247.572" cy="453.994" r="14.286"/>
	<circle style="fill:#EBF0F3;" cx="294.427" cy="453.994" r="14.286"/>
	<circle style="fill:#EBF0F3;" cx="341.293" cy="453.994" r="14.286"/>
	<circle style="fill:#EBF0F3;" cx="388.185" cy="453.994" r="14.286"/>
</g>
<g>
</g>
<g>
</g>
<g>
</g>
<g>
</g>
<g>
</g>
<g>
</g>
<g>
</g>
<g>
</g>
<g>
</g>
<g>
</g>
<g>
</g>
<g>
</g>
<g>
</g>
<g>
</g>
<g>
</g>
</svg>
