<?xml version="1.0" encoding="iso-8859-1"?>
<!-- Generator: Adobe Illustrator 19.0.0, SVG Export Plug-In . SVG Version: 6.00 Build 0)  -->
<svg version="1.1" id="Capa_1" xmlns="http://www.w3.org/2000/svg" xmlns:xlink="http://www.w3.org/1999/xlink" x="0px" y="0px"
	 viewBox="0 0 468.293 468.293" style="enable-background:new 0 0 468.293 468.293;" xml:space="preserve">
<polygon style="fill:#2F4859;" points="354.039,431.229 114.258,431.229 156.325,367.489 311.972,367.489 "/>
<polygon style="fill:#64798A;" points="398.882,221.307 246.766,221.307 246.766,137.173 398.882,137.173 468.293,181.342 "/>
<path style="fill:#E56353;" d="M270.959,73.87c0-20.298-16.514-36.806-36.813-36.806S197.34,53.572,197.34,73.87
	c0,15.86,10.098,29.365,24.186,34.531v259.088h25.241V108.402C260.858,103.236,270.959,89.73,270.959,73.87z M234.146,91.747
	c-9.86,0-17.877-8.017-17.877-17.877s8.017-17.876,17.877-17.876s17.883,8.017,17.883,17.876S244.006,91.747,234.146,91.747z"/>
<polygon style="fill:#3A556A;" points="69.41,310.665 221.526,310.665 221.526,226.531 69.41,226.531 0,270.7 "/>
<g>
</g>
<g>
</g>
<g>
</g>
<g>
</g>
<g>
</g>
<g>
</g>
<g>
</g>
<g>
</g>
<g>
</g>
<g>
</g>
<g>
</g>
<g>
</g>
<g>
</g>
<g>
</g>
<g>
</g>
</svg>
