<?xml version="1.0" encoding="iso-8859-1"?>
<!-- Generator: Adobe Illustrator 19.0.0, SVG Export Plug-In . SVG Version: 6.00 Build 0)  -->
<svg version="1.1" id="Capa_1" xmlns="http://www.w3.org/2000/svg" xmlns:xlink="http://www.w3.org/1999/xlink" x="0px" y="0px"
	 viewBox="0 0 468.293 468.293" style="enable-background:new 0 0 468.293 468.293;" xml:space="preserve">
<path style="fill:#D5D6DB;" d="M405.779,0H224.834c-12.78,0-23.14,10.36-23.14,23.139v248.602c0,12.779,10.36,23.139,23.14,23.139
	h180.945c12.779,0,23.139-10.36,23.139-23.139V23.139C428.918,10.36,418.558,0,405.779,0z"/>
<g>
	<polygon style="fill:#D15241;" points="386.11,40.324 397.257,21.947 409.006,40.324 397.558,59.003 	"/>
	<polygon style="fill:#D15241;" points="386.11,256.516 397.257,238.139 409.006,256.516 397.558,275.194 	"/>
</g>
<path style="fill:#E1E6E9;" d="M337.293,57.613H151.674c-20.236,0-36.641,16.405-36.641,36.641v262.708
	c0,20.236,16.405,36.641,36.641,36.641h185.619c20.236,0,36.64-16.405,36.64-36.641V94.254
	C373.933,74.017,357.529,57.613,337.293,57.613z"/>
<polygon style="fill:#64798A;" points="183.498,224.805 242.879,126.907 305.469,224.805 244.484,324.309 "/>
<g>
	<polygon style="fill:#E56353;" points="325.158,103.559 337.859,82.62 351.246,103.559 338.202,124.841 	"/>
	<polygon style="fill:#E56353;" points="138.912,103.559 151.613,82.62 165,103.559 151.956,124.841 	"/>
	<polygon style="fill:#E56353;" points="325.158,349.889 337.859,328.951 351.246,349.889 338.202,371.172 	"/>
	<polygon style="fill:#E56353;" points="138.912,349.889 151.613,328.951 165,349.889 151.956,371.172 	"/>
</g>
<polygon style="fill:#DC8744;" points="204.608,225.083 243.434,161.073 284.359,225.083 244.484,290.143 "/>
<polygon style="fill:#EBF0F3;" points="39.374,288.196 132.491,244.942 230.731,288.196 135.053,337.533 "/>
<polygon style="fill:#E1E6E9;" points="39.374,288.196 39.374,420.744 135.053,468.293 135.053,337.533 "/>
<polygon style="fill:#D5D6DB;" points="230.731,288.196 230.731,412.819 135.053,468.293 135.053,337.533 "/>
<ellipse style="fill:#27A2DB;" cx="136.454" cy="291.84" rx="34.872" ry="19.425"/>
<ellipse style="fill:#FCD462;" cx="85.935" cy="374.946" rx="21.791" ry="41.541"/>
<ellipse style="fill:#E56353;" cx="182.89" cy="378.256" rx="17.745" ry="39.068"/>
<g>
</g>
<g>
</g>
<g>
</g>
<g>
</g>
<g>
</g>
<g>
</g>
<g>
</g>
<g>
</g>
<g>
</g>
<g>
</g>
<g>
</g>
<g>
</g>
<g>
</g>
<g>
</g>
<g>
</g>
</svg>
