<?xml version="1.0" encoding="iso-8859-1"?>
<!-- Generator: Adobe Illustrator 19.0.0, SVG Export Plug-In . SVG Version: 6.00 Build 0)  -->
<svg version="1.1" id="Capa_1" xmlns="http://www.w3.org/2000/svg" xmlns:xlink="http://www.w3.org/1999/xlink" x="0px" y="0px"
	 viewBox="0 0 468.318 468.318" style="enable-background:new 0 0 468.318 468.318;" xml:space="preserve">
<path style="fill:#D5D6DB;" d="M431.193,175.96H37.124c-11.736,0-21.249,9.513-21.249,21.249v241.464h436.567V197.209
	C452.442,185.474,442.928,175.96,431.193,175.96z"/>
<g>
	<rect x="46.779" y="438.697" style="fill:#64798A;" width="25.756" height="29.621"/>
	<rect x="394.502" y="438.697" style="fill:#64798A;" width="25.756" height="29.621"/>
</g>
<path style="fill:#DC8744;" d="M390.484,236.487H77.832c-7.035,0-12.736,5.702-12.736,12.736v189.45h338.126v-189.45
	C403.221,242.189,397.519,236.487,390.484,236.487z"/>
<rect x="113.065" y="145.964" style="fill:#3A556A;" width="55.452" height="17.583"/>
<path style="fill:#64798A;" d="M234.423,0H47.166c-3.056,0-5.532,2.477-5.532,5.532v115.093h198.322V5.532
	C239.955,2.477,237.479,0,234.423,0z"/>
<rect x="52.449" y="10.821" style="fill:#2D93BA;" width="176.702" height="109.805"/>
<path style="fill:#64798A;" d="M41.633,120.626v21.688c0,3.055,2.477,5.532,5.532,5.532h187.257c3.056,0,5.532-2.477,5.532-5.532
	v-21.688H41.633z"/>
<circle style="fill:#EBF0F3;" cx="140.813" cy="134.238" r="7.518"/>
<path style="fill:#64798A;" d="M175.247,162.293h-68.905c-6.952,0-12.588,5.636-12.588,12.588v0h94.082v0
	C187.835,167.93,182.199,162.293,175.247,162.293z"/>
<g>
	<polygon style="fill:#27A2DB;" points="229.138,10.818 135.987,120.626 113.068,120.626 205.7,10.818 	"/>
	<polygon style="fill:#27A2DB;" points="165.435,10.818 75.889,120.626 57.259,120.626 143.199,10.818 	"/>
</g>
<path style="fill:#64798A;" d="M333.319,344.985h-65.037v-25.112c0-9.236,7.508-16.744,16.744-16.744h31.549
	c9.236,0,16.744,7.508,16.744,16.744V344.985z M279.873,333.395h41.856v-13.522c0-2.845-2.309-5.154-5.154-5.154h-31.549
	c-2.845,0-5.154,2.309-5.154,5.154V333.395z"/>
<path style="fill:#3A556A;" d="M358.109,324.058H243.495c-6.579,0-11.913,5.333-11.913,11.912v92.4
	c0,5.69,4.613,10.303,10.304,10.303H359.72c5.69,0,10.302-4.613,10.302-10.303v-92.4
	C370.022,329.391,364.689,324.058,358.109,324.058z"/>
<g>
</g>
<g>
</g>
<g>
</g>
<g>
</g>
<g>
</g>
<g>
</g>
<g>
</g>
<g>
</g>
<g>
</g>
<g>
</g>
<g>
</g>
<g>
</g>
<g>
</g>
<g>
</g>
<g>
</g>
</svg>
