<?xml version="1.0" encoding="iso-8859-1"?>
<!-- Generator: Adobe Illustrator 19.0.0, SVG Export Plug-In . SVG Version: 6.00 Build 0)  -->
<svg version="1.1" id="Capa_1" xmlns="http://www.w3.org/2000/svg" xmlns:xlink="http://www.w3.org/1999/xlink" x="0px" y="0px"
	 viewBox="0 0 468.293 468.293" style="enable-background:new 0 0 468.293 468.293;" xml:space="preserve">
<path style="fill:#2F4859;" d="M185.526,58.463V46.816c0-15.487,8.308-26.282,15.768-26.282h65.705
	c7.46,0,15.768,10.795,15.768,26.282v11.647H303.3V46.816C303.3,20.567,287.355,0,266.999,0h-65.705
	c-20.357,0-36.302,20.567-36.302,46.816v11.647H185.526z"/>
<polygon style="fill:#64798A;" points="56.473,81.575 108.987,468.293 359.306,468.293 411.82,81.575 "/>
<path style="fill:#3A556A;" d="M379.165,50.479H89.127c-28.351,0-51.334,22.983-51.334,51.334H430.5
	C430.5,73.462,407.517,50.479,379.165,50.479z"/>
<g>
	<path style="fill:#2F4859;" d="M335.067,153.02c-7.466-1.036-14.424,4.104-15.507,11.59l-33.083,228.705
		c-1.083,7.48,4.107,14.424,11.59,15.507c0.662,0.094,1.323,0.14,1.975,0.14c6.694,0,12.546-4.913,13.532-11.731l33.083-228.705
		C347.74,161.048,342.55,154.103,335.067,153.02z"/>
	<path style="fill:#2F4859;" d="M234.146,152.88c-7.56,0-13.689,6.129-13.689,13.689v228.705c0,7.56,6.129,13.689,13.689,13.689
		c7.56,0,13.689-6.129,13.689-13.689V166.569C247.835,159.009,241.706,152.88,234.146,152.88z"/>
	<path style="fill:#2F4859;" d="M148.733,164.61c-1.079-7.48-8.028-12.64-15.507-11.59c-7.483,1.083-12.673,8.028-11.59,15.507
		l33.083,228.705c0.986,6.818,6.838,11.731,13.532,11.731c0.652,0,1.313-0.047,1.975-0.14c7.483-1.083,12.673-8.028,11.59-15.507
		L148.733,164.61z"/>
</g>
<g>
</g>
<g>
</g>
<g>
</g>
<g>
</g>
<g>
</g>
<g>
</g>
<g>
</g>
<g>
</g>
<g>
</g>
<g>
</g>
<g>
</g>
<g>
</g>
<g>
</g>
<g>
</g>
<g>
</g>
</svg>
