<?xml version="1.0" encoding="iso-8859-1"?>
<!-- Generator: Adobe Illustrator 19.0.0, SVG Export Plug-In . SVG Version: 6.00 Build 0)  -->
<svg version="1.1" id="Capa_1" xmlns="http://www.w3.org/2000/svg" xmlns:xlink="http://www.w3.org/1999/xlink" x="0px" y="0px"
	 viewBox="0 0 468.293 468.293" style="enable-background:new 0 0 468.293 468.293;" xml:space="preserve">
<path style="fill:#D5D6DB;" d="M290.668,0c-14.713,0-26.642,11.926-26.642,26.639c0,14.716,11.929,26.642,26.642,26.642
	c14.713,0,26.639-11.926,26.639-26.642C317.307,11.926,305.381,0,290.668,0z"/>
<path style="fill:#CE412D;" d="M397.614,205.663l0,245.711c0,9.344-7.575,16.919-16.919,16.919H201.055
	c-9.344,0-16.919-7.575-16.919-16.919V202.805c0-58.266,46.687-105.617,104.695-106.691
	C348.652,95.007,397.614,145.831,397.614,205.663z"/>
<rect x="184.139" y="219.467" style="fill:#E56353;" width="213.479" height="190.127"/>
<g>
	<path style="fill:#E1E6E9;" d="M284.686,66.948H176.795c-56.132,0-101.636,45.504-101.636,101.636v134.234
		c0,4.945,4.012,8.957,8.957,8.957c4.945,0,8.957-4.012,8.957-8.957V168.59c0-46.242,37.486-83.728,83.728-83.728h107.885V66.948z"
		/>
	<path style="fill:#E1E6E9;" d="M351.166,75.429c33.451-12.411,73.206-30.172,78.351-45.998c1.528-4.706-1.038-9.785-5.744-11.313
		c-4.718-1.505-9.744,1.021-11.278,5.726c-3.217,7.757-39.857,25.256-83.553,40.447v22.276
		c43.69,15.187,80.327,32.679,83.535,40.394c1.23,3.785,4.741,6.187,8.52,6.187c0.916,0,1.849-0.14,2.77-0.437
		c4.7-1.528,7.278-6.584,5.75-11.29C424.372,105.595,384.617,87.837,351.166,75.429z"/>
</g>
<g>
	<path style="fill:#CE412D;" d="M243.435,46.928v60.328H337.9V46.928c0-11.204-9.083-20.287-20.287-20.287h-53.891
		C252.517,26.641,243.435,35.723,243.435,46.928z"/>
	<path style="fill:#CE412D;" d="M96.043,289.648H72.188c-6.972,0-12.974,4.922-14.34,11.759l-19.514,97.716h91.562l-19.514-97.716
		C109.018,294.57,103.015,289.648,96.043,289.648z"/>
</g>
<path style="fill:#64798A;" d="M84.115,385.688c-25.284,0-45.781,6.015-45.781,13.436c0,7.42,20.497,13.434,45.781,13.434
	c25.285,0,45.781-6.014,45.781-13.434C129.896,391.703,109.4,385.688,84.115,385.688z"/>
<g>
</g>
<g>
</g>
<g>
</g>
<g>
</g>
<g>
</g>
<g>
</g>
<g>
</g>
<g>
</g>
<g>
</g>
<g>
</g>
<g>
</g>
<g>
</g>
<g>
</g>
<g>
</g>
<g>
</g>
</svg>
