<?xml version="1.0" encoding="iso-8859-1"?>
<!-- Generator: Adobe Illustrator 19.0.0, SVG Export Plug-In . SVG Version: 6.00 Build 0)  -->
<svg version="1.1" id="Capa_1" xmlns="http://www.w3.org/2000/svg" xmlns:xlink="http://www.w3.org/1999/xlink" x="0px" y="0px"
	 viewBox="0 0 468.385 468.385" style="enable-background:new 0 0 468.385 468.385;" xml:space="preserve">
<ellipse transform="matrix(-0.2567 -0.9665 0.9665 -0.2567 297.7934 490.6418)" style="fill:#FCD462;" cx="337.572" cy="130.805" rx="130.772" ry="130.779"/>
<ellipse style="fill:#F7BE56;" cx="337.57" cy="130.806" rx="108.469" ry="108.469"/>
<g>
	<path style="fill:#FCD462;" d="M332.003,168.22v-33.172c-10.345-2.956-17.932-7.429-22.761-13.419s-7.244-13.261-7.244-21.811
		c0-8.656,2.731-15.926,8.194-21.811c5.463-5.885,12.733-9.276,21.811-10.173v-7.838h11.48v7.838
		c8.392,1.003,15.069,3.866,20.03,8.59s8.128,11.044,9.5,18.961l-20.03,2.613c-1.214-6.228-4.381-10.45-9.5-12.667v30.955
		c12.667,3.431,21.297,7.877,25.888,13.34c4.592,5.463,6.888,12.469,6.888,21.019c0,9.553-2.89,17.602-8.669,24.147
		c-5.779,6.545-13.815,10.556-24.107,12.034v14.805h-11.48v-14.409c-9.131-1.108-16.546-4.513-22.247-10.213
		s-9.342-13.749-10.925-24.147l20.663-2.217c0.844,4.222,2.428,7.864,4.75,10.925S329.153,166.848,332.003,168.22z M332.003,85.093
		c-3.114,1.056-5.595,2.85-7.442,5.384c-1.847,2.533-2.771,5.331-2.771,8.392c0,2.797,0.844,5.397,2.533,7.798
		c1.689,2.401,4.249,4.341,7.679,5.819V85.093z M343.483,169.329c3.958-0.739,7.178-2.573,9.659-5.502s3.721-6.373,3.721-10.332
		c0-3.536-1.042-6.584-3.127-9.144c-2.085-2.56-5.502-4.526-10.252-5.898V169.329z"/>
	
		<ellipse transform="matrix(-0.2567 -0.9665 0.9665 -0.2567 -161.882 550.6566)" style="fill:#FCD462;" cx="130.813" cy="337.58" rx="130.772" ry="130.779"/>
</g>
<ellipse style="fill:#F7BE56;" cx="130.811" cy="337.58" rx="108.469" ry="108.469"/>
<path style="fill:#FCD462;" d="M137.927,381.757c-8.725,0-16.445-9.327-20.599-22.697h20.145v-12.591h-22.869
	c-0.334-2.89-0.516-5.87-0.516-8.914c0-3.045,0.183-6.024,0.516-8.914h22.869v-12.591h-20.145
	c4.154-13.371,11.874-22.697,20.599-22.697c6.762,0,11.902,5.889,14.361,9.394l10.304-7.23
	c-6.664-9.517-15.418-14.755-24.665-14.755c-15.508,0-28.427,14.42-33.768,35.288H92.877v12.591h9.179
	c-0.286,2.92-0.559,5.851-0.559,8.914c0,3.063,0.274,5.994,0.559,8.914h-9.179v12.591h11.283
	c5.341,20.868,18.26,35.288,33.768,35.288c9.246,0,18-5.238,24.665-14.754l-10.304-7.23
	C149.829,375.868,144.69,381.757,137.927,381.757z"/>
<g>
	<path style="fill:#E56353;" d="M175.606,81.309l-55.024-50.052v18.648c-55.143,2.44-89.335,44.172-89.335,95.355
		c0,10.71,1.935,21.019,5.495,30.641c13.346-36.341,40.227-62.837,83.84-64.761v20.221L175.606,81.309z"/>
	<path style="fill:#E56353;" d="M292.742,387.059l55.024,50.052v-18.648c55.143-2.44,89.335-44.172,89.335-95.355
		c0-10.71-1.935-21.019-5.495-30.641c-13.346,36.341-40.227,62.836-83.84,64.761v-20.221L292.742,387.059z"/>
</g>
<g>
</g>
<g>
</g>
<g>
</g>
<g>
</g>
<g>
</g>
<g>
</g>
<g>
</g>
<g>
</g>
<g>
</g>
<g>
</g>
<g>
</g>
<g>
</g>
<g>
</g>
<g>
</g>
<g>
</g>
</svg>
