<?xml version="1.0" encoding="iso-8859-1"?>
<!-- Generator: Adobe Illustrator 19.0.0, SVG Export Plug-In . SVG Version: 6.00 Build 0)  -->
<svg version="1.1" id="Capa_1" xmlns="http://www.w3.org/2000/svg" xmlns:xlink="http://www.w3.org/1999/xlink" x="0px" y="0px"
	 viewBox="0 0 468.293 468.293" style="enable-background:new 0 0 468.293 468.293;" xml:space="preserve">
<path style="fill:#64798A;" d="M0,197.97c0,81.717,47.11,160.815,115.634,194.88c9.487,4.716,20.009,6.999,30.603,6.999h123.863
	c10.594,0,21.117-2.283,30.604-6.999c68.523-34.065,115.632-113.163,115.632-194.88H0z"/>
<path style="fill:#3A556A;" d="M316.66,387.213H99.676c-6.977,0-12.638,5.661-12.638,12.638c0,6.977,5.661,12.638,12.638,12.638
	H316.66c6.977,0,12.638-5.661,12.638-12.638C329.299,392.874,323.638,387.213,316.66,387.213z"/>
<path style="fill:#64798A;" d="M464.331,230.154c-4.715-7.175-12.795-11.454-21.599-11.454h-45.674v16.851h45.674
	c3.118,0,5.924,1.44,7.512,3.859c0.798,1.21,1.934,3.686,0.617,6.731l-17.946,41.56c-13.247,30.675-43.19,51.311-77.707,54.215
	v-13.511h-16.851v30.716h8.426c44.745,0,84.627-25.409,101.601-64.739l17.946-41.56
	C469.531,245.409,468.782,236.934,464.331,230.154z"/>
<path style="fill:#FFFFFF;" d="M130.63,362.669c-26.508-9.488-48.984-29.161-65.213-52.288
	c-16.133-23.292-26.723-50.711-28.563-78.704c8.416,26.635,19.833,51.588,35.47,73.885
	C87.833,327.918,107.304,347.269,130.63,362.669z"/>
<g>
	<path style="fill:#EBF0F3;" d="M173.497,164.48c-1.777,0-3.569-0.6-5.046-1.831c-3.339-2.792-3.777-7.762-0.992-11.1
		c8.885-10.623,7.469-26.485-3.154-35.362c-8.369-7-13.516-16.846-14.485-27.716c-0.977-10.869,2.346-21.47,9.346-29.847
		c2.792-3.323,7.746-3.785,11.1-0.992c3.339,2.792,3.777,7.762,0.992,11.1c-8.885,10.623-7.469,26.485,3.154,35.362
		c8.369,7,13.516,16.846,14.485,27.716c0.977,10.869-2.346,21.47-9.346,29.847C177.989,163.518,175.751,164.48,173.497,164.48z"/>
	<path style="fill:#EBF0F3;" d="M122.692,164.48c-1.777,0-3.569-0.6-5.046-1.831c-3.339-2.792-3.777-7.762-0.992-11.1
		c8.885-10.623,7.469-26.485-3.154-35.362c-8.369-7-13.516-16.846-14.485-27.716c-0.977-10.869,2.346-21.47,9.346-29.847
		c2.792-3.323,7.746-3.785,11.1-0.992c3.339,2.792,3.777,7.762,0.992,11.1c-8.885,10.623-7.469,26.485,3.154,35.362
		c8.369,7,13.516,16.846,14.485,27.716c0.977,10.869-2.346,21.47-9.346,29.847C127.184,163.518,124.946,164.48,122.692,164.48z"/>
	<path style="fill:#EBF0F3;" d="M224.302,164.48c-1.777,0-3.569-0.6-5.046-1.831c-3.339-2.792-3.777-7.762-0.992-11.1
		c8.885-10.623,7.469-26.485-3.154-35.362c-8.369-7-13.516-16.846-14.485-27.716c-0.977-10.869,2.346-21.47,9.346-29.847
		c2.792-3.323,7.746-3.785,11.1-0.992c3.339,2.792,3.777,7.762,0.992,11.1c-8.885,10.623-7.469,26.485,3.154,35.362
		c8.369,7,13.516,16.846,14.485,27.716c0.977,10.869-2.346,21.47-9.346,29.847C228.794,163.518,226.556,164.48,224.302,164.48z"/>
	<path style="fill:#EBF0F3;" d="M275.107,164.48c-1.777,0-3.569-0.6-5.046-1.831c-3.339-2.792-3.777-7.762-0.992-11.1
		c8.885-10.623,7.469-26.485-3.154-35.362c-8.369-7-13.516-16.846-14.485-27.716c-0.977-10.869,2.346-21.47,9.346-29.847
		c2.792-3.323,7.746-3.785,11.1-0.992c3.339,2.792,3.777,7.762,0.992,11.1c-8.885,10.623-7.469,26.485,3.154,35.362
		c8.369,7,13.516,16.846,14.485,27.716c0.977,10.869-2.346,21.47-9.346,29.847C279.599,163.518,277.36,164.48,275.107,164.48z"/>
</g>
<g>
</g>
<g>
</g>
<g>
</g>
<g>
</g>
<g>
</g>
<g>
</g>
<g>
</g>
<g>
</g>
<g>
</g>
<g>
</g>
<g>
</g>
<g>
</g>
<g>
</g>
<g>
</g>
<g>
</g>
</svg>
