<?xml version="1.0" encoding="iso-8859-1"?>
<!-- Generator: Adobe Illustrator 19.0.0, SVG Export Plug-In . SVG Version: 6.00 Build 0)  -->
<svg version="1.1" id="Capa_1" xmlns="http://www.w3.org/2000/svg" xmlns:xlink="http://www.w3.org/1999/xlink" x="0px" y="0px"
	 viewBox="0 0 468.305 468.305" style="enable-background:new 0 0 468.305 468.305;" xml:space="preserve">
<path style="fill:#2D93BA;" d="M468.293,47.998v223.787c0,15.592-12.652,28.188-28.189,28.188H101.621
	c-15.592,0-28.243-12.596-28.243-28.188V47.998c0-15.592,12.651-28.244,28.243-28.244h338.482
	C455.641,19.754,468.293,32.406,468.293,47.998z"/>
<rect x="73.378" y="73.41" style="fill:#D5D6DB;" width="394.927" height="52.049"/>
<path style="fill:#2E9AE1;" d="M394.914,196.576v223.787c0,15.592-12.652,28.188-28.189,28.188H28.243
	C12.651,448.551,0,435.955,0,420.363V196.576c0-15.592,12.651-28.244,28.243-28.244h338.483
	C382.263,168.332,394.914,180.983,394.914,196.576z"/>
<rect y="221.977" style="fill:#D5D6DB;" width="394.927" height="52.049"/>
<circle style="fill:#E56353;" cx="298.334" cy="380.51" r="26.705"/>
<g>
	<circle style="fill:#FCD462;" cx="331.239" cy="380.51" r="26.705"/>
	<path style="fill:#FCD462;" d="M199.471,398.225H42.493c-3.065,0-5.549-2.484-5.549-5.549l0,0c0-3.065,2.484-5.549,5.549-5.549
		h156.978c3.065,0,5.549,2.484,5.549,5.549l0,0C205.02,395.741,202.536,398.225,199.471,398.225z"/>
	<path style="fill:#FCD462;" d="M137.171,373.949H42.493c-3.065,0-5.549-2.484-5.549-5.549v0c0-3.065,2.484-5.549,5.549-5.549
		h94.678c3.065,0,5.549,2.484,5.549,5.549v0C142.72,371.464,140.235,373.949,137.171,373.949z"/>
</g>
<g>
</g>
<g>
</g>
<g>
</g>
<g>
</g>
<g>
</g>
<g>
</g>
<g>
</g>
<g>
</g>
<g>
</g>
<g>
</g>
<g>
</g>
<g>
</g>
<g>
</g>
<g>
</g>
<g>
</g>
</svg>
