<?xml version="1.0" encoding="iso-8859-1"?>
<!-- Generator: Adobe Illustrator 19.0.0, SVG Export Plug-In . SVG Version: 6.00 Build 0)  -->
<svg version="1.1" id="Capa_1" xmlns="http://www.w3.org/2000/svg" xmlns:xlink="http://www.w3.org/1999/xlink" x="0px" y="0px"
	 viewBox="0 0 468.293 468.293" style="enable-background:new 0 0 468.293 468.293;" xml:space="preserve">
<path style="fill:#F7BE56;" d="M467.417,214.31C457.401,94.221,356.761,0,234.146,0C125.922,0,34.909,73.414,8.072,173.081
	C2.821,192.529,0,213.046,0,234.147c0,129.325,104.821,234.146,234.146,234.146s234.146-104.822,234.146-234.146
	C468.293,227.438,468.001,220.824,467.417,214.31z M234.146,326.521c-51.017,0-92.375-41.359-92.375-92.374
	c0-51.018,41.357-92.375,92.375-92.375s92.375,41.357,92.375,92.375C326.521,285.162,285.163,326.521,234.146,326.521z"/>
<path style="fill:#DC8744;" d="M467.417,214.31c-10.89,1.263-21.975,1.363-32.963,1.363c-11.085,0.095-22.461,0.095-32.671-4.183
	c-8.848-3.694-16.14-10.308-24.212-15.556c-7.974-5.154-17.795-9.142-27.032-6.611c-8.945,2.431-15.169,10.111-20.808,17.403
	c-1.848,2.334-3.696,4.764-5.446,7.098c-9.237-41.228-46.09-72.051-90.138-72.051c-51.049,0-92.375,41.326-92.375,92.375
	c0,17.308,4.667,33.351,12.836,47.161c-1.363,15.07-2.723,30.142-4.084,45.311c-1.069,10.794-3.403,23.725-13.419,28.1
	c-6.223,2.626-13.613,0.876-19.155-2.915c-5.543-3.891-9.432-9.629-12.933-15.364c-14.78-23.92-24.017-51.244-26.837-79.247
	c-1.263-12.449-1.652-25.866-9.529-35.59c-4.667-5.735-12.057-10.113-13.612-17.406c-1.46-6.806,2.624-14.488-0.681-20.71
	c-3.89-7.195-14.196-6.514-22.462-6.319c-8.168,0.095-16.14-1.363-23.822-4.086C34.909,73.414,125.922,0,234.146,0
	C356.762,0,457.401,94.222,467.417,214.31z"/>
<g>
</g>
<g>
</g>
<g>
</g>
<g>
</g>
<g>
</g>
<g>
</g>
<g>
</g>
<g>
</g>
<g>
</g>
<g>
</g>
<g>
</g>
<g>
</g>
<g>
</g>
<g>
</g>
<g>
</g>
</svg>
