<?xml version="1.0" encoding="iso-8859-1"?>
<!-- Generator: Adobe Illustrator 19.0.0, SVG Export Plug-In . SVG Version: 6.00 Build 0)  -->
<svg version="1.1" id="Capa_1" xmlns="http://www.w3.org/2000/svg" xmlns:xlink="http://www.w3.org/1999/xlink" x="0px" y="0px"
	 viewBox="0 0 468.293 468.293" style="enable-background:new 0 0 468.293 468.293;" xml:space="preserve">
<path style="fill:#2F4859;" d="M371.6,292.194c-45.413,14.538-90.666,22.521-135.762,23.367v0.106
	c-0.581-0.053-1.11-0.053-1.639-0.053c-0.581,0-1.163,0-1.692,0.053v-0.106c-45.095-0.845-90.349-8.828-135.814-23.367
	c15.226-41.712,25.217-89.081,29.553-142.634c1.216-15.015,1.956-30.557,2.273-46.629c0.529-28.653,12.635-54.347,31.72-72.956
	c9.463-9.199,20.618-16.6,32.936-21.78c5.551-2.326,11.314-4.177,17.287-5.498C218.128,0.898,226.058,0,234.199,0
	c1.322,0,2.59,0,3.912,0.053c0,0,0-0.053,0.053,0c40.602,1.533,75.705,26.01,91.988,60.955c0.476,1.004,0.952,2.061,1.375,3.119
	c5.128,11.948,7.983,25.059,8.3,38.804C341.201,176.046,352.198,238.745,371.6,292.194z"/>
<path style="fill:#E56353;" d="M403.32,280.246v188.046H64.973V280.458c0-14.75,9.728-27.914,24.001-31.879
	c8.67-2.432,17.34-4.652,25.905-6.608c9.146-2.168,18.186-4.018,27.174-5.657c0.317-0.053,0.581-0.106,0.899-0.159
	c1.216-0.211,2.379-0.423,3.595-0.634c13.323-2.326,26.486-4.071,39.544-5.34c2.802-0.265,5.604-0.529,8.406-0.688
	c27.015-2.273,53.501-2.273,79.459-0.211c2.802,0.158,5.656,0.423,8.459,0.687c13.27,1.216,26.433,2.961,39.439,5.234
	c1.269,0.212,2.485,0.423,3.753,0.634c0.212,0.053,0.423,0.053,0.634,0.106c9.093,1.639,18.186,3.489,27.174,5.604
	c8.776,2.115,17.499,4.388,26.169,6.873C393.698,252.491,403.32,265.549,403.32,280.246z"/>
<path style="fill:#FCD462;" d="M193.633,165.036v77.34c0,36.491,14.496,71.488,40.299,97.291h0
	c25.803-25.804,40.3-60.801,40.3-97.291v-77.34H193.633z"/>
<g>
	<path style="fill:#CE412D;" d="M321.799,235.535l-41.501,110.302l-46.205-49.792l-46.205,49.792L146.493,235.87
		c13.322-2.456,26.486-4.298,39.544-5.638c2.802-0.279,5.604-0.559,8.406-0.726c11.895,21.268,25.217,40.024,39.65,56.77
		c14.485-16.801,27.914-35.614,39.809-56.993c2.802,0.167,5.656,0.446,8.459,0.726C295.63,231.292,308.794,233.135,321.799,235.535z
		"/>
	<rect x="208.815" y="296.042" style="fill:#CE412D;" width="50.663" height="97.811"/>
</g>
<path style="fill:#EBF0F3;" d="M353.414,241.547v226.745H114.879V241.971c9.146-2.168,18.186-4.018,27.174-5.657v139.04H326.24
	V235.944C335.333,237.582,344.426,239.433,353.414,241.547z"/>
<path style="fill:#E56353;" d="M234.093,330.649c-3.949,0-7.15,3.202-7.15,7.151c0,3.949,3.201,7.15,7.15,7.15
	c3.949,0,7.151-3.201,7.151-7.15C241.244,333.851,238.043,330.649,234.093,330.649z"/>
<ellipse style="fill:#F7BE56;" cx="237.487" cy="120.414" rx="83" ry="97.392"/>
<g>
	<path style="fill:#2F4859;" d="M217.739,23.028c0,7.254-0.461,14.335-1.439,21.243c-7.196,53.253-40.99,95.395-84.111,105.297
		c1.209-15.026,1.957-30.57,2.303-46.632c0.518-28.671,12.608-54.347,31.722-72.943c9.442-9.211,20.61-16.637,32.931-21.82
		c5.527-2.302,11.284-4.145,17.271-5.469C217.278,9.326,217.739,16.12,217.739,23.028z"/>
	<path style="fill:#2F4859;" d="M331.527,64.127c-13.481,8.459-29.394,13.375-46.523,13.375c-27.913,0-52.708-12.952-68.727-33.253
		c-8.247-10.362-14.274-22.68-17.129-36.055c5.498-2.326,11.261-4.177,17.288-5.498c6.978-1.639,14.274-2.537,21.675-2.643
		c0,0,0-0.053,0.053,0c40.602,1.533,75.705,26.01,91.988,60.955C330.628,62.012,331.104,63.07,331.527,64.127z"/>
</g>
<g>
</g>
<g>
</g>
<g>
</g>
<g>
</g>
<g>
</g>
<g>
</g>
<g>
</g>
<g>
</g>
<g>
</g>
<g>
</g>
<g>
</g>
<g>
</g>
<g>
</g>
<g>
</g>
<g>
</g>
</svg>
