<?xml version="1.0" encoding="iso-8859-1"?>
<!-- Generator: Adobe Illustrator 19.0.0, SVG Export Plug-In . SVG Version: 6.00 Build 0)  -->
<svg version="1.1" id="Capa_1" xmlns="http://www.w3.org/2000/svg" xmlns:xlink="http://www.w3.org/1999/xlink" x="0px" y="0px"
	 viewBox="0 0 468.293 468.293" style="enable-background:new 0 0 468.293 468.293;" xml:space="preserve">
<g>
	<path style="fill:#2F4859;" d="M112.116,62.208c0-5.865-4.755-10.62-10.62-10.62H38.839c-5.866,0-10.62,4.755-10.62,10.62
		c0,5.865,4.754,10.62,10.62,10.62h62.657C107.361,72.827,112.116,68.073,112.116,62.208L112.116,62.208z"/>
	<path style="fill:#2F4859;" d="M112.116,130.983c0-5.865-4.755-10.62-10.62-10.62H38.839c-5.866,0-10.62,4.755-10.62,10.62
		c0,5.865,4.754,10.62,10.62,10.62h62.657C107.361,141.603,112.116,136.848,112.116,130.983L112.116,130.983z"/>
	<path style="fill:#2F4859;" d="M112.116,199.759c0-5.865-4.755-10.62-10.62-10.62H38.839c-5.866,0-10.62,4.755-10.62,10.62
		c0,5.865,4.754,10.62,10.62,10.62h62.657C107.361,210.379,112.116,205.624,112.116,199.759L112.116,199.759z"/>
	<path style="fill:#2F4859;" d="M112.116,268.534c0-5.865-4.755-10.62-10.62-10.62H38.839c-5.866,0-10.62,4.755-10.62,10.62
		c0,5.865,4.754,10.62,10.62,10.62h62.657C107.361,279.154,112.116,274.399,112.116,268.534L112.116,268.534z"/>
	<path style="fill:#2F4859;" d="M112.116,337.31c0-5.865-4.755-10.62-10.62-10.62H38.839c-5.866,0-10.62,4.755-10.62,10.62
		c0,5.865,4.754,10.62,10.62,10.62h62.657C107.361,347.929,112.116,343.175,112.116,337.31L112.116,337.31z"/>
	<path style="fill:#2F4859;" d="M112.116,406.086c0-5.865-4.755-10.62-10.62-10.62H38.839c-5.866,0-10.62,4.755-10.62,10.62
		s4.754,10.62,10.62,10.62h62.657C107.361,416.705,112.116,411.951,112.116,406.086L112.116,406.086z"/>
</g>
<path style="fill:#DC8744;" d="M67.88,37.372v393.549c0,20.64,16.732,37.372,37.372,37.372h297.45
	c20.64,0,37.372-16.732,37.372-37.372V37.372C440.073,16.732,423.341,0,402.701,0h-297.45C84.612,0,67.88,16.732,67.88,37.372z"/>
<path style="fill:#D5D6DB;" d="M219.93,198.419l3.174-3.174c5.633-5.633,6.002-14.397,0.824-19.575l-33.157-33.157
	c-5.178-5.178-13.942-4.809-19.575,0.824l-5.286,5.286c-19.915,19.915,2.767,74.666,50.845,122.743s102.831,70.762,122.746,50.847
	l5.286-5.286c5.633-5.633,6.002-14.397,0.824-19.575l-33.157-33.157c-5.178-5.178-13.942-4.809-19.575,0.824l-3.174,3.174
	c-7.929,7.929-30.187-1.297-49.333-20.444C221.227,228.606,212.001,206.348,219.93,198.419z"/>
<g>
</g>
<g>
</g>
<g>
</g>
<g>
</g>
<g>
</g>
<g>
</g>
<g>
</g>
<g>
</g>
<g>
</g>
<g>
</g>
<g>
</g>
<g>
</g>
<g>
</g>
<g>
</g>
<g>
</g>
</svg>
