<?xml version="1.0" encoding="iso-8859-1"?>
<!-- Generator: Adobe Illustrator 19.0.0, SVG Export Plug-In . SVG Version: 6.00 Build 0)  -->
<svg version="1.1" id="Capa_1" xmlns="http://www.w3.org/2000/svg" xmlns:xlink="http://www.w3.org/1999/xlink" x="0px" y="0px"
	 viewBox="0 0 398.458 398.458" style="enable-background:new 0 0 398.458 398.458;" xml:space="preserve">
<g>
	<path style="fill:#64798A;" d="M114.049,0.085c-10.664,0.961-18.356,10.811-18.356,21.519v179.564
		c0,9.567,6.067,18.662,15.387,20.825c13.277,3.082,25.078-6.917,25.078-19.67V20.232C136.158,8.44,126.067-0.998,114.049,0.085z"/>
	<path style="fill:#64798A;" d="M278.727,0.563c-9.319,2.163-15.387,11.258-15.387,20.825v179.781
		c0,9.567,6.067,18.662,15.387,20.825c13.277,3.082,25.078-6.917,25.078-19.67V20.232C303.805,7.479,292.004-2.519,278.727,0.563z"
		/>
</g>
<path style="fill:#3EA69B;" d="M219.161,398.458h-38.823c-0.122,0-0.226-0.087-0.249-0.207l-15.735-84.38
	c-0.029-0.156,0.09-0.299,0.249-0.299h70.293c0.158,0,0.278,0.144,0.249,0.299l-15.735,84.38
	C219.387,398.371,219.283,398.458,219.161,398.458z"/>
<path style="fill:#D5D6DB;" d="M337.41,172.99H62.089c-0.102,0-0.186-0.083-0.186-0.185v-38.213c0-0.102,0.083-0.185,0.186-0.185
	H337.41c0.102,0,0.185,0.083,0.185,0.185v38.213C337.595,172.907,337.512,172.99,337.41,172.99z"/>
<polygon style="fill:#44C4A1;" points="263.34,368.762 135.118,368.762 60.863,172.99 337.595,172.99 "/>
<g>
</g>
<g>
</g>
<g>
</g>
<g>
</g>
<g>
</g>
<g>
</g>
<g>
</g>
<g>
</g>
<g>
</g>
<g>
</g>
<g>
</g>
<g>
</g>
<g>
</g>
<g>
</g>
<g>
</g>
</svg>
