<?xml version="1.0" encoding="iso-8859-1"?>
<!-- Generator: Adobe Illustrator 19.0.0, SVG Export Plug-In . SVG Version: 6.00 Build 0)  -->
<svg version="1.1" id="Capa_1" xmlns="http://www.w3.org/2000/svg" xmlns:xlink="http://www.w3.org/1999/xlink" x="0px" y="0px"
	 viewBox="0 0 468.293 468.293" style="enable-background:new 0 0 468.293 468.293;" xml:space="preserve">
<polygon style="fill:#F7BE56;" points="97.793,113.034 234.113,468.293 370.5,113.101 370.5,113.034 "/>
<path style="fill:#FCD462;" d="M354.373,113.015l9.303,9.302l-17.67,17.608h0l-17.67-17.669l9.241-9.241h-18.545l-0.999-1.062
	l-1.062,1.062h-18.544l9.303,9.241l-17.67,17.669l-17.669-17.608l9.303-9.302h-18.607l-0.999-1l-0.999,1h-18.607l9.303,9.302
	l-17.607,17.671l-17.67-17.671l0,0l9.303-9.302h-18.607l-0.666-0.666l-0.333-0.334l-0.333,0.334l-0.666,0.666h-0.001h-18.606
	l9.304,9.302h0h0l-17.67,17.608l0,0l-17.67-17.669l9.303-9.241h-18.543l-1.063-1.062l-0.999,1.062h-18.544l9.241,9.241l0,0
	l-17.67,17.669l-17.67-17.608l9.303-9.302H97.811l1.561,4.058l2.934,7.555l9.741,25.538l-0.063,0.063l0.188,0.188l5.619,14.672
	l4.495-4.558l17.67,17.671l-12.363,12.425l5.682,14.86l16.984-16.983l17.67,17.671h0l-17.67,17.671l-16.109-16.11l8.929,23.29
	l3.871,10.116l1.873,4.744l1.436-1.436l0,0l17.67,17.671l-9.366,9.303l5.745,14.922l13.924-13.924l17.67,17.671l0,0l-17.67,17.671
	l-9.241-9.241l5.12,13.361l5.682,14.861l1.998,5.119l14.111,14.111l0,0l-6.306,6.306l5.744,14.861l10.864-10.864h0l17.608,17.671
	l-17.67,17.669l-2.373-2.434l1.311,3.497l5.744,14.86l5.807,15.172l7.18,7.181l-3.184,3.183L226.31,448l7.867-7.805l7.742,7.742
	l5.744-14.861l-3.184-3.183l7.117-7.181l5.869-15.172l5.682-14.924l1.249-3.247l-2.248,2.248l-17.67-17.669l17.608-17.671h0
	l10.864,10.864l5.682-14.924l-6.244-6.244l14.048-14.049l0.062-0.063l1.936-5.119l5.744-14.924l5.12-13.361l-9.241,9.303
	l-17.67-17.671h0l17.67-17.671l13.924,13.863l5.682-14.861l-9.304-9.303l17.67-17.671h0l1.436,1.436l1.811-4.683l3.934-10.177
	l8.929-23.29l-16.109,16.11l-17.67-17.671l17.67-17.671l16.983,16.983l5.682-14.86l-12.363-12.425l17.67-17.671l4.495,4.558
	l5.62-14.61l0.063-0.064l0.125-0.186l-0.063-0.063l9.803-25.476l2.934-7.742l1.498-3.872v-0.061H354.373z M262.088,132.62
	l17.67,17.608l-17.67,17.671l-17.608-17.608L262.088,132.62z M206.205,188.503l17.67,17.671l-17.67,17.671l-17.67-17.671h0
	L206.205,188.503z M216.507,178.201l17.67-17.608l17.607,17.608l-17.607,17.671L216.507,178.201z M234.178,216.476l17.607,17.671
	l-17.607,17.671l-17.67-17.671L234.178,216.476z M244.417,206.174l17.67-17.671l17.67,17.671l-17.67,17.671L244.417,206.174z
	 M188.535,150.229l17.67-17.608l17.67,17.671l-17.67,17.608L188.535,150.229L188.535,150.229L188.535,150.229z M150.26,132.558
	l17.67,17.671l-17.67,17.671l0,0l-17.67-17.671L150.26,132.558z M160.562,178.201L160.562,178.201l17.671-17.671l17.67,17.671h0
	l-17.671,17.671L160.562,178.201z M160.562,234.146L160.562,234.146l17.67-17.671l17.671,17.671h0l-17.67,17.671L160.562,234.146z
	 M188.535,262.119l17.67-17.671l0,0l17.671,17.671l-17.671,17.671L188.535,262.119z M234.178,272.421l17.607,17.671l-17.607,17.671
	l-17.67-17.671L234.178,272.421z M188.535,318.064l17.67-17.671l17.67,17.671l-17.67,17.608L188.535,318.064z M251.848,401.921
	l-17.67,17.669l-17.733-17.669l17.733-17.671L251.848,401.921z M234.178,363.645l-17.67-17.671l17.67-17.608l17.607,17.608
	L234.178,363.645z M279.758,318.064l-17.67,17.608l-17.608-17.608l17.607-17.671L279.758,318.064z M262.088,279.79l-17.67-17.671
	l17.67-17.671l17.67,17.671L262.088,279.79z M307.731,234.146l-17.67,17.671l-17.67-17.671l0,0l17.67-17.671L307.731,234.146z
	 M307.731,178.201l-17.671,17.671l-17.67-17.671l17.67-17.671L307.731,178.201L307.731,178.201z M318.034,167.899l-17.67-17.671
	l17.67-17.671l17.67,17.671L318.034,167.899z"/>
<g>
	<path style="fill:#DC8744;" d="M183.274,107.317c0,0,0,21.463,12.878,47.22c12.878,25.756,14.439,23.024,11.317,36.293
		c-3.122,13.268,2.732-89.366,48.781-90.537"/>
	<path style="fill:#DC8744;" d="M369.18,117.396l1.32-4.294v-0.068c0-15.547-9.097-28.92-22.199-35.302
		c0.068-0.204,0.068-0.408,0.068-0.612c0-21.656-17.583-39.238-39.239-39.238c-2.376,0-4.684,0.202-6.925,0.61
		C301.865,17.176,284.418,0,263.033,0c-11.473,0-21.724,4.888-28.852,12.696C226.984,4.888,216.733,0,205.26,0
		c-21.385,0-38.832,17.176-39.172,38.492c-2.24-0.408-4.548-0.61-6.925-0.61c-21.656,0-39.239,17.582-39.239,39.238
		c0,0.204,0,0.408,0.068,0.612c-13.102,6.381-22.2,19.755-22.2,35.302v0.068l1.32,4.294H369.18z"/>
</g>
<g>
	<path style="fill:#FFFFFF;" d="M311.459,63.851c3.034-2.613,7.062-3.084,10.723-2.465c3.681,0.677,7.054,2.55,9.651,5.09
		c2.612,2.537,4.47,5.762,5.332,9.23c0.798,3.482,0.768,7.209-1.111,10.726c-3.224-2.317-5.404-4.235-7.493-5.994
		c-2.024-1.773-3.79-3.387-5.455-5.035l-5-5.12C316.339,68.398,314.42,66.48,311.459,63.851z"/>
	<path style="fill:#FFFFFF;" d="M246.003,28.011c0.672-4.98,4.519-9.346,9.582-11.444c5.03-2.137,11.171-1.829,16.185,0.514
		c10.11,4.584,15.513,16.805,11.076,25.931c-3.017-3.997-5.521-6.902-8.257-9.241c-2.661-2.348-5.353-4.072-8.059-5.36
		C261.101,26.021,255.357,24.771,246.003,28.011z"/>
	<path style="fill:#FFFFFF;" d="M181.16,43.005c-4.412-9.146,1.011-21.384,11.162-25.97c5.035-2.343,11.203-2.628,16.239-0.447
		c5.064,2.133,8.872,6.506,9.57,11.495c-9.42-3.209-15.152-2.07-20.611,0.302c-2.724,1.27-5.43,2.994-8.103,5.346
		C186.665,36.073,184.159,38.994,181.16,43.005z"/>
	<path style="fill:#FFFFFF;" d="M127.945,86.439c-1.862-3.515-1.886-7.235-1.096-10.718c0.859-3.466,2.715-6.691,5.314-9.241
		c2.585-2.553,5.963-4.43,9.646-5.11c3.661-0.627,7.697-0.148,10.732,2.48c-2.962,2.645-4.873,4.57-6.64,6.447
		c-1.757,1.822-3.319,3.477-5.006,5.107c-1.677,1.636-3.443,3.256-5.469,5.03C133.328,82.192,131.156,84.12,127.945,86.439z"/>
</g>
<g>
</g>
<g>
</g>
<g>
</g>
<g>
</g>
<g>
</g>
<g>
</g>
<g>
</g>
<g>
</g>
<g>
</g>
<g>
</g>
<g>
</g>
<g>
</g>
<g>
</g>
<g>
</g>
<g>
</g>
</svg>
