<?xml version="1.0" encoding="iso-8859-1"?>
<!-- Generator: Adobe Illustrator 19.0.0, SVG Export Plug-In . SVG Version: 6.00 Build 0)  -->
<svg version="1.1" id="Capa_1" xmlns="http://www.w3.org/2000/svg" xmlns:xlink="http://www.w3.org/1999/xlink" x="0px" y="0px"
	 viewBox="0 0 468.293 468.293" style="enable-background:new 0 0 468.293 468.293;" xml:space="preserve">
<circle style="fill:#F7BE56;" cx="124.878" cy="343.415" r="124.878"/>
<circle style="fill:#FCD462;" cx="124.878" cy="343.415" r="104.698"/>
<g>
	<path style="fill:#F7BE56;" d="M127.223,399.66c-24.167,0-43.827-25.231-43.827-56.245s19.66-56.246,43.827-56.246
		c11.262,0,21.965,5.473,30.136,15.41l-8.63,7.098c-6.011-7.308-13.65-11.333-21.507-11.333c-18.006,0-32.653,20.219-32.653,45.072
		c0,24.851,14.647,45.07,32.653,45.07c7.857,0,15.496-4.025,21.507-11.333l8.63,7.098
		C149.188,394.188,138.484,399.66,127.223,399.66z"/>
	<rect x="70.325" y="322.498" style="fill:#F7BE56;" width="50.076" height="11.177"/>
	<rect x="70.325" y="353.155" style="fill:#F7BE56;" width="50.076" height="11.177"/>
	<circle style="fill:#F7BE56;" cx="343.415" cy="124.878" r="124.878"/>
</g>
<circle style="fill:#FCD462;" cx="343.415" cy="124.878" r="104.698"/>
<path style="fill:#F7BE56;" d="M338.448,158.401v-29.728c-9.271-2.649-16.07-6.657-20.398-12.026
	c-4.328-5.368-6.492-11.884-6.492-19.546c0-7.757,2.448-14.273,7.343-19.546c4.895-5.274,11.411-8.313,19.546-9.117v-7.024h10.288
	v7.024c7.521,0.899,13.504,3.465,17.95,7.698c4.446,4.233,7.284,9.897,8.514,16.992l-17.95,2.341
	c-1.088-5.581-3.926-9.365-8.514-11.352v27.741c11.352,3.074,19.085,7.059,23.2,11.955s6.173,11.174,6.173,18.837
	c0,8.561-2.59,15.774-7.769,21.639c-5.179,5.865-12.381,9.46-21.604,10.784v13.267h-10.288v-12.913
	c-8.183-0.993-14.828-4.044-19.937-9.152c-5.108-5.108-8.372-12.321-9.791-21.639l18.518-1.987c0.757,3.784,2.176,7.048,4.257,9.791
	S335.894,157.172,338.448,158.401z M338.448,83.905c-2.791,0.946-5.014,2.554-6.669,4.825c-1.655,2.27-2.483,4.777-2.483,7.521
	c0,2.507,0.757,4.836,2.27,6.988c1.514,2.152,3.808,3.89,6.882,5.215V83.905z M348.736,159.395c3.547-0.662,6.433-2.306,8.656-4.931
	c2.223-2.625,3.335-5.711,3.335-9.259c0-3.169-0.934-5.901-2.802-8.195c-1.868-2.294-4.931-4.056-9.188-5.286V159.395z"/>
<g>
</g>
<g>
</g>
<g>
</g>
<g>
</g>
<g>
</g>
<g>
</g>
<g>
</g>
<g>
</g>
<g>
</g>
<g>
</g>
<g>
</g>
<g>
</g>
<g>
</g>
<g>
</g>
<g>
</g>
</svg>
