<?xml version="1.0" encoding="iso-8859-1"?>
<!-- Generator: Adobe Illustrator 19.0.0, SVG Export Plug-In . SVG Version: 6.00 Build 0)  -->
<svg version="1.1" id="Capa_1" xmlns="http://www.w3.org/2000/svg" xmlns:xlink="http://www.w3.org/1999/xlink" x="0px" y="0px"
	 viewBox="0 0 468.293 468.293" style="enable-background:new 0 0 468.293 468.293;" xml:space="preserve">
<path style="fill:#F7BE56;" d="M381.066,158.489h-55.927v191.094c56.56-3.976,101.392-51.144,101.392-108.696v-36.932
	C426.532,178.884,406.134,158.489,381.066,158.489z M392.083,240.887c0,35.231-24.535,64.837-57.413,72.633V192.938h46.396
	c6.078,0,11.017,4.942,11.017,11.017V240.887z"/>
<path style="fill:#FCD462;" d="M47.601,98.384v340.714c0,16.124,13.071,29.194,29.194,29.194h239.302
	c16.124,0,29.194-13.071,29.194-29.194V98.384H47.601z"/>
<g>
	<rect x="97.717" y="163.902" style="fill:#F7BE56;" width="37.588" height="238.892"/>
	<rect x="177.658" y="163.902" style="fill:#F7BE56;" width="37.588" height="238.892"/>
	<rect x="257.567" y="163.902" style="fill:#F7BE56;" width="37.588" height="238.892"/>
</g>
<path style="fill:#EBF0F3;" d="M47.601,105.688c0-7.906-2.423-15.163,3.384-21.06c-5.808-5.832-9.224-13.154-9.224-21.06
	c0-19.44,20.756-35.186,46.381-35.186c6.747,0,13.069,1.101,18.791,3.045C109.495,13.802,129.14,0,153.141,0
	c18.28,0,34.08,8.1,41.598,19.764C202.34,8.1,218.057,0,236.42,0c24.429,0,44.416,14.385,46.211,32.594
	c6.576-2.657,14.093-4.212,22.121-4.212c25.624,0,46.381,15.746,46.381,35.186c0,7.905-3.502,15.228-9.224,21.06
	c5.722,5.897,3.384,13.154,3.384,21.06H47.601z"/>
<g>
</g>
<g>
</g>
<g>
</g>
<g>
</g>
<g>
</g>
<g>
</g>
<g>
</g>
<g>
</g>
<g>
</g>
<g>
</g>
<g>
</g>
<g>
</g>
<g>
</g>
<g>
</g>
<g>
</g>
</svg>
