<?xml version="1.0" encoding="iso-8859-1"?>
<!-- Generator: Adobe Illustrator 19.0.0, SVG Export Plug-In . SVG Version: 6.00 Build 0)  -->
<svg version="1.1" id="Capa_1" xmlns="http://www.w3.org/2000/svg" xmlns:xlink="http://www.w3.org/1999/xlink" x="0px" y="0px"
	 viewBox="0 0 468.293 468.293" style="enable-background:new 0 0 468.293 468.293;" xml:space="preserve">
<path style="fill:#DC8744;" d="M234.145,63.166L234.145,63.166c-15.182,0-29.237,8.015-36.968,21.081L95.956,242.49h32.925
	L234.145,77.413L339.409,242.49h32.925L271.113,84.247C263.382,71.181,249.328,63.166,234.145,63.166z"/>
<ellipse style="fill:#FCD462;" cx="234.146" cy="336.047" rx="217.587" ry="132.246"/>
<g>
	<path style="fill:#2E9AE1;" d="M125.646,344.651l12.773,4.05c-1.958,7.121-5.214,12.409-9.769,15.866
		c-4.554,3.456-10.332,5.185-17.334,5.185c-8.663,0-15.784-2.959-21.362-8.878c-5.578-5.919-8.367-14.011-8.367-24.277
		c0-10.859,2.804-19.292,8.411-25.3c5.607-6.008,12.98-9.012,22.118-9.012c7.981,0,14.464,2.359,19.448,7.076
		c2.967,2.789,5.192,6.794,6.676,12.016l-13.04,3.115c-0.771-3.382-2.381-6.052-4.829-8.011c-2.448-1.958-5.422-2.937-8.923-2.937
		c-4.836,0-8.76,1.736-11.771,5.207c-3.011,3.471-4.517,9.094-4.517,16.867c0,8.248,1.483,14.122,4.45,17.623
		c2.967,3.501,6.824,5.251,11.571,5.251c3.501,0,6.512-1.113,9.034-3.338C122.739,352.929,124.549,349.428,125.646,344.651z"/>
	<path style="fill:#2E9AE1;" d="M150.079,368.639V303.93h13.173v53.716h32.755v10.992H150.079z"/>
	<path style="fill:#2E9AE1;" d="M202.727,336.418c0-6.646,0.994-12.224,2.982-16.733c1.483-3.323,3.508-6.305,6.075-8.945
		c2.566-2.641,5.378-4.599,8.433-5.875c4.065-1.721,8.752-2.581,14.063-2.581c9.613,0,17.305,2.982,23.075,8.945
		c5.771,5.964,8.656,14.256,8.656,24.878c0,10.533-2.863,18.773-8.589,24.722c-5.726,5.949-13.381,8.923-22.964,8.923
		c-9.702,0-17.416-2.959-23.142-8.878C205.59,354.954,202.727,346.802,202.727,336.418z M216.3,335.973
		c0,7.388,1.706,12.988,5.118,16.8c3.412,3.812,7.744,5.719,12.995,5.719c5.251,0,9.561-1.891,12.928-5.674
		c3.367-3.783,5.051-9.457,5.051-17.023c0-7.477-1.639-13.054-4.918-16.733s-7.632-5.518-13.062-5.518
		c-5.429,0-9.806,1.862-13.129,5.585C217.962,322.852,216.3,328.467,216.3,335.973z"/>
	<path style="fill:#2E9AE1;" d="M272.954,347.41l12.817-1.246c0.771,4.302,2.336,7.462,4.695,9.479
		c2.359,2.018,5.541,3.026,9.546,3.026c4.243,0,7.44-0.897,9.591-2.693c2.151-1.795,3.227-3.894,3.227-6.297
		c0-1.543-0.452-2.856-1.357-3.939c-0.905-1.083-2.485-2.025-4.74-2.826c-1.543-0.534-5.059-1.483-10.547-2.848
		c-7.061-1.75-12.016-3.901-14.864-6.453c-4.005-3.59-6.008-7.966-6.008-13.129c0-3.323,0.942-6.431,2.826-9.324
		c1.884-2.893,4.599-5.096,8.144-6.609c3.545-1.513,7.825-2.27,12.839-2.27c8.189,0,14.352,1.795,18.491,5.385
		c4.139,3.59,6.312,8.382,6.52,14.375l-13.173,0.579c-0.564-3.353-1.773-5.763-3.627-7.232c-1.854-1.469-4.636-2.203-8.344-2.203
		c-3.827,0-6.824,0.786-8.99,2.359c-1.394,1.009-2.092,2.359-2.092,4.05c0,1.543,0.653,2.863,1.958,3.961
		c1.661,1.394,5.697,2.848,12.105,4.361c6.409,1.513,11.148,3.078,14.219,4.695c3.071,1.617,5.474,3.827,7.21,6.631
		c1.736,2.804,2.603,6.268,2.603,10.392c0,3.738-1.038,7.239-3.115,10.503c-2.077,3.264-5.014,5.689-8.812,7.276
		c-3.798,1.587-8.53,2.381-14.197,2.381c-8.248,0-14.582-1.906-19.003-5.719C276.454,360.265,273.814,354.709,272.954,347.41z"/>
	<path style="fill:#2E9AE1;" d="M337.083,368.639v-65.242h48.375v11.037h-35.202v14.464h32.755v10.992h-32.755v17.757h36.449v10.992
		H337.083z"/>
</g>
<circle style="fill:#2F4859;" cx="234.146" cy="54.309" r="54.309"/>
<circle style="fill:#EBF0F3;" cx="234.146" cy="54.309" r="32.543"/>
<g>
</g>
<g>
</g>
<g>
</g>
<g>
</g>
<g>
</g>
<g>
</g>
<g>
</g>
<g>
</g>
<g>
</g>
<g>
</g>
<g>
</g>
<g>
</g>
<g>
</g>
<g>
</g>
<g>
</g>
</svg>
