<?xml version="1.0" encoding="iso-8859-1"?>
<!-- Generator: Adobe Illustrator 19.0.0, SVG Export Plug-In . SVG Version: 6.00 Build 0)  -->
<svg version="1.1" id="Capa_1" xmlns="http://www.w3.org/2000/svg" xmlns:xlink="http://www.w3.org/1999/xlink" x="0px" y="0px"
	 viewBox="0 0 468.293 468.293" style="enable-background:new 0 0 468.293 468.293;" xml:space="preserve">
<path style="fill:#F7BE56;" d="M49.604,59.472V445.41c0,12.638,10.245,22.882,22.882,22.882h323.32
	c12.638,0,22.882-10.245,22.882-22.882V59.472c0-12.638-10.245-22.882-22.882-22.882H72.487
	C59.849,36.589,49.604,46.834,49.604,59.472z"/>
<rect x="91.161" y="78.174" style="fill:#D5D6DB;" width="285.958" height="348.56"/>
<path style="fill:#CE412D;" d="M282.255,24.873V11.352C282.255,5.082,277.173,0,270.904,0h-73.515
	c-6.269,0-11.352,5.082-11.352,11.352v13.521c-25.743,12.106-46.242,33.511-56.973,59.996h210.164
	C328.498,58.384,307.998,36.979,282.255,24.873z"/>
<g>
	<path style="fill:#EBF0F3;" d="M136.586,189.219h37.463c5.173,0,9.366-4.193,9.366-9.366V142.39c0-5.173-4.193-9.366-9.366-9.366
		h-37.463c-5.173,0-9.366,4.193-9.366,9.366v37.463C127.22,185.026,131.413,189.219,136.586,189.219z"/>
	<path style="fill:#EBF0F3;" d="M136.586,280.536h37.463c5.173,0,9.366-4.193,9.366-9.366v-37.463c0-5.173-4.193-9.366-9.366-9.366
		h-37.463c-5.173,0-9.366,4.193-9.366,9.366v37.463C127.22,276.343,131.413,280.536,136.586,280.536z"/>
	<path style="fill:#EBF0F3;" d="M136.586,371.853h37.463c5.173,0,9.366-4.193,9.366-9.366v-37.463c0-5.173-4.193-9.366-9.366-9.366
		h-37.463c-5.173,0-9.366,4.193-9.366,9.366v37.463C127.22,367.66,131.413,371.853,136.586,371.853z"/>
	<path style="fill:#EBF0F3;" d="M212.783,169.22h120.19c4.474,0,8.1-3.627,8.1-8.099s-3.627-8.101-8.1-8.101h-120.19
		c-4.474,0-8.1,3.629-8.1,8.101S208.309,169.22,212.783,169.22z"/>
	<path style="fill:#EBF0F3;" d="M332.972,244.336h-120.19c-4.474,0-8.1,3.629-8.1,8.101c0,4.473,3.627,8.099,8.1,8.099h120.19
		c4.474,0,8.1-3.627,8.1-8.099C341.073,247.965,337.446,244.336,332.972,244.336z"/>
	<path style="fill:#EBF0F3;" d="M332.972,335.653h-120.19c-4.474,0-8.1,3.629-8.1,8.101c0,4.473,3.627,8.099,8.1,8.099h120.19
		c4.474,0,8.1-3.627,8.1-8.099C341.073,339.282,337.446,335.653,332.972,335.653z"/>
</g>
<g>
</g>
<g>
</g>
<g>
</g>
<g>
</g>
<g>
</g>
<g>
</g>
<g>
</g>
<g>
</g>
<g>
</g>
<g>
</g>
<g>
</g>
<g>
</g>
<g>
</g>
<g>
</g>
<g>
</g>
</svg>
