<?xml version="1.0" encoding="iso-8859-1"?>
<!-- Generator: Adobe Illustrator 19.0.0, SVG Export Plug-In . SVG Version: 6.00 Build 0)  -->
<svg version="1.1" id="Capa_1" xmlns="http://www.w3.org/2000/svg" xmlns:xlink="http://www.w3.org/1999/xlink" x="0px" y="0px"
	 viewBox="0 0 468.305 468.305" style="enable-background:new 0 0 468.305 468.305;" xml:space="preserve">
<path style="fill:#3A556A;" d="M375.054,208.041h-20.682v-104.27c0-65.642-18.349-81.982-25.429-82.739
	c-4.443-0.242-8.796-0.364-13.037-0.364c-138.191,0-163.206,123.558-164.236,128.981l-20.319-3.858
	c0.293-1.545,31.609-154.279,198.582-145.422c0.879,0.05,10.695,0.364,20.733,10.291c16.178,16.017,24.388,47.343,24.388,93.11
	V208.041z"/>
<rect x="350.595" y="189.084" style="fill:#EBF0F3;" width="28.235" height="64.624"/>
<path style="fill:#44C4A1;" d="M204.456,438.131H39.428c-16.914,0-30.625-13.711-30.625-30.625V290.77
	c0-89.952,72.921-162.873,162.873-162.873h2.156c16.914,0,30.625,13.711,30.625,30.625V438.131z"/>
<circle style="fill:#2F4859;" cx="183.315" cy="417.03" r="51.275"/>
<path style="fill:#E1E6E9;" d="M183.31,394.484c-12.446,0-22.535,10.088-22.535,22.534c0,12.446,10.089,22.535,22.535,22.535
	c12.446,0,22.535-10.09,22.535-22.535C205.845,404.572,195.756,394.484,183.31,394.484z"/>
<rect x="344.045" y="247.446" style="fill:#2F4859;" width="41.366" height="117.167"/>
<path style="fill:#D5D6DB;" d="M411.999,358.78h-94.572c-11.307,0-21.728,6.121-27.235,15.997l-20.269,36.355h189.579
	l-20.269-36.355C433.727,364.902,423.306,358.78,411.999,358.78z"/>
<g>
</g>
<g>
</g>
<g>
</g>
<g>
</g>
<g>
</g>
<g>
</g>
<g>
</g>
<g>
</g>
<g>
</g>
<g>
</g>
<g>
</g>
<g>
</g>
<g>
</g>
<g>
</g>
<g>
</g>
</svg>
