<?xml version="1.0" encoding="iso-8859-1"?>
<!-- Generator: Adobe Illustrator 19.0.0, SVG Export Plug-In . SVG Version: 6.00 Build 0)  -->
<svg version="1.1" id="Capa_1" xmlns="http://www.w3.org/2000/svg" xmlns:xlink="http://www.w3.org/1999/xlink" x="0px" y="0px"
	 viewBox="0 0 468.293 468.293" style="enable-background:new 0 0 468.293 468.293;" xml:space="preserve">
<path style="fill:#EBF0F3;" d="M468.293,248.819H19.632c-10.801,0-19.622,8.822-19.622,19.704v35.451
	c0,10.882,8.821,19.704,19.622,19.704h448.661V248.819z"/>
<path style="fill:#F7BE56;" d="M19.669,248.827C8.806,248.827,0,257.633,0,268.495v35.504c0,10.863,8.806,19.669,19.669,19.669
	H128.03v-74.842H19.669z"/>
<g>
	<path style="fill:#64798A;" d="M455.139,233.374L455.139,233.374c-4.012,0-7.113-3.664-6.368-7.607
		c0.825-4.364,2.274-7.385,3.521-9.982c1.626-3.395,2.912-6.074,2.912-12.006c0-5.929-1.286-8.608-2.912-12.003
		c-1.866-3.886-4.186-8.725-4.186-17.591c0-8.863,2.32-13.695,4.186-17.579c1.05-2.189,1.957-4.081,2.469-6.739
		c0.585-3.035,3.229-5.255,6.32-5.255l0,0c4.012,0,7.114,3.665,6.368,7.607c-0.825,4.36-2.274,7.377-3.52,9.972
		c-1.626,3.392-2.912,6.071-2.912,11.993c0,5.932,1.286,8.611,2.912,12.006c1.866,3.886,4.186,8.722,4.186,17.588
		c0,8.867-2.32,13.705-4.186,17.591c-1.05,2.192-1.958,4.085-2.47,6.747C460.875,231.154,458.23,233.374,455.139,233.374z"/>
	<path style="fill:#64798A;" d="M419.03,233.374L419.03,233.374c-4.012,0-7.113-3.664-6.368-7.607
		c0.825-4.364,2.274-7.385,3.521-9.982c1.626-3.395,2.912-6.074,2.912-12.006c0-5.929-1.286-8.608-2.912-12.003
		c-1.866-3.886-4.186-8.725-4.186-17.591c0-8.863,2.32-13.695,4.186-17.579c1.05-2.189,1.957-4.081,2.469-6.739
		c0.585-3.035,3.229-5.255,6.32-5.255l0,0c4.013,0,7.114,3.665,6.368,7.607c-0.825,4.36-2.274,7.377-3.52,9.972
		c-1.626,3.392-2.912,6.071-2.912,11.993c0,5.932,1.286,8.611,2.912,12.006c1.866,3.886,4.186,8.722,4.186,17.588
		c0,8.867-2.32,13.705-4.186,17.591c-1.05,2.192-1.958,4.085-2.47,6.747C424.766,231.154,422.121,233.374,419.03,233.374z"/>
	<path style="fill:#64798A;" d="M382.921,233.374L382.921,233.374c-4.012,0-7.113-3.664-6.368-7.607
		c0.825-4.364,2.274-7.385,3.521-9.982c1.626-3.395,2.912-6.074,2.912-12.006c0-5.929-1.286-8.608-2.912-12.003
		c-1.866-3.886-4.186-8.725-4.186-17.591c0-8.863,2.32-13.695,4.186-17.579c1.05-2.189,1.957-4.081,2.469-6.739
		c0.585-3.035,3.229-5.255,6.32-5.255l0,0c4.012,0,7.114,3.665,6.368,7.607c-0.825,4.36-2.274,7.377-3.52,9.972
		c-1.626,3.392-2.912,6.071-2.912,11.993c0,5.932,1.286,8.611,2.912,12.006c1.866,3.886,4.186,8.722,4.186,17.588
		c0,8.867-2.32,13.705-4.186,17.591c-1.05,2.192-1.958,4.085-2.47,6.747C388.657,231.154,386.012,233.374,382.921,233.374z"/>
	<rect x="446.364" y="248.819" style="fill:#64798A;" width="21.929" height="74.858"/>
</g>
<g>
</g>
<g>
</g>
<g>
</g>
<g>
</g>
<g>
</g>
<g>
</g>
<g>
</g>
<g>
</g>
<g>
</g>
<g>
</g>
<g>
</g>
<g>
</g>
<g>
</g>
<g>
</g>
<g>
</g>
</svg>
