<?xml version="1.0" encoding="iso-8859-1"?>
<!-- Generator: Adobe Illustrator 19.0.0, SVG Export Plug-In . SVG Version: 6.00 Build 0)  -->
<svg version="1.1" id="Capa_1" xmlns="http://www.w3.org/2000/svg" xmlns:xlink="http://www.w3.org/1999/xlink" x="0px" y="0px"
	 viewBox="0 0 468.293 468.293" style="enable-background:new 0 0 468.293 468.293;" xml:space="preserve">
<g>
	<path style="fill:#F6C358;" d="M191.034,198.686c0,0,13.546-4.097,10.201,13.742c-1.295,6.905-5.255,30.178-16.336,24.095"/>
	<path style="fill:#F6C358;" d="M68.418,198.587c0,0-13.879-3.138-8.906,14.41c1.925,6.793,8.011,29.714,18.497,22.877"/>
	<path style="fill:#F6C358;" d="M130.135,312.122L130.135,312.122c-14.33,0-25.946-11.616-25.946-25.946v-11.283h51.892v11.283
		C156.081,300.505,144.465,312.122,130.135,312.122z"/>
</g>
<path style="fill:#FCD462;" d="M66.454,194.105c0,0,13.334,94.378,64.3,92.689c30.886-1.024,57.499-33.411,63.063-92.689v-12.933
	H66.454V194.105z"/>
<g>
	<path style="fill:#64798A;" d="M63.362,181.172l6.123,38.173c0.379,2.36,2.694,4.116,5.428,4.116h0
		c3.304,0,5.857-2.529,5.437-5.385l-5.432-36.904H63.362z"/>
	<path style="fill:#64798A;" d="M197.247,181.172l-6.123,38.173c-0.379,2.36-2.694,4.116-5.428,4.116l0,0
		c-3.304,0-5.857-2.529-5.437-5.385l5.432-36.904H197.247z"/>
</g>
<path style="fill:#D5D6DB;" d="M156.359,297.939h-52.514c0,0-77.11,29.416-81.781,47.837v59.915h216.076v-59.915
	C233.469,327.354,156.359,297.939,156.359,297.939z"/>
<path style="fill:#E1E6E9;" d="M158.268,297.939l-29.133,9.007v28.358l-41.812,16.511v53.876h150.815v-59.915
	C238.139,345.776,236.895,329.893,158.268,297.939z"/>
<g>
	<ellipse style="fill:#64798A;" cx="104.086" cy="362.218" rx="6.781" ry="5.907"/>
	<ellipse style="fill:#64798A;" cx="104.086" cy="388.617" rx="6.781" ry="5.907"/>
	<ellipse style="fill:#64798A;" cx="140.987" cy="388.617" rx="6.781" ry="5.907"/>
	<ellipse style="fill:#64798A;" cx="140.987" cy="362.218" rx="6.781" ry="5.907"/>
	<ellipse style="fill:#64798A;" cx="140.987" cy="329" rx="6.781" ry="5.907"/>
</g>
<g>
	<polygon style="fill:#E1E6E9;" points="202.793,181.056 59.087,181.056 79.017,103.183 182.863,103.183 	"/>
	<path style="fill:#E1E6E9;" d="M188.231,70.991c-18.862-12.338-45.162-9.555-58.742,6.217l53.379,44.681
		C196.448,106.117,207.093,83.329,188.231,70.991z"/>
</g>
<polygon style="fill:#64798A;" points="69.052,142.12 193.333,142.12 197.247,152.826 66.454,152.826 "/>
<g>
	<path style="fill:#E1E6E9;" d="M75.523,70.991c-18.862,12.338-14.874,35.127-1.294,50.899l4.087-16.073l55.948-28.609
		C120.685,61.436,94.385,58.652,75.523,70.991z"/>
	<polygon style="fill:#E1E6E9;" points="182.868,109.751 134.265,77.208 70.704,109.372 	"/>
	<path style="fill:#E1E6E9;" d="M130.135,49.068c-15.614,0-28.272,12.734-28.272,28.442h56.543
		C158.406,61.802,145.749,49.068,130.135,49.068z"/>
</g>
<path style="fill:#EBF0F3;" d="M371.235,289.809h-8.085c0-5.758-4.685-10.443-10.443-10.443c-5.758,0-10.443,4.685-10.443,10.443
	h-8.085c0-10.216,8.311-18.528,18.528-18.528C362.924,271.282,371.235,279.593,371.235,289.809z"/>
<path style="fill:#E1E6E9;" d="M436.587,384.805H268.828v-13.812c0-46.325,37.554-83.879,83.879-83.879h0
	c46.325,0,83.879,37.554,83.879,83.879V384.805z"/>
<polygon style="fill:#D5D6DB;" points="436.587,405.691 271.523,405.691 254.68,384.805 453.43,384.805 "/>
<g>
	<path style="fill:#FFFFFF;" d="M417.37,342.533c-0.718,0-1.413-0.384-1.779-1.061c-19.057-35.256-40.309-37.839-40.521-37.862
		c-1.111-0.114-1.917-1.108-1.803-2.219c0.116-1.111,1.107-1.913,2.219-1.803c0.954,0.099,23.6,2.845,43.661,39.962
		c0.532,0.982,0.166,2.208-0.817,2.738C418.024,342.455,417.695,342.533,417.37,342.533z"/>
	<circle style="fill:#FFFFFF;" cx="422.275" cy="347.42" r="3.035"/>
</g>
<rect y="405.675" style="fill:#2F4859;" width="468.293" height="13.549"/>
<g>
</g>
<g>
</g>
<g>
</g>
<g>
</g>
<g>
</g>
<g>
</g>
<g>
</g>
<g>
</g>
<g>
</g>
<g>
</g>
<g>
</g>
<g>
</g>
<g>
</g>
<g>
</g>
<g>
</g>
</svg>
