<?xml version="1.0" encoding="iso-8859-1"?>
<!-- Generator: Adobe Illustrator 19.0.0, SVG Export Plug-In . SVG Version: 6.00 Build 0)  -->
<svg version="1.1" id="Capa_1" xmlns="http://www.w3.org/2000/svg" xmlns:xlink="http://www.w3.org/1999/xlink" x="0px" y="0px"
	 viewBox="0 0 468.293 468.293" style="enable-background:new 0 0 468.293 468.293;" xml:space="preserve">
<polygon style="fill:#FCD462;" points="0,89.81 123.532,0 464.256,111.46 "/>
<polygon style="fill:#F7BE56;" points="0,468.293 0,89.81 464.256,111.46 468.293,420.18 "/>
<g>
	<path style="fill:#DC8744;" d="M374.634,191.646c11.816,0,21.396-9.512,21.396-21.249c0-11.737-9.579-21.251-21.396-21.251
		c-11.817,0-21.396,9.514-21.396,21.251C353.238,182.134,362.818,191.646,374.634,191.646z"/>
	<path style="fill:#DC8744;" d="M116.266,141.93c-11.817,0-21.396,9.514-21.396,21.251c0,11.737,9.579,21.249,21.396,21.249
		c11.817,0,21.397-9.512,21.397-21.249C137.662,151.444,128.083,141.93,116.266,141.93z"/>
	<path style="fill:#DC8744;" d="M374.634,252.588c-11.817,0-21.396,9.514-21.396,21.251s9.579,21.249,21.396,21.249
		c11.816,0,21.396-9.512,21.396-21.249S386.451,252.588,374.634,252.588z"/>
	<path style="fill:#DC8744;" d="M282.59,252.588c-11.817,0-21.396,9.514-21.396,21.251s9.579,21.249,21.396,21.249
		s21.396-9.512,21.396-21.249S294.407,252.588,282.59,252.588z"/>
	<path style="fill:#DC8744;" d="M331.842,348.413c-11.816,0-21.396,9.514-21.396,21.249c0,11.737,9.579,21.249,21.396,21.249
		c11.817,0,21.397-9.512,21.397-21.249C353.238,357.927,343.659,348.413,331.842,348.413z"/>
	<path style="fill:#DC8744;" d="M176.417,273.839c0-11.737-9.579-21.251-21.397-21.251c-11.817,0-21.396,9.514-21.396,21.251
		s9.579,21.249,21.396,21.249C166.838,295.088,176.417,285.576,176.417,273.839z"/>
	<path style="fill:#DC8744;" d="M73.474,327.162c-11.817,0-21.397,9.514-21.397,21.251s9.579,21.249,21.397,21.249
		c11.817,0,21.396-9.512,21.396-21.249S85.29,327.162,73.474,327.162z"/>
	<path style="fill:#DC8744;" d="M276.939,191.646c0-11.734-9.579-21.249-21.397-21.249c-11.817,0-21.396,9.514-21.396,21.249
		c0,11.737,9.579,21.249,21.396,21.249C267.359,212.895,276.939,203.383,276.939,191.646z"/>
	<ellipse style="fill:#DC8744;" cx="186.911" cy="355.216" rx="21.398" ry="21.248"/>
</g>
<g>
</g>
<g>
</g>
<g>
</g>
<g>
</g>
<g>
</g>
<g>
</g>
<g>
</g>
<g>
</g>
<g>
</g>
<g>
</g>
<g>
</g>
<g>
</g>
<g>
</g>
<g>
</g>
<g>
</g>
</svg>
