<?xml version="1.0" encoding="iso-8859-1"?>
<!-- Generator: Adobe Illustrator 19.0.0, SVG Export Plug-In . SVG Version: 6.00 Build 0)  -->
<svg version="1.1" id="Capa_1" xmlns="http://www.w3.org/2000/svg" xmlns:xlink="http://www.w3.org/1999/xlink" x="0px" y="0px"
	 viewBox="0 0 468.293 468.293" style="enable-background:new 0 0 468.293 468.293;" xml:space="preserve">
<circle style="fill:#64798A;" cx="234.146" cy="234.146" r="234.146"/>
<circle style="fill:#D5D6DB;" cx="234.146" cy="234.146" r="91.692"/>
<circle style="fill:#FFFFFF;" cx="234.146" cy="234.146" r="47.66"/>
<g>
	<path style="fill:#2F4859;" d="M397.311,245.208c-6.107,0-11.062-4.955-11.062-11.062c0-83.873-68.23-152.103-152.103-152.103
		c-6.107,0-11.062-4.955-11.062-11.062c0-6.107,4.955-11.062,11.062-11.062c96.073,0,174.227,78.154,174.227,174.227
		C408.373,240.253,403.418,245.208,397.311,245.208z"/>
	<path style="fill:#2F4859;" d="M234.146,408.373c-96.073,0-174.227-78.154-174.227-174.227c0-6.107,4.955-11.062,11.062-11.062
		c6.107,0,11.062,4.955,11.062,11.062c0,83.873,68.23,152.103,152.103,152.103c6.107,0,11.062,4.955,11.062,11.062
		C245.208,403.418,240.253,408.373,234.146,408.373z"/>
</g>
<g>
</g>
<g>
</g>
<g>
</g>
<g>
</g>
<g>
</g>
<g>
</g>
<g>
</g>
<g>
</g>
<g>
</g>
<g>
</g>
<g>
</g>
<g>
</g>
<g>
</g>
<g>
</g>
<g>
</g>
</svg>
