<?xml version="1.0" encoding="iso-8859-1"?>
<!-- Generator: Adobe Illustrator 19.0.0, SVG Export Plug-In . SVG Version: 6.00 Build 0)  -->
<svg version="1.1" id="Capa_1" xmlns="http://www.w3.org/2000/svg" xmlns:xlink="http://www.w3.org/1999/xlink" x="0px" y="0px"
	 viewBox="0 0 468.293 468.293" style="enable-background:new 0 0 468.293 468.293;" xml:space="preserve">
<path style="fill:#3A556A;" d="M452.977,88.008H15.316C6.857,88.008,0,94.865,0,103.324v71.922c0,8.458,6.857,15.315,15.316,15.315
	h437.661c8.458,0,15.316-6.857,15.316-15.315v-71.922C468.293,94.865,461.435,88.008,452.977,88.008z"/>
<path style="fill:#FCD462;" d="M46.789,190.561c0,104.782,84.941,189.724,189.723,189.724s189.723-84.942,189.723-189.724H46.789z"
	/>
<circle style="fill:#64798A;" cx="236.519" cy="293.9" r="75.826"/>
<circle style="fill:#3A556A;" cx="236.519" cy="293.9" r="55.084"/>
<circle style="fill:#64798A;" cx="236.519" cy="293.9" r="33.879"/>
<circle style="fill:#27A2DB;" cx="236.519" cy="293.9" r="17.676"/>
<g>
	<circle style="fill:#FFFFFF;" cx="248.258" cy="282.137" r="6.462"/>
	<circle style="fill:#FFFFFF;" cx="224.912" cy="305.514" r="4.077"/>
</g>
<rect x="46.786" y="190.564" style="fill:#F6C358;" width="378.693" height="16.652"/>
<g>
</g>
<g>
</g>
<g>
</g>
<g>
</g>
<g>
</g>
<g>
</g>
<g>
</g>
<g>
</g>
<g>
</g>
<g>
</g>
<g>
</g>
<g>
</g>
<g>
</g>
<g>
</g>
<g>
</g>
</svg>
