<?xml version="1.0" encoding="iso-8859-1"?>
<!-- Generator: Adobe Illustrator 19.0.0, SVG Export Plug-In . SVG Version: 6.00 Build 0)  -->
<svg version="1.1" id="Capa_1" xmlns="http://www.w3.org/2000/svg" xmlns:xlink="http://www.w3.org/1999/xlink" x="0px" y="0px"
	 viewBox="0 0 468.293 468.293" style="enable-background:new 0 0 468.293 468.293;" xml:space="preserve">
<path style="fill:#31978C;" d="M67.714,16.667L23.072,175.952c-3.396,12.116,3.733,24.674,15.922,28.049l281.16,77.853
	c12.189,3.375,24.823-3.71,28.219-15.826l44.643-159.285c3.396-12.116-3.733-24.674-15.922-28.049L95.933,0.841
	C83.744-2.534,71.11,4.552,67.714,16.667z"/>
<path style="fill:#44C4A1;" d="M323.288,84.351L139.046,33.335c-7.899,28.182-37.287,44.664-65.64,36.813l-17.643,62.951
	c28.353,7.851,44.935,37.061,37.036,65.244l184.241,51.016c7.899-28.182,37.287-44.664,65.64-36.813l17.643-62.951
	C331.971,141.744,315.389,112.534,323.288,84.351z"/>
<ellipse style="fill:#31978C;" cx="208.041" cy="141.362" rx="55.546" ry="55.215"/>
<path style="fill:#44C4A1;" d="M199.085,161.354l5.186-18.505c-5.344-3.257-8.903-6.931-10.676-11.023
	c-1.774-4.092-1.992-8.523-0.655-13.293c1.353-4.829,4.023-8.46,8.009-10.894c3.986-2.434,8.597-3.196,13.832-2.286l1.225-4.372
	l6.443,1.784l-1.225,4.372c4.553,1.864,7.853,4.499,9.899,7.905c2.046,3.406,2.835,7.424,2.367,12.054l-11.65-1.655
	c0.292-3.663-0.825-6.511-3.352-8.543l-4.84,17.269c6.573,3.882,10.721,7.704,12.444,11.465c1.723,3.761,1.916,8.026,0.579,12.796
	c-1.494,5.329-4.374,9.37-8.641,12.123c-4.267,2.753-9.404,3.742-15.411,2.967l-2.315,8.259l-6.443-1.784l2.253-8.038
	c-4.951-2.037-8.581-5.089-10.889-9.155c-2.308-4.066-3.093-9.122-2.356-15.168l11.944,1.975c-0.186,2.487,0.133,4.764,0.958,6.833
	C196.595,158.507,197.7,160.146,199.085,161.354z M212.082,114.98c-1.913,0.105-3.586,0.721-5.018,1.847
	c-1.433,1.126-2.389,2.543-2.867,4.251c-0.437,1.561-0.37,3.142,0.203,4.744c0.572,1.602,1.706,3.082,3.4,4.44L212.082,114.98z
	 M205.354,163.756c2.337,0.203,4.431-0.32,6.281-1.568c1.85-1.249,3.085-2.977,3.704-5.185c0.553-1.973,0.444-3.835-0.325-5.587
	s-2.38-3.38-4.832-4.884L205.354,163.756z"/>
<path style="fill:#31978C;" d="M0,207.411v229.301c0,17.441,14.225,31.58,31.772,31.58h404.749c17.547,0,31.772-14.139,31.772-31.58
	V207.411c0-17.441-14.225-31.58-31.772-31.58H31.772C14.225,175.831,0,189.97,0,207.411z"/>
<path style="fill:#44C4A1;" d="M366.76,203.292H101.532c0,40.57-33.088,73.459-73.905,73.459v90.622
	c40.816,0,73.905,32.888,73.905,73.459H366.76c0-40.57,33.088-73.459,73.905-73.459v-90.622
	C399.849,276.751,366.76,243.862,366.76,203.292z"/>
<ellipse style="fill:#31978C;" cx="234.146" cy="322.06" rx="77.031" ry="76.569"/>
<path style="fill:#44C4A1;" d="M229.669,352.103v-26.64c-8.358-2.374-14.488-5.966-18.39-10.777
	c-3.902-4.811-5.853-10.649-5.853-17.516c0-6.951,2.207-12.79,6.62-17.516c4.414-4.726,10.288-7.449,17.622-8.17v-6.294h9.275v6.294
	c6.78,0.805,12.175,3.105,16.183,6.898c4.008,3.794,6.567,8.869,7.676,15.227l-16.183,2.098c-0.981-5.002-3.539-8.392-7.676-10.173
	v24.859c10.234,2.755,17.207,6.326,20.916,10.713c3.71,4.387,5.565,10.014,5.565,16.88c0,7.672-2.335,14.136-7.004,19.392
	c-4.669,5.256-11.162,8.477-19.477,9.664v11.889h-9.275v-11.571c-7.377-0.89-13.369-3.624-17.974-8.202
	c-4.605-4.578-7.548-11.042-8.827-19.392l16.695-1.78c0.682,3.391,1.962,6.315,3.838,8.774
	C225.277,349.22,227.366,351.001,229.669,352.103z M229.669,284.348c-2.516,0.848-4.52,2.289-6.013,4.323s-2.239,4.281-2.239,6.739
	c0,2.246,0.682,4.334,2.047,6.263c1.365,1.929,3.433,3.486,6.205,4.673V284.348z M238.944,352.993
	c3.198-0.593,5.799-2.066,7.804-4.419c2.004-2.352,3.006-5.118,3.006-8.297c0-2.84-0.842-5.288-2.527-7.343
	c-1.684-2.056-4.446-3.635-8.283-4.737V352.993z"/>
<g>
</g>
<g>
</g>
<g>
</g>
<g>
</g>
<g>
</g>
<g>
</g>
<g>
</g>
<g>
</g>
<g>
</g>
<g>
</g>
<g>
</g>
<g>
</g>
<g>
</g>
<g>
</g>
<g>
</g>
</svg>
