<?xml version="1.0" encoding="iso-8859-1"?>
<!-- Generator: Adobe Illustrator 19.0.0, SVG Export Plug-In . SVG Version: 6.00 Build 0)  -->
<svg version="1.1" id="Capa_1" xmlns="http://www.w3.org/2000/svg" xmlns:xlink="http://www.w3.org/1999/xlink" x="0px" y="0px"
	 viewBox="0 0 468.293 468.293" style="enable-background:new 0 0 468.293 468.293;" xml:space="preserve">
<path style="fill:#EBF0F3;" d="M468.293,101.046v216.457c0,9.772-7.963,17.736-17.737,17.736H17.736
	C7.963,335.239,0,327.274,0,317.503V191.809L75.379,83.401h375.177C460.329,83.401,468.293,91.274,468.293,101.046z"/>
<g>
	<polygon style="fill:#2E9AE1;" points="135.953,101.459 84.872,101.459 20.088,194.593 135.953,194.593 	"/>
	<rect x="154.412" y="101.458" style="fill:#2E9AE1;" width="83.369" height="93.134"/>
	<rect x="256.187" y="101.458" style="fill:#2E9AE1;" width="75.826" height="93.134"/>
	<polygon style="fill:#2E9AE1;" points="350.452,101.459 350.452,194.593 450.415,194.593 450.576,101.459 	"/>
</g>
<path style="fill:#64798A;" d="M447.389,335.239h-128.95c0-35.563,28.957-64.521,64.52-64.521
	C418.522,270.717,447.389,299.676,447.389,335.239z"/>
<ellipse style="fill:#2F4859;" cx="382.949" cy="335.2" rx="49.689" ry="49.689"/>
<path style="fill:#64798A;" d="M149.854,335.239H20.903c0-35.563,28.957-64.521,64.43-64.521
	C120.896,270.717,149.854,299.676,149.854,335.239z"/>
<ellipse style="fill:#2F4859;" cx="85.36" cy="335.246" rx="48.178" ry="48.178"/>
<g>
	<path style="fill:#64798A;" d="M382.93,308.254c-14.898,0-26.974,12.078-26.974,26.976s12.077,26.973,26.974,26.973
		c14.897,0,26.974-12.076,26.974-26.973S397.827,308.254,382.93,308.254z"/>
	<path style="fill:#64798A;" d="M85.377,309.073c-14.445,0-26.155,11.712-26.155,26.157c0,14.445,11.71,26.155,26.155,26.155
		c14.446,0,26.156-11.709,26.156-26.155C111.533,320.785,99.823,309.073,85.377,309.073z"/>
</g>
<g>
</g>
<g>
</g>
<g>
</g>
<g>
</g>
<g>
</g>
<g>
</g>
<g>
</g>
<g>
</g>
<g>
</g>
<g>
</g>
<g>
</g>
<g>
</g>
<g>
</g>
<g>
</g>
<g>
</g>
</svg>
