<?xml version="1.0" encoding="iso-8859-1"?>
<!-- Generator: Adobe Illustrator 19.0.0, SVG Export Plug-In . SVG Version: 6.00 Build 0)  -->
<svg version="1.1" id="Capa_1" xmlns="http://www.w3.org/2000/svg" xmlns:xlink="http://www.w3.org/1999/xlink" x="0px" y="0px"
	 viewBox="0 0 468.293 468.293" style="enable-background:new 0 0 468.293 468.293;" xml:space="preserve">
<path style="fill:#D5D6DB;" d="M468.293,99.27v269.751c0,15.015-12.191,27.28-27.279,27.28H27.279
	C12.191,396.302,0,384.037,0,369.022V99.27c0-15.089,12.191-27.28,27.279-27.28h413.734
	C456.102,71.991,468.293,84.181,468.293,99.27z"/>
<rect y="134.556" style="fill:#2F4859;" width="468.293" height="59.467"/>
<path style="fill:#EBF0F3;" d="M397.677,329.403H273.171c-6.157,0-11.15,4.992-11.15,11.15s4.992,11.15,11.15,11.15h124.506
	c6.157,0,11.15-4.992,11.15-11.15S403.835,329.403,397.677,329.403z"/>
<g>
	<path style="fill:#D15241;" d="M77.212,268.986l9.528,3.021c-1.461,5.312-3.89,9.257-7.287,11.836
		c-3.397,2.578-7.708,3.868-12.931,3.868c-6.463,0-11.775-2.208-15.936-6.623c-4.161-4.416-6.242-10.452-6.242-18.11
		c0-8.101,2.092-14.392,6.275-18.874c4.183-4.482,9.683-6.723,16.5-6.723c5.954,0,10.79,1.76,14.508,5.279
		c2.213,2.081,3.873,5.068,4.98,8.964l-9.727,2.324c-0.575-2.523-1.776-4.515-3.602-5.976c-1.826-1.461-4.045-2.191-6.657-2.191
		c-3.608,0-6.535,1.295-8.781,3.884c-2.247,2.59-3.37,6.784-3.37,12.583c0,6.153,1.107,10.535,3.32,13.147
		c2.213,2.612,5.091,3.918,8.632,3.918c2.612,0,4.858-0.83,6.74-2.49C75.043,275.161,76.393,272.549,77.212,268.986z"/>
	<path style="fill:#D15241;" d="M139.063,286.88h-10.69l-4.25-11.055h-19.455l-4.017,11.055H90.226l18.957-48.671h10.391
		L139.063,286.88z M120.969,267.625l-6.706-18.061l-6.574,18.061H120.969z"/>
	<path style="fill:#D15241;" d="M144.308,286.88V238.21h20.683c5.201,0,8.98,0.437,11.338,1.311
		c2.357,0.874,4.244,2.429,5.661,4.665c1.417,2.235,2.125,4.792,2.125,7.669c0,3.652-1.073,6.668-3.22,9.047
		c-2.147,2.379-5.356,3.879-9.628,4.499c2.125,1.239,3.879,2.601,5.262,4.084c1.383,1.483,3.248,4.117,5.594,7.901l5.943,9.495
		h-11.753l-7.105-10.591c-2.523-3.785-4.25-6.17-5.179-7.155c-0.93-0.985-1.915-1.66-2.955-2.025
		c-1.04-0.365-2.689-0.548-4.947-0.548h-1.992v20.318H144.308z M154.135,258.793h7.271c4.714,0,7.658-0.199,8.831-0.598
		c1.173-0.398,2.092-1.085,2.756-2.058c0.664-0.974,0.996-2.191,0.996-3.652c0-1.638-0.437-2.96-1.311-3.967
		c-0.874-1.007-2.108-1.643-3.702-1.909c-0.797-0.111-3.187-0.166-7.171-0.166h-7.669V258.793z"/>
	<path style="fill:#D15241;" d="M193.344,238.21h17.961c4.05,0,7.138,0.31,9.263,0.93c2.855,0.841,5.301,2.335,7.337,4.482
		c2.036,2.147,3.586,4.775,4.648,7.885c1.062,3.11,1.594,6.944,1.594,11.504c0,4.006-0.498,7.459-1.494,10.358
		c-1.217,3.541-2.955,6.408-5.212,8.599c-1.704,1.66-4.006,2.955-6.906,3.884c-2.169,0.686-5.068,1.029-8.698,1.029h-18.492V238.21z
		 M203.171,246.443v32.237h7.337c2.744,0,4.725-0.155,5.943-0.465c1.594-0.398,2.916-1.073,3.967-2.025
		c1.051-0.952,1.909-2.518,2.573-4.698c0.664-2.18,0.996-5.151,0.996-8.914s-0.332-6.651-0.996-8.665s-1.594-3.586-2.789-4.714
		c-1.195-1.129-2.711-1.892-4.548-2.291c-1.372-0.31-4.061-0.465-8.067-0.465H203.171z"/>
</g>
<g>
</g>
<g>
</g>
<g>
</g>
<g>
</g>
<g>
</g>
<g>
</g>
<g>
</g>
<g>
</g>
<g>
</g>
<g>
</g>
<g>
</g>
<g>
</g>
<g>
</g>
<g>
</g>
<g>
</g>
</svg>
