<?xml version="1.0" encoding="iso-8859-1"?>
<!-- Generator: Adobe Illustrator 19.0.0, SVG Export Plug-In . SVG Version: 6.00 Build 0)  -->
<svg version="1.1" id="Capa_1" xmlns="http://www.w3.org/2000/svg" xmlns:xlink="http://www.w3.org/1999/xlink" x="0px" y="0px"
	 viewBox="0 0 468.293 468.293" style="enable-background:new 0 0 468.293 468.293;" xml:space="preserve">
<path style="fill:#FCD462;" d="M31.292,139.413c0,0,10.995,9.303-31.292,115.866v76.116h433.862c0,0,39.75-5.92,33.829-46.515
	c0,0,4.229-43.978-88.802-65.967c0,0-97.26-78.653-167.456-89.648H66.813C66.813,129.264,48.207,127.573,31.292,139.413z"/>
<g>
	<path style="fill:#F6C358;" d="M454.123,255.363c-0.566-0.643-1.642-1.866-2.792-3.174
		C452.118,253.084,453.028,254.119,454.123,255.363z"/>
	<path style="fill:#F6C358;" d="M451.33,252.189c-0.641-0.729-1.2-1.364-1.658-1.886
		C450.198,250.902,450.765,251.547,451.33,252.189z"/>
	<path style="fill:#F6C358;" d="M454.545,255.842c-0.16-0.182-0.268-0.305-0.422-0.479
		C454.368,255.642,454.545,255.842,454.545,255.842z"/>
	<path style="fill:#F6C358;" d="M467.691,284.879c0,0,2.602-11.136-13.147-29.037H0v75.552h433.862
		C433.862,331.395,473.612,325.475,467.691,284.879z"/>
	<path style="fill:#F6C358;" d="M447.713,248.077C447.543,247.884,447.542,247.883,447.713,248.077L447.713,248.077z"/>
	<path style="fill:#F6C358;" d="M449.672,250.304c-0.56-0.636-1.044-1.187-1.42-1.614
		C448.581,249.064,449.043,249.589,449.672,250.304z"/>
	<path style="fill:#F6C358;" d="M448.252,248.69c-0.255-0.29-0.437-0.496-0.539-0.613C447.83,248.21,448.016,248.422,448.252,248.69
		z"/>
</g>
<g>
	<path style="fill:#2D93BA;" d="M52.436,147.025c0,0,2.537,30.446-10.149,51.59h89.648V141.95
		C131.935,141.95,65.122,137.721,52.436,147.025z"/>
	<path style="fill:#2D93BA;" d="M151.387,140.991v57.623c0,0,169.993,2.537,186.907,13.532c0,0-78.653-61.965-139.546-71.155
		H151.387z"/>
</g>
<path style="fill:#EBF0F3;" d="M405.953,239.21l21.143,27.064h27.064C454.16,266.273,433.862,237.518,405.953,239.21z"/>
<g>
	<path style="fill:#27A2DB;" d="M42.287,198.614c12.686-21.143,10.149-51.59,10.149-51.59c12.686-9.303,79.499-5.074,79.499-5.074
		L42.287,198.614z"/>
	<polygon style="fill:#27A2DB;" points="151.387,198.614 151.387,140.991 198.748,140.991 	"/>
</g>
<path style="fill:#E56353;" d="M27.523,286.535H0v-33.829h27.523c8.621,0,15.61,6.989,15.61,15.61v2.61
	C43.132,279.546,36.144,286.535,27.523,286.535z"/>
<path style="fill:#44C4A1;" d="M178.45,129.181H98.951V105.19c0-8.19,6.639-14.829,14.829-14.829h49.841
	c8.19,0,14.829,6.639,14.829,14.829V129.181z"/>
<g>
	<path style="fill:#2F4859;" d="M112.424,105.179h-5.607v-2.018h13.643v2.018h-5.631v16.409h-2.405V105.179z"/>
	<path style="fill:#2F4859;" d="M123.442,115.788l-1.915,5.799h-2.46l6.262-18.427h2.872l6.29,18.427h-2.543l-1.97-5.799H123.442z
		 M129.485,113.929l-1.805-5.305c-0.409-1.201-0.683-2.293-0.957-3.36h-0.052c-0.274,1.091-0.576,2.213-0.93,3.335l-1.805,5.329
		H129.485z"/>
	<path style="fill:#2F4859;" d="M146.909,121.587l-2.351-4.073c-0.957-1.561-1.558-2.573-2.134-3.64h-0.055
		c-0.518,1.067-1.04,2.055-1.994,3.665l-2.216,4.049h-2.735l5.634-9.323l-5.415-9.104h2.762l2.433,4.317
		c0.683,1.201,1.204,2.134,1.695,3.116h0.082c0.518-1.091,0.985-1.939,1.668-3.116l2.515-4.317h2.735l-5.604,8.963l5.741,9.463
		H146.909z"/>
	<path style="fill:#2F4859;" d="M154.814,103.16v18.427h-2.378V103.16H154.814z"/>
</g>
<circle style="fill:#3A556A;" cx="82.882" cy="331.415" r="46.517"/>
<circle style="fill:#D5D6DB;" cx="82.882" cy="331.415" r="33.305"/>
<g>
	<circle style="fill:#3A556A;" cx="82.882" cy="331.415" r="11.976"/>
	<circle style="fill:#3A556A;" cx="384.812" cy="331.415" r="46.517"/>
</g>
<circle style="fill:#D5D6DB;" cx="384.812" cy="331.415" r="33.305"/>
<g>
	<circle style="fill:#3A556A;" cx="384.812" cy="331.415" r="11.976"/>
	<rect x="116.199" y="225.962" style="fill:#3A556A;" width="20.592" height="17.477"/>
	<rect x="157.371" y="225.962" style="fill:#3A556A;" width="20.592" height="17.477"/>
	<rect x="198.556" y="225.962" style="fill:#3A556A;" width="20.592" height="17.477"/>
	<rect x="239.735" y="225.962" style="fill:#3A556A;" width="20.592" height="17.477"/>
	<rect x="280.913" y="225.962" style="fill:#3A556A;" width="20.592" height="17.477"/>
	<rect x="136.779" y="243.963" style="fill:#3A556A;" width="20.592" height="17.477"/>
	<rect x="177.951" y="243.963" style="fill:#3A556A;" width="20.592" height="17.477"/>
	<rect x="219.142" y="243.963" style="fill:#3A556A;" width="20.592" height="17.477"/>
	<rect x="260.308" y="243.963" style="fill:#3A556A;" width="20.592" height="17.477"/>
	<rect x="301.506" y="243.963" style="fill:#3A556A;" width="20.592" height="17.477"/>
	<rect x="116.199" y="260.859" style="fill:#3A556A;" width="20.592" height="17.477"/>
	<rect x="157.371" y="260.859" style="fill:#3A556A;" width="20.592" height="17.477"/>
	<rect x="198.556" y="260.859" style="fill:#3A556A;" width="20.592" height="17.477"/>
	<rect x="239.735" y="260.859" style="fill:#3A556A;" width="20.592" height="17.477"/>
	<rect x="280.913" y="260.859" style="fill:#3A556A;" width="20.592" height="17.477"/>
</g>
<g>
</g>
<g>
</g>
<g>
</g>
<g>
</g>
<g>
</g>
<g>
</g>
<g>
</g>
<g>
</g>
<g>
</g>
<g>
</g>
<g>
</g>
<g>
</g>
<g>
</g>
<g>
</g>
<g>
</g>
</svg>
