<?xml version="1.0" encoding="iso-8859-1"?>
<!-- Generator: Adobe Illustrator 19.0.0, SVG Export Plug-In . SVG Version: 6.00 Build 0)  -->
<svg version="1.1" id="Capa_1" xmlns="http://www.w3.org/2000/svg" xmlns:xlink="http://www.w3.org/1999/xlink" x="0px" y="0px"
	 viewBox="0 0 468.293 468.293" style="enable-background:new 0 0 468.293 468.293;" xml:space="preserve">
<rect x="164.589" y="113.371" style="fill:#3A556A;" width="17.233" height="25.038"/>
<path style="fill:#64798A;" d="M238.184,151.147v317.146H108.228V151.147c0-11.306,9.166-20.472,20.472-20.472h89.012
	C229.018,130.675,238.184,139.841,238.184,151.147z"/>
<g>
	<path style="fill:#EBF0F3;" d="M238.184,150.305v6.457c-7.337,8.339-15.512,15.571-24.284,21.806
		c-11.803,8.45-25.002,14.611-37.763,19.224c-12.72,4.612-24.803,8.708-37.085,13.726c-10.049,3.985-20.137,8.45-30.824,12.324
		v-6.457c7.377-8.302,15.512-15.534,24.324-21.807c11.803-8.412,24.962-14.574,37.723-19.224
		c12.72-4.648,24.803-8.744,37.085-13.763C217.409,158.607,227.497,154.142,238.184,150.305z"/>
	<path style="fill:#EBF0F3;" d="M238.184,206.501v6.457c-7.337,8.339-15.512,15.571-24.284,21.843
		c-11.803,8.413-25.002,14.575-37.763,19.187c-12.72,4.612-24.803,8.708-37.085,13.727c-10.049,3.984-20.137,8.449-30.824,12.36
		v-6.457c7.377-8.339,15.512-15.571,24.324-21.806c11.803-8.45,24.962-14.611,37.723-19.262c12.72-4.648,24.803-8.707,37.085-13.725
		C217.409,214.84,227.497,210.376,238.184,206.501z"/>
	<path style="fill:#EBF0F3;" d="M238.184,262.697v6.457c-7.337,8.339-15.512,15.571-24.284,21.843
		c-11.803,8.413-25.002,14.575-37.763,19.187c-12.72,4.649-24.803,8.708-37.085,13.727c-10.049,3.984-20.137,8.449-30.824,12.36
		v-6.457c7.377-8.339,15.512-15.571,24.324-21.806c11.803-8.45,24.962-14.575,37.723-19.224c12.72-4.65,24.803-8.745,37.085-13.763
		C217.409,271.036,227.497,266.571,238.184,262.697z"/>
	<path style="fill:#EBF0F3;" d="M238.184,318.892v6.494c-7.337,8.339-15.512,15.571-24.284,21.806
		c-11.803,8.45-25.002,14.575-37.763,19.225c-12.72,4.612-24.803,8.707-37.085,13.725c-10.049,3.948-20.137,8.414-30.824,12.324
		v-6.457c7.377-8.302,15.512-15.534,24.324-21.806c11.803-8.413,24.962-14.575,37.723-19.224
		c12.72-4.649,24.803-8.745,37.085-13.763C217.409,327.231,227.497,322.767,238.184,318.892z"/>
	<path style="fill:#EBF0F3;" d="M238.184,375.125v6.457c-7.337,8.339-15.512,15.571-24.284,21.806
		c-11.803,8.45-25.002,14.612-37.763,19.225c-12.72,4.612-24.803,8.707-37.085,13.725c-10.049,3.985-20.137,8.45-30.824,12.324
		v-6.457c7.377-8.302,15.512-15.534,24.324-21.806c11.803-8.413,24.962-14.575,37.723-19.224
		c12.72-4.649,24.803-8.745,37.085-13.727C217.409,383.427,227.497,378.963,238.184,375.125z"/>
</g>
<path style="fill:#F7BE56;" d="M173.206,0c0,0-43.194,55.582-43.194,79.438c0,23.855,19.339,43.194,43.194,43.194
	c23.856,0,43.195-19.339,43.195-43.194C216.4,55.582,173.206,0,173.206,0z"/>
<path style="fill:#E56353;" d="M173.206,56.767c0,0-23.199,29.854-23.199,42.665c0,12.813,10.387,23.2,23.199,23.2
	c12.813,0,23.199-10.387,23.199-23.2C196.405,86.621,173.206,56.767,173.206,56.767z"/>
<rect x="310.322" y="235.582" style="fill:#3A556A;" width="14.417" height="17.495"/>
<path style="fill:#64798A;" d="M360.065,260.72v207.572h-85.056V260.72c0-7.4,5.999-13.399,13.399-13.399h58.259
	C354.066,247.322,360.065,253.321,360.065,260.72z"/>
<g>
	<path style="fill:#EBF0F3;" d="M360.065,260.17v4.226c-4.802,5.458-10.152,10.191-15.894,14.272
		c-7.725,5.53-16.364,9.563-24.716,12.582c-8.326,3.019-16.233,5.7-24.272,8.984c-6.577,2.608-13.18,5.53-20.174,8.066v-4.226
		c4.828-5.434,10.152-10.167,15.92-14.273c7.725-5.506,16.338-9.539,24.69-12.582c8.326-3.042,16.233-5.723,24.272-9.008
		C346.467,265.603,353.07,262.681,360.065,260.17z"/>
	<path style="fill:#EBF0F3;" d="M360.065,296.95v4.226c-4.802,5.458-10.152,10.191-15.894,14.297
		c-7.725,5.506-16.364,9.539-24.716,12.558c-8.326,3.019-16.233,5.7-24.272,8.984c-6.577,2.608-13.18,5.53-20.174,8.09v-4.226
		c4.828-5.458,10.152-10.191,15.92-14.272c7.725-5.53,16.338-9.563,24.69-12.607c8.326-3.042,16.233-5.699,24.272-8.983
		C346.467,302.408,353.07,299.486,360.065,296.95z"/>
	<path style="fill:#EBF0F3;" d="M360.065,333.73v4.226c-4.802,5.458-10.152,10.191-15.894,14.297
		c-7.725,5.506-16.364,9.539-24.716,12.558c-8.326,3.043-16.233,5.7-24.272,8.984c-6.577,2.608-13.18,5.53-20.174,8.09v-4.226
		c4.828-5.458,10.152-10.191,15.92-14.272c7.725-5.53,16.338-9.54,24.69-12.582c8.326-3.043,16.233-5.724,24.272-9.008
		C346.467,339.188,353.07,336.266,360.065,333.73z"/>
	<path style="fill:#EBF0F3;" d="M360.065,370.51v4.25c-4.802,5.458-10.152,10.191-15.894,14.272
		c-7.725,5.53-16.364,9.539-24.716,12.583c-8.326,3.019-16.233,5.699-24.272,8.983c-6.577,2.584-13.18,5.507-20.174,8.066v-4.226
		c4.828-5.434,10.152-10.167,15.92-14.272c7.725-5.506,16.338-9.54,24.69-12.582c8.326-3.043,16.233-5.724,24.272-9.008
		C346.467,375.968,353.07,373.046,360.065,370.51z"/>
	<path style="fill:#EBF0F3;" d="M360.065,407.314v4.226c-4.802,5.458-10.152,10.191-15.894,14.272
		c-7.725,5.53-16.364,9.564-24.716,12.583c-8.326,3.019-16.233,5.699-24.272,8.983c-6.577,2.608-13.18,5.53-20.174,8.066v-4.226
		c4.828-5.434,10.152-10.167,15.92-14.272c7.725-5.506,16.338-9.539,24.69-12.582c8.326-3.043,16.233-5.724,24.272-8.984
		C346.467,412.748,353.07,409.826,360.065,407.314z"/>
</g>
<path style="fill:#F7BE56;" d="M317.536,161.795c0,0-28.271,36.378-28.271,51.993c0,15.613,12.657,28.27,28.271,28.27
	c15.614,0,28.271-12.657,28.271-28.27C345.807,198.173,317.536,161.795,317.536,161.795z"/>
<path style="fill:#E56353;" d="M317.536,198.949c0,0-15.184,19.539-15.184,27.924c0,8.386,6.798,15.184,15.184,15.184
	s15.184-6.798,15.184-15.184C332.72,218.488,317.536,198.949,317.536,198.949z"/>
<g>
</g>
<g>
</g>
<g>
</g>
<g>
</g>
<g>
</g>
<g>
</g>
<g>
</g>
<g>
</g>
<g>
</g>
<g>
</g>
<g>
</g>
<g>
</g>
<g>
</g>
<g>
</g>
<g>
</g>
</svg>
