<?xml version="1.0" encoding="iso-8859-1"?>
<!-- Generator: Adobe Illustrator 19.0.0, SVG Export Plug-In . SVG Version: 6.00 Build 0)  -->
<svg version="1.1" id="Capa_1" xmlns="http://www.w3.org/2000/svg" xmlns:xlink="http://www.w3.org/1999/xlink" x="0px" y="0px"
	 viewBox="0 0 468.293 468.293" style="enable-background:new 0 0 468.293 468.293;" xml:space="preserve">
<rect y="141.799" style="fill:#2F4859;" width="468.293" height="250.942"/>
<polygon style="fill:#D5D6DB;" points="314.633,39.405 153.698,39.405 128.225,105.589 340.106,105.589 "/>
<circle style="fill:#EBF0F3;" cx="290.841" cy="267.239" r="110.211"/>
<circle style="fill:#E1E6E9;" cx="290.841" cy="267.239" r="80.834"/>
<circle style="fill:#2E9AE1;" cx="290.841" cy="267.239" r="40.929"/>
<g>
	<circle style="fill:#FFFFFF;" cx="322.747" cy="241.639" r="10.159"/>
	<circle style="fill:#FFFFFF;" cx="265.491" cy="298.896" r="12.226"/>
</g>
<g>
	<path style="fill:#E1E6E9;" d="M445.724,105.607H22.569C10.113,105.607,0,115.663,0,128.12v13.656h468.293V128.12
		C468.293,115.663,458.179,105.607,445.724,105.607z"/>
	<path style="fill:#E1E6E9;" d="M0,406.319c0,12.455,10.113,22.569,22.569,22.569h423.155c12.456,0,22.569-10.113,22.569-22.569
		v-13.599H0V406.319z"/>
</g>
<circle style="fill:#E56353;" cx="51.924" cy="184.258" r="14.167"/>
<circle style="fill:#44C4A1;" cx="106.677" cy="184.258" r="14.167"/>
<g>
</g>
<g>
</g>
<g>
</g>
<g>
</g>
<g>
</g>
<g>
</g>
<g>
</g>
<g>
</g>
<g>
</g>
<g>
</g>
<g>
</g>
<g>
</g>
<g>
</g>
<g>
</g>
<g>
</g>
</svg>
