<?xml version="1.0" encoding="iso-8859-1"?>
<!-- Generator: Adobe Illustrator 19.0.0, SVG Export Plug-In . SVG Version: 6.00 Build 0)  -->
<svg version="1.1" id="Capa_1" xmlns="http://www.w3.org/2000/svg" xmlns:xlink="http://www.w3.org/1999/xlink" x="0px" y="0px"
	 viewBox="0 0 468.293 468.293" style="enable-background:new 0 0 468.293 468.293;" xml:space="preserve">
<path style="fill:#44C4A1;" d="M113.583,248.075l16.835-16.835c5.607-5.607,5.607-14.698,0-20.306l-75.452-75.452
	c-5.607-5.607-14.698-5.607-20.306,0l-21.796,21.796c-34.876,34.876,3.597,129.906,85.92,212.229
	c82.324,82.324,177.353,120.796,212.229,85.92l21.796-21.796c5.607-5.607,5.607-14.698,0-20.306l-75.392-75.392
	c-5.607-5.607-14.698-5.607-20.306,0l-16.835,16.835c-12.489,12.489-46.507-1.282-75.989-30.764
	C114.865,294.583,101.094,260.565,113.583,248.075z"/>
<path style="fill:#FCD462;" d="M457.464,0H201.661c-5.981,0-10.829,4.848-10.829,10.829v185.183c0,5.981,4.848,10.829,10.829,10.829
	h15.795v51.85c0,5.273,6.329,7.964,10.126,4.305l58.28-56.155h171.602c5.981,0,10.829-4.848,10.829-10.829V10.829
	C468.293,4.848,463.444,0,457.464,0z"/>
<g>
	<path style="fill:#E56353;" d="M246.91,80.456c-12.683,0-22.964,10.282-22.964,22.965s10.28,22.963,22.964,22.963
		c12.682,0,22.964-10.28,22.964-22.963S259.592,80.456,246.91,80.456z"/>
	<path style="fill:#E56353;" d="M330.19,80.456c-12.682,0-22.964,10.282-22.964,22.965s10.281,22.963,22.964,22.963
		s22.964-10.28,22.964-22.963S342.872,80.456,330.19,80.456z"/>
	<path style="fill:#E56353;" d="M413.471,80.456c-12.682,0-22.964,10.282-22.964,22.965s10.281,22.963,22.964,22.963
		c12.683,0,22.964-10.28,22.964-22.963S426.154,80.456,413.471,80.456z"/>
</g>
<g>
</g>
<g>
</g>
<g>
</g>
<g>
</g>
<g>
</g>
<g>
</g>
<g>
</g>
<g>
</g>
<g>
</g>
<g>
</g>
<g>
</g>
<g>
</g>
<g>
</g>
<g>
</g>
<g>
</g>
</svg>
