<?xml version="1.0" encoding="iso-8859-1"?>
<!-- Generator: Adobe Illustrator 19.0.0, SVG Export Plug-In . SVG Version: 6.00 Build 0)  -->
<svg version="1.1" id="Capa_1" xmlns="http://www.w3.org/2000/svg" xmlns:xlink="http://www.w3.org/1999/xlink" x="0px" y="0px"
	 viewBox="0 0 468.293 468.293" style="enable-background:new 0 0 468.293 468.293;" xml:space="preserve">
<path style="fill:#CE412D;" d="M468.293,124.098V21.659C468.293,9.697,458.596,0,446.634,0H21.659C9.697,0,0,9.697,0,21.659v102.439
	H468.293z"/>
<path style="fill:#D5D6DB;" d="M0,86.634v360c0,11.961,9.697,21.659,21.659,21.659h424.976c11.962,0,21.659-9.697,21.659-21.659
	v-360H0z"/>
<g>
	<path style="fill:#2F4859;" d="M189.112,369.953h-32.406v-122.13c-11.84,11.071-25.794,19.259-41.863,24.564v-29.408
		c8.457-2.768,17.645-8.015,27.563-15.742c9.918-7.727,16.722-16.741,20.413-27.044h26.294V369.953z"/>
	<path style="fill:#2F4859;" d="M301.093,369.953v-34.021h-69.195v-28.37l73.347-107.368h27.217v107.253h20.989v28.485h-20.989
		v34.021H301.093z M301.093,307.446v-57.778l-38.865,57.778H301.093z"/>
</g>
<g>
	<circle style="fill:#F7BE56;" cx="127.607" cy="42.146" r="21.073"/>
	<circle style="fill:#F7BE56;" cx="340.667" cy="42.146" r="21.073"/>
</g>
<path style="fill:#DC8744;" d="M131.463,43.316L131.463,43.316c0,6.25,5.067,11.317,11.317,11.317h182.731
	c6.25,0,11.317-5.067,11.317-11.317v0c0-6.25-5.067-11.317-11.317-11.317H142.781C136.53,31.998,131.463,37.065,131.463,43.316z"/>
<g>
</g>
<g>
</g>
<g>
</g>
<g>
</g>
<g>
</g>
<g>
</g>
<g>
</g>
<g>
</g>
<g>
</g>
<g>
</g>
<g>
</g>
<g>
</g>
<g>
</g>
<g>
</g>
<g>
</g>
</svg>
