<?xml version="1.0" encoding="iso-8859-1"?>
<!-- Generator: Adobe Illustrator 19.0.0, SVG Export Plug-In . SVG Version: 6.00 Build 0)  -->
<svg version="1.1" id="Capa_1" xmlns="http://www.w3.org/2000/svg" xmlns:xlink="http://www.w3.org/1999/xlink" x="0px" y="0px"
	 viewBox="0 0 468.293 468.293" style="enable-background:new 0 0 468.293 468.293;" xml:space="preserve">
<path style="fill:#E1E6E9;" d="M119.535,194.344v60.732h229.223v-60.732c0-11.666-10.756-21.123-24.024-21.123H143.559
	C130.291,173.221,119.535,182.678,119.535,194.344z"/>
<path style="fill:#D5D6DB;" d="M79.421,271.288v89.381h309.451v-89.381c0-11.666-10.756-21.123-24.024-21.123H103.445
	C90.177,250.165,79.421,259.622,79.421,271.288z"/>
<path style="fill:#DC8744;" d="M415.684,468.293V349.047c0-10.76-9.599-19.483-21.44-19.483H74.049
	c-11.841,0-21.44,8.722-21.44,19.483v119.245H415.684z"/>
<path style="fill:#D5D6DB;" d="M304.13,109.327V93.517c0-1.723-1.396-3.119-3.119-3.119c-1.723,0-3.119,1.397-3.119,3.119v15.811
	H304.13z"/>
<path style="fill:#E56353;" d="M316.929,173.221v-54.644c0-8.791-7.127-15.918-15.918-15.918c-8.791,0-15.918,7.127-15.918,15.918
	v54.644H316.929z"/>
<path style="fill:#FCD462;" d="M301.011,61.788c0,0-13.014,16.582-13.014,23.77c0,7.188,5.827,13.014,13.014,13.014
	c7.188,0,13.014-5.826,13.014-13.014C314.025,78.37,301.011,61.788,301.011,61.788z"/>
<path style="fill:#E56353;" d="M301.011,78.351c0,0-7.154,9.115-7.154,13.066c0,3.951,3.203,7.154,7.154,7.154
	s7.154-3.203,7.154-7.154C308.165,87.467,301.011,78.351,301.011,78.351z"/>
<path style="fill:#D5D6DB;" d="M170.401,109.327V93.517c0-1.723-1.396-3.119-3.119-3.119c-1.723,0-3.119,1.397-3.119,3.119v15.811
	H170.401z"/>
<path style="fill:#E56353;" d="M183.2,173.221v-54.644c0-8.791-7.127-15.918-15.918-15.918s-15.918,7.127-15.918,15.918v54.644
	H183.2z"/>
<path style="fill:#FCD462;" d="M167.282,61.788c0,0-13.014,16.582-13.014,23.77c0,7.188,5.827,13.014,13.014,13.014
	s13.014-5.826,13.014-13.014C180.296,78.37,167.282,61.788,167.282,61.788z"/>
<path style="fill:#E56353;" d="M167.282,78.351c0,0-7.154,9.115-7.154,13.066c0,3.951,3.203,7.154,7.154,7.154
	c3.951,0,7.154-3.203,7.154-7.154C174.436,87.467,167.282,78.351,167.282,78.351z"/>
<path style="fill:#D5D6DB;" d="M238.826,71.329V47.606c0-2.585-2.095-4.68-4.68-4.68c-2.585,0-4.68,2.095-4.68,4.68v23.723H238.826z
	"/>
<path style="fill:#E56353;" d="M258.03,173.221V85.207c0-13.191-10.693-23.884-23.884-23.884c-13.191,0-23.884,10.693-23.884,23.884
	v88.014H258.03z"/>
<path style="fill:#FCD462;" d="M234.146,0c0,0-19.527,24.88-19.527,35.664s8.742,19.527,19.527,19.527
	c10.784,0,19.527-8.742,19.527-19.527S234.146,0,234.146,0z"/>
<path style="fill:#E56353;" d="M234.146,24.852c0,0-10.734,13.677-10.734,19.605c0,5.928,4.806,10.734,10.734,10.734
	c5.928,0,10.734-4.806,10.734-10.734C244.88,38.529,234.146,24.852,234.146,24.852z"/>
<g>
</g>
<g>
</g>
<g>
</g>
<g>
</g>
<g>
</g>
<g>
</g>
<g>
</g>
<g>
</g>
<g>
</g>
<g>
</g>
<g>
</g>
<g>
</g>
<g>
</g>
<g>
</g>
<g>
</g>
</svg>
