<?xml version="1.0" encoding="iso-8859-1"?>
<!-- Generator: Adobe Illustrator 19.0.0, SVG Export Plug-In . SVG Version: 6.00 Build 0)  -->
<svg version="1.1" id="Capa_1" xmlns="http://www.w3.org/2000/svg" xmlns:xlink="http://www.w3.org/1999/xlink" x="0px" y="0px"
	 viewBox="0 0 468.293 468.293" style="enable-background:new 0 0 468.293 468.293;" xml:space="preserve">
<g>
	<path style="fill:#F7BE56;" d="M143.142,119.856c32.636-30.758,6.585-118.082,6.084-119.76c-0.509-0.009-1.004-0.098-1.515-0.096
		C96.278,0.235,54.839,56.528,55.154,125.735c0.244,53.464,25.379,98.868,60.492,116.708
		C98.297,169.906,118.66,142.941,143.142,119.856z"/>
	<path style="fill:#F7BE56;" d="M165.124,2.186c5.022,17.941,23.923,94.994-11.702,128.58
		c-22.559,21.263-40.017,48.517-22.181,117.631c5.711,1.443,11.588,2.253,17.611,2.225c51.433-0.234,92.872-56.528,92.556-125.736
		C241.131,63.692,208.279,12.966,165.124,2.186z"/>
	<path style="fill:#F7BE56;" d="M285.407,322.236c53.379-5.454,92.197-107.341,92.943-109.299c-0.477-0.379-0.882-0.824-1.369-1.194
		c-49.012-37.212-129.336-13.915-179.408,52.035c-38.681,50.948-47.859,112.358-27.499,154.857
		C206.393,337.125,245.356,326.339,285.407,322.236z"/>
	<path style="fill:#F7BE56;" d="M391.925,226.493c-8.289,20.692-46.422,107.621-104.698,113.585
		c-36.899,3.772-73.314,16.947-106.679,95.561c4.373,5.528,9.364,10.574,15.104,14.932c49.012,37.212,129.336,13.915,179.408-52.036
		C419.337,340.221,425.061,268.141,391.925,226.493z"/>
</g>
<g>
</g>
<g>
</g>
<g>
</g>
<g>
</g>
<g>
</g>
<g>
</g>
<g>
</g>
<g>
</g>
<g>
</g>
<g>
</g>
<g>
</g>
<g>
</g>
<g>
</g>
<g>
</g>
<g>
</g>
</svg>
