<?xml version="1.0" encoding="iso-8859-1"?>
<!-- Generator: Adobe Illustrator 19.0.0, SVG Export Plug-In . SVG Version: 6.00 Build 0)  -->
<svg version="1.1" id="Capa_1" xmlns="http://www.w3.org/2000/svg" xmlns:xlink="http://www.w3.org/1999/xlink" x="0px" y="0px"
	 viewBox="0 0 468.293 468.293" style="enable-background:new 0 0 468.293 468.293;" xml:space="preserve">
<g>
	<path style="fill:#D5D6DB;" d="M425.005,119.631h-35.66c-3.331,0-6.027,2.696-6.027,6.027c0,3.331,2.696,6.027,6.027,6.027h35.66
		V119.631z"/>
	<path style="fill:#D5D6DB;" d="M78.947,119.631H47.304v12.054h31.643c3.331,0,6.027-2.696,6.027-6.027
		C84.974,122.326,82.278,119.631,78.947,119.631z"/>
</g>
<path style="fill:#2F4859;" d="M16.816,166.835l24.05,0.012l4.25-49.606H12.578L16.816,166.835z"/>
<g>
	<path style="fill:#EBF0F3;" d="M468.24,111.705l-5.182,61.717c-0.362,3.134-2.893,5.427-6.027,5.427h-35.198
		c-3.134,0-5.667-2.293-5.906-5.427l-5.305-61.717c-0.121-1.686,0.361-3.376,1.567-4.582c1.084-1.204,2.772-1.928,4.46-1.928h45.685
		c1.689,0,3.255,0.724,4.341,1.928C467.88,108.33,468.481,110.019,468.24,111.705z"/>
	<path style="fill:#EBF0F3;" d="M56.104,107.123c1.207,1.207,1.688,2.896,1.567,4.582l-5.305,61.717
		c-0.24,3.134-2.893,5.427-6.027,5.427H11.262c-3.134,0-5.665-2.413-6.027-5.427l-5.183-61.717
		c-0.241-1.686,0.361-3.376,1.566-4.582c1.086-1.204,2.652-1.928,4.341-1.928h45.685C53.332,105.195,55.019,105.919,56.104,107.123z
		"/>
</g>
<path style="fill:#CE412D;" d="M348.904,62.04v23.264c0,3.379-2.772,6.027-6.027,6.027h-217.46c-3.255,0-6.027-2.649-6.027-6.027
	V62.04c0-12.658,10.368-23.023,23.145-23.023h183.225C338.536,39.017,348.904,49.382,348.904,62.04z"/>
<g>
	<path style="fill:#2F4859;" d="M310.051,395.624v20.279c0,7.385,5.987,13.373,13.372,13.373h50.666
		c7.385,0,13.372-5.987,13.372-13.373v-20.279H310.051z"/>
	<path style="fill:#2F4859;" d="M80.831,395.624v20.279c0,7.385,5.987,13.373,13.372,13.373h50.666
		c7.385,0,13.373-5.987,13.373-13.373v-20.279H80.831z"/>
</g>
<path style="fill:#E56353;" d="M373.774,73.17H94.518c-15.259,0-27.625,12.369-27.625,27.625v281.77H401.4v-281.77
	C401.4,85.539,389.034,73.17,373.774,73.17z"/>
<g>
	<circle style="fill:#D5D6DB;" cx="343.102" cy="313.25" r="30.889"/>
	<circle style="fill:#D5D6DB;" cx="125.184" cy="313.25" r="30.889"/>
</g>
<g>
	<path style="fill:#2F4859;" d="M278.844,301.705h-89.395c-3.331,0-6.027,2.696-6.027,6.027c0,3.331,2.696,6.027,6.027,6.027h89.395
		c3.331,0,6.027-2.696,6.027-6.027C284.871,304.401,282.175,301.705,278.844,301.705z"/>
	<path style="fill:#2F4859;" d="M253.735,325.814h-39.176c-3.331,0-6.027,2.696-6.027,6.027c0,3.331,2.696,6.027,6.027,6.027h39.176
		c3.331,0,6.027-2.696,6.027-6.027C259.762,328.509,257.066,325.814,253.735,325.814z"/>
</g>
<g>
	<circle style="fill:#F7BE56;" cx="307.412" cy="352.431" r="8.286"/>
	<circle style="fill:#F7BE56;" cx="160.905" cy="352.431" r="8.286"/>
</g>
<g>
	<circle style="fill:#FCD462;" cx="343.102" cy="313.25" r="16.565"/>
	<circle style="fill:#FCD462;" cx="125.184" cy="313.25" r="16.565"/>
</g>
<path style="fill:#CE412D;" d="M50.318,387.587L50.318,387.587c0,8.599,6.971,15.57,15.57,15.57h336.517
	c8.599,0,15.57-6.971,15.57-15.57l0,0c0-8.599-6.971-15.57-15.57-15.57H65.888C57.289,372.018,50.318,378.989,50.318,387.587z"/>
<path style="fill:#2E9AE1;" d="M377.352,114.357v136.335H90.941V114.357c0-9.403,7.715-17.116,17.118-17.116h252.175
	C369.637,97.241,377.352,104.954,377.352,114.357z"/>
<path style="fill:#3A556A;" d="M304.545,199.461c-29.173,0-53.161,22.54-55.33,51.231h12.175
	c1.928-19.891,17.358-35.804,37.128-38.576v38.576h12.054v-38.576c19.647,2.772,35.077,18.685,37.005,38.576h12.175
	C357.582,222.001,333.594,199.461,304.545,199.461z"/>
<g>
</g>
<g>
</g>
<g>
</g>
<g>
</g>
<g>
</g>
<g>
</g>
<g>
</g>
<g>
</g>
<g>
</g>
<g>
</g>
<g>
</g>
<g>
</g>
<g>
</g>
<g>
</g>
<g>
</g>
</svg>
