<?xml version="1.0" encoding="iso-8859-1"?>
<!-- Generator: Adobe Illustrator 19.0.0, SVG Export Plug-In . SVG Version: 6.00 Build 0)  -->
<svg version="1.1" id="Capa_1" xmlns="http://www.w3.org/2000/svg" xmlns:xlink="http://www.w3.org/1999/xlink" x="0px" y="0px"
	 viewBox="0 0 468.293 468.293" style="enable-background:new 0 0 468.293 468.293;" xml:space="preserve">
<rect x="34.404" y="145.71" style="fill:#D5D6DB;" width="399.441" height="276.418"/>
<polygon style="fill:#CE412D;" points="404.324,74.172 63.969,74.172 0,145.711 468.293,145.711 "/>
<g>
	<circle style="fill:#2E9AE1;" cx="71.124" cy="191.053" r="15.747"/>
	<circle style="fill:#2E9AE1;" cx="136.336" cy="191.053" r="15.747"/>
	<circle style="fill:#2E9AE1;" cx="201.541" cy="191.053" r="15.747"/>
	<circle style="fill:#2E9AE1;" cx="266.74" cy="191.053" r="15.747"/>
	<circle style="fill:#2E9AE1;" cx="331.957" cy="191.053" r="15.747"/>
	<circle style="fill:#2E9AE1;" cx="397.175" cy="191.053" r="15.747"/>
	<circle style="fill:#2E9AE1;" cx="71.124" cy="252.93" r="15.747"/>
	<circle style="fill:#2E9AE1;" cx="136.336" cy="252.93" r="15.747"/>
	<circle style="fill:#2E9AE1;" cx="201.541" cy="252.93" r="15.747"/>
	<circle style="fill:#2E9AE1;" cx="266.74" cy="252.93" r="15.747"/>
	<circle style="fill:#2E9AE1;" cx="331.957" cy="252.93" r="15.747"/>
	<circle style="fill:#2E9AE1;" cx="397.175" cy="252.93" r="15.747"/>
	<circle style="fill:#2E9AE1;" cx="201.541" cy="314.857" r="15.747"/>
	<circle style="fill:#2E9AE1;" cx="266.74" cy="314.857" r="15.747"/>
	<circle style="fill:#2E9AE1;" cx="331.957" cy="314.857" r="15.747"/>
	<circle style="fill:#2E9AE1;" cx="397.175" cy="314.857" r="15.747"/>
	<circle style="fill:#2E9AE1;" cx="201.541" cy="376.753" r="15.747"/>
	<circle style="fill:#2E9AE1;" cx="266.74" cy="376.753" r="15.747"/>
	<circle style="fill:#2E9AE1;" cx="331.957" cy="376.753" r="15.747"/>
	<circle style="fill:#2E9AE1;" cx="397.175" cy="376.753" r="15.747"/>
</g>
<path style="fill:#64798A;" d="M159.287,422.107v-70.116c0-23.159-18.774-41.931-41.932-41.931h-0.001
	c-23.158,0-41.932,18.773-41.932,41.931v70.116H159.287z"/>
<polygon style="fill:#E56353;" points="231.949,46.165 121.456,145.711 342.442,145.711 "/>
<g>
</g>
<g>
</g>
<g>
</g>
<g>
</g>
<g>
</g>
<g>
</g>
<g>
</g>
<g>
</g>
<g>
</g>
<g>
</g>
<g>
</g>
<g>
</g>
<g>
</g>
<g>
</g>
<g>
</g>
</svg>
