<?xml version="1.0" encoding="iso-8859-1"?>
<!-- Generator: Adobe Illustrator 19.0.0, SVG Export Plug-In . SVG Version: 6.00 Build 0)  -->
<svg version="1.1" id="Capa_1" xmlns="http://www.w3.org/2000/svg" xmlns:xlink="http://www.w3.org/1999/xlink" x="0px" y="0px"
	 viewBox="0 0 468.293 468.293" style="enable-background:new 0 0 468.293 468.293;" xml:space="preserve">
<path style="fill:#3A556A;" d="M468.293,234.146c0,53.769-18.146,103.358-48.753,142.912
	c-42.731,55.444-109.881,91.235-185.393,91.235C104.864,468.293,0,363.428,0,234.146C0,158.634,35.791,91.484,91.233,48.753
	C130.788,18.146,180.377,0,234.146,0C363.428,0,468.293,104.864,468.293,234.146z"/>
<path style="fill:#64798A;" d="M468.293,234.146c0,53.769-18.146,103.358-48.753,142.912
	c-39.554,30.608-89.142,48.753-142.912,48.753c-129.283,0-234.146-104.864-234.146-234.146c0-53.769,18.146-103.358,48.751-142.912
	C130.788,18.146,180.377,0,234.146,0C363.428,0,468.293,104.864,468.293,234.146z"/>
<g>
	<circle style="fill:#3A556A;" cx="281.775" cy="190.689" r="30.314"/>
	<circle style="fill:#3A556A;" cx="383.525" cy="222.47" r="30.314"/>
	<circle style="fill:#3A556A;" cx="313.556" cy="292.402" r="30.314"/>
</g>
<g>
</g>
<g>
</g>
<g>
</g>
<g>
</g>
<g>
</g>
<g>
</g>
<g>
</g>
<g>
</g>
<g>
</g>
<g>
</g>
<g>
</g>
<g>
</g>
<g>
</g>
<g>
</g>
<g>
</g>
</svg>
