<?xml version="1.0" encoding="iso-8859-1"?>
<!-- Generator: Adobe Illustrator 19.0.0, SVG Export Plug-In . SVG Version: 6.00 Build 0)  -->
<svg version="1.1" id="Capa_1" xmlns="http://www.w3.org/2000/svg" xmlns:xlink="http://www.w3.org/1999/xlink" x="0px" y="0px"
	 viewBox="0 0 468.293 468.293" style="enable-background:new 0 0 468.293 468.293;" xml:space="preserve">
<g>
	<path style="fill:#2F4859;" d="M107.383,246.733c3.208,6.693,11.234,9.518,17.927,6.311l277.18-132.845
		c6.693-3.208,9.518-11.234,6.311-17.927s-11.234-9.518-17.927-6.311l-277.18,132.845
		C107.001,232.013,104.176,240.039,107.383,246.733z"/>
	<path style="fill:#2F4859;" d="M140.2,285.626c-6.058-4.288-7.492-12.675-3.204-18.733l177.59-250.876
		c4.288-6.058,12.675-7.492,18.733-3.204c6.058,4.288,7.492,12.675,3.204,18.733l-177.59,250.876
		C154.645,288.479,146.258,289.914,140.2,285.626z"/>
</g>
<polygon style="fill:#D5D6DB;" points="306.488,414.879 161.804,414.879 131.115,457.951 337.178,457.951 "/>
<path style="fill:#EBF0F3;" d="M17.683,232.248c7.087,113.453,101.224,203.306,216.463,203.306s209.377-89.853,216.463-203.306
	H17.683z"/>
<path style="fill:#2E9AE1;" d="M446.928,198.478H21.365C9.565,198.478,0,208.044,0,219.842c0,11.799,9.565,21.365,21.365,21.365
	h425.564c11.799,0,21.364-9.565,21.364-21.365C468.293,208.044,458.728,198.478,446.928,198.478z"/>
<g>
</g>
<g>
</g>
<g>
</g>
<g>
</g>
<g>
</g>
<g>
</g>
<g>
</g>
<g>
</g>
<g>
</g>
<g>
</g>
<g>
</g>
<g>
</g>
<g>
</g>
<g>
</g>
<g>
</g>
</svg>
