<?xml version="1.0" encoding="iso-8859-1"?>
<!-- Generator: Adobe Illustrator 19.0.0, SVG Export Plug-In . SVG Version: 6.00 Build 0)  -->
<svg version="1.1" id="Capa_1" xmlns="http://www.w3.org/2000/svg" xmlns:xlink="http://www.w3.org/1999/xlink" x="0px" y="0px"
	 viewBox="0 0 468.293 468.293" style="enable-background:new 0 0 468.293 468.293;" xml:space="preserve">
<path style="fill:#EBF0F3;" d="M398.59,0H104.441v468.293H398.59c15.697,0,28.422-12.725,28.422-28.422V28.422
	C427.013,12.725,414.288,0,398.59,0z"/>
<path style="fill:#2E9AE1;" d="M41.28,28.422V439.87c0,15.697,12.725,28.422,28.422,28.422h56.394V0H69.703
	C54.005,0,41.28,12.725,41.28,28.422z"/>
<polygon style="fill:#E56353;" points="349.866,0 349.866,123.813 314.244,84.13 278.567,123.813 278.567,0 "/>
<g>
	<rect x="152.376" y="269.674" style="fill:#D5D6DB;" width="248.357" height="16.003"/>
	<rect x="152.376" y="319.076" style="fill:#D5D6DB;" width="248.357" height="16.003"/>
	<rect x="152.376" y="368.453" style="fill:#D5D6DB;" width="248.357" height="16.003"/>
</g>
<g>
</g>
<g>
</g>
<g>
</g>
<g>
</g>
<g>
</g>
<g>
</g>
<g>
</g>
<g>
</g>
<g>
</g>
<g>
</g>
<g>
</g>
<g>
</g>
<g>
</g>
<g>
</g>
<g>
</g>
</svg>
