<?xml version="1.0" encoding="iso-8859-1"?>
<!-- Generator: Adobe Illustrator 19.0.0, SVG Export Plug-In . SVG Version: 6.00 Build 0)  -->
<svg version="1.1" id="Capa_1" xmlns="http://www.w3.org/2000/svg" xmlns:xlink="http://www.w3.org/1999/xlink" x="0px" y="0px"
	 viewBox="0 0 468.293 468.293" style="enable-background:new 0 0 468.293 468.293;" xml:space="preserve">
<polygon style="fill:#2F4859;" points="60.298,254.279 100.986,404.432 164.31,404.432 164.31,254.279 "/>
<path style="fill:#D5D6DB;" d="M133.796,66.533C84.786,55.705,33.35,78.39,11.253,123.455C4.047,138.151,0,154.679,0,172.152
	c0,17.459,4.047,33.976,11.255,48.665c22.105,45.052,73.531,67.727,122.532,56.901l233.377-58.946v-93.295L133.796,66.533z"/>
<circle style="fill:#EBF0F3;" cx="110.704" cy="172.144" r="55.003"/>
<g>
	<path style="fill:#64798A;" d="M391.011,145.771c4.167,0,5.961,1.3,8.676,3.269c3.315,2.399,7.438,5.385,15.216,5.385
		c7.784,0,11.907-2.986,15.222-5.385c2.72-1.969,4.515-3.269,8.687-3.269c4.175,0,5.97,1.3,8.689,3.269
		c3.315,2.399,7.441,5.385,15.222,5.385c3.076,0,5.57-2.491,5.57-5.57s-2.494-5.57-5.57-5.57c-4.175,0-5.97-1.3-8.689-3.269
		c-3.315-2.399-7.441-5.385-15.222-5.385c-7.781,0-11.904,2.986-15.219,5.385c-2.72,1.969-4.515,3.269-8.689,3.269
		c-4.169,0-5.964-1.3-8.681-3.269c-3.313-2.399-7.433-5.385-15.211-5.385c-3.076,0-5.57,2.491-5.57,5.57
		C385.442,143.28,387.935,145.771,391.011,145.771z"/>
	<path style="fill:#64798A;" d="M462.723,170.879c-4.175,0-5.972-1.3-8.692-3.269c-3.313-2.393-7.438-5.379-15.219-5.379
		c-7.781,0-11.904,2.986-15.216,5.379c-2.72,1.969-4.517,3.269-8.692,3.269c-4.169,0-5.964-1.3-8.681-3.269
		c-3.313-2.393-7.436-5.379-15.211-5.379c-3.076,0-5.57,2.491-5.57,5.57s2.494,5.57,5.57,5.57c4.167,0,5.961,1.3,8.678,3.264
		c3.313,2.399,7.435,5.385,15.214,5.385c7.781,0,11.907-2.986,15.222-5.379c2.717-1.969,4.515-3.269,8.687-3.269
		c4.175,0,5.972,1.3,8.692,3.269c3.313,2.393,7.438,5.379,15.219,5.379c3.076,0,5.57-2.491,5.57-5.57
		C468.293,173.37,465.799,170.879,462.723,170.879z"/>
	<path style="fill:#64798A;" d="M462.723,198.478c-4.175,0-5.97-1.3-8.689-3.269c-3.315-2.399-7.441-5.385-15.222-5.385
		c-7.781,0-11.904,2.986-15.219,5.385c-2.72,1.969-4.515,3.269-8.689,3.269c-4.169,0-5.964-1.3-8.681-3.269
		c-3.313-2.399-7.433-5.385-15.211-5.385c-3.076,0-5.57,2.491-5.57,5.57c0,3.079,2.494,5.57,5.57,5.57
		c4.167,0,5.961,1.3,8.676,3.269c3.315,2.399,7.438,5.385,15.216,5.385c7.784,0,11.907-2.986,15.222-5.385
		c2.72-1.969,4.515-3.269,8.687-3.269c4.175,0,5.97,1.3,8.689,3.269c3.315,2.399,7.441,5.385,15.222,5.385
		c3.076,0,5.57-2.491,5.57-5.57C468.293,200.969,465.799,198.478,462.723,198.478z"/>
</g>
<g>
</g>
<g>
</g>
<g>
</g>
<g>
</g>
<g>
</g>
<g>
</g>
<g>
</g>
<g>
</g>
<g>
</g>
<g>
</g>
<g>
</g>
<g>
</g>
<g>
</g>
<g>
</g>
<g>
</g>
</svg>
