<?xml version="1.0" encoding="iso-8859-1"?>
<!-- Generator: Adobe Illustrator 19.0.0, SVG Export Plug-In . SVG Version: 6.00 Build 0)  -->
<svg version="1.1" id="Capa_1" xmlns="http://www.w3.org/2000/svg" xmlns:xlink="http://www.w3.org/1999/xlink" x="0px" y="0px"
	 viewBox="0 0 468.293 468.293" style="enable-background:new 0 0 468.293 468.293;" xml:space="preserve">
<path style="fill:#EBF0F3;" d="M383.218,272.231c-0.677-8.693-1.355-17.386-2.032-26.135c-0.169-1.581-0.282-3.274,0.226-4.798
	c0.224-0.752,0.676-1.444,1.238-2.105c0.448-0.526,0.598-1.247,0.391-1.906c-0.003-0.008-0.005-0.016-0.008-0.025
	c-0.265-0.854-1.05-1.44-1.944-1.44H77.894c-7.395,0-13.434,6.04-13.434,13.491v24.272c0,7.451,6.04,13.491,13.434,13.491h309.219
	c-0.226-1.806-1.355-3.613-2.089-5.363C383.725,278.779,383.443,275.448,383.218,272.231z"/>
<path style="fill:#F7BE56;" d="M77.919,235.827c-7.438,0-13.467,6.029-13.467,13.467v24.309c0,7.438,6.029,13.467,13.467,13.467
	h74.191v-51.242H77.919z"/>
<g>
	<path style="fill:#64798A;" d="M376.072,225.247L376.072,225.247c-2.747,0-4.87-2.509-4.36-5.208
		c0.565-2.988,1.557-5.056,2.411-6.834c1.114-2.324,1.994-4.159,1.994-8.22c0-4.059-0.88-5.894-1.994-8.218
		c-1.278-2.661-2.866-5.974-2.866-12.044c0-6.068,1.588-9.377,2.866-12.036c0.719-1.498,1.34-2.794,1.691-4.614
		c0.4-2.078,2.211-3.598,4.327-3.598l0,0c2.747,0,4.871,2.509,4.36,5.208c-0.565,2.985-1.557,5.051-2.41,6.827
		c-1.114,2.322-1.994,4.156-1.994,8.211c0,4.062,0.88,5.896,1.994,8.22c1.278,2.661,2.866,5.971,2.866,12.042
		c0,6.071-1.588,9.383-2.866,12.044c-0.719,1.501-1.341,2.797-1.691,4.62C380,223.727,378.189,225.247,376.072,225.247z"/>
	<path style="fill:#64798A;" d="M351.349,225.247L351.349,225.247c-2.747,0-4.87-2.509-4.36-5.208
		c0.565-2.988,1.557-5.056,2.411-6.834c1.114-2.324,1.994-4.159,1.994-8.22c0-4.059-0.88-5.894-1.994-8.218
		c-1.278-2.661-2.866-5.974-2.866-12.044c0-6.068,1.588-9.377,2.866-12.036c0.719-1.498,1.34-2.794,1.691-4.614
		c0.4-2.078,2.211-3.598,4.327-3.598l0,0c2.747,0,4.871,2.509,4.36,5.208c-0.565,2.985-1.557,5.051-2.41,6.827
		c-1.114,2.322-1.994,4.156-1.994,8.211c0,4.062,0.88,5.896,1.994,8.22c1.278,2.661,2.866,5.971,2.866,12.042
		c0,6.071-1.588,9.383-2.866,12.044c-0.719,1.501-1.341,2.797-1.691,4.62C355.277,223.727,353.466,225.247,351.349,225.247z"/>
	<path style="fill:#64798A;" d="M326.627,225.247L326.627,225.247c-2.747,0-4.87-2.509-4.36-5.208
		c0.565-2.988,1.557-5.056,2.411-6.834c1.114-2.324,1.994-4.159,1.994-8.22c0-4.059-0.88-5.894-1.994-8.218
		c-1.278-2.661-2.866-5.974-2.866-12.044c0-6.068,1.588-9.377,2.866-12.036c0.719-1.498,1.34-2.794,1.691-4.614
		c0.4-2.078,2.211-3.598,4.327-3.598l0,0c2.747,0,4.871,2.509,4.36,5.208c-0.565,2.985-1.557,5.051-2.41,6.827
		c-1.114,2.322-1.994,4.156-1.994,8.211c0,4.062,0.881,5.896,1.994,8.22c1.278,2.661,2.866,5.971,2.866,12.042
		c0,6.071-1.588,9.383-2.866,12.044c-0.719,1.501-1.341,2.797-1.691,4.62C330.554,223.727,328.743,225.247,326.627,225.247z"/>
</g>
<path style="fill:#CE412D;" d="M399.79,68.502c-91.337-91.337-239.953-91.335-331.288,0c-91.335,91.335-91.337,239.951,0,331.289
	c91.337,91.337,239.953,91.335,331.288,0C491.126,308.456,491.128,159.839,399.79,68.502z M376.3,91.993
	c72.991,72.991,77.975,188.587,15.029,267.442L108.858,76.964C187.713,14.019,303.308,19.001,376.3,91.993z M91.993,376.3
	c-72.991-72.991-77.975-188.587-15.029-267.442l282.471,282.471C280.58,454.274,164.984,449.291,91.993,376.3z"/>
<path style="fill:#E56353;" d="M383.218,272.231c-0.677-8.693-1.355-17.386-2.032-26.135c-0.169-1.581-0.282-3.274,0.226-4.798
	c0.224-0.752,0.676-1.444,1.238-2.105c0.448-0.526,0.598-1.247,0.391-1.906c-0.003-0.008-0.005-0.016-0.008-0.025
	c-0.265-0.854-1.05-1.44-1.944-1.44h-11.023v51.254h17.047c-0.226-1.806-1.355-3.613-2.089-5.363
	C383.725,278.779,383.443,275.448,383.218,272.231z"/>
<g>
</g>
<g>
</g>
<g>
</g>
<g>
</g>
<g>
</g>
<g>
</g>
<g>
</g>
<g>
</g>
<g>
</g>
<g>
</g>
<g>
</g>
<g>
</g>
<g>
</g>
<g>
</g>
<g>
</g>
</svg>
