<?xml version="1.0" encoding="iso-8859-1"?>
<!-- Generator: Adobe Illustrator 19.0.0, SVG Export Plug-In . SVG Version: 6.00 Build 0)  -->
<svg version="1.1" id="Capa_1" xmlns="http://www.w3.org/2000/svg" xmlns:xlink="http://www.w3.org/1999/xlink" x="0px" y="0px"
	 viewBox="0 0 468.293 468.293" style="enable-background:new 0 0 468.293 468.293;" xml:space="preserve">
<path style="fill:#3A556A;" d="M253.008,446.299c-4.338-17.782-7.921-35.566-10.884-53.348
	c-8.156-49.214-11.059-98.497-8.709-147.711c0.899-17.834,2.419-35.666,4.631-53.499c1.245-10.299-5.53-19.768-15.621-22.326
	c-33.731-8.433-57.923-39.398-56.956-74.927V39.744h-70.71v54.743c0.968,35.529-23.224,66.495-56.955,74.927
	c-10.092,2.557-16.865,12.027-15.621,22.326c10.642,84.865,5.6,169.799-14.988,254.663c-2.707,11.158,5.786,21.889,17.269,21.889
	h211.302C247.291,468.293,255.74,457.498,253.008,446.299z"/>
<path style="fill:#D15241;" d="M165.469,13.79v65.146h-70.71V13.79c0-7.616,6.174-13.79,13.79-13.79h43.131
	C159.295,0,165.469,6.174,165.469,13.79z"/>
<path style="fill:#44C4A1;" d="M242.124,392.951H130.148V245.24h103.266C231.065,294.454,233.968,343.737,242.124,392.951z"/>
<g>
	<rect x="394.24" y="350.345" style="fill:#EBF0F3;" width="17.277" height="60.635"/>
	<path style="fill:#EBF0F3;" d="M402.852,406.079c-19.325,0-34.992,8.446-34.992,18.864h69.985
		C437.845,414.524,422.178,406.079,402.852,406.079z"/>
	<path style="fill:#EBF0F3;" d="M344.1,217.73c0,81.421,26.335,140.517,58.753,140.517s58.753-59.096,58.753-140.517H344.1z"/>
</g>
<path style="fill:#DC8744;" d="M353.217,294.338c10.417,39.263,28.738,63.908,49.635,63.908s39.218-24.645,49.635-63.908H353.217z"
	/>
<g>
</g>
<g>
</g>
<g>
</g>
<g>
</g>
<g>
</g>
<g>
</g>
<g>
</g>
<g>
</g>
<g>
</g>
<g>
</g>
<g>
</g>
<g>
</g>
<g>
</g>
<g>
</g>
<g>
</g>
</svg>
