<?xml version="1.0" encoding="iso-8859-1"?>
<!-- Generator: Adobe Illustrator 19.0.0, SVG Export Plug-In . SVG Version: 6.00 Build 0)  -->
<svg version="1.1" id="Capa_1" xmlns="http://www.w3.org/2000/svg" xmlns:xlink="http://www.w3.org/1999/xlink" x="0px" y="0px"
	 viewBox="0 0 468.293 468.293" style="enable-background:new 0 0 468.293 468.293;" xml:space="preserve">
<path style="fill:#E56353;" d="M26.079,243.376h75.275c-9.204-34.477-38.853-60.482-75.275-64.129V243.376z"/>
<rect x="32.974" y="236.457" style="fill:#D5D6DB;" width="120.407" height="51.5"/>
<path style="fill:#2E9AE1;" d="M438.177,294.888l-8.618-21.21c-10.044-24.721-34.067-40.89-60.75-40.89H35.566v62.101H438.177z"/>
<rect x="158.595" y="232.785" style="fill:#EBF0F3;" width="25.875" height="62.102"/>
<path style="fill:#2F4859;" d="M450.509,202.379c-9.821,0-17.784,7.963-17.784,17.784v63.726H35.566V96.418
	c0-9.822-7.962-17.784-17.783-17.784S0,86.597,0,96.418v293.239h35.566v-70.203h397.16v70.203h35.567V220.162
	C468.293,210.341,460.329,202.379,450.509,202.379z"/>
<g>
</g>
<g>
</g>
<g>
</g>
<g>
</g>
<g>
</g>
<g>
</g>
<g>
</g>
<g>
</g>
<g>
</g>
<g>
</g>
<g>
</g>
<g>
</g>
<g>
</g>
<g>
</g>
<g>
</g>
</svg>
