<?xml version="1.0" encoding="iso-8859-1"?>
<!-- Generator: Adobe Illustrator 19.0.0, SVG Export Plug-In . SVG Version: 6.00 Build 0)  -->
<svg version="1.1" id="Capa_1" xmlns="http://www.w3.org/2000/svg" xmlns:xlink="http://www.w3.org/1999/xlink" x="0px" y="0px"
	 viewBox="0 0 468.293 468.293" style="enable-background:new 0 0 468.293 468.293;" xml:space="preserve">
<g>
	<path style="fill:#2F4859;" d="M397.96,445.602l-20.679-21.324h-35.395l39.016,40.234c2.444,2.521,5.647,3.781,8.849,3.781
		c3.523,0,7.046-1.525,9.56-4.576C403.631,458.474,402.678,450.467,397.96,445.602z"/>
	<path style="fill:#2F4859;" d="M88.73,424.278l-18.397,18.971c-4.718,4.865-5.671,12.872-1.35,18.115
		c2.514,3.051,6.037,4.576,9.559,4.576c3.202,0,6.404-1.26,8.849-3.781l36.735-37.881H88.73z"/>
</g>
<g>
	<polygon style="fill:#D5D6DB;" points="148.692,71.204 116.752,38.41 31.364,38.41 31.364,58.7 108.567,58.7 134.718,85.551 	"/>
	<path style="fill:#D5D6DB;" d="M212.336,126.721c-2.769-35.1-31.37-62.704-66.268-62.704c-34.899,0-63.499,27.604-66.268,62.704
		H212.336z"/>
	<path style="fill:#D5D6DB;" d="M212.309,124.023H79.826c-5.087,0-9.21,4.234-9.21,9.457v0c0,5.222,4.124,9.456,9.21,9.456h132.483
		c5.087,0,9.21-4.234,9.21-9.456v0C221.52,128.257,217.396,124.023,212.309,124.023z"/>
	<path style="fill:#D5D6DB;" d="M0,0v126.721c18.921,0,34.259-15.749,34.259-35.176v-56.37C34.259,15.749,18.921,0,0,0z"/>
</g>
<g>
	<path style="fill:#2E9AE1;" d="M200.433,159.757c0,0-8.876,10.42-8.876,15.453c0,5.034,3.974,9.114,8.876,9.114
		c4.902,0,8.876-4.08,8.876-9.114C209.31,170.177,200.433,159.757,200.433,159.757z"/>
	<path style="fill:#2E9AE1;" d="M177.905,180.416c0,0-8.876,10.42-8.876,15.453c0,5.034,3.974,9.114,8.876,9.114
		c4.902,0,8.876-4.08,8.876-9.114C186.781,190.836,177.905,180.416,177.905,180.416z"/>
	<path style="fill:#2E9AE1;" d="M174.331,147.473c0,0-8.876,10.42-8.876,15.453c0,5.034,3.974,9.114,8.876,9.114
		c4.902,0,8.876-4.08,8.876-9.114C183.207,157.894,174.331,147.473,174.331,147.473z"/>
	<path style="fill:#2E9AE1;" d="M140.876,168.132c0,0-8.876,10.42-8.876,15.453c0,5.034,3.974,9.114,8.876,9.114
		c4.902,0,8.876-4.08,8.876-9.114C149.753,178.552,140.876,168.132,140.876,168.132z"/>
	<path style="fill:#2E9AE1;" d="M149.753,201.633c0,0-8.876,10.42-8.876,15.453c0,5.034,3.974,9.114,8.876,9.114
		c4.902,0,8.876-4.08,8.876-9.114C158.629,212.053,149.753,201.633,149.753,201.633z"/>
	<path style="fill:#2E9AE1;" d="M118.348,203.866c0,0-8.876,10.42-8.876,15.453c0,5.034,3.974,9.114,8.876,9.114
		c4.902,0,8.876-4.08,8.876-9.114C127.224,214.286,118.348,203.866,118.348,203.866z"/>
	<path style="fill:#2E9AE1;" d="M91.702,181.905c0,0-8.876,10.42-8.876,15.453c0,5.034,3.974,9.114,8.876,9.114
		c4.902,0,8.876-4.08,8.876-9.114C100.578,192.325,91.702,181.905,91.702,181.905z"/>
	<path style="fill:#2E9AE1;" d="M113.454,155.849c0,0-8.876,10.42-8.876,15.453c0,5.034,3.974,9.114,8.876,9.114
		c4.902,0,8.876-4.08,8.876-9.114C122.33,166.269,113.454,155.849,113.454,155.849z"/>
	<path style="fill:#2E9AE1;" d="M200.434,179.857c-2.496,0-4.527-2.085-4.527-4.648"/>
</g>
<path style="fill:#EBF0F3;" d="M200.434,179.857c-1.206,0.682-2.799,0.237-3.776-0.771c-0.984-1-1.419-2.639-0.751-3.877
	c0.66,1.199,1.203,1.977,1.904,2.693C198.506,178.625,199.266,179.184,200.434,179.857z"/>
<path style="fill:#2E9AE1;" d="M177.905,200.516c-2.494,0-4.525-2.085-4.525-4.648"/>
<path style="fill:#EBF0F3;" d="M177.905,200.516c-1.205,0.682-2.799,0.236-3.775-0.772c-0.983-1-1.418-2.638-0.75-3.876
	c0.66,1.199,1.203,1.976,1.903,2.693C175.978,199.283,176.737,199.842,177.905,200.516z"/>
<path style="fill:#2E9AE1;" d="M174.332,167.574c-2.496,0-4.527-2.085-4.527-4.648"/>
<path style="fill:#EBF0F3;" d="M174.332,167.574c-1.206,0.682-2.799,0.237-3.776-0.771c-0.984-1-1.419-2.639-0.751-3.877
	c0.66,1.199,1.203,1.977,1.904,2.693C172.404,166.341,173.164,166.9,174.332,167.574z"/>
<path style="fill:#2E9AE1;" d="M140.876,188.233c-2.494,0-4.525-2.085-4.525-4.648"/>
<path style="fill:#EBF0F3;" d="M140.876,188.233c-1.206,0.682-2.799,0.236-3.775-0.772c-0.983-1-1.418-2.638-0.75-3.876
	c0.66,1.199,1.203,1.976,1.903,2.693C138.949,186.999,139.708,187.559,140.876,188.233z"/>
<path style="fill:#2E9AE1;" d="M149.753,221.733c-2.496,0-4.527-2.085-4.527-4.648"/>
<path style="fill:#EBF0F3;" d="M149.753,221.733c-1.206,0.682-2.799,0.237-3.776-0.771c-0.984-1-1.419-2.639-0.751-3.877
	c0.66,1.199,1.203,1.977,1.904,2.693C147.825,220.5,148.585,221.06,149.753,221.733z"/>
<path style="fill:#2E9AE1;" d="M118.348,223.967c-2.496,0-4.527-2.085-4.527-4.648"/>
<path style="fill:#EBF0F3;" d="M118.348,223.967c-1.206,0.682-2.799,0.237-3.776-0.771c-0.984-1-1.419-2.639-0.751-3.877
	c0.66,1.199,1.203,1.977,1.904,2.693C116.421,222.734,117.18,223.293,118.348,223.967z"/>
<path style="fill:#2E9AE1;" d="M91.702,202.006c-2.496,0-4.527-2.085-4.527-4.648"/>
<path style="fill:#EBF0F3;" d="M91.702,202.006c-1.206,0.682-2.799,0.237-3.776-0.771c-0.984-1-1.419-2.639-0.751-3.877
	c0.66,1.199,1.203,1.977,1.904,2.693C89.774,200.773,90.534,201.332,91.702,202.006z"/>
<path style="fill:#2E9AE1;" d="M113.454,175.949c-2.496,0-4.527-2.085-4.527-4.648"/>
<g>
	<path style="fill:#EBF0F3;" d="M113.454,175.949c-1.206,0.682-2.799,0.237-3.776-0.771c-0.984-1-1.419-2.639-0.751-3.877
		c0.66,1.199,1.203,1.977,1.904,2.693C111.526,174.716,112.286,175.275,113.454,175.949z"/>
	<path style="fill:#EBF0F3;" d="M20.338,266.943l66.014,167.515c4.228,10.73,14.34,17.748,25.572,17.748h244.446
		c11.232,0,21.343-7.018,25.572-17.748l66.014-167.515H20.338z"/>
</g>
<path style="fill:#44C4A1;" d="M450.736,246.423H17.557C7.86,246.423,0,254.529,0,264.528c0,9.999,7.86,18.104,17.557,18.104
	h433.179c9.696,0,17.557-8.105,17.557-18.104C468.293,254.529,460.432,246.423,450.736,246.423z"/>
<g>
</g>
<g>
</g>
<g>
</g>
<g>
</g>
<g>
</g>
<g>
</g>
<g>
</g>
<g>
</g>
<g>
</g>
<g>
</g>
<g>
</g>
<g>
</g>
<g>
</g>
<g>
</g>
<g>
</g>
</svg>
