<?xml version="1.0" encoding="iso-8859-1"?>
<!-- Generator: Adobe Illustrator 19.0.0, SVG Export Plug-In . SVG Version: 6.00 Build 0)  -->
<svg version="1.1" id="Capa_1" xmlns="http://www.w3.org/2000/svg" xmlns:xlink="http://www.w3.org/1999/xlink" x="0px" y="0px"
	 viewBox="0 0 468.293 468.293" style="enable-background:new 0 0 468.293 468.293;" xml:space="preserve">
<polygon style="fill:#E1E6E9;" points="12.935,196.198 72.501,432.535 395.792,432.535 455.358,196.198 "/>
<g>
	<path style="fill:#D5D6DB;" d="M386.721,247.607c-6.955-2.061-14.287,1.876-16.373,8.833L330.06,370.009
		c-2.084,6.963,1.87,14.29,8.83,16.376c1.259,0.375,2.528,0.555,3.777,0.555c5.66,0,10.891-3.684,12.597-9.388l40.288-113.569
		C397.635,257.021,393.681,249.693,386.721,247.607z"/>
	<path style="fill:#D5D6DB;" d="M285.052,247.124c-7.23-0.766-13.673,4.553-14.395,11.782l-13.429,113.569
		c-0.719,7.23,4.555,13.673,11.785,14.393c0.444,0.046,0.884,0.067,1.321,0.067c6.677,0,12.396-5.061,13.075-11.849l13.429-113.569
		C297.557,254.287,292.282,247.844,285.052,247.124z"/>
	<path style="fill:#D5D6DB;" d="M183.24,247.124c-7.23,0.719-12.504,7.163-11.785,14.393l13.429,113.569
		c0.678,6.788,6.397,11.849,13.075,11.849c0.437,0,0.879-0.021,1.321-0.067c7.23-0.719,12.504-7.163,11.785-14.393l-13.429-113.569
		C196.911,251.672,190.406,246.359,183.24,247.124z"/>
	<path style="fill:#D5D6DB;" d="M97.945,256.44c-2.081-6.963-9.403-10.919-16.373-8.833c-6.96,2.086-10.914,9.414-8.83,16.376
		l40.288,113.569c1.706,5.704,6.934,9.388,12.597,9.388c1.249,0,2.518-0.18,3.777-0.555c6.96-2.086,10.914-9.414,8.83-16.376
		L97.945,256.44z"/>
	<path style="fill:#D5D6DB;" d="M453.713,147.088H14.58c-8.052,0-14.58,6.528-14.58,14.58v33.981c0,8.052,6.527,14.58,14.58,14.58
		h439.134c8.052,0,14.579-6.528,14.579-14.58v-33.981C468.293,153.616,461.765,147.088,453.713,147.088z"/>
</g>
<path style="fill:#FCD462;" d="M408.977,153.012L299.13,43.166c-9.879-9.879-25.896-9.879-35.776,0
	c-9.879,9.879-9.879,25.896,0,35.776l109.847,109.846c9.879,9.879,25.896,9.879,35.775,0
	C418.856,178.909,418.856,162.892,408.977,153.012z"/>
<circle style="fill:#F7BE56;" cx="387.871" cy="169.285" r="13.799"/>
<path style="fill:#FCD462;" d="M59.316,153.012L169.162,43.166c9.879-9.879,25.896-9.879,35.776,0
	c9.879,9.879,9.879,25.896,0,35.776L95.091,188.788c-9.879,9.879-25.896,9.879-35.775,0
	C49.437,178.909,49.437,162.892,59.316,153.012z"/>
<circle style="fill:#F7BE56;" cx="80.396" cy="169.285" r="13.799"/>
<g>
</g>
<g>
</g>
<g>
</g>
<g>
</g>
<g>
</g>
<g>
</g>
<g>
</g>
<g>
</g>
<g>
</g>
<g>
</g>
<g>
</g>
<g>
</g>
<g>
</g>
<g>
</g>
<g>
</g>
</svg>
