<?xml version="1.0" encoding="iso-8859-1"?>
<!-- Generator: Adobe Illustrator 19.0.0, SVG Export Plug-In . SVG Version: 6.00 Build 0)  -->
<svg version="1.1" id="Capa_1" xmlns="http://www.w3.org/2000/svg" xmlns:xlink="http://www.w3.org/1999/xlink" x="0px" y="0px"
	 viewBox="0 0 468.293 468.293" style="enable-background:new 0 0 468.293 468.293;" xml:space="preserve">
<rect x="86.053" y="374.01" style="fill:#EBF0F3;" width="296.211" height="39.118"/>
<rect x="366.018" y="63.844" style="fill:#D5D6DB;" width="32.5" height="404.449"/>
<circle style="fill:#F7BE56;" cx="382.239" cy="40.023" r="40.023"/>
<rect x="69.807" y="63.844" style="fill:#D5D6DB;" width="32.5" height="404.449"/>
<circle style="fill:#F7BE56;" cx="86.053" cy="40.023" r="40.023"/>
<path style="fill:#E56353;" d="M468.293,124.758v67.133c0,8.591-6.991,15.582-15.583,15.582H15.583
	C6.991,207.473,0,200.482,0,191.891v-67.133c0-8.591,6.991-15.582,15.583-15.582H452.71
	C461.302,109.176,468.293,116.167,468.293,124.758z"/>
<g>
	<path style="fill:#FCD462;" d="M149.32,109.176l-98.301,98.297H15.583C6.991,207.473,0,200.482,0,191.891v-4.002l78.769-78.713
		H149.32z"/>
	<polygon style="fill:#FCD462;" points="318.599,109.176 220.298,207.473 149.693,207.473 247.942,109.176 	"/>
	<path style="fill:#FCD462;" d="M468.293,124.758v4.002l-78.769,78.713h-70.551l98.248-98.297h35.489
		C461.302,109.176,468.293,116.167,468.293,124.758z"/>
</g>
<path style="fill:#E56353;" d="M468.293,257.716v67.133c0,8.591-6.991,15.582-15.583,15.582H15.583
	C6.991,340.431,0,333.44,0,324.849v-67.133c0-8.591,6.991-15.582,15.583-15.582H452.71
	C461.302,242.134,468.293,249.125,468.293,257.716z"/>
<g>
	<path style="fill:#FCD462;" d="M149.32,242.134l-98.301,98.297H15.583C6.991,340.431,0,333.44,0,324.849v-4.002l78.769-78.713
		H149.32z"/>
	<polygon style="fill:#FCD462;" points="318.599,242.134 220.298,340.431 149.693,340.431 247.942,242.134 	"/>
	<path style="fill:#FCD462;" d="M468.293,257.716v4.002l-78.769,78.713h-70.551l98.248-98.297h35.489
		C461.302,242.134,468.293,249.125,468.293,257.716z"/>
</g>
<g>
</g>
<g>
</g>
<g>
</g>
<g>
</g>
<g>
</g>
<g>
</g>
<g>
</g>
<g>
</g>
<g>
</g>
<g>
</g>
<g>
</g>
<g>
</g>
<g>
</g>
<g>
</g>
<g>
</g>
</svg>
