<?xml version="1.0" encoding="iso-8859-1"?>
<!-- Generator: Adobe Illustrator 19.0.0, SVG Export Plug-In . SVG Version: 6.00 Build 0)  -->
<svg version="1.1" id="Capa_1" xmlns="http://www.w3.org/2000/svg" xmlns:xlink="http://www.w3.org/1999/xlink" x="0px" y="0px"
	 viewBox="0 0 468.074 468.074" style="enable-background:new 0 0 468.074 468.074;" xml:space="preserve">
<path style="fill:#2F4859;" d="M382.902,161.644v176.873c0,7.919-6.43,14.349-14.349,14.349H99.521
	c-7.919,0-14.349-6.43-14.349-14.349V161.644c0-7.919,6.43-14.313,14.349-14.313h269.032
	C376.472,147.331,382.902,153.725,382.902,161.644z"/>
<polygon style="fill:#D5D6DB;" points="285.209,105.241 182.89,105.241 166.694,147.319 301.404,147.319 "/>
<g style="opacity:0.6;">
	<circle style="fill:#EBF0F3;" cx="270.071" cy="250.09" r="70.069"/>
</g>
<circle style="fill:#E1E6E9;" cx="270.071" cy="250.09" r="51.394"/>
<g style="opacity:0.71;">
	<circle style="fill:#2E9AE1;" cx="270.071" cy="250.09" r="26.025"/>
</g>
<circle style="fill:#FFFFFF;" cx="253.955" cy="270.214" r="10.877"/>
<g>
	<path style="fill:#E1E6E9;" d="M382.902,161.644v8.682H85.172v-8.682c0-7.919,6.43-14.313,14.349-14.313h269.032
		C376.472,147.331,382.902,153.725,382.902,161.644z"/>
	<path style="fill:#E1E6E9;" d="M382.902,329.871v8.646c0,7.919-6.43,14.349-14.349,14.349H99.521
		c-7.919,0-14.349-6.43-14.349-14.349v-8.646H382.902z"/>
</g>
<circle style="fill:#E56353;" cx="118.181" cy="197.323" r="9.004"/>
<circle style="fill:#44C4A1;" cx="152.991" cy="197.323" r="9.004"/>
<path style="fill:#E56353;" d="M68.472,68.469c-91.296,91.296-91.296,239.841-0.004,331.133c91.296,91.296,239.841,91.296,331.137,0
	c91.292-91.292,91.292-239.837-0.004-331.133C308.309-22.823,159.765-22.823,68.472,68.469z M90.604,90.601
	c75.358-75.358,195.718-78.854,275.324-10.603L79.997,365.928C11.746,286.322,15.242,165.963,90.604,90.601z M377.474,377.471
	c-75.367,75.367-195.737,78.859-275.347,10.59l285.933-285.933C456.329,181.737,452.838,302.107,377.474,377.471z"/>
<g>
</g>
<g>
</g>
<g>
</g>
<g>
</g>
<g>
</g>
<g>
</g>
<g>
</g>
<g>
</g>
<g>
</g>
<g>
</g>
<g>
</g>
<g>
</g>
<g>
</g>
<g>
</g>
<g>
</g>
</svg>
