<?xml version="1.0" encoding="iso-8859-1"?>
<!-- Generator: Adobe Illustrator 19.0.0, SVG Export Plug-In . SVG Version: 6.00 Build 0)  -->
<svg version="1.1" id="Capa_1" xmlns="http://www.w3.org/2000/svg" xmlns:xlink="http://www.w3.org/1999/xlink" x="0px" y="0px"
	 viewBox="0 0 468.293 468.293" style="enable-background:new 0 0 468.293 468.293;" xml:space="preserve">
<path style="fill:#2F4859;" d="M317.467,91.991V58.186c0-22.559-18.354-40.916-40.916-40.916h-84.809
	c-22.562,0-40.916,18.357-40.916,40.916v33.805H317.467z M174.184,58.186c0-9.683,7.875-17.558,17.558-17.558h84.809
	c9.683,0,17.558,7.875,17.558,17.558v32.077H174.184V58.186z"/>
<path style="fill:#EBF0F3;" d="M27.788,179.083v248.476c0,12.958,10.505,23.463,23.463,23.463h365.791
	c12.958,0,23.463-10.505,23.463-23.463V179.083H27.788z"/>
<polygon style="fill:#64798A;" points="358.599,286.274 358.599,286.274 331.835,259.51 331.835,182.138 385.363,182.138 
	385.363,259.51 "/>
<circle style="fill:#2F4859;" cx="358.6" cy="244.305" r="14.111"/>
<polygon style="fill:#64798A;" points="109.693,286.274 109.693,286.274 82.929,259.51 82.929,182.138 136.457,182.138 
	136.457,259.51 "/>
<circle style="fill:#2F4859;" cx="109.705" cy="244.305" r="14.111"/>
<path style="fill:#D5D6DB;" d="M0,107.425v102.664h468.293V107.425c0-12.958-10.505-23.463-23.463-23.463H23.463
	C10.505,83.962,0,94.467,0,107.425z"/>
<g>
</g>
<g>
</g>
<g>
</g>
<g>
</g>
<g>
</g>
<g>
</g>
<g>
</g>
<g>
</g>
<g>
</g>
<g>
</g>
<g>
</g>
<g>
</g>
<g>
</g>
<g>
</g>
<g>
</g>
</svg>
