<?xml version="1.0" encoding="iso-8859-1"?>
<!-- Generator: Adobe Illustrator 19.0.0, SVG Export Plug-In . SVG Version: 6.00 Build 0)  -->
<svg version="1.1" id="Capa_1" xmlns="http://www.w3.org/2000/svg" xmlns:xlink="http://www.w3.org/1999/xlink" x="0px" y="0px"
	 viewBox="0 0 468.302 468.302" style="enable-background:new 0 0 468.302 468.302;" xml:space="preserve">
<path style="fill:#EBF0F3;" d="M285.018,0C183.764,0.001,101.737,82.029,101.737,183.281l183.28,0L285.018,0z"/>
<path style="fill:#D5D6DB;" d="M285.018,21.375c-89.445,0.001-161.906,72.462-161.906,161.907l161.905,0L285.018,21.375z"/>
<path style="fill:#64798A;" d="M285.018,68.806c-63.242,0.001-114.475,51.234-114.475,114.475l114.474,0L285.018,68.806z"/>
<path style="fill:#EBF0F3;" d="M285.017,366.563c101.254-0.001,183.281-82.029,183.281-183.281l-183.28,0L285.017,366.563z"/>
<path style="fill:#D5D6DB;" d="M285.017,345.188c89.445-0.001,161.906-72.462,161.906-161.907l-161.905,0L285.017,345.188z"/>
<path style="fill:#64798A;" d="M285.017,297.757c63.242-0.001,114.475-51.234,114.475-114.475l-114.474,0L285.017,297.757z"/>
<path style="fill:#DC8744;" d="M361.082,136.204L35.045,462.241c-8.043,8.043-21.014,8.099-29.057,0.056
	c-7.987-7.987-7.987-21.014,0.056-29.057l326.038-326.038c7.988-7.988,21.015-7.987,29.002,0
	C369.126,115.245,369.07,128.216,361.082,136.204z"/>
<rect x="34.772" y="394.304" transform="matrix(-0.7071 0.7071 -0.7071 -0.7071 384.5413 670.3414)" style="fill:#FCD462;" width="37.332" height="41.016"/>
<g>
</g>
<g>
</g>
<g>
</g>
<g>
</g>
<g>
</g>
<g>
</g>
<g>
</g>
<g>
</g>
<g>
</g>
<g>
</g>
<g>
</g>
<g>
</g>
<g>
</g>
<g>
</g>
<g>
</g>
</svg>
