<?xml version="1.0" encoding="iso-8859-1"?>
<!-- Generator: Adobe Illustrator 19.0.0, SVG Export Plug-In . SVG Version: 6.00 Build 0)  -->
<svg version="1.1" id="Capa_1" xmlns="http://www.w3.org/2000/svg" xmlns:xlink="http://www.w3.org/1999/xlink" x="0px" y="0px"
	 viewBox="0 0 468.293 468.293" style="enable-background:new 0 0 468.293 468.293;" xml:space="preserve">
<path style="fill:#E56353;" d="M42.277,189.151H12.846C5.751,189.151,0,194.902,0,201.997v61.789
	c0,7.095,5.751,12.846,12.846,12.846h29.431V189.151z"/>
<circle style="fill:#44C4A1;" cx="133.301" cy="320.031" r="30.433"/>
<polygon style="fill:#2F4859;" points="55.553,283.892 80.848,426.554 135.701,426.554 135.701,283.892 "/>
<path style="fill:#CE412D;" d="M21.138,169.222v129.849c0,8.801,7.134,15.935,15.935,15.935h132.142V153.287H37.073
	C28.273,153.287,21.138,160.421,21.138,169.222z"/>
<polygon style="fill:#EBF0F3;" points="412.036,38.814 412.036,429.478 135.845,315.006 135.845,153.287 "/>
<ellipse transform="matrix(-0.0077 -1 1 -0.0077 181.0583 647.9668)" style="fill:#D5D6DB;" cx="412.034" cy="234.147" rx="195.309" ry="31.219"/>
<path style="fill:#E56353;" d="M412.036,177.891c-4.485,0-8.826,0.579-13.008,1.573v109.368c4.182,0.991,8.523,1.57,13.008,1.57
	c31.07,0,56.257-25.186,56.257-56.256S443.106,177.891,412.036,177.891z"/>
<path style="fill:#D5D6DB;" d="M410.535,38.82c-17.242,0.132-30.563,85.54-29.718,195.566
	c0.845,110.026,15.478,195.219,32.72,195.086"/>
<g>
</g>
<g>
</g>
<g>
</g>
<g>
</g>
<g>
</g>
<g>
</g>
<g>
</g>
<g>
</g>
<g>
</g>
<g>
</g>
<g>
</g>
<g>
</g>
<g>
</g>
<g>
</g>
<g>
</g>
</svg>
