<?xml version="1.0" encoding="iso-8859-1"?>
<!-- Generator: Adobe Illustrator 19.0.0, SVG Export Plug-In . SVG Version: 6.00 Build 0)  -->
<svg version="1.1" id="Capa_1" xmlns="http://www.w3.org/2000/svg" xmlns:xlink="http://www.w3.org/1999/xlink" x="0px" y="0px"
	 viewBox="0 0 468.311 468.311" style="enable-background:new 0 0 468.311 468.311;" xml:space="preserve">
<g>
	<path style="fill:#DC8744;" d="M234.156,118.985c-32.806,0-59.497-26.687-59.497-59.492S201.35,0,234.156,0
		s59.497,26.687,59.497,59.492S266.961,118.985,234.156,118.985z M234.156,28.182c-17.265,0-31.315,14.045-31.315,31.31
		s14.05,31.31,31.315,31.31s31.315-14.045,31.315-31.31S251.421,28.182,234.156,28.182z"/>
	<path style="fill:#DC8744;" d="M243.07,416.626h-17.828c-33.988,0-61.541-27.553-61.541-61.541v-1.086h140.91v1.086
		C304.611,389.073,277.058,416.626,243.07,416.626z"/>
</g>
<path style="fill:#FCD462;" d="M32.184,360.086h403.943c0,0-69.986-62.528-80.271-185.14
	c-3.457-41.214-25.894-108.754-121.701-115.227c-40.2-2.716-111.343,18.126-116.522,111.343
	C114.757,222.842,108.571,287.584,32.184,360.086z"/>
<rect x="324.942" y="360.086" style="fill:#64798A;" width="18.794" height="81.608"/>
<circle style="fill:#2F4859;" cx="334.37" cy="441.694" r="26.618"/>
<g>
</g>
<g>
</g>
<g>
</g>
<g>
</g>
<g>
</g>
<g>
</g>
<g>
</g>
<g>
</g>
<g>
</g>
<g>
</g>
<g>
</g>
<g>
</g>
<g>
</g>
<g>
</g>
<g>
</g>
</svg>
