<?xml version="1.0" encoding="iso-8859-1"?>
<!-- Generator: Adobe Illustrator 19.0.0, SVG Export Plug-In . SVG Version: 6.00 Build 0)  -->
<svg version="1.1" id="Capa_1" xmlns="http://www.w3.org/2000/svg" xmlns:xlink="http://www.w3.org/1999/xlink" x="0px" y="0px"
	 viewBox="0 0 468.293 468.293" style="enable-background:new 0 0 468.293 468.293;" xml:space="preserve">
<path style="fill:#EBF0F3;" d="M468.292,114.547V245.77c0,11.847-9.619,21.516-21.516,21.516H21.516
	C9.619,267.286,0,257.616,0,245.77V114.547c0-11.897,9.619-21.516,21.516-21.516h425.26
	C458.673,93.031,468.292,102.649,468.292,114.547z"/>
<path style="fill:#E1E6E9;" d="M0,234.126v11.644c0,11.847,9.618,21.516,21.516,21.516h425.26c11.896,0,21.516-9.669,21.516-21.516
	v-11.644H0z"/>
<g>
	<polygon style="fill:#D5D6DB;" points="397.735,267.286 70.557,267.286 92.269,234.126 376.023,234.126 	"/>
	<path style="fill:#D5D6DB;" d="M436.749,117.584H31.544c-2.975,0-5.386,2.411-5.386,5.386v0c0,2.975,2.411,5.386,5.386,5.386
		h405.205c2.975,0,5.386-2.411,5.386-5.386v0C442.135,119.996,439.724,117.584,436.749,117.584z"/>
	<path style="fill:#D5D6DB;" d="M436.749,143.919H31.544c-2.975,0-5.386,2.412-5.386,5.387c0,2.975,2.411,5.386,5.386,5.386h405.205
		c2.975,0,5.386-2.412,5.386-5.386C442.135,146.331,439.724,143.919,436.749,143.919z"/>
	<path style="fill:#D5D6DB;" d="M436.749,170.253H31.544c-2.975,0-5.386,2.412-5.386,5.386c0,2.975,2.411,5.386,5.386,5.386h405.205
		c2.975,0,5.386-2.411,5.386-5.386C442.135,172.665,439.724,170.253,436.749,170.253z"/>
	<path style="fill:#D5D6DB;" d="M436.749,196.588H31.544c-2.975,0-5.386,2.412-5.386,5.387v0c0,2.975,2.411,5.386,5.386,5.386
		h405.205c2.975,0,5.386-2.412,5.386-5.386v0C442.135,199,439.724,196.588,436.749,196.588z"/>
</g>
<g>
	<path style="fill:#EBF0F3;" d="M115.471,290.895c1.107,3.623,1.295,7.67,0.414,11.637c-0.996,3.98-2.306,7.127-2.557,10.148
		c-0.266,3.019-0.199,6.408,0.34,9.5c0.491,3.146,1.374,5.476,2.995,8.708c1.675,3.279,3.301,7.954,3.388,12.123
		c0.065,4.166-0.067,8.195-1.52,12.294c-1.268,4.192-3.908,7.357-5.616,10.145c-1.908,2.808-3.058,6.149-4.194,9.813
		c-1.115-3.624-1.303-7.67-0.43-11.642c0.992-3.983,2.306-7.131,2.554-10.15c0.264-3.016,0.211-6.404-0.334-9.496
		c-0.481-3.147-1.361-5.477-2.975-8.708c-1.665-3.279-3.301-7.95-3.38-12.119c-0.075-4.166,0.07-8.192,1.515-12.29
		c1.264-4.191,3.906-7.356,5.616-10.146C113.192,297.9,114.344,294.559,115.471,290.895z"/>
	<path style="fill:#EBF0F3;" d="M164.288,290.895c1.107,3.623,1.295,7.67,0.414,11.637c-0.996,3.98-2.306,7.127-2.556,10.148
		c-0.266,3.019-0.2,6.408,0.339,9.5c0.491,3.146,1.374,5.476,2.995,8.708c1.675,3.279,3.301,7.954,3.388,12.123
		c0.065,4.166-0.067,8.195-1.52,12.294c-1.268,4.192-3.908,7.357-5.616,10.145c-1.908,2.808-3.058,6.149-4.193,9.813
		c-1.116-3.624-1.304-7.67-0.43-11.642c0.993-3.983,2.306-7.131,2.554-10.15c0.265-3.016,0.211-6.404-0.334-9.496
		c-0.481-3.147-1.361-5.477-2.975-8.708c-1.665-3.279-3.301-7.95-3.38-12.119c-0.075-4.166,0.07-8.192,1.515-12.29
		c1.264-4.191,3.906-7.356,5.616-10.146C162.01,297.9,163.161,294.559,164.288,290.895z"/>
	<path style="fill:#EBF0F3;" d="M213.105,290.895c1.107,3.623,1.295,7.67,0.414,11.637c-0.996,3.98-2.306,7.127-2.556,10.148
		c-0.266,3.019-0.199,6.408,0.339,9.5c0.491,3.146,1.374,5.476,2.995,8.708c1.675,3.279,3.3,7.954,3.387,12.123
		c0.065,4.166-0.066,8.195-1.519,12.294c-1.268,4.192-3.908,7.357-5.617,10.145c-1.908,2.808-3.058,6.149-4.193,9.813
		c-1.116-3.624-1.304-7.67-0.43-11.642c0.993-3.983,2.307-7.131,2.554-10.15c0.265-3.016,0.211-6.404-0.334-9.496
		c-0.481-3.147-1.361-5.477-2.975-8.708c-1.665-3.279-3.301-7.95-3.38-12.119c-0.075-4.166,0.07-8.192,1.515-12.29
		c1.264-4.191,3.906-7.356,5.616-10.146C210.828,297.9,211.978,294.559,213.105,290.895z"/>
	<path style="fill:#EBF0F3;" d="M261.923,290.895c1.107,3.623,1.295,7.67,0.415,11.637c-0.997,3.98-2.307,7.127-2.557,10.148
		c-0.266,3.019-0.199,6.408,0.339,9.5c0.491,3.146,1.374,5.476,2.995,8.708c1.675,3.279,3.3,7.954,3.387,12.123
		c0.065,4.166-0.066,8.195-1.519,12.294c-1.268,4.192-3.908,7.357-5.617,10.145c-1.908,2.808-3.058,6.149-4.193,9.813
		c-1.116-3.624-1.304-7.67-0.43-11.642c0.993-3.983,2.306-7.131,2.554-10.15c0.264-3.016,0.21-6.404-0.334-9.496
		c-0.481-3.147-1.361-5.477-2.975-8.708c-1.665-3.279-3.301-7.95-3.38-12.119c-0.075-4.166,0.07-8.192,1.515-12.29
		c1.264-4.191,3.906-7.356,5.616-10.146C259.645,297.9,260.796,294.559,261.923,290.895z"/>
	<path style="fill:#EBF0F3;" d="M310.74,290.895c1.107,3.623,1.295,7.67,0.415,11.637c-0.997,3.98-2.306,7.127-2.557,10.148
		c-0.266,3.019-0.199,6.408,0.339,9.5c0.491,3.146,1.374,5.476,2.995,8.708c1.675,3.279,3.301,7.954,3.388,12.123
		c0.065,4.166-0.067,8.195-1.52,12.294c-1.267,4.192-3.908,7.357-5.617,10.145c-1.908,2.808-3.058,6.149-4.193,9.813
		c-1.116-3.624-1.304-7.67-0.43-11.642c0.993-3.983,2.306-7.131,2.554-10.15c0.264-3.016,0.211-6.404-0.334-9.496
		c-0.481-3.147-1.361-5.477-2.974-8.708c-1.665-3.279-3.301-7.95-3.38-12.119c-0.075-4.166,0.07-8.192,1.515-12.29
		c1.264-4.191,3.906-7.356,5.616-10.146C308.462,297.9,309.613,294.559,310.74,290.895z"/>
	<path style="fill:#EBF0F3;" d="M359.558,290.895c1.107,3.623,1.295,7.67,0.414,11.637c-0.997,3.98-2.306,7.127-2.557,10.148
		c-0.266,3.019-0.199,6.408,0.34,9.5c0.49,3.146,1.373,5.476,2.995,8.708c1.675,3.279,3.301,7.954,3.388,12.123
		c0.065,4.166-0.067,8.195-1.52,12.294c-1.268,4.192-3.908,7.357-5.616,10.145c-1.908,2.808-3.058,6.149-4.194,9.813
		c-1.116-3.624-1.303-7.67-0.429-11.642c0.992-3.983,2.306-7.131,2.554-10.15c0.264-3.016,0.211-6.404-0.334-9.496
		c-0.481-3.147-1.361-5.477-2.975-8.708c-1.665-3.279-3.301-7.95-3.38-12.119c-0.075-4.166,0.07-8.192,1.515-12.29
		c1.264-4.191,3.906-7.356,5.616-10.146C357.279,297.9,358.431,294.559,359.558,290.895z"/>
</g>
<path style="fill:#E56353;" d="M34.807,225.477c-4.777,0-8.649,3.872-8.649,8.649c0,4.776,3.872,8.649,8.649,8.649
	c4.776,0,8.648-3.872,8.648-8.649C43.455,229.349,39.583,225.477,34.807,225.477z"/>
<path style="fill:#44C4A1;" d="M59.272,225.477c-4.777,0-8.649,3.872-8.649,8.649c0,4.776,3.872,8.649,8.649,8.649
	c4.776,0,8.648-3.872,8.648-8.649C67.92,229.349,64.048,225.477,59.272,225.477z"/>
<g>
</g>
<g>
</g>
<g>
</g>
<g>
</g>
<g>
</g>
<g>
</g>
<g>
</g>
<g>
</g>
<g>
</g>
<g>
</g>
<g>
</g>
<g>
</g>
<g>
</g>
<g>
</g>
<g>
</g>
</svg>
