<?xml version="1.0" encoding="iso-8859-1"?>
<!-- Generator: Adobe Illustrator 19.0.0, SVG Export Plug-In . SVG Version: 6.00 Build 0)  -->
<svg version="1.1" id="Capa_1" xmlns="http://www.w3.org/2000/svg" xmlns:xlink="http://www.w3.org/1999/xlink" x="0px" y="0px"
	 viewBox="0 0 468.294 468.294" style="enable-background:new 0 0 468.294 468.294;" xml:space="preserve">
<g>
	<polygon style="fill:#38425B;" points="436.738,329.949 398.392,291.603 383.185,306.81 392.034,315.659 341.879,365.814 
		362.527,386.462 412.681,336.307 421.531,345.156 	"/>
	<polygon style="fill:#38425B;" points="176.691,69.901 138.345,31.555 123.137,46.763 131.987,55.612 81.832,105.767 
		102.479,126.414 152.634,76.26 161.483,85.109 	"/>
</g>
<g>
	<polygon style="fill:#D5D6DB;" points="0,113.913 188.023,222.141 284.368,125.796 45.838,68.074 	"/>
	<polygon style="fill:#D5D6DB;" points="342.497,183.925 246.152,280.27 354.38,468.293 400.219,422.455 	"/>
	<polygon style="fill:#D5D6DB;" points="8.904,300.209 93.36,348.823 136.636,305.547 29.494,279.619 	"/>
	<polygon style="fill:#D5D6DB;" points="162.746,331.657 119.47,374.933 168.084,459.389 188.674,438.799 	"/>
</g>
<path style="fill:#E1E6E9;" d="M424.409,0.825l-47,10.041L66.205,347.795c0.409,20.62,0.647,32.613,1.056,53.233l0.003,0.004
	c20.622,0.408,32.614,0.647,53.236,1.055L457.426,90.885l10.044-47.001C472.965,18.168,450.127-4.672,424.409,0.825z"/>
<path style="fill:#38425B;" d="M404.612,96.695c-3.981,0-7.203-3.222-7.203-7.203c0-10.256-8.342-18.598-18.612-18.598
	c-3.981,0-7.203-3.222-7.203-7.203s3.222-7.203,7.203-7.203c18.204,0,33.018,14.8,33.018,33.004
	C411.814,93.474,408.593,96.695,404.612,96.695z"/>
<g>
</g>
<g>
</g>
<g>
</g>
<g>
</g>
<g>
</g>
<g>
</g>
<g>
</g>
<g>
</g>
<g>
</g>
<g>
</g>
<g>
</g>
<g>
</g>
<g>
</g>
<g>
</g>
<g>
</g>
</svg>
