<?xml version="1.0" encoding="iso-8859-1"?>
<!-- Generator: Adobe Illustrator 19.0.0, SVG Export Plug-In . SVG Version: 6.00 Build 0)  -->
<svg version="1.1" id="Capa_1" xmlns="http://www.w3.org/2000/svg" xmlns:xlink="http://www.w3.org/1999/xlink" x="0px" y="0px"
	 viewBox="0 0 514.825 514.825" style="enable-background:new 0 0 514.825 514.825;" xml:space="preserve">
<path style="fill:#2E9AE1;" d="M436.404,394.956V289.004h-11.707v105.952c-8.114,2.511-14.049,9.986-14.049,18.926
	c0,10.992,8.911,19.902,19.902,19.902c10.992,0,19.902-8.91,19.902-19.902C450.453,404.942,444.519,397.468,436.404,394.956z"/>
<path style="fill:#D5D6DB;" d="M198.888,514.825h117.049c36.797-27.66,61.716-80.497,61.716-141.242
	c0-25.928-4.603-50.373-12.664-72.091H149.837c-8.061,21.718-12.664,46.163-12.664,72.091
	C137.173,434.328,162.092,487.165,198.888,514.825z"/>
<path style="fill:#2F4859;" d="M340.836,0H173.989c-16.105,0-30.371,10.391-35.311,25.72L46.041,313.172h422.742L376.147,25.72
	C371.207,10.391,356.941,0,340.836,0z"/>
<g>
</g>
<g>
</g>
<g>
</g>
<g>
</g>
<g>
</g>
<g>
</g>
<g>
</g>
<g>
</g>
<g>
</g>
<g>
</g>
<g>
</g>
<g>
</g>
<g>
</g>
<g>
</g>
<g>
</g>
</svg>
