<?xml version="1.0" encoding="iso-8859-1"?>
<!-- Generator: Adobe Illustrator 19.0.0, SVG Export Plug-In . SVG Version: 6.00 Build 0)  -->
<svg version="1.1" id="Capa_1" xmlns="http://www.w3.org/2000/svg" xmlns:xlink="http://www.w3.org/1999/xlink" x="0px" y="0px"
	 viewBox="0 0 468.293 468.293" style="enable-background:new 0 0 468.293 468.293;" xml:space="preserve">
<g>
	<rect x="342.665" y="80.297" style="fill:#D5D6DB;" width="34.323" height="55.777"/>
	<rect x="91.348" y="80.297" style="fill:#D5D6DB;" width="34.323" height="55.777"/>
</g>
<path style="fill:#64798A;" d="M23.292,142.817v254.374c0,9.986,8.096,18.082,18.082,18.082h385.545
	c9.986,0,18.082-8.096,18.082-18.082V142.817c0-9.986-8.096-18.082-18.082-18.082H41.374
	C31.388,124.735,23.292,132.831,23.292,142.817z"/>
<rect x="50.863" y="155.099" style="fill:#EBF0F3;" width="366.561" height="229.813"/>
<path style="fill:#F7BE56;" d="M448.065,53.02H20.227C9.055,53.02,0,62.076,0,73.247c0,11.171,9.055,20.227,20.227,20.227h427.838
	c11.172,0,20.227-9.057,20.227-20.227C468.293,62.076,459.237,53.02,448.065,53.02z"/>
<polygon style="fill:#E56353;" points="234.146,172.154 247.201,198.607 276.393,202.848 255.27,223.439 260.256,252.512 
	234.146,238.786 208.036,252.512 213.023,223.439 191.9,202.848 221.091,198.607 "/>
<g>
	<path style="fill:#44C4A1;" d="M92.871,351.208v-61.566h12.431v24.232h24.358v-24.232h12.431v61.566H129.66v-26.919h-24.358v26.919
		H92.871z"/>
	<path style="fill:#44C4A1;" d="M152.422,320.803c0-6.271,0.938-11.535,2.814-15.791c1.4-3.136,3.311-5.949,5.732-8.441
		c2.422-2.492,5.075-4.34,7.958-5.543c3.836-1.624,8.259-2.436,13.271-2.436c9.071,0,16.329,2.814,21.775,8.441
		c5.445,5.628,8.168,13.453,8.168,23.476c0,9.939-2.702,17.715-8.105,23.329c-5.404,5.613-12.627,8.42-21.67,8.42
		c-9.155,0-16.434-2.793-21.838-8.378C155.124,338.295,152.422,330.602,152.422,320.803z M165.231,320.383
		c0,6.971,1.61,12.256,4.83,15.854c3.22,3.598,7.307,5.397,12.263,5.397c4.956,0,9.022-1.785,12.2-5.354
		c3.178-3.57,4.767-8.924,4.767-16.064c0-7.055-1.547-12.319-4.641-15.791c-3.094-3.472-7.202-5.208-12.326-5.208
		c-5.124,0-9.253,1.757-12.389,5.271S165.231,313.3,165.231,320.383z"/>
	<path style="fill:#44C4A1;" d="M235.7,351.208v-51.151h-18.268v-10.415h48.926v10.415h-18.226v51.151H235.7z"/>
	<path style="fill:#44C4A1;" d="M274.379,351.208v-61.566h45.65v10.415H286.81v13.649h30.909v10.373H286.81v16.756h34.395v10.373
		H274.379z"/>
	<path style="fill:#44C4A1;" d="M332.081,351.208v-61.062h12.431v50.689h30.909v10.373H332.081z"/>
</g>
<g>
</g>
<g>
</g>
<g>
</g>
<g>
</g>
<g>
</g>
<g>
</g>
<g>
</g>
<g>
</g>
<g>
</g>
<g>
</g>
<g>
</g>
<g>
</g>
<g>
</g>
<g>
</g>
<g>
</g>
</svg>
