<?xml version="1.0" encoding="iso-8859-1"?>
<!-- Generator: Adobe Illustrator 19.0.0, SVG Export Plug-In . SVG Version: 6.00 Build 0)  -->
<svg version="1.1" id="Capa_1" xmlns="http://www.w3.org/2000/svg" xmlns:xlink="http://www.w3.org/1999/xlink" x="0px" y="0px"
	 viewBox="0 0 468.316 468.316" style="enable-background:new 0 0 468.316 468.316;" xml:space="preserve">
<g>
	<path style="fill:#2F4859;" d="M146.41,428.394c-20.364,0-36.933-14.216-36.933-31.686v-79.792c0-2.729,2.209-4.938,4.938-4.938
		c2.729,0,4.938,2.209,4.938,4.938v79.792c0,12.026,12.137,21.81,27.057,21.81c14.92,0,27.057-9.784,27.057-21.81v-53.043
		c0-17.471,16.564-31.686,36.928-31.686s36.933,14.216,36.933,31.686v53.043c0,2.729-2.209,4.938-4.938,4.938
		s-4.938-2.209-4.938-4.938v-53.043c0-12.026-12.137-21.811-27.057-21.811c-14.915,0-27.052,9.784-27.052,21.811v53.043
		C183.342,414.178,166.774,428.394,146.41,428.394z"/>
	<path style="fill:#2F4859;" d="M144.815,252.791h-13.94v44.749h13.94c4.062,0,7.355-4.682,7.355-10.456v-23.838
		C152.17,257.472,148.877,252.791,144.815,252.791z"/>
</g>
<g>
	<path style="fill:#D5D6DB;" d="M55.28,212.362l35.964,126.267c1.501,5.271,6.317,8.907,11.798,8.907h26.213
		c6.775,0,12.267-5.492,12.267-12.267V212.362H55.28z"/>
	<polygon style="fill:#D5D6DB;" points="98.368,39.948 98.368,236.64 370.774,191.376 370.774,85.212 	"/>
</g>
<ellipse style="fill:#E1E6E9;" cx="98.373" cy="138.295" rx="98.348" ry="98.348"/>
<path style="fill:#EBF0F3;" d="M139.929,138.294c0,1.284-0.049,2.617-0.148,3.852c-0.395,3.999-1.333,7.802-2.716,11.406
	c-1.086,2.716-2.469,5.333-4.098,7.752c-7.407,11.209-20.147,18.566-34.614,18.566s-27.158-7.357-34.614-18.566
	c-1.58-2.419-2.963-5.036-4-7.752c-1.432-3.605-2.37-7.407-2.765-11.406c-0.099-1.234-0.148-2.568-0.148-3.852
	c0-1.284,0.049-2.617,0.148-3.852c0.395-4,1.333-7.802,2.765-11.407c1.037-2.715,2.419-5.333,4-7.752
	c7.456-11.208,20.147-18.566,34.614-18.566s27.208,7.358,34.614,18.566c1.629,2.42,3.012,5.037,4.098,7.752
	c1.383,3.605,2.321,7.407,2.716,11.407C139.879,135.677,139.929,137.01,139.929,138.294z"/>
<g>
	<path style="fill:#D5D6DB;" d="M137.065,123.036H59.738c1.037-2.715,2.419-5.333,4-7.752h69.229
		C134.596,117.703,135.979,120.321,137.065,123.036z"/>
	<path style="fill:#D5D6DB;" d="M139.929,138.294c0,1.284-0.049,2.617-0.148,3.852H56.973c-0.099-1.234-0.148-2.568-0.148-3.852
		c0-1.284,0.049-2.617,0.148-3.852h82.808C139.879,135.677,139.929,137.01,139.929,138.294z"/>
	<path style="fill:#D5D6DB;" d="M137.065,153.552c-1.086,2.716-2.469,5.333-4.098,7.752H63.738c-1.58-2.419-2.963-5.036-4-7.752
		H137.065z"/>
</g>
<ellipse style="fill:#64798A;" cx="370.773" cy="138.296" rx="15.223" ry="53.079"/>
<g>
	<path style="fill:#E1E6E9;" d="M464.487,119.16c-6.297,0-9.595-2.04-12.508-3.843c-2.591-1.601-4.64-2.869-9.195-2.869
		c-4.554,0-6.604,1.268-9.195,2.869c-2.913,1.803-6.211,3.843-12.508,3.843c-6.293,0-9.591-2.04-12.5-3.843
		c-2.591-1.601-4.637-2.869-9.187-2.869c-2.116,0-3.829-2.209-3.829-4.938s1.713-4.938,3.829-4.938c6.293,0,9.591,2.04,12.5,3.843
		c2.591,1.601,4.637,2.869,9.187,2.869c4.554,0,6.604-1.268,9.195-2.869c2.913-1.803,6.211-3.843,12.508-3.843
		c6.297,0,9.595,2.04,12.508,3.843c2.591,1.601,4.64,2.869,9.195,2.869c2.116,0,3.829,2.209,3.829,4.938
		C468.316,116.952,466.603,119.16,464.487,119.16z"/>
	<path style="fill:#E1E6E9;" d="M464.487,146.588c-6.297,0-9.595-2.04-12.508-3.843c-2.591-1.601-4.64-2.869-9.195-2.869
		c-4.554,0-6.604,1.268-9.195,2.869c-2.913,1.803-6.211,3.843-12.508,3.843c-6.293,0-9.591-2.04-12.5-3.843
		c-2.591-1.601-4.637-2.869-9.187-2.869c-2.116,0-3.829-2.209-3.829-4.938s1.713-4.938,3.829-4.938c6.293,0,9.591,2.04,12.5,3.843
		c2.591,1.601,4.637,2.869,9.187,2.869c4.554,0,6.604-1.268,9.195-2.869c2.913-1.803,6.211-3.843,12.508-3.843
		c6.297,0,9.595,2.04,12.508,3.843c2.591,1.601,4.64,2.869,9.195,2.869c2.116,0,3.829,2.209,3.829,4.938
		S466.603,146.588,464.487,146.588z"/>
	<path style="fill:#E1E6E9;" d="M464.487,174.016c-6.297,0-9.595-2.04-12.508-3.843c-2.591-1.601-4.64-2.869-9.195-2.869
		c-4.554,0-6.604,1.268-9.195,2.869c-2.913,1.803-6.211,3.843-12.508,3.843c-6.293,0-9.591-2.04-12.5-3.843
		c-2.591-1.601-4.637-2.869-9.187-2.869c-2.116,0-3.829-2.209-3.829-4.938s1.713-4.938,3.829-4.938c6.293,0,9.591,2.04,12.5,3.843
		c2.591,1.601,4.637,2.869,9.187,2.869c4.554,0,6.604-1.268,9.195-2.869c2.913-1.803,6.211-3.843,12.508-3.843
		c6.297,0,9.595,2.04,12.508,3.843c2.591,1.601,4.64,2.869,9.195,2.869c2.116,0,3.829,2.209,3.829,4.938
		C468.316,171.808,466.603,174.016,464.487,174.016z"/>
</g>
<g>
</g>
<g>
</g>
<g>
</g>
<g>
</g>
<g>
</g>
<g>
</g>
<g>
</g>
<g>
</g>
<g>
</g>
<g>
</g>
<g>
</g>
<g>
</g>
<g>
</g>
<g>
</g>
<g>
</g>
</svg>
