<?xml version="1.0" encoding="iso-8859-1"?>
<!-- Generator: Adobe Illustrator 19.0.0, SVG Export Plug-In . SVG Version: 6.00 Build 0)  -->
<svg version="1.1" id="Capa_1" xmlns="http://www.w3.org/2000/svg" xmlns:xlink="http://www.w3.org/1999/xlink" x="0px" y="0px"
	 viewBox="0 0 409.886 409.886" style="enable-background:new 0 0 409.886 409.886;" xml:space="preserve">
<g>
	<path style="fill:#FCD462;" d="M287.805,376.975v23.22c0,5.352,4.339,9.691,9.691,9.691h26.667c5.352,0,9.691-4.339,9.691-9.691
		v-23.22H287.805z"/>
	<path style="fill:#FCD462;" d="M76.033,376.975v23.22c0,5.352,4.339,9.691,9.691,9.691h26.667c5.352,0,9.691-4.339,9.691-9.691
		v-23.22H76.033z"/>
</g>
<path style="fill:#F7BE56;" d="M369.236,0H40.65C23.193,0,9.041,14.152,9.041,31.61v328.585c0,17.457,14.152,31.61,31.61,31.61
	h328.585c17.457,0,31.61-14.152,31.61-31.61V31.61C400.846,14.152,386.693,0,369.236,0z"/>
<rect x="46.492" y="37.463" style="fill:#FCD462;" width="316.878" height="316.878"/>
<path style="fill:#2F4859;" d="M172.626,171.451c0,1.883-0.099,3.766-0.347,5.55c-0.991,7.631-4.014,14.619-8.523,20.416
	c-2.23,2.974-4.906,5.649-7.879,7.879c-5.798,4.509-12.785,7.483-20.416,8.523c-1.833,0.198-3.717,0.347-5.6,0.347
	c-1.883,0-3.766-0.099-5.55-0.347c-7.631-0.991-14.668-4.014-20.466-8.473c-2.924-2.28-5.55-4.906-7.879-7.879
	c-4.46-5.797-7.483-12.785-8.474-20.466c-0.248-1.784-0.347-3.667-0.347-5.55c0-1.883,0.099-3.766,0.347-5.6
	c0.991-7.631,4.014-14.618,8.474-20.416c2.279-2.973,4.906-5.6,7.829-7.928c5.798-4.46,12.834-7.483,20.515-8.474
	c1.784-0.247,3.667-0.347,5.55-0.347c1.883,0,3.766,0.099,5.6,0.347c7.631,0.991,14.668,4.014,20.466,8.524
	c2.973,2.279,5.6,4.906,7.879,7.879c4.46,5.798,7.433,12.785,8.473,20.416C172.527,167.685,172.626,169.568,172.626,171.451z"/>
<g>
	<path style="fill:#64798A;" d="M135.461,129.033v13.33c0,3.122-2.478,5.6-5.6,5.6c-3.072,0-5.55-2.478-5.55-5.6v-13.33
		c1.784-0.247,3.667-0.347,5.55-0.347C131.744,128.686,133.628,128.785,135.461,129.033z"/>
	<path style="fill:#64798A;" d="M113.261,154.85c-2.18,2.181-5.699,2.181-7.879,0l-9.415-9.415c2.279-2.973,4.906-5.6,7.829-7.928
		l9.465,9.465C115.441,149.152,115.441,152.67,113.261,154.85z"/>
	<path style="fill:#64798A;" d="M106.423,171.451c0,3.072-2.527,5.55-5.6,5.55h-13.33c-0.248-1.784-0.347-3.667-0.347-5.55
		c0-1.883,0.099-3.766,0.347-5.6h13.33C103.895,165.851,106.423,168.379,106.423,171.451z"/>
	<path style="fill:#64798A;" d="M113.261,195.93l-9.415,9.416c-2.924-2.28-5.55-4.906-7.879-7.879l9.415-9.415
		c2.181-2.181,5.699-2.181,7.879,0C115.441,190.232,115.441,193.75,113.261,195.93z"/>
	<path style="fill:#64798A;" d="M135.461,200.49v13.33c-1.833,0.198-3.717,0.347-5.6,0.347c-1.883,0-3.766-0.099-5.55-0.347v-13.33
		c0-3.073,2.478-5.551,5.55-5.551C132.983,194.939,135.461,197.417,135.461,200.49z"/>
	<path style="fill:#64798A;" d="M163.756,197.417c-2.23,2.974-4.906,5.649-7.879,7.879l-9.366-9.366c-2.18-2.18-2.18-5.698,0-7.878
		c2.18-2.181,5.699-2.181,7.879,0L163.756,197.417z"/>
	<path style="fill:#64798A;" d="M172.626,171.451c0,1.883-0.099,3.766-0.347,5.55h-13.33c-3.072,0-5.6-2.478-5.6-5.55
		c0-3.072,2.527-5.6,5.6-5.6h13.33C172.527,167.685,172.626,169.568,172.626,171.451z"/>
	<path style="fill:#64798A;" d="M163.806,145.435l-9.415,9.415c-2.181,2.181-5.699,2.181-7.879,0c-2.18-2.181-2.18-5.699,0-7.879
		l9.415-9.415C158.9,139.836,161.526,142.462,163.806,145.435z"/>
</g>
<path style="fill:#2F4859;" d="M287.544,185.379v-27.906c5.982-2.716,10.147-8.484,10.147-15.219
	c0-9.335-7.942-16.903-17.739-16.903c-9.797,0-17.74,7.567-17.74,16.903c0,6.735,4.165,12.502,10.148,15.219v27.906
	c-5.982,2.717-10.148,8.484-10.148,15.219c0,9.335,7.943,16.903,17.74,16.903c9.797,0,17.739-7.568,17.739-16.903
	C297.691,193.863,293.526,188.096,287.544,185.379z"/>
<g>
</g>
<g>
</g>
<g>
</g>
<g>
</g>
<g>
</g>
<g>
</g>
<g>
</g>
<g>
</g>
<g>
</g>
<g>
</g>
<g>
</g>
<g>
</g>
<g>
</g>
<g>
</g>
<g>
</g>
</svg>
