<?xml version="1.0" encoding="iso-8859-1"?>
<!-- Generator: Adobe Illustrator 19.0.0, SVG Export Plug-In . SVG Version: 6.00 Build 0)  -->
<svg version="1.1" id="Capa_1" xmlns="http://www.w3.org/2000/svg" xmlns:xlink="http://www.w3.org/1999/xlink" x="0px" y="0px"
	 viewBox="0 0 468.293 468.293" style="enable-background:new 0 0 468.293 468.293;" xml:space="preserve">
<g>
	<polygon style="fill:#40596B;" points="341.659,409.955 374.221,462.526 414.085,462.526 414.085,409.955 	"/>
	<polygon style="fill:#40596B;" points="54.208,468.293 94.071,468.293 126.634,415.722 54.208,415.722 	"/>
</g>
<path style="fill:#FFD15C;" d="M106.467,97.787h23.842l87.719-83.065c3.499-3.393,3.468-8.867-0.069-12.224
	c-3.535-3.357-9.235-3.327-12.733,0.065l-86.295,81.684L89.004,28.31c-2.606-4.066-8.152-5.335-12.388-2.833l-0.004,0.003
	c-4.236,2.501-5.557,7.825-2.951,11.89L106.467,97.787z"/>
<path style="fill:#2F4859;" d="M0,108.677v280.666c0,17.28,14.595,31.288,32.599,31.288h403.095
	c18.004,0,32.599-14.008,32.599-31.288V108.677c0-17.28-14.595-31.288-32.599-31.288H32.599C14.595,77.389,0,91.397,0,108.677z"/>
<path style="fill:#2E9AE1;" d="M52.637,154.498c-34.159,37.951-34.159,157.218,0,195.168c40.814,45.344,213.835,41.223,259.753,0
	c38.431-34.501,38.431-160.667,0-195.168C266.472,113.275,93.451,109.154,52.637,154.498z"/>
<g>
	<path style="fill:#FFD15C;" d="M428.955,366.074h-64.748c-5.925,0-10.729,4.61-10.729,10.297c0,5.687,4.803,10.297,10.729,10.297
		h64.748c5.925,0,10.729-4.61,10.729-10.297C439.683,370.684,434.88,366.074,428.955,366.074z"/>
	<path style="fill:#FFD15C;" d="M428.955,325.969h-64.748c-5.925,0-10.729,4.61-10.729,10.297c0,5.687,4.803,10.297,10.729,10.297
		h64.748c5.925,0,10.729-4.61,10.729-10.297C439.683,330.579,434.88,325.969,428.955,325.969z"/>
	<path style="fill:#FFD15C;" d="M364.207,306.458h64.748c5.925,0,10.729-4.61,10.729-10.297c0-5.687-4.803-10.297-10.729-10.297
		h-64.748c-5.925,0-10.729,4.61-10.729,10.297C353.478,301.849,358.282,306.458,364.207,306.458z"/>
	<ellipse style="fill:#FFD15C;" cx="396.55" cy="236.02" rx="21.454" ry="20.592"/>
</g>
<ellipse style="fill:#FF7057;" cx="396.55" cy="154.349" rx="35.01" ry="33.598"/>
<g>
</g>
<g>
</g>
<g>
</g>
<g>
</g>
<g>
</g>
<g>
</g>
<g>
</g>
<g>
</g>
<g>
</g>
<g>
</g>
<g>
</g>
<g>
</g>
<g>
</g>
<g>
</g>
<g>
</g>
</svg>
