<?xml version="1.0" encoding="iso-8859-1"?>
<!-- Generator: Adobe Illustrator 19.0.0, SVG Export Plug-In . SVG Version: 6.00 Build 0)  -->
<svg version="1.1" id="Capa_1" xmlns="http://www.w3.org/2000/svg" xmlns:xlink="http://www.w3.org/1999/xlink" x="0px" y="0px"
	 viewBox="0 0 468.293 468.293" style="enable-background:new 0 0 468.293 468.293;" xml:space="preserve">
<path style="fill:#2E9AE1;" d="M468.293,222.966v11.074c0,0.637-0.213,1.063-0.213,1.49v9.795h-0.425
	c-1.704,40.252-13.63,78.796-35.138,112.868h1.491l-13.843,17.89c0,0,0,0,0,0.213l-3.407,4.258
	c-42.378,52.813-104.136,84.117-171.43,87.312v0.426h-22.362v-0.426c-33.646-1.703-65.803-10.221-94.978-25.13
	c-29.175-14.693-55.156-35.775-76.452-62.182l-3.407-4.471l-13.63-17.89h1.278C14.481,324.12,2.342,285.576,0.638,245.324H0v-22.359
	h0.638C2.342,182.716,14.481,144.17,35.777,110.1h-1.278l13.63-17.89l3.407-4.471C93.914,34.925,155.672,3.621,222.966,0.424V0
	h22.362v0.424c67.294,3.197,129.052,34.502,171.43,87.528h0.213l3.194,4.045c0,0.213,0,0.213,0,0.213l13.63,17.89h-1.278
	c21.509,34.07,33.221,72.617,35.138,112.866H468.293z"/>
<path style="fill:#D5D6DB;" d="M467.654,222.966c-1.917-40.249-13.63-78.796-35.138-112.866h1.278l-13.63-17.89c0,0,0,0,0-0.213
	l-3.194-4.045h-0.213c-42.378-53.026-104.136-84.33-171.43-87.528V0h-22.362v0.424C155.672,3.621,93.914,34.925,51.535,87.738
	l-3.407,4.471l-13.63,17.89h1.278C14.481,144.17,2.342,182.716,0.638,222.966H0v22.359h0.638
	c1.704,40.252,13.843,78.796,35.138,112.868h-1.278l13.63,17.89l3.407,4.471c21.296,26.406,47.277,47.489,76.452,62.182
	c29.175,14.909,61.332,23.427,94.978,25.13v0.426h22.362v-0.426c67.294-3.195,129.052-34.499,171.43-87.312l3.407-4.258
	c0-0.213,0-0.213,0-0.213l13.843-17.89h-1.491c21.509-34.073,33.434-72.617,35.138-112.868h0.425v-9.795
	c0-0.426,0.213-0.853,0.213-1.49v-11.074H467.654z M173.986,30.878c0,0.213,0,0.213,0,0.213c-2.982,3.195-5.537,6.813-8.306,10.435
	c-0.638,0.639-1.065,1.49-1.703,2.342c-2.555,3.621-5.111,7.669-7.667,11.714c-0.212,0.639-0.638,1.066-0.851,1.705
	c-2.342,3.832-4.473,8.09-6.602,12.348c-0.426,0.853-0.851,1.492-1.278,2.345c-2.342,4.684-4.473,9.582-6.388,14.693
	c-0.213,0.426-0.426,0.639-0.639,1.066H81.137C106.905,60.692,138.849,41.315,173.986,30.878z M62.609,110.1h70.062v0.213
	c-2.555,7.45-4.471,15.332-6.388,23.422c-0.426,1.705-0.851,3.411-1.278,5.111c-1.704,7.882-3.195,15.972-4.684,24.067
	c-0.213,1.276-0.213,2.766-0.426,4.045c-1.278,7.666-2.13,15.332-2.982,23.427c0,1.276-0.213,2.553-0.213,4.045
	c-0.851,8.516-1.278,17.251-1.491,26.193c0,0.639-0.212,1.492-0.212,2.342H22.573C24.702,182.077,38.332,143.32,62.609,110.1z
	 M62.609,358.193c-24.277-33.22-37.907-71.977-40.036-112.868h92.424c0,0.853,0.212,1.705,0.212,2.345
	c0.213,8.943,0.64,17.675,1.491,26.193c0,1.492,0.213,2.769,0.213,4.045c0.851,8.095,1.704,15.759,2.982,23.427
	c0.213,1.276,0.213,2.766,0.426,4.045c1.49,8.092,2.98,16.185,4.684,24.064c0.426,1.703,0.851,3.408,1.278,5.111
	c1.917,8.092,3.833,15.972,6.388,23.425v0.213H62.609z M173.986,437.412c-35.137-10.435-67.081-29.812-92.849-56.858h59.415
	c0.213,0.426,0.426,0.64,0.639,1.066c1.916,5.111,4.046,10.008,6.388,14.693c0.426,0.853,0.851,1.492,1.278,2.342
	c2.129,4.261,4.259,8.519,6.602,12.351c0.213,0.639,0.639,1.066,0.851,1.705c2.557,4.045,5.112,8.092,7.667,11.714
	c0.638,0.85,1.065,1.703,1.703,2.34c2.769,3.621,5.324,7.242,8.306,10.435C173.986,437.199,173.986,437.199,173.986,437.412z
	 M222.966,444.442c-0.212-0.213-0.425-0.213-0.425-0.213c-2.344-0.639-4.473-1.492-6.602-2.555
	c-0.639-0.213-1.278-0.426-1.704-0.639c-2.342-1.063-4.686-2.555-7.028-4.048c-0.213-0.211-0.638-0.424-1.065-0.637
	c-1.917-1.49-4.046-2.982-5.962-4.687c-0.639-0.424-1.066-0.85-1.491-1.276c-2.344-2.129-4.473-4.258-6.602-6.6
	c-0.426-0.426-0.853-0.853-1.278-1.279c-1.917-2.129-3.834-4.471-5.537-6.816c-0.426-0.637-0.853-1.063-1.278-1.7
	c-2.13-2.771-4.046-5.75-6.177-8.948c-0.425-0.424-0.638-1.063-1.065-1.7c-1.704-2.984-3.62-5.963-5.324-9.158
	c-0.213-0.639-0.426-1.066-0.851-1.49c-1.704-3.624-3.621-7.456-5.324-11.287c-0.213-0.426-0.213-0.639-0.426-0.853h58.137V444.442z
	 M222.966,358.193h-66.868c-0.213-0.639-0.426-1.49-0.639-2.129c-2.555-7.453-4.684-14.909-6.602-22.785
	c-0.213-1.066-0.638-2.345-0.851-3.408c-1.917-7.879-3.621-15.972-4.899-24.277c-0.212-0.426-0.212-0.853-0.425-1.492
	c-1.278-8.303-2.344-17.035-3.195-25.767c-0.213-1.703-0.426-3.192-0.426-4.898c-0.851-8.516-1.278-17.251-1.703-25.98v-2.132
	h85.608V358.193z M222.966,222.966h-85.608v-2.129c0.425-8.732,0.851-17.464,1.703-25.98c0-1.705,0.213-3.195,0.426-4.898
	c0.851-8.732,1.917-17.464,3.195-25.77c0.213-0.637,0.213-1.063,0.425-1.49c1.278-8.306,2.982-16.398,4.899-24.277
	c0.213-1.066,0.638-2.342,0.851-3.408c1.917-7.879,4.046-15.332,6.602-22.788c0.213-0.637,0.426-1.49,0.639-2.126h66.868V222.966z
	 M222.966,87.738h-58.137c0.213-0.213,0.213-0.426,0.426-0.853c1.703-3.832,3.62-7.666,5.324-11.287
	c0.425-0.426,0.638-0.85,0.851-1.49c1.704-3.195,3.62-6.174,5.324-9.158c0.426-0.639,0.639-1.276,1.065-1.703
	c2.13-3.195,4.046-6.174,6.177-8.945c0.425-0.639,0.851-1.063,1.278-1.703c1.703-2.342,3.62-4.684,5.537-6.813l1.278-1.279
	c2.129-2.342,4.258-4.471,6.602-6.603c0.425-0.424,0.851-0.85,1.491-1.276c1.916-1.703,4.045-3.195,5.962-4.684
	c0.426-0.213,0.851-0.426,1.065-0.639c2.342-1.49,4.686-2.982,7.028-4.048c0.426-0.213,1.065-0.424,1.704-0.637
	c2.129-1.066,4.258-1.916,6.602-2.555c0,0,0.213,0,0.425-0.213V87.738z M387.156,87.738h-59.415
	c-1.066-2.555-2.13-4.898-3.195-7.242c-0.638-1.49-1.491-3.192-2.129-4.684c-1.066-2.342-2.344-4.898-3.408-7.24
	c-1.916-3.621-3.833-7.24-5.749-10.435c-0.853-1.703-1.704-2.982-2.557-4.474c-2.129-3.405-4.258-6.813-6.388-9.795
	c-0.425-0.853-1.065-1.49-1.491-2.129c-2.555-3.408-4.898-6.6-7.453-9.371c-0.426-0.424-0.851-1.063-1.065-1.49
	C329.444,41.315,361.388,60.692,387.156,87.738z M245.327,23.851l0.212,0.213c2.344,0.639,4.686,1.49,7.028,2.555
	c0.426,0.213,0.853,0.424,1.278,0.637c2.555,1.066,4.899,2.558,7.454,4.048c0,0.213,0.212,0.213,0.212,0.213
	c2.344,1.703,4.686,3.408,7.028,5.537c0.213,0.213,0.639,0.426,0.853,0.637c2.342,2.132,4.684,4.474,7.027,6.816
	c0.213,0.426,0.426,0.639,0.853,1.066c1.916,2.129,4.046,4.684,5.962,7.24c0.426,0.426,0.639,0.85,1.065,1.276
	c2.13,2.984,4.046,5.963,6.177,9.158c0.425,0.639,0.638,1.063,1.065,1.703c1.704,2.984,3.62,6.177,5.324,9.371
	c0.213,0.426,0.426,0.85,0.638,1.276c2.13,3.834,3.834,7.669,5.75,11.714c0,0.213,0.213,0.426,0.213,0.64h-58.137V23.851z
	 M245.327,110.1h66.868c11.501,33.433,17.463,71.977,18.315,112.866h-85.183V110.1z M245.327,245.324h85.608v1.279
	c-0.425,9.369-0.851,18.527-1.703,27.472c0,1.066-0.213,2.129-0.213,3.192c-0.853,9.158-2.13,18.317-3.621,27.046v0.853
	c-1.49,8.306-3.194,16.611-5.111,24.491c-0.213,1.276-0.425,2.555-0.851,3.621c-1.917,7.877-4.259,15.545-6.602,22.998
	c-0.213,0.639-0.426,1.276-0.639,1.916h-66.868V245.324z M286.853,410.579c-1.703,2.345-3.407,4.687-5.324,6.816
	c-0.851,1.066-1.703,2.342-2.769,3.408c-1.703,2.129-3.62,4.258-5.536,6.174c-0.853,0.853-1.704,1.705-2.555,2.345
	c-2.344,2.129-4.686,4.258-7.241,5.963c-0.426,0.211-0.851,0.637-1.278,0.85c-5.537,3.834-11.074,6.387-16.823,8.092v-63.674h58.137
	c-2.129,4.684-4.473,9.369-6.815,13.63c-0.638,1.276-1.278,2.555-2.129,3.834c-1.704,2.979-3.195,5.748-5.112,8.516
	C288.557,407.814,287.705,409.09,286.853,410.579z M294.307,437.412c0.425-0.637,0.851-1.276,1.491-1.916
	c2.129-2.555,4.471-5.534,6.602-8.306c0.638-1.063,1.278-1.916,1.916-2.766c2.769-3.834,5.324-7.669,7.667-11.927
	c0.212-0.213,0.425-0.639,0.638-1.066c2.555-4.258,4.898-8.729,7.241-13.203c0.212-0.637,0.425-1.063,0.638-1.703
	c2.555-4.898,4.686-10.221,7.028-15.545c0-0.213,0-0.426,0.213-0.426h59.415C361.388,407.6,329.444,426.978,294.307,437.412z
	 M405.683,358.193h-69.849c1.278-4.258,2.129-8.729,3.407-12.99c1.278-4.684,2.555-9.371,3.62-14.269
	c1.066-3.832,1.704-8.09,2.344-12.137c1.278-5.75,2.342-11.498,3.194-17.461c0.639-3.621,0.853-7.456,1.491-11.287
	c0.639-6.39,1.491-12.99,1.917-19.804c0.425-3.624,0.425-7.242,0.638-10.861c0.213-4.687,0.639-9.371,0.851-14.059h92.424
	C443.59,286.216,429.961,324.973,405.683,358.193z M353.295,222.966c0-1.49-0.212-2.982-0.212-4.471c0-1.916,0-4.048-0.213-5.963
	c-0.213-4.048-0.426-7.879-0.853-11.924c-0.425-7.456-1.065-14.909-1.916-22.148c-0.851-5.75-1.491-11.287-2.342-16.824
	c-0.213-1.066-0.426-1.916-0.639-2.982c-0.638-4.258-1.491-8.732-2.342-12.99c-0.426-1.492-0.64-2.982-1.065-4.471
	c-0.639-3.408-1.491-7.029-2.344-10.435c-0.425-2.132-1.065-4.258-1.703-6.39c-0.426-1.703-0.853-3.192-1.278-4.898
	c-0.426-1.492-0.853-2.982-1.278-4.684c-0.426-1.492-0.853-2.982-1.278-4.684h69.849c24.277,33.22,37.907,71.977,40.036,112.866
	H353.295z"/>
<g>
</g>
<g>
</g>
<g>
</g>
<g>
</g>
<g>
</g>
<g>
</g>
<g>
</g>
<g>
</g>
<g>
</g>
<g>
</g>
<g>
</g>
<g>
</g>
<g>
</g>
<g>
</g>
<g>
</g>
</svg>
