<?xml version="1.0" encoding="iso-8859-1"?>
<!-- Generator: Adobe Illustrator 19.0.0, SVG Export Plug-In . SVG Version: 6.00 Build 0)  -->
<svg version="1.1" id="Capa_1" xmlns="http://www.w3.org/2000/svg" xmlns:xlink="http://www.w3.org/1999/xlink" x="0px" y="0px"
	 viewBox="0 0 468.293 468.293" style="enable-background:new 0 0 468.293 468.293;" xml:space="preserve">
<g>
	<polygon style="fill:#F7BE56;" points="285.138,0 251.525,93.67 318.751,93.67 	"/>
	<polygon style="fill:#F7BE56;" points="155.628,58.217 192.893,150.245 240.429,98.658 	"/>
</g>
<g>
	<polygon style="fill:#FCD462;" points="108.228,198.765 188.297,235.242 188.297,162.287 	"/>
	<polygon style="fill:#FCD462;" points="155.629,339.312 240.429,298.871 192.893,247.284 	"/>
	<polygon style="fill:#FCD462;" points="285.139,397.528 318.751,303.859 251.525,303.859 	"/>
</g>
<g>
	<polygon style="fill:#F7BE56;" points="414.648,339.311 377.383,247.284 329.847,298.871 	"/>
	<polygon style="fill:#F7BE56;" points="468.293,198.764 381.979,162.287 381.979,235.242 	"/>
	<polygon style="fill:#F7BE56;" points="414.648,58.216 329.847,98.658 377.383,150.245 	"/>
</g>
<ellipse style="fill:#FCD462;" cx="285.159" cy="198.743" rx="110.174" ry="119.571"/>
<path style="fill:#EBF0F3;" d="M385.018,468.293c45.991,0,83.275-37.283,83.275-83.275c0-45.223-36.07-81.944-81-83.161
	c-2.271-45.342-39.644-81.437-85.55-81.437c-0.568,0-1.117,0.075-1.683,0.086c-18.428-39.427-58.33-66.808-104.724-66.808
	c-63.877,0-115.66,51.784-115.66,115.66c0,11.273,1.69,22.139,4.698,32.44c-0.37-0.004-0.728-0.055-1.099-0.055
	C37.283,301.743,0,339.027,0,385.018c0,45.992,37.283,83.275,83.275,83.275H385.018z"/>
<g>
</g>
<g>
</g>
<g>
</g>
<g>
</g>
<g>
</g>
<g>
</g>
<g>
</g>
<g>
</g>
<g>
</g>
<g>
</g>
<g>
</g>
<g>
</g>
<g>
</g>
<g>
</g>
<g>
</g>
</svg>
