<?xml version="1.0" encoding="iso-8859-1"?>
<!-- Generator: Adobe Illustrator 19.0.0, SVG Export Plug-In . SVG Version: 6.00 Build 0)  -->
<svg version="1.1" id="Capa_1" xmlns="http://www.w3.org/2000/svg" xmlns:xlink="http://www.w3.org/1999/xlink" x="0px" y="0px"
	 viewBox="0 0 468.293 468.293" style="enable-background:new 0 0 468.293 468.293;" xml:space="preserve">
<path style="fill:#2F4859;" d="M456.161,325.265H120.456c-6.698,0-12.131-5.434-12.131-12.131V92.747H28.306
	c-6.698,0-12.131-5.434-12.131-12.131s5.434-12.131,12.131-12.131h92.15c6.698,0,12.131,5.434,12.131,12.131v220.386h323.574
	c6.698,0,12.131,5.434,12.131,12.131C468.293,319.831,462.859,325.265,456.161,325.265z"/>
<path style="fill:#44C4A1;" d="M88.779,59.451H21.165C9.48,59.451,0,68.931,0,80.616s9.48,21.165,21.165,21.165h67.614V59.451z"/>
<circle style="fill:#2F4859;" cx="377.188" cy="372.952" r="35.89"/>
<circle style="fill:#EBF0F3;" cx="377.188" cy="372.952" r="16.165"/>
<circle style="fill:#2F4859;" cx="199.43" cy="372.952" r="35.89"/>
<circle style="fill:#EBF0F3;" cx="199.43" cy="372.952" r="16.165"/>
<path style="fill:#DC8744;" d="M263.307,118.075v-25.05c0-4.567,3.716-8.282,8.282-8.282h45.571c4.567,0,8.282,3.716,8.282,8.282
	v25.05h16.259v-25.05c0-13.531-11.01-24.542-24.542-24.542h-45.571c-13.531,0-24.542,11.01-24.542,24.542v25.05H263.307z"/>
<path style="fill:#EBF0F3;" d="M416.596,128.871v132.807c0,12.26-9.951,22.21-22.211,22.21h-199.99
	c-12.292,0-22.242-9.951-22.242-22.21V128.871c0-12.259,9.951-22.21,22.242-22.21h199.99
	C406.645,106.661,416.596,116.612,416.596,128.871z"/>
<rect x="353.093" y="106.662" style="fill:#64798A;" width="16.259" height="177.227"/>
<path style="fill:#3A556A;" d="M375.362,187.958h-28.259c-4.943,0-8.943,4-8.943,8.943v32.454c0,4.943,4,8.975,8.943,8.975h28.259
	c4.943,0,8.975-4.032,8.975-8.975v-32.454C384.338,191.958,380.305,187.958,375.362,187.958z M378.712,229.355
	c0,1.854-1.496,3.382-3.349,3.382h-10.699v-9.235l-3.415-4.91l-3.415,4.91v9.235h-10.731c-1.853,0-3.35-1.528-3.35-3.382v-32.454
	c0-1.854,1.496-3.35,3.35-3.35h28.259c1.853,0,3.349,1.496,3.349,3.35V229.355z"/>
<rect x="219.367" y="106.662" style="fill:#64798A;" width="16.259" height="177.227"/>
<path style="fill:#3A556A;" d="M241.645,187.958h-28.259c-4.943,0-8.975,4-8.975,8.943v32.454c0,4.943,4.032,8.975,8.975,8.975
	h28.259c4.943,0,8.943-4.032,8.943-8.975v-32.454C250.588,191.958,246.588,187.958,241.645,187.958z M244.994,229.355
	c0,1.854-1.496,3.382-3.35,3.382h-10.731v-9.235l-3.415-4.91l-3.414,4.91v9.235h-10.699c-1.854,0-3.35-1.528-3.35-3.382v-32.454
	c0-1.854,1.496-3.35,3.35-3.35h28.259c1.854,0,3.35,1.496,3.35,3.35V229.355z"/>
<g>
</g>
<g>
</g>
<g>
</g>
<g>
</g>
<g>
</g>
<g>
</g>
<g>
</g>
<g>
</g>
<g>
</g>
<g>
</g>
<g>
</g>
<g>
</g>
<g>
</g>
<g>
</g>
<g>
</g>
</svg>
