<?xml version="1.0" encoding="iso-8859-1"?>
<!-- Generator: Adobe Illustrator 19.0.0, SVG Export Plug-In . SVG Version: 6.00 Build 0)  -->
<svg version="1.1" id="Capa_1" xmlns="http://www.w3.org/2000/svg" xmlns:xlink="http://www.w3.org/1999/xlink" x="0px" y="0px"
	 viewBox="0 0 468.293 468.293" style="enable-background:new 0 0 468.293 468.293;" xml:space="preserve">
<g>
	<path style="fill:#64798A;" d="M279.401,44.557c-4.173,0.588-7.037,4.569-7.037,8.783v41.141c0,4.102,2.802,7.904,6.851,8.562
		c5.159,0.84,9.617-3.12,9.617-8.121V52.707C288.833,47.766,284.48,43.841,279.401,44.557z"/>
	<path style="fill:#64798A;" d="M176.475,44.557c-4.173,0.588-7.037,4.569-7.037,8.783v41.141c0,4.102,2.802,7.904,6.851,8.562
		c5.159,0.84,9.617-3.12,9.617-8.121V52.707C185.907,47.766,181.555,43.841,176.475,44.557z"/>
</g>
<rect x="64.999" y="81.564" style="fill:#D5D6DB;" width="338.295" height="386.729"/>
<g>
	<rect x="205.356" y="113.389" style="fill:#2E9AE1;" width="57.55" height="57.55"/>
	<rect x="310.753" y="113.389" style="fill:#2E9AE1;" width="57.55" height="57.55"/>
	<rect x="205.356" y="196.327" style="fill:#2E9AE1;" width="57.55" height="57.55"/>
	<rect x="310.753" y="196.327" style="fill:#2E9AE1;" width="57.55" height="57.55"/>
	<rect x="205.356" y="277.916" style="fill:#2E9AE1;" width="57.55" height="57.55"/>
	<rect x="99.952" y="113.389" style="fill:#2E9AE1;" width="57.55" height="57.55"/>
	<rect x="99.952" y="196.327" style="fill:#2E9AE1;" width="57.55" height="57.55"/>
	<rect x="99.952" y="277.916" style="fill:#2E9AE1;" width="57.55" height="57.55"/>
	<rect x="310.753" y="277.916" style="fill:#2E9AE1;" width="57.55" height="57.55"/>
	<rect x="205.356" y="360.835" style="fill:#2E9AE1;" width="57.55" height="57.55"/>
	<rect x="310.753" y="360.835" style="fill:#2E9AE1;" width="57.55" height="57.55"/>
</g>
<path style="fill:#EBF0F3;" d="M134.655,360.836c-22.33,0-40.434,18.103-40.434,40.434v67.022h80.868v-67.022
	C175.09,378.94,156.987,360.836,134.655,360.836z"/>
<path style="fill:#D15241;" d="M122.779,9.092v43.915c0,5.021,4.071,9.092,9.092,9.092h194.529c5.021,0,9.092-4.071,9.092-9.092
	V9.092c0-5.021-4.071-9.092-9.092-9.092H131.871C126.85,0,122.779,4.071,122.779,9.092z"/>
<g>
	<polygon style="fill:#EBF0F3;" points="175.412,27.681 162.888,27.681 162.888,15.221 156.496,15.221 156.496,46.877 
		162.888,46.877 162.888,33.036 175.412,33.036 175.412,46.877 181.804,46.877 181.804,15.221 175.412,15.221 	"/>
	<path style="fill:#EBF0F3;" d="M202.426,14.681c-2.578,0-4.852,0.417-6.825,1.252c-1.483,0.619-2.846,1.569-4.091,2.851
		c-1.245,1.281-2.227,2.728-2.948,4.34c-0.965,2.188-1.447,4.895-1.447,8.119c0,5.038,1.39,8.994,4.168,11.865
		c2.779,2.872,6.521,4.308,11.229,4.308c4.649,0,8.364-1.443,11.143-4.329c2.777-2.886,4.166-6.885,4.166-11.995
		c0-5.154-1.399-9.177-4.2-12.071C210.82,16.128,207.089,14.681,202.426,14.681z M208.763,39.201
		c-1.634,1.835-3.724,2.753-6.273,2.753c-2.549,0-4.649-0.925-6.305-2.775s-2.483-4.567-2.483-8.152
		c0-3.642,0.806-6.366,2.418-8.173c1.613-1.807,3.736-2.71,6.37-2.71c2.634,0,4.747,0.893,6.338,2.678
		c1.59,1.785,2.386,4.492,2.386,8.119C211.214,34.612,210.397,37.365,208.763,39.201z"/>
	<polygon style="fill:#EBF0F3;" points="220.541,20.576 229.935,20.576 229.935,46.877 236.327,46.877 236.327,20.576 
		245.699,20.576 245.699,15.221 220.541,15.221 	"/>
	<polygon style="fill:#EBF0F3;" points="256.214,32.928 272.107,32.928 272.107,27.594 256.214,27.594 256.214,20.576 
		273.295,20.576 273.295,15.221 249.822,15.221 249.822,46.877 273.898,46.877 273.898,41.544 256.214,41.544 	"/>
	<polygon style="fill:#EBF0F3;" points="285.883,41.544 285.883,15.48 279.491,15.48 279.491,46.877 301.776,46.877 301.776,41.544 
			"/>
</g>
<g>
</g>
<g>
</g>
<g>
</g>
<g>
</g>
<g>
</g>
<g>
</g>
<g>
</g>
<g>
</g>
<g>
</g>
<g>
</g>
<g>
</g>
<g>
</g>
<g>
</g>
<g>
</g>
<g>
</g>
</svg>
