<?xml version="1.0" encoding="iso-8859-1"?>
<!-- Generator: Adobe Illustrator 19.0.0, SVG Export Plug-In . SVG Version: 6.00 Build 0)  -->
<svg version="1.1" id="Capa_1" xmlns="http://www.w3.org/2000/svg" xmlns:xlink="http://www.w3.org/1999/xlink" x="0px" y="0px"
	 viewBox="0 0 468.293 468.293" style="enable-background:new 0 0 468.293 468.293;" xml:space="preserve">
<rect x="57.85" y="330.427" style="fill:#FCD462;" width="352.593" height="137.865"/>
<rect x="101.744" y="226.872" style="fill:#F6C358;" width="264.804" height="103.549"/>
<rect x="145.271" y="157.371" style="fill:#FCD462;" width="177.72" height="69.501"/>
<g>
	<path style="fill:#DC8744;" d="M101.763,262.493v-35.652h264.742v35.652c0,12.176-9.865,22.041-22.041,22.041
		s-22.041-9.865-22.041-22.041c0,12.176-9.928,22.041-22.104,22.041c-12.175,0-22.041-9.865-22.041-22.041
		c0,12.176-9.865,22.041-22.103,22.041c-12.176,0-22.041-9.865-22.041-22.041c0,12.176-9.865,22.041-22.041,22.041
		c-12.238,0-22.103-9.865-22.103-22.041c0,12.176-9.865,22.041-22.041,22.041c-12.176,0-22.104-9.865-22.104-22.041
		c0,12.176-9.865,22.041-22.041,22.041S101.763,274.669,101.763,262.493z"/>
	<path style="fill:#DC8744;" d="M410.399,330.427v47.454c0,16.172-13.112,29.346-29.346,29.346
		c-16.234,0-29.409-13.175-29.409-29.346c0,16.172-13.112,29.346-29.346,29.346c-16.234,0-29.409-13.175-29.409-29.346
		c0,16.172-13.175,29.346-29.346,29.346c-16.234,0-29.409-13.175-29.409-29.346c0,16.172-13.175,29.346-29.409,29.346
		c-16.171,0-29.346-13.175-29.346-29.346c0,16.172-13.175,29.346-29.409,29.346s-29.346-13.175-29.346-29.346
		c0,16.172-13.175,29.346-29.409,29.346c-16.234,0-29.346-13.175-29.346-29.346v-47.454H410.399z"/>
	<path style="fill:#DC8744;" d="M145.283,181.261v-23.914h177.701v23.914c0,8.179-6.619,14.86-14.798,14.86
		s-14.798-6.681-14.798-14.86c0,8.179-6.619,14.86-14.798,14.86s-14.861-6.681-14.861-14.86c0,8.179-6.619,14.86-14.798,14.86
		c-8.18,0-14.798-6.681-14.798-14.86c0,8.179-6.619,14.86-14.798,14.86c-8.18,0-14.798-6.681-14.798-14.86
		c0,8.179-6.681,14.86-14.861,14.86c-8.179,0-14.798-6.681-14.798-14.86c0,8.179-6.619,14.86-14.798,14.86
		C151.902,196.121,145.283,189.44,145.283,181.261z"/>
</g>
<rect x="221.521" y="50.725" style="fill:#D15241;" width="25.962" height="106.646"/>
<rect x="233.085" y="33.986" style="fill:#64798A;" width="4.433" height="16.746"/>
<path style="fill:#FCD462;" d="M235.299,0c0,0,27.45,31.892,3.267,41.855c-5.191,2.139-14.28-2.462-16.003-15.757
	C221.629,18.898,225.048,11.717,235.299,0z"/>
<path style="fill:#DC8744;" d="M235.182,10.587c0,0,18.515,21.511,2.204,28.231c-3.502,1.443-9.632-1.661-10.794-10.628
	C225.962,23.333,228.268,18.49,235.182,10.587z"/>
<g>
</g>
<g>
</g>
<g>
</g>
<g>
</g>
<g>
</g>
<g>
</g>
<g>
</g>
<g>
</g>
<g>
</g>
<g>
</g>
<g>
</g>
<g>
</g>
<g>
</g>
<g>
</g>
<g>
</g>
</svg>
