<?xml version="1.0" encoding="iso-8859-1"?>
<!-- Generator: Adobe Illustrator 19.0.0, SVG Export Plug-In . SVG Version: 6.00 Build 0)  -->
<svg version="1.1" id="Capa_1" xmlns="http://www.w3.org/2000/svg" xmlns:xlink="http://www.w3.org/1999/xlink" x="0px" y="0px"
	 viewBox="0 0 469.496 469.496" style="enable-background:new 0 0 469.496 469.496;" xml:space="preserve">
<polygon style="fill:#D5D6DB;" points="170.654,139.522 139.012,171.418 0.602,310.939 160.432,469.496 298.842,329.975 
	330.484,298.079 468.895,158.557 309.064,0 "/>
<path style="fill:#3EA69B;" d="M295.284,34.851L149.492,181.814l0.002,0.002L35.344,296.883c7.718,7.656,7.768,20.119,0.111,27.837
	l110.92,110.037c7.656-7.718,20.119-7.768,27.837-0.111l145.792-146.963l-0.002-0.002l114.15-115.067
	c-7.719-7.657-7.768-20.12-0.112-27.837L323.121,34.74C315.465,42.457,303.002,42.508,295.284,34.851z M421.32,146.02
	c-3.791,8.038-3.754,17.443,0.101,25.451L281.373,312.644l0.003,0.003L172.969,421.924c-8.038-3.791-17.445-3.754-25.452,0.102
	l-99.341-98.549c3.791-8.039,3.753-17.444-0.102-25.452l140.048-141.173l-0.002-0.002L296.528,47.572
	c8.038,3.79,17.444,3.753,25.451-0.102L421.32,146.02z"/>
<ellipse transform="matrix(-0.7099 -0.7043 0.7043 -0.7099 234.7026 563.4236)" style="fill:#44C4A1;" cx="233.38" cy="233.378" rx="72.273" ry="60.51"/>
<path style="fill:#31978C;" d="M267.336,272.835l-6.94-6.885c-9.253,6.794-20.254,10.594-33.003,11.4l-1.971-19.498
	c9.215-0.668,16.406-2.399,21.571-5.198l-14.167-14.054c-8.315,4.957-15.454,7.56-21.418,7.803
	c-5.963,0.247-11.656-2.321-17.075-7.697c-5.417-5.374-8.128-11.583-8.122-18.621c0.002-7.04,2.517-13.786,7.542-20.246
	l-4.659-4.622l9.996-10.076l4.848,4.809c7.176-5.456,16.063-9.154,26.66-11.09l3.484,18.923c-6.814,1.163-12.393,2.985-16.738,5.466
	l13.689,13.58c8.567-5.085,15.954-7.781,22.173-8.092c6.218-0.306,12.052,2.241,17.503,7.649c5.451,5.408,8.141,11.695,8.075,18.857
	c-0.067,7.168-2.767,14.137-8.106,20.915l6.655,6.602L267.336,272.835z M206.967,212.947c-1.756,3.668-1.364,6.76,1.172,9.276
	c2.535,2.515,5.819,3.07,9.856,1.665L206.967,212.947z M256.379,232.351c-1.332-1.321-2.784-2.07-4.365-2.255
	c-1.581-0.184-3.662,0.267-6.245,1.35l11.694,11.601C259.655,238.808,259.295,235.243,256.379,232.351z"/>
<g>
	<circle style="fill:#3EA69B;" cx="309.987" cy="69.166" r="12.613"/>
	<circle style="fill:#3EA69B;" cx="398.463" cy="156.937" r="12.613"/>
	<circle style="fill:#3EA69B;" cx="70.827" cy="310.237" r="12.613"/>
	<circle style="fill:#3EA69B;" cx="159.309" cy="398.026" r="12.613"/>
</g>
<g>
</g>
<g>
</g>
<g>
</g>
<g>
</g>
<g>
</g>
<g>
</g>
<g>
</g>
<g>
</g>
<g>
</g>
<g>
</g>
<g>
</g>
<g>
</g>
<g>
</g>
<g>
</g>
<g>
</g>
</svg>
