<?xml version="1.0" encoding="iso-8859-1"?>
<!-- Generator: Adobe Illustrator 19.0.0, SVG Export Plug-In . SVG Version: 6.00 Build 0)  -->
<svg version="1.1" id="Capa_1" xmlns="http://www.w3.org/2000/svg" xmlns:xlink="http://www.w3.org/1999/xlink" x="0px" y="0px"
	 viewBox="0 0 468.293 468.293" style="enable-background:new 0 0 468.293 468.293;" xml:space="preserve">
<path style="fill:#64798A;" d="M448.78,412.996H19.512C8.736,412.996,0,404.26,0,393.484V74.808
	c0-10.776,8.736-19.512,19.512-19.512H448.78c10.776,0,19.512,8.736,19.512,19.512v318.676
	C468.293,404.26,459.557,412.996,448.78,412.996z"/>
<rect y="228.839" style="fill:#FCD462;" width="468.293" height="23.49"/>
<path style="fill:#EBF0F3;" d="M96.667,256.451v-79.309H68.409v79.308c-15.695,3.791-27.163,15.691-27.163,29.806v19.779v106.962
	h82.583V306.034v-19.779C123.83,272.14,112.362,260.24,96.667,256.451z"/>
<rect x="41.272" y="305.389" style="fill:#D15241;" width="82.582" height="64.962"/>
<rect x="62.202" y="165.588" style="fill:#DC8744;" width="40.673" height="39.28"/>
<path style="fill:#3A556A;" d="M189.354,267.62v-71.916h-25.624v71.916c-14.232,3.438-24.631,14.227-24.631,27.029v17.934v96.991
	h74.885v-96.991v-17.934C213.985,281.847,203.587,271.057,189.354,267.62z"/>
<rect x="158.102" y="185.257" style="fill:#DC8744;" width="36.883" height="35.615"/>
<rect x="151.059" y="308.998" style="fill:#44C4A1;" width="51.25" height="87.477"/>
<g>
	<path style="fill:#D5D6DB;" d="M221.821,211.712h16.361c9.689,0,17.544,4.652,17.544,17.132h-51.449
		C204.277,216.363,212.132,211.712,221.821,211.712z"/>
	<rect x="226.816" y="166.088" style="fill:#D5D6DB;" width="6.363" height="48.334"/>
	<path style="fill:#D5D6DB;" d="M199.504,107.111h60.892c0,0,16.172,38.52-25.448,65.772c-2.662,1.743-5.79,1.964-8.567,0.551
		C215.154,167.722,187.414,148.951,199.504,107.111z"/>
</g>
<path style="fill:#D15241;" d="M252.797,115.65c0,0,11.827,28.171-17.933,48.557c-2.781,1.905-6.101,2.038-8.993,0.432
	c-9.097-5.049-27.336-19.249-18.743-48.99H252.797z"/>
<g>
	<path style="fill:#D5D6DB;" d="M307.982,211.712h16.361c9.689,0,17.544,4.652,17.544,17.132h-51.449
		C290.438,216.363,298.293,211.712,307.982,211.712z"/>
	<rect x="312.982" y="166.088" style="fill:#D5D6DB;" width="6.363" height="48.334"/>
	<path style="fill:#D5D6DB;" d="M285.665,107.111h60.892c0,0,16.172,38.52-25.448,65.772c-2.662,1.743-5.79,1.964-8.567,0.551
		C301.316,167.722,273.576,148.951,285.665,107.111z"/>
</g>
<path style="fill:#D15241;" d="M338.959,115.65c0,0,11.827,28.171-17.933,48.557c-2.781,1.905-6.101,2.038-8.993,0.432
	c-9.097-5.049-27.336-19.249-18.743-48.99H338.959z"/>
<g>
	<path style="fill:#D5D6DB;" d="M394.143,211.712h16.361c9.689,0,17.544,4.652,17.544,17.132h-51.449
		C376.599,216.363,384.454,211.712,394.143,211.712z"/>
	<rect x="399.11" y="166.088" style="fill:#D5D6DB;" width="6.363" height="48.334"/>
	<path style="fill:#D5D6DB;" d="M371.827,107.111h60.892c0,0,16.172,38.52-25.448,65.772c-2.662,1.743-5.79,1.964-8.567,0.551
		C387.477,167.722,359.737,148.951,371.827,107.111z"/>
</g>
<path style="fill:#D15241;" d="M425.12,115.65c0,0,11.827,28.171-17.933,48.557c-2.781,1.905-6.101,2.038-8.993,0.432
	c-9.097-5.049-27.336-19.249-18.743-48.99H425.12z"/>
<g>
</g>
<g>
</g>
<g>
</g>
<g>
</g>
<g>
</g>
<g>
</g>
<g>
</g>
<g>
</g>
<g>
</g>
<g>
</g>
<g>
</g>
<g>
</g>
<g>
</g>
<g>
</g>
<g>
</g>
</svg>
