<?xml version="1.0" encoding="iso-8859-1"?>
<!-- Generator: Adobe Illustrator 19.0.0, SVG Export Plug-In . SVG Version: 6.00 Build 0)  -->
<svg version="1.1" id="Capa_1" xmlns="http://www.w3.org/2000/svg" xmlns:xlink="http://www.w3.org/1999/xlink" x="0px" y="0px"
	 viewBox="0 0 468.293 468.293" style="enable-background:new 0 0 468.293 468.293;" xml:space="preserve">
<rect x="17.72" y="385.811" style="fill:#3A556A;" width="237.193" height="34.079"/>
<rect x="17.72" y="309.51" style="fill:#64798A;" width="237.193" height="76.338"/>
<g>
	<rect y="351.763" style="fill:#1C75A1;" width="35.44" height="102.238"/>
	<rect x="237.193" y="351.763" style="fill:#1C75A1;" width="35.44" height="102.238"/>
</g>
<g>
	<rect x="314.892" y="220.897" style="fill:#DC8744;" width="24.539" height="233.085"/>
	<polygon style="fill:#DC8744;" points="326.633,332.704 245.058,222.75 264.771,208.133 327.688,292.943 385.876,222.622 
		404.774,238.261 	"/>
</g>
<path style="fill:#44C4A1;" d="M268.589,214.081c0,0,12.269,16.358,28.627,10.905c0,0,5.453,14.995,28.627,7.497
	c0,0-12.269,36.124,35.443,10.224c0,0,35.443,13.632,36.806-10.224c0,0,38.169,14.313,38.169-18.403
	c0,0,47.711-19.085,14.995-44.985c0,0,35.443-10.312,4.09-27.648c0,0,21.811-36.421-4.09-37.784c0,0,16.358-32.716-16.358-27.264
	c0,0-6.816-40.895-31.353-23.174c0,0-1.363-34.08-28.627-21.811c0,0-21.811-36.682-44.985-2.664c0,0-43.622-17.783-32.716,12.207
	c0,0-35.443-12.269-28.627,20.448c0,0-39.532-6.816-23.174,29.99c0,0-28.627-9.542-16.358,24.537c0,0-33.377,6.816-3.057,34.079
	c0,0-39.202,20.448-2.396,31.353c0,0-36.806,16.358,8.179,23.174c0,0-8.179,27.264,17.721,6.816
	C249.504,211.354,249.504,238.618,268.589,214.081z"/>
<g>
</g>
<g>
</g>
<g>
</g>
<g>
</g>
<g>
</g>
<g>
</g>
<g>
</g>
<g>
</g>
<g>
</g>
<g>
</g>
<g>
</g>
<g>
</g>
<g>
</g>
<g>
</g>
<g>
</g>
</svg>
