<?xml version="1.0" encoding="iso-8859-1"?>
<!-- Generator: Adobe Illustrator 19.0.0, SVG Export Plug-In . SVG Version: 6.00 Build 0)  -->
<svg version="1.1" id="Capa_1" xmlns="http://www.w3.org/2000/svg" xmlns:xlink="http://www.w3.org/1999/xlink" x="0px" y="0px"
	 viewBox="0 0 468.293 468.293" style="enable-background:new 0 0 468.293 468.293;" xml:space="preserve">
<polyline style="fill:#64798A;" points="21.649,170.91 227.883,0 446.644,170.91 "/>
<polygon style="fill:#FCD462;" points="225.246,44.436 82.257,170.909 84.316,170.909 84.316,468.293 374.862,468.293 
	374.862,170.909 376.921,170.909 "/>
<rect x="170.365" y="324.683" style="fill:#3A556A;" width="119.633" height="143.61"/>
<g>
	<path style="fill:#2F4859;" d="M127.778,199.887c-1.251,1.171-1.879,2.706-1.879,4.627c0,1.921,0.764,3.442,2.296,4.578
		c1.528,1.129,5.061,2.468,10.6,4.01c5.535,1.535,9.832,3.849,12.896,6.933c3.057,3.078,4.588,7.578,4.588,13.488
		c0,5.917-1.959,10.712-5.882,14.385c-3.926,3.68-9.085,5.524-15.482,5.524c-9.24,0-17.557-3.87-24.957-11.609l7.764-10.754
		c6.285,6.225,12.1,9.345,17.442,9.345c2.391,0,4.269-0.582,5.633-1.746c1.364-1.164,2.047-2.741,2.047-4.718
		c0-1.984-0.726-3.554-2.17-4.718c-1.448-1.164-4.315-2.341-8.598-3.54c-6.79-1.823-11.756-4.199-14.897-7.123
		c-3.144-2.923-4.714-7.515-4.714-13.775c0-6.253,1.987-11.083,5.966-14.476c3.978-3.4,8.942-5.097,14.897-5.097
		c3.894,0,7.788,0.75,11.686,2.264c3.894,1.507,7.287,3.645,10.183,6.414l-6.593,10.754c-5.065-4.339-10.295-6.513-15.693-6.513
		C130.74,198.142,129.029,198.73,127.778,199.887z"/>
	<path style="fill:#2F4859;" d="M203.602,186.729h13.018v65.946h-13.018V226.73h-23.204v25.945h-13.018v-65.946h13.018v27.551
		h23.204V186.729z"/>
	<path style="fill:#2F4859;" d="M280.049,243.569c-5.896,6.513-13.158,9.765-21.781,9.765c-8.626,0-15.885-3.253-21.785-9.765
		c-5.899-6.506-8.847-14.603-8.847-24.291c0-9.688,2.948-17.785,8.847-24.291c5.899-6.513,13.158-9.765,21.785-9.765
		c8.623,0,15.885,3.253,21.781,9.765c5.899,6.506,8.847,14.603,8.847,24.291C288.896,228.966,285.949,237.063,280.049,243.569z
		 M275.629,219.327c0-5.882-1.672-10.901-5.009-15.051c-3.34-4.15-7.441-6.225-12.31-6.225c-4.869,0-8.973,2.075-12.31,6.225
		c-3.34,4.15-5.009,9.17-5.009,15.051s1.668,10.88,5.009,14.995c3.337,4.122,7.441,6.183,12.31,6.183
		c4.869,0,8.97-2.061,12.31-6.183C273.957,230.207,275.629,225.208,275.629,219.327z"/>
	<path style="fill:#2F4859;" d="M340.1,192.624c4.087,3.933,6.134,9.969,6.134,18.115c0,8.146-2.103,14.105-6.302,17.876
		c-4.203,3.779-10.614,5.664-19.236,5.664h-7.764v18.395h-13.018v-65.946h20.614C329.486,186.729,336.009,188.699,340.1,192.624z
		 M330.541,218.57c1.56-1.984,2.338-4.872,2.338-8.679c0-3.807-1.017-6.513-3.046-8.111c-2.033-1.605-5.188-2.412-9.474-2.412
		h-7.427v22.174h8.763C326.037,221.542,328.985,220.554,330.541,218.57z"/>
</g>
<g>
</g>
<g>
</g>
<g>
</g>
<g>
</g>
<g>
</g>
<g>
</g>
<g>
</g>
<g>
</g>
<g>
</g>
<g>
</g>
<g>
</g>
<g>
</g>
<g>
</g>
<g>
</g>
<g>
</g>
</svg>
