<?xml version="1.0" encoding="iso-8859-1"?>
<!-- Generator: Adobe Illustrator 19.0.0, SVG Export Plug-In . SVG Version: 6.00 Build 0)  -->
<svg version="1.1" id="Capa_1" xmlns="http://www.w3.org/2000/svg" xmlns:xlink="http://www.w3.org/1999/xlink" x="0px" y="0px"
	 viewBox="0 0 468.292 468.292" style="enable-background:new 0 0 468.292 468.292;" xml:space="preserve">
<g>
	<path style="fill:#3A556A;" d="M166.359,125.777c0-33.046-24.476-60.306-56.274-64.828V18.1H80.823v42.849
		c-31.798,4.521-56.274,31.782-56.274,64.828v5.345h141.811V125.777z"/>
	<rect x="24.551" y="154.286" style="fill:#3A556A;" width="141.812" height="212.418"/>
	<path style="fill:#3A556A;" d="M24.549,402.732c0,36.207,29.353,65.559,65.561,65.559h10.689c36.208,0,65.561-29.352,65.561-65.559
		v-12.894H24.549V402.732z"/>
</g>
<g>
	<rect x="24.551" y="131.121" style="fill:#D5D6DB;" width="141.812" height="23.165"/>
	<rect x="24.551" y="366.704" style="fill:#D5D6DB;" width="141.812" height="23.159"/>
</g>
<g>
	<rect x="204.612" y="154.286" style="fill:#64798A;" width="141.812" height="212.418"/>
	<path style="fill:#64798A;" d="M346.436,125.777c0-33.046-24.476-60.306-56.274-64.828V18.1H260.9v42.849
		c-31.798,4.521-56.274,31.782-56.274,64.828v5.345h141.811V125.777z"/>
	<path style="fill:#64798A;" d="M204.626,402.732c0,36.207,29.353,65.559,65.561,65.559h10.689
		c36.208,0,65.561-29.352,65.561-65.559v-12.894H204.626V402.732z"/>
</g>
<g>
	<rect x="204.612" y="131.121" style="fill:#EBF0F3;" width="141.812" height="23.165"/>
	<rect x="204.612" y="366.704" style="fill:#EBF0F3;" width="141.812" height="23.159"/>
</g>
<path style="fill:#27A2DB;" d="M388.076,362.5c-2.476,0-4.959-0.903-6.914-2.73c-4.085-3.818-4.303-10.228-0.481-14.317
	c65.105-69.652,65.366-205.317,59.727-279.981c-1.916-25.356-23.332-45.213-48.764-45.213H15.546
	c-5.596,0-10.129-4.537-10.129-10.129S9.95,0,15.546,0h376.098c35.967,0,66.259,28.086,68.963,63.941
	c5.892,77.981,5.263,220.036-65.128,295.347C393.483,361.418,390.783,362.5,388.076,362.5z"/>
<circle style="fill:#E1E6E9;" cx="386.934" cy="365.455" r="40.517"/>
<circle style="fill:#2F4859;" cx="386.934" cy="365.455" r="21.716"/>
<g>
</g>
<g>
</g>
<g>
</g>
<g>
</g>
<g>
</g>
<g>
</g>
<g>
</g>
<g>
</g>
<g>
</g>
<g>
</g>
<g>
</g>
<g>
</g>
<g>
</g>
<g>
</g>
<g>
</g>
</svg>
