<?xml version="1.0" encoding="iso-8859-1"?>
<!-- Generator: Adobe Illustrator 19.0.0, SVG Export Plug-In . SVG Version: 6.00 Build 0)  -->
<svg version="1.1" id="Capa_1" xmlns="http://www.w3.org/2000/svg" xmlns:xlink="http://www.w3.org/1999/xlink" x="0px" y="0px"
	 viewBox="0 0 468.299 468.299" style="enable-background:new 0 0 468.299 468.299;" xml:space="preserve">
<rect x="51.016" y="117.205" style="fill:#D5D6DB;" width="367.229" height="351.095"/>
<polygon style="fill:#27A2DB;" points="318.701,275.069 336.934,331.184 395.937,331.184 348.203,365.865 366.436,421.98 
	318.701,387.299 270.967,421.98 289.2,365.865 241.465,331.184 300.468,331.184 "/>
<polygon style="fill:#1C75A1;" points="232.942,163.516 251.174,219.631 310.177,219.631 262.443,254.312 280.676,310.427 
	232.942,275.746 185.207,310.427 203.44,254.312 155.706,219.631 214.709,219.631 "/>
<polygon style="fill:#2D93BA;" points="147.182,275.069 165.415,331.184 224.418,331.184 176.683,365.865 194.916,421.98 
	147.182,387.299 99.447,421.98 117.68,365.865 69.946,331.184 128.949,331.184 "/>
<polygon style="fill:#DC8744;" points="417.284,0 50.054,0 50.054,42.454 108.457,42.454 108.457,117.203 148.637,117.203 
	148.637,42.454 318.701,42.454 318.701,117.203 358.88,117.203 358.88,42.454 417.284,42.454 "/>
<g>
</g>
<g>
</g>
<g>
</g>
<g>
</g>
<g>
</g>
<g>
</g>
<g>
</g>
<g>
</g>
<g>
</g>
<g>
</g>
<g>
</g>
<g>
</g>
<g>
</g>
<g>
</g>
<g>
</g>
</svg>
