<?xml version="1.0" encoding="iso-8859-1"?>
<!-- Generator: Adobe Illustrator 19.0.0, SVG Export Plug-In . SVG Version: 6.00 Build 0)  -->
<svg version="1.1" id="Capa_1" xmlns="http://www.w3.org/2000/svg" xmlns:xlink="http://www.w3.org/1999/xlink" x="0px" y="0px"
	 viewBox="0 0 468.293 468.293" style="enable-background:new 0 0 468.293 468.293;" xml:space="preserve">
<path style="fill:#3A556A;" d="M210.027,158.965V20.206h-49.441v138.759c-27.46,6.633-47.524,27.451-47.524,52.148v34.607v35.194
	c7.742,0,14.018,8.838,14.018,19.739c0,10.902-6.276,19.739-14.018,19.739v86.011c0,14.613,11.846,26.459,26.458,26.459h91.572
	c14.613,0,26.458-11.846,26.458-26.459v-86.011c-7.742,0-14.018-8.837-14.018-19.739c0-10.901,6.276-19.739,14.018-19.739V245.72
	v-34.607C257.551,186.416,237.488,165.598,210.027,158.965z"/>
<path style="fill:#FFFFFF;" d="M386.844,468.293H81.449c-9.784,0-17.716-7.931-17.716-17.716v0c0-9.784,7.932-17.716,17.716-17.716
	h305.395c9.784,0,17.716,7.931,17.716,17.716v0C404.559,460.361,396.628,468.293,386.844,468.293z"/>
<polygon style="fill:#D5D6DB;" points="359.318,432.862 300.866,432.862 284.414,310.511 375.77,310.511 "/>
<polygon style="fill:#44C4A1;" points="349.965,424.705 310.218,424.705 299.031,341.506 361.153,341.506 "/>
<polygon style="fill:#64798A;" points="333.355,341.506 326.829,341.506 326.829,287.181 368.578,254.118 372.631,259.235 
	333.355,290.336 "/>
<rect x="149.723" style="fill:#DC8744;" width="71.162" height="68.745"/>
<rect x="136.916" y="246.235" style="fill:#44C4A1;" width="98.885" height="168.773"/>
<g>
</g>
<g>
</g>
<g>
</g>
<g>
</g>
<g>
</g>
<g>
</g>
<g>
</g>
<g>
</g>
<g>
</g>
<g>
</g>
<g>
</g>
<g>
</g>
<g>
</g>
<g>
</g>
<g>
</g>
</svg>
