<?xml version="1.0" encoding="iso-8859-1"?>
<!-- Generator: Adobe Illustrator 19.0.0, SVG Export Plug-In . SVG Version: 6.00 Build 0)  -->
<svg version="1.1" id="Capa_1" xmlns="http://www.w3.org/2000/svg" xmlns:xlink="http://www.w3.org/1999/xlink" x="0px" y="0px"
	 viewBox="0 0 468.293 468.293" style="enable-background:new 0 0 468.293 468.293;" xml:space="preserve">
<path style="fill:#3A556A;" d="M253.507,175.191V48.999h-44.963v126.192c-24.973,6.03-43.219,24.963-43.219,47.424v31.471v170.191
	h131.401V254.086v-31.471C296.725,200.154,278.479,181.221,253.507,175.191z"/>
<rect x="198.681" y="30.622" style="fill:#DC8744;" width="64.718" height="62.501"/>
<rect x="186.318" y="238.419" style="fill:#44C4A1;" width="89.925" height="162.841"/>
<path style="fill:#EBF0F3;" d="M425.074,175.191V48.999h-44.963v126.192c-24.973,6.03-43.219,24.963-43.219,47.424v31.471v170.191
	h131.401V254.086v-31.471C468.292,200.154,450.046,181.221,425.074,175.191z"/>
<rect x="336.921" y="253.067" style="fill:#D15241;" width="131.372" height="103.362"/>
<rect x="370.232" y="30.622" style="fill:#DC8744;" width="64.718" height="62.501"/>
<path style="fill:#D5D6DB;" d="M112.962,374.545h-7.156v-54.351c0.861-0.332,1.715-0.713,2.527-1.244
	c59.59-39.018,36.436-94.171,36.436-94.171H57.584c-17.309,59.905,22.409,86.782,38.482,94.959c0.204,0.104,0.42,0.13,0.627,0.221
	v54.585h-7.156c-13.873,0-25.119,6.66-25.119,24.529h73.663C138.081,381.205,126.836,374.545,112.962,374.545z"/>
<path style="fill:#D15241;" d="M133.889,237.006c0,0,16.933,40.335-25.677,69.523c-3.981,2.727-8.735,2.918-12.876,0.619
	c-13.026-7.229-39.14-27.56-26.836-70.142H133.889z"/>
<path style="fill:#E1E6E9;" d="M59.659,413.142h-7.156v-54.351c0.861-0.332,1.715-0.713,2.527-1.245
	c59.59-39.018,36.436-94.171,36.436-94.171H4.281c-17.309,59.907,22.408,86.782,38.482,94.96c0.204,0.104,0.42,0.13,0.627,0.221
	v54.585h-7.156c-13.873,0-25.119,6.66-25.119,24.529h73.663C84.778,419.802,73.532,413.142,59.659,413.142z"/>
<path style="fill:#44C4A1;" d="M80.585,275.602c0,0,16.933,40.335-25.677,69.523c-3.981,2.727-8.735,2.918-12.876,0.619
	c-13.026-7.229-39.14-27.56-26.836-70.142H80.585z"/>
<g>
</g>
<g>
</g>
<g>
</g>
<g>
</g>
<g>
</g>
<g>
</g>
<g>
</g>
<g>
</g>
<g>
</g>
<g>
</g>
<g>
</g>
<g>
</g>
<g>
</g>
<g>
</g>
<g>
</g>
</svg>
