<?xml version="1.0" encoding="iso-8859-1"?>
<!-- Generator: Adobe Illustrator 19.0.0, SVG Export Plug-In . SVG Version: 6.00 Build 0)  -->
<svg version="1.1" id="Capa_1" xmlns="http://www.w3.org/2000/svg" xmlns:xlink="http://www.w3.org/1999/xlink" x="0px" y="0px"
	 viewBox="0 0 468.305 468.305" style="enable-background:new 0 0 468.305 468.305;" xml:space="preserve">
<rect x="88.701" y="208.421" style="fill:#E1E6E9;" width="291.728" height="239.329"/>
<rect x="88.701" y="208.421" style="fill:#DC8744;" width="291.728" height="54.16"/>
<g>
	<rect x="111.06" y="291.902" style="fill:#64798A;" width="29.952" height="31.925"/>
	<rect x="165.326" y="291.902" style="fill:#64798A;" width="29.952" height="31.925"/>
	<rect x="219.586" y="291.902" style="fill:#64798A;" width="29.952" height="31.925"/>
	<rect x="273.833" y="291.902" style="fill:#64798A;" width="29.952" height="31.925"/>
	<rect x="328.092" y="291.902" style="fill:#64798A;" width="29.952" height="31.925"/>
	<rect x="111.06" y="337.92" style="fill:#64798A;" width="29.952" height="31.925"/>
	<rect x="165.326" y="337.92" style="fill:#64798A;" width="29.952" height="31.925"/>
	<rect x="273.833" y="337.92" style="fill:#64798A;" width="29.952" height="31.925"/>
	<rect x="328.092" y="337.92" style="fill:#64798A;" width="29.952" height="31.925"/>
	<rect x="111.06" y="383.919" style="fill:#64798A;" width="29.952" height="31.925"/>
	<rect x="165.326" y="383.919" style="fill:#64798A;" width="29.952" height="31.925"/>
	<rect x="273.833" y="383.919" style="fill:#64798A;" width="29.952" height="31.925"/>
	<rect x="328.092" y="383.919" style="fill:#64798A;" width="29.952" height="31.925"/>
</g>
<rect x="205.662" y="363.345" style="fill:#27A2DB;" width="57.051" height="84.424"/>
<rect x="65.598" y="447.75" style="fill:#DC8744;" width="337.108" height="20.555"/>
<rect x="116.236" y="14.91" style="fill:#E1E6E9;" width="235.901" height="193.511"/>
<rect x="116.236" style="fill:#DC8744;" width="235.901" height="58.705"/>
<g>
	<rect x="134.344" y="82.401" style="fill:#64798A;" width="24.22" height="25.819"/>
	<rect x="178.176" y="82.401" style="fill:#64798A;" width="24.22" height="25.819"/>
	<rect x="222.071" y="82.401" style="fill:#64798A;" width="24.22" height="25.819"/>
	<rect x="265.965" y="82.401" style="fill:#64798A;" width="24.22" height="25.819"/>
	<rect x="309.86" y="82.401" style="fill:#64798A;" width="24.22" height="25.819"/>
	<rect x="134.344" y="119.608" style="fill:#64798A;" width="24.22" height="25.819"/>
	<rect x="178.176" y="119.608" style="fill:#64798A;" width="24.22" height="25.819"/>
	<rect x="222.071" y="119.608" style="fill:#64798A;" width="24.22" height="25.819"/>
	<rect x="265.965" y="119.608" style="fill:#64798A;" width="24.22" height="25.819"/>
	<rect x="309.86" y="119.608" style="fill:#64798A;" width="24.22" height="25.819"/>
	<rect x="134.344" y="156.822" style="fill:#64798A;" width="24.22" height="25.819"/>
	<rect x="178.176" y="156.822" style="fill:#64798A;" width="24.22" height="25.819"/>
	<rect x="222.071" y="156.822" style="fill:#64798A;" width="24.22" height="25.819"/>
	<rect x="265.965" y="156.822" style="fill:#64798A;" width="24.22" height="25.819"/>
	<rect x="309.86" y="156.822" style="fill:#64798A;" width="24.22" height="25.819"/>
</g>
<g>
	<path style="fill:#2F4859;" d="M167.757,10.759h8.786v39.365h-8.786V34.636h-15.654v15.487h-8.786V10.759h8.786v16.444h15.654
		V10.759z"/>
	<path style="fill:#2F4859;" d="M219.342,44.687c-3.977,3.886-8.877,5.831-14.697,5.831c-5.819,0-10.72-1.945-14.7-5.831
		c-3.977-3.886-5.968-8.718-5.968-14.499s1.99-10.617,5.968-14.503c3.981-3.886,8.881-5.827,14.7-5.827
		c5.819,0,10.72,1.941,14.697,5.827c3.981,3.886,5.971,8.722,5.971,14.503S223.322,40.801,219.342,44.687z M216.36,30.215
		c0-3.51-1.128-6.503-3.381-8.984c-2.253-2.477-5.022-3.715-8.307-3.715c-3.286,0-6.051,1.238-8.304,3.715
		c-2.253,2.48-3.381,5.474-3.381,8.984s1.128,6.496,3.381,8.953c2.253,2.461,5.018,3.688,8.304,3.688
		c3.286,0,6.055-1.227,8.307-3.688C215.231,36.71,216.36,33.725,216.36,30.215z"/>
	<path style="fill:#2F4859;" d="M248.344,18.36v31.764h-8.782V18.36h-11.153v-7.601h31.088v7.601H248.344z"/>
	<path style="fill:#2F4859;" d="M294.299,10.759v7.829h-19.597v8.11h17.625v7.487h-17.625v8.167h20.216v7.772h-29.002V10.759
		H294.299z"/>
	<path style="fill:#2F4859;" d="M302.747,50.123V10.759h8.786v31.536h16.782v7.829H302.747z"/>
</g>
<g>
</g>
<g>
</g>
<g>
</g>
<g>
</g>
<g>
</g>
<g>
</g>
<g>
</g>
<g>
</g>
<g>
</g>
<g>
</g>
<g>
</g>
<g>
</g>
<g>
</g>
<g>
</g>
<g>
</g>
</svg>
