<?xml version="1.0" encoding="iso-8859-1"?>
<!-- Generator: Adobe Illustrator 19.0.0, SVG Export Plug-In . SVG Version: 6.00 Build 0)  -->
<svg version="1.1" id="Capa_1" xmlns="http://www.w3.org/2000/svg" xmlns:xlink="http://www.w3.org/1999/xlink" x="0px" y="0px"
	 viewBox="0 0 468.2 468.2" style="enable-background:new 0 0 468.2 468.2;" xml:space="preserve">
<g>
	<path style="fill:#64798A;" d="M111.7,402.3H46.4c-5.5,0-9.9-4.4-9.9-9.9v-43.2h85.1v43.2C121.6,397.9,117.2,402.3,111.7,402.3z"/>
	<path style="fill:#64798A;" d="M426.1,402.3h-65c-5.5,0-9.9-4.4-9.9-9.9v-43.2H436v43.2C436,397.9,431.5,402.3,426.1,402.3z"/>
</g>
<g>
	<path style="fill:#F6C358;" d="M9.6,213.9h44.3v-33.8H9.6c-5.3,0-9.6,4.3-9.6,9.6v14.6C0,209.6,4.3,213.9,9.6,213.9z"/>
	<polygon style="fill:#F6C358;" points="36.1,219.4 113.8,120.6 356.2,120.6 432.1,219.4 446.8,305.3 436.7,314.5 436.7,372.1 
		350.7,372.1 350.7,353.8 122.1,353.8 122.1,372.1 36.1,372.1 36.1,318.1 26.9,304.4 	"/>
	<path style="fill:#F6C358;" d="M458.6,213.9h-44.3v-33.8h44.3c5.3,0,9.6,4.3,9.6,9.6v14.6C468.2,209.6,463.9,213.9,458.6,213.9z"/>
</g>
<polygon style="fill:#2D93BA;" points="63.5,213.9 408.3,213.9 351.6,135.2 121.1,135.2 "/>
<polygon style="fill:#27A2DB;" points="63.5,213.9 121.1,135.2 351.6,135.2 "/>
<g>
	<path style="fill:#E1E6E9;" d="M46.1,269.6L46.1,269.6c0,10.1,8.2,18.3,18.3,18.3h81.2c5.5,0,8-7,3.6-10.4
		c-13.6-10.3-40.3-24.7-84.4-26.3C54.6,250.9,46.1,259.4,46.1,269.6z"/>
	<path style="fill:#E1E6E9;" d="M425.4,269.6L425.4,269.6c0,10.1-8.2,18.3-18.3,18.3h-81.2c-5.5,0-8-7-3.6-10.4
		c13.6-10.3,40.3-24.7,84.4-26.3C417,250.9,425.4,259.4,425.4,269.6z"/>
</g>
<g>
	<circle style="fill:#DC8744;" cx="82.7" cy="317.5" r="19.2"/>
	<circle style="fill:#DC8744;" cx="385.5" cy="317.5" r="19.2"/>
</g>
<g>
	<rect x="121.6" y="301.9" style="fill:#64798A;" width="220.9" height="34.8"/>
	<path style="fill:#64798A;" d="M294.5,120.6H168.9V71.4c0-3,2.4-5.5,5.5-5.5H289c3,0,5.5,2.4,5.5,5.5V120.6z"/>
</g>
<g>
	<path style="fill:#FCD462;" d="M203.8,74.5v6.3h7.3v-6.3h2v15h-2v-7h-7.3v7h-1.9v-15H203.8z"/>
	<path style="fill:#FCD462;" d="M229.2,81.9c0,5.2-3.1,7.9-7,7.9c-4,0-6.8-3.1-6.8-7.6c0-4.8,3-7.9,7-7.9
		C226.6,74.3,229.2,77.4,229.2,81.9z M217.5,82.1c0,3.2,1.7,6.1,4.8,6.1s4.8-2.8,4.8-6.2c0-3-1.6-6.1-4.8-6.1
		C219.2,75.9,217.5,78.8,217.5,82.1z"/>
	<path style="fill:#FCD462;" d="M234,76.2h-4.6v-1.6h11.1v1.6h-4.6v13.4h-2V76.2H234z"/>
	<path style="fill:#FCD462;" d="M250,82.5h-5.8v5.4h6.5v1.6h-8.5v-15h8.1v1.6h-6.2v4.7h5.8v1.7H250z"/>
	<path style="fill:#FCD462;" d="M253.2,74.5h1.9v13.4h6.4v1.6h-8.4v-15H253.2z"/>
	<path style="fill:#FCD462;" d="M216.7,99.9h-4.6v-1.6h11.1v1.6h-4.6v13.4h-2V99.9H216.7z"/>
	<path style="fill:#FCD462;" d="M225.7,108.6l-1.6,4.7h-2l5.1-15h2.3l5.1,15h-2.1l-1.6-4.7H225.7z M230.6,107.1l-1.5-4.3
		c-0.3-1-0.6-1.9-0.8-2.7l0,0c-0.2,0.9-0.5,1.8-0.8,2.7l-1.4,4.3H230.6z"/>
	<path style="fill:#FCD462;" d="M244.8,113.3l-1.9-3.3c-0.8-1.3-1.3-2.1-1.7-3l0,0c-0.4,0.9-0.8,1.7-1.6,3l-1.8,3.3h-2.2l4.6-7.6
		l-4.4-7.4h2.3l2,3.5c0.6,1,1,1.7,1.4,2.5h0.1c0.4-0.9,0.8-1.6,1.4-2.5l2-3.5h2.2l-4.6,7.3l4.7,7.7H244.8z"/>
	<path style="fill:#FCD462;" d="M251.3,98.3v15h-1.9v-15H251.3z"/>
</g>
<g>
</g>
<g>
</g>
<g>
</g>
<g>
</g>
<g>
</g>
<g>
</g>
<g>
</g>
<g>
</g>
<g>
</g>
<g>
</g>
<g>
</g>
<g>
</g>
<g>
</g>
<g>
</g>
<g>
</g>
</svg>
