<?xml version="1.0" encoding="iso-8859-1"?>
<!-- Generator: Adobe Illustrator 19.0.0, SVG Export Plug-In . SVG Version: 6.00 Build 0)  -->
<svg version="1.1" id="Capa_1" xmlns="http://www.w3.org/2000/svg" xmlns:xlink="http://www.w3.org/1999/xlink" x="0px" y="0px"
	 viewBox="0 0 468.293 468.293" style="enable-background:new 0 0 468.293 468.293;" xml:space="preserve">
<path style="fill:#FCD462;" d="M96.939,440.621h274.415V122.206l53.766,43.949l43.173-57.469
	c-46.997-64.588-130.772-78.68-148.751-81.008c-1.915,45.342-39.4,81.638-85.207,81.638c-44.948,0-81.695-35.583-85.08-81.644
	l-3.55,0.407C122.82,31.362,44.967,46.873,0,108.686l43.173,57.469l53.766-43.949V440.621z"/>
<g>
	<rect x="96.968" y="193.105" style="fill:#3EA69B;" width="274.413" height="32.031"/>
	<rect x="96.968" y="131.49" style="fill:#3EA69B;" width="274.413" height="32.031"/>
	<rect x="96.968" y="257.168" style="fill:#3EA69B;" width="274.413" height="32.031"/>
	<rect x="96.968" y="321.23" style="fill:#3EA69B;" width="274.413" height="32.031"/>
	<rect x="96.968" y="385.311" style="fill:#3EA69B;" width="274.413" height="32.031"/>
</g>
<g>
</g>
<g>
</g>
<g>
</g>
<g>
</g>
<g>
</g>
<g>
</g>
<g>
</g>
<g>
</g>
<g>
</g>
<g>
</g>
<g>
</g>
<g>
</g>
<g>
</g>
<g>
</g>
<g>
</g>
</svg>
