<?xml version="1.0" encoding="iso-8859-1"?>
<!-- Generator: Adobe Illustrator 19.0.0, SVG Export Plug-In . SVG Version: 6.00 Build 0)  -->
<svg version="1.1" id="Capa_1" xmlns="http://www.w3.org/2000/svg" xmlns:xlink="http://www.w3.org/1999/xlink" x="0px" y="0px"
	 viewBox="0 0 468.293 468.293" style="enable-background:new 0 0 468.293 468.293;" xml:space="preserve">
<path style="fill:#3A556A;" d="M48.91,360.063H0l0-235.08c0-12.869,10.433-23.302,23.302-23.302h2.306
	c12.869,0,23.302,10.433,23.302,23.302V360.063z"/>
<g>
	<rect x="48.908" y="236.519" style="fill:#64798A;" width="114.676" height="33.78"/>
	<rect x="129.804" y="236.563" style="fill:#64798A;" width="33.78" height="123.523"/>
</g>
<path style="fill:#3A556A;" d="M419.382,360.063h48.91v-235.08c0-12.869-10.433-23.302-23.302-23.302h-2.306
	c-12.869,0-23.302,10.433-23.302,23.302V360.063z"/>
<g>
	<rect x="304.727" y="236.581" style="fill:#64798A;" width="114.676" height="33.78"/>
	<rect x="304.709" y="236.563" style="fill:#64798A;" width="33.78" height="123.523"/>
</g>
<g>
	<rect x="113.932" y="130.816" style="fill:#DC8744;" width="240.428" height="48.29"/>
	<polygon style="fill:#DC8744;" points="188.849,366.612 175.459,353.515 234.191,293.448 292.258,353.558 278.782,366.57 
		234.105,320.326 	"/>
</g>
<rect x="218.537" y="179.075" style="fill:#2F4859;" width="31.22" height="180.955"/>
<g>
</g>
<g>
</g>
<g>
</g>
<g>
</g>
<g>
</g>
<g>
</g>
<g>
</g>
<g>
</g>
<g>
</g>
<g>
</g>
<g>
</g>
<g>
</g>
<g>
</g>
<g>
</g>
<g>
</g>
</svg>
