<?xml version="1.0" encoding="iso-8859-1"?>
<!-- Generator: Adobe Illustrator 19.0.0, SVG Export Plug-In . SVG Version: 6.00 Build 0)  -->
<svg version="1.1" id="Capa_1" xmlns="http://www.w3.org/2000/svg" xmlns:xlink="http://www.w3.org/1999/xlink" x="0px" y="0px"
	 viewBox="0 0 468.305 468.305" style="enable-background:new 0 0 468.305 468.305;" xml:space="preserve">
<path style="fill:#3A556A;" d="M187.727,136.43h99.831c0,0,0.197-75.029,0-100.883c-0.121-15.95-8.081-36.427-55.359-35.518
	c-15.236,0.293-41.278,8.053-44.473,39.502V136.43z"/>
<path style="fill:#D5D6DB;" d="M245.899,111.267l6.06,2.799l38.805,17.448c7.652,3.441,13.043,10.815,14.227,19.461l6.006,43.868
	H159.75l5.1-46.117c0.798-7.211,5.235-13.413,11.612-16.231l41.717-18.428l4.588-1.6"/>
<path style="fill:#F6C358;" d="M235.382,131.076L235.382,131.076c-9.347,0-16.924-7.577-16.924-16.924v-19.75h33.847v19.75
	C252.306,123.499,244.729,131.076,235.382,131.076z"/>
<path style="fill:#FCD462;" d="M277.781,39.239c-3.706,43.987-21.428,68.02-41.996,68.78c-33.94,1.254-42.82-68.78-42.82-68.78
	l32.678-24.47h22.709L277.781,39.239z"/>
<path style="fill:#3A556A;" d="M277.129,44.389c-3.813-15.559-23.607-27.02-41.949-27.02c-21.199,0-39.876,15.591-39.876,34.754
	h-7.578c0-23.988,21.287-43.503,47.453-43.503c23.241,0,42.632,15.395,46.678,35.645"/>
<g>
	<rect x="250.434" y="174.386" style="fill:#E56353;" width="23.814" height="7.961"/>
	<polygon style="fill:#E56353;" points="218.458,113.485 236.063,131.076 205.738,148.188 205.738,119.562 	"/>
	<polygon style="fill:#E56353;" points="252.306,113.485 235.459,131.076 264.536,148.188 264.536,119.562 	"/>
	<rect x="234.674" y="131.078" style="fill:#E56353;" width="2.785" height="63.769"/>
	<circle style="fill:#E56353;" cx="228.68" cy="146.981" r="3.509"/>
	<circle style="fill:#E56353;" cx="228.68" cy="160.406" r="3.509"/>
	<circle style="fill:#E56353;" cx="228.68" cy="173.83" r="3.509"/>
	<circle style="fill:#E56353;" cx="228.68" cy="187.236" r="3.509"/>
</g>
<path style="fill:#FCD462;" d="M269.064,47.807c0,0-4.062-15.226-5.339-19.481c0,0-8.984,15.797-3.854,18.43L269.064,47.807z"/>
<path style="fill:#3A556A;" d="M197.173,34.435c0,0,50.659,33.188,86.705,13.372l-19.342-35.079l-39.358-3.131L197.173,34.435z"/>
<rect x="128.777" y="194.841" style="fill:#64798A;" width="205.006" height="20.549"/>
<rect x="152.748" y="215.39" style="fill:#DC8744;" width="166.687" height="227.028"/>
<rect x="128.777" y="442.443" style="fill:#64798A;" width="210.75" height="25.862"/>
<rect x="187.726" y="253.502" style="fill:#3A556A;" width="99.902" height="148.661"/>
<g>
</g>
<g>
</g>
<g>
</g>
<g>
</g>
<g>
</g>
<g>
</g>
<g>
</g>
<g>
</g>
<g>
</g>
<g>
</g>
<g>
</g>
<g>
</g>
<g>
</g>
<g>
</g>
<g>
</g>
</svg>
