<?xml version="1.0" encoding="iso-8859-1"?>
<!-- Generator: Adobe Illustrator 19.0.0, SVG Export Plug-In . SVG Version: 6.00 Build 0)  -->
<svg version="1.1" id="Capa_1" xmlns="http://www.w3.org/2000/svg" xmlns:xlink="http://www.w3.org/1999/xlink" x="0px" y="0px"
	 viewBox="0 0 468.293 468.293" style="enable-background:new 0 0 468.293 468.293;" xml:space="preserve">
<path style="fill:#EBF0F3;" d="M384.077,38.176C383.189,16.963,365.843,0,344.411,0H117.943C96.512,0,79.165,16.963,78.277,38.176
	H384.077z"/>
<path style="fill:#E56353;" d="M394.18,69.938l-15.067,144.356l-2.443,23.822l-1.934,18.019l-3.767,36.242l-17.046,162.736
	c-0.785,7.491-7.1,13.179-14.632,13.179H129.001c-7.532,0-13.847-5.688-14.632-13.179L97.323,292.377l-3.767-36.242l-1.934-18.019
	l-2.443-23.822L74.112,69.938C74.112,69.938,394.18,69.938,394.18,69.938z"/>
<path style="fill:#D5D6DB;" d="M376.67,238.117l-1.934,18.019l-3.767,36.242h-66.681c-10.893,28.098-38.176,48.153-70.142,48.153
	s-59.249-20.055-70.142-48.153H97.323l-3.767-36.242l-1.934-18.019h72.382c10.893-28.098,38.176-48.153,70.142-48.153
	s59.249,20.055,70.142,48.153H376.67z"/>
<path style="fill:#F7BE56;" d="M254.925,244.48c21.407,21.407,29.497,48.124,18.04,59.58c-11.456,11.456-38.173,3.367-59.58-18.04
	c-21.407-21.407-29.519-48.147-18.063-59.603C206.778,214.961,233.518,223.073,254.925,244.48z"/>
<path style="fill:#FCD462;" d="M263.154,294.25c-1.145,1.145-3.6,0.545-5.485-1.34c-1.885-1.885-2.485-4.34-1.34-5.485
	c3.142-3.142,1.489-9.909-3.685-15.083c-5.174-5.174-11.941-6.827-15.083-3.685c-5.428,5.428-17.115,2.573-26.053-6.365
	c-8.938-8.938-11.793-20.625-6.365-26.053c1.145-1.145,3.6-0.545,5.485,1.34c1.885,1.885,2.485,4.34,1.34,5.485
	c-3.142,3.142-1.489,9.909,3.685,15.083c5.174,5.174,11.941,6.827,15.083,3.685c5.428-5.428,17.115-2.573,26.053,6.365
	C265.727,277.135,268.582,288.822,263.154,294.25z"/>
<path style="fill:#D5D6DB;" d="M396.029,32.237l-322.231,0c-11.49,0-22.089,8.251-23.084,19.698
	c-1.114,12.82,8.962,23.568,21.549,23.568h322.231c11.49,0,22.089-8.25,23.084-19.696C418.693,42.987,408.617,32.237,396.029,32.237
	z"/>
<g>
</g>
<g>
</g>
<g>
</g>
<g>
</g>
<g>
</g>
<g>
</g>
<g>
</g>
<g>
</g>
<g>
</g>
<g>
</g>
<g>
</g>
<g>
</g>
<g>
</g>
<g>
</g>
<g>
</g>
</svg>
