<?xml version="1.0" encoding="iso-8859-1"?>
<!-- Generator: Adobe Illustrator 19.0.0, SVG Export Plug-In . SVG Version: 6.00 Build 0)  -->
<svg version="1.1" id="Capa_1" xmlns="http://www.w3.org/2000/svg" xmlns:xlink="http://www.w3.org/1999/xlink" x="0px" y="0px"
	 viewBox="0 0 468.293 468.293" style="enable-background:new 0 0 468.293 468.293;" xml:space="preserve">
<rect y="11.408" style="fill:#64798A;" width="468.293" height="444.94"/>
<path style="fill:#3A556A;" d="M387.392,456.366H87.124V219.182c0-55.462,44.961-100.423,100.423-100.423h99.422
	c55.462,0,100.423,44.961,100.423,100.423V456.366z"/>
<path style="fill:#FCD462;" d="M312.079,225.553c0,0,81.206,134.356-32.99,190.256l-38.363-61.78l-27.617,61.78
	c0,0-126.884-19.267-58.367-190.256l49.821,61.861c0,0,36.541-53.368,32.694-109.637c0,0,51.05,76.647,38.361,109.637
	C275.619,287.414,309.541,266.155,312.079,225.553z"/>
<path style="fill:#F6C358;" d="M287.987,257.19c0,0,55.058,91.095-22.367,128.995l-26.01-41.888l-18.724,41.888
	c0,0-86.029-13.063-39.573-128.995l33.779,41.943c0,0,24.775-36.184,22.167-74.335c0,0,34.612,51.967,26.009,74.335
	C263.267,299.133,286.267,284.719,287.987,257.19z"/>
<g>
	<path style="fill:#DC8744;" d="M357.468,413.397l-236.419,42.299c-3.395,0.607-6.64-1.652-7.247-5.047l-1.801-10.067
		c-0.607-3.395,1.652-6.64,5.047-7.247l236.419-42.299c3.395-0.607,6.64,1.652,7.247,5.047l1.801,10.067
		C363.123,409.545,360.863,412.79,357.468,413.397z"/>
	<path style="fill:#DC8744;" d="M353.162,456.775l-236.016-44.494c-3.389-0.639-5.619-3.904-4.98-7.294l1.895-10.049
		c0.639-3.389,3.904-5.619,7.294-4.98l236.016,44.494c3.389,0.639,5.619,3.904,4.98,7.294l-1.895,10.049
		C359.816,455.184,356.551,457.414,353.162,456.775z"/>
</g>
<g>
</g>
<g>
</g>
<g>
</g>
<g>
</g>
<g>
</g>
<g>
</g>
<g>
</g>
<g>
</g>
<g>
</g>
<g>
</g>
<g>
</g>
<g>
</g>
<g>
</g>
<g>
</g>
<g>
</g>
</svg>
