<?xml version="1.0" encoding="iso-8859-1"?>
<!-- Generator: Adobe Illustrator 19.0.0, SVG Export Plug-In . SVG Version: 6.00 Build 0)  -->
<svg version="1.1" id="Capa_1" xmlns="http://www.w3.org/2000/svg" xmlns:xlink="http://www.w3.org/1999/xlink" x="0px" y="0px"
	 viewBox="0 0 470.258 470.258" style="enable-background:new 0 0 470.258 470.258;" xml:space="preserve">
<polygon style="fill:#3A556A;" points="174.689,325.17 203.491,403.473 320.075,403.473 348.878,325.17 "/>
<path style="fill:#64798A;" d="M458.626,42.956H64.94c-6.424,0-11.631,5.207-11.631,11.631v241.97h416.949V54.587
	C470.258,48.163,465.051,42.956,458.626,42.956z"/>
<rect x="76.054" y="65.701" style="fill:#3A556A;" width="371.45" height="230.856"/>
<path style="fill:#64798A;" d="M53.309,296.557v45.596c0,6.424,5.207,11.631,11.631,11.631h393.686
	c6.424,0,11.631-5.207,11.631-11.631v-45.596H53.309z"/>
<circle style="fill:#EBF0F3;" cx="261.797" cy="325.166" r="15.81"/>
<path style="fill:#64798A;" d="M334.215,400.836H189.351c-14.616,0-26.466,11.849-26.466,26.466v0h197.796v0
	C360.682,412.685,348.832,400.836,334.215,400.836z"/>
<rect x="6.758" y="365.489" transform="matrix(-0.734 -0.6792 0.6792 -0.734 -233.5296 664.6065)" style="fill:#F6C358;" width="13.275" height="25.1"/>
<path style="fill:#E56353;" d="M199.528,191.444l-16.818-15.292c-13.994-12.724-39.492-4.708-55.437,15.943L8.62,345.205
	c-5.398,6.999-3.599,17.813,3.752,24.498l8.835,8.034c7.352,6.685,18.269,7.433,24.701,1.374l143.005-130.968
	C207.96,230.312,213.522,204.168,199.528,191.444z"/>
<ellipse style="fill:#FCD462;" cx="177.753" cy="201.903" rx="58.505" ry="58.505"/>
<path style="fill:#D15241;" d="M141.895,155.738c-2.328,1.812-4.552,3.807-6.638,6.016c23.598,33.281,50.984,61.284,81.754,83.517
	c1.391-1.262,2.742-2.589,4.031-4.007c0.739-0.812,1.382-1.675,2.066-2.516C192.492,216.791,165.297,188.931,141.895,155.738z"/>
<rect x="87.208" y="258.604" transform="matrix(-0.7261 -0.6876 0.6876 -0.7261 -29.6401 558.6859)" style="fill:#3A556A;" width="18.501" height="53.285"/>
<g>
</g>
<g>
</g>
<g>
</g>
<g>
</g>
<g>
</g>
<g>
</g>
<g>
</g>
<g>
</g>
<g>
</g>
<g>
</g>
<g>
</g>
<g>
</g>
<g>
</g>
<g>
</g>
<g>
</g>
</svg>
