<?xml version="1.0" encoding="iso-8859-1"?>
<!-- Generator: Adobe Illustrator 19.0.0, SVG Export Plug-In . SVG Version: 6.00 Build 0)  -->
<svg version="1.1" id="Capa_1" xmlns="http://www.w3.org/2000/svg" xmlns:xlink="http://www.w3.org/1999/xlink" x="0px" y="0px"
	 viewBox="0 0 468.293 468.293" style="enable-background:new 0 0 468.293 468.293;" xml:space="preserve">
<path style="fill:#D5D6DB;" d="M204.94,376.139h-8.513v-64.655c1.024-0.396,2.04-0.849,3.006-1.481
	c70.889-46.417,43.344-112.027,43.344-112.027H139.062c-20.593,71.266,26.656,103.238,45.779,112.966
	c0.242,0.123,0.5,0.155,0.745,0.263v64.934h-8.513c-16.503,0-29.882,7.924-29.882,29.181h87.631
	C234.822,384.063,221.443,376.139,204.94,376.139z"/>
<path style="fill:#D15241;" d="M229.834,212.522c0,0,20.144,47.983-30.545,82.706c-4.736,3.244-10.391,3.471-15.317,0.737
	c-15.495-8.6-46.561-32.785-31.924-83.442H229.834z"/>
<path style="fill:#E1E6E9;" d="M141.529,422.056h-8.513v-64.657c1.024-0.395,2.04-0.848,3.006-1.48
	c70.889-46.417,43.344-112.027,43.344-112.027H75.652c-20.592,71.267,26.657,103.238,45.779,112.966
	c0.242,0.123,0.5,0.155,0.745,0.264v64.934h-8.513c-16.504,0-29.883,7.922-29.883,29.18h87.631
	C171.412,429.978,158.033,422.056,141.529,422.056z"/>
<path style="fill:#E56353;" d="M166.424,258.437c0,0,20.144,47.983-30.545,82.706c-4.736,3.244-10.391,3.471-15.317,0.737
	c-15.495-8.6-46.561-32.785-31.924-83.442H166.424z"/>
<path style="fill:#D5D6DB;" d="M352.414,157.468V0h-47.147v157.468c-26.186,7.527-45.32,31.152-45.32,59.181v39.27v212.374h137.787
	V255.918v-39.27C397.734,188.62,378.601,164.995,352.414,157.468z"/>
<rect x="281.438" y="197.994" style="fill:#D15241;" width="94.283" height="252.379"/>
<g>
</g>
<g>
</g>
<g>
</g>
<g>
</g>
<g>
</g>
<g>
</g>
<g>
</g>
<g>
</g>
<g>
</g>
<g>
</g>
<g>
</g>
<g>
</g>
<g>
</g>
<g>
</g>
<g>
</g>
</svg>
