<?xml version="1.0" encoding="iso-8859-1"?>
<!-- Generator: Adobe Illustrator 19.0.0, SVG Export Plug-In . SVG Version: 6.00 Build 0)  -->
<svg version="1.1" id="Capa_1" xmlns="http://www.w3.org/2000/svg" xmlns:xlink="http://www.w3.org/1999/xlink" x="0px" y="0px"
	 viewBox="0 0 468.293 468.293" style="enable-background:new 0 0 468.293 468.293;" xml:space="preserve">
<path style="fill:#DC8744;" d="M237.293,468.293L237.293,468.293c-4.328,0-8.106-2.931-9.181-7.123l-80.125-312.366h178.612
	l-80.125,312.366C245.399,465.361,241.621,468.293,237.293,468.293z"/>
<g>
	<polygon style="fill:#F6C358;" points="326.599,148.803 188.963,308.548 192.276,321.465 320.645,172.015 	"/>
	<polygon style="fill:#F6C358;" points="307.817,222.026 199.211,348.077 202.525,360.994 301.825,245.386 	"/>
	<polygon style="fill:#F6C358;" points="289.035,295.249 209.46,387.606 212.773,400.523 283.004,318.758 	"/>
	<polygon style="fill:#F6C358;" points="282.678,148.803 178.206,266.823 181.519,279.74 295.855,148.803 	"/>
	<polygon style="fill:#F6C358;" points="231.6,148.803 166.613,222.217 169.926,235.134 245.311,148.803 	"/>
	<polygon style="fill:#F6C358;" points="183.965,148.803 156.07,180.315 159.337,193.051 197.975,148.803 	"/>
	<polygon style="fill:#F6C358;" points="270.252,368.471 219.708,427.135 223.021,440.052 264.184,392.129 	"/>
</g>
<path style="fill:#44C4A1;" d="M330.023,108.91C328.676,39.037,296.653,0,232.534,0s-95.14,44.016-98.322,104.081
	c-0.701,13.233-3.333,31.364,34.163,40.53c0,0-71.708-11.711-27.497,31.663c7.143,7.008,22.497,14.267,39.162-8.282
	c0,0,33.329,48.277,52.494-12.549c0,0,34.163,58.327,59.16-2.5c0,0,4.05,48.454,38.386,15.049
	c7.757-7.547,31.606-25.048-24.221-35.88C305.859,132.112,330.327,124.696,330.023,108.91z"/>
<g>
	<circle style="fill:#3A556A;" cx="257.78" cy="24.357" r="5.157"/>
	<circle style="fill:#3A556A;" cx="290.716" cy="38.999" r="5.157"/>
	<circle style="fill:#3A556A;" cx="280.414" cy="19.206" r="5.157"/>
	<circle style="fill:#3A556A;" cx="285.534" cy="59.629" r="5.157"/>
	<circle style="fill:#3A556A;" cx="295.855" cy="83.687" r="5.157"/>
	<circle style="fill:#3A556A;" cx="307.818" cy="59.629" r="5.157"/>
	<circle style="fill:#3A556A;" cx="273.233" cy="83.687" r="5.157"/>
	<circle style="fill:#3A556A;" cx="262.937" cy="49.308" r="5.157"/>
</g>
<g>
</g>
<g>
</g>
<g>
</g>
<g>
</g>
<g>
</g>
<g>
</g>
<g>
</g>
<g>
</g>
<g>
</g>
<g>
</g>
<g>
</g>
<g>
</g>
<g>
</g>
<g>
</g>
<g>
</g>
</svg>
