<?xml version="1.0" encoding="iso-8859-1"?>
<!-- Generator: Adobe Illustrator 19.0.0, SVG Export Plug-In . SVG Version: 6.00 Build 0)  -->
<svg version="1.1" id="Capa_1" xmlns="http://www.w3.org/2000/svg" xmlns:xlink="http://www.w3.org/1999/xlink" x="0px" y="0px"
	 viewBox="0 0 455.805 455.805" style="enable-background:new 0 0 455.805 455.805;" xml:space="preserve">
<g>
	<rect x="355.715" y="80.047" style="fill:#64798A;" width="19.038" height="43.77"/>
	<rect x="81.077" y="80.047" style="fill:#64798A;" width="19.038" height="43.77"/>
</g>
<path style="fill:#D5D6DB;" d="M419.15,116.552H36.655c-10.451,0-18.923,8.473-18.923,18.923v244.016
	c0,10.451,8.472,18.923,18.923,18.923H419.15c10.451,0,18.923-8.472,18.923-18.923V135.476
	C438.073,125.025,429.601,116.552,419.15,116.552z"/>
<rect x="44.094" y="142.917" style="fill:#EBF0F3;" width="367.616" height="229.139"/>
<path style="fill:#F7BE56;" d="M438.596,57.39H17.209C7.705,57.39,0,65.095,0,74.599c0,9.504,7.705,17.209,17.209,17.209h421.387
	c9.504,0,17.209-7.705,17.209-17.209C455.805,65.095,448.1,57.39,438.596,57.39z"/>
<polygon style="fill:#2E9AE1;" points="227.902,167.037 240.335,192.229 268.137,196.269 248.02,215.878 252.769,243.567 
	227.902,230.494 203.036,243.567 207.785,215.878 187.668,196.269 215.469,192.229 "/>
<g>
	<polygon style="fill:#CE412D;" points="300.416,191.766 308.117,207.371 325.339,209.874 312.877,222.021 315.819,239.173 
		300.416,231.075 285.012,239.173 287.954,222.021 275.493,209.874 292.714,207.371 	"/>
	<polygon style="fill:#CE412D;" points="357.779,191.766 365.481,207.371 382.702,209.874 370.241,222.021 373.183,239.173 
		357.779,231.075 342.376,239.173 345.318,222.021 332.856,209.874 350.078,207.371 	"/>
	<polygon style="fill:#CE412D;" points="98.026,191.766 105.727,207.371 122.949,209.874 110.487,222.021 113.429,239.173 
		98.026,231.075 82.622,239.173 85.564,222.021 73.102,209.874 90.324,207.371 	"/>
	<polygon style="fill:#CE412D;" points="155.389,191.766 163.091,207.371 180.312,209.874 167.851,222.021 170.793,239.173 
		155.389,231.075 139.986,239.173 142.928,222.021 130.466,209.874 147.687,207.371 	"/>
</g>
<g>
	<path style="fill:#64798A;" d="M95.692,333.031v-57.616h11.633v22.677h22.795v-22.677h11.633v57.616H130.12v-25.192h-22.795v25.192
		H95.692z"/>
	<path style="fill:#64798A;" d="M151.422,304.577c0-5.869,0.878-10.795,2.633-14.777c1.31-2.935,3.098-5.568,5.365-7.9
		c2.266-2.332,4.749-4.061,7.448-5.188c3.59-1.52,7.729-2.28,12.419-2.28c8.489,0,15.282,2.633,20.378,7.9
		c5.096,5.266,7.644,12.59,7.644,21.969c0,9.301-2.528,16.579-7.585,21.832c-5.057,5.253-11.817,7.88-20.28,7.88
		c-8.568,0-15.38-2.614-20.437-7.841C153.95,320.946,151.422,313.747,151.422,304.577z M163.409,304.184
		c0,6.524,1.507,11.469,4.52,14.836c3.013,3.367,6.838,5.05,11.476,5.05c4.638,0,8.443-1.67,11.417-5.011
		c2.974-3.341,4.461-8.352,4.461-15.033c0-6.603-1.448-11.528-4.343-14.777c-2.895-3.249-6.74-4.873-11.535-4.873
		s-8.659,1.644-11.594,4.932C164.876,292.597,163.409,297.555,163.409,304.184z"/>
	<path style="fill:#64798A;" d="M229.357,333.031v-47.869H212.26v-9.747h45.786v9.747H240.99v47.869H229.357z"/>
	<path style="fill:#64798A;" d="M265.553,333.031v-57.616h42.721v9.747h-31.087v12.773h28.926v9.707h-28.926v15.681h32.188v9.707
		H265.553z"/>
	<path style="fill:#64798A;" d="M319.553,333.031v-57.144h11.633v47.437h28.926v9.707H319.553z"/>
</g>
<g>
</g>
<g>
</g>
<g>
</g>
<g>
</g>
<g>
</g>
<g>
</g>
<g>
</g>
<g>
</g>
<g>
</g>
<g>
</g>
<g>
</g>
<g>
</g>
<g>
</g>
<g>
</g>
<g>
</g>
</svg>
