<?xml version="1.0" encoding="iso-8859-1"?>
<!-- Generator: Adobe Illustrator 19.0.0, SVG Export Plug-In . SVG Version: 6.00 Build 0)  -->
<svg version="1.1" id="Capa_1" xmlns="http://www.w3.org/2000/svg" xmlns:xlink="http://www.w3.org/1999/xlink" x="0px" y="0px"
	 viewBox="0 0 468.293 468.293" style="enable-background:new 0 0 468.293 468.293;" xml:space="preserve">
<path style="fill:#1C75A1;" d="M15.35,301.84h452.943v-64.033H0v48.683C0,294.967,6.872,301.84,15.35,301.84z"/>
<polygon style="fill:#27A2DB;" points="0,237.807 82.938,120.718 162.216,120.718 162.216,237.807 "/>
<polygon style="fill:#D5D6DB;" points="152.459,133.525 90.866,133.525 47.567,195.118 152.459,195.118 "/>
<polygon style="fill:#E1E6E9;" points="47.567,195.118 90.866,133.525 152.459,133.525 "/>
<rect x="162.217" y="120.721" style="fill:#27A2DB;" width="306.076" height="117.086"/>
<rect x="162.217" y="179.776" style="fill:#2D93BA;" width="306.076" height="58.037"/>
<path style="fill:#E56353;" d="M468.293,262.849h-26.528c-8.083,0-14.636-6.553-14.636-14.636v0c0-8.083,6.553-14.636,14.636-14.636
	h26.528V262.849z"/>
<path style="fill:#E1E6E9;" d="M41.164,237.807H12.488C5.591,237.807,0,243.398,0,250.295v4.297c0,6.897,5.591,12.488,12.488,12.488
	h28.676V237.807z"/>
<rect x="162.204" y="120.721" style="fill:#1C75A1;" width="15.248" height="117.086"/>
<circle style="fill:#2F4859;" cx="89.612" cy="301.838" r="45.737"/>
<circle style="fill:#E1E6E9;" cx="89.612" cy="301.838" r="31.532"/>
<g>
	<circle style="fill:#2F4859;" cx="89.612" cy="301.838" r="13.137"/>
	<circle style="fill:#2F4859;" cx="303.329" cy="301.838" r="45.737"/>
</g>
<circle style="fill:#E1E6E9;" cx="303.329" cy="301.838" r="31.532"/>
<g>
	<circle style="fill:#2F4859;" cx="303.329" cy="301.838" r="13.137"/>
	<circle style="fill:#2F4859;" cx="404.855" cy="301.838" r="45.737"/>
</g>
<circle style="fill:#E1E6E9;" cx="404.855" cy="301.838" r="31.532"/>
<circle style="fill:#2F4859;" cx="404.855" cy="301.838" r="13.137"/>
<rect x="191.188" y="133.527" style="fill:#D5D6DB;" width="261.694" height="61.596"/>
<polygon style="fill:#E1E6E9;" points="191.219,195.118 191.219,133.525 452.914,133.525 "/>
<g>
</g>
<g>
</g>
<g>
</g>
<g>
</g>
<g>
</g>
<g>
</g>
<g>
</g>
<g>
</g>
<g>
</g>
<g>
</g>
<g>
</g>
<g>
</g>
<g>
</g>
<g>
</g>
<g>
</g>
</svg>
