<?xml version="1.0" encoding="iso-8859-1"?>
<!-- Generator: Adobe Illustrator 19.0.0, SVG Export Plug-In . SVG Version: 6.00 Build 0)  -->
<svg version="1.1" id="Capa_1" xmlns="http://www.w3.org/2000/svg" xmlns:xlink="http://www.w3.org/1999/xlink" x="0px" y="0px"
	 viewBox="0 0 468.299 468.299" style="enable-background:new 0 0 468.299 468.299;" xml:space="preserve">
<ellipse style="fill:#DC8744;" cx="299.832" cy="265.86" rx="168.467" ry="75.813"/>
<ellipse style="fill:#F6C358;" cx="299.832" cy="249.001" rx="168.467" ry="75.813"/>
<ellipse style="fill:#DC8744;" cx="299.832" cy="236.388" rx="168.467" ry="75.813"/>
<ellipse style="fill:#F6C358;" cx="299.832" cy="219.536" rx="168.467" ry="75.813"/>
<ellipse style="fill:#DC8744;" cx="299.832" cy="206.905" rx="168.467" ry="75.813"/>
<ellipse style="fill:#F6C358;" cx="299.832" cy="190.052" rx="168.467" ry="75.813"/>
<ellipse style="fill:#DC8744;" cx="299.832" cy="172.513" rx="168.467" ry="75.813"/>
<ellipse style="fill:#F6C358;" cx="299.832" cy="155.661" rx="168.467" ry="75.813"/>
<ellipse style="fill:#DC8744;" cx="299.832" cy="139.514" rx="168.467" ry="75.813"/>
<ellipse style="fill:#F6C358;" cx="299.832" cy="122.687" rx="168.467" ry="75.813"/>
<g>
	<ellipse style="fill:#DC8744;" cx="392.367" cy="85.998" rx="7.636" ry="2.635"/>
	<ellipse style="fill:#DC8744;" cx="384.749" cy="69.32" rx="7.636" ry="2.635"/>
	<ellipse style="fill:#DC8744;" cx="356.09" cy="83.369" rx="7.636" ry="2.635"/>
	<ellipse style="fill:#DC8744;" cx="392.367" cy="131.091" rx="7.636" ry="2.635"/>
	<ellipse style="fill:#DC8744;" cx="417.655" cy="91.28" rx="7.636" ry="2.635"/>
	<ellipse style="fill:#DC8744;" cx="363.701" cy="108.8" rx="7.636" ry="2.635"/>
	<ellipse style="fill:#DC8744;" cx="410.037" cy="103.518" rx="7.636" ry="2.635"/>
	<ellipse style="fill:#DC8744;" cx="382.651" cy="100.908" rx="7.636" ry="2.635"/>
	<ellipse style="fill:#DC8744;" cx="446.751" cy="114.245" rx="7.636" ry="2.635"/>
	<ellipse style="fill:#DC8744;" cx="422.15" cy="131.091" rx="7.636" ry="2.635"/>
</g>
<g>
	<ellipse style="fill:#E56353;" cx="305.639" cy="123.061" rx="44.251" ry="22.147"/>
	<path style="fill:#E56353;" d="M316.67,143.726c0,0-22.483,29.534-55.278,16.847c0,0-22.784,12.425-21.872,29.482v143.214
		c0,0,76.448,14.025,58.198,42.103c0,0-34.856,43.141-89.851,8.423c-15.436-9.744-51.945-32.29-73.004,1.404
		c0,0-68.246,72.578-88.447,12.275c-3.567-10.648-7.98-25,5.616-44.565c5.957-8.573,18.247-39.87-9.283-40.714
		c-12.987-0.398-41.761,3.862-42.662-29.685c-0.316-11.753-1.442-31.123,32.29-33.492h98.976V131.09
		c0,0,27.332-41.065,70.876-14.215c0,0,24.936-38.046,71.444-9.108"/>
</g>
<g>
	<path style="fill:#FFFFFF;" d="M131.353,369.351c0,0-10.529,42.468-71.6,38.608C59.753,407.958,118.718,397.78,131.353,369.351z"/>
	<path style="fill:#FFFFFF;" d="M11.828,289.204c0,0,16.752-40.42,76.561-27.485C88.389,261.719,28.566,262.98,11.828,289.204z"/>
	<path style="fill:#FFFFFF;" d="M236.043,343.472c0,0,29.676-11.962,53.561,25.878C289.604,369.351,258.303,338.775,236.043,343.472
		z"/>
	<path style="fill:#FFFFFF;" d="M218.773,174.578c0,0-27.437,18.994-60.438-14.006C158.335,160.573,197.209,184.477,218.773,174.578
		z"/>
	<path style="fill:#FFFFFF;" d="M341.301,130.021c-0.857,0-1.555-0.689-1.561-1.549c-0.043-5.488-1.921-9.97-5.579-13.329
		c-9.576-8.78-28.201-7.409-28.399-7.415c-0.805,0.152-1.61-0.573-1.677-1.433c-0.07-0.86,0.573-1.61,1.433-1.677
		c0.823-0.073,20.195-1.463,30.753,8.226c4.323,3.963,6.543,9.213,6.591,15.604c0.006,0.86-0.686,1.567-1.549,1.573
		C341.313,130.021,341.304,130.021,341.301,130.021z"/>
</g>
<g>
</g>
<g>
</g>
<g>
</g>
<g>
</g>
<g>
</g>
<g>
</g>
<g>
</g>
<g>
</g>
<g>
</g>
<g>
</g>
<g>
</g>
<g>
</g>
<g>
</g>
<g>
</g>
<g>
</g>
</svg>
