<?xml version="1.0" encoding="iso-8859-1"?>
<!-- Generator: Adobe Illustrator 19.0.0, SVG Export Plug-In . SVG Version: 6.00 Build 0)  -->
<svg version="1.1" id="Capa_1" xmlns="http://www.w3.org/2000/svg" xmlns:xlink="http://www.w3.org/1999/xlink" x="0px" y="0px"
	 viewBox="0 0 468.293 468.293" style="enable-background:new 0 0 468.293 468.293;" xml:space="preserve">
<path style="fill:#2F4859;" d="M321.014,133.847H147.279V77.238c0-17.583,16.048-31.888,35.77-31.888h102.199
	c19.718,0,35.766,14.305,35.766,31.888V133.847z M173.558,110.423h121.177V77.238c0-4.667-4.26-8.464-9.487-8.464H183.049
	c-5.235,0-9.491,3.797-9.491,8.464V110.423z"/>
<path style="fill:#44C4A1;" d="M445.877,422.942H22.415C10.035,422.942,0,412.907,0,400.528V128.931
	c0-12.379,10.035-22.415,22.415-22.415h423.463c12.379,0,22.415,10.035,22.415,22.415v271.597
	C468.292,412.907,458.257,422.942,445.877,422.942z"/>
<g>
	<path style="fill:#E1E6E9;" d="M0.001,133.2v263.059c0,14.738,11.946,26.684,26.684,26.684h102.913V106.516H26.685
		C11.947,106.516,0.001,118.463,0.001,133.2z"/>
	<path style="fill:#E1E6E9;" d="M441.609,106.516H340.204v316.427h101.404c14.737,0,26.684-11.947,26.684-26.684V133.2
		C468.293,118.463,456.345,106.516,441.609,106.516z"/>
</g>
<circle style="fill:#FCD462;" cx="234.146" cy="259.621" r="93.908"/>
<circle style="fill:#EBF0F3;" cx="234.146" cy="259.621" r="78.473"/>
<g>
	<rect x="224.899" y="202.615" style="fill:#D15241;" width="18.488" height="114.026"/>
	<rect x="177.133" y="250.38" style="fill:#D15241;" width="114.026" height="18.488"/>
</g>
<g>
</g>
<g>
</g>
<g>
</g>
<g>
</g>
<g>
</g>
<g>
</g>
<g>
</g>
<g>
</g>
<g>
</g>
<g>
</g>
<g>
</g>
<g>
</g>
<g>
</g>
<g>
</g>
<g>
</g>
</svg>
