<?xml version="1.0" encoding="iso-8859-1"?>
<!-- Generator: Adobe Illustrator 19.0.0, SVG Export Plug-In . SVG Version: 6.00 Build 0)  -->
<svg version="1.1" id="Capa_1" xmlns="http://www.w3.org/2000/svg" xmlns:xlink="http://www.w3.org/1999/xlink" x="0px" y="0px"
	 viewBox="0 0 468.293 468.293" style="enable-background:new 0 0 468.293 468.293;" xml:space="preserve">
<polygon style="fill:#D15241;" points="204.548,389.423 20.613,389.423 58.669,108.353 166.492,108.353 "/>
<g>
	<polygon style="fill:#D5D6DB;" points="172.611,340.621 52.55,340.621 77.39,157.155 147.771,157.155 	"/>
	<rect y="389.421" style="fill:#D5D6DB;" width="224.106" height="27.074"/>
	<path style="fill:#D5D6DB;" d="M168.078,108.353H58.14v-2.441c0-29.886,24.228-54.114,54.114-54.114h1.71
		c29.886,0,54.114,24.228,54.114,54.114V108.353z"/>
</g>
<g>
	<ellipse style="fill:#64798A;" cx="118.959" cy="54.292" rx="5.844" ry="1.236"/>
	<ellipse style="fill:#64798A;" cx="105.972" cy="54.292" rx="5.844" ry="1.236"/>
	<ellipse style="fill:#64798A;" cx="105.972" cy="58.057" rx="5.844" ry="1.236"/>
	<ellipse style="fill:#64798A;" cx="118.959" cy="58.057" rx="5.844" ry="1.236"/>
</g>
<polygon style="fill:#3EA69B;" points="448.736,389.423 264.802,389.423 302.857,108.353 410.681,108.353 "/>
<g>
	<polygon style="fill:#D5D6DB;" points="415.575,340.621 297.963,340.621 322.297,160.898 391.242,160.898 	"/>
	<rect x="244.187" y="389.421" style="fill:#D5D6DB;" width="224.106" height="27.074"/>
	<path style="fill:#D5D6DB;" d="M412.267,108.353H302.329v-2.441c0-29.886,24.228-54.114,54.114-54.114h1.71
		c29.886,0,54.114,24.228,54.114,54.114V108.353z"/>
</g>
<g>
	<ellipse style="fill:#64798A;" cx="363.145" cy="54.292" rx="5.844" ry="1.236"/>
	<ellipse style="fill:#64798A;" cx="350.158" cy="54.292" rx="5.844" ry="1.236"/>
	<ellipse style="fill:#64798A;" cx="350.158" cy="58.057" rx="5.844" ry="1.236"/>
	<ellipse style="fill:#64798A;" cx="363.145" cy="58.057" rx="5.844" ry="1.236"/>
</g>
<g>
</g>
<g>
</g>
<g>
</g>
<g>
</g>
<g>
</g>
<g>
</g>
<g>
</g>
<g>
</g>
<g>
</g>
<g>
</g>
<g>
</g>
<g>
</g>
<g>
</g>
<g>
</g>
<g>
</g>
</svg>
