<?xml version="1.0" encoding="iso-8859-1"?>
<!-- Generator: Adobe Illustrator 19.0.0, SVG Export Plug-In . SVG Version: 6.00 Build 0)  -->
<svg version="1.1" id="Capa_1" xmlns="http://www.w3.org/2000/svg" xmlns:xlink="http://www.w3.org/1999/xlink" x="0px" y="0px"
	 viewBox="0 0 468.293 468.293" style="enable-background:new 0 0 468.293 468.293;" xml:space="preserve">
<rect x="380.191" y="189.902" style="fill:#EBF0F3;" width="31.944" height="190.92"/>
<g>
	<rect x="368.203" y="159.282" style="fill:#64798A;" width="55.908" height="42.783"/>
	<rect x="368.203" y="372.324" style="fill:#64798A;" width="55.908" height="42.783"/>
</g>
<rect x="272.172" y="189.902" style="fill:#EBF0F3;" width="31.944" height="190.92"/>
<g>
	<rect x="260.183" y="159.282" style="fill:#64798A;" width="55.908" height="42.783"/>
	<rect x="260.183" y="372.324" style="fill:#64798A;" width="55.908" height="42.783"/>
</g>
<rect x="164.171" y="189.902" style="fill:#EBF0F3;" width="31.944" height="190.92"/>
<g>
	<rect x="152.189" y="159.282" style="fill:#64798A;" width="55.908" height="42.783"/>
	<rect x="152.189" y="372.324" style="fill:#64798A;" width="55.908" height="42.783"/>
</g>
<rect x="56.158" y="189.902" style="fill:#EBF0F3;" width="31.944" height="190.92"/>
<g>
	<rect x="44.176" y="159.282" style="fill:#64798A;" width="55.908" height="42.783"/>
	<rect x="44.176" y="372.324" style="fill:#64798A;" width="55.908" height="42.783"/>
</g>
<polygon style="fill:#D5D6DB;" points="461.8,167.843 234.147,0 6.493,167.843 "/>
<polygon style="fill:#2F4859;" points="445.192,443.983 445.192,422.67 423.853,422.67 423.853,401.357 44.44,401.357 44.44,422.67 
	23.101,422.67 23.101,443.983 5.347,443.983 5.347,468.293 462.945,468.293 462.945,443.983 "/>
<g>
</g>
<g>
</g>
<g>
</g>
<g>
</g>
<g>
</g>
<g>
</g>
<g>
</g>
<g>
</g>
<g>
</g>
<g>
</g>
<g>
</g>
<g>
</g>
<g>
</g>
<g>
</g>
<g>
</g>
</svg>
