<?xml version="1.0" encoding="iso-8859-1"?>
<!-- Generator: Adobe Illustrator 19.0.0, SVG Export Plug-In . SVG Version: 6.00 Build 0)  -->
<svg version="1.1" id="Capa_1" xmlns="http://www.w3.org/2000/svg" xmlns:xlink="http://www.w3.org/1999/xlink" x="0px" y="0px"
	 viewBox="0 0 468.292 468.292" style="enable-background:new 0 0 468.292 468.292;" xml:space="preserve">
<path style="fill:#D5D6DB;" d="M159.635,75.943v113.298c0,42.687,30.683,78.152,71.183,85.694v176.353h-18.77
	c-9.352,0-17.005,7.652-17.005,17.004h101.664c0-9.352-7.652-17.004-17.004-17.004h-23.03v-175.4
	c43.556-4.88,77.427-41.79,77.427-86.647V75.943H159.635z"/>
<path style="fill:#FCD462;" d="M246.868,256.616L246.868,256.616c-38.636,0-69.956-31.32-69.956-69.956V95.801h139.912v90.859
	C316.824,225.296,285.503,256.616,246.868,256.616z"/>
<polygon style="fill:#DC8744;" points="261.584,255.043 207.08,42.375 134.192,10.394 138.747,0 216.699,34.208 272.576,252.229 "/>
<g>
</g>
<g>
</g>
<g>
</g>
<g>
</g>
<g>
</g>
<g>
</g>
<g>
</g>
<g>
</g>
<g>
</g>
<g>
</g>
<g>
</g>
<g>
</g>
<g>
</g>
<g>
</g>
<g>
</g>
</svg>
