<?xml version="1.0" encoding="iso-8859-1"?>
<!-- Generator: Adobe Illustrator 19.0.0, SVG Export Plug-In . SVG Version: 6.00 Build 0)  -->
<svg version="1.1" id="Capa_1" xmlns="http://www.w3.org/2000/svg" xmlns:xlink="http://www.w3.org/1999/xlink" x="0px" y="0px"
	 viewBox="0 0 468.293 468.293" style="enable-background:new 0 0 468.293 468.293;" xml:space="preserve">
<g>
	<path style="fill:#D5D6DB;" d="M105.707,283.703c0,0-9.588-33.934-54.962-26.582c0,0,0.42,40.721,46.241,40.156"/>
	<path style="fill:#D5D6DB;" d="M105.252,309.725c0,0-10.773,33.934-55.89,26.582c0,0,1.842-40.721,47.643-40.156"/>
	<path style="fill:#D5D6DB;" d="M284.629,249.518c0,0-8.214-25.2-64.942-47.823c0,0-15.34,28.279,6.334,54.295"/>
</g>
<path style="fill:#E56353;" d="M282.972,344.469c0,0-9.094,25.2-66.612,47.823c0,0-14.353-28.279,8.229-54.295"/>
<path style="fill:#FFFFFF;" d="M410.888,296.711c0,0-142.216-114.811-328.597,0C82.291,296.711,233.001,410.956,410.888,296.711z"/>
<path style="fill:#D5D6DB;" d="M412.009,297.277c0,0-34.006-28.279-90.872-42.983c0,0-14.781,36.762-1.461,83.704
	C319.676,337.998,379.268,326.121,412.009,297.277z"/>
<g transform="matrix(0.71019 -0.70401 0.70401 0.71019 -18.1 55.656)">
	
		<ellipse transform="matrix(2.543419e-006 1 -1 2.543419e-006 513.1426 328.003)" style="fill:#FFFFFF;" cx="92.569" cy="420.573" rx="13.456" ry="13.693"/>
	
		<ellipse transform="matrix(2.543419e-006 1 -1 2.543419e-006 513.1426 328.003)" style="fill:#64798A;" cx="92.569" cy="420.573" rx="8.03" ry="8.173"/>
</g>
<polygon style="fill:#64798A;" points="402.514,420.005 63.172,420.005 0,345.35 468.293,345.35 "/>
<g>
	<path style="fill:#DC8744;" d="M304.367,187.423c-1.253,0-2.497-0.457-3.462-1.379c-2.014-1.929-2.058-5.15-0.1-7.198
		l17.006-17.769c3.841-4.016,5.769-9.252,5.427-14.74c-0.335-5.488-2.888-10.366-7.183-13.739l-1.55-1.213
		c-4.184-3.287-6.683-8.252-6.841-13.627c-0.158-5.369,2.04-10.558,6.028-14.23c5.207-4.792,8.111-11.294,8.173-18.306
		c0.063-7.012-2.728-13.468-7.855-18.167l-10.783-9.895c-2.055-1.882-2.158-5.103-0.239-7.191c1.925-2.094,5.143-2.253,7.198-0.365
		l10.783,9.895c7.123,6.535,11.162,15.88,11.078,25.636c-0.084,9.749-4.285,19.168-11.526,25.828
		c-1.772,1.63-2.753,3.93-2.682,6.316c0.071,2.386,1.179,4.593,3.042,6.058l1.55,1.213c6.46,5.07,10.462,12.719,10.974,20.977
		c0.512,8.265-2.514,16.47-8.293,22.521l-17.006,17.769C307.087,186.886,305.719,187.423,304.367,187.423z"/>
	<path style="fill:#DC8744;" d="M262.407,187.423c-1.253,0-2.497-0.457-3.462-1.379c-2.014-1.929-2.058-5.15-0.1-7.198
		l17.006-17.769c3.841-4.016,5.769-9.252,5.427-14.74c-0.335-5.488-2.888-10.366-7.183-13.739l-1.55-1.213
		c-4.184-3.287-6.683-8.252-6.841-13.627c-0.158-5.369,2.04-10.558,6.028-14.23c5.207-4.792,8.111-11.294,8.173-18.306
		c0.063-7.012-2.728-13.468-7.855-18.167l-10.783-9.895c-2.055-1.882-2.158-5.103-0.239-7.191c1.925-2.094,5.149-2.253,7.197-0.365
		l10.783,9.895c7.123,6.535,11.162,15.88,11.078,25.636c-0.084,9.749-4.285,19.168-11.526,25.828
		c-1.772,1.63-2.753,3.93-2.682,6.316c0.071,2.386,1.179,4.593,3.042,6.058l1.55,1.213c6.46,5.07,10.462,12.719,10.974,20.977
		c0.512,8.265-2.514,16.47-8.293,22.521l-17.006,17.769C265.127,186.886,263.759,187.423,262.407,187.423z"/>
	<path style="fill:#DC8744;" d="M220.446,187.423c-1.253,0-2.497-0.457-3.462-1.379c-2.014-1.929-2.057-5.15-0.1-7.198
		l16.999-17.769c3.848-4.016,5.775-9.252,5.434-14.74c-0.335-5.488-2.888-10.366-7.183-13.739l-1.55-1.213
		c-4.184-3.287-6.683-8.252-6.841-13.627c-0.158-5.369,2.04-10.558,6.028-14.23c5.207-4.792,8.111-11.294,8.174-18.313
		c0.056-7.012-2.728-13.461-7.855-18.16l-10.783-9.895c-2.055-1.882-2.158-5.103-0.239-7.191c1.932-2.094,5.149-2.253,7.197-0.365
		l10.783,9.895c7.123,6.535,11.156,15.874,11.072,25.63c-0.084,9.749-4.278,19.168-11.519,25.835
		c-1.772,1.63-2.753,3.93-2.682,6.316c0.071,2.386,1.179,4.593,3.042,6.058l1.55,1.213c6.46,5.07,10.462,12.719,10.974,20.984
		c0.505,8.265-2.521,16.47-8.3,22.515l-16.999,17.769C223.166,186.886,221.798,187.423,220.446,187.423z"/>
</g>
<g>
</g>
<g>
</g>
<g>
</g>
<g>
</g>
<g>
</g>
<g>
</g>
<g>
</g>
<g>
</g>
<g>
</g>
<g>
</g>
<g>
</g>
<g>
</g>
<g>
</g>
<g>
</g>
<g>
</g>
</svg>
