<?xml version="1.0" encoding="iso-8859-1"?>
<!-- Generator: Adobe Illustrator 19.0.0, SVG Export Plug-In . SVG Version: 6.00 Build 0)  -->
<svg version="1.1" id="Capa_1" xmlns="http://www.w3.org/2000/svg" xmlns:xlink="http://www.w3.org/1999/xlink" x="0px" y="0px"
	 viewBox="0 0 468.293 468.293" style="enable-background:new 0 0 468.293 468.293;" xml:space="preserve">
<rect x="159.283" y="443.442" style="fill:#2F4859;" width="88.901" height="24.851"/>
<path style="fill:#D5D6DB;" d="M11.995,271.414c0,0-5.923-58.63,12.504-53.76c0,0,13.163-17.644,36.855-0.441
	c0,0,5.265-29.044,27.642-14.509c0,0,26.325-25.322,48.702-4.072c0,0,26.325-25.022,39.488-8.493c0,0,21.912-29.144,41.888-5.646
	c0,0,21.293-21.428,34.455,3.677c0,0,30.274-14.535,38.172,9.249c0,0,26.325-17.177,38.172,7.928c0,0,28.958-9.741,34.223,12.307
	c0,0,32.907-3.985,32.907,14.12c0,9.91,0,39.64,0,39.64H11.995z"/>
<path style="fill:#E1E6E9;" d="M27.909,271.414c0,0-5.44-48.954,11.484-44.888c0,0,12.089-14.732,33.849-0.368
	c0,0,4.836-24.25,25.387-12.114c0,0,24.178-21.143,44.729-3.4c0,0,24.178-20.893,36.267-7.091c0,0,20.124-24.334,38.471-4.715
	c0,0,19.556-17.892,31.644,3.07c0,0,27.804-12.136,35.058,7.723c0,0,24.178-14.342,35.058,6.62c0,0,26.596-8.133,31.431,10.276
	c0,0,30.222-3.328,30.222,11.789c0,8.275,0,33.098,0,33.098H27.909z"/>
<path style="fill:#64798A;" d="M10.512,249.879c0,109.564,86.519,198.383,193.245,198.383s193.245-88.818,193.245-198.383H10.512z"
	/>
<g>
	<path style="fill:#FFFFFF;" d="M410.982,31.95L51.06,74.214l-1.526-10.508L406.606,1.824c24.832-4.303,47.739-0.771,49.05,8.256v0
		C456.967,19.108,436.012,29.011,410.982,31.95z"/>
	<path style="fill:#FFFFFF;" d="M410.429,111.589L48.17,101.677V91.059l362.259-9.912c25.193-0.689,47.354,6.099,47.354,15.221v0
		C457.783,105.49,435.622,112.278,410.429,111.589z"/>
</g>
<rect x="10.51" y="249.881" style="fill:#2F4859;" width="386.491" height="21.535"/>
<g>
</g>
<g>
</g>
<g>
</g>
<g>
</g>
<g>
</g>
<g>
</g>
<g>
</g>
<g>
</g>
<g>
</g>
<g>
</g>
<g>
</g>
<g>
</g>
<g>
</g>
<g>
</g>
<g>
</g>
</svg>
