<?xml version="1.0" encoding="iso-8859-1"?>
<!-- Generator: Adobe Illustrator 19.0.0, SVG Export Plug-In . SVG Version: 6.00 Build 0)  -->
<svg version="1.1" id="Capa_1" xmlns="http://www.w3.org/2000/svg" xmlns:xlink="http://www.w3.org/1999/xlink" x="0px" y="0px"
	 viewBox="0 0 468.293 468.293" style="enable-background:new 0 0 468.293 468.293;" xml:space="preserve">
<path style="fill:#EBF0F3;" d="M268.21,240.838h-9.017c0-6.422-5.225-11.647-11.647-11.647c-6.422,0-11.647,5.225-11.647,11.647
	h-9.017c0-11.395,9.27-20.665,20.665-20.665C258.94,220.174,268.21,229.443,268.21,240.838z"/>
<path style="fill:#E1E6E9;" d="M247.545,237.832c-51.668,0-93.555,41.886-93.555,93.555v15.405H341.1v-15.405
	C341.1,279.718,299.214,237.832,247.545,237.832z"/>
<polygon style="fill:#D5D6DB;" points="341.1,370.086 156.997,370.086 138.211,346.791 359.886,346.791 "/>
<g>
	<path style="fill:#FFFFFF;" d="M319.666,299.643c-0.801,0-1.576-0.429-1.984-1.183c-21.255-39.323-44.959-42.204-45.195-42.229
		c-1.239-0.128-2.138-1.236-2.011-2.474c0.129-1.239,1.234-2.134,2.474-2.011c1.064,0.11,26.322,3.173,48.697,44.571
		c0.593,1.095,0.185,2.463-0.911,3.054C320.396,299.556,320.029,299.643,319.666,299.643z"/>
	<circle style="fill:#FFFFFF;" cx="325.12" cy="305.077" r="3.384"/>
</g>
<path style="fill:#DC8744;" d="M394.627,405.261H89.446c-7.753,0-14.039-6.285-14.039-14.039v-7.097
	c0-7.754,6.285-14.039,14.039-14.039h305.181c7.753,0,14.039,6.285,14.039,14.039v7.097
	C408.666,398.976,402.381,405.261,394.627,405.261z"/>
<g>
	<path style="fill:#64798A;" d="M186.341,213.887l-9.954-7.11l12.685-17.758c3.28-4.601,4.278-10.355,2.737-15.786
		c-1.548-5.437-5.419-9.811-10.635-11.998l-11.568-4.84c-7.732-3.238-12.362-10.731-11.807-19.09
		c0.556-8.359,6.136-15.17,14.22-17.357l15.63-4.224c1.41-0.382,1.709-1.488,1.763-2.115c0.054-0.627-0.06-1.763-1.386-2.372
		l-18.737-8.616c-7.648-3.507-12.034-11.191-11.173-19.568c0.86-8.383,6.722-15.015,14.931-16.903l13.593-3.119l2.737,11.926
		l-13.593,3.119c-4.619,1.064-5.377,5.031-5.497,6.226c-0.125,1.189-0.185,5.228,4.111,7.2l18.737,8.616
		c5.664,2.593,8.992,8.293,8.473,14.507c-0.514,6.214-4.744,11.287-10.767,12.912l-15.631,4.23
		c-4.517,1.219-5.127,5.168-5.204,6.351c-0.078,1.183,0,5.18,4.326,6.985l11.568,4.846c8.67,3.633,15.111,10.898,17.68,19.938
		c2.563,9.034,0.908,18.6-4.553,26.242L186.341,213.887z"/>
	<path style="fill:#64798A;" d="M236.548,213.887l-9.954-7.11l12.679-17.758c3.286-4.601,4.284-10.349,2.742-15.786
		c-1.548-5.437-5.425-9.811-10.641-11.998l-11.568-4.84c-7.732-3.238-12.362-10.731-11.807-19.09
		c0.556-8.359,6.142-15.17,14.226-17.357l15.625-4.224c1.416-0.382,1.715-1.488,1.769-2.115c0.048-0.627-0.06-1.763-1.386-2.372
		l-18.738-8.616c-7.648-3.507-12.034-11.191-11.179-19.574c0.86-8.377,6.722-15.009,14.931-16.897l13.599-3.119l2.737,11.926
		l-13.599,3.119c-4.613,1.064-5.371,5.031-5.491,6.226c-0.125,1.189-0.191,5.228,4.111,7.2l18.737,8.616
		c5.664,2.599,8.986,8.293,8.473,14.507c-0.52,6.22-4.75,11.287-10.773,12.918l-15.625,4.224c-4.517,1.219-5.127,5.168-5.204,6.351
		c-0.084,1.177,0,5.18,4.32,6.991l11.568,4.84c8.67,3.633,15.117,10.904,17.686,19.938c2.563,9.04,0.902,18.6-4.559,26.242
		L236.548,213.887z"/>
	<path style="fill:#64798A;" d="M288.441,213.887l-9.966-7.11l12.679-17.758c3.286-4.595,4.278-10.355,2.737-15.786
		c-1.542-5.437-5.425-9.811-10.635-11.998l-11.568-4.846c-7.726-3.232-12.362-10.725-11.807-19.084
		c0.556-8.359,6.142-15.17,14.22-17.357l15.631-4.224c1.41-0.376,1.709-1.488,1.769-2.115c0.048-0.621-0.06-1.763-1.386-2.372
		l-18.737-8.616c-7.648-3.507-12.034-11.191-11.173-19.568c0.86-8.383,6.716-15.015,14.925-16.903l13.587-3.119l2.748,11.926
		l-13.587,3.119c-4.625,1.064-5.377,5.031-5.509,6.226c-0.12,1.189-0.179,5.228,4.123,7.2l18.726,8.616
		c5.664,2.593,8.986,8.293,8.473,14.507c-0.514,6.214-4.744,11.287-10.755,12.912l-15.631,4.23c-4.529,1.219-5.138,5.168-5.21,6.345
		c-0.084,1.183,0,5.18,4.326,6.991l11.568,4.852c8.664,3.627,15.105,10.892,17.674,19.932c2.569,9.034,0.908,18.6-4.541,26.242
		L288.441,213.887z"/>
	<path style="fill:#64798A;" d="M449.782,405.261L449.782,405.261c-11.601,0-19.732-17.08-18.36-35.495l5.915-100.545h24.582
		l6.222,100.545C469.514,388.181,461.383,405.261,449.782,405.261z"/>
</g>
<path style="fill:#D5D6DB;" d="M460.34,269.221V144.904c0,0-50.643,27.948-21.73,124.317"/>
<path style="fill:#64798A;" d="M30.507,405.261L30.507,405.261c-12.691,0-21.587-18.685-20.085-38.831l8.199-109.994h23.772
	l8.199,109.994C52.094,386.576,43.198,405.261,30.507,405.261z"/>
<g>
	<path style="fill:#D5D6DB;" d="M0,210.874c0,0,6.322,40.017,24.564,45.562h13.471c0,0,19.81-9.509,17.829-45.562H0z"/>
	<polygon style="fill:#D5D6DB;" points="5.151,142.531 6.933,142.531 12.084,210.874 0,210.874 	"/>
	<polygon style="fill:#D5D6DB;" points="49.069,142.531 50.852,142.531 56.003,210.874 43.919,210.874 	"/>
	<polygon style="fill:#D5D6DB;" points="27.11,142.531 28.893,142.531 34.043,210.874 21.959,210.874 	"/>
</g>
<g>
</g>
<g>
</g>
<g>
</g>
<g>
</g>
<g>
</g>
<g>
</g>
<g>
</g>
<g>
</g>
<g>
</g>
<g>
</g>
<g>
</g>
<g>
</g>
<g>
</g>
<g>
</g>
<g>
</g>
</svg>
