<?xml version="1.0" encoding="iso-8859-1"?>
<!-- Generator: Adobe Illustrator 19.0.0, SVG Export Plug-In . SVG Version: 6.00 Build 0)  -->
<svg version="1.1" id="Capa_1" xmlns="http://www.w3.org/2000/svg" xmlns:xlink="http://www.w3.org/1999/xlink" x="0px" y="0px"
	 viewBox="0 0 468.293 468.293" style="enable-background:new 0 0 468.293 468.293;" xml:space="preserve">
<path style="fill:#D5D6DB;" d="M167.849,439.524h-8.393v-63.745c1.01-0.389,2.011-0.836,2.963-1.46
	c69.89-45.763,42.733-110.449,42.733-110.449H102.899c-20.303,70.262,26.28,101.784,45.134,111.375
	c0.238,0.121,0.492,0.152,0.734,0.259v64.02h-8.393c-16.271,0-29.462,7.811-29.462,28.769h86.397
	C197.31,447.335,184.12,439.524,167.849,439.524z"/>
<path style="fill:#D15241;" d="M192.393,278.211c0,0,19.86,47.307-30.115,81.54c-4.669,3.199-10.245,3.422-15.101,0.726
	c-15.277-8.479-45.905-32.324-31.474-82.267H192.393z"/>
<path style="fill:#3A556A;" d="M325.733,155.249V0H279.25v155.249c-25.817,7.421-44.681,30.714-44.681,58.347v38.717v209.382
	h135.845V252.313v-38.717C370.415,185.963,351.552,162.668,325.733,155.249z"/>
<rect x="255.756" y="244.574" style="fill:#D15241;" width="92.965" height="188.816"/>
<g>
</g>
<g>
</g>
<g>
</g>
<g>
</g>
<g>
</g>
<g>
</g>
<g>
</g>
<g>
</g>
<g>
</g>
<g>
</g>
<g>
</g>
<g>
</g>
<g>
</g>
<g>
</g>
<g>
</g>
</svg>
