<?xml version="1.0" encoding="iso-8859-1"?>
<!-- Generator: Adobe Illustrator 19.0.0, SVG Export Plug-In . SVG Version: 6.00 Build 0)  -->
<svg version="1.1" id="Capa_1" xmlns="http://www.w3.org/2000/svg" xmlns:xlink="http://www.w3.org/1999/xlink" x="0px" y="0px"
	 viewBox="0 0 468.293 468.293" style="enable-background:new 0 0 468.293 468.293;" xml:space="preserve">
<rect x="228.527" y="76.806" style="fill:#64798A;" width="11.233" height="54.503"/>
<path style="fill:#3EA69B;" d="M307.511,131.308H160.782c-10.663,0-19.306,8.644-19.306,19.306v298.372
	c0,10.662,8.644,19.306,19.306,19.306h146.729c10.663,0,19.306-8.644,19.306-19.306V150.614
	C326.817,139.952,318.174,131.308,307.511,131.308z"/>
<g>
	<path style="fill:#FCD462;" d="M313.467,134.645l-171.991,42.998v39.315l185.342-42.825v-29.064
		C326.817,138.079,320.248,132.95,313.467,134.645z"/>
	<polygon style="fill:#FCD462;" points="326.817,202.917 141.475,249.252 141.475,288.567 326.817,245.742 	"/>
	<polygon style="fill:#FCD462;" points="326.817,274.526 141.475,320.862 141.475,360.177 326.817,317.351 	"/>
	<polygon style="fill:#FCD462;" points="326.817,346.136 141.475,392.471 141.475,431.786 326.817,388.961 	"/>
</g>
<path style="fill:#DC8744;" d="M247.582,0c0,0-67.121,21.526-50.135,76.731c3.668,11.922,21.085,32.605,55.332,22.622
	c11.301-3.294,26.596-17.731,24.762-40.047c-0.644-7.84-2.79-15.541-16.814-26.596c-4.035-3.181-10.394-8.254-10.394-17.731
	c0,0-7.948,9.171,0.917,25.679C251.25,40.658,232.908,30.265,247.582,0z"/>
<path style="fill:#F6C358;" d="M240.07,32.294c0,0-39.401,12.636-29.43,45.042c2.153,6.999,12.377,19.14,32.481,13.279
	c6.634-1.934,15.612-10.408,14.535-23.508c-0.378-4.602-1.638-9.123-9.87-15.612c-2.369-1.867-6.101-4.845-6.101-10.408
	c0,0-4.666,5.384,0.538,15.074C242.223,56.161,231.456,50.06,240.07,32.294z"/>
<g>
</g>
<g>
</g>
<g>
</g>
<g>
</g>
<g>
</g>
<g>
</g>
<g>
</g>
<g>
</g>
<g>
</g>
<g>
</g>
<g>
</g>
<g>
</g>
<g>
</g>
<g>
</g>
<g>
</g>
</svg>
