<?xml version="1.0" encoding="iso-8859-1"?>
<!-- Generator: Adobe Illustrator 19.0.0, SVG Export Plug-In . SVG Version: 6.00 Build 0)  -->
<svg version="1.1" id="Capa_1" xmlns="http://www.w3.org/2000/svg" xmlns:xlink="http://www.w3.org/1999/xlink" x="0px" y="0px"
	 viewBox="0 0 468.293 468.293" style="enable-background:new 0 0 468.293 468.293;" xml:space="preserve">
<path style="fill:#2F4859;" d="M120.418,304.762c-6.568,0-11.893-5.325-11.893-11.893V126.736c0-44.059,35.845-79.907,79.907-79.907
	h68.757c6.568,0,11.893,5.325,11.893,11.893s-5.325,11.893-11.893,11.893h-68.757c-30.947,0-56.121,25.174-56.121,56.121v166.132
	C132.311,299.437,126.986,304.762,120.418,304.762z"/>
<path style="fill:#3A556A;" d="M263.136,139.744H239.35V18.583c0-6.568,5.325-11.893,11.893-11.893h0
	c6.568,0,11.893,5.325,11.893,11.893V139.744z"/>
<path style="fill:#E56353;" d="M315.503,468.293h-128.52c-11.31,0-20.479-9.169-20.479-20.479V202.183
	c0-46.8,37.939-84.739,84.739-84.739h0c46.8,0,84.739,37.939,84.739,84.739v245.631
	C335.981,459.124,326.813,468.293,315.503,468.293z"/>
<rect x="193.261" y="214.078" style="fill:#D5D6DB;" width="115.956" height="222.995"/>
<polygon style="fill:#D15241;" points="359.768,117.445 263.136,81.483 263.136,35.962 359.768,0 "/>
<g>
</g>
<g>
</g>
<g>
</g>
<g>
</g>
<g>
</g>
<g>
</g>
<g>
</g>
<g>
</g>
<g>
</g>
<g>
</g>
<g>
</g>
<g>
</g>
<g>
</g>
<g>
</g>
<g>
</g>
</svg>
