<?xml version="1.0" encoding="iso-8859-1"?>
<!-- Generator: Adobe Illustrator 19.0.0, SVG Export Plug-In . SVG Version: 6.00 Build 0)  -->
<svg version="1.1" id="Capa_1" xmlns="http://www.w3.org/2000/svg" xmlns:xlink="http://www.w3.org/1999/xlink" x="0px" y="0px"
	 viewBox="0 0 468.293 468.293" style="enable-background:new 0 0 468.293 468.293;" xml:space="preserve">
<path style="fill:#3A556A;" d="M276.003,185.639l-8.804-30.341c-6.283-21.655-29.171-34.806-54.936-33.634L176.961,0l-43.349,12.579
	l35.301,121.663c-22.39,12.802-34.685,36.161-28.402,57.816l8.804,30.341l35.864,123.603l126.688-36.759L276.003,185.639z"/>
<rect x="179.6" y="181.512" transform="matrix(-0.9604 0.2787 -0.2787 -0.9604 508.759 417.065)" style="fill:#44C4A1;" width="90.274" height="126.358"/>
<polygon style="fill:#D15241;" points="322.844,468.293 140.18,468.293 99.783,229.425 363.241,229.425 "/>
<g>
	<path style="fill:#64798A;" d="M368.515,376.091c-2.292,0-4.564-0.993-6.128-2.907L249.1,234.421
		c-2.761-3.381-2.256-8.357,1.124-11.12c3.383-2.763,8.357-2.254,11.122,1.127l113.287,138.763c2.761,3.381,2.256,8.357-1.124,11.12
		C372.04,375.51,370.272,376.091,368.515,376.091z"/>
	<path style="fill:#64798A;" d="M99.778,376.091c-1.757,0-3.525-0.581-4.994-1.78c-3.381-2.763-3.885-7.739-1.124-11.12
		l113.287-138.763c2.761-3.381,7.731-3.89,11.122-1.127c3.381,2.763,3.885,7.739,1.124,11.12L105.906,373.184
		C104.342,375.098,102.07,376.091,99.778,376.091z"/>
</g>
<g>
</g>
<g>
</g>
<g>
</g>
<g>
</g>
<g>
</g>
<g>
</g>
<g>
</g>
<g>
</g>
<g>
</g>
<g>
</g>
<g>
</g>
<g>
</g>
<g>
</g>
<g>
</g>
<g>
</g>
</svg>
