<?xml version="1.0" encoding="iso-8859-1"?>
<!-- Generator: Adobe Illustrator 19.0.0, SVG Export Plug-In . SVG Version: 6.00 Build 0)  -->
<svg version="1.1" id="Capa_1" xmlns="http://www.w3.org/2000/svg" xmlns:xlink="http://www.w3.org/1999/xlink" x="0px" y="0px"
	 viewBox="0 0 468.293 468.293" style="enable-background:new 0 0 468.293 468.293;" xml:space="preserve">
<path style="fill:#D5D6DB;" d="M342.594,427.338h-13.297v-78.749c0.383-0.133,0.786-0.171,1.165-0.32
	c29.87-11.797,103.675-50.571,71.509-136.998H239.961c0,0-43.026,79.569,67.706,135.86c1.509,0.768,3.096,1.317,4.696,1.796v78.412
	h-13.298c-25.779,0-46.678,9.609-46.678,35.389h136.885C389.272,436.947,368.374,427.338,342.594,427.338z"/>
<path style="fill:#D15241;" d="M260.179,228.91c0,0-31.466,58.191,47.713,100.302c7.398,3.935,16.231,4.209,23.926,0.893
	c24.205-10.43,72.731-39.761,49.867-101.195H260.179z"/>
<path style="fill:#3A556A;" d="M160.324,180.296V34.395h-51.986v145.902c-28.874,6.974-49.971,28.866-49.971,54.835v36.386v196.775
	h151.928V271.517v-36.386C210.294,209.162,189.197,187.27,160.324,180.296z"/>
<rect x="96.905" y="34.404" style="fill:#E56353;" width="74.827" height="37.139"/>
<rect x="82.625" y="264.242" style="fill:#D15241;" width="103.973" height="177.445"/>
<rect x="114.513" style="fill:#DC8744;" width="41.466" height="34.398"/>
<g>
</g>
<g>
</g>
<g>
</g>
<g>
</g>
<g>
</g>
<g>
</g>
<g>
</g>
<g>
</g>
<g>
</g>
<g>
</g>
<g>
</g>
<g>
</g>
<g>
</g>
<g>
</g>
<g>
</g>
</svg>
