<?xml version="1.0" encoding="iso-8859-1"?>
<!-- Generator: Adobe Illustrator 19.0.0, SVG Export Plug-In . SVG Version: 6.00 Build 0)  -->
<svg version="1.1" id="Capa_1" xmlns="http://www.w3.org/2000/svg" xmlns:xlink="http://www.w3.org/1999/xlink" x="0px" y="0px"
	 viewBox="0 0 468.293 468.293" style="enable-background:new 0 0 468.293 468.293;" xml:space="preserve">
<path style="fill:#64798A;" d="M297.053,315.575h-36.646v-18.732h36.646c22.915,0,41.561-18.646,41.561-41.561
	s-18.646-41.561-41.561-41.561h-36.646V194.99h36.646c33.244,0,60.293,27.049,60.293,60.293S330.297,315.575,297.053,315.575z"/>
<polygon style="fill:#F6C358;" points="263.498,430.542 168.308,430.542 120.712,123.748 311.094,123.748 "/>
<g>
	<path style="fill:#64798A;" d="M300.861,468.293H130.945v0c0-20.849,16.901-37.751,37.751-37.751h94.414
		C283.959,430.542,300.861,447.444,300.861,468.293L300.861,468.293z"/>
	<polygon style="fill:#64798A;" points="120.712,123.748 311.094,123.748 304.189,168.255 127.617,168.255 	"/>
</g>
<path style="fill:#E1E6E9;" d="M121.128,123.748H309.46c0,0,26.111-66.773-44.404-72.793c-9.378-0.801-14.653,7.698-16.843,32.029
	c0,0-1.531-64.058-99.525-82.984c0,0,65.908,64.374,9.187,72.793C141.825,75.175,88.974,84.44,121.128,123.748z"/>
<path style="fill:#EBF0F3;" d="M148.56,123.748h131.833c0,0,28.421-39.062-20.94-43.276c-6.564-0.56-10.257,5.388-11.79,22.42
	c0,0,0.902-54.729-67.694-67.977c0,0,34.02,47.271-5.685,53.164C163.048,89.747,126.052,96.232,148.56,123.748z"/>
<g>
</g>
<g>
</g>
<g>
</g>
<g>
</g>
<g>
</g>
<g>
</g>
<g>
</g>
<g>
</g>
<g>
</g>
<g>
</g>
<g>
</g>
<g>
</g>
<g>
</g>
<g>
</g>
<g>
</g>
</svg>
