<?xml version="1.0" encoding="iso-8859-1"?>
<!-- Generator: Adobe Illustrator 19.0.0, SVG Export Plug-In . SVG Version: 6.00 Build 0)  -->
<svg version="1.1" id="Capa_1" xmlns="http://www.w3.org/2000/svg" xmlns:xlink="http://www.w3.org/1999/xlink" x="0px" y="0px"
	 viewBox="0 0 468.293 468.293" style="enable-background:new 0 0 468.293 468.293;" xml:space="preserve">
<path style="fill:#3A556A;" d="M51.962,269.699h158.302c0,0,0.312-78.444,0-105.475c-0.192-16.676-12.814-38.085-87.782-37.135
	c-24.159,0.306-65.454,8.419-70.52,41.3V269.699z"/>
<g>
	<path style="fill:#F6C358;" d="M191.034,192.442c0,0,13.546-4.097,10.201,13.742c-1.295,6.905-5.255,30.178-16.336,24.095"/>
	<path style="fill:#F6C358;" d="M68.418,192.343c0,0-13.879-3.138-8.906,14.41c1.925,6.793,8.011,29.714,18.497,22.877"/>
	<path style="fill:#F6C358;" d="M130.135,305.878L130.135,305.878c-14.33,0-25.946-11.616-25.946-25.946v-11.283h51.892v11.283
		C156.081,294.262,144.465,305.878,130.135,305.878z"/>
</g>
<path style="fill:#FCD462;" d="M66.454,187.862c0,0,13.334,94.378,64.3,92.689c30.886-1.024,57.499-33.411,63.063-92.689v-12.933
	H66.454V187.862z"/>
<path style="fill:#D5D6DB;" d="M156.359,291.695h-52.514c0,0-77.11,29.416-81.781,47.837v59.915h216.076v-59.915
	C233.469,321.11,156.359,291.695,156.359,291.695z"/>
<path style="fill:#E1E6E9;" d="M158.268,291.695l-29.133,9.007v28.358l-41.812,16.511v53.876h150.815v-59.915
	C238.139,339.532,236.895,323.649,158.268,291.695z"/>
<g>
	<ellipse style="fill:#64798A;" cx="104.086" cy="355.974" rx="6.781" ry="5.907"/>
	<ellipse style="fill:#64798A;" cx="104.086" cy="382.373" rx="6.781" ry="5.907"/>
	<ellipse style="fill:#64798A;" cx="140.987" cy="382.373" rx="6.781" ry="5.907"/>
	<ellipse style="fill:#64798A;" cx="140.987" cy="355.974" rx="6.781" ry="5.907"/>
	<ellipse style="fill:#64798A;" cx="140.987" cy="322.756" rx="6.781" ry="5.907"/>
</g>
<g>
	<polygon style="fill:#E1E6E9;" points="220.206,174.812 42.159,174.812 66.852,96.939 195.513,96.939 	"/>
	<path style="fill:#E1E6E9;" d="M202.164,64.747c-23.369-12.338-55.954-9.555-72.78,6.217l66.135,44.681
		C212.345,99.873,225.534,77.085,202.164,64.747z"/>
</g>
<polygon style="fill:#64798A;" points="54.505,135.876 208.486,135.876 213.335,146.582 51.286,146.582 "/>
<g>
	<path style="fill:#E1E6E9;" d="M62.523,64.747c-23.369,12.338-18.428,35.127-1.603,50.899l5.064-16.073l69.318-28.609
		C118.477,55.192,85.892,52.408,62.523,64.747z"/>
	<polygon style="fill:#E1E6E9;" points="195.52,103.507 135.302,70.964 56.551,103.128 	"/>
	<path style="fill:#E1E6E9;" d="M130.185,42.824c-19.345,0-35.028,12.734-35.028,28.442h70.055
		C165.212,55.558,149.53,42.824,130.185,42.824z"/>
</g>
<path style="fill:#EBF0F3;" d="M371.235,283.566h-8.085c0-5.758-4.685-10.443-10.443-10.443c-5.758,0-10.443,4.685-10.443,10.443
	h-8.085c0-10.216,8.311-18.528,18.528-18.528C362.924,265.038,371.235,273.349,371.235,283.566z"/>
<path style="fill:#E1E6E9;" d="M436.587,378.561H268.828V364.75c0-46.325,37.554-83.879,83.879-83.879h0
	c46.325,0,83.879,37.554,83.879,83.879V378.561z"/>
<polygon style="fill:#D5D6DB;" points="436.587,399.447 271.523,399.447 254.68,378.561 453.43,378.561 "/>
<g>
	<path style="fill:#FFFFFF;" d="M417.37,336.289c-0.718,0-1.413-0.384-1.779-1.061c-19.057-35.256-40.309-37.839-40.521-37.862
		c-1.111-0.114-1.917-1.108-1.803-2.219c0.116-1.111,1.107-1.913,2.219-1.803c0.954,0.099,23.6,2.845,43.661,39.962
		c0.532,0.982,0.166,2.208-0.817,2.738C418.024,336.211,417.695,336.289,417.37,336.289z"/>
	<circle style="fill:#FFFFFF;" cx="422.275" cy="341.176" r="3.035"/>
</g>
<rect y="399.431" style="fill:#DC8744;" width="468.293" height="26.037"/>
<g>
</g>
<g>
</g>
<g>
</g>
<g>
</g>
<g>
</g>
<g>
</g>
<g>
</g>
<g>
</g>
<g>
</g>
<g>
</g>
<g>
</g>
<g>
</g>
<g>
</g>
<g>
</g>
<g>
</g>
</svg>
