<?xml version="1.0" encoding="iso-8859-1"?>
<!-- Generator: Adobe Illustrator 19.0.0, SVG Export Plug-In . SVG Version: 6.00 Build 0)  -->
<svg version="1.1" id="Capa_1" xmlns="http://www.w3.org/2000/svg" xmlns:xlink="http://www.w3.org/1999/xlink" x="0px" y="0px"
	 viewBox="0 0 468.293 468.293" style="enable-background:new 0 0 468.293 468.293;" xml:space="preserve">
<path style="fill:#44C4A1;" d="M269.501,318.914H142.251c-50.073,0-90.665,42.824-90.665,95.65v29.646h308.58v-29.646
	C360.166,361.738,319.574,318.914,269.501,318.914z"/>
<polygon style="fill:#D5D6DB;" points="138.99,319.001 187.142,444.21 220.937,444.21 257.794,319.001 "/>
<path style="fill:#F6C358;" d="M178.903,287.802v19.836c0,10.32,9.95,18.686,22.225,18.686h2.735
	c12.274,0,22.225-8.366,22.225-18.686v-19.836H178.903z"/>
<path style="fill:#FAD362;" d="M229.252,68.758h-55.501c-28.215,0-51.088,22.873-51.088,51.088v98.392
	c0,43.542,35.297,78.839,78.839,78.839s78.839-35.297,78.839-78.839v-98.392C280.34,91.631,257.467,68.758,229.252,68.758z"/>
<g>
	<path style="fill:#F6C358;" d="M297.344,152.969c2.048-20.995-17.41-16.386-17.41-16.386v48.646
		C300.416,178.061,297.344,152.969,297.344,152.969z"/>
	<path style="fill:#F6C358;" d="M122.255,136.583c0,0-19.459-4.609-17.41,16.386c0,0-3.072,25.091,17.41,32.26V136.583z"/>
	<polygon style="fill:#F6C358;" points="108.686,161.931 110.734,161.931 110.734,147.081 118.671,147.081 118.671,145.032 
		108.686,145.032 	"/>
</g>
<path style="fill:#3A556A;" d="M102.319,105.998c4.43-5.375,8.586-11.031,12.44-16.931c-2.271,8.13-4.552,16.316-5.466,24.77
	s-0.389,17.283,2.769,25.037c1.002,2.46,2.254,4.782,3.504,7.097c4.665,8.643,9.329,17.286,13.994,25.929
	c-6.616-12.312-6.527-27.53-6.243-41.876c0.053-2.671,0.108-5.364,0.65-7.967c0.553-2.658,1.599-5.152,2.649-7.617
	c4.067-9.551,8.384-19.151,14.776-26.964c3.481-4.254,7.626-8.066,9.735-13.322c1.06-2.642,1.546-5.523,1.891-8.392
	c0.559-4.642,0.766-9.411-0.199-13.969s-3.218-8.919-6.745-11.465c-3.41-2.461-7.65-3.022-11.713-2.951
	c-3.548,0.062-7.355,0.687-9.945,3.39C124.415,40.768,99.559,54.239,102.319,105.998z"/>
<path style="fill:#64798A;" d="M273.416,177.306c3.889-8.242,4.784-17.829,4.756-27.141c-0.045-15.051-2.54-30.666-10.459-42.86
	s-22.211-20.061-35.239-16.084c-6.037,1.843-11.318,5.967-17.24,8.229c-7.224,2.76-50.292,5.225-70.194-21.283
	c-5.63-7.498-5.827-18.403-6.023-28.176c-0.136-6.781,0.166-13.751,2.564-19.985c2.603-6.768,7.494-12.152,12.856-16.456
	C163.821,6.017,175.003,1.293,186.511,0c1.018,4.412,0.13,9.32-2.342,12.949c10.79-4.87,21.721-9.782,33.257-11.531
	c11.536-1.748,23.931-0.022,33.448,7.449c-7.2-0.24-14.448,1.585-20.856,5.251c15.018-0.101,69.382,20.363,72.868,105.887
	c-2.779-5.573-5.558-11.147-8.337-16.72c1.416,7.905,2.839,15.92,2.367,23.964C295.791,146.368,284.35,162.519,273.416,177.306z"/>
<path style="fill:#E56353;" d="M156.567,300.553c0,0,90.482,54.289,91.434,51.432c0.952-2.857,0-51.432,0-51.432l-91.434,51.541
	V300.553z"/>
<g>
	<path style="fill:#2F4859;" d="M324.148,358.845c1.256-1.771,1.88-3.487,1.88-5.141c0-1.658-0.542-3.038-1.63-4.15
		c-1.088-1.112-2.484-1.669-4.185-1.669c-3.12,0-6.077,2.223-8.869,6.669l-8.865-5.25c2.317-3.592,4.86-6.315,7.625-8.159
		c2.765-1.845,6.291-2.765,10.57-2.765s8.039,1.361,11.28,4.08s4.86,6.42,4.86,11.1c0,2.555-0.651,5.004-1.95,7.344
		c-1.303,2.34-3.701,5.332-7.2,8.975l-8.939,9.294h19.579v9.93h-34.974v-8.23l14.544-14.899
		C320.802,362.995,322.896,360.62,324.148,358.845z"/>
	<path style="fill:#2F4859;" d="M364.622,367.679v-8.655h10.64v8.655h5.605v9.575h-5.605v11.849h-10.64v-11.849h-19.934v-8.44
		l17.664-29.299h12.06l-16.814,28.164H364.622z"/>
</g>
<g>
	<polygon style="fill:#E56353;" points="378.312,468.293 330.817,449.238 349.871,401.739 360.992,406.201 346.4,442.579 
		382.774,457.172 	"/>
	<path style="fill:#E56353;" d="M341.673,444.154c-3.097,0-5.61-2.513-5.61-5.61c0-3.097,2.513-5.61,5.61-5.61
		c35.187,0,63.814-28.627,63.814-63.814s-28.627-63.814-63.814-63.814s-63.814,28.627-63.814,63.814c0,3.097-2.513,5.61-5.61,5.61
		s-5.61-2.513-5.61-5.61c0-41.374,33.66-75.034,75.034-75.034c41.374,0,75.034,33.66,75.034,75.034S383.047,444.154,341.673,444.154
		z"/>
</g>
<g>
</g>
<g>
</g>
<g>
</g>
<g>
</g>
<g>
</g>
<g>
</g>
<g>
</g>
<g>
</g>
<g>
</g>
<g>
</g>
<g>
</g>
<g>
</g>
<g>
</g>
<g>
</g>
<g>
</g>
</svg>
