<?xml version="1.0" encoding="iso-8859-1"?>
<!-- Generator: Adobe Illustrator 19.0.0, SVG Export Plug-In . SVG Version: 6.00 Build 0)  -->
<svg version="1.1" id="Capa_1" xmlns="http://www.w3.org/2000/svg" xmlns:xlink="http://www.w3.org/1999/xlink" x="0px" y="0px"
	 viewBox="0 0 468.293 468.293" style="enable-background:new 0 0 468.293 468.293;" xml:space="preserve">
<rect x="163.996" y="116.574" style="fill:#D5D6DB;" width="142.373" height="327.992"/>
<g>
	<rect x="140.269" y="444.566" style="fill:#DC8744;" width="187.754" height="23.727"/>
	<rect x="187.723" y="79.56" style="fill:#DC8744;" width="94.914" height="36.989"/>
</g>
<path style="fill:#64798A;" d="M243.556,79.561h-16.75V8.375c0-4.625,3.75-8.375,8.375-8.375l0,0c4.625,0,8.375,3.75,8.375,8.375
	V79.561z"/>
<rect x="175.16" y="134.175" style="fill:#2D93BA;" width="120.039" height="20.236"/>
<polygon style="fill:#27A2DB;" points="295.2,134.173 175.161,134.173 175.161,154.412 "/>
<rect x="175.16" y="164.009" style="fill:#2D93BA;" width="120.039" height="20.236"/>
<polygon style="fill:#27A2DB;" points="295.2,164.008 175.161,164.008 175.161,184.247 "/>
<rect x="175.16" y="193.842" style="fill:#2D93BA;" width="120.039" height="20.236"/>
<polygon style="fill:#27A2DB;" points="295.2,193.843 175.161,193.843 175.161,214.082 "/>
<rect x="175.16" y="223.657" style="fill:#2D93BA;" width="120.039" height="20.236"/>
<polygon style="fill:#27A2DB;" points="295.2,223.679 175.161,223.679 175.161,243.918 "/>
<rect x="175.16" y="253.502" style="fill:#2D93BA;" width="120.039" height="20.236"/>
<polygon style="fill:#27A2DB;" points="295.2,253.514 175.161,253.514 175.161,273.753 "/>
<rect x="175.16" y="283.348" style="fill:#2D93BA;" width="120.039" height="20.236"/>
<polygon style="fill:#27A2DB;" points="295.2,283.349 175.161,283.349 175.161,303.588 "/>
<rect x="175.16" y="313.182" style="fill:#2D93BA;" width="120.039" height="20.236"/>
<g>
	<polygon style="fill:#27A2DB;" points="295.2,313.184 175.161,313.184 175.161,333.423 	"/>
	<rect x="199.586" y="374.072" style="fill:#27A2DB;" width="71.886" height="70.487"/>
</g>
<rect x="233.085" y="373.698" style="fill:#D5D6DB;" width="4.883" height="70.837"/>
<g>
	<path style="fill:#2F4859;" d="M202.284,88.835v7.421h8.573v-7.421h2.311v17.726h-2.311V98.25h-8.573v8.311h-2.287V88.835H202.284z
		"/>
	<path style="fill:#2F4859;" d="M232.26,97.512c0,6.104-3.707,9.335-8.232,9.335c-4.683,0-7.97-3.628-7.97-8.988
		c0-5.628,3.5-9.311,8.232-9.311C229.132,88.549,232.26,92.256,232.26,97.512z M218.504,97.805c0,3.787,2.055,7.177,5.652,7.177
		c3.634,0,5.683-3.335,5.683-7.36c0-3.524-1.841-7.207-5.652-7.207C220.4,90.415,218.504,93.915,218.504,97.805z"/>
	<path style="fill:#2F4859;" d="M237.906,90.78h-5.39v-1.945h13.122v1.945h-5.421v15.78h-2.311V90.78z"/>
	<path style="fill:#2F4859;" d="M256.766,98.25h-6.89v6.39h7.677v1.921h-9.963V88.835h9.567v1.921h-7.28v5.604h6.89V98.25z"/>
	<path style="fill:#2F4859;" d="M260.504,88.835h2.287v15.805h7.573v1.921h-9.86V88.835z"/>
</g>
<g>
</g>
<g>
</g>
<g>
</g>
<g>
</g>
<g>
</g>
<g>
</g>
<g>
</g>
<g>
</g>
<g>
</g>
<g>
</g>
<g>
</g>
<g>
</g>
<g>
</g>
<g>
</g>
<g>
</g>
</svg>
