<?xml version="1.0" encoding="iso-8859-1"?>
<!-- Generator: Adobe Illustrator 19.0.0, SVG Export Plug-In . SVG Version: 6.00 Build 0)  -->
<svg version="1.1" id="Capa_1" xmlns="http://www.w3.org/2000/svg" xmlns:xlink="http://www.w3.org/1999/xlink" x="0px" y="0px"
	 viewBox="0 0 468.293 468.293" style="enable-background:new 0 0 468.293 468.293;" xml:space="preserve">
<polygon style="fill:#3EA69B;" points="79.261,78.969 79.261,468.293 338.675,389.324 338.675,0 "/>
<rect x="79.26" y="78.985" style="fill:#44C4A1;" width="309.772" height="389.307"/>
<path style="fill:#EBF0F3;" d="M234.146,152.66c-66.701,0-120.97,54.269-120.97,120.97s54.269,120.97,120.97,120.97
	s120.97-54.269,120.97-120.97S300.847,152.66,234.146,152.66z M132.256,282.9h47.137c0.478,13.95,2.049,27.87,4.636,40.966h-38.966
	C138.092,311.554,133.592,297.687,132.256,282.9z M243.415,204.785v-29.224c5.955,5.243,11.996,15.216,16.862,29.224H243.415z
	 M265.431,223.396c2.584,11.89,4.335,25.595,4.852,40.893h-26.868v-40.893H265.431z M224.804,175.633v29.152h-16.789
	C212.861,190.834,218.873,180.893,224.804,175.633z M224.804,223.396v40.893h-26.795c0.518-15.298,2.269-29.003,4.852-40.893
	H224.804z M179.395,264.289H132.26c1.344-14.761,5.844-28.601,12.804-40.893h38.966
	C181.447,236.469,179.876,250.362,179.395,264.289z M198.008,282.9h26.796v40.966h-21.943
	C200.273,311.957,198.522,298.227,198.008,282.9z M224.804,342.476v29.152c-5.932-5.26-11.943-15.201-16.789-29.152H224.804z
	 M243.415,371.7v-29.224h16.862C255.411,356.484,249.37,366.457,243.415,371.7z M243.415,323.865V282.9h26.869
	c-0.514,15.327-2.265,29.057-4.853,40.966H243.415z M288.899,282.9h47.137c-1.336,14.788-5.836,28.654-12.807,40.966h-38.966
	C286.85,310.77,288.421,296.85,288.899,282.9z M288.898,264.289c-0.481-13.926-2.052-27.82-4.635-40.893h38.966
	c6.96,12.292,11.46,26.132,12.804,40.893H288.898z M309.67,204.785h-29.99c-3.097-10.343-6.93-19.717-11.508-27.576
	C284.224,182.894,298.414,192.449,309.67,204.785z M200.121,177.21c-4.578,7.859-8.411,17.232-11.508,27.576h-29.99
	C169.879,192.449,184.069,182.894,200.121,177.21z M158.623,342.476h29.99c3.097,10.343,6.93,19.716,11.508,27.575
	C184.069,364.367,169.879,354.812,158.623,342.476z M268.172,370.051c4.578-7.859,8.411-17.232,11.508-27.575h29.99
	C298.414,354.812,284.224,364.367,268.172,370.051z"/>
<g>
</g>
<g>
</g>
<g>
</g>
<g>
</g>
<g>
</g>
<g>
</g>
<g>
</g>
<g>
</g>
<g>
</g>
<g>
</g>
<g>
</g>
<g>
</g>
<g>
</g>
<g>
</g>
<g>
</g>
</svg>
