<?xml version="1.0" encoding="iso-8859-1"?>
<!-- Generator: Adobe Illustrator 19.0.0, SVG Export Plug-In . SVG Version: 6.00 Build 0)  -->
<svg version="1.1" id="Capa_1" xmlns="http://www.w3.org/2000/svg" xmlns:xlink="http://www.w3.org/1999/xlink" x="0px" y="0px"
	 viewBox="0 0 468.293 468.293" style="enable-background:new 0 0 468.293 468.293;" xml:space="preserve">
<path style="fill:#3A556A;" d="M276.452,190.107H191.84c-33.295,0-60.286,28.475-60.286,63.601v19.713h205.184v-19.713
	C336.738,218.582,309.748,190.107,276.452,190.107z"/>
<polygon style="fill:#D5D6DB;" points="189.672,190.164 221.69,273.42 244.161,273.42 268.668,190.164 "/>
<path style="fill:#F6C358;" d="M216.211,169.42v13.189c0,6.862,6.616,12.425,14.778,12.425h1.819
	c8.162,0,14.778-5.563,14.778-12.425V169.42H216.211z"/>
<path style="fill:#FAD362;" d="M249.69,45.719h-36.904c-18.761,0-33.97,15.209-33.97,33.97v43.475
	c0,28.952,23.47,52.422,52.422,52.422s52.422-23.47,52.422-52.422V79.689C283.66,60.928,268.451,45.719,249.69,45.719z"/>
<g>
	<path style="fill:#F6C358;" d="M294.966,101.714c1.362-13.96-11.577-10.895-11.577-10.895v32.346
		C297.009,118.398,294.966,101.714,294.966,101.714z"/>
	<path style="fill:#F6C358;" d="M178.545,90.818c0,0-12.939-3.064-11.577,10.896c0,0-2.043,16.684,11.577,21.451V90.818z"/>
	<polygon style="fill:#F6C358;" points="169.522,107.672 170.884,107.672 170.884,97.798 176.161,97.798 176.161,96.436 
		169.522,96.436 	"/>
</g>
<g>
	<path style="fill:#3A556A;" d="M165.288,70.481c2.946-3.574,5.709-7.335,8.272-11.258c-1.51,5.406-3.027,10.849-3.634,16.47
		c-0.607,5.621-0.258,11.492,1.841,16.648c0.666,1.636,1.499,3.18,2.33,4.719c3.102,5.747,6.203,11.494,9.305,17.241
		c-4.399-8.187-4.34-18.305-4.151-27.845c0.035-1.776,0.072-3.567,0.432-5.297c0.368-1.767,1.063-3.425,1.761-5.064
		c2.704-6.351,5.575-12.734,9.825-17.929c2.314-2.829,5.071-5.363,6.473-8.858c0.705-1.757,1.028-3.673,1.257-5.58
		c0.371-3.086,0.509-6.257-0.133-9.288c-0.642-3.031-2.139-5.93-4.485-7.623c-2.267-1.637-5.087-2.01-7.788-1.962
		c-2.359,0.041-4.89,0.457-6.612,2.254C179.98,27.108,163.453,36.065,165.288,70.481z"/>
	<path style="fill:#3A556A;" d="M279.055,117.896c2.586-5.48,3.181-11.855,3.163-18.047c-0.03-10.008-1.689-20.391-6.954-28.499
		c-5.266-8.108-14.769-13.339-23.431-10.695c-4.014,1.226-7.526,3.967-11.463,5.472c-4.804,1.835-33.44,3.474-46.674-14.152
		c-3.743-4.986-3.874-12.236-4.005-18.735c-0.091-4.509,0.11-9.143,1.705-13.288c1.731-4.5,4.983-8.08,8.548-10.942
		c6.24-5.009,13.675-8.15,21.327-9.01c0.677,2.934,0.086,6.197-1.557,8.61c7.175-3.238,14.443-6.504,22.113-7.667
		c7.671-1.163,15.912-0.015,22.241,4.953c-4.788-0.159-9.607,1.054-13.868,3.492c9.986-0.067,46.134,13.54,48.452,70.407
		c-1.848-3.706-3.696-7.412-5.543-11.118c0.942,5.256,1.888,10.586,1.574,15.934C293.933,97.324,286.326,108.064,279.055,117.896z"
		/>
</g>
<path style="fill:#E56353;" d="M201.359,177.898c0,0,60.164,36.098,60.797,34.198c0.633-1.9,0-34.198,0-34.198l-60.797,34.271
	V177.898z"/>
<path style="fill:#3A556A;" d="M182.229,58.948c0,0,46.571,49.953,86.043,5.089l-5.834-22.548l-46.227-10.379L182.229,58.948z"/>
<rect x="56.763" y="273.42" style="fill:#64798A;" width="354.766" height="28.791"/>
<rect x="93.815" y="302.211" style="fill:#E56353;" width="280.663" height="166.082"/>
<rect x="93.815" y="452.608" style="fill:#D15241;" width="280.663" height="15.685"/>
<g>
</g>
<g>
</g>
<g>
</g>
<g>
</g>
<g>
</g>
<g>
</g>
<g>
</g>
<g>
</g>
<g>
</g>
<g>
</g>
<g>
</g>
<g>
</g>
<g>
</g>
<g>
</g>
<g>
</g>
</svg>
