<?xml version="1.0" encoding="iso-8859-1"?>
<!-- Generator: Adobe Illustrator 19.0.0, SVG Export Plug-In . SVG Version: 6.00 Build 0)  -->
<svg version="1.1" id="Capa_1" xmlns="http://www.w3.org/2000/svg" xmlns:xlink="http://www.w3.org/1999/xlink" x="0px" y="0px"
	 viewBox="0 0 468.293 468.293" style="enable-background:new 0 0 468.293 468.293;" xml:space="preserve">
<polygon style="fill:#D5D6DB;" points="387.195,393.001 74.11,393.001 42.162,353.386 419.142,353.386 "/>
<path style="fill:#EBF0F3;" d="M215.421,99.361l-14.553,4.833c-3.442-10.365-14.675-15.998-25.04-12.556
	c-10.365,3.442-15.998,14.675-12.556,25.04l-14.553,4.833c-6.107-18.391,3.885-38.319,22.276-44.427
	C189.385,70.978,209.314,80.971,215.421,99.361z"/>
<path style="fill:#E1E6E9;" d="M389.846,231.297L87.865,331.579l-8.256-24.862c-27.692-83.39,17.46-173.439,100.849-201.131l0,0
	c83.39-27.692,173.439,17.46,201.131,100.849L389.846,231.297z"/>
<g>
	<path style="fill:#FFFFFF;" d="M329.984,166.69c-1.293,0.429-2.774,0.153-3.836-0.846c-55.379-52.073-95.18-44.018-95.575-43.932
		c-2.068,0.458-4.113-0.848-4.571-2.916c-0.455-2.068,0.848-4.106,2.916-4.571c1.776-0.393,44.183-8.987,102.482,45.836
		c1.544,1.449,1.618,3.876,0.166,5.418C331.115,166.159,330.569,166.496,329.984,166.69z"/>
	<circle style="fill:#FFFFFF;" cx="340.917" cy="174.161" r="5.751"/>
</g>
<rect y="336.609" style="fill:#E1E6E9;" width="468.293" height="16.759"/>
<path style="fill:#44C4A1;" d="M371.616,265.787c0,0-74.558-6.702-72.883,59.479C298.733,325.266,369.94,340.345,371.616,265.787z"
	/>
<g>
	<path style="fill:#31978C;" d="M310.149,318.915c-0.722,0-1.433-0.309-1.934-0.908c-0.884-1.065-0.741-2.651,0.329-3.539
		l45.449-37.786c1.06-0.874,2.646-0.736,3.539,0.329c0.884,1.065,0.741,2.651-0.329,3.539l-45.449,37.786
		C311.288,318.724,310.719,318.915,310.149,318.915z"/>
	<path style="fill:#31978C;" d="M359.157,295.516h-22.305v-20.268c0-1.389,1.124-2.513,2.513-2.513c1.389,0,2.513,1.124,2.513,2.513
		v15.241h17.278c1.389,0,2.513,1.124,2.513,2.513C361.67,294.392,360.546,295.516,359.157,295.516z"/>
	<path style="fill:#31978C;" d="M345.054,307.449H322.75v-20.268c0-1.389,1.124-2.513,2.513-2.513s2.513,1.124,2.513,2.513v15.241
		h17.278c1.389,0,2.513,1.124,2.513,2.513C347.568,306.325,346.443,307.449,345.054,307.449z"/>
</g>
<path style="fill:#3EA69B;" d="M244.014,279.694c0,0,57.027-5.126,55.746,45.493C299.76,325.188,245.296,336.721,244.014,279.694z"
	/>
<g>
	<path style="fill:#31978C;" d="M291.03,320.923c-0.569,0-1.139-0.191-1.605-0.579l-34.768-28.902
		c-1.07-0.888-1.212-2.474-0.329-3.539c0.898-1.07,2.484-1.208,3.539-0.329l34.768,28.902c1.07,0.888,1.212,2.474,0.329,3.539
		C292.464,320.614,291.752,320.923,291.03,320.923z"/>
	<path style="fill:#31978C;" d="M274.41,306.811h-17.651c-1.389,0-2.513-1.124-2.513-2.513s1.124-2.513,2.513-2.513h12.625V290.72
		c0-1.389,1.124-2.513,2.513-2.513s2.513,1.124,2.513,2.513V306.811z"/>
</g>
<path style="fill:#DC8744;" d="M162.955,314.011h231.421c12.253,0,22.186,9.933,22.186,22.186v0H140.769v0
	C140.769,323.944,150.702,314.011,162.955,314.011z"/>
<g>
</g>
<g>
</g>
<g>
</g>
<g>
</g>
<g>
</g>
<g>
</g>
<g>
</g>
<g>
</g>
<g>
</g>
<g>
</g>
<g>
</g>
<g>
</g>
<g>
</g>
<g>
</g>
<g>
</g>
</svg>
