<?xml version="1.0" encoding="iso-8859-1"?>
<!-- Generator: Adobe Illustrator 19.0.0, SVG Export Plug-In . SVG Version: 6.00 Build 0)  -->
<svg version="1.1" id="Capa_1" xmlns="http://www.w3.org/2000/svg" xmlns:xlink="http://www.w3.org/1999/xlink" x="0px" y="0px"
	 viewBox="0 0 468.293 468.293" style="enable-background:new 0 0 468.293 468.293;" xml:space="preserve">
<path style="fill:#64798A;" d="M91.438,254.151H328.02c0,0,0.466-139.768,0-187.931c-0.287-29.712-19.15-67.858-131.19-66.165
	C160.723,0.6,99.008,15.056,91.438,73.641V254.151z"/>
<path style="fill:#D5D6DB;" d="M229.294,263.683l14.362,6.634l91.96,41.348c18.134,8.154,30.911,25.63,33.716,46.118l14.234,103.958
	H25.136l12.086-109.289c1.89-17.09,12.406-31.788,27.519-38.464l98.862-43.671l10.872-3.791"/>
<path style="fill:#F6C358;" d="M218.136,310.625h-27.529c-14.548,0-26.341-11.793-26.341-26.341v-60.568h80.212v60.568
	C244.477,298.831,232.684,310.625,218.136,310.625z"/>
<path style="fill:#FCD462;" d="M304.85,92.989c-8.781,104.241-50.78,161.194-99.523,162.995
	c-80.431,2.971-101.474-162.995-101.474-162.995l77.441-57.99h53.816L304.85,92.989z"/>
<path style="fill:#64798A;" d="M303.305,105.194c-9.036-36.872-55.944-64.033-99.412-64.033c-50.237,0-94.498,36.947-94.498,82.361
	H91.438c0-56.848,50.446-103.095,112.456-103.095c55.076,0,101.03,36.483,110.618,84.473"/>
<g>
	<polygon style="fill:#E56353;" points="164.265,268.939 205.984,310.625 134.121,351.178 134.121,283.341 	"/>
	<polygon style="fill:#E56353;" points="244.477,268.939 204.554,310.625 273.462,351.178 273.462,283.341 	"/>
</g>
<path style="fill:#FCD462;" d="M284.192,113.293c0,0-9.627-36.082-12.652-46.166c0,0-21.291,37.435-9.133,43.675L284.192,113.293z"
	/>
<path style="fill:#64798A;" d="M113.823,81.605c0,0,120.053,78.65,205.476,31.689l-45.838-83.131l-93.271-7.421L113.823,81.605z"/>
<polygon style="fill:#E56353;" points="108.315,294.74 108.315,375.355 298.853,375.355 298.853,295.134 314.511,302.175 
	314.511,461.741 91.438,461.741 91.438,300.676 "/>
<circle style="fill:#64798A;" cx="370.677" cy="395.813" r="72.479"/>
<g>
	<path style="fill:#EBF0F3;" d="M370.679,451.468c-5.101,0-9.235-4.136-9.235-9.235v-66.292c0-5.098,4.133-9.235,9.235-9.235
		s9.235,4.136,9.235,9.235v66.292C379.914,447.332,375.781,451.468,370.679,451.468z"/>
	<circle style="fill:#EBF0F3;" cx="370.677" cy="344.651" r="11.801"/>
</g>
<g>
</g>
<g>
</g>
<g>
</g>
<g>
</g>
<g>
</g>
<g>
</g>
<g>
</g>
<g>
</g>
<g>
</g>
<g>
</g>
<g>
</g>
<g>
</g>
<g>
</g>
<g>
</g>
<g>
</g>
</svg>
