<?xml version="1.0" encoding="iso-8859-1"?>
<!-- Generator: Adobe Illustrator 19.0.0, SVG Export Plug-In . SVG Version: 6.00 Build 0)  -->
<svg version="1.1" id="Capa_1" xmlns="http://www.w3.org/2000/svg" xmlns:xlink="http://www.w3.org/1999/xlink" x="0px" y="0px"
	 viewBox="0 0 468.293 468.293" style="enable-background:new 0 0 468.293 468.293;" xml:space="preserve">
<g>
	<path style="fill:#3A556A;" d="M283.515,160.762H183.003v-20.97c0-11.762,9.57-21.329,21.332-21.329h57.848
		c11.762,0,21.332,9.567,21.332,21.329V160.762z M195.491,148.274h75.537v-8.482c0-4.878-3.966-8.841-8.845-8.841h-57.848
		c-4.878,0-8.845,3.963-8.845,8.841V148.274z"/>
	<path style="fill:#3A556A;" d="M311.912,155.085h-156.36V66.61c0-32.994,26.845-59.841,59.838-59.841h36.683
		c32.994,0,59.838,26.848,59.838,59.841V155.085z M168.04,142.597h131.384V66.61c0-26.11-21.241-47.354-47.351-47.354H215.39
		c-26.11,0-47.351,21.244-47.351,47.354V142.597z"/>
	<path style="fill:#3A556A;" d="M292.18,468.293L292.18,468.293c-10.586,0-19.167-8.581-19.167-19.167v-18.457
		c0-10.586,8.581-19.167,19.167-19.167h0c10.586,0,19.167,8.581,19.167,19.167v18.457
		C311.347,459.711,302.766,468.293,292.18,468.293z"/>
	<path style="fill:#3A556A;" d="M174.338,468.293L174.338,468.293c-10.586,0-19.167-8.581-19.167-19.167v-18.457
		c0-10.586,8.581-19.167,19.167-19.167h0c10.586,0,19.167,8.581,19.167,19.167v18.457
		C193.505,459.711,184.924,468.293,174.338,468.293z"/>
</g>
<path style="fill:#64798A;" d="M312.057,143.162H155.881c-19.211,0-34.785,15.574-34.785,34.785v227.166
	c0,19.211,15.574,34.785,34.785,34.785h156.176c19.211,0,34.785-15.574,34.785-34.785V177.946
	C346.842,158.735,331.268,143.162,312.057,143.162z"/>
<rect x="190.193" y="143.16" style="fill:#D5D6DB;" width="87.077" height="18.457"/>
<g>
	<path style="fill:#E56353;" d="M256.395,24.136h-44.851c-5.388,0-9.756-4.368-9.756-9.756V9.756c0-5.388,4.368-9.756,9.756-9.756
		h44.851c5.388,0,9.756,4.368,9.756,9.756v4.624C266.151,19.768,261.783,24.136,256.395,24.136z"/>
	<path style="fill:#E56353;" d="M266.979,157.448L266.979,157.448c-1.47,0-2.662-1.192-2.662-2.662v-4.792
		c0-1.47,1.192-2.662,2.662-2.662l0,0c1.47,0,2.662,1.192,2.662,2.662v4.792C269.641,156.256,268.449,157.448,266.979,157.448z"/>
	<path style="fill:#E56353;" d="M258.815,157.448L258.815,157.448c-1.47,0-2.662-1.192-2.662-2.662v-4.792
		c0-1.47,1.192-2.662,2.662-2.662l0,0c1.47,0,2.662,1.192,2.662,2.662v4.792C261.477,156.256,260.285,157.448,258.815,157.448z"/>
	<path style="fill:#E56353;" d="M250.651,157.448L250.651,157.448c-1.47,0-2.662-1.192-2.662-2.662v-4.792
		c0-1.47,1.192-2.662,2.662-2.662l0,0c1.47,0,2.662,1.192,2.662,2.662v4.792C253.313,156.256,252.122,157.448,250.651,157.448z"/>
	<path style="fill:#E56353;" d="M242.488,157.448L242.488,157.448c-1.47,0-2.662-1.192-2.662-2.662v-4.792
		c0-1.47,1.192-2.662,2.662-2.662l0,0c1.47,0,2.662,1.192,2.662,2.662v4.792C245.15,156.256,243.958,157.448,242.488,157.448z"/>
	<path style="fill:#E56353;" d="M234.324,157.448L234.324,157.448c-1.47,0-2.662-1.192-2.662-2.662v-4.792
		c0-1.47,1.192-2.662,2.662-2.662h0c1.47,0,2.662,1.192,2.662,2.662v4.792C236.986,156.256,235.794,157.448,234.324,157.448z"/>
	<path style="fill:#E56353;" d="M226.16,157.448L226.16,157.448c-1.47,0-2.662-1.192-2.662-2.662v-4.792
		c0-1.47,1.192-2.662,2.662-2.662l0,0c1.47,0,2.662,1.192,2.662,2.662v4.792C228.822,156.256,227.63,157.448,226.16,157.448z"/>
</g>
<rect x="193.502" y="147.793" style="fill:#3A556A;" width="26.087" height="9.141"/>
<g>
	<path style="fill:#2F4859;" d="M155.526,143.162c-19.015,0-34.43,15.415-34.43,34.43v19.522h32.063
		c15.748,0,28.514-12.766,28.514-28.514v-25.438H155.526z"/>
	<path style="fill:#2F4859;" d="M318.328,143.162h-32.064v19.522c0,19.015,15.415,34.43,34.43,34.43h26.148v-25.438
		C346.842,155.928,334.076,143.162,318.328,143.162z"/>
	<path style="fill:#2F4859;" d="M153.514,385.945h-32.063v19.522c0,19.015,15.415,34.43,34.43,34.43h26.148v-25.438
		C182.028,398.711,169.262,385.945,153.514,385.945z"/>
	<path style="fill:#2F4859;" d="M321.049,385.945c-19.015,0-34.43,15.414-34.43,34.43v19.522h32.064
		c15.748,0,28.514-12.766,28.514-28.514v-25.438H321.049z"/>
</g>
<rect x="121.098" y="226.928" style="fill:#3A556A;" width="225.717" height="11.358"/>
<g>
</g>
<g>
</g>
<g>
</g>
<g>
</g>
<g>
</g>
<g>
</g>
<g>
</g>
<g>
</g>
<g>
</g>
<g>
</g>
<g>
</g>
<g>
</g>
<g>
</g>
<g>
</g>
<g>
</g>
</svg>
