<?xml version="1.0" encoding="iso-8859-1"?>
<!-- Generator: Adobe Illustrator 19.0.0, SVG Export Plug-In . SVG Version: 6.00 Build 0)  -->
<svg version="1.1" id="Capa_1" xmlns="http://www.w3.org/2000/svg" xmlns:xlink="http://www.w3.org/1999/xlink" x="0px" y="0px"
	 viewBox="0 0 468.293 468.293" style="enable-background:new 0 0 468.293 468.293;" xml:space="preserve">
<path style="fill:#3A556A;" d="M158.827,171.977V21.86h-53.488v150.117c-29.709,7.175-51.415,29.699-51.415,56.418v37.438v202.46
	h156.316v-202.46v-37.438C210.241,201.675,188.535,179.151,158.827,171.977z"/>
<rect x="93.588" style="fill:#DC8744;" width="76.987" height="74.346"/>
<rect x="78.908" y="238.835" style="fill:#44C4A1;" width="106.958" height="170.864"/>
<path style="fill:#E1E6E9;" d="M362.924,171.977V21.86h-53.488v150.117c-29.708,7.175-51.414,29.699-51.414,56.418v37.438v202.46
	h156.316v-202.46v-37.438C414.339,201.675,392.633,179.151,362.924,171.977z"/>
<rect x="258.021" y="264.592" style="fill:#D15241;" width="156.285" height="122.961"/>
<rect x="297.695" style="fill:#DC8744;" width="76.987" height="74.346"/>
<rect x="53.926" y="452.589" style="fill:#2F4859;" width="156.347" height="15.703"/>
<rect x="258.021" y="452.589" style="fill:#D5D6DB;" width="156.347" height="15.703"/>
<g>
</g>
<g>
</g>
<g>
</g>
<g>
</g>
<g>
</g>
<g>
</g>
<g>
</g>
<g>
</g>
<g>
</g>
<g>
</g>
<g>
</g>
<g>
</g>
<g>
</g>
<g>
</g>
<g>
</g>
</svg>
