<?xml version="1.0" encoding="iso-8859-1"?>
<!-- Generator: Adobe Illustrator 19.0.0, SVG Export Plug-In . SVG Version: 6.00 Build 0)  -->
<svg version="1.1" id="Capa_1" xmlns="http://www.w3.org/2000/svg" xmlns:xlink="http://www.w3.org/1999/xlink" x="0px" y="0px"
	 viewBox="0 0 468.293 468.293" style="enable-background:new 0 0 468.293 468.293;" xml:space="preserve">
<path style="fill:#D5D6DB;" d="M393.34,0H178.06c-15.205,0-27.531,12.326-27.531,27.53v295.777c0,15.204,12.326,27.53,27.531,27.53
	H393.34c15.204,0,27.53-12.326,27.53-27.53V27.53C420.87,12.326,408.544,0,393.34,0z"/>
<g>
	<polygon style="fill:#D15241;" points="369.939,47.976 383.201,26.112 397.18,47.976 383.559,70.199 	"/>
	<polygon style="fill:#D15241;" points="369.939,305.192 383.201,283.328 397.18,305.192 383.559,327.414 	"/>
</g>
<path style="fill:#E1E6E9;" d="M311.858,68.545H91.016c-24.076,0-43.594,19.518-43.594,43.594v312.559
	c0,24.076,19.518,43.594,43.594,43.594h220.842c24.076,0,43.593-19.518,43.593-43.594V112.139
	C355.452,88.063,335.934,68.545,311.858,68.545z"/>
<polygon style="fill:#64798A;" points="128.879,267.464 199.528,150.989 273.996,267.464 201.438,385.849 "/>
<g>
	<polygon style="fill:#E56353;" points="297.421,123.21 312.531,98.298 328.459,123.21 312.94,148.531 	"/>
	<polygon style="fill:#E56353;" points="75.833,123.21 90.943,98.298 106.871,123.21 91.352,148.531 	"/>
	<polygon style="fill:#E56353;" points="297.421,416.284 312.531,391.372 328.459,416.284 312.94,441.605 	"/>
	<polygon style="fill:#E56353;" points="75.833,416.284 90.943,391.372 106.871,416.284 91.352,441.605 	"/>
</g>
<polygon style="fill:#DC8744;" points="153.995,267.795 200.189,191.638 248.88,267.795 201.438,345.2 "/>
<g>
</g>
<g>
</g>
<g>
</g>
<g>
</g>
<g>
</g>
<g>
</g>
<g>
</g>
<g>
</g>
<g>
</g>
<g>
</g>
<g>
</g>
<g>
</g>
<g>
</g>
<g>
</g>
<g>
</g>
</svg>
