<?xml version="1.0" encoding="iso-8859-1"?>
<!-- Generator: Adobe Illustrator 19.0.0, SVG Export Plug-In . SVG Version: 6.00 Build 0)  -->
<svg version="1.1" id="Capa_1" xmlns="http://www.w3.org/2000/svg" xmlns:xlink="http://www.w3.org/1999/xlink" x="0px" y="0px"
	 viewBox="0 0 468.311 468.311" style="enable-background:new 0 0 468.311 468.311;" xml:space="preserve">
<path style="fill:#EBF0F3;" d="M255.048,140.5h-7.198c0-5.127-4.171-9.297-9.297-9.297c-5.127,0-9.297,4.171-9.297,9.297h-7.198
	c0-9.096,7.399-16.495,16.495-16.495C247.649,124.005,255.048,131.404,255.048,140.5z"/>
<path style="fill:#E1E6E9;" d="M313.231,225.075H163.875v-12.296c0-41.244,33.435-74.678,74.678-74.678h0
	c41.244,0,74.678,33.435,74.678,74.678V225.075z"/>
<polygon style="fill:#D5D6DB;" points="313.231,243.67 166.274,243.67 151.278,225.075 328.227,225.075 "/>
<g>
	<path style="fill:#FFFFFF;" d="M296.122,187.44c-0.64,0-1.258-0.342-1.584-0.944c-16.966-31.389-35.888-33.689-36.076-33.709
		c-0.989-0.102-1.707-0.986-1.605-1.975c0.103-0.989,0.985-1.703,1.975-1.605c0.849,0.088,21.011,2.533,38.871,35.578
		c0.473,0.874,0.148,1.966-0.728,2.438C296.704,187.371,296.412,187.44,296.122,187.44z"/>
	<circle style="fill:#FFFFFF;" cx="300.485" cy="191.813" r="2.697"/>
</g>
<g>
	<path style="fill:#DC8744;" d="M390.589,271.748H77.722c-7.753,0-14.039-6.285-14.039-14.039v0c0-7.753,6.285-14.039,14.039-14.039
		h312.867c7.753,0,14.039,6.285,14.039,14.039v0C404.628,265.462,398.343,271.748,390.589,271.748z"/>
	<rect x="107.823" y="266.409" style="fill:#DC8744;" width="28.079" height="168.467"/>
	<rect x="335.12" y="266.39" style="fill:#DC8744;" width="28.079" height="168.467"/>
</g>
<circle style="fill:#3A556A;" cx="122.327" cy="434.888" r="33.424"/>
<circle style="fill:#E1E6E9;" cx="122.327" cy="434.888" r="19.525"/>
<circle style="fill:#3A556A;" cx="349.168" cy="434.888" r="33.424"/>
<circle style="fill:#E1E6E9;" cx="349.168" cy="434.888" r="19.525"/>
<rect x="130.363" y="362.021" style="fill:#DC8744;" width="218.786" height="22.284"/>
<g>
	<path style="fill:#64798A;" d="M189.697,120.418l-7.946-5.676l10.125-14.175c2.618-3.672,3.415-8.265,2.184-12.601
		c-1.235-4.34-4.326-7.831-8.49-9.577l-9.234-3.863c-6.172-2.585-9.868-8.566-9.424-15.238s4.898-12.11,11.351-13.855l12.477-3.372
		c1.126-0.305,1.364-1.188,1.407-1.688c0.043-0.501-0.048-1.407-1.106-1.893l-14.957-6.877c-6.105-2.8-9.606-8.933-8.919-15.62
		c0.687-6.691,5.366-11.986,11.919-13.493L189.936,0l2.184,9.52l-10.85,2.49c-3.687,0.849-4.292,4.016-4.388,4.97
		c-0.1,0.949-0.148,4.173,3.281,5.747l14.957,6.877c4.521,2.07,7.178,6.62,6.763,11.58c-0.41,4.96-3.787,9.009-8.594,10.307
		l-12.477,3.377c-3.606,0.973-4.092,4.126-4.154,5.07c-0.062,0.944,0,4.135,3.453,5.575l9.234,3.868
		c6.92,2.9,12.062,8.699,14.113,15.916c2.046,7.211,0.725,14.847-3.634,20.947L189.697,120.418z"/>
	<path style="fill:#64798A;" d="M229.775,120.418l-7.946-5.676l10.121-14.175c2.623-3.672,3.42-8.261,2.189-12.601
		c-1.235-4.34-4.331-7.831-8.494-9.577l-9.234-3.863c-6.172-2.585-9.868-8.566-9.424-15.238s4.903-12.11,11.356-13.855l12.472-3.372
		c1.13-0.305,1.369-1.188,1.412-1.688c0.038-0.501-0.048-1.407-1.106-1.893l-14.957-6.877c-6.105-2.8-9.606-8.933-8.924-15.625
		c0.687-6.687,5.366-11.981,11.919-13.488L230.013,0l2.184,9.52l-10.855,2.49c-3.682,0.849-4.288,4.016-4.383,4.97
		c-0.1,0.949-0.153,4.173,3.281,5.747l14.957,6.877c4.521,2.075,7.173,6.62,6.763,11.58c-0.415,4.965-3.792,9.009-8.599,10.311
		l-12.472,3.372c-3.606,0.973-4.092,4.126-4.154,5.07c-0.067,0.94,0,4.135,3.448,5.58l9.234,3.863
		c6.92,2.9,12.067,8.704,14.117,15.916c2.046,7.216,0.72,14.847-3.639,20.947L229.775,120.418z"/>
	<path style="fill:#64798A;" d="M271.197,120.418l-7.955-5.676l10.121-14.175c2.623-3.668,3.415-8.265,2.184-12.601
		c-1.23-4.34-4.331-7.831-8.49-9.577l-9.234-3.868c-6.167-2.58-9.868-8.561-9.424-15.234c0.444-6.672,4.903-12.11,11.351-13.855
		l12.477-3.372c1.126-0.3,1.364-1.188,1.412-1.688c0.038-0.496-0.048-1.407-1.107-1.893l-14.957-6.877
		c-6.105-2.8-9.606-8.933-8.919-15.62c0.687-6.691,5.361-11.986,11.914-13.493L271.416,0l2.194,9.52l-10.846,2.49
		c-3.692,0.849-4.292,4.016-4.397,4.97c-0.095,0.949-0.143,4.173,3.291,5.747l14.947,6.877c4.521,2.07,7.173,6.62,6.763,11.58
		s-3.787,9.009-8.585,10.307l-12.477,3.377c-3.615,0.973-4.102,4.126-4.159,5.065c-0.067,0.944,0,4.135,3.453,5.58l9.234,3.873
		c6.916,2.895,12.057,8.695,14.108,15.911c2.051,7.211,0.725,14.847-3.625,20.947L271.197,120.418z"/>
</g>
<g>
</g>
<g>
</g>
<g>
</g>
<g>
</g>
<g>
</g>
<g>
</g>
<g>
</g>
<g>
</g>
<g>
</g>
<g>
</g>
<g>
</g>
<g>
</g>
<g>
</g>
<g>
</g>
<g>
</g>
</svg>
