<?xml version="1.0" encoding="iso-8859-1"?>
<!-- Generator: Adobe Illustrator 19.0.0, SVG Export Plug-In . SVG Version: 6.00 Build 0)  -->
<svg version="1.1" id="Capa_1" xmlns="http://www.w3.org/2000/svg" xmlns:xlink="http://www.w3.org/1999/xlink" x="0px" y="0px"
	 viewBox="0 0 468.293 468.293" style="enable-background:new 0 0 468.293 468.293;" xml:space="preserve">
<circle style="fill:#F6C358;" cx="234.146" cy="234.146" r="234.146"/>
<g>
	<path style="fill:#DC8744;" d="M367.561,175.284c-18.378,0-33.327-14.949-33.327-33.327s14.949-33.327,33.327-33.327
		c18.378,0,33.327,14.949,33.327,33.327S385.939,175.284,367.561,175.284z M367.561,121.635c-11.205,0-20.322,9.116-20.322,20.322
		c0,11.205,9.116,20.321,20.322,20.321c11.205,0,20.321-9.116,20.321-20.321C387.882,130.751,378.766,121.635,367.561,121.635z"/>
	<path style="fill:#DC8744;" d="M371.6,251.761c-18.378,0-33.327-14.949-33.327-33.327s14.949-33.327,33.327-33.327
		c18.378,0,33.327,14.949,33.327,33.327S389.979,251.761,371.6,251.761z M371.6,198.112c-11.205,0-20.322,9.116-20.322,20.322
		c0,11.205,9.116,20.322,20.322,20.322c11.205,0,20.322-9.116,20.322-20.322C391.922,207.228,382.806,198.112,371.6,198.112z"/>
	<path style="fill:#DC8744;" d="M300.906,215.449c-18.378,0-33.327-14.949-33.327-33.327c0-18.378,14.949-33.327,33.327-33.327
		c18.378,0,33.327,14.949,33.327,33.327C334.233,200.5,319.284,215.449,300.906,215.449z M300.906,161.801
		c-11.205,0-20.322,9.116-20.322,20.322c0,11.205,9.116,20.321,20.322,20.321c11.205,0,20.322-9.116,20.322-20.321
		C321.228,170.917,312.112,161.801,300.906,161.801z"/>
	<path style="fill:#DC8744;" d="M107.707,340.64L107.707,340.64c-5.151,0-9.366-4.215-9.366-9.366v0
		c0-5.151,4.215-9.366,9.366-9.366h0c5.151,0,9.366,4.215,9.366,9.366v0C117.073,336.425,112.859,340.64,107.707,340.64z"/>
	<path style="fill:#DC8744;" d="M61.397,331.274L61.397,331.274c-5.151,0-9.366-4.215-9.366-9.366l0,0
		c0-5.151,4.215-9.366,9.366-9.366h0c5.151,0,9.366,4.215,9.366,9.366l0,0C70.763,327.059,66.548,331.274,61.397,331.274z"/>
	<path style="fill:#DC8744;" d="M80.128,271.12L80.128,271.12c-5.151,0-9.366-4.215-9.366-9.366v0c0-5.151,4.215-9.366,9.366-9.366
		h0c5.151,0,9.366,4.215,9.366,9.366v0C89.494,266.905,85.28,271.12,80.128,271.12z"/>
	<path style="fill:#DC8744;" d="M206.465,215.082L206.465,215.082c-5.151,0-9.366-4.215-9.366-9.366v0
		c0-5.151,4.215-9.366,9.366-9.366l0,0c5.151,0,9.366,4.215,9.366,9.366v0C215.83,210.867,211.616,215.082,206.465,215.082z"/>
	<path style="fill:#DC8744;" d="M276.945,280.435L276.945,280.435c-5.151,0-9.366-4.215-9.366-9.366v0
		c0-5.151,4.215-9.366,9.366-9.366l0,0c5.151,0,9.366,4.215,9.366,9.366v0C286.311,276.22,282.096,280.435,276.945,280.435z"/>
	<path style="fill:#DC8744;" d="M347.639,322.278L347.639,322.278c-5.151,0-9.366-4.215-9.366-9.366v0
		c0-5.151,4.215-9.366,9.366-9.366l0,0c5.151,0,9.366,4.215,9.366,9.366v0C357.005,318.063,352.79,322.278,347.639,322.278z"/>
	<path style="fill:#DC8744;" d="M432.909,224.379L432.909,224.379c-5.151,0-9.366-4.215-9.366-9.366v0
		c0-5.151,4.215-9.366,9.366-9.366l0,0c5.151,0,9.366,4.215,9.366,9.366v0C442.275,220.164,438.06,224.379,432.909,224.379z"/>
	<path style="fill:#DC8744;" d="M286.311,59.581L286.311,59.581c-5.151,0-9.366-4.215-9.366-9.366v0
		c0-5.151,4.215-9.366,9.366-9.366h0c5.151,0,9.366,4.215,9.366,9.366v0C295.677,55.367,291.462,59.581,286.311,59.581z"/>
	<path style="fill:#DC8744;" d="M380.966,93.324L380.966,93.324c-5.151,0-9.366-4.215-9.366-9.366v0
		c0-5.151,4.215-9.366,9.366-9.366l0,0c5.151,0,9.366,4.215,9.366,9.366v0C390.332,89.11,386.117,93.324,380.966,93.324z"/>
	<path style="fill:#DC8744;" d="M371.6,383.654L371.6,383.654c-5.151,0-9.366-4.215-9.366-9.366v0c0-5.151,4.215-9.366,9.366-9.366
		h0c5.151,0,9.366,4.215,9.366,9.366v0C380.966,379.44,376.752,383.654,371.6,383.654z"/>
	<path style="fill:#DC8744;" d="M423.543,312.912L423.543,312.912c-5.151,0-9.366-4.215-9.366-9.366l0,0
		c0-5.151,4.215-9.366,9.366-9.366h0c5.151,0,9.366,4.215,9.366,9.366l0,0C432.909,308.698,428.694,312.912,423.543,312.912z"/>
	<path style="fill:#DC8744;" d="M206.465,280.486L206.465,280.486c-5.151,0-9.366-4.215-9.366-9.366v0
		c0-5.151,4.215-9.366,9.366-9.366h0c5.151,0,9.366,4.215,9.366,9.366v0C215.83,276.271,211.616,280.486,206.465,280.486z"/>
	<path style="fill:#DC8744;" d="M215.83,374.288L215.83,374.288c-5.151,0-9.366-4.215-9.366-9.366l0,0
		c0-5.151,4.215-9.366,9.366-9.366h0c5.151,0,9.366,4.215,9.366,9.366l0,0C225.196,370.074,220.982,374.288,215.83,374.288z"/>
	<path style="fill:#DC8744;" d="M234.146,424.873L234.146,424.873c-5.151,0-9.366-4.215-9.366-9.366l0,0
		c0-5.151,4.215-9.366,9.366-9.366l0,0c5.151,0,9.366,4.215,9.366,9.366l0,0C243.512,420.659,239.298,424.873,234.146,424.873z"/>
	<path style="fill:#DC8744;" d="M286.311,424.873L286.311,424.873c-5.151,0-9.366-4.215-9.366-9.366l0,0
		c0-5.151,4.215-9.366,9.366-9.366h0c5.151,0,9.366,4.215,9.366,9.366l0,0C295.677,420.658,291.462,424.873,286.311,424.873z"/>
	<path style="fill:#DC8744;" d="M147.045,415.507L147.045,415.507c-5.151,0-9.366-4.215-9.366-9.366l0,0
		c0-5.151,4.215-9.366,9.366-9.366h0c5.151,0,9.366,4.215,9.366,9.366l0,0C156.41,411.293,152.196,415.507,147.045,415.507z"/>
	<path style="fill:#DC8744;" d="M89.494,194.472L89.494,194.472c-5.151,0-9.366-4.215-9.366-9.366v0
		c0-5.151,4.215-9.366,9.366-9.366h0c5.151,0,9.366,4.215,9.366,9.366v0C98.86,190.257,94.645,194.472,89.494,194.472z"/>
	<path style="fill:#DC8744;" d="M234.146,93.324L234.146,93.324c-5.151,0-9.366-4.215-9.366-9.366v0
		c0-5.151,4.215-9.366,9.366-9.366l0,0c5.151,0,9.366,4.215,9.366,9.366v0C243.512,89.11,239.298,93.324,234.146,93.324z"/>
	<path style="fill:#DC8744;" d="M206.465,151.322L206.465,151.322c-5.151,0-9.366-4.215-9.366-9.366v0
		c0-5.151,4.215-9.366,9.366-9.366h0c5.151,0,9.366,4.215,9.366,9.366v0C215.83,147.108,211.616,151.322,206.465,151.322z"/>
	<path style="fill:#DC8744;" d="M156.41,50.216L156.41,50.216c-5.151,0-9.366-4.215-9.366-9.366v0c0-5.151,4.215-9.366,9.366-9.366
		h0c5.151,0,9.366,4.215,9.366,9.366v0C165.776,46.001,161.562,50.216,156.41,50.216z"/>
	<path style="fill:#DC8744;" d="M156.41,110.425L156.41,110.425c-5.151,0-9.366-4.215-9.366-9.366v0
		c0-5.151,4.215-9.366,9.366-9.366h0c5.151,0,9.366,4.215,9.366,9.366v0C165.776,106.21,161.562,110.425,156.41,110.425z"/>
	<path style="fill:#DC8744;" d="M89.494,110.425L89.494,110.425c-5.151,0-9.366-4.215-9.366-9.366v0
		c0-5.151,4.215-9.366,9.366-9.366h0c5.151,0,9.366,4.215,9.366,9.366v0C98.86,106.21,94.645,110.425,89.494,110.425z"/>
	<path style="fill:#DC8744;" d="M34.86,215.082L34.86,215.082c-5.151,0-9.366-4.215-9.366-9.366v0c0-5.151,4.215-9.366,9.366-9.366
		h0c5.151,0,9.366,4.215,9.366,9.366v0C44.226,210.867,40.011,215.082,34.86,215.082z"/>
	<path style="fill:#DC8744;" d="M34.86,289.8L34.86,289.8c-5.151,0-9.366-4.215-9.366-9.366l0,0c0-5.151,4.215-9.366,9.366-9.366h0
		c5.151,0,9.366,4.215,9.366,9.366l0,0C44.226,285.586,40.011,289.8,34.86,289.8z"/>
</g>
<g>
</g>
<g>
</g>
<g>
</g>
<g>
</g>
<g>
</g>
<g>
</g>
<g>
</g>
<g>
</g>
<g>
</g>
<g>
</g>
<g>
</g>
<g>
</g>
<g>
</g>
<g>
</g>
<g>
</g>
</svg>
