<?xml version="1.0" encoding="iso-8859-1"?>
<!-- Generator: Adobe Illustrator 19.0.0, SVG Export Plug-In . SVG Version: 6.00 Build 0)  -->
<svg version="1.1" id="Capa_1" xmlns="http://www.w3.org/2000/svg" xmlns:xlink="http://www.w3.org/1999/xlink" x="0px" y="0px"
	 viewBox="0 0 468.293 468.293" style="enable-background:new 0 0 468.293 468.293;" xml:space="preserve">
<path style="fill:#E56353;" d="M452.136,0.532H16.157C7.233,0.532,0,7.766,0,16.689v104.858c0,8.923,7.233,16.157,16.157,16.157
	h435.979c8.923,0,16.157-7.234,16.157-16.157V16.689C468.293,7.766,461.059,0.532,452.136,0.532z"/>
<rect x="39.374" y="49.281" style="fill:#D15241;" width="389.557" height="39.68"/>
<rect x="48.303" y="69.118" style="fill:#D5D6DB;" width="371.699" height="398.642"/>
<path style="fill:#3EA69B;" d="M379.372,69.118v328.304c-13.829,4.903-24.81,15.884-29.713,29.713H118.638
	c-4.903-13.829-15.884-24.81-29.713-29.713V69.118H72.676v341.768c17.949,0,32.498,14.549,32.498,32.498h257.95
	c0-17.948,14.549-32.498,32.498-32.498V69.118H379.372z"/>
<path style="fill:#44C4A1;" d="M130.56,69.118c-0.593,3.158-1.006,6.355-1.006,9.627c0,40.463,46.827,73.264,104.593,73.264
	c57.763,0,104.592-32.801,104.592-73.264c0-3.272-0.413-6.469-1.006-9.627H130.56z"/>
<path style="fill:#3EA69B;" d="M286.757,69.118h-16.88c0.224,1.051,0.571,1.967,0.691,3.132h-27.835
	c0.341-1.134,0.69-2.13,1.039-3.132H224.59c-0.236,0.911-0.507,1.715-0.73,2.667v0.466h-29.076c0.153-1.064,0.425-2.09,0.645-3.132
	h-17.058c-0.131,1.048-0.369,2.074-0.446,3.132h-7.884v9.893h7.734c0.516,10.006,3.606,18.125,9.277,24.368
	c5.677,6.243,12.97,9.352,21.888,9.352s15.646-2.706,20.182-8.118c4.538-5.412,8.201-13.946,10.983-25.601h30.006
	c-1.448,9.188-5.929,18.099-13.455,26.759l13.455,11.291c9.793-11.228,15.412-23.915,16.854-38.049h11.29V72.25H287.12
	C287.067,71.152,286.867,70.171,286.757,69.118z M215.276,93.899c-2.007,2.064-4.739,3.096-8.194,3.096
	c-3.455,0-6.343-1.309-8.66-3.939c-2.322-2.631-3.687-6.268-4.103-10.913h26.758C219.222,87.92,217.289,91.848,215.276,93.899z"/>
<g>
</g>
<g>
</g>
<g>
</g>
<g>
</g>
<g>
</g>
<g>
</g>
<g>
</g>
<g>
</g>
<g>
</g>
<g>
</g>
<g>
</g>
<g>
</g>
<g>
</g>
<g>
</g>
<g>
</g>
</svg>
