<?xml version="1.0" encoding="iso-8859-1"?>
<!-- Generator: Adobe Illustrator 19.0.0, SVG Export Plug-In . SVG Version: 6.00 Build 0)  -->
<svg version="1.1" id="Capa_1" xmlns="http://www.w3.org/2000/svg" xmlns:xlink="http://www.w3.org/1999/xlink" x="0px" y="0px"
	 viewBox="0 0 460.488 460.488" style="enable-background:new 0 0 460.488 460.488;" xml:space="preserve">
<path style="fill:#EBF0F3;" d="M270.049,117.463h-18.732c0-13.341-10.854-24.195-24.195-24.195s-24.195,10.854-24.195,24.195
	h-18.732c0-23.671,19.256-42.927,42.927-42.927S270.049,93.793,270.049,117.463z"/>
<path style="fill:#E1E6E9;" d="M421.463,337.561H32.78v-32c0-107.332,87.01-194.341,194.341-194.341h0
	c107.332,0,194.341,87.01,194.341,194.341V337.561z"/>
<polygon style="fill:#D5D6DB;" points="421.463,385.951 39.024,385.951 0,337.561 460.488,337.561 "/>
<g>
	<path style="fill:#FFFFFF;" d="M376.939,239.619c-1.665,0-3.274-0.89-4.122-2.457c-44.152-81.686-93.393-87.671-93.884-87.723
		c-2.573-0.265-4.442-2.567-4.177-5.14c0.268-2.573,2.564-4.433,5.14-4.177c2.21,0.229,54.68,6.591,101.159,92.588
		c1.232,2.274,0.384,5.116-1.893,6.345C378.454,239.439,377.692,239.619,376.939,239.619z"/>
	<circle style="fill:#FFFFFF;" cx="388.277" cy="250.911" r="7.024"/>
</g>
<g>
</g>
<g>
</g>
<g>
</g>
<g>
</g>
<g>
</g>
<g>
</g>
<g>
</g>
<g>
</g>
<g>
</g>
<g>
</g>
<g>
</g>
<g>
</g>
<g>
</g>
<g>
</g>
<g>
</g>
</svg>
