<?xml version="1.0" encoding="iso-8859-1"?>
<!-- Generator: Adobe Illustrator 19.0.0, SVG Export Plug-In . SVG Version: 6.00 Build 0)  -->
<svg version="1.1" id="Capa_1" xmlns="http://www.w3.org/2000/svg" xmlns:xlink="http://www.w3.org/1999/xlink" x="0px" y="0px"
	 viewBox="0 0 468.293 468.293" style="enable-background:new 0 0 468.293 468.293;" xml:space="preserve">
<path style="fill:#D5D6DB;" d="M420.942,455.994H283.5c-15.209,0-27.538-12.329-27.538-27.538V122.982h192.518v305.474
	C448.479,443.665,436.15,455.994,420.942,455.994z"/>
<rect x="276.149" y="227.628" style="fill:#D15241;" width="152.139" height="193.442"/>
<polygon style="fill:#DC8744;" points="361.904,227.596 342.537,227.596 342.537,82.836 458.216,12.299 468.293,28.836 
	361.904,93.715 "/>
<path style="fill:#FCD462;" d="M191.522,177.516h-28.619c-79.027,0-143.091,64.064-143.091,143.092h314.801
	C334.614,241.58,270.55,177.516,191.522,177.516z"/>
<g>
	<path style="fill:#DC8744;" d="M334.063,320.607H19.262c-8.207,0-14.859,6.653-14.859,14.859c0,8.207,6.653,14.859,14.859,14.859
		h314.801c8.207,0,14.859-6.653,14.859-14.859C348.923,327.26,342.27,320.607,334.063,320.607z"/>
	<path style="fill:#DC8744;" d="M329.661,368.597H14.859C6.653,368.597,0,375.25,0,383.457c0,8.207,6.653,14.86,14.859,14.86
		h314.801c8.207,0,14.859-6.653,14.859-14.86C344.52,375.25,337.867,368.597,329.661,368.597z"/>
</g>
<rect x="27.517" y="350.345" style="fill:#F6C358;" width="299.389" height="18.27"/>
<g>
	<path style="fill:#44C4A1;" d="M170.567,369.151c15.666,16.785,42.126,17.241,58.361,1.006l19.831-19.83h-95.761L170.567,369.151z"
		/>
	<path style="fill:#44C4A1;" d="M248.759,350.326l3.176,5.103c14.005,22.508,45.479,25.763,63.794,6.597l11.18-11.7H248.759z"/>
	<path style="fill:#44C4A1;" d="M78.682,379.652c16.712,11.57,39.406,8.991,53.095-6.034l21.221-23.291H36.323L78.682,379.652z"/>
</g>
<path style="fill:#F6C358;" d="M27.518,398.316c0,31.854,25.823,57.678,57.678,57.678h184.036c31.855,0,57.678-25.823,57.678-57.678
	H27.518z"/>
<g>
	<path style="fill:#3EA69B;" d="M170.567,417.141c15.666,16.785,42.126,17.241,58.361,1.006l19.831-19.83h-95.761L170.567,417.141z"
		/>
	<path style="fill:#3EA69B;" d="M248.759,398.316l3.176,5.104c14.005,22.509,45.479,25.763,63.794,6.597l11.18-11.7H248.759z"/>
	<path style="fill:#3EA69B;" d="M78.682,427.641c16.712,11.57,39.406,8.99,53.095-6.034l21.221-23.291H36.323L78.682,427.641z"/>
</g>
<g>
	<path style="fill:#F6C358;" d="M193.362,236.214L193.362,236.214l22.734-12.536c2.328-0.91,4.953,0.239,5.863,2.566l0,0
		c0.91,2.328-0.239,4.953-2.566,5.863L193.362,236.214z"/>
	<path style="fill:#F6C358;" d="M157.805,249.062L157.805,249.062l22.734-12.536c2.328-0.91,4.953,0.239,5.863,2.566l0,0
		c0.91,2.328-0.239,4.953-2.566,5.863L157.805,249.062z"/>
	<path style="fill:#F6C358;" d="M195.628,255.486L195.628,255.486l22.734-12.536c2.328-0.91,4.953,0.239,5.863,2.566v0
		c0.91,2.328-0.239,4.953-2.566,5.863L195.628,255.486z"/>
	<path style="fill:#F6C358;" d="M148.304,274.198L148.304,274.198l22.734-12.536c2.328-0.91,4.953,0.239,5.863,2.566l0,0
		c0.91,2.328-0.239,4.953-2.566,5.863L148.304,274.198z"/>
	<path style="fill:#F6C358;" d="M191.056,277.731L191.056,277.731l22.734-12.536c2.328-0.91,4.953,0.239,5.863,2.566v0
		c0.91,2.328-0.239,4.953-2.566,5.863L191.056,277.731z"/>
	<path style="fill:#F6C358;" d="M231.596,259.019L231.596,259.019l22.734-12.536c2.328-0.91,4.953,0.239,5.863,2.566l0,0
		c0.91,2.328-0.239,4.953-2.566,5.863L231.596,259.019z"/>
	<path style="fill:#F6C358;" d="M236.306,277.731L236.306,277.731l22.734-12.536c2.328-0.91,4.953,0.239,5.863,2.566l0,0
		c0.91,2.328-0.239,4.953-2.566,5.863L236.306,277.731z"/>
	<path style="fill:#F6C358;" d="M250.761,301.396L250.761,301.396l22.734-12.536c2.328-0.91,4.953,0.239,5.863,2.566l0,0
		c0.91,2.328-0.239,4.953-2.566,5.863L250.761,301.396z"/>
	<path style="fill:#F6C358;" d="M205.511,215.914L205.511,215.914l22.734-12.536c2.328-0.91,4.953,0.239,5.863,2.566l0,0
		c0.91,2.328-0.239,4.953-2.566,5.863L205.511,215.914z"/>
	<path style="fill:#F6C358;" d="M172.26,196.102L172.26,196.102l22.734-12.536c2.328-0.91,4.953,0.239,5.863,2.566v0
		c0.91,2.328-0.239,4.953-2.566,5.863L172.26,196.102z"/>
	<path style="fill:#F6C358;" d="M231.596,225.236L231.596,225.236l22.734-12.536c2.328-0.91,4.953,0.239,5.863,2.566l0,0
		c0.91,2.328-0.239,4.953-2.566,5.863L231.596,225.236z"/>
	<path style="fill:#F6C358;" d="M236.306,242.638L236.306,242.638l22.734-12.536c2.328-0.91,4.953,0.239,5.863,2.566v0
		c0.91,2.328-0.239,4.953-2.566,5.863L236.306,242.638z"/>
	<path style="fill:#F6C358;" d="M268.899,261.91L268.899,261.91l22.734-12.536c2.328-0.91,4.953,0.239,5.863,2.566l0,0
		c0.91,2.328-0.239,4.953-2.566,5.863L268.899,261.91z"/>
	<path style="fill:#F6C358;" d="M265.216,236.214L265.216,236.214l22.734-12.536c2.328-0.91,4.953,0.239,5.863,2.566l0,0
		c0.91,2.328-0.239,4.953-2.566,5.863L265.216,236.214z"/>
	<path style="fill:#F6C358;" d="M275.455,287.046L275.455,287.046l22.734-12.536c2.328-0.91,4.953,0.239,5.863,2.566l0,0
		c0.91,2.328-0.239,4.953-2.566,5.863L275.455,287.046z"/>
	<path style="fill:#F6C358;" d="M172.26,222.338L172.26,222.338l22.734-12.536c2.328-0.91,4.953,0.239,5.863,2.566v0
		c0.91,2.328-0.239,4.953-2.566,5.863L172.26,222.338z"/>
	<path style="fill:#F6C358;" d="M143.351,225.236L143.351,225.236l22.734-12.536c2.328-0.91,4.953,0.239,5.863,2.566h0
		c0.91,2.328-0.239,4.953-2.566,5.863L143.351,225.236z"/>
</g>
<g>
</g>
<g>
</g>
<g>
</g>
<g>
</g>
<g>
</g>
<g>
</g>
<g>
</g>
<g>
</g>
<g>
</g>
<g>
</g>
<g>
</g>
<g>
</g>
<g>
</g>
<g>
</g>
<g>
</g>
</svg>
