<?xml version="1.0" encoding="iso-8859-1"?>
<!-- Generator: Adobe Illustrator 19.0.0, SVG Export Plug-In . SVG Version: 6.00 Build 0)  -->
<svg version="1.1" id="Capa_1" xmlns="http://www.w3.org/2000/svg" xmlns:xlink="http://www.w3.org/1999/xlink" x="0px" y="0px"
	 viewBox="0 0 468.299 468.299" style="enable-background:new 0 0 468.299 468.299;" xml:space="preserve">
<rect x="24.395" y="418.407" transform="matrix(-0.734 -0.6792 0.6792 -0.734 -236.1914 791.9655)" style="fill:#64798A;" width="25.225" height="47.666"/>
<path style="fill:#E56353;" d="M386.944,91.301l-31.956-29.056c-26.59-24.177-75.037-8.946-105.332,30.293L24.208,383.456
	c-10.257,13.298-6.839,33.846,7.13,46.547l16.788,15.265c13.969,12.701,34.713,14.123,46.933,2.61l271.717-248.846
	C402.965,165.152,413.533,115.479,386.944,91.301z"/>
<ellipse style="fill:#64798A;" cx="345.567" cy="111.168" rx="111.166" ry="111.166"/>
<path style="fill:#E1E6E9;" d="M277.439,23.459c-4.424,3.443-8.649,7.234-12.613,11.43
	c44.838,63.236,96.872,116.442,155.336,158.686c2.643-2.398,5.209-4.919,7.66-7.613c1.404-1.543,2.625-3.183,3.925-4.781
	C373.576,139.462,321.903,86.527,277.439,23.459z"/>
<rect x="173.522" y="218.915" transform="matrix(-0.7261 -0.6876 0.6876 -0.7261 144.5198 596.6456)" style="fill:#3A556A;" width="35.153" height="101.245"/>
<g>
</g>
<g>
</g>
<g>
</g>
<g>
</g>
<g>
</g>
<g>
</g>
<g>
</g>
<g>
</g>
<g>
</g>
<g>
</g>
<g>
</g>
<g>
</g>
<g>
</g>
<g>
</g>
<g>
</g>
</svg>
