<?xml version="1.0" encoding="iso-8859-1"?>
<!-- Generator: Adobe Illustrator 19.0.0, SVG Export Plug-In . SVG Version: 6.00 Build 0)  -->
<svg version="1.1" id="Capa_1" xmlns="http://www.w3.org/2000/svg" xmlns:xlink="http://www.w3.org/1999/xlink" x="0px" y="0px"
	 viewBox="0 0 468.293 468.293" style="enable-background:new 0 0 468.293 468.293;" xml:space="preserve">
<path style="fill:#D5D6DB;" d="M98.455,208.812c0-55.33,44.854-100.184,100.184-100.184h0c55.33,0,100.184,44.854,100.184,100.184"
	/>
<path style="fill:#64798A;" d="M369.838,468.293h-13.819V89.051c0-41.483-33.75-75.233-75.237-75.233
	c-41.483,0-75.233,33.75-75.233,75.233v19.576H191.73V89.051C191.73,39.949,231.679,0,280.782,0
	c49.107,0,89.056,39.949,89.056,89.051V468.293z"/>
<rect x="335.298" y="374.821" style="fill:#3A556A;" width="20.73" height="17.445"/>
<path style="fill:#64798A;" d="M323.007,423.971L323.007,423.971c-6.784,0-12.283-5.499-12.283-12.283v-56.236
	c0-6.784,5.499-12.283,12.283-12.283h0c6.784,0,12.283,5.499,12.283,12.283v56.236C335.29,418.472,329.79,423.971,323.007,423.971z"
	/>
<g>
	<path style="fill:#27A2DB;" d="M119.759,247.389c-2.546,0-4.606-2.06-4.606-4.606v-26.486c0-2.546,2.06-4.606,4.606-4.606
		c2.546,0,4.606,2.06,4.606,4.606v26.486C124.365,245.329,122.305,247.389,119.759,247.389z"/>
	<path style="fill:#27A2DB;" d="M151.966,247.389c-2.546,0-4.606-2.06-4.606-4.606v-26.486c0-2.546,2.06-4.606,4.606-4.606
		c2.546,0,4.606,2.06,4.606,4.606v26.486C156.572,245.329,154.512,247.389,151.966,247.389z"/>
	<path style="fill:#27A2DB;" d="M184.169,247.389c-2.546,0-4.606-2.06-4.606-4.606v-26.486c0-2.546,2.06-4.606,4.606-4.606
		c2.546,0,4.606,2.06,4.606,4.606v26.486C188.775,245.329,186.715,247.389,184.169,247.389z"/>
	<path style="fill:#27A2DB;" d="M216.376,247.389c-2.546,0-4.606-2.06-4.606-4.606v-26.486c0-2.546,2.06-4.606,4.606-4.606
		c2.546,0,4.606,2.06,4.606,4.606v26.486C220.982,245.329,218.922,247.389,216.376,247.389z"/>
	<path style="fill:#27A2DB;" d="M248.579,247.389c-2.546,0-4.606-2.06-4.606-4.606v-26.486c0-2.546,2.06-4.606,4.606-4.606
		c2.546,0,4.606,2.06,4.606,4.606v26.486C253.185,245.329,251.125,247.389,248.579,247.389z"/>
	<path style="fill:#27A2DB;" d="M280.786,247.389c-2.546,0-4.606-2.06-4.606-4.606v-26.486c0-2.546,2.06-4.606,4.606-4.606
		s4.606,2.06,4.606,4.606v26.486C285.392,245.329,283.332,247.389,280.786,247.389z"/>
	<path style="fill:#27A2DB;" d="M135.862,284.239c-2.546,0-4.606-2.06-4.606-4.606v-26.486c0-2.546,2.06-4.606,4.606-4.606
		s4.606,2.06,4.606,4.606v26.486C140.468,282.178,138.408,284.239,135.862,284.239z"/>
	<path style="fill:#27A2DB;" d="M168.065,284.239c-2.546,0-4.606-2.06-4.606-4.606v-26.486c0-2.546,2.06-4.606,4.606-4.606
		c2.546,0,4.606,2.06,4.606,4.606v26.486C172.671,282.178,170.611,284.239,168.065,284.239z"/>
	<path style="fill:#27A2DB;" d="M200.272,284.239c-2.546,0-4.606-2.06-4.606-4.606v-26.486c0-2.546,2.06-4.606,4.606-4.606
		c2.546,0,4.606,2.06,4.606,4.606v26.486C204.879,282.178,202.818,284.239,200.272,284.239z"/>
	<path style="fill:#27A2DB;" d="M232.475,284.239c-2.546,0-4.606-2.06-4.606-4.606v-26.486c0-2.546,2.06-4.606,4.606-4.606
		s4.606,2.06,4.606,4.606v26.486C237.081,282.178,235.021,284.239,232.475,284.239z"/>
	<path style="fill:#27A2DB;" d="M263.126,284.239c-2.546,0-4.606-2.06-4.606-4.606v-26.486c0-2.546,2.06-4.606,4.606-4.606
		s4.606,2.06,4.606,4.606v26.486C267.732,282.178,265.672,284.239,263.126,284.239z"/>
	<path style="fill:#27A2DB;" d="M151.966,320.512c-2.546,0-4.606-2.06-4.606-4.606v-26.486c0-2.546,2.06-4.606,4.606-4.606
		c2.546,0,4.606,2.06,4.606,4.606v26.486C156.572,318.452,154.512,320.512,151.966,320.512z"/>
	<path style="fill:#27A2DB;" d="M184.169,320.512c-2.546,0-4.606-2.06-4.606-4.606v-26.486c0-2.546,2.06-4.606,4.606-4.606
		c2.546,0,4.606,2.06,4.606,4.606v26.486C188.775,318.452,186.715,320.512,184.169,320.512z"/>
	<path style="fill:#27A2DB;" d="M216.376,320.512c-2.546,0-4.606-2.06-4.606-4.606v-26.486c0-2.546,2.06-4.606,4.606-4.606
		c2.546,0,4.606,2.06,4.606,4.606v26.486C220.982,318.452,218.922,320.512,216.376,320.512z"/>
	<path style="fill:#27A2DB;" d="M248.579,320.512c-2.546,0-4.606-2.06-4.606-4.606v-26.486c0-2.546,2.06-4.606,4.606-4.606
		c2.546,0,4.606,2.06,4.606,4.606v26.486C253.185,318.452,251.125,320.512,248.579,320.512z"/>
</g>
<g>
	<path style="fill:#FFFFFF;" d="M278.796,177.195c-1.14,0-2.238-0.628-2.787-1.713c-18.232-36.073-57.97-52.226-58.366-52.384
		c-1.604-0.64-2.384-2.457-1.75-4.055c0.64-1.61,2.457-2.366,4.055-1.75c1.72,0.689,42.348,17.213,61.634,55.372
		c0.78,1.537,0.159,3.415-1.378,4.195C279.753,177.085,279.271,177.195,278.796,177.195z"/>
	<circle style="fill:#FFFFFF;" cx="282.499" cy="183.415" r="3.709"/>
</g>
<g>
</g>
<g>
</g>
<g>
</g>
<g>
</g>
<g>
</g>
<g>
</g>
<g>
</g>
<g>
</g>
<g>
</g>
<g>
</g>
<g>
</g>
<g>
</g>
<g>
</g>
<g>
</g>
<g>
</g>
</svg>
