<?xml version="1.0" encoding="iso-8859-1"?>
<!-- Generator: Adobe Illustrator 19.0.0, SVG Export Plug-In . SVG Version: 6.00 Build 0)  -->
<svg version="1.1" id="Capa_1" xmlns="http://www.w3.org/2000/svg" xmlns:xlink="http://www.w3.org/1999/xlink" x="0px" y="0px"
	 viewBox="0 0 468.293 468.293" style="enable-background:new 0 0 468.293 468.293;" xml:space="preserve">
<polygon style="fill:#D5D6DB;" points="428.607,416.87 39.686,416.87 0,367.66 468.293,367.66 "/>
<path style="fill:#EBF0F3;" d="M215.226,81.323l-18.078,6.004c-4.276-12.876-18.23-19.873-31.106-15.597
	c-12.876,4.276-19.873,18.23-15.597,31.106l-18.078,6.004c-7.586-22.845,4.826-47.601,27.672-55.188
	C182.883,46.065,207.639,58.478,215.226,81.323z"/>
<path style="fill:#E1E6E9;" d="M431.901,245.216L56.773,369.789l-11.294-34.01C11.653,233.917,66.806,123.919,168.668,90.093
	l6.252-2.076C276.783,54.19,386.78,109.344,420.607,211.206L431.901,245.216z"/>
<g>
	<path style="fill:#FFFFFF;" d="M357.539,164.96c-1.607,0.534-3.446,0.19-4.766-1.051c-68.793-64.686-118.235-54.681-118.725-54.573
		c-2.568,0.569-5.11-1.054-5.679-3.622c-0.566-2.569,1.054-5.1,3.622-5.679c2.207-0.488,54.885-11.163,127.305,56.938
		c1.918,1.8,2.01,4.814,0.206,6.73C358.944,164.301,358.266,164.719,357.539,164.96z"/>
	<circle style="fill:#FFFFFF;" cx="371.113" cy="174.242" r="7.143"/>
</g>
<g>
</g>
<g>
</g>
<g>
</g>
<g>
</g>
<g>
</g>
<g>
</g>
<g>
</g>
<g>
</g>
<g>
</g>
<g>
</g>
<g>
</g>
<g>
</g>
<g>
</g>
<g>
</g>
<g>
</g>
</svg>
