<?xml version="1.0" encoding="iso-8859-1"?>
<!-- Generator: Adobe Illustrator 19.0.0, SVG Export Plug-In . SVG Version: 6.00 Build 0)  -->
<svg version="1.1" id="Capa_1" xmlns="http://www.w3.org/2000/svg" xmlns:xlink="http://www.w3.org/1999/xlink" x="0px" y="0px"
	 viewBox="0 0 468.293 468.293" style="enable-background:new 0 0 468.293 468.293;" xml:space="preserve">
<path style="fill:#E1E6E9;" d="M245.639,431.778v-25.459c105.004,0,190.429-85.425,190.429-190.429S350.643,25.458,245.639,25.458
	S55.207,110.887,55.207,215.89H29.748C29.748,96.849,126.598,0,245.639,0s215.887,96.849,215.887,215.89
	S364.68,431.778,245.639,431.778z"/>
<path style="fill:#FCD462;" d="M13.894,119.832c-15.063,50.735-9.973,99.07,51.96,205.219
	c30.18,51.725,133.047,157.521,193.189,141.632c21.998-5.81,31.444-1.885,83.059-31.813c12.98-7.526,15.807-30.332,7.824-43.036
	l-24.435-32.088c-23.6-30.345-40.674-54.776-90.508-26.856c-14.203,7.957-33.24,36.426-65.093,1.837
	c-26.405-28.674-77.193-104.134-66.968-140.802c5.743-20.595,26.963-27.324,38.594-31.991c40.69-16.332,33.945-55.305,16.84-89.732
	c0,0-14.146-28.816-19.425-38.118c-7.405-13.049-22.198-14.113-37.456-8.547C101.474,25.537,34.882,49.14,13.894,119.832z"/>
<g>
	<path style="fill:#2F4859;" d="M301.108,453.931l-69.178-119.097c5.969-4.511,17.501-8.974,17.501-8.974l74.905,119.194
		c0,0-14.757,8.36-21.536,11.571L301.108,453.931z"/>
	<path style="fill:#2F4859;" d="M78.23,37.343l74.595,118.702c0,0-1.377,2.095-27.256,12.705L54.415,55.523
		C54.415,55.523,72.134,39.553,78.23,37.343z"/>
</g>
<g>
	<path style="fill:#3A556A;" d="M229.727,149.699c2.471-3.496,3.708-6.874,3.708-10.137s-1.075-5.989-3.216-8.18
		c-2.147-2.191-4.895-3.288-8.251-3.288c-6.153,0-11.98,4.385-17.481,13.146l-17.478-10.349c4.565-7.082,9.578-12.446,15.032-16.079
		c5.454-3.636,12.397-5.454,20.834-5.454c8.437,0,15.849,2.679,22.236,8.04c6.383,5.361,9.578,12.655,9.578,21.885
		c0,5.035-1.283,9.858-3.844,14.473c-2.567,4.615-7.297,10.51-14.196,17.689l-17.618,18.32h38.595v19.576h-68.939v-16.222
		l28.666-29.365C223.133,157.879,227.257,153.195,229.727,149.699z"/>
	<path style="fill:#3A556A;" d="M309.506,167.108V150.05h20.974v17.058h11.048v18.879H330.48v23.351h-20.974v-23.351h-39.294
		v-16.642l34.819-57.751h23.771l-33.141,55.513H309.506z"/>
	<path style="fill:#3A556A;" d="M394.434,178.971h14.022v62.826h-14.022v-24.716h-24.986v24.716h-14.022v-62.826h14.022v26.245
		h24.986V178.971z"/>
</g>
<g>
</g>
<g>
</g>
<g>
</g>
<g>
</g>
<g>
</g>
<g>
</g>
<g>
</g>
<g>
</g>
<g>
</g>
<g>
</g>
<g>
</g>
<g>
</g>
<g>
</g>
<g>
</g>
<g>
</g>
</svg>
