<?xml version="1.0" encoding="iso-8859-1"?>
<!-- Generator: Adobe Illustrator 19.0.0, SVG Export Plug-In . SVG Version: 6.00 Build 0)  -->
<svg version="1.1" id="Capa_1" xmlns="http://www.w3.org/2000/svg" xmlns:xlink="http://www.w3.org/1999/xlink" x="0px" y="0px"
	 viewBox="0 0 468.293 468.293" style="enable-background:new 0 0 468.293 468.293;" xml:space="preserve">
<path style="fill:#64798A;" d="M360.614,172.555h-79.317c-2.483,0-4.515-2.032-4.515-4.515v-3.668c0-2.483,2.032-4.515,4.515-4.515
	h79.317c2.483,0,4.515,2.032,4.515,4.515v3.668C365.129,170.523,363.097,172.555,360.614,172.555z"/>
<rect x="187.885" y="123.017" style="fill:#FCD462;" width="92.734" height="73.684"/>
<g>
	<rect x="157.159" y="87.895" style="fill:#64798A;" width="156.41" height="47.348"/>
	<path style="fill:#64798A;" d="M453.865,150.567h-92.416c-7.935,0-14.428,6.493-14.428,14.428v2.422
		c0,7.935,6.493,14.428,14.428,14.428h92.416c7.935,0,14.428-6.493,14.428-14.428v-2.422
		C468.293,157.06,461.8,150.567,453.865,150.567z"/>
</g>
<path style="fill:#E56353;" d="M156.704,294.266c0,26.67,23.29,87.728,64.203,87.728h25.986c40.913,0,63.24-61.059,63.24-87.728
	H156.704z"/>
<ellipse style="fill:#CE412D;" cx="233.416" cy="294.269" rx="77.087" ry="3.472"/>
<path style="fill:#E56353;" d="M288.929,355.859c-2.057,0-4.058-0.028-5.956-0.055l-11.62-0.051l30.794-56.023h2.397
	c11.865,0,26,4.861,26,28.013c0,11.497-4.999,19.566-14.855,23.983C307.565,355.369,297.607,355.859,288.929,355.859z
	 M285.006,347.732c8.274,0.099,19.364,0.19,27.377-3.397c6.866-3.077,10.062-8.349,10.062-16.591
	c0-12.866-4.817-19.075-15.551-19.834L285.006,347.732z"/>
<rect x="225.111" y="196.695" style="fill:#D5D6DB;" width="20.486" height="25.506"/>
<rect y="379.08" style="fill:#F6C358;" width="370.95" height="17.901"/>
<g>
	<rect y="394.977" style="fill:#D5D6DB;" width="370.95" height="50.263"/>
	<rect y="23.052" style="fill:#D5D6DB;" width="134.725" height="356.027"/>
	<rect x="134.743" y="23.052" style="fill:#D5D6DB;" width="236.232" height="64.843"/>
</g>
<rect y="72.866" style="fill:#F6C358;" width="370.95" height="17.901"/>
<circle style="fill:#D15241;" cx="67.359" cy="147.369" r="46.417"/>
<circle style="fill:#FFFFFF;" cx="67.359" cy="147.369" r="36.508"/>
<polygon style="fill:#2F4859;" points="70.487,157.818 64.229,157.818 66.05,129.006 68.666,129.006 "/>
<circle style="fill:#D15241;" cx="67.359" cy="157.821" r="4.171"/>
<rect x="28.16" y="220.428" style="fill:#44C4A1;" width="31.063" height="31.063"/>
<rect x="75.183" y="220.291" style="fill:#CE412D;" width="31.344" height="31.344"/>
<circle style="fill:#64798A;" cx="70.487" cy="324.009" r="45.556"/>
<g>
</g>
<g>
</g>
<g>
</g>
<g>
</g>
<g>
</g>
<g>
</g>
<g>
</g>
<g>
</g>
<g>
</g>
<g>
</g>
<g>
</g>
<g>
</g>
<g>
</g>
<g>
</g>
<g>
</g>
</svg>
