<?xml version="1.0" encoding="iso-8859-1"?>
<!-- Generator: Adobe Illustrator 19.0.0, SVG Export Plug-In . SVG Version: 6.00 Build 0)  -->
<svg version="1.1" id="Capa_1" xmlns="http://www.w3.org/2000/svg" xmlns:xlink="http://www.w3.org/1999/xlink" x="0px" y="0px"
	 viewBox="0 0 468.293 468.293" style="enable-background:new 0 0 468.293 468.293;" xml:space="preserve">
<g>
	<path style="fill:#F6C358;" d="M316.67,187.937c0,0,18.346-5.548,13.816,18.611c-1.754,9.352-7.117,40.871-22.124,32.633"/>
	<path style="fill:#F6C358;" d="M150.606,187.803c0,0-18.797-4.25-12.062,19.516c2.607,9.2,10.85,40.243,25.051,30.984"/>
	<path style="fill:#F6C358;" d="M242.99,341.568h-17.597c-14.548,0-26.341-11.793-26.341-26.341v-24.08h70.28v24.08
		C269.332,329.774,257.538,341.568,242.99,341.568z"/>
</g>
<path style="fill:#FCD462;" d="M147.945,181.733c0,0,18.059,127.821,87.084,125.532c41.831-1.387,77.873-45.25,85.409-125.532
	v-17.516H147.945V181.733z"/>
<g>
	<path style="fill:#64798A;" d="M143.759,164.217l8.292,51.7c0.513,3.196,3.649,5.574,7.352,5.574l0,0
		c4.475,0,7.932-3.425,7.363-7.294l-7.357-49.981H143.759z"/>
	<path style="fill:#64798A;" d="M325.085,164.217l-8.292,51.7c-0.513,3.196-3.649,5.574-7.352,5.574l0,0
		c-4.475,0-7.932-3.425-7.363-7.294l7.357-49.981H325.085z"/>
</g>
<path style="fill:#D5D6DB;" d="M269.708,322.359h-71.122c0,0-104.433,39.839-110.76,64.788v81.146h292.641v-81.146
	C374.141,362.198,269.708,322.359,269.708,322.359z"/>
<path style="fill:#E1E6E9;" d="M272.294,322.359l-39.456,12.199v38.406l-56.628,22.362v72.967h204.256v-81.146
	C380.467,387.147,378.782,365.636,272.294,322.359z"/>
<g>
	<ellipse style="fill:#64798A;" cx="198.878" cy="409.413" rx="9.179" ry="7.998"/>
	<ellipse style="fill:#64798A;" cx="198.878" cy="445.19" rx="9.179" ry="7.998"/>
	<ellipse style="fill:#64798A;" cx="248.892" cy="445.19" rx="9.179" ry="7.998"/>
	<ellipse style="fill:#64798A;" cx="248.892" cy="409.413" rx="9.179" ry="7.998"/>
	<ellipse style="fill:#64798A;" cx="248.892" cy="364.432" rx="9.179" ry="7.998"/>
	<path style="fill:#64798A;" d="M276.61,257.104c-3.568,9.071-15.527,3.962-19.03,1.142c-12.925-10.403-23.193-0.624-23.193-0.624
		c-9.515-7.775-13.753-5.166-17.246-2.851c-25.951,17.198-25.572,2.333-25.572,2.333c-12.786,24.622,42.521,11.144,42.521,11.144
		C292.37,279.134,276.61,257.104,276.61,257.104z"/>
</g>
<polygon style="fill:#D5D6DB;" points="292.2,0 176.211,0 130.765,164.217 337.646,164.217 "/>
<path style="fill:#64798A;" d="M130.765,164.217c0,0,54.19-83.768,194.32-45.387l-12.149-43.9c0,0-112.292-20.151-169.178,42.335
	L130.765,164.217z"/>
<g>
</g>
<g>
</g>
<g>
</g>
<g>
</g>
<g>
</g>
<g>
</g>
<g>
</g>
<g>
</g>
<g>
</g>
<g>
</g>
<g>
</g>
<g>
</g>
<g>
</g>
<g>
</g>
<g>
</g>
</svg>
