<?xml version="1.0" encoding="iso-8859-1"?>
<!-- Generator: Adobe Illustrator 19.0.0, SVG Export Plug-In . SVG Version: 6.00 Build 0)  -->
<svg version="1.1" id="Capa_1" xmlns="http://www.w3.org/2000/svg" xmlns:xlink="http://www.w3.org/1999/xlink" x="0px" y="0px"
	 viewBox="0 0 468.293 468.293" style="enable-background:new 0 0 468.293 468.293;" xml:space="preserve">
<path style="fill:#3A556A;" d="M444.233,9.904H24.06C10.772,9.904,0,20.676,0,33.964v393.825c0,16.9,13.7,30.601,30.601,30.601
	h407.091c16.9,0,30.601-13.7,30.601-30.601V33.964C468.293,20.676,457.521,9.904,444.233,9.904z"/>
<path style="fill:#2F4859;" d="M0,427.789c0,16.9,13.7,30.601,30.601,30.601h407.091c16.9,0,30.601-13.7,30.601-30.601H0z"/>
<g>
	<path style="fill:#FCD462;" d="M305.451,183.124c0.039,2.926-1.038,5.867-3.242,8.13c-4.407,4.527-11.643,4.624-16.17,0.217
		c-29.651-28.865-77.258-28.226-106.123,1.426c-4.407,4.527-11.643,4.624-16.17,0.217c-4.527-4.407-4.624-11.643-0.217-16.17
		c37.663-38.694,99.776-39.528,138.464-1.86C304.256,177.287,305.412,180.198,305.451,183.124z"/>
	<path style="fill:#FCD462;" d="M341.065,146.535c0.039,2.926-1.038,5.867-3.242,8.13c-4.407,4.527-11.643,4.624-16.17,0.217
		c-49.825-48.498-129.822-47.424-178.326,2.396c-4.407,4.527-11.643,4.624-16.17,0.217c-4.527-4.407-4.624-11.643-0.217-16.17
		c57.301-58.862,151.805-60.131,210.667-2.83C339.869,140.698,341.025,143.609,341.065,146.535z"/>
	<path style="fill:#FCD462;" d="M379.311,107.252c0.039,2.926-1.038,5.867-3.242,8.13c-4.407,4.527-11.643,4.624-16.17,0.217
		c-34.631-33.713-80.313-51.92-128.639-51.271c-48.327,0.649-93.503,20.076-127.216,54.708c-4.407,4.527-11.643,4.624-16.17,0.217
		c-4.527-4.407-4.624-11.643-0.217-16.17c37.971-39.011,88.861-60.894,143.296-61.625c54.435-0.731,105.894,19.777,144.9,57.754
		C378.116,101.416,379.272,104.326,379.311,107.252z"/>
	<circle style="fill:#FCD462;" cx="236.394" cy="247.945" r="36.265"/>
	<path style="fill:#FCD462;" d="M45.967,360.597l9.617-31.174h12.637l9.538,31.174l10.778-31.174h13.107l-18.922,54.205h-8.996
		l-11.864-37.687l-11.785,37.687h-8.996L22.16,329.423h13.107L45.967,360.597z"/>
	<path style="fill:#FCD462;" d="M108.082,329.423h12.094v54.205h-12.094V329.423z"/>
	<path style="fill:#FCD462;" d="M170.737,329.423v10.624h-25.126v11.709h23.882v10.624h-23.882v21.248h-12.094v-54.205H170.737z"/>
	<path style="fill:#FCD462;" d="M180.972,329.423h12.097v54.205h-12.097V329.423z"/>
	<path style="fill:#FCD462;" d="M223.771,383.628v-8.298l28.385-35.437h-27.451v-10.469h43.966v8.377l-28.303,35.282h28.77v10.545
		H223.771z"/>
	<path style="fill:#FCD462;" d="M324.191,376.143c-5.478,5.351-12.224,8.027-20.238,8.027c-8.014,0-14.76-2.676-20.238-8.027
		c-5.484-5.348-8.223-12.006-8.223-19.967c0-7.961,2.739-14.615,8.223-19.967c5.478-5.351,12.224-8.027,20.238-8.027
		c8.014,0,14.76,2.676,20.238,8.027c5.478,5.351,8.223,12.006,8.223,19.967C332.413,364.137,329.668,370.795,324.191,376.143z
		 M320.083,356.214c0-4.831-1.552-8.955-4.651-12.366c-3.105-3.414-6.916-5.121-11.441-5.121c-4.525,0-8.336,1.707-11.435,5.121
		c-3.105,3.411-4.657,7.535-4.657,12.366c0,4.837,1.552,8.945,4.657,12.331c3.099,3.386,6.91,5.08,11.435,5.08
		c4.525,0,8.336-1.694,11.441-5.08C318.53,365.16,320.083,361.052,320.083,356.214z"/>
	<path style="fill:#FCD462;" d="M380.569,329.423h12.097v54.205h-12.097l-25.823-33.964v33.964h-12.097v-54.205h11.321
		l26.599,34.897V329.423z"/>
	<path style="fill:#FCD462;" d="M445.082,329.423v10.778h-26.984v11.167h24.27v10.315h-24.27v11.245h27.836v10.7h-39.933v-54.205
		H445.082z"/>
</g>
<g>
</g>
<g>
</g>
<g>
</g>
<g>
</g>
<g>
</g>
<g>
</g>
<g>
</g>
<g>
</g>
<g>
</g>
<g>
</g>
<g>
</g>
<g>
</g>
<g>
</g>
<g>
</g>
<g>
</g>
</svg>
