<?xml version="1.0" encoding="iso-8859-1"?>
<!-- Generator: Adobe Illustrator 19.0.0, SVG Export Plug-In . SVG Version: 6.00 Build 0)  -->
<svg version="1.1" id="Capa_1" xmlns="http://www.w3.org/2000/svg" xmlns:xlink="http://www.w3.org/1999/xlink" x="0px" y="0px"
	 viewBox="0 0 468.293 468.293" style="enable-background:new 0 0 468.293 468.293;" xml:space="preserve">
<path style="fill:#FCD462;" d="M257.044,47.272h-38.409c-106.063,0-192.044,85.981-192.044,192.045h422.498
	C449.089,133.254,363.107,47.272,257.044,47.272z"/>
<g>
	<path style="fill:#DC8744;" d="M448.35,239.317H25.852c-11.015,0-19.943,8.929-19.943,19.943c0,11.015,8.929,19.943,19.943,19.943
		H448.35c11.015,0,19.943-8.929,19.943-19.943C468.293,248.246,459.364,239.317,448.35,239.317z"/>
	<path style="fill:#DC8744;" d="M442.441,303.724H19.943C8.929,303.724,0,312.654,0,323.668c0,11.015,8.929,19.943,19.943,19.943
		h422.498c11.014,0,19.943-8.928,19.943-19.943C462.384,312.654,453.455,303.724,442.441,303.724z"/>
</g>
<rect x="36.933" y="279.227" style="fill:#F6C358;" width="401.795" height="24.52"/>
<g>
	<path style="fill:#44C4A1;" d="M228.92,304.468c21.026,22.527,56.537,23.139,78.327,1.35l26.615-26.615H205.34L228.92,304.468z"/>
	<path style="fill:#44C4A1;" d="M333.862,279.203l4.262,6.849c18.797,30.209,61.038,34.577,85.619,8.853l15.005-15.703H333.862z"/>
	<path style="fill:#44C4A1;" d="M105.6,318.561c22.429,15.528,52.887,12.066,71.26-8.099l28.48-31.259H48.75L105.6,318.561z"/>
</g>
<path style="fill:#F6C358;" d="M36.932,343.611c0,42.752,34.657,77.41,77.41,77.41h246.996c42.752,0,77.41-34.657,77.41-77.41
	H36.932z"/>
<g>
	<path style="fill:#3EA69B;" d="M228.92,368.875c21.026,22.527,56.537,23.139,78.327,1.35l26.615-26.615H205.34L228.92,368.875z"/>
	<path style="fill:#3EA69B;" d="M333.862,343.611l4.262,6.849c18.797,30.209,61.038,34.577,85.619,8.853l15.005-15.703H333.862z"/>
	<path style="fill:#3EA69B;" d="M105.6,382.968c22.429,15.528,52.887,12.066,71.26-8.099l28.48-31.259H48.75L105.6,382.968z"/>
</g>
<g>
	<path style="fill:#F6C358;" d="M259.513,126.051L259.513,126.051l30.512-16.825c3.124-1.222,6.647,0.32,7.869,3.444v0
		c1.222,3.124-0.32,6.647-3.444,7.869L259.513,126.051z"/>
	<path style="fill:#F6C358;" d="M211.792,143.295L211.792,143.295l30.512-16.825c3.124-1.222,6.647,0.32,7.869,3.444v0
		c1.222,3.124-0.32,6.647-3.444,7.869L211.792,143.295z"/>
	<path style="fill:#F6C358;" d="M262.554,151.917L262.554,151.917l30.512-16.825c3.124-1.222,6.647,0.32,7.869,3.444v0
		c1.222,3.124-0.32,6.647-3.444,7.869L262.554,151.917z"/>
	<path style="fill:#F6C358;" d="M199.04,177.03L199.04,177.03l30.512-16.825c3.124-1.222,6.647,0.32,7.869,3.444v0
		c1.222,3.124-0.32,6.647-3.444,7.869L199.04,177.03z"/>
	<path style="fill:#F6C358;" d="M256.418,181.772L256.418,181.772l30.512-16.825c3.124-1.222,6.647,0.32,7.869,3.444v0
		c1.222,3.124-0.32,6.647-3.444,7.869L256.418,181.772z"/>
	<path style="fill:#F6C358;" d="M310.828,156.659L310.828,156.659l30.512-16.825c3.124-1.222,6.647,0.32,7.869,3.444l0,0
		c1.222,3.124-0.32,6.647-3.444,7.869L310.828,156.659z"/>
	<path style="fill:#F6C358;" d="M317.149,181.772L317.149,181.772l30.512-16.825c3.124-1.222,6.647,0.32,7.869,3.444v0
		c1.222,3.124-0.32,6.647-3.444,7.869L317.149,181.772z"/>
	<path style="fill:#F6C358;" d="M336.549,213.533L336.549,213.533l30.512-16.825c3.124-1.222,6.647,0.32,7.869,3.444v0
		c1.222,3.124-0.32,6.647-3.444,7.869L336.549,213.533z"/>
	<path style="fill:#F6C358;" d="M275.818,98.807L275.818,98.807l30.512-16.825c3.124-1.222,6.647,0.32,7.869,3.444v0
		c1.222,3.124-0.32,6.647-3.444,7.869L275.818,98.807z"/>
	<path style="fill:#F6C358;" d="M231.192,72.216L231.192,72.216l30.512-16.825c3.124-1.222,6.647,0.32,7.869,3.444v0
		c1.222,3.124-0.32,6.647-3.444,7.869L231.192,72.216z"/>
	<path style="fill:#F6C358;" d="M310.828,111.318L310.828,111.318l30.512-16.825c3.124-1.222,6.647,0.32,7.869,3.444v0
		c1.222,3.124-0.32,6.647-3.444,7.869L310.828,111.318z"/>
	<path style="fill:#F6C358;" d="M317.149,134.673L317.149,134.673l30.512-16.825c3.124-1.222,6.647,0.32,7.869,3.444v0
		c1.222,3.124-0.32,6.647-3.444,7.869L317.149,134.673z"/>
	<path style="fill:#F6C358;" d="M360.892,160.538L360.892,160.538l30.512-16.825c3.124-1.222,6.647,0.32,7.869,3.444v0
		c1.222,3.124-0.32,6.647-3.444,7.869L360.892,160.538z"/>
	<path style="fill:#F6C358;" d="M355.948,126.051L355.948,126.051l30.512-16.825c3.124-1.222,6.647,0.32,7.869,3.444v0
		c1.222,3.124-0.32,6.647-3.444,7.869L355.948,126.051z"/>
	<path style="fill:#F6C358;" d="M369.691,194.274L369.691,194.274l30.512-16.825c3.124-1.222,6.647,0.32,7.869,3.444l0,0
		c1.222,3.124-0.32,6.647-3.444,7.869L369.691,194.274z"/>
	<path style="fill:#F6C358;" d="M231.192,107.429L231.192,107.429l30.512-16.825c3.124-1.222,6.647,0.32,7.869,3.444v0
		c1.222,3.124-0.32,6.647-3.444,7.869L231.192,107.429z"/>
	<path style="fill:#F6C358;" d="M192.392,111.318L192.392,111.318l30.512-16.825c3.124-1.222,6.647,0.32,7.869,3.444v0
		c1.222,3.124-0.32,6.647-3.444,7.869L192.392,111.318z"/>
</g>
<g>
</g>
<g>
</g>
<g>
</g>
<g>
</g>
<g>
</g>
<g>
</g>
<g>
</g>
<g>
</g>
<g>
</g>
<g>
</g>
<g>
</g>
<g>
</g>
<g>
</g>
<g>
</g>
<g>
</g>
</svg>
