<?xml version="1.0" encoding="iso-8859-1"?>
<!-- Generator: Adobe Illustrator 19.0.0, SVG Export Plug-In . SVG Version: 6.00 Build 0)  -->
<svg version="1.1" id="Capa_1" xmlns="http://www.w3.org/2000/svg" xmlns:xlink="http://www.w3.org/1999/xlink" x="0px" y="0px"
	 viewBox="0 0 468.293 468.293" style="enable-background:new 0 0 468.293 468.293;" xml:space="preserve">
<g>
	<rect x="40.573" y="375.377" style="fill:#D15241;" width="52.162" height="39.412"/>
	<rect x="368.89" y="375.377" style="fill:#D15241;" width="52.162" height="39.412"/>
</g>
<path style="fill:#FCD462;" d="M468.293,53.523v330.679H4.637c-2.504,0-4.637-2.04-4.637-4.637V58.159
	c0-2.596,2.133-4.637,4.637-4.637H468.293z"/>
<rect x="355.84" y="53.504" style="fill:#F6C358;" width="112.453" height="330.677"/>
<rect x="23.184" y="128.431" style="fill:#3A556A;" width="332.675" height="238.767"/>
<g>
	<circle style="fill:#E56353;" cx="410.786" cy="191.619" r="27.242"/>
	<circle style="fill:#E56353;" cx="412.098" cy="257.904" r="27.242"/>
</g>
<rect x="376.932" y="100.951" style="fill:#27A2DB;" width="67.746" height="42.752"/>
<rect x="376.932" y="140.238" style="fill:#2D93BA;" width="67.746" height="3.459"/>
<rect x="37.32" y="138.596" style="fill:#64798A;" width="304.403" height="218.493"/>
<g>
	<rect x="307.643" y="205.974" style="fill:#3A556A;" width="18.732" height="79.173"/>
	<rect x="387.934" y="302.361" style="fill:#3A556A;" width="18.213" height="11.626"/>
	<rect x="415.469" y="302.361" style="fill:#3A556A;" width="18.213" height="11.626"/>
	<rect x="387.934" y="345.456" style="fill:#3A556A;" width="18.213" height="11.626"/>
	<rect x="415.469" y="345.456" style="fill:#3A556A;" width="18.213" height="11.626"/>
	<rect x="387.934" y="324.052" style="fill:#3A556A;" width="18.213" height="11.626"/>
	<rect x="415.469" y="324.052" style="fill:#3A556A;" width="18.213" height="11.626"/>
</g>
<g>
</g>
<g>
</g>
<g>
</g>
<g>
</g>
<g>
</g>
<g>
</g>
<g>
</g>
<g>
</g>
<g>
</g>
<g>
</g>
<g>
</g>
<g>
</g>
<g>
</g>
<g>
</g>
<g>
</g>
</svg>
