<?xml version="1.0" encoding="iso-8859-1"?>
<!-- Generator: Adobe Illustrator 19.0.0, SVG Export Plug-In . SVG Version: 6.00 Build 0)  -->
<svg version="1.1" id="Capa_1" xmlns="http://www.w3.org/2000/svg" xmlns:xlink="http://www.w3.org/1999/xlink" x="0px" y="0px"
	 viewBox="0 0 468.293 468.293" style="enable-background:new 0 0 468.293 468.293;" xml:space="preserve">
<rect x="128.699" y="436.948" style="fill:#D15241;" width="210.882" height="31.344"/>
<g>
	
		<rect x="169.495" y="22.649" transform="matrix(-0.8617 0.5074 -0.5074 -0.8617 371.0981 55.3094)" style="fill:#64798A;" width="17.033" height="111.16"/>
	
		<rect x="225.973" y="66.379" transform="matrix(-0.5283 0.8491 -0.8491 -0.5283 493.8823 -124.5999)" style="fill:#64798A;" width="111.161" height="17.027"/>
</g>
<circle style="fill:#E56353;" cx="147.119" cy="22.921" r="22.921"/>
<path style="fill:#DC8744;" d="M170.036,150.389c0-21.88,27.366-39.618,61.125-39.618s61.125,17.737,61.125,39.618"/>
<circle style="fill:#E56353;" cx="315.205" cy="22.921" r="22.921"/>
<rect x="6.088" y="140.132" style="fill:#D5D6DB;" width="456.117" height="302.579"/>
<rect x="35.284" y="161.523" style="fill:#1C75A1;" width="353.405" height="259.778"/>
<polygon style="fill:#2D93BA;" points="388.718,161.524 336.695,161.524 35.284,421.303 93.954,421.303 "/>
<circle style="fill:#D15241;" cx="424.036" cy="187.117" r="25.594"/>
<g>
	<rect x="400.372" y="372.699" style="fill:#64798A;" width="47.372" height="12.987"/>
	<rect x="400.372" y="397.175" style="fill:#64798A;" width="47.372" height="12.987"/>
</g>
<polygon style="fill:#2D93BA;" points="388.718,226.851 388.718,260.851 197.626,421.303 155.764,421.303 "/>
<g>
	<rect x="398.436" y="258.679" style="fill:#64798A;" width="22.353" height="19.812"/>
	<rect x="429.281" y="258.679" style="fill:#64798A;" width="22.353" height="19.812"/>
	<rect x="398.686" y="284.784" style="fill:#64798A;" width="22.353" height="19.812"/>
	<rect x="429.593" y="284.784" style="fill:#64798A;" width="22.353" height="19.812"/>
	<rect x="398.935" y="310.821" style="fill:#64798A;" width="22.353" height="19.812"/>
	<rect x="429.843" y="310.821" style="fill:#64798A;" width="22.353" height="19.812"/>
</g>
<g>
</g>
<g>
</g>
<g>
</g>
<g>
</g>
<g>
</g>
<g>
</g>
<g>
</g>
<g>
</g>
<g>
</g>
<g>
</g>
<g>
</g>
<g>
</g>
<g>
</g>
<g>
</g>
<g>
</g>
</svg>
