<?xml version="1.0" encoding="iso-8859-1"?>
<!-- Generator: Adobe Illustrator 19.0.0, SVG Export Plug-In . SVG Version: 6.00 Build 0)  -->
<svg version="1.1" id="Capa_1" xmlns="http://www.w3.org/2000/svg" xmlns:xlink="http://www.w3.org/1999/xlink" x="0px" y="0px"
	 viewBox="0 0 468.293 468.293" style="enable-background:new 0 0 468.293 468.293;" xml:space="preserve">
<path style="fill:#E56353;" d="M51.06,454.446H0v-440.6h51.06c13.786,0,24.961,11.175,24.961,24.961v390.678
	C76.021,443.271,64.846,454.446,51.06,454.446z"/>
<g>
	<rect x="76.02" y="121.488" style="fill:#64798A;" width="92.148" height="45.05"/>
	<rect x="76.02" y="301.755" style="fill:#64798A;" width="92.148" height="45.05"/>
</g>
<path style="fill:#D5D6DB;" d="M437.25,409.461H159.72V56.08h277.53c17.144,0,31.042,13.898,31.042,31.042v291.296
	C468.293,395.563,454.394,409.461,437.25,409.461z"/>
<path style="fill:#3A556A;" d="M390.845,124.666c18.453,15.71,27.679,39.803,27.679,72.325s-9.472,56.309-28.43,71.375
	c-18.974,15.066-47.91,22.606-86.824,22.606h-35.036v73.444h-58.746V101.125h93.031C342.95,101.125,372.392,108.987,390.845,124.666
	z M347.717,228.257c7.019-7.908,10.545-19.464,10.545-34.653c0-15.188-4.583-25.993-13.748-32.4s-23.419-9.594-42.745-9.594h-33.534
	v88.51h39.557C327.379,240.119,340.682,236.165,347.717,228.257z"/>
<g>
</g>
<g>
</g>
<g>
</g>
<g>
</g>
<g>
</g>
<g>
</g>
<g>
</g>
<g>
</g>
<g>
</g>
<g>
</g>
<g>
</g>
<g>
</g>
<g>
</g>
<g>
</g>
<g>
</g>
</svg>
