<?xml version="1.0" encoding="iso-8859-1"?>
<!-- Generator: Adobe Illustrator 19.0.0, SVG Export Plug-In . SVG Version: 6.00 Build 0)  -->
<svg version="1.1" id="Capa_1" xmlns="http://www.w3.org/2000/svg" xmlns:xlink="http://www.w3.org/1999/xlink" x="0px" y="0px"
	 viewBox="0 0 468.292 468.292" style="enable-background:new 0 0 468.292 468.292;" xml:space="preserve">
<path style="fill:#3A556A;" d="M408.359,393.918c37.123-39.917,59.933-93.56,59.933-152.51
	c0-122.973-99.081-223.019-220.862-223.019S26.568,118.434,26.568,241.408c0,122.974,99.081,223.019,220.862,223.019
	c61.935,0,117.964-25.912,158.109-67.522c0.181,0.123,0.361,0.225,0.541,0.349L408.359,393.918z M340.254,341.056
	c9.462-29.867,14.684-57.987,16.777-84.206h89.34c-3.197,42.449-19.395,81.276-44.639,112.361
	C380.955,356.737,360.374,347.579,340.254,341.056z M218.938,41.755c6.079-0.883,12.235-1.519,18.476-1.832v93.252
	c-24.801-0.808-47.13-4.421-66.391-9.221c18.93-50.39,45.828-79.026,48.421-81.707L218.938,41.755z M219.429,42.259l-0.514-0.501
	l0,0L219.429,42.259z M337.717,235.573h-79.025v-81.11c21.235-0.679,43.867-3.417,67.601-9
	C333.717,171.193,338.565,201.352,337.717,235.573z M345.688,140.301c19.083-5.633,38.783-13.128,58.976-22.926
	c25.389,32.811,40.945,73.714,42.204,118.199h-88.797C358.699,199.635,353.53,167.706,345.688,140.301z M258.692,133.191V40.007
	c4.416,0.25,8.783,0.682,13.12,1.219l-1.052,1.021c2.613,2.701,29.89,31.76,48.838,82.854
	C298.242,129.999,277.842,132.523,258.692,133.191z M237.415,154.473v81.1h-84.926c-0.862-34.812,4.169-65.42,11.811-91.437
	C185.446,149.521,210.056,153.619,237.415,154.473z M237.415,328.035c-24.056,1.436-46.231,5.764-65.909,11.33
	c-9.87-29.421-15.418-56.973-17.752-82.514h83.661V328.035z M132.135,235.573H47.992c1.278-45.141,17.274-86.597,43.33-119.647
	c10.219,5.633,28.674,14.722,53.671,22.689C136.881,166.391,131.494,198.902,132.135,235.573z M133.174,256.851
	c2.201,27.569,7.895,57.254,18.305,88.847c-25.041,8.809-44.492,18.914-56.384,25.85c-26.354-31.469-43.328-71.169-46.606-114.697
	H133.174z M158.356,365.031c8.596,22.483,19.614,45.869,33.447,70.086c-31.124-9.147-59.116-25.754-81.974-47.787
	C120.919,380.935,137.518,372.487,158.356,365.031z M178.489,358.62c17.646-4.95,37.454-8.748,58.926-10.038v94.311
	c-5.827-0.293-11.575-0.886-17.262-1.676C202.339,412.368,188.704,384.809,178.489,358.62z M258.692,348.208
	c17.344,0.365,35.537,2.519,54.344,7.037c-10.422,27.386-24.598,56.296-43.377,86.623c-3.629,0.409-7.282,0.733-10.966,0.941
	V348.208z M258.692,327.623v-70.772h77.76c-2.228,24.389-7.357,50.596-16.41,78.527
	C298.824,330.231,278.273,327.904,258.692,327.623z M390.236,100.67c-17.486,8.168-34.533,14.468-51.091,19.327
	c-11.659-32.413-26.393-57.008-37.395-72.674C335.804,57.076,366.176,75.732,390.236,100.67z M187.243,49.06
	c-10.678,15.465-24.495,38.909-35.637,69.402c-20.483-6.52-36.149-13.794-45.911-18.928C128.184,76.582,156.065,59.05,187.243,49.06
	z M297.486,436.72c15.11-26.258,26.936-51.553,35.927-75.776c17.532,5.76,35.495,13.807,53.673,24.407
	C362.519,409.707,331.791,427.731,297.486,436.72z"/>
<path style="fill:#D15241;" d="M148.492,77.557c8.461-39.81-32.993-73.692-73.692-73.692S-7.352,37.747,1.109,77.557
	c9.417,44.308,73.692,165.53,73.692,165.53S139.075,121.865,148.492,77.557z"/>
<circle style="fill:#FCD462;" cx="74.802" cy="77.555" r="52.118"/>
<g>
</g>
<g>
</g>
<g>
</g>
<g>
</g>
<g>
</g>
<g>
</g>
<g>
</g>
<g>
</g>
<g>
</g>
<g>
</g>
<g>
</g>
<g>
</g>
<g>
</g>
<g>
</g>
<g>
</g>
</svg>
