<?xml version="1.0" encoding="iso-8859-1"?>
<!-- Generator: Adobe Illustrator 19.0.0, SVG Export Plug-In . SVG Version: 6.00 Build 0)  -->
<svg version="1.1" id="Capa_1" xmlns="http://www.w3.org/2000/svg" xmlns:xlink="http://www.w3.org/1999/xlink" x="0px" y="0px"
	 viewBox="0 0 468.293 468.293" style="enable-background:new 0 0 468.293 468.293;" xml:space="preserve">
<g>
	
		<rect x="324.193" y="54.34" transform="matrix(-0.6578 0.7532 -0.7532 -0.6578 660.7671 -9.2219)" style="fill:#E56353;" width="16.571" height="182.322"/>
	
		<rect x="44.552" y="138.409" transform="matrix(-0.7423 0.67 -0.67 -0.7423 328.7046 166.968)" style="fill:#E56353;" width="175.391" height="16.559"/>
</g>
<path style="fill:#D5D6DB;" d="M448.754,467.677H19.539C8.748,467.677,0,458.929,0,448.138v-238.9
	C0,198.447,8.748,189.7,19.539,189.7h429.216c10.791,0,19.539,8.748,19.539,19.539v238.9
	C468.293,458.929,459.545,467.677,448.754,467.677z"/>
<path style="fill:#64798A;" d="M234.149,113.789c-31.207,0-56.592-25.385-56.592-56.584c0-31.203,25.385-56.588,56.592-56.588
	c31.199,0,56.584,25.385,56.584,56.588C290.733,88.404,265.348,113.789,234.149,113.789z M234.149,25.459
	c-17.508,0-31.749,14.241-31.749,31.745s14.241,31.741,31.749,31.741c17.5,0,31.741-14.237,31.741-31.741
	S251.649,25.459,234.149,25.459z"/>
<g>
	<path style="fill:#2F4859;" d="M85.334,278.313h19.684v88.196H85.334v-34.697H50.261v34.697H30.577v-88.196h19.684v36.844h35.073
		V278.313z"/>
	<path style="fill:#2F4859;" d="M200.912,354.334c-8.92,8.706-19.894,13.056-32.93,13.056c-13.044,0-24.018-4.351-32.93-13.056
		c-8.92-8.706-13.376-19.534-13.376-32.489c0-12.951,4.456-23.784,13.376-32.489c8.912-8.706,19.886-13.06,32.93-13.06
		c13.036,0,24.01,4.355,32.93,13.06c8.912,8.706,13.376,19.538,13.376,32.489C214.288,334.8,209.824,345.629,200.912,354.334z
		 M194.224,321.906c0-7.861-2.523-14.573-7.569-20.124c-5.046-5.552-11.257-8.326-18.616-8.326s-13.562,2.774-18.608,8.326
		s-7.569,12.264-7.569,20.124c0,7.869,2.523,14.556,7.569,20.064c5.046,5.511,11.249,8.265,18.608,8.265s13.57-2.754,18.616-8.265
		C191.701,336.462,194.224,329.774,194.224,321.906z"/>
	<path style="fill:#2F4859;" d="M265.882,295.348v71.161h-19.684v-71.161h-24.981v-17.035h69.645v17.035H265.882z"/>
	<path style="fill:#2F4859;" d="M368.837,278.313v17.541h-43.904v18.167h39.488v16.78h-39.488v18.297h45.295v17.411h-64.978v-88.196
		H368.837z"/>
	<path style="fill:#2F4859;" d="M387.768,366.509v-88.196h19.684v70.66h37.596v17.536H387.768z"/>
</g>
<g>
</g>
<g>
</g>
<g>
</g>
<g>
</g>
<g>
</g>
<g>
</g>
<g>
</g>
<g>
</g>
<g>
</g>
<g>
</g>
<g>
</g>
<g>
</g>
<g>
</g>
<g>
</g>
<g>
</g>
</svg>
