<?xml version="1.0" encoding="iso-8859-1"?>
<!-- Generator: Adobe Illustrator 19.0.0, SVG Export Plug-In . SVG Version: 6.00 Build 0)  -->
<svg version="1.1" id="Capa_1" xmlns="http://www.w3.org/2000/svg" xmlns:xlink="http://www.w3.org/1999/xlink" x="0px" y="0px"
	 viewBox="0 0 468.261 468.261" style="enable-background:new 0 0 468.261 468.261;" xml:space="preserve">
<g>
	<path style="fill:#E56353;" d="M252.688,100.058h-29.985v-14.8c0-5.396,0.691-9.436,2.072-12.134
		c1.381-2.698,4.304-6.352,8.769-10.953l13.427-13.82c1.975-2.369,2.955-5.428,2.955-9.179c0-3.742-1.044-6.866-3.148-9.371
		c-2.104-2.497-4.866-3.75-8.287-3.75c-3.437,0-6.296,1.486-8.592,4.441c-2.297,2.963-3.71,6.874-4.24,11.74h-31.382
		c1.445-13.154,6.248-23.481,14.406-30.981C216.841,3.75,227.071,0,239.374,0c12.302,0,22.292,3.357,30.001,10.07
		c7.693,6.705,11.548,15.98,11.548,27.825c0,5.26-0.675,9.179-1.975,11.74c-1.317,2.57-2.249,4.409-2.762,5.525
		c-0.53,1.124-1.751,2.795-3.662,5.035c-1.911,2.24-3.18,3.686-3.838,4.344c-3.164,3.156-6.151,6.111-8.978,8.873
		c-2.843,2.762-4.706,5.035-5.637,6.81c-0.915,1.775-1.381,4.441-1.381,7.998V100.058z"/>
	<path style="fill:#E56353;" d="M419.333,267.192H47.161c-18.357,0-33.695-11.965-38.16-29.784
		c-4.465-17.811,3.421-35.606,19.61-44.263L237.623,81.387l201.223,108.529c16.848,9.09,25.022,27.672,20.349,46.238
		C454.505,254.721,438.493,267.192,419.333,267.192z M237.559,118.728L44.125,222.15c-3.678,1.959-3.774,5.035-3.212,7.267
		c0.546,2.224,2.088,4.882,6.248,4.882h372.172c5.573,0,7.388-3.887,7.966-6.199c0.466-1.863,1.012-6.488-4.063-9.227
		L237.559,118.728z"/>
</g>
<rect x="105.787" y="234.271" style="fill:#44C4A1;" width="256.937" height="233.99"/>
<g>
	<rect x="141.034" y="234.271" style="fill:#3A556A;" width="19.088" height="233.99"/>
	<rect x="105.787" y="410.224" style="fill:#3A556A;" width="256.937" height="20.555"/>
</g>
<g>
</g>
<g>
</g>
<g>
</g>
<g>
</g>
<g>
</g>
<g>
</g>
<g>
</g>
<g>
</g>
<g>
</g>
<g>
</g>
<g>
</g>
<g>
</g>
<g>
</g>
<g>
</g>
<g>
</g>
</svg>
