<?xml version="1.0" encoding="iso-8859-1"?>
<!-- Generator: Adobe Illustrator 19.0.0, SVG Export Plug-In . SVG Version: 6.00 Build 0)  -->
<svg version="1.1" id="Capa_1" xmlns="http://www.w3.org/2000/svg" xmlns:xlink="http://www.w3.org/1999/xlink" x="0px" y="0px"
	 viewBox="0 0 468.293 468.293" style="enable-background:new 0 0 468.293 468.293;" xml:space="preserve">
<g>
	<rect x="66.06" y="356.464" style="fill:#EBF0F3;" width="33.998" height="22.665"/>
	<rect x="349.409" y="356.464" style="fill:#EBF0F3;" width="33.998" height="22.665"/>
</g>
<path style="fill:#3EA69B;" d="M430.169,55.579H38.124c-6.397,0-11.582,5.186-11.582,11.582v234.026v6.936v43.997
	c0,7.176,5.185,12.992,11.582,12.992h392.046c6.397,0,11.582-5.816,11.582-12.992v-43.997v-6.936V67.161
	C441.752,60.765,436.566,55.579,430.169,55.579z"/>
<rect x="49.189" y="78.236" style="fill:#E1E6E9;" width="369.889" height="255.888"/>
<path style="fill:#44C4A1;" d="M0,363.308v28.19c0,11.717,10.752,21.216,24.016,21.216h420.261c13.264,0,24.016-9.499,24.016-21.216
	v-28.19H0z"/>
<g>
	<path style="fill:#EBF0F3;" d="M279.782,397.921h-91.272c-3.48,0-6.327-2.847-6.327-6.327v-7.168c0-3.48,2.847-6.327,6.327-6.327
		h91.272c3.48,0,6.327,2.847,6.327,6.327v7.168C286.109,395.074,283.262,397.921,279.782,397.921z"/>
	<circle style="fill:#EBF0F3;" cx="228.652" cy="66.722" r="8.442"/>
</g>
<g>
	<circle style="fill:#D5D6DB;" cx="228.652" cy="66.722" r="5.114"/>
	<path style="fill:#D5D6DB;" d="M258.24,397.921h-48.188c-3.48,0-6.327-2.847-6.327-6.327v-7.168c0-3.48,2.847-6.327,6.327-6.327
		h48.188c3.48,0,6.327,2.847,6.327,6.327v7.168C264.567,395.075,261.72,397.921,258.24,397.921z"/>
</g>
<g>
	<path style="fill:#3A556A;" d="M292.82,222.131c0.031,2.291-0.813,4.594-2.538,6.367c-3.451,3.545-9.118,3.621-12.663,0.17
		c-23.219-22.604-60.499-22.103-83.102,1.116c-3.451,3.545-9.118,3.621-12.663,0.17c-3.545-3.451-3.621-9.118-0.17-12.663
		c29.493-30.3,78.131-30.954,108.427-1.457C291.884,217.561,292.789,219.84,292.82,222.131z"/>
	<path style="fill:#3A556A;" d="M320.708,193.48c0.031,2.291-0.813,4.594-2.538,6.367c-3.451,3.545-9.118,3.621-12.663,0.17
		c-39.016-37.978-101.66-37.136-139.642,1.876c-3.451,3.545-9.118,3.621-12.663,0.17c-3.545-3.451-3.621-9.118-0.17-12.663
		c44.871-46.093,118.874-47.087,164.967-2.216C319.772,188.909,320.677,191.188,320.708,193.48z"/>
	<path style="fill:#3A556A;" d="M350.658,162.718c0.031,2.291-0.813,4.594-2.538,6.367c-3.451,3.545-9.118,3.621-12.663,0.17
		c-27.119-26.4-62.891-40.657-100.734-40.149s-73.219,15.721-99.619,42.84c-3.451,3.545-9.118,3.621-12.663,0.17
		c-3.545-3.451-3.621-9.118-0.17-12.663c29.734-30.548,69.584-47.684,112.211-48.257c42.627-0.573,82.923,15.487,113.467,45.225
		C349.722,158.148,350.627,160.427,350.658,162.718z"/>
	<circle style="fill:#3A556A;" cx="238.736" cy="272.921" r="28.397"/>
</g>
<g>
</g>
<g>
</g>
<g>
</g>
<g>
</g>
<g>
</g>
<g>
</g>
<g>
</g>
<g>
</g>
<g>
</g>
<g>
</g>
<g>
</g>
<g>
</g>
<g>
</g>
<g>
</g>
<g>
</g>
</svg>
