<?xml version="1.0" encoding="iso-8859-1"?>
<!-- Generator: Adobe Illustrator 19.0.0, SVG Export Plug-In . SVG Version: 6.00 Build 0)  -->
<svg version="1.1" id="Capa_1" xmlns="http://www.w3.org/2000/svg" xmlns:xlink="http://www.w3.org/1999/xlink" x="0px" y="0px"
	 viewBox="0 0 468.293 468.293" style="enable-background:new 0 0 468.293 468.293;" xml:space="preserve">
<path style="fill:#E56353;" d="M234.146,0C104.831,0,0,104.831,0,234.146s104.831,234.146,234.146,234.146
	s234.146-104.831,234.146-234.146S363.462,0,234.146,0z M234.146,416.044c-100.46,0-181.899-81.438-181.899-181.898
	S133.686,52.247,234.146,52.247s181.899,81.439,181.899,181.899S334.606,416.044,234.146,416.044z"/>
<rect x="83.743" y="263.074" style="fill:#F6C358;" width="106.958" height="38.9"/>
<rect x="185.194" y="263.074" style="fill:#D5D6DB;" width="193.124" height="38.9"/>
<g>
	<rect x="347.036" y="263.074" style="fill:#64798A;" width="37.526" height="38.9"/>
	<path style="fill:#64798A;" d="M340.925,239.305l-9.456-15.74c-7.811-13.001-5.377-29.885,5.796-40.151
		c8.279-7.604,11.519-19.042,8.462-29.857l-6.268-22.16l8.019-2.271l6.269,22.16c3.92,13.864-0.232,28.526-10.84,38.266
		c-8.271,7.6-10.074,20.096-4.29,29.722l9.456,15.74L340.925,239.305z"/>
	<path style="fill:#64798A;" d="M368.018,239.305l-9.456-15.74c-7.811-13.001-5.377-29.885,5.796-40.151
		c8.279-7.604,11.519-19.042,8.462-29.857l-6.268-22.16l8.019-2.271l6.268,22.16c3.92,13.864-0.232,28.526-10.84,38.266
		c-8.271,7.6-10.074,20.096-4.29,29.722l9.456,15.74L368.018,239.305z"/>
</g>
<rect x="217.225" y="23.475" transform="matrix(-0.8222 0.5692 -0.5692 -0.8222 562.8818 302.7688)" style="fill:#E56353;" width="33.861" height="431.64"/>
<g>
</g>
<g>
</g>
<g>
</g>
<g>
</g>
<g>
</g>
<g>
</g>
<g>
</g>
<g>
</g>
<g>
</g>
<g>
</g>
<g>
</g>
<g>
</g>
<g>
</g>
<g>
</g>
<g>
</g>
</svg>
