<?xml version="1.0" encoding="iso-8859-1"?>
<!-- Generator: Adobe Illustrator 19.0.0, SVG Export Plug-In . SVG Version: 6.00 Build 0)  -->
<svg version="1.1" id="Capa_1" xmlns="http://www.w3.org/2000/svg" xmlns:xlink="http://www.w3.org/1999/xlink" x="0px" y="0px"
	 viewBox="0 0 468.293 468.293" style="enable-background:new 0 0 468.293 468.293;" xml:space="preserve">
<g>
	<polygon style="fill:#64798A;" points="371.084,461.428 360.824,468.293 274.336,372.319 315.378,344.86 	"/>
	<polygon style="fill:#64798A;" points="115.928,461.428 126.188,468.293 212.676,372.319 171.633,344.86 	"/>
</g>
<ellipse style="fill:#FCD462;" cx="232.927" cy="236.46" rx="170.085" ry="170.085"/>
<g>
	<rect x="230.525" y="20.724" style="fill:#64798A;" width="18.981" height="41.416"/>
	
		<rect x="370.406" y="25.184" transform="matrix(0.7146 0.6995 -0.6995 0.7146 154.475 -244.0649)" style="fill:#64798A;" width="11.907" height="84.211"/>
</g>
<path style="fill:#3A556A;" d="M400.377,45.838c26.928,24.488,33.135,61.519,13.862,82.713l-97.515-88.678
	C335.996,18.679,373.449,21.35,400.377,45.838z"/>
<rect x="85.965" y="22.95" transform="matrix(-0.7146 0.6995 -0.6995 -0.7146 203.112 47.2476)" style="fill:#64798A;" width="11.907" height="84.211"/>
<path style="fill:#3A556A;" d="M232.934,46.383c-104.817,0-190.086,85.269-190.086,190.082s85.269,190.082,190.086,190.082
	c104.809,0,190.078-85.269,190.078-190.082S337.743,46.383,232.934,46.383z M232.934,402.736
	c-91.687,0-166.275-74.588-166.275-166.271S141.247,70.195,232.934,70.195c91.679,0,166.267,74.588,166.267,166.271
	S324.613,402.736,232.934,402.736z"/>
<g>
	<path style="fill:#2F4859;" d="M210.779,86.775h12.445v34.251h-5.487V91.925h-6.958V86.775z"/>
	<path style="fill:#2F4859;" d="M246.204,100.15c0.981-1.339,1.471-2.687,1.471-4.067c0-1.369-0.526-2.534-1.568-3.505
		c-1.047-0.96-2.371-1.441-3.97-1.441c-2.81,0-5.145,1.441-7.004,4.312l-4.654-2.698c1.502-2.248,3.157-3.954,4.971-5.099
		c1.814-1.134,4.148-1.706,7.004-1.706c2.861,0,5.37,0.899,7.52,2.718c2.156,1.809,3.234,4.281,3.234,7.418
		c0,1.768-0.455,3.454-1.369,5.048c-0.914,1.604-2.595,3.658-5.048,6.172l-8.036,8.185h15.531v5.538h-23.42v-4.905l10.387-10.433
		C243.573,103.338,245.223,101.489,246.204,100.15z"/>
	<path style="fill:#2F4859;" d="M94.649,248.863c3.04,0,5.278-1.032,6.713-3.086c1.436-2.054,2.171-4.833,2.202-8.328
		c-0.812,0.909-1.993,1.768-3.525,2.575c-1.538,0.797-3.234,1.195-5.094,1.195c-3.071,0-5.645-1.022-7.72-3.065
		c-2.074-2.033-3.111-4.751-3.111-8.133c0-3.382,1.119-6.1,3.357-8.154c2.238-2.054,5.053-3.086,8.45-3.086
		c5.492,0,9.278,2.452,11.368,7.347c1.18,2.81,1.768,5.978,1.768,9.503c0,3.535-0.378,6.468-1.129,8.828
		c-0.751,2.35-1.783,4.21-3.086,5.579c-2.549,2.677-5.676,4.016-9.385,4.016c-3.704,0-7.061-1.155-10.07-3.474l2.892-4.261
		c0.751,0.654,1.757,1.236,3.014,1.757C92.549,248.607,93.668,248.863,94.649,248.863z M95.701,236.121
		c1.977,0,3.627-0.542,4.951-1.635c1.323-1.093,1.982-2.514,1.982-4.261c0-1.747-0.634-3.26-1.911-4.516
		c-1.272-1.257-2.866-1.88-4.777-1.88c-1.911,0-3.484,0.562-4.726,1.686s-1.865,2.575-1.865,4.343c0,1.757,0.567,3.249,1.691,4.455
		C92.176,235.518,93.724,236.121,95.701,236.121z"/>
	<path style="fill:#2F4859;" d="M234.469,358.9c-3.04,0-5.278,1.032-6.713,3.086c-1.436,2.064-2.171,4.833-2.202,8.328
		c0.812-0.909,1.987-1.768,3.525-2.565c1.538-0.807,3.234-1.206,5.094-1.206c3.07,0,5.645,1.022,7.72,3.065
		c2.074,2.044,3.111,4.751,3.111,8.134c0,3.382-1.119,6.1-3.357,8.154c-2.238,2.064-5.053,3.086-8.45,3.086
		c-5.487,0-9.278-2.442-11.368-7.347c-1.175-2.81-1.768-5.978-1.768-9.503c0-3.525,0.378-6.468,1.129-8.818
		c0.751-2.35,1.778-4.22,3.086-5.589c2.549-2.677,5.676-4.016,9.385-4.016c3.704,0,7.061,1.155,10.07,3.474l-2.892,4.261
		c-0.751-0.644-1.758-1.236-3.014-1.757S235.45,358.9,234.469,358.9z M233.416,371.642c-1.977,0-3.627,0.542-4.951,1.645
		c-1.323,1.093-1.982,2.514-1.982,4.261c0,1.747,0.633,3.249,1.911,4.506c1.272,1.257,2.871,1.88,4.802,1.88
		c1.926,0,3.525-0.562,4.802-1.686c1.272-1.124,1.911-2.565,1.911-4.312s-0.593-3.229-1.768-4.455
		C236.967,372.255,235.394,371.642,233.416,371.642z"/>
	<path style="fill:#2F4859;" d="M359.218,223.931v-5.15h20.037v4.506l-8.277,9.268c3.137,0.092,5.589,1.083,7.347,2.963
		c1.768,1.88,2.646,4.118,2.646,6.734c0,3.495-1.185,6.243-3.546,8.236c-2.371,1.992-5.416,2.984-9.145,2.984
		c-3.719,0-7.367-1.195-10.923-3.576l2.452-4.649c2.81,1.952,5.742,2.933,8.818,2.933c1.992,0,3.638-0.46,4.925-1.39
		c1.287-0.93,1.931-2.279,1.931-4.026c0-1.747-0.715-3.137-2.156-4.189c-1.431-1.042-3.423-1.563-5.978-1.563
		c-1.267,0-2.493,0.184-3.668,0.542v-4.414l7.929-9.206H359.218z"/>
	<rect x="234.146" y="151.471" style="fill:#2F4859;" width="7.305" height="92.603"/>
	<rect x="163.153" y="240.103" style="fill:#2F4859;" width="67.365" height="7.936"/>
</g>
<rect x="259.855" y="190.438" transform="matrix(-0.751 0.6603 -0.6603 -0.751 637.0806 299.0008)" style="fill:#E56353;" width="4.608" height="158.388"/>
<circle style="fill:#27A2DB;" cx="237.593" cy="244.074" r="11.907"/>
<g>
	<polyline style="fill:#2F4859;" points="212.676,159.409 237.427,134.065 262.976,159.409 	"/>
	<polyline style="fill:#2F4859;" points="171.062,269.203 144.752,245.482 169.057,218.943 	"/>
</g>
<g>
	<path style="fill:#3A556A;" d="M67.916,43.633c-26.928,24.488-33.135,61.519-13.862,82.713l97.515-88.678
		C132.296,16.475,94.843,19.146,67.916,43.633z"/>
	<rect x="207.847" style="fill:#3A556A;" width="63.931" height="25.575"/>
</g>
<g>
</g>
<g>
</g>
<g>
</g>
<g>
</g>
<g>
</g>
<g>
</g>
<g>
</g>
<g>
</g>
<g>
</g>
<g>
</g>
<g>
</g>
<g>
</g>
<g>
</g>
<g>
</g>
<g>
</g>
</svg>
