<?xml version="1.0" encoding="iso-8859-1"?>
<!-- Generator: Adobe Illustrator 19.0.0, SVG Export Plug-In . SVG Version: 6.00 Build 0)  -->
<svg version="1.1" id="Capa_1" xmlns="http://www.w3.org/2000/svg" xmlns:xlink="http://www.w3.org/1999/xlink" x="0px" y="0px"
	 viewBox="0 0 468.324 468.324" style="enable-background:new 0 0 468.324 468.324;" xml:space="preserve">
<g>
	<rect x="312.71" y="443.629" style="fill:#2F4859;" width="50.744" height="24.695"/>
	<rect x="104.944" y="443.629" style="fill:#2F4859;" width="50.744" height="24.695"/>
</g>
<path style="fill:#D5D6DB;" d="M358.509,0H109.902C79.374,0,54.625,24.748,54.625,46.032v338.397
	c0,39.773,24.748,64.522,55.277,64.522h248.607c30.529,0,55.277-24.749,55.277-64.522V46.032C413.785,24.748,389.037,0,358.509,0z"
	/>
<circle style="fill:#3A556A;" cx="234.224" cy="279.852" r="121.513"/>
<path style="fill:#EBF0F3;" d="M331.918,303.273c1.797-7.523,2.851-15.333,2.851-23.407c0-55.539-45.024-100.563-100.563-100.563
	s-100.563,45.024-100.563,100.563c0,10.053,1.518,19.744,4.264,28.904c19.402-0.378,47.301-2.642,87.495-8.127
	C225.401,300.643,275.34,286.593,331.918,303.273z"/>
<path style="fill:#27A2DB;" d="M225.402,300.643c-40.195,5.485-68.093,7.749-87.495,8.127
	c12.423,41.442,50.813,71.659,96.298,71.659c47.466,0,87.148-32.925,97.712-77.156C275.34,286.593,225.402,300.643,225.402,300.643z
	"/>
<path style="fill:#EBF0F3;" d="M360.098,0H108.312C78.662,0,51.521,24.479,54.625,53.687v1.871v47.435h359.16V55.558v-1.871
	C416.222,24.125,389.749,0,360.098,0z"/>
<g>
	<circle style="fill:#2F4859;" cx="385.701" cy="56.12" r="18.857"/>
	<circle style="fill:#2F4859;" cx="338.204" cy="56.12" r="18.857"/>
</g>
<rect x="74.118" y="39.199" style="fill:#DC8744;" width="87.977" height="38.313"/>
<g>
	<rect x="210.31" y="37.257" style="fill:#64798A;" width="66.498" height="23.746"/>
	<rect x="54.625" y="102.993" style="fill:#64798A;" width="359.149" height="13.83"/>
</g>
<rect x="74.118" y="37.257" style="fill:#F6C358;" width="87.977" height="7.38"/>
<rect x="187.982" y="74.983" style="fill:#E56353;" width="19.25" height="13.225"/>
<rect x="212.439" y="74.983" style="fill:#FCD462;" width="19.25" height="13.225"/>
<rect x="236.909" y="74.983" style="fill:#44C4A1;" width="19.25" height="13.225"/>
<rect x="261.323" y="74.983" style="fill:#64798A;" width="19.25" height="13.225"/>
<rect x="285.799" y="74.983" style="fill:#E56353;" width="19.25" height="13.225"/>
<g>
</g>
<g>
</g>
<g>
</g>
<g>
</g>
<g>
</g>
<g>
</g>
<g>
</g>
<g>
</g>
<g>
</g>
<g>
</g>
<g>
</g>
<g>
</g>
<g>
</g>
<g>
</g>
<g>
</g>
</svg>
