<?xml version="1.0" encoding="iso-8859-1"?>
<!-- Generator: Adobe Illustrator 19.0.0, SVG Export Plug-In . SVG Version: 6.00 Build 0)  -->
<svg version="1.1" id="Capa_1" xmlns="http://www.w3.org/2000/svg" xmlns:xlink="http://www.w3.org/1999/xlink" x="0px" y="0px"
	 viewBox="0 0 468.311 468.311" style="enable-background:new 0 0 468.311 468.311;" xml:space="preserve">
<rect x="77.79" y="90.974" style="fill:#27A2DB;" width="312.757" height="285.103"/>
<rect x="68.443" y="83.281" style="fill:#3A556A;" width="331.426" height="7.705"/>
<g>
	<rect x="97.296" y="72.898" style="fill:#64798A;" width="267.058" height="10.384"/>
	<rect x="77.79" y="376.089" style="fill:#64798A;" width="312.757" height="92.204"/>
</g>
<g>
	<rect x="77.79" y="148.542" style="fill:#3A556A;" width="312.757" height="9.928"/>
	<rect x="77.79" y="232.286" style="fill:#3A556A;" width="312.757" height="9.928"/>
	<rect x="77.79" y="309.822" style="fill:#3A556A;" width="312.757" height="9.928"/>
</g>
<rect x="203.629" y="392.304" style="fill:#D5D6DB;" width="61.053" height="76.007"/>
<g>
	<rect x="218.396" y="389.413" style="fill:#64798A;" width="4.983" height="78.879"/>
	<rect x="244.945" y="389.413" style="fill:#64798A;" width="4.983" height="78.879"/>
</g>
<rect x="127.991" style="fill:#D5D6DB;" width="205.712" height="72.898"/>
<g>
	<path style="fill:#3A556A;" d="M172.416,18.821h7.971v35.715h-7.971v-14.05h-14.204v14.05h-7.971V18.821h7.971v14.921h14.204
		V18.821z"/>
	<path style="fill:#3A556A;" d="M219.214,49.605c-3.609,3.526-8.054,5.289-13.335,5.289c-5.281,0-9.726-1.763-13.335-5.289
		c-3.613-3.524-5.418-7.911-5.418-13.156s1.805-9.63,5.418-13.156c3.609-3.526,8.054-5.289,13.335-5.289
		c5.281,0,9.726,1.763,13.335,5.289s5.418,7.911,5.418,13.156S222.823,46.081,219.214,49.605z M216.507,36.474
		c0-3.183-1.023-5.9-3.064-8.148c-2.046-2.249-4.557-3.374-7.538-3.374c-2.981,0-5.493,1.125-7.534,3.374
		c-2.046,2.247-3.069,4.965-3.069,8.148c0,3.187,1.023,5.894,3.069,8.125c2.042,2.231,4.553,3.347,7.534,3.347
		c2.981,0,5.493-1.116,7.538-3.347C215.484,42.368,216.507,39.661,216.507,36.474z"/>
	<path style="fill:#3A556A;" d="M245.53,25.719v28.817h-7.971V25.719h-10.116v-6.898h28.204v6.898H245.53z"/>
	<path style="fill:#3A556A;" d="M287.222,18.821v7.102h-17.78v7.358h15.992v6.796h-15.992v7.41h18.341v7.05h-26.312V18.821H287.222z
		"/>
	<path style="fill:#3A556A;" d="M294.886,54.536V18.821h7.971v28.613h15.227v7.102H294.886z"/>
</g>
<rect x="97.296" y="105.572" style="fill:#D5D6DB;" width="52.93" height="29.659"/>
<polygon style="fill:#EBF0F3;" points="97.31,135.23 97.31,105.571 150.241,105.571 "/>
<rect x="170.449" y="105.572" style="fill:#D5D6DB;" width="52.93" height="29.659"/>
<polygon style="fill:#EBF0F3;" points="170.451,135.23 170.451,105.571 223.381,105.571 "/>
<rect x="243.59" y="105.572" style="fill:#D5D6DB;" width="52.93" height="29.659"/>
<polygon style="fill:#EBF0F3;" points="243.591,135.23 243.591,105.571 296.521,105.571 "/>
<rect x="316.706" y="105.572" style="fill:#D5D6DB;" width="52.93" height="29.659"/>
<polygon style="fill:#EBF0F3;" points="316.731,135.23 316.731,105.571 369.662,105.571 "/>
<rect x="97.982" y="180.499" style="fill:#D5D6DB;" width="52.93" height="29.659"/>
<polygon style="fill:#EBF0F3;" points="97.986,210.157 97.986,180.498 150.917,180.498 "/>
<rect x="171.124" y="180.499" style="fill:#D5D6DB;" width="52.93" height="29.659"/>
<polygon style="fill:#EBF0F3;" points="171.127,210.157 171.127,180.498 224.057,180.498 "/>
<rect x="244.265" y="180.499" style="fill:#D5D6DB;" width="52.93" height="29.659"/>
<polygon style="fill:#EBF0F3;" points="244.267,210.157 244.267,180.498 297.197,180.498 "/>
<rect x="317.393" y="180.499" style="fill:#D5D6DB;" width="52.93" height="29.659"/>
<polygon style="fill:#EBF0F3;" points="317.407,210.157 317.407,180.498 370.338,180.498 "/>
<rect x="97.982" y="263.493" style="fill:#D5D6DB;" width="52.93" height="29.659"/>
<polygon style="fill:#EBF0F3;" points="97.986,293.148 97.986,263.49 150.917,263.49 "/>
<rect x="171.124" y="263.493" style="fill:#D5D6DB;" width="52.93" height="29.659"/>
<polygon style="fill:#EBF0F3;" points="171.127,293.148 171.127,263.49 224.057,263.49 "/>
<rect x="244.265" y="263.493" style="fill:#D5D6DB;" width="52.93" height="29.659"/>
<polygon style="fill:#EBF0F3;" points="244.267,293.148 244.267,263.49 297.197,263.49 "/>
<rect x="317.393" y="263.493" style="fill:#D5D6DB;" width="52.93" height="29.659"/>
<polygon style="fill:#EBF0F3;" points="317.407,293.148 317.407,263.49 370.338,263.49 "/>
<rect x="97.982" y="329.553" style="fill:#D5D6DB;" width="52.93" height="29.659"/>
<polygon style="fill:#EBF0F3;" points="97.986,359.224 97.986,329.565 150.917,329.565 "/>
<rect x="171.124" y="329.553" style="fill:#D5D6DB;" width="52.93" height="29.659"/>
<polygon style="fill:#EBF0F3;" points="171.127,359.224 171.127,329.565 224.057,329.565 "/>
<rect x="244.265" y="329.553" style="fill:#D5D6DB;" width="52.93" height="29.659"/>
<polygon style="fill:#EBF0F3;" points="244.267,359.224 244.267,329.565 297.197,329.565 "/>
<rect x="317.393" y="329.553" style="fill:#D5D6DB;" width="52.93" height="29.659"/>
<polygon style="fill:#EBF0F3;" points="317.407,359.224 317.407,329.565 370.338,329.565 "/>
<g>
</g>
<g>
</g>
<g>
</g>
<g>
</g>
<g>
</g>
<g>
</g>
<g>
</g>
<g>
</g>
<g>
</g>
<g>
</g>
<g>
</g>
<g>
</g>
<g>
</g>
<g>
</g>
<g>
</g>
</svg>
