<?xml version="1.0" encoding="iso-8859-1"?>
<!-- Generator: Adobe Illustrator 19.0.0, SVG Export Plug-In . SVG Version: 6.00 Build 0)  -->
<svg version="1.1" id="Capa_1" xmlns="http://www.w3.org/2000/svg" xmlns:xlink="http://www.w3.org/1999/xlink" x="0px" y="0px"
	 viewBox="0 0 468.293 468.293" style="enable-background:new 0 0 468.293 468.293;" xml:space="preserve">
<rect x="0" y="177.214" style="fill:#E56353;" width="468.293" height="172.956"/>
<path style="fill:#E1E6E9;" d="M0,350.172v37.675c0,9.853,7.988,17.84,17.84,17.84h432.613c9.853,0,17.84-7.987,17.84-17.84v-37.675
	H0z"/>
<path style="fill:#D15241;" d="M299.644,177.214H168.648c-31.189,21.059-51.7,56.733-51.7,97.199
	c0,28.907,10.516,55.323,27.863,75.759h178.67c17.349-20.436,27.863-46.853,27.863-75.759
	C351.344,233.947,330.835,198.272,299.644,177.214z"/>
<path style="fill:#D5D6DB;" d="M144.811,350.172c21.498,25.323,53.514,41.438,89.335,41.438s67.837-16.115,89.335-41.438H144.811z"
	/>
<path style="fill:#64798A;" d="M86.267,101.85H35.684c-2.282,0-4.132,1.85-4.132,4.132v14.712h58.848v-14.712
	C90.399,103.7,88.549,101.85,86.267,101.85z"/>
<path style="fill:#D5D6DB;" d="M303.193,76.428c-2.043-4.825-6.777-7.959-12.017-7.959H177.117c-5.24,0-9.972,3.134-12.017,7.959
	l-21.35,50.386h180.794L303.193,76.428z"/>
<path style="fill:#E1E6E9;" d="M450.453,118.021H17.84c-9.851,0-17.84,7.987-17.84,17.84v41.353h468.292v-41.353
	C468.292,126.008,460.306,118.021,450.453,118.021z"/>
<circle style="fill:#64798A;" cx="234.146" cy="260.495" r="117.198"/>
<circle style="fill:#3A556A;" cx="234.146" cy="260.495" r="85.142"/>
<circle style="fill:#64798A;" cx="234.146" cy="260.495" r="52.368"/>
<circle style="fill:#27A2DB;" cx="234.146" cy="260.495" r="27.323"/>
<g>
	<circle style="fill:#FFFFFF;" cx="252.322" cy="242.325" r="6.156"/>
	<circle style="fill:#FFFFFF;" cx="216.226" cy="278.477" r="4.833"/>
</g>
<g>
	<path style="fill:#64798A;" d="M274.808,88.89h-81.323c-4.833,0-8.751,3.918-8.751,8.751c0,4.834,3.918,8.752,8.751,8.752h81.323
		c4.833,0,8.751-3.918,8.751-8.752C283.56,92.808,279.641,88.89,274.808,88.89z"/>
	<rect x="345.057" y="62.607" style="fill:#64798A;" width="85.335" height="55.415"/>
</g>
<rect x="354.466" y="75.619" style="fill:#FCD462;" width="66.56" height="30.651"/>
<g>
</g>
<g>
</g>
<g>
</g>
<g>
</g>
<g>
</g>
<g>
</g>
<g>
</g>
<g>
</g>
<g>
</g>
<g>
</g>
<g>
</g>
<g>
</g>
<g>
</g>
<g>
</g>
<g>
</g>
</svg>
