<?xml version="1.0" encoding="iso-8859-1"?>
<!-- Generator: Adobe Illustrator 19.0.0, SVG Export Plug-In . SVG Version: 6.00 Build 0)  -->
<svg version="1.1" id="Capa_1" xmlns="http://www.w3.org/2000/svg" xmlns:xlink="http://www.w3.org/1999/xlink" x="0px" y="0px"
	 viewBox="0 0 468.293 468.293" style="enable-background:new 0 0 468.293 468.293;" xml:space="preserve">
<g>
	<circle style="fill:#2F4859;" cx="234.146" cy="220.847" r="39.58"/>
	<path style="fill:#2F4859;" d="M76.925,92.956c-3.574,0-7.152-1.364-9.877-4.093c-5.457-5.457-5.457-14.297,0-19.753
		C111.617,24.542,170.959,0,234.148,0S356.68,24.542,401.244,69.11c5.457,5.457,5.457,14.297,0,19.753
		c-5.45,5.457-14.297,5.457-19.753,0c-39.292-39.289-91.619-60.925-147.343-60.925c-55.727,0-108.054,21.636-147.346,60.925
		C84.077,91.592,80.499,92.956,76.925,92.956z"/>
	<path style="fill:#2F4859;" d="M351.857,132.47c-3.574,0-7.152-1.364-9.877-4.093c-59.458-59.458-156.203-59.458-215.668,0
		c-5.45,5.457-14.304,5.457-19.753,0c-5.457-5.457-5.457-14.297,0-19.753c70.358-70.358,184.831-70.351,255.175,0
		c5.457,5.457,5.457,14.297,0,19.753C359.009,131.105,355.431,132.47,351.857,132.47z"/>
	<path style="fill:#2F4859;" d="M155.946,171.983c-3.574,0-7.148-1.364-9.877-4.093c-5.457-5.457-5.457-14.297,0-19.753
		c48.558-48.565,127.586-48.572,176.151-0.007c5.457,5.457,5.457,14.297,0,19.753c-5.45,5.457-14.297,5.457-19.753,0
		c-37.679-37.665-98.972-37.672-136.644,0.007C163.098,170.619,159.52,171.983,155.946,171.983z"/>
</g>
<path style="fill:#EBF0F3;" d="M41.486,321.988v121.641c0,13.621,11.042,24.663,24.663,24.663h335.994
	c13.621,0,24.663-11.042,24.663-24.663V321.988c0-13.621-11.042-24.663-24.663-24.663H66.15
	C52.528,297.325,41.486,308.367,41.486,321.988z"/>
<g>
	<path style="fill:#E56353;" d="M150.171,431.706l-22.038-69.656h17.906l13.052,45.651l12.003-45.651h17.775l11.609,45.651
		l13.315-45.651h18.168l-22.366,69.656h-17.709l-12.003-44.798l-11.806,44.798H150.171z"/>
	<path style="fill:#E56353;" d="M241.669,352.605v-17.053H260.1v17.053H241.669z M241.669,431.706V362.05H260.1v69.656H241.669z"/>
	<path style="fill:#E56353;" d="M268.929,362.05h10.232v-5.247c0-5.856,0.623-10.232,1.869-13.118
		c1.246-2.886,3.542-5.238,6.887-7.046c3.345-1.818,7.576-2.727,12.692-2.727c5.247,0,10.387,0.787,15.414,2.361l-2.492,12.856
		c-2.928-0.703-5.748-1.049-8.461-1.049c-2.666,0-4.582,0.628-5.739,1.865c-1.157,1.256-1.738,3.645-1.738,7.187v4.919h13.774
		v14.495h-13.774v55.161h-18.431v-55.161h-10.232V362.05z"/>
	<path style="fill:#E56353;" d="M321.729,352.605v-17.053h18.431v17.053H321.729z M321.729,431.706V362.05h18.431v69.656H321.729z"
		/>
</g>
<g>
</g>
<g>
</g>
<g>
</g>
<g>
</g>
<g>
</g>
<g>
</g>
<g>
</g>
<g>
</g>
<g>
</g>
<g>
</g>
<g>
</g>
<g>
</g>
<g>
</g>
<g>
</g>
<g>
</g>
</svg>
