<?xml version="1.0" encoding="iso-8859-1"?>
<!-- Generator: Adobe Illustrator 19.0.0, SVG Export Plug-In . SVG Version: 6.00 Build 0)  -->
<svg version="1.1" id="Capa_1" xmlns="http://www.w3.org/2000/svg" xmlns:xlink="http://www.w3.org/1999/xlink" x="0px" y="0px"
	 viewBox="0 0 468.293 468.293" style="enable-background:new 0 0 468.293 468.293;" xml:space="preserve">
<path style="fill:#64798A;" d="M251.881,433.783c-5.013,0-9.711-3.124-11.468-8.125L94.555,50.719
	c-2.239-6.337,1.087-13.28,7.424-15.513c6.337-2.233,13.286,1.087,15.513,7.424l145.857,374.939
	c2.239,6.337-1.087,13.28-7.424,15.513C254.589,433.557,253.223,433.783,251.881,433.783z"/>
<path style="fill:#EBF0F3;" d="M112.747,60.374C24.802,91.383-21.355,187.813,9.655,275.758l318.478-112.295
	C297.123,75.518,200.691,29.365,112.747,60.374z"/>
<path style="fill:#E56353;" d="M112.747,60.374C58.748,79.414,40.11,166.141,71.119,254.086l195.548-68.95
	C235.658,97.19,166.746,41.334,112.747,60.374z"/>
<path style="fill:#EBF0F3;" d="M112.747,60.374c-24.958,8.8-20.053,87.226,10.956,175.171l90.382-31.869
	C183.075,115.731,137.705,51.574,112.747,60.374z"/>
<g>
	<path style="fill:#64798A;" d="M463.57,400.048l-50.502-39.056h-39.46c0.442,0.479,0.912,0.942,1.446,1.355l73.633,56.944
		c2.215,1.71,4.835,2.543,7.436,2.543c3.634,0,7.233-1.622,9.627-4.723C469.859,411.797,468.885,404.158,463.57,400.048z"/>
	<path style="fill:#64798A;" d="M226.856,360.992l-50.503,39.056c-5.316,4.11-6.29,11.748-2.179,17.063
		c2.399,3.101,5.992,4.723,9.627,4.723c2.601,0,5.22-0.832,7.436-2.543l73.633-56.944c0.534-0.413,1.003-0.877,1.445-1.355H226.856z
		"/>
</g>
<path style="fill:#DC8744;" d="M446.81,364.889H193.113c-3.225,0-6.319-1.283-8.6-3.564l-73.717-73.717
	c-4.751-4.751-4.751-12.448,0-17.2c4.751-4.751,12.448-4.751,17.2,0l70.153,70.153h248.66c6.717,0,12.163,5.446,12.163,12.163
	C458.973,359.442,453.527,364.889,446.81,364.889z"/>
<g>
</g>
<g>
</g>
<g>
</g>
<g>
</g>
<g>
</g>
<g>
</g>
<g>
</g>
<g>
</g>
<g>
</g>
<g>
</g>
<g>
</g>
<g>
</g>
<g>
</g>
<g>
</g>
<g>
</g>
</svg>
