<?xml version="1.0" encoding="iso-8859-1"?>
<!-- Generator: Adobe Illustrator 19.0.0, SVG Export Plug-In . SVG Version: 6.00 Build 0)  -->
<svg version="1.1" id="Capa_1" xmlns="http://www.w3.org/2000/svg" xmlns:xlink="http://www.w3.org/1999/xlink" x="0px" y="0px"
	 viewBox="0 0 468.293 468.293" style="enable-background:new 0 0 468.293 468.293;" xml:space="preserve">
<g>
	<path style="fill:#2F4859;" d="M146.602,126.621V88.911h7.703v14.842h15.094V88.911h7.703v37.709h-7.703v-16.488h-15.094v16.488
		H146.602z"/>
	<path style="fill:#2F4859;" d="M183.504,107.998c0-3.841,0.581-7.065,1.744-9.672c0.867-1.921,2.052-3.644,3.552-5.17
		c1.501-1.526,3.145-2.658,4.932-3.395c2.377-0.995,5.118-1.492,8.224-1.492c5.621,0,10.119,1.723,13.493,5.17
		c3.374,3.447,5.062,8.24,5.062,14.379c0,6.088-1.674,10.851-5.023,14.289s-7.825,5.157-13.428,5.157
		c-5.673,0-10.184-1.711-13.532-5.132C185.178,118.711,183.504,114,183.504,107.998z M191.441,107.74c0,4.27,0.998,7.507,2.993,9.71
		c1.995,2.204,4.528,3.305,7.599,3.305c3.071,0,5.591-1.093,7.56-3.28c1.969-2.186,2.954-5.466,2.954-9.839
		c0-4.321-0.959-7.545-2.876-9.672c-1.917-2.126-4.463-3.19-7.638-3.19c-3.175,0-5.734,1.076-7.677,3.228
		C192.413,100.157,191.441,103.402,191.441,107.74z"/>
	<path style="fill:#2F4859;" d="M235.109,126.621v-31.33h-11.32v-6.379h30.318v6.379h-11.294v31.33H235.109z"/>
	<path style="fill:#2F4859;" d="M259.077,126.621V88.911h28.288v6.379H266.78v8.36h19.154v6.353H266.78v10.263h21.314v6.353H259.077
		z"/>
	<path style="fill:#2F4859;" d="M294.834,126.621V89.22h7.703v31.047h19.154v6.353H294.834z"/>
</g>
<rect x="78.736" y="137.06" style="fill:#EBF0F3;" width="310.834" height="282.224"/>
<g>
	<polygon style="fill:#E1E6E9;" points="418.168,171.435 418.168,419.596 389.564,419.263 389.564,137.058 	"/>
	<polygon style="fill:#E1E6E9;" points="49.925,171.435 49.925,419.596 78.529,419.263 78.529,137.058 	"/>
</g>
<path style="fill:#D5D6DB;" d="M304.655,316.081c-20.817,0-37.692,16.679-37.692,37.255v65.927h75.384v-65.927
	C342.346,332.76,325.471,316.081,304.655,316.081z"/>
<g>
	<rect x="118.035" y="322.747" style="fill:#2E9AE1;" width="39.849" height="48.777"/>
	<rect x="181.398" y="322.747" style="fill:#2E9AE1;" width="39.849" height="48.777"/>
	<rect x="118.035" y="249.069" style="fill:#2E9AE1;" width="39.849" height="48.777"/>
	<rect x="181.398" y="249.069" style="fill:#2E9AE1;" width="39.849" height="48.777"/>
	<rect x="118.035" y="175.41" style="fill:#2E9AE1;" width="39.849" height="48.777"/>
	<rect x="181.398" y="175.41" style="fill:#2E9AE1;" width="39.849" height="48.777"/>
	<rect x="253.065" y="249.069" style="fill:#2E9AE1;" width="39.849" height="48.777"/>
	<rect x="316.441" y="249.069" style="fill:#2E9AE1;" width="39.849" height="48.777"/>
	<rect x="253.065" y="175.41" style="fill:#2E9AE1;" width="39.849" height="48.777"/>
	<rect x="316.441" y="175.41" style="fill:#2E9AE1;" width="39.849" height="48.777"/>
</g>
<rect x="37.657" y="414.121" style="fill:#64798A;" width="392.972" height="28.472"/>
<rect x="15.61" y="439.82" style="fill:#3A556A;" width="437.073" height="28.472"/>
<g>
	<polygon style="fill:#FCD462;" points="74.341,45.595 78.965,59.66 93.927,59.66 81.823,68.353 86.446,82.418 74.341,73.725 
		62.237,82.418 66.86,68.353 54.756,59.66 69.718,59.66 	"/>
	<polygon style="fill:#FCD462;" points="141.633,18.122 148.532,39.11 170.858,39.11 152.796,52.08 159.695,73.068 141.633,60.097 
		123.571,73.068 130.47,52.08 112.408,39.11 134.734,39.11 	"/>
	<polygon style="fill:#FCD462;" points="393.951,45.595 389.328,59.66 374.365,59.66 386.47,68.353 381.847,82.418 393.951,73.725 
		406.056,82.418 401.432,68.353 413.537,59.66 398.575,59.66 	"/>
	<polygon style="fill:#FCD462;" points="326.66,18.122 319.761,39.11 297.435,39.11 315.497,52.08 308.598,73.068 326.66,60.097 
		344.722,73.068 337.823,52.08 355.885,39.11 333.559,39.11 	"/>
	<polygon style="fill:#FCD462;" points="234.146,0 243.321,27.909 273.01,27.909 248.991,45.158 258.166,73.068 234.146,55.819 
		210.127,73.068 219.302,45.158 195.282,27.909 224.972,27.909 	"/>
</g>
<g>
</g>
<g>
</g>
<g>
</g>
<g>
</g>
<g>
</g>
<g>
</g>
<g>
</g>
<g>
</g>
<g>
</g>
<g>
</g>
<g>
</g>
<g>
</g>
<g>
</g>
<g>
</g>
<g>
</g>
</svg>
