<?xml version="1.0" encoding="iso-8859-1"?>
<!-- Generator: Adobe Illustrator 19.0.0, SVG Export Plug-In . SVG Version: 6.00 Build 0)  -->
<svg version="1.1" id="Capa_1" xmlns="http://www.w3.org/2000/svg" xmlns:xlink="http://www.w3.org/1999/xlink" x="0px" y="0px"
	 viewBox="0 0 468.293 468.293" style="enable-background:new 0 0 468.293 468.293;" xml:space="preserve">
<g>
	<path style="fill:#D5D6DB;" d="M146.073,249.628c2.136-2.448,3.473-5.611,3.473-9.116v-24.585c0-7.695-6.236-13.931-13.931-13.931
		H43.902l-0.064,0.006v47.627H146.073z"/>
	<path style="fill:#D5D6DB;" d="M376.2,150.951H163.595V261h234.146v-88.507C397.741,160.595,388.098,150.951,376.2,150.951z"/>
	<path style="fill:#D5D6DB;" d="M118.639,129.721c-19.957,0-36.135,16.182-36.135,36.135c0,19.961,16.178,36.139,36.135,36.139
		s36.135-16.178,36.135-36.139C154.774,145.902,138.596,129.721,118.639,129.721z"/>
</g>
<path style="fill:#2F4859;" d="M438.322,165.162c-16.552,0-29.971,13.418-29.971,29.97v43.39H59.942V126.439
	c0-16.552-13.419-29.971-29.971-29.971C13.418,96.468,0,109.887,0,126.439v245.386h59.942v-73.361h348.409v73.361h59.942V195.131
	C468.293,178.579,454.875,165.162,438.322,165.162z"/>
<g>
</g>
<g>
</g>
<g>
</g>
<g>
</g>
<g>
</g>
<g>
</g>
<g>
</g>
<g>
</g>
<g>
</g>
<g>
</g>
<g>
</g>
<g>
</g>
<g>
</g>
<g>
</g>
<g>
</g>
</svg>
