<?xml version="1.0" encoding="iso-8859-1"?>
<!-- Generator: Adobe Illustrator 19.0.0, SVG Export Plug-In . SVG Version: 6.00 Build 0)  -->
<svg version="1.1" id="Capa_1" xmlns="http://www.w3.org/2000/svg" xmlns:xlink="http://www.w3.org/1999/xlink" x="0px" y="0px"
	 viewBox="0 0 468.293 468.293" style="enable-background:new 0 0 468.293 468.293;" xml:space="preserve">
<rect x="228.402" y="46.954" style="fill:#1C75A1;" width="11.445" height="29.758"/>
<path style="fill:#64798A;" d="M263.613,190.843V82.793c0-8.305-6.733-15.037-15.038-15.037h-28.856
	c-8.305,0-15.038,6.732-15.038,15.037v108.05H263.613z"/>
<path style="fill:#FCD462;" d="M234.147,0c0,0-19.84,27.806-19.84,38.762c0,10.959,8.883,19.841,19.84,19.841
	c10.957,0,19.839-8.881,19.839-19.841C253.986,27.806,234.147,0,234.147,0z"/>
<path style="fill:#E56353;" d="M234.146,28.386c0,0-11.599,15.105-11.599,20.481c0,5.378,5.193,9.736,11.599,9.736
	c6.405,0,11.598-4.358,11.598-9.736C245.745,43.491,234.146,28.386,234.146,28.386z"/>
<rect x="54.066" y="204.862" style="fill:#D15241;" width="360.167" height="220.66"/>
<rect x="54.066" y="258.91" style="fill:#2E9AE1;" width="360.167" height="166.656"/>
<rect x="54.066" y="210.357" style="fill:#F7BE56;" width="360.167" height="134.606"/>
<path style="fill:#FCD462;" d="M414.229,278.44v-81.647c0-11.716-9.497-21.213-21.213-21.213H75.277
	c-11.716,0-21.213,9.497-21.213,21.213v81.647H414.229z"/>
<path style="fill:#DC8744;" d="M414.229,196.794l0,35.487c-0.019,0.019-0.032,0.031-0.051,0.05
	c-32.857,0.634-32.119-12.798-63.386-12.798c-30.62,0-30.62,12.819-61.167,12.819c-30.547,0-30.547-12.819-61.167-12.819
	c-30.547,0-30.547,12.819-61.167,12.819c-30.547,0-30.547-12.819-61.094-12.819c-27.25,0-30.254,10.183-52.157,12.379v-35.119
	c0-11.716,9.497-21.213,21.213-21.213h317.764C404.732,175.581,414.229,185.078,414.229,196.794z"/>
<path style="fill:#D5D6DB;" d="M30.256,415.792L30.256,415.792c7.902,30.893,35.734,52.501,67.619,52.501h272.542
	c31.885,0,59.717-21.608,67.619-52.501l0,0H30.256z"/>
<g>
</g>
<g>
</g>
<g>
</g>
<g>
</g>
<g>
</g>
<g>
</g>
<g>
</g>
<g>
</g>
<g>
</g>
<g>
</g>
<g>
</g>
<g>
</g>
<g>
</g>
<g>
</g>
<g>
</g>
</svg>
