<?xml version="1.0" encoding="iso-8859-1"?>
<!-- Generator: Adobe Illustrator 19.0.0, SVG Export Plug-In . SVG Version: 6.00 Build 0)  -->
<svg version="1.1" id="Capa_1" xmlns="http://www.w3.org/2000/svg" xmlns:xlink="http://www.w3.org/1999/xlink" x="0px" y="0px"
	 viewBox="0 0 468.293 468.293" style="enable-background:new 0 0 468.293 468.293;" xml:space="preserve">
<path style="fill:#64798A;" d="M221.725,114.552V42.06c0-4.894-2.762-9.359-7.111-11.492c-39.942-19.556-80.444-19.556-120.386,0
	c-4.349,2.133-7.111,6.598-7.111,11.492v72.493H221.725z M112.278,50.313c28.286-11.921,56.001-11.921,84.287,0v56.814h-84.287
	V50.313z"/>
<path style="fill:#2F4859;" d="M112.278,66.921V50.313c28.286-11.921,56.001-11.921,84.287,0v16.608h25.16V42.06
	c0-4.894-2.762-9.359-7.111-11.492c-39.942-19.556-80.444-19.556-120.386,0c-4.349,2.133-7.111,6.598-7.111,11.492v24.861H112.278z"
	/>
<path style="fill:#D5D6DB;" d="M467.896,9.581c-1.72-6.838-8.565-10.884-15.302-9.2L380.47,19.09
	c-4.339,1.126-7.759,4.505-8.988,8.871l-77.888,234.517c-0.929,3.329-0.491,6.907,1.229,9.898l22.934,40.019
	c2.659,4.645,0.899,8.741,0.02,10.296c-0.88,1.545-3.499,5.153-8.786,5.153h-263.7c-4.87,0-13.022,0-42.586,38.025
	c-4.305,5.542-3.366,13.556,2.088,17.921c2.31,1.844,5.052,2.741,7.779,2.741c3.72,0,7.406-1.665,9.887-4.854
	c8.521-10.964,20.369-24.45,25.381-28.317h261.15c12.782,0,24.217-6.708,30.59-17.941c6.379-11.233,6.349-24.639-0.074-35.843
	l-20.246-35.334l74.449-222.247L458.825,25.1C465.557,23.356,469.621,16.409,467.896,9.581z"/>
<path style="fill:#E56353;" d="M261.665,105.853H47.175c-10.769,0-19.499,8.854-19.499,19.775v163.305
	c0,10.922,8.73,19.775,19.499,19.775h214.491c10.769,0,19.499-8.854,19.499-19.775V125.628
	C281.165,114.707,272.435,105.853,261.665,105.853z"/>
<g>
	<path style="fill:#CE412D;" d="M221.725,272.754c-6.949,0-12.58-5.711-12.58-12.758V154.561c0-7.047,5.632-12.758,12.58-12.758
		c6.949,0,12.58,5.711,12.58,12.758v105.435C234.305,267.043,228.673,272.754,221.725,272.754z"/>
	<path style="fill:#CE412D;" d="M154.421,272.754c-6.949,0-12.58-5.711-12.58-12.758V154.561c0-7.047,5.632-12.758,12.58-12.758
		c6.949,0,12.58,5.711,12.58,12.758v105.435C167.001,267.043,161.37,272.754,154.421,272.754z"/>
	<path style="fill:#CE412D;" d="M87.118,272.754c-6.949,0-12.58-5.711-12.58-12.758V154.561c0-7.047,5.632-12.758,12.58-12.758
		s12.58,5.711,12.58,12.758v105.435C99.698,267.043,94.066,272.754,87.118,272.754z"/>
</g>
<path style="fill:#2F4859;" d="M261.915,371.793c-26.276,0-47.576,21.603-47.576,48.251c0,26.645,21.3,48.248,47.576,48.248
	c26.275,0,47.576-21.603,47.576-48.248C309.491,393.396,288.19,371.793,261.915,371.793z"/>
<path style="fill:#EBF0F3;" d="M261.917,400.068c-10.863,0-19.698,8.96-19.698,19.977s8.835,19.977,19.698,19.977
	c10.856,0,19.691-8.96,19.691-19.977S272.773,400.068,261.917,400.068z"/>
<path style="fill:#2F4859;" d="M92.363,371.793c-26.276,0-47.576,21.603-47.576,48.251c0,26.645,21.3,48.248,47.576,48.248
	c26.275,0,47.576-21.603,47.576-48.248C139.939,393.396,118.638,371.793,92.363,371.793z"/>
<path style="fill:#EBF0F3;" d="M92.365,400.068c-10.863,0-19.698,8.96-19.698,19.977s8.835,19.977,19.698,19.977
	c10.856,0,19.691-8.96,19.691-19.977S103.221,400.068,92.365,400.068z"/>
<g>
</g>
<g>
</g>
<g>
</g>
<g>
</g>
<g>
</g>
<g>
</g>
<g>
</g>
<g>
</g>
<g>
</g>
<g>
</g>
<g>
</g>
<g>
</g>
<g>
</g>
<g>
</g>
<g>
</g>
</svg>
