<?xml version="1.0" encoding="iso-8859-1"?>
<!-- Generator: Adobe Illustrator 19.0.0, SVG Export Plug-In . SVG Version: 6.00 Build 0)  -->
<svg version="1.1" id="Capa_1" xmlns="http://www.w3.org/2000/svg" xmlns:xlink="http://www.w3.org/1999/xlink" x="0px" y="0px"
	 viewBox="0 0 468.293 468.293" style="enable-background:new 0 0 468.293 468.293;" xml:space="preserve">
<ellipse style="fill:#64798A;" cx="234.146" cy="234.146" rx="234.146" ry="158.289"/>
<g>
	<path style="fill:#FCD462;" d="M234.146,372.839c-109.943,0-199.382-62.221-199.382-138.692S124.203,95.454,234.146,95.454
		s199.382,62.221,199.382,138.692S344.089,372.839,234.146,372.839z M234.146,119.574c-96.635,0-175.262,51.397-175.262,114.572
		s78.627,114.572,175.262,114.572s175.262-51.397,175.262-114.572S330.781,119.574,234.146,119.574z"/>
	<path style="fill:#FCD462;" d="M207.47,285.273h-19.857v-74.835c-7.255,6.784-15.805,11.801-25.651,15.052v-18.02
		c5.182-1.696,10.812-4.911,16.889-9.646c6.077-4.735,10.246-10.258,12.508-16.571h16.112V285.273z"/>
	<path style="fill:#FCD462;" d="M304.423,207.046l-19.221,2.12c-0.471-3.957-1.696-6.878-3.675-8.763
		c-1.979-1.884-4.546-2.827-7.702-2.827c-4.193,0-7.738,1.884-10.635,5.653s-4.723,11.613-5.477,23.532
		c4.947-5.842,11.094-8.762,18.444-8.762c8.291,0,15.393,3.156,21.306,9.469c5.912,6.313,8.868,14.463,8.868,24.45
		c0,10.6-3.109,19.103-9.328,25.51s-14.204,9.61-23.956,9.61c-10.458,0-19.056-4.063-25.793-12.19s-10.105-21.447-10.105-39.961
		c0-18.985,3.51-32.671,10.529-41.057c7.019-8.386,16.135-12.578,27.347-12.578c7.867,0,14.38,2.202,19.539,6.607
		C299.724,192.265,303.01,198.661,304.423,207.046z M259.409,250.364c0,6.454,1.484,11.436,4.452,14.946
		c2.968,3.51,6.36,5.265,10.176,5.265c3.675,0,6.737-1.437,9.186-4.311c2.45-2.874,3.675-7.585,3.675-14.133
		c0-6.737-1.319-11.672-3.957-14.804c-2.638-3.133-5.936-4.699-9.893-4.699c-3.816,0-7.043,1.496-9.681,4.487
		C260.728,240.106,259.409,244.522,259.409,250.364z"/>
	<circle style="fill:#FCD462;" cx="357.513" cy="234.146" r="22.615"/>
	<circle style="fill:#FCD462;" cx="110.779" cy="234.146" r="22.615"/>
</g>
<g>
</g>
<g>
</g>
<g>
</g>
<g>
</g>
<g>
</g>
<g>
</g>
<g>
</g>
<g>
</g>
<g>
</g>
<g>
</g>
<g>
</g>
<g>
</g>
<g>
</g>
<g>
</g>
<g>
</g>
</svg>
