<?xml version="1.0" encoding="iso-8859-1"?>
<!-- Generator: Adobe Illustrator 19.0.0, SVG Export Plug-In . SVG Version: 6.00 Build 0)  -->
<svg version="1.1" id="Capa_1" xmlns="http://www.w3.org/2000/svg" xmlns:xlink="http://www.w3.org/1999/xlink" x="0px" y="0px"
	 viewBox="0 0 468.293 468.293" style="enable-background:new 0 0 468.293 468.293;" xml:space="preserve">
<g>
	<path style="fill:#3A556A;" d="M62.121,379.828l-32.37,42.998c-5.953,7.913-4.377,19.153,3.537,25.106
		c3.233,2.428,7.015,3.607,10.773,3.607c5.439,0,10.808-2.463,14.333-7.143L107,379.828H62.121z"/>
	<path style="fill:#3A556A;" d="M406.172,379.828h-44.879l48.607,64.568c3.525,4.68,8.894,7.143,14.333,7.143
		c3.758,0,7.54-1.179,10.773-3.607c7.913-5.953,9.489-17.192,3.536-25.106L406.172,379.828z"/>
</g>
<path style="fill:#64798A;" d="M390.572,16.754c-33.397,0-60.573,27.176-60.573,60.573v16.808h14.016V77.327
	c0-25.671,20.887-46.557,46.557-46.557s46.557,20.887,46.557,46.557v191.421h14.016V77.327
	C451.146,43.93,423.969,16.754,390.572,16.754z"/>
<path style="fill:#D5D6DB;" d="M0,256.575v36.229c0,53.839,43.643,97.482,97.482,97.482h273.329
	c53.838,0,97.482-43.643,97.482-97.482v-36.229H0z"/>
<path style="fill:#2E9AE1;" d="M337.01,144.133c0,0-23.343,26.748-23.343,55.318s10.452,38.843,23.343,38.843
	s23.343-10.274,23.343-38.843S337.01,144.133,337.01,144.133z"/>
<path style="fill:#64798A;" d="M374.733,83.274h-75.446c-11.758,0-21.289,9.53-21.289,21.289s9.531,21.289,21.289,21.289h75.446
	c11.758,0,21.289-9.53,21.289-21.289S386.49,83.274,374.733,83.274z"/>
<path style="fill:#EBF0F3;" d="M401.721,314.008H206.683c-7.74,0-14.016-6.276-14.016-14.016s6.276-14.016,14.016-14.016h195.037
	c7.74,0,14.016,6.276,14.016,14.016S409.461,314.008,401.721,314.008z"/>
<g>
</g>
<g>
</g>
<g>
</g>
<g>
</g>
<g>
</g>
<g>
</g>
<g>
</g>
<g>
</g>
<g>
</g>
<g>
</g>
<g>
</g>
<g>
</g>
<g>
</g>
<g>
</g>
<g>
</g>
</svg>
