<?xml version="1.0" encoding="iso-8859-1"?>
<!-- Generator: Adobe Illustrator 19.0.0, SVG Export Plug-In . SVG Version: 6.00 Build 0)  -->
<svg version="1.1" id="Capa_1" xmlns="http://www.w3.org/2000/svg" xmlns:xlink="http://www.w3.org/1999/xlink" x="0px" y="0px"
	 viewBox="0 0 468.293 468.293" style="enable-background:new 0 0 468.293 468.293;" xml:space="preserve">
<g>
	<path style="fill:#2F4859;" d="M338.545,423.739v16.14c0,7.826,6.345,14.172,14.171,14.172h36.723
		c7.826,0,14.171-6.346,14.171-14.172v-16.14H338.545z"/>
	<path style="fill:#2F4859;" d="M64.683,423.739v16.14c0,7.826,6.345,14.172,14.172,14.172h36.72
		c7.827,0,14.172-6.346,14.172-14.172v-16.14H64.683z"/>
</g>
<path style="fill:#D5D6DB;" d="M0,33.528v375.266c0,10.652,8.635,19.287,19.287,19.287h429.719c10.652,0,19.287-8.635,19.287-19.287
	V33.528c0-10.652-8.635-19.287-19.287-19.287H19.287C8.635,14.241,0,22.876,0,33.528z"/>
<rect x="37.026" y="42.727" style="fill:#FCD462;" width="394.24" height="356.901"/>
<g>
	<path style="fill:#2F4859;" d="M337.61,221.822c0-0.013,0.002-0.023,0.002-0.023c0-46.543-37.868-84.411-84.402-84.411
		c-0.013,0-0.028,0.003-0.043,0.003c-0.003,0-0.007-0.003-0.01-0.003c-0.007,0-0.011,0.003-0.018,0.003
		c-23.123,0.02-44.094,9.395-59.343,24.533c-0.101,0.088-0.231,0.118-0.327,0.216c-0.106,0.105-0.141,0.249-0.239,0.36
		c-15.081,15.256-24.422,36.199-24.422,59.289c0,46.533,37.868,84.402,84.402,84.402c46.515,0,84.369-37.842,84.398-84.349
		l0.003-0.013L337.61,221.822z M307.64,266.821l-38.295-38.29h54.183C322.134,243.04,316.459,256.182,307.64,266.821z
		 M182.893,228.531h54.091l-38.246,38.241C189.942,256.14,184.286,243.017,182.893,228.531z M198.704,176.85l38.28,38.277h-54.098
		C184.263,200.627,189.911,187.495,198.704,176.85z M259.86,151.466c14.526,1.374,27.683,7.039,38.339,15.858l-38.339,38.333
		V151.466z M246.456,205.643l-38.284-38.28c10.639-8.819,23.776-14.49,38.284-15.887V205.643z M246.456,238.014v54.089
		c-14.489-1.394-27.609-7.052-38.241-15.855L246.456,238.014z M259.86,238.001l38.297,38.29
		c-10.65,8.799-23.79,14.448-38.297,15.822V238.001z M269.345,215.127l38.331-38.326c8.816,10.655,14.48,23.803,15.858,38.326
		H269.345z"/>
	<rect x="80.702" y="184.02" style="fill:#2F4859;" width="13.406" height="77.356"/>
	<path style="fill:#2F4859;" d="M87.401,196.308c11.064,0,20.028-8.965,20.028-20.024c0-11.06-8.965-20.032-20.028-20.032
		c-11.06,0-20.024,8.972-20.024,20.032C67.377,187.344,76.341,196.308,87.401,196.308z"/>
	<path style="fill:#2F4859;" d="M87.401,247.41c-10.983,0-19.885,8.906-19.885,19.889c0,10.983,8.902,19.885,19.885,19.885
		c10.987,0,19.889-8.902,19.889-19.885C107.29,256.316,98.388,247.41,87.401,247.41z"/>
</g>
<g>
	<path style="fill:#64798A;" d="M423.033,336.349h17.355c3.536,0,6.402-2.866,6.402-6.402v-55.749c0-3.536-2.866-6.402-6.402-6.402
		h-17.355c-3.536,0-6.402,2.866-6.402,6.402v55.749C416.631,333.483,419.498,336.349,423.033,336.349z"/>
	<path style="fill:#64798A;" d="M416.631,112.375v55.746c0,3.536,2.866,6.402,6.402,6.402h17.355c3.536,0,6.402-2.866,6.402-6.402
		v-55.746c0-3.536-2.866-6.402-6.402-6.402h-17.355C419.498,105.973,416.631,108.839,416.631,112.375z"/>
</g>
<g>
</g>
<g>
</g>
<g>
</g>
<g>
</g>
<g>
</g>
<g>
</g>
<g>
</g>
<g>
</g>
<g>
</g>
<g>
</g>
<g>
</g>
<g>
</g>
<g>
</g>
<g>
</g>
<g>
</g>
</svg>
