<?xml version="1.0" encoding="iso-8859-1"?>
<!-- Generator: Adobe Illustrator 19.0.0, SVG Export Plug-In . SVG Version: 6.00 Build 0)  -->
<svg version="1.1" id="Capa_1" xmlns="http://www.w3.org/2000/svg" xmlns:xlink="http://www.w3.org/1999/xlink" x="0px" y="0px"
	 viewBox="0 0 468.293 468.293" style="enable-background:new 0 0 468.293 468.293;" xml:space="preserve">
<path style="fill:#D5D6DB;" d="M2.114,394.456l44.997-118.918c4.159-9.883,13.836-16.31,24.558-16.31h324.954
	c10.722,0,20.4,6.427,24.558,16.31l44.997,118.918c7.389,17.561-5.506,36.978-24.558,36.978H26.672
	C7.619,431.434-5.276,412.018,2.114,394.456z"/>
<polygon style="fill:#EBF0F3;" points="398.411,283.187 69.881,283.187 22.633,407.475 445.66,407.475 "/>
<ellipse style="fill:#E1E6E9;" cx="234.146" cy="339.344" rx="50.388" ry="22.459"/>
<path style="fill:#F7BE56;" d="M234.146,36.859c-62.439,0-113.057,50.618-113.057,113.057s113.057,189.426,113.057,189.426
	s113.057-126.987,113.057-189.426S296.585,36.859,234.146,36.859z"/>
<circle style="fill:#EBF0F3;" cx="234.146" cy="149.916" r="60.647"/>
<g>
</g>
<g>
</g>
<g>
</g>
<g>
</g>
<g>
</g>
<g>
</g>
<g>
</g>
<g>
</g>
<g>
</g>
<g>
</g>
<g>
</g>
<g>
</g>
<g>
</g>
<g>
</g>
<g>
</g>
</svg>
