<?xml version="1.0" encoding="iso-8859-1"?>
<!-- Generator: Adobe Illustrator 19.0.0, SVG Export Plug-In . SVG Version: 6.00 Build 0)  -->
<svg version="1.1" id="Capa_1" xmlns="http://www.w3.org/2000/svg" xmlns:xlink="http://www.w3.org/1999/xlink" x="0px" y="0px"
	 viewBox="0 0 468.293 468.293" style="enable-background:new 0 0 468.293 468.293;" xml:space="preserve">
<path style="fill:#64798A;" d="M326.96,116.044V75.728c0-25.955-21.116-47.071-47.071-47.071h-91.483
	c-25.955,0-47.071,21.116-47.071,47.071v40.316H326.96z M168.545,77.143c0-11.945,9.712-21.657,21.657-21.657h87.892
	c11.945,0,21.657,9.712,21.657,21.657v34.634l-131.206-2.296V77.143z"/>
<path style="fill:#F7BE56;" d="M468.293,136.049V407.12c0,17.93-14.582,32.515-32.646,32.515H32.646
	C14.585,439.635,0,425.05,0,407.12V136.049c0-17.93,14.585-32.515,32.646-32.515h403.001
	C453.711,103.533,468.293,118.118,468.293,136.049z"/>
<rect x="132.371" y="175.135" style="fill:#FCD462;" width="61.883" height="43.483"/>
<rect x="196.605" y="323.487" transform="matrix(-0.5602 0.8283 -0.8283 -0.5602 665.0856 387.3901)" style="fill:#EBF0F3;" width="66.21" height="93.509"/>
<polygon style="fill:#44C4A1;" points="317.165,117.912 304.779,109.36 268.717,115.963 226.668,176.864 281.72,214.874 
	323.769,153.973 "/>
<circle style="fill:#FFFFFF;" cx="293.944" cy="138.296" r="10.908"/>
<g>
	<rect x="356.589" y="103.524" style="fill:#DC8744;" width="49.371" height="336.103"/>
	<rect x="62.22" y="103.524" style="fill:#DC8744;" width="49.371" height="336.103"/>
</g>
<path style="fill:#2F4859;" d="M321.208,94.106c-1.594-0.928-3.632-0.444-4.599,1.124l-24.264,40.061
	c-0.954,1.581-0.457,3.645,1.124,4.599c0.549,0.327,1.15,0.483,1.738,0.483c1.124,0,2.234-0.575,2.862-1.607l24.264-40.061
	C323.285,97.124,322.789,95.06,321.208,94.106z"/>
<g>
</g>
<g>
</g>
<g>
</g>
<g>
</g>
<g>
</g>
<g>
</g>
<g>
</g>
<g>
</g>
<g>
</g>
<g>
</g>
<g>
</g>
<g>
</g>
<g>
</g>
<g>
</g>
<g>
</g>
</svg>
