<?xml version="1.0" encoding="iso-8859-1"?>
<!-- Generator: Adobe Illustrator 19.0.0, SVG Export Plug-In . SVG Version: 6.00 Build 0)  -->
<svg version="1.1" id="Capa_1" xmlns="http://www.w3.org/2000/svg" xmlns:xlink="http://www.w3.org/1999/xlink" x="0px" y="0px"
	 viewBox="0 0 468.293 468.293" style="enable-background:new 0 0 468.293 468.293;" xml:space="preserve">
<circle style="fill:#D5D6DB;" cx="234.896" cy="234.146" r="127.8"/>
<circle style="fill:#EBF0F3;" cx="234.896" cy="234.146" r="92.073"/>
<path style="fill:#FFFFFF;" d="M234.914,122.799c-2.161,0-3.91,1.749-3.91,3.91s1.749,3.91,3.91,3.91
	c57.085,0,103.527,46.442,103.527,103.523c0,2.161,1.749,3.91,3.91,3.91s3.91-1.749,3.91-3.91
	C346.261,172.747,296.31,122.799,234.914,122.799z"/>
<g>
	<path style="fill:#EBF0F3;" d="M69.8,83.3c-4.278,0-7.746,3.468-7.746,7.746v93.665H46.552V91.046c0-4.278-3.468-7.746-7.746-7.746
		h-0.054c-4.278,0-7.746,3.468-7.746,7.746v93.665H15.503V91.046c0-4.278-3.468-7.746-7.746-7.746C3.491,83.3,0,86.79,0,91.057
		v75.518c0,11.443,5.018,21.752,12.961,28.854c9.192,8.219,14.169,20.145,13.22,32.439l-8.955,116.04
		c-0.928,12.021,7.658,23.23,19.673,24.236c13.511,1.132,24.525-10.061,23.504-23.279l-9.029-116.997
		c-0.949-12.294,4.028-24.22,13.22-32.438c7.944-7.103,12.962-17.412,12.962-28.855V91.057C77.557,86.79,74.066,83.3,69.8,83.3z"/>
	<path style="fill:#EBF0F3;" d="M468.293,139.24c0-33.293-18.309-60.283-40.895-60.283s-40.895,26.99-40.895,60.283
		c0,29.066,13.955,53.314,32.525,59.009l-10.72,170.76c-0.692,11.013,8.054,20.327,19.09,20.327s19.781-9.314,19.09-20.327
		l-10.72-170.76C454.337,192.554,468.293,168.305,468.293,139.24z"/>
</g>
<path style="fill:#D5D6DB;" d="M448.048,112.944c-4.942-4.943-11.123-6.774-13.806-4.09c-2.683,2.681-0.851,8.864,4.091,13.804
	c4.942,4.943,11.123,6.774,13.806,4.09C454.822,124.068,452.991,117.885,448.048,112.944z"/>
<g>
</g>
<g>
</g>
<g>
</g>
<g>
</g>
<g>
</g>
<g>
</g>
<g>
</g>
<g>
</g>
<g>
</g>
<g>
</g>
<g>
</g>
<g>
</g>
<g>
</g>
<g>
</g>
<g>
</g>
</svg>
