<?xml version="1.0" encoding="iso-8859-1"?>
<!-- Generator: Adobe Illustrator 19.0.0, SVG Export Plug-In . SVG Version: 6.00 Build 0)  -->
<svg version="1.1" id="Capa_1" xmlns="http://www.w3.org/2000/svg" xmlns:xlink="http://www.w3.org/1999/xlink" x="0px" y="0px"
	 viewBox="0 0 468.293 468.293" style="enable-background:new 0 0 468.293 468.293;" xml:space="preserve">
<path style="fill:#EBF0F3;" d="M468.293,111.895v244.503c0,18.237-14.767,33.004-33.004,33.004H33.102
	C14.866,389.402,0,374.635,0,356.398V111.895c0-18.237,14.866-33.004,33.102-33.004h402.187
	C453.525,78.891,468.293,93.658,468.293,111.895z"/>
<path style="fill:#F7BE56;" d="M406.795,341.705h-72.474c-8.21,0-14.866-6.656-14.866-14.866v0c0-8.211,6.656-14.866,14.866-14.866
	h72.474c8.21,0,14.866,6.656,14.866,14.866v0C421.661,335.049,415.006,341.705,406.795,341.705z"/>
<circle style="fill:#E56353;" cx="401.533" cy="244.723" r="34.429"/>
<circle style="fill:#44C4A1;" cx="360.585" cy="244.723" r="34.429"/>
<g>
	<path style="fill:#2F4859;" d="M74.728,253.027c-1.09,4.559-2.874,7.929-5.252,10.109c-2.379,2.081-5.352,3.172-8.623,3.172
		c-4.559,0-8.325-1.686-11.199-5.055c-2.775-3.371-4.262-9.021-4.262-16.95c0-7.433,1.487-12.783,4.361-16.154
		c2.875-3.368,6.641-5.055,11.299-5.055c3.37,0,6.244,0.992,8.622,2.875c2.28,1.882,3.865,4.459,4.559,7.731l12.587-3.073
		c-1.487-4.955-3.568-8.822-6.442-11.496c-4.757-4.561-11.001-6.84-18.633-6.84c-8.821,0-15.857,2.974-21.309,8.723
		c-5.352,5.747-8.028,13.874-8.028,24.281c0,9.812,2.676,17.642,8.028,23.292c5.352,5.647,12.191,8.522,20.516,8.522
		c6.739,0,12.289-1.684,16.65-4.955c4.361-3.368,7.433-8.423,9.316-15.263L74.728,253.027z"/>
	<path style="fill:#2F4859;" d="M129.239,213.383h-13.38l-24.381,62.638h13.38l5.154-14.174h25.075l5.451,14.174h13.776
		L129.239,213.383z M113.877,251.244l8.523-23.193l8.622,23.193H113.877z"/>
	<path style="fill:#2F4859;" d="M209.716,263.831c-3.072-4.859-5.451-8.227-7.235-10.209c-1.784-1.885-3.965-3.668-6.739-5.253
		c5.451-0.794,9.613-2.676,12.389-5.749c2.775-3.073,4.162-6.937,4.162-11.694c0-3.666-0.892-6.937-2.775-9.812
		c-1.784-2.875-4.262-4.856-7.235-6.047c-3.072-1.089-7.929-1.684-14.668-1.684h-26.561v62.638h12.686v-26.166h2.478
		c2.973,0,5.055,0.298,6.442,0.694c1.288,0.496,2.577,1.386,3.766,2.676c1.189,1.29,3.369,4.36,6.64,9.217l9.118,13.579h15.164
		L209.716,263.831z M183.055,239.845h-9.316v-15.856h9.812c5.154,0,8.226,0.099,9.218,0.198c2.081,0.397,3.667,1.188,4.757,2.478
		c1.189,1.287,1.685,2.971,1.685,5.154c0,1.883-0.396,3.368-1.288,4.658c-0.793,1.287-1.982,2.18-3.469,2.674
		C192.867,239.649,189.101,239.845,183.055,239.845z"/>
	<path style="fill:#2F4859;" d="M274.632,230.529c-1.387-4.063-3.369-7.433-6.046-10.209c-2.577-2.676-5.749-4.658-9.416-5.749
		c-2.676-0.791-6.739-1.188-11.893-1.188h-23.093v62.638h23.786c4.658,0,8.425-0.397,11.199-1.29
		c3.667-1.188,6.641-2.872,8.821-5.055c2.973-2.773,5.154-6.441,6.739-11c1.288-3.767,1.883-8.227,1.883-13.381
		C276.615,239.45,276.02,234.495,274.632,230.529z M262.343,256.199c-0.892,2.875-1.982,4.856-3.369,6.044
		c-1.288,1.29-3.072,2.183-5.055,2.676c-1.586,0.397-4.162,0.595-7.632,0.595h-9.515v-41.526h5.749
		c5.154,0,8.622,0.198,10.308,0.595c2.379,0.494,4.361,1.486,5.847,2.971c1.586,1.488,2.775,3.47,3.667,6.047
		c0.793,2.577,1.288,6.342,1.288,11.198C263.631,249.56,263.136,253.424,262.343,256.199z"/>
	<rect y="123.067" style="fill:#2F4859;" width="468.293" height="49.558"/>
</g>
<g>
</g>
<g>
</g>
<g>
</g>
<g>
</g>
<g>
</g>
<g>
</g>
<g>
</g>
<g>
</g>
<g>
</g>
<g>
</g>
<g>
</g>
<g>
</g>
<g>
</g>
<g>
</g>
<g>
</g>
</svg>
