<?xml version="1.0" encoding="iso-8859-1"?>
<!-- Generator: Adobe Illustrator 19.0.0, SVG Export Plug-In . SVG Version: 6.00 Build 0)  -->
<svg version="1.1" id="Capa_1" xmlns="http://www.w3.org/2000/svg" xmlns:xlink="http://www.w3.org/1999/xlink" x="0px" y="0px"
	 viewBox="0 0 468.293 468.293" style="enable-background:new 0 0 468.293 468.293;" xml:space="preserve">
<g>
	<rect y="226.123" style="fill:#EBF0F3;" width="166.681" height="78.667"/>
	<path style="fill:#EBF0F3;" d="M67.201,205.308v86.251h401.091v-65.261c0-11.592-9.397-20.989-20.989-20.989H67.201z"/>
</g>
<g>
	<path style="fill:#2F4859;" d="M0,283.092v40.127c0,7.647,6.199,13.846,13.846,13.846h440.601c7.647,0,13.846-6.199,13.846-13.846
		v-40.127H0z"/>
	<path style="fill:#2F4859;" d="M28.838,110.591h-1.587C12.201,110.591,0,122.792,0,137.842v96.833
		c0,15.05,12.201,27.251,27.251,27.251H49.74c3.507,0,6.35-2.843,6.35-6.35V137.842C56.089,122.792,43.889,110.591,28.838,110.591z"
		/>
</g>
<path style="fill:#D5D6DB;" d="M134.05,167.21H82.194c-8.28,0-14.992,6.711-14.992,14.992c0,8.28,6.712,14.992,14.992,14.992h51.856
	c8.28,0,14.993-6.711,14.993-14.992C149.042,173.921,142.33,167.21,134.05,167.21z"/>
<path style="fill:#FCD462;" d="M436.897,173.206H317.663c-7.014,0-12.699,5.686-12.699,12.699c0,7.013,5.686,12.699,12.699,12.699
	h119.234c7.014,0,12.699-5.686,12.699-12.699C449.596,178.892,443.911,173.206,436.897,173.206z"/>
<g>
	<path style="fill:#2F4859;" d="M382.571,328.599v14.022c0,8.33,6.752,15.081,15.081,15.081h26.457
		c8.329,0,15.081-6.751,15.081-15.081v-14.022H382.571z"/>
	<path style="fill:#2F4859;" d="M49.21,328.599v14.022c0,8.33,6.752,15.081,15.081,15.081h26.457
		c8.329,0,15.081-6.751,15.081-15.081v-14.022H49.21z"/>
</g>
<g>
</g>
<g>
</g>
<g>
</g>
<g>
</g>
<g>
</g>
<g>
</g>
<g>
</g>
<g>
</g>
<g>
</g>
<g>
</g>
<g>
</g>
<g>
</g>
<g>
</g>
<g>
</g>
<g>
</g>
</svg>
