<?xml version="1.0" encoding="iso-8859-1"?>
<!-- Generator: Adobe Illustrator 19.0.0, SVG Export Plug-In . SVG Version: 6.00 Build 0)  -->
<svg version="1.1" id="Capa_1" xmlns="http://www.w3.org/2000/svg" xmlns:xlink="http://www.w3.org/1999/xlink" x="0px" y="0px"
	 viewBox="0 0 468.293 468.293" style="enable-background:new 0 0 468.293 468.293;" xml:space="preserve">
<g>
	<rect x="348.16" y="258.085" style="fill:#EBF0F3;" width="11.133" height="30.071"/>
	<rect x="421.776" y="243.431" style="fill:#EBF0F3;" width="11.133" height="30.071"/>
	<rect x="108.975" y="258.085" style="fill:#EBF0F3;" width="11.133" height="30.071"/>
	<rect x="35.353" y="243.431" style="fill:#EBF0F3;" width="11.133" height="30.071"/>
</g>
<g>
	<path style="fill:#D5D6DB;" d="M356.241,233.385c-27.322,5.632-52.164,15.694-71.132,25.791v26.072
		c20.332-4.62,47.358-11.525,76.718-17.578c60.684-12.509,108.088-16.555,106.422-24.635
		C466.585,234.954,416.925,220.876,356.241,233.385z"/>
	<path style="fill:#D5D6DB;" d="M112.052,233.385c27.322,5.632,52.164,15.694,71.132,25.791v26.072
		c-20.332-4.62-47.358-11.525-76.718-17.578C45.781,255.161-1.623,251.115,0.043,243.035
		C1.708,234.954,51.368,220.876,112.052,233.385z"/>
</g>
<path style="fill:#DC8744;" d="M390.42,299.578c-5.53-3.282-11.998-5.25-18.841-5.25c-20.153,0-36.556,16.404-36.556,36.558
	c0,6.934,1.968,13.403,5.249,18.838c-10.592-6.373-17.716-17.996-17.716-31.306c0-20.152,16.404-36.464,36.557-36.464
	C372.329,281.954,383.952,288.985,390.42,299.578z"/>
<circle style="fill:#3A556A;" cx="365.955" cy="323.122" r="21.285"/>
<circle style="fill:#64798A;" cx="365.955" cy="323.122" r="11.963"/>
<path style="fill:#DC8744;" d="M464.041,284.927c-5.53-3.282-11.998-5.25-18.841-5.25c-20.153,0-36.556,16.404-36.556,36.558
	c0,6.934,1.968,13.403,5.249,18.838c-10.592-6.373-17.716-17.996-17.716-31.306c0-20.152,16.404-36.464,36.557-36.464
	C445.95,267.304,457.573,274.334,464.041,284.927z"/>
<circle style="fill:#3A556A;" cx="439.577" cy="308.461" r="21.285"/>
<circle style="fill:#64798A;" cx="439.577" cy="308.461" r="11.963"/>
<path style="fill:#DC8744;" d="M77.873,299.578c5.53-3.282,11.998-5.25,18.841-5.25c20.153,0,36.556,16.404,36.556,36.558
	c0,6.934-1.968,13.403-5.249,18.838c10.592-6.373,17.716-17.996,17.716-31.306c0-20.152-16.404-36.464-36.557-36.464
	C95.963,281.954,84.34,288.985,77.873,299.578z"/>
<circle style="fill:#3A556A;" cx="102.338" cy="323.122" r="21.285"/>
<circle style="fill:#64798A;" cx="102.338" cy="323.122" r="11.963"/>
<path style="fill:#DC8744;" d="M4.252,284.927c5.53-3.282,11.998-5.25,18.841-5.25c20.153,0,36.556,16.404,36.556,36.558
	c0,6.934-1.968,13.403-5.249,18.838c10.592-6.373,17.716-17.996,17.716-31.306c0-20.152-16.404-36.464-36.557-36.464
	C22.342,267.304,10.719,274.334,4.252,284.927z"/>
<circle style="fill:#3A556A;" cx="28.716" cy="308.461" r="21.285"/>
<circle style="fill:#64798A;" cx="28.716" cy="308.461" r="11.963"/>
<path style="fill:#DC8744;" d="M309.31,144.681l-62.409,26.411l-6.896-114.113h-11.717l-6.896,114.113l-62.409-26.411
	c-8.672-3.671-18.278,2.696-18.278,12.113c0,6.328,4.504,11.756,10.721,12.925l69.261,13.028l-0.015,0.259h1.393l12.082,2.272
	l12.082-2.272h1.393l-0.015-0.259l69.261-13.028c6.218-1.169,10.721-6.598,10.721-12.925
	C327.588,147.376,317.982,141.01,309.31,144.681z"/>
<path style="fill:#EBF0F3;" d="M234.146,166.824c-39.371,0-71.287,105.657-71.287,155.051c0,49.396,31.916,89.439,71.287,89.439
	s71.287-40.043,71.287-89.439C305.434,272.481,273.517,166.824,234.146,166.824z"/>
<path style="fill:#2F4859;" d="M301.659,308.995c-9.467,35.43-36.088,60.928-67.489,60.928s-58.022-25.498-67.583-60.928h11.061
	c10.03,16.404,24.465,28.308,41.056,32.899c4.968,1.407,10.124,2.156,15.466,2.156c5.249,0,10.498-0.748,15.373-2.156
	c16.684-4.591,31.12-16.495,41.056-32.899H301.659z"/>
<g>
	<path style="fill:#3A556A;" d="M193.369,353.494c5.138-5.138,10.275-10.275,15.412-15.413
		c-12.396-5.941-23.167-16.06-31.133-29.086h-11.061C171.511,327.241,181.068,342.661,193.369,353.494z"/>
	<path style="fill:#3A556A;" d="M274.822,353.825c-5.138-5.138-10.275-10.275-15.412-15.413
		c12.396-5.941,23.167-16.06,31.133-29.086h11.061C296.68,327.572,287.123,342.992,274.822,353.825z"/>
	<path style="fill:#3A556A;" d="M249.542,341.894c-3.843,17.248-9.28,28.029-15.373,28.029c-6.093,0-11.623-10.781-15.466-28.029
		c4.968,1.407,10.124,2.156,15.466,2.156C239.419,344.05,244.668,343.301,249.542,341.894z"/>
</g>
<g>
</g>
<g>
</g>
<g>
</g>
<g>
</g>
<g>
</g>
<g>
</g>
<g>
</g>
<g>
</g>
<g>
</g>
<g>
</g>
<g>
</g>
<g>
</g>
<g>
</g>
<g>
</g>
<g>
</g>
</svg>
