<?xml version="1.0" encoding="iso-8859-1"?>
<!-- Generator: Adobe Illustrator 19.0.0, SVG Export Plug-In . SVG Version: 6.00 Build 0)  -->
<svg version="1.1" id="Capa_1" xmlns="http://www.w3.org/2000/svg" xmlns:xlink="http://www.w3.org/1999/xlink" x="0px" y="0px"
	 viewBox="0 0 468.293 468.293" style="enable-background:new 0 0 468.293 468.293;" xml:space="preserve">
<polygon style="fill:#E1E6E9;" points="149.147,84.721 45.175,84.721 72.42,36.071 123.85,36.071 "/>
<path style="fill:#64798A;" d="M468.293,94.868v320.121c0,9.451-7.646,17.233-17.097,17.233H17.236
	C7.783,432.222,0,424.44,0,414.989V94.868c0-9.451,7.783-17.097,17.236-17.097h433.96C460.647,77.771,468.293,85.417,468.293,94.868
	z"/>
<rect y="152.969" style="fill:#2F4859;" width="468.293" height="203.913"/>
<path style="fill:#D5D6DB;" d="M234.196,118.823c-75.167,0-136.102,60.938-136.102,136.106c0,75.171,60.935,136.106,136.102,136.106
	c75.171,0,136.106-60.935,136.106-136.106C370.302,179.761,309.367,118.823,234.196,118.823z"/>
<circle style="fill:#EBF0F3;" cx="234.209" cy="254.939" r="93.846"/>
<path style="fill:#2E9AE1;" d="M231.787,208.114c-24.844,1.279-44.646,21.651-44.646,46.814c0,25.991,21.067,47.059,47.055,47.059
	c24.99,0,45.226-19.533,46.763-44.137C250.893,255.119,234.492,232.67,231.787,208.114z"/>
<path style="fill:#D15241;" d="M58.999,175.438c-10.954,0-19.835,8.881-19.835,19.835c0,10.958,8.881,19.835,19.835,19.835
	c10.956,0,19.839-8.878,19.839-19.835C78.837,184.319,69.955,175.438,58.999,175.438z"/>
<rect x="39.162" y="95.363" style="fill:#DC8744;" width="58.924" height="27.798"/>
<g>
</g>
<g>
</g>
<g>
</g>
<g>
</g>
<g>
</g>
<g>
</g>
<g>
</g>
<g>
</g>
<g>
</g>
<g>
</g>
<g>
</g>
<g>
</g>
<g>
</g>
<g>
</g>
<g>
</g>
</svg>
