<?xml version="1.0" encoding="iso-8859-1"?>
<!-- Generator: Adobe Illustrator 19.0.0, SVG Export Plug-In . SVG Version: 6.00 Build 0)  -->
<svg version="1.1" id="Capa_1" xmlns="http://www.w3.org/2000/svg" xmlns:xlink="http://www.w3.org/1999/xlink" x="0px" y="0px"
	 viewBox="0 0 468.293 468.293" style="enable-background:new 0 0 468.293 468.293;" xml:space="preserve">
<path style="fill:#D5D6DB;" d="M379.926,169.106l7.273-53.347c1.327-9.735-6.539-18.374-16.733-18.374H97.827
	c-10.194,0-18.06,8.638-16.733,18.374l7.273,53.347H379.926z"/>
<g>
	<path style="fill:#64798A;" d="M404.344,332.664v30.704c0,4.165,3.376,7.54,7.54,7.54h26.249c4.163,0,7.539-3.376,7.539-7.54
		v-30.704H404.344z"/>
	<path style="fill:#64798A;" d="M22.62,332.664v30.704c0,4.165,3.376,7.54,7.539,7.54h26.252c4.165,0,7.54-3.376,7.54-7.54v-30.704
		H22.62z"/>
</g>
<path style="fill:#D5D6DB;" d="M0,256.567v92.774h468.293v-92.774c0-7.351-5.959-13.31-13.31-13.31H13.31
	C5.959,243.257,0,249.216,0,256.567z"/>
<polygon style="fill:#EBF0F3;" points="453.48,243.251 14.781,243.251 65.513,190.244 87.627,163.707 87.757,163.576 
	380.505,163.576 380.635,163.707 402.748,190.244 "/>
<polygon style="fill:#64798A;" points="453.48,243.251 14.781,243.251 65.513,190.244 402.748,190.244 "/>
<g>
	<path style="fill:#DC8744;" d="M344.814,150.565c-14.981-11.053-71.427-12.157-84.743,0c-4.864,4.442-4.864,18.399,0,22.841
		c13.317,12.157,69.763,11.051,84.743,0C350.287,169.367,350.287,154.601,344.814,150.565z"/>
	<path style="fill:#DC8744;" d="M123.022,150.565c-4.864,4.442-4.864,18.399,0,22.841c13.315,12.157,69.763,11.051,84.743,0
		c5.472-4.039,5.472-18.804,0-22.841C192.785,139.511,136.338,138.407,123.022,150.565z"/>
</g>
<g>
</g>
<g>
</g>
<g>
</g>
<g>
</g>
<g>
</g>
<g>
</g>
<g>
</g>
<g>
</g>
<g>
</g>
<g>
</g>
<g>
</g>
<g>
</g>
<g>
</g>
<g>
</g>
<g>
</g>
</svg>
