<?xml version="1.0" encoding="iso-8859-1"?>
<!-- Generator: Adobe Illustrator 19.0.0, SVG Export Plug-In . SVG Version: 6.00 Build 0)  -->
<svg version="1.1" id="Capa_1" xmlns="http://www.w3.org/2000/svg" xmlns:xlink="http://www.w3.org/1999/xlink" x="0px" y="0px"
	 viewBox="0 0 468.293 468.293" style="enable-background:new 0 0 468.293 468.293;" xml:space="preserve">
<g>
	<rect x="373.26" y="17.926" style="fill:#2F4859;" width="36.858" height="101.894"/>
	<rect x="58.174" y="17.926" style="fill:#2F4859;" width="36.858" height="101.894"/>
</g>
<path style="fill:#2E9AE1;" d="M0,88.914V367.75h99.035c10.869,46.946,67.238,82.616,135.111,82.616s124.242-35.671,135.111-82.616
	h99.035V88.914H0z"/>
<path style="fill:#EBF0F3;" d="M281.32,149.386c-8.803,0-15.94,7.137-15.94,15.94v46.204h-62.467v-46.204
	c0-8.803-7.137-15.94-15.94-15.94c-8.803,0-15.94,7.137-15.94,15.94v126.012c0,8.803,7.137,15.94,15.94,15.94
	c8.803,0,15.94-7.137,15.94-15.94v-53.096h62.467v53.096c0,8.803,7.137,15.94,15.94,15.94c8.803,0,15.94-7.137,15.94-15.94V165.326
	C297.26,156.523,290.123,149.386,281.32,149.386z"/>
<g>
</g>
<g>
</g>
<g>
</g>
<g>
</g>
<g>
</g>
<g>
</g>
<g>
</g>
<g>
</g>
<g>
</g>
<g>
</g>
<g>
</g>
<g>
</g>
<g>
</g>
<g>
</g>
<g>
</g>
</svg>
