<?xml version="1.0" encoding="iso-8859-1"?>
<!-- Generator: Adobe Illustrator 19.0.0, SVG Export Plug-In . SVG Version: 6.00 Build 0)  -->
<svg version="1.1" id="Capa_1" xmlns="http://www.w3.org/2000/svg" xmlns:xlink="http://www.w3.org/1999/xlink" x="0px" y="0px"
	 viewBox="0 0 468.293 468.293" style="enable-background:new 0 0 468.293 468.293;" xml:space="preserve">
<path style="fill:#64798A;" d="M453.659,343.918H73.23c-8.083,0-14.634-6.551-14.634-14.634V80.213L7.925,54.06
	c-7.18-3.71-9.998-12.536-6.294-19.716c3.71-7.186,12.542-10.009,19.716-6.294l58.594,30.24c4.865,2.51,7.923,7.529,7.923,13.005
	v243.355h365.795c8.083,0,14.634,6.551,14.634,14.634C468.293,337.367,461.742,343.918,453.659,343.918z"/>
<path style="fill:#2F4859;" d="M252.047,136.046l0.058-25.883l58.543-0.031c0,0,0,0.008,0,0.039v25.876h23.97V110.17
	c0-13.218-10.76-23.978-23.978-23.978h-58.535c-13.272,0-24.063,10.76-24.063,23.978v25.876H252.047z"/>
<path style="fill:#E56353;" d="M406.672,148.883v144.046c0,10.785-8.71,19.495-19.495,19.495H175.444
	c-10.707,0-19.496-8.71-19.496-19.495V148.883c0-10.787,8.789-19.495,19.496-19.495h211.733
	C397.962,129.388,406.672,138.096,406.672,148.883z"/>
<g>
	<path style="fill:#CE412D;" d="M406.672,148.883v144.046c0,10.785-8.71,19.495-19.495,19.495h-16.94V129.388h16.94
		C397.962,129.388,406.672,138.096,406.672,148.883z"/>
	<path style="fill:#CE412D;" d="M192.461,129.388v183.036h-17.018c-10.707,0-19.496-8.71-19.496-19.495V148.883
		c0-10.787,8.789-19.495,19.496-19.495H192.461z"/>
</g>
<path style="fill:#2F4859;" d="M362.701,360.521c-22.466,0-40.679,18.212-40.679,40.68c0,22.466,18.212,40.679,40.679,40.679
	c22.467,0,40.68-18.212,40.68-40.679C403.381,378.733,385.168,360.521,362.701,360.521z"/>
<path style="fill:#EBF0F3;" d="M362.701,384.585c-9.175,0-16.614,7.439-16.614,16.616c0,9.175,7.439,16.614,16.614,16.614
	c9.177,0,16.616-7.439,16.616-16.614C379.317,392.024,371.878,384.585,362.701,384.585z"/>
<path style="fill:#2F4859;" d="M164.186,360.521c-22.466,0-40.679,18.212-40.679,40.68c0,22.466,18.212,40.679,40.679,40.679
	c22.467,0,40.68-18.212,40.68-40.679C204.867,378.733,186.653,360.521,164.186,360.521z"/>
<path style="fill:#EBF0F3;" d="M164.186,384.585c-9.175,0-16.614,7.439-16.614,16.616c0,9.175,7.439,16.614,16.614,16.614
	c9.177,0,16.616-7.439,16.616-16.614C180.802,392.024,173.363,384.585,164.186,384.585z"/>
<g>
</g>
<g>
</g>
<g>
</g>
<g>
</g>
<g>
</g>
<g>
</g>
<g>
</g>
<g>
</g>
<g>
</g>
<g>
</g>
<g>
</g>
<g>
</g>
<g>
</g>
<g>
</g>
<g>
</g>
</svg>
