<?xml version="1.0" encoding="iso-8859-1"?>
<!-- Generator: Adobe Illustrator 19.0.0, SVG Export Plug-In . SVG Version: 6.00 Build 0)  -->
<svg version="1.1" id="Capa_1" xmlns="http://www.w3.org/2000/svg" xmlns:xlink="http://www.w3.org/1999/xlink" x="0px" y="0px"
	 viewBox="0 0 468.293 468.293" style="enable-background:new 0 0 468.293 468.293;" xml:space="preserve">
<rect x="59.217" y="111.728" style="fill:#F95428;" width="349.783" height="65.055"/>
<rect x="59.217" y="232.748" style="fill:#9AD14B;" width="349.783" height="65.055"/>
<g>
	<path style="fill:#F7BE56;" d="M433.037,110.357v21.155H35.255v-21.155C35.255,49.47,84.614,0,145.501,0h177.178
		C383.566,0,433.037,49.47,433.037,110.357z"/>
	<path style="fill:#F7BE56;" d="M433.037,396.774v1.678c0,38.504-31.339,69.841-69.841,69.841H104.984
		c-38.502,0-69.729-31.337-69.729-69.841v-1.678c0-9.067,7.275-16.453,16.341-16.453h364.987
		C425.65,380.321,433.037,387.707,433.037,396.774z"/>
</g>
<g>
	<path style="fill:#FCD462;" d="M433.037,110.357v21.155H76.444v-21.155C76.444,49.47,125.802,0,186.69,0h135.989
		C383.566,0,433.037,49.47,433.037,110.357z"/>
	<path style="fill:#FCD462;" d="M433.037,396.774v1.678c0,38.504-31.339,69.841-69.841,69.841H146.285
		c-38.614,0-69.841-31.337-69.841-69.841v-1.678c0-9.067,7.387-16.453,16.453-16.453h323.687
		C425.65,380.321,433.037,387.707,433.037,396.774z"/>
</g>
<g>
	<path style="fill:#DC8744;" d="M444.006,218.03c0,22.833-18.58,41.3-41.3,41.3H65.475c-22.721,0-41.188-18.467-41.188-41.3
		c0-22.721,18.467-41.19,41.188-41.19h337.23C425.426,176.839,444.006,195.309,444.006,218.03z"/>
	<path style="fill:#DC8744;" d="M423.411,339.131c0,22.721-18.579,41.19-41.3,41.19H65.475c-22.721,0-41.188-18.469-41.188-41.19
		c0-22.833,18.467-41.3,41.188-41.3h316.636C404.832,297.831,423.411,316.298,423.411,339.131z"/>
</g>
<g>
	<circle style="fill:#F7BE56;" cx="146.213" cy="39.387" r="11.951"/>
	<path style="fill:#F7BE56;" d="M204.804,27.435c-6.6,0-11.95,5.35-11.95,11.949s5.35,11.949,11.95,11.949
		c6.6,0,11.951-5.35,11.951-11.949S211.404,27.435,204.804,27.435z"/>
	<path style="fill:#F7BE56;" d="M263.395,27.435c-6.6,0-11.951,5.35-11.951,11.949s5.35,11.949,11.951,11.949
		c6.6,0,11.95-5.35,11.95-11.949S269.995,27.435,263.395,27.435z"/>
	<circle style="fill:#F7BE56;" cx="321.998" cy="39.387" r="11.951"/>
</g>
<g>
	<polygon style="fill:#FCD462;" points="375.172,297.831 319.433,353.569 263.694,297.831 	"/>
	<polygon style="fill:#FCD462;" points="190.002,297.831 134.264,353.569 78.524,297.831 	"/>
	<polygon style="fill:#FCD462;" points="214.447,176.839 163.633,227.654 112.819,176.839 	"/>
	<polygon style="fill:#FCD462;" points="360.85,176.839 310.035,227.654 259.222,176.839 	"/>
</g>
<g>
	<path style="fill:#F7BE56;" d="M143.74,73.34h-34.695c-5.171,0-9.366,4.195-9.366,9.366s4.195,9.366,9.366,9.366h34.695
		c5.171,0,9.366-4.195,9.366-9.366S148.91,73.34,143.74,73.34z"/>
	<path style="fill:#F7BE56;" d="M214.483,102.362h-34.695c-5.171,0-9.366,4.195-9.366,9.366s4.195,9.366,9.366,9.366h34.695
		c5.171,0,9.366-4.195,9.366-9.366S219.654,102.362,214.483,102.362z"/>
	<path style="fill:#F7BE56;" d="M272.088,73.34h-34.695c-5.171,0-9.366,4.195-9.366,9.366s4.195,9.366,9.366,9.366h34.695
		c5.171,0,9.366-4.195,9.366-9.366S277.258,73.34,272.088,73.34z"/>
	<path style="fill:#F7BE56;" d="M363.494,97.535h-34.695c-5.171,0-9.366,4.195-9.366,9.366s4.195,9.366,9.366,9.366h34.695
		c5.171,0,9.366-4.195,9.366-9.366S368.665,97.535,363.494,97.535z"/>
	<path style="fill:#F7BE56;" d="M378.197,63.974h-34.695c-5.171,0-9.366,4.195-9.366,9.366s4.195,9.366,9.366,9.366h34.695
		c5.171,0,9.366-4.195,9.366-9.366S383.368,63.974,378.197,63.974z"/>
	<path style="fill:#F7BE56;" d="M134.265,405.17H99.57c-5.171,0-9.366,3.486-9.366,7.783s4.195,7.783,9.366,7.783h34.695
		c5.171,0,9.366-3.486,9.366-7.783S139.436,405.17,134.265,405.17z"/>
	<path style="fill:#F7BE56;" d="M205.009,429.287h-34.695c-5.171,0-9.366,3.486-9.366,7.783c0,4.297,4.195,7.783,9.366,7.783h34.695
		c5.171,0,9.366-3.486,9.366-7.783C214.375,432.773,210.179,429.287,205.009,429.287z"/>
	<path style="fill:#F7BE56;" d="M262.613,405.17h-34.695c-5.171,0-9.366,3.486-9.366,7.783s4.195,7.783,9.366,7.783h34.695
		c5.171,0,9.366-3.486,9.366-7.783S267.784,405.17,262.613,405.17z"/>
	<path style="fill:#F7BE56;" d="M354.019,425.275h-34.695c-5.171,0-9.366,3.486-9.366,7.783s4.195,7.783,9.366,7.783h34.695
		c5.171,0,9.366-3.486,9.366-7.783S359.19,425.275,354.019,425.275z"/>
	<path style="fill:#F7BE56;" d="M368.723,397.387h-34.695c-5.171,0-9.366,3.486-9.366,7.783s4.195,7.783,9.366,7.783h34.695
		c5.171,0,9.366-3.486,9.366-7.783S373.893,397.387,368.723,397.387z"/>
</g>
<g>
</g>
<g>
</g>
<g>
</g>
<g>
</g>
<g>
</g>
<g>
</g>
<g>
</g>
<g>
</g>
<g>
</g>
<g>
</g>
<g>
</g>
<g>
</g>
<g>
</g>
<g>
</g>
<g>
</g>
</svg>
