<?xml version="1.0" encoding="iso-8859-1"?>
<!-- Generator: Adobe Illustrator 19.0.0, SVG Export Plug-In . SVG Version: 6.00 Build 0)  -->
<svg version="1.1" id="Capa_1" xmlns="http://www.w3.org/2000/svg" xmlns:xlink="http://www.w3.org/1999/xlink" x="0px" y="0px"
	 viewBox="0 0 468.293 468.293" style="enable-background:new 0 0 468.293 468.293;" xml:space="preserve">
<g>
	<rect x="297.719" y="16.128" style="fill:#EBF0F3;" width="16.128" height="108.706"/>
	<rect x="154.421" y="16.128" style="fill:#EBF0F3;" width="16.128" height="108.706"/>
</g>
<g>
	<path style="fill:#2F4859;" d="M297.654,434.829v20.121c0,7.37,5.974,13.344,13.343,13.344h13.342
		c7.368,0,13.342-5.974,13.342-13.344v-20.121H297.654z"/>
	<path style="fill:#2F4859;" d="M130.612,434.829v20.121c0,7.37,5.973,13.344,13.343,13.344h13.342
		c7.369,0,13.343-5.974,13.343-13.344v-20.121H130.612z"/>
</g>
<path style="fill:#CE412D;" d="M94.854,129.003v301.798c0,8.99,7.288,16.278,16.278,16.278h246.029
	c8.99,0,16.278-7.288,16.278-16.278V129.003c0-8.99-7.288-16.278-16.278-16.278H111.132
	C102.142,112.725,94.854,120.013,94.854,129.003z"/>
<path style="fill:#2E9AE1;" d="M234.146,174.899c-57.77,0-104.603,46.834-104.603,104.603v123.813h209.205V279.502
	C338.749,221.733,291.916,174.899,234.146,174.899z"/>
<path style="fill:#2F4859;" d="M321.134,32.259H147.158c-8.907,0-16.13-7.222-16.13-16.13S138.251,0,147.158,0h173.976
	c8.907,0,16.13,7.222,16.13,16.13S330.041,32.259,321.134,32.259z"/>
<g>
</g>
<g>
</g>
<g>
</g>
<g>
</g>
<g>
</g>
<g>
</g>
<g>
</g>
<g>
</g>
<g>
</g>
<g>
</g>
<g>
</g>
<g>
</g>
<g>
</g>
<g>
</g>
<g>
</g>
</svg>
