<?xml version="1.0" encoding="iso-8859-1"?>
<!-- Generator: Adobe Illustrator 19.0.0, SVG Export Plug-In . SVG Version: 6.00 Build 0)  -->
<svg version="1.1" id="Capa_1" xmlns="http://www.w3.org/2000/svg" xmlns:xlink="http://www.w3.org/1999/xlink" x="0px" y="0px"
	 viewBox="0 0 468.293 468.293" style="enable-background:new 0 0 468.293 468.293;" xml:space="preserve">
<path style="fill:#2F4859;" d="M234.091,0c-6.516,0-11.799,5.283-11.799,11.8v415.932c0,9.351-7.611,16.962-16.962,16.962
	c-9.351,0-16.962-7.611-16.962-16.962v-26.301c0-6.516-5.283-11.799-11.799-11.799c-6.516,0-11.8,5.283-11.8,11.799v26.301
	c0,22.366,18.195,40.561,40.561,40.561s40.561-18.195,40.561-40.561V11.8C245.89,5.283,240.607,0,234.091,0z"/>
<path style="fill:#F7BE56;" d="M234.091,32.449c-108.081,0-196.547,83.688-204.356,189.774h3.804
	c5.12-8.38,14.248-14.021,24.799-14.021c9.793,0,18.447,4.772,23.769,12.111c2.764,3.81,8.342,3.808,11.104-0.003
	c5.317-7.337,13.955-12.108,23.712-12.108c9.814,0,18.519,4.828,23.844,12.237c2.711,3.772,8.304,3.63,11.03-0.131
	c5.316-7.336,13.955-12.106,23.711-12.106c9.814,0,18.519,4.828,23.844,12.237c2.711,3.772,8.304,3.63,11.03-0.131
	c5.316-7.336,13.955-12.106,23.711-12.106s18.394,4.771,23.711,12.106c2.726,3.761,8.319,3.903,11.03,0.131
	c5.325-7.409,14.03-12.237,23.844-12.237c9.756,0,18.394,4.771,23.711,12.106c2.726,3.761,8.319,3.903,11.03,0.131
	c5.325-7.409,14.03-12.237,23.844-12.237c9.756,0,18.395,4.771,23.712,12.108c2.762,3.811,8.34,3.813,11.104,0.003
	c5.322-7.339,13.976-12.111,23.769-12.111c10.959,0,20.395,6.09,25.408,15.004h3.306C431.228,116.65,342.509,32.449,234.091,32.449z
	"/>
<path style="fill:#FCD462;" d="M428.615,172.823c-102.183,12.979-293.277-14.336-392.628,12.095
	c1.71-6.49,3.716-12.862,6.076-19.056c1.829-5.015,3.835-9.913,6.077-14.692c5.841-12.507,12.862-24.365,21.003-35.338
	c3.777-5.133,7.788-10.088,12.036-14.81c6.136-6.902,12.685-13.332,19.706-19.291c81.534-6.018,186.667,2.655,268.084,1.416
	c6.077,5.309,11.858,10.973,17.286,16.991c3.777,4.189,7.375,8.495,10.797,12.981c7.257,9.498,13.687,19.645,19.174,30.324
	c2.183,4.189,4.189,8.436,6.018,12.743C424.662,161.612,426.728,167.159,428.615,172.823z"/>
<g>
	<path style="fill:#DC8744;" d="M397.052,113.118c-94.219,4.896-234.692-10.385-327.909,2.714
		c3.777-5.133,7.788-10.088,12.036-14.81c89.322-9.97,215.282,2.361,305.076-0.884C390.031,104.326,393.629,108.633,397.052,113.118
		z"/>
	<path style="fill:#DC8744;" d="M422.244,156.185c-101.534,10.915-281.419-13.511-380.18,9.676
		c1.829-5.015,3.835-9.913,6.077-14.692c97.877-20.471,267.79,1.475,368.086-7.728C418.409,147.631,420.414,151.878,422.244,156.185
		z"/>
</g>
<g>
</g>
<g>
</g>
<g>
</g>
<g>
</g>
<g>
</g>
<g>
</g>
<g>
</g>
<g>
</g>
<g>
</g>
<g>
</g>
<g>
</g>
<g>
</g>
<g>
</g>
<g>
</g>
<g>
</g>
</svg>
