<?xml version="1.0" encoding="iso-8859-1"?>
<!-- Generator: Adobe Illustrator 19.0.0, SVG Export Plug-In . SVG Version: 6.00 Build 0)  -->
<svg version="1.1" id="Capa_1" xmlns="http://www.w3.org/2000/svg" xmlns:xlink="http://www.w3.org/1999/xlink" x="0px" y="0px"
	 viewBox="0 0 468.293 468.293" style="enable-background:new 0 0 468.293 468.293;" xml:space="preserve">
<g>
	<rect x="205.73" y="247.134" style="fill:#D5D6DB;" width="56.832" height="200.367"/>
	<path style="fill:#D5D6DB;" d="M234.146,416.849c-48.801,0-88.363,23.033-88.363,51.443h176.726
		C322.509,439.883,282.947,416.849,234.146,416.849z"/>
	<path style="fill:#D5D6DB;" d="M0,0c0,145.835,104.831,264.059,234.146,264.059S468.293,145.835,468.293,0H0z"/>
</g>
<path style="fill:#CE412D;" d="M427.335,81.088c-1.447,6.164-3.216,12.149-5.225,18.041
	c-28.94,87.303-103.54,149.404-191.083,149.404c-86.337,0-160.134-60.559-189.877-146.049c-2.171-6.166-4.1-12.421-5.707-18.858
	c17.444,1.722,31.27,4.079,44.856,6.346c26.368,4.442,53.619,8.975,107.238,8.975c53.539,0,80.791-4.533,107.158-8.975
	c26.93-4.533,54.744-9.157,109.568-9.157C412.543,80.816,420.18,80.906,427.335,81.088z"/>
<g>
</g>
<g>
</g>
<g>
</g>
<g>
</g>
<g>
</g>
<g>
</g>
<g>
</g>
<g>
</g>
<g>
</g>
<g>
</g>
<g>
</g>
<g>
</g>
<g>
</g>
<g>
</g>
<g>
</g>
</svg>
