<?xml version="1.0" encoding="iso-8859-1"?>
<!-- Generator: Adobe Illustrator 19.0.0, SVG Export Plug-In . SVG Version: 6.00 Build 0)  -->
<svg version="1.1" id="Capa_1" xmlns="http://www.w3.org/2000/svg" xmlns:xlink="http://www.w3.org/1999/xlink" x="0px" y="0px"
	 viewBox="0 0 468.293 468.293" style="enable-background:new 0 0 468.293 468.293;" xml:space="preserve">
<path style="fill:#D5D6DB;" d="M269.807,67.213c3.315-5.908,5.226-12.711,5.226-19.968c0-22.581-18.306-40.887-40.887-40.887
	s-40.887,18.306-40.887,40.887c0,7.257,1.911,14.059,5.226,19.968H269.807z"/>
<path style="fill:#EBF0F3;" d="M448.8,254.384H19.492c0-118.495,96.131-214.626,214.626-214.626
	C352.669,39.758,448.8,135.889,448.8,254.384z"/>
<path style="fill:#D5D6DB;" d="M0,237.163L0,237.163c0,9.511,7.71,17.22,17.22,17.22h433.852c9.511,0,17.22-7.71,17.22-17.22v0
	c0-9.511-7.71-17.22-17.22-17.22H17.22C7.71,219.943,0,227.653,0,237.163z"/>
<path style="fill:#FCD462;" d="M166.875,365.566l-95.072-52.734c-6.124-3.397-13.848-3.323-19.441,0.893
	c-9.975,7.518-9.069,22.311,1.144,28.706l120.572,81.707h151.852h38.615V333.12l-62.691-38.535H172.757
	c-9.924,0-17.969,8.045-17.969,17.969v0c0,9.924,8.045,17.969,17.969,17.969h55.346l28.763,42.269L166.875,365.566z"/>
<path style="fill:#64798A;" d="M358.27,326.682v127.086c0,4.51,3.656,8.166,8.166,8.166h48.346c4.51,0,8.166-3.656,8.166-8.166
	V326.682c0-4.51-3.656-8.166-8.166-8.166h-48.346C361.927,318.516,358.27,322.172,358.27,326.682z"/>
<g>
</g>
<g>
</g>
<g>
</g>
<g>
</g>
<g>
</g>
<g>
</g>
<g>
</g>
<g>
</g>
<g>
</g>
<g>
</g>
<g>
</g>
<g>
</g>
<g>
</g>
<g>
</g>
<g>
</g>
</svg>
