<?xml version="1.0" encoding="iso-8859-1"?>
<!-- Generator: Adobe Illustrator 19.0.0, SVG Export Plug-In . SVG Version: 6.00 Build 0)  -->
<svg version="1.1" id="Capa_1" xmlns="http://www.w3.org/2000/svg" xmlns:xlink="http://www.w3.org/1999/xlink" x="0px" y="0px"
	 viewBox="0 0 468.293 468.293" style="enable-background:new 0 0 468.293 468.293;" xml:space="preserve">
<path style="fill:#44C4A1;" d="M61.118,434.777C27.363,434.777,0,404.622,0,367.425c0-36.512,26.383-66.167,59.278-67.25
	c-0.104-1.257-0.344-2.47-0.344-3.758c0-23.027,16.939-41.695,37.835-41.695s37.835,18.667,37.835,41.695h199.085
	c0-23.027,16.939-41.695,37.835-41.695c20.895,0,37.835,18.667,37.835,41.695c0,1.287-0.24,2.501-0.344,3.758
	c32.895,1.082,59.278,30.737,59.278,67.25c0,37.197-27.363,67.352-61.118,67.352H61.118z"/>
<polygon style="fill:#D5D6DB;" points="367.99,144.895 367.99,434.777 100.302,434.777 100.302,143.889 233.474,48.249 "/>
<path style="fill:#DC8744;" d="M198.11,304.587c-26.11,0-47.276,21.166-47.276,47.277v82.914h94.552v-82.914
	C245.386,325.753,224.22,304.587,198.11,304.587z"/>
<g>
	<rect x="251.991" y="187.486" style="fill:#2E9AE1;" width="60.878" height="60.878"/>
	<rect x="155.429" y="187.486" style="fill:#2E9AE1;" width="60.878" height="60.878"/>
</g>
<g>
	<path style="fill:#64798A;" d="M419.76,163.441L242.731,36.285c-5.129-3.692-12.039-3.692-17.168,0L48.534,163.441
		c-6.594,4.734-8.103,13.928-3.362,20.529c4.734,6.594,13.914,8.103,20.529,3.362L234.147,66.346l168.445,120.986
		c2.6,1.868,5.603,2.766,8.569,2.766c4.576,0,9.087-2.126,11.96-6.127C427.862,177.369,426.354,168.175,419.76,163.441z"/>
	<circle style="fill:#64798A;" cx="234.146" cy="133.126" r="17.008"/>
</g>
<g>
</g>
<g>
</g>
<g>
</g>
<g>
</g>
<g>
</g>
<g>
</g>
<g>
</g>
<g>
</g>
<g>
</g>
<g>
</g>
<g>
</g>
<g>
</g>
<g>
</g>
<g>
</g>
<g>
</g>
</svg>
