<?xml version="1.0" encoding="iso-8859-1"?>
<!-- Generator: Adobe Illustrator 19.0.0, SVG Export Plug-In . SVG Version: 6.00 Build 0)  -->
<svg version="1.1" id="Capa_1" xmlns="http://www.w3.org/2000/svg" xmlns:xlink="http://www.w3.org/1999/xlink" x="0px" y="0px"
	 viewBox="0 0 468.293 468.293" style="enable-background:new 0 0 468.293 468.293;" xml:space="preserve">
<rect x="257.698" y="100.708" style="fill:#E1E6E9;" width="105.466" height="197.844"/>
<path style="fill:#2F4859;" d="M452.624,130.931H15.669C7.015,130.931,0,138.003,0,146.726c0,8.723,7.015,15.793,15.669,15.793
	h436.955c8.653,0,15.669-7.071,15.669-15.793C468.293,138.003,461.277,130.931,452.624,130.931z"/>
<path style="fill:#EBF0F3;" d="M363.165,0v117.137h-75.692v351.155h-249.8V95.372C37.672,42.714,80.047,0,132.287,0H363.165z"/>
<ellipse style="fill:#D5D6DB;" cx="362.771" cy="149.273" rx="76.082" ry="149.273"/>
<ellipse style="fill:#F2F2F2;" cx="363.145" cy="149.273" rx="21.435" ry="42.284"/>
<path style="fill:#2F4859;" d="M468.293,146.732c0,8.742-6.993,15.797-15.672,15.797H342.79c-0.687-4.184-1.062-8.617-1.062-13.237
	c0-6.619,0.812-12.8,2.123-18.357H452.62C461.3,130.934,468.293,137.99,468.293,146.732z"/>
<g>
</g>
<g>
</g>
<g>
</g>
<g>
</g>
<g>
</g>
<g>
</g>
<g>
</g>
<g>
</g>
<g>
</g>
<g>
</g>
<g>
</g>
<g>
</g>
<g>
</g>
<g>
</g>
<g>
</g>
</svg>
