<?xml version="1.0" encoding="iso-8859-1"?>
<!-- Generator: Adobe Illustrator 19.0.0, SVG Export Plug-In . SVG Version: 6.00 Build 0)  -->
<svg version="1.1" id="Capa_1" xmlns="http://www.w3.org/2000/svg" xmlns:xlink="http://www.w3.org/1999/xlink" x="0px" y="0px"
	 viewBox="0 0 468.293 468.293" style="enable-background:new 0 0 468.293 468.293;" xml:space="preserve">
<polygon style="fill:#FCD462;" points="70.062,0 0,42.226 209.678,468.293 292.864,456.695 "/>
<path style="fill:#FEF4AC;" d="M251.356,371.203L70.06,0.002l329.497,157.809C382.869,226.11,353.969,307.974,251.356,371.203z"/>
<path style="fill:#F7BE56;" d="M251.356,371.203l41.509,85.492c73.966-13.225,166.259-126.298,174.769-232.098
	s-68.075-66.787-68.075-66.787C376.899,254.895,317.022,331.293,251.356,371.203z"/>
<path style="fill:#CE412D;" d="M314.468,185.663c-6.852-9.243-16.95-16.067-29.09-18.267c-25.441-4.611-49.767,12.487-54.331,38.187
	c-2.178,12.264,0.645,24.201,6.842,33.905L314.468,185.663z"/>
<g>
	<path style="fill:#2F4859;" d="M353.086,190.894c-1.565,0-3.119-0.713-4.152-2.066l-14.4-18.959
		c-1.759-2.325-1.33-5.641,0.961-7.418c2.281-1.798,5.564-1.353,7.343,0.971l14.4,18.959c1.759,2.325,1.33,5.641-0.961,7.418
		C355.325,190.543,354.2,190.894,353.086,190.894z"/>
	<path style="fill:#2F4859;" d="M160.828,91.562c-1.565,0-3.119-0.713-4.152-2.066l-14.4-18.959
		c-1.759-2.325-1.33-5.641,0.961-7.418c2.281-1.798,5.564-1.354,7.343,0.971l14.4,18.959c1.759,2.325,1.33,5.641-0.961,7.418
		C163.068,91.211,161.943,91.562,160.828,91.562z"/>
</g>
<g>
	<path style="fill:#E56353;" d="M202.535,121.406c-9.781,0-17.71,8.01-17.71,17.89s7.929,17.89,17.71,17.89
		c9.78,0,17.709-8.01,17.709-17.89S212.315,121.406,202.535,121.406z"/>
	<ellipse style="fill:#E56353;" cx="260.121" cy="289.399" rx="15.71" ry="15.872"/>
</g>
<g>
</g>
<g>
</g>
<g>
</g>
<g>
</g>
<g>
</g>
<g>
</g>
<g>
</g>
<g>
</g>
<g>
</g>
<g>
</g>
<g>
</g>
<g>
</g>
<g>
</g>
<g>
</g>
<g>
</g>
</svg>
