<?xml version="1.0" encoding="iso-8859-1"?>
<!-- Generator: Adobe Illustrator 19.0.0, SVG Export Plug-In . SVG Version: 6.00 Build 0)  -->
<svg version="1.1" id="Capa_1" xmlns="http://www.w3.org/2000/svg" xmlns:xlink="http://www.w3.org/1999/xlink" x="0px" y="0px"
	 viewBox="0 0 468.292 468.292" style="enable-background:new 0 0 468.292 468.292;" xml:space="preserve">
<rect x="98.633" y="57.424" transform="matrix(-0.8556 0.5176 -0.5176 -0.8556 509.831 148.8546)" style="fill:#44C4A1;" width="271.049" height="176.203"/>
<path style="fill:#FCD462;" d="M417.337,138.4H50.956c-16.839,0-30.49,13.651-30.49,30.49v268.911
	c0,16.84,13.651,30.491,30.491,30.491h366.379c16.839,0,30.49-13.651,30.49-30.49V168.89
	C447.826,152.051,434.176,138.4,417.337,138.4z"/>
<path style="fill:#F7BE56;" d="M369.352,252.863c-27.881,0-50.484,22.602-50.484,50.484s22.602,50.482,50.484,50.482h78.474V252.863
	H369.352z"/>
<path style="fill:#FCD462;" d="M371.601,276.105c-15.045,0-27.241,12.198-27.241,27.242c0,15.044,12.197,27.241,27.241,27.241
	c15.045,0,27.241-12.197,27.241-27.241C398.842,288.303,386.646,276.105,371.601,276.105z"/>
<g>
</g>
<g>
</g>
<g>
</g>
<g>
</g>
<g>
</g>
<g>
</g>
<g>
</g>
<g>
</g>
<g>
</g>
<g>
</g>
<g>
</g>
<g>
</g>
<g>
</g>
<g>
</g>
<g>
</g>
</svg>
