<?xml version="1.0" encoding="iso-8859-1"?>
<!-- Generator: Adobe Illustrator 19.0.0, SVG Export Plug-In . SVG Version: 6.00 Build 0)  -->
<svg version="1.1" id="Capa_1" xmlns="http://www.w3.org/2000/svg" xmlns:xlink="http://www.w3.org/1999/xlink" x="0px" y="0px"
	 viewBox="0 0 468.293 468.293" style="enable-background:new 0 0 468.293 468.293;" xml:space="preserve">
<path style="fill:#64798A;" d="M293.604,243.982c-1.209,1.67-3.134,2.704-4.993,2.704H175.947c-1.962,0-3.784-1.034-4.993-2.704
	c-1.22-1.683-1.473-3.809-0.794-5.422l16.371-35.936c0.828-1.951,2.566-3.129,4.547-3.129h82.29c1.981,0,3.719,1.178,4.547,3.129
	l16.378,35.936C295.077,240.173,294.719,242.299,293.604,243.982z"/>
<path style="fill:#F7BE56;" d="M30.481,265.099V456.64c0,6.441,5.213,11.653,11.656,11.653s11.656-5.212,11.656-11.653v-36.415
	H414.5v36.415c0,6.441,5.213,11.653,11.656,11.653c6.442,0,11.656-5.212,11.656-11.653V265.099H30.481z"/>
<g>
	<path style="fill:#FCD462;" d="M79.747,300.785h132.798c4.431,0,8.023,3.591,8.023,8.021v56.787c0,4.43-3.592,8.021-8.023,8.021
		H79.747c-4.431,0-8.023-3.591-8.023-8.021v-56.787C71.723,304.376,75.316,300.785,79.747,300.785z"/>
	<path style="fill:#FCD462;" d="M396.569,308.806v56.787c0,4.43-3.592,8.021-8.023,8.021H255.748c-4.431,0-8.023-3.591-8.023-8.021
		v-56.787c0-4.43,3.592-8.021,8.023-8.021h132.798C392.977,300.785,396.569,304.376,396.569,308.806z"/>
</g>
<g>
	<path style="fill:#F7BE56;" d="M322.145,339.077c-6.807,0-13.614-2.595-18.804-7.772c-2.277-2.276-2.277-5.963,0-8.239
		c2.277-2.276,5.964-2.276,8.241,0c5.828,5.804,15.298,5.826,21.126,0c2.277-2.276,5.964-2.276,8.241,0s2.277,5.963,0,8.239
		C335.77,336.483,328.963,339.077,322.145,339.077z"/>
	<path style="fill:#F7BE56;" d="M146.148,339.077c-6.818,0-13.625-2.595-18.804-7.772c-2.277-2.276-2.277-5.963,0-8.239
		s5.964-2.276,8.241,0c5.828,5.826,15.298,5.826,21.126,0c2.277-2.276,5.964-2.276,8.241,0c2.277,2.276,2.277,5.963,0,8.239
		C159.761,336.483,152.954,339.077,146.148,339.077z"/>
</g>
<path style="fill:#FCD462;" d="M449.352,239.609H18.941C8.48,239.609,0,248.086,0,258.544s8.48,18.936,18.941,18.936h430.411
	c10.461,0,18.941-8.478,18.941-18.936S459.813,239.609,449.352,239.609z"/>
<path style="fill:#64798A;" d="M92.367,16.751v171.876c0,9.252,7.502,16.751,16.756,16.751h246.258
	c9.254,0,16.756-7.5,16.756-16.751V16.751C372.137,7.5,364.636,0,355.382,0H109.123C99.869,0,92.367,7.5,92.367,16.751z"/>
<polyline style="fill:#EBF0F3;" points="111.304,180.222 111.304,25.156 353.195,25.156 353.195,180.222 "/>
<g>
</g>
<g>
</g>
<g>
</g>
<g>
</g>
<g>
</g>
<g>
</g>
<g>
</g>
<g>
</g>
<g>
</g>
<g>
</g>
<g>
</g>
<g>
</g>
<g>
</g>
<g>
</g>
<g>
</g>
</svg>
