<?xml version="1.0" encoding="iso-8859-1"?>
<!-- Generator: Adobe Illustrator 19.0.0, SVG Export Plug-In . SVG Version: 6.00 Build 0)  -->
<svg version="1.1" id="Capa_1" xmlns="http://www.w3.org/2000/svg" xmlns:xlink="http://www.w3.org/1999/xlink" x="0px" y="0px"
	 viewBox="0 0 468.293 468.293" style="enable-background:new 0 0 468.293 468.293;" xml:space="preserve">
<path style="fill:#D5D6DB;" d="M45.784,69.488v249.063h376.725V69.488c0-13.305-10.786-24.091-24.091-24.091H69.874
	C56.57,45.397,45.784,56.183,45.784,69.488z"/>
<rect x="68.546" y="68.158" style="fill:#2E9AE1;" width="331.177" height="227.628"/>
<path style="fill:#D5D6DB;" d="M437.168,422.896H31.125c-24.857,0-39.516-27.633-25.95-48.12c0.228-0.41,0.501-0.775,0.774-1.185
	l39.835-55.04h376.725l39.835,55.04c0.273,0.41,0.546,0.775,0.774,1.185C476.684,395.262,462.025,422.896,437.168,422.896z"/>
<path style="fill:#EBF0F3;" d="M463.118,374.776c-5.372,8.239-14.614,13.976-25.95,13.976H31.125
	c-11.336,0-20.578-5.736-25.95-13.976c0.228-0.41,0.501-0.775,0.774-1.185l39.835-55.04h376.725l39.835,55.04
	C462.617,374.001,462.89,374.366,463.118,374.776z"/>
<g>
	<path style="fill:#D5D6DB;" d="M78.941,333.96l-2.932-5.959c-0.504-1.024-1.547-1.673-2.688-1.673H64.91
		c-1.142,0-2.184,0.649-2.688,1.673l-2.932,5.959c-0.98,1.992,0.469,4.319,2.688,4.319h14.275
		C78.472,338.279,79.921,335.951,78.941,333.96z"/>
	<path style="fill:#D5D6DB;" d="M111.947,333.96l-2.932-5.959c-0.504-1.024-1.547-1.673-2.688-1.673h-8.411
		c-1.142,0-2.184,0.649-2.688,1.673l-2.932,5.959c-0.98,1.992,0.469,4.319,2.688,4.319h14.275
		C111.478,338.279,112.927,335.951,111.947,333.96z"/>
	<path style="fill:#D5D6DB;" d="M144.953,333.96l-2.932-5.959c-0.504-1.024-1.547-1.673-2.688-1.673h-8.411
		c-1.142,0-2.184,0.649-2.688,1.673l-2.932,5.959c-0.98,1.992,0.469,4.319,2.688,4.319h14.275
		C144.484,338.279,145.933,335.951,144.953,333.96z"/>
	<path style="fill:#D5D6DB;" d="M177.96,333.96l-2.932-5.959c-0.504-1.024-1.547-1.673-2.688-1.673h-8.411
		c-1.142,0-2.184,0.649-2.688,1.673l-2.932,5.959c-0.98,1.992,0.469,4.319,2.688,4.319h14.275
		C177.49,338.279,178.939,335.951,177.96,333.96z"/>
	<path style="fill:#D5D6DB;" d="M210.966,333.96l-2.932-5.959c-0.504-1.024-1.547-1.673-2.688-1.673h-8.411
		c-1.142,0-2.184,0.649-2.688,1.673l-2.932,5.959c-0.98,1.992,0.469,4.319,2.688,4.319h14.275
		C210.496,338.279,211.945,335.951,210.966,333.96z"/>
	<path style="fill:#D5D6DB;" d="M243.972,333.96l-2.932-5.959c-0.504-1.024-1.547-1.673-2.688-1.673h-8.411
		c-1.142,0-2.184,0.649-2.688,1.673l-2.932,5.959c-0.98,1.992,0.469,4.319,2.688,4.319h14.275
		C243.503,338.279,244.951,335.951,243.972,333.96z"/>
	<path style="fill:#D5D6DB;" d="M276.978,333.96l-2.932-5.959c-0.504-1.024-1.547-1.673-2.688-1.673h-8.411
		c-1.142,0-2.184,0.649-2.688,1.673l-2.932,5.959c-0.98,1.992,0.469,4.319,2.688,4.319h14.275
		C276.509,338.279,277.957,335.951,276.978,333.96z"/>
	<path style="fill:#D5D6DB;" d="M309.984,333.96l-2.932-5.959c-0.504-1.024-1.547-1.673-2.688-1.673h-8.411
		c-1.142,0-2.184,0.649-2.688,1.673l-2.932,5.959c-0.98,1.992,0.469,4.319,2.688,4.319h14.275
		C309.515,338.279,310.964,335.951,309.984,333.96z"/>
	<path style="fill:#D5D6DB;" d="M342.99,333.96l-2.932-5.959c-0.504-1.024-1.547-1.673-2.688-1.673h-8.411
		c-1.142,0-2.184,0.649-2.688,1.673l-2.932,5.959c-0.98,1.992,0.469,4.319,2.688,4.319h14.275
		C342.521,338.279,343.97,335.951,342.99,333.96z"/>
	<path style="fill:#D5D6DB;" d="M375.996,333.96l-2.932-5.959c-0.504-1.024-1.547-1.673-2.688-1.673h-8.411
		c-1.142,0-2.184,0.649-2.688,1.673l-2.932,5.959c-0.98,1.992,0.469,4.319,2.688,4.319h14.275
		C375.527,338.279,376.976,335.951,375.996,333.96z"/>
	<path style="fill:#D5D6DB;" d="M409.002,333.96l-2.932-5.959c-0.504-1.024-1.547-1.673-2.688-1.673h-8.411
		c-1.142,0-2.184,0.649-2.688,1.673l-2.932,5.959c-0.98,1.992,0.469,4.319,2.688,4.319h14.275
		C408.533,338.279,409.982,335.951,409.002,333.96z"/>
	<path style="fill:#D5D6DB;" d="M78.941,355.307l-2.932-5.959c-0.504-1.024-1.547-1.673-2.688-1.673H64.91
		c-1.142,0-2.184,0.649-2.688,1.673l-2.932,5.959c-0.98,1.992,0.469,4.319,2.688,4.319h14.275
		C78.472,359.626,79.921,357.299,78.941,355.307z"/>
	<path style="fill:#D5D6DB;" d="M111.947,355.307l-2.932-5.959c-0.504-1.024-1.547-1.673-2.688-1.673h-8.411
		c-1.142,0-2.184,0.649-2.688,1.673l-2.932,5.959c-0.98,1.992,0.469,4.319,2.688,4.319h14.275
		C111.478,359.626,112.927,357.299,111.947,355.307z"/>
	<path style="fill:#D5D6DB;" d="M144.953,355.307l-2.932-5.959c-0.504-1.024-1.547-1.673-2.688-1.673h-8.411
		c-1.142,0-2.184,0.649-2.688,1.673l-2.932,5.959c-0.98,1.992,0.469,4.319,2.688,4.319h14.275
		C144.484,359.626,145.933,357.299,144.953,355.307z"/>
	<path style="fill:#D5D6DB;" d="M177.96,355.307l-2.932-5.959c-0.504-1.024-1.547-1.673-2.688-1.673h-8.411
		c-1.142,0-2.184,0.649-2.688,1.673l-2.932,5.959c-0.98,1.992,0.469,4.319,2.688,4.319h14.275
		C177.49,359.626,178.939,357.299,177.96,355.307z"/>
	<path style="fill:#D5D6DB;" d="M210.966,355.307l-2.932-5.959c-0.504-1.024-1.547-1.673-2.688-1.673h-8.411
		c-1.142,0-2.184,0.649-2.688,1.673l-2.932,5.959c-0.98,1.992,0.469,4.319,2.688,4.319h14.275
		C210.496,359.626,211.945,357.299,210.966,355.307z"/>
	<path style="fill:#D5D6DB;" d="M243.972,355.307l-2.932-5.959c-0.504-1.024-1.547-1.673-2.688-1.673h-8.411
		c-1.142,0-2.184,0.649-2.688,1.673l-2.932,5.959c-0.98,1.992,0.469,4.319,2.688,4.319h14.275
		C243.503,359.626,244.951,357.299,243.972,355.307z"/>
	<path style="fill:#D5D6DB;" d="M276.978,355.307l-2.932-5.959c-0.504-1.024-1.547-1.673-2.688-1.673h-8.411
		c-1.142,0-2.184,0.649-2.688,1.673l-2.932,5.959c-0.98,1.992,0.469,4.319,2.688,4.319h14.275
		C276.509,359.626,277.957,357.299,276.978,355.307z"/>
	<path style="fill:#D5D6DB;" d="M309.984,355.307l-2.932-5.959c-0.504-1.024-1.547-1.673-2.688-1.673h-8.411
		c-1.142,0-2.184,0.649-2.688,1.673l-2.932,5.959c-0.98,1.992,0.469,4.319,2.688,4.319h14.275
		C309.515,359.626,310.964,357.299,309.984,355.307z"/>
	<path style="fill:#D5D6DB;" d="M342.99,355.307l-2.932-5.959c-0.504-1.024-1.547-1.673-2.688-1.673h-8.411
		c-1.142,0-2.184,0.649-2.688,1.673l-2.932,5.959c-0.98,1.992,0.469,4.319,2.688,4.319h14.275
		C342.521,359.626,343.97,357.299,342.99,355.307z"/>
	<path style="fill:#D5D6DB;" d="M375.996,355.307l-2.932-5.959c-0.504-1.024-1.547-1.673-2.688-1.673h-8.411
		c-1.142,0-2.184,0.649-2.688,1.673l-2.932,5.959c-0.98,1.992,0.469,4.319,2.688,4.319h14.275
		C375.527,359.626,376.976,357.299,375.996,355.307z"/>
	<path style="fill:#D5D6DB;" d="M409.002,355.307l-2.932-5.959c-0.504-1.024-1.547-1.673-2.688-1.673h-8.411
		c-1.142,0-2.184,0.649-2.688,1.673l-2.932,5.959c-0.98,1.992,0.469,4.319,2.688,4.319h14.275
		C408.533,359.626,409.982,357.299,409.002,355.307z"/>
	<path style="fill:#D5D6DB;" d="M78.941,376.655l-2.932-5.959c-0.504-1.024-1.547-1.673-2.688-1.673H64.91
		c-1.142,0-2.184,0.649-2.688,1.673l-2.932,5.959c-0.98,1.992,0.469,4.319,2.688,4.319h14.275
		C78.472,380.974,79.921,378.647,78.941,376.655z"/>
	<path style="fill:#D5D6DB;" d="M111.947,376.655l-2.932-5.959c-0.504-1.024-1.547-1.673-2.688-1.673h-8.411
		c-1.142,0-2.184,0.649-2.688,1.673l-2.932,5.959c-0.98,1.992,0.469,4.319,2.688,4.319h14.275
		C111.478,380.974,112.927,378.647,111.947,376.655z"/>
	<path style="fill:#D5D6DB;" d="M144.953,376.655l-2.932-5.959c-0.504-1.024-1.547-1.673-2.688-1.673h-8.411
		c-1.142,0-2.184,0.649-2.688,1.673l-2.932,5.959c-0.98,1.992,0.469,4.319,2.688,4.319h14.275
		C144.484,380.974,145.933,378.647,144.953,376.655z"/>
	<path style="fill:#D5D6DB;" d="M177.96,376.655l-2.932-5.959c-0.504-1.024-1.547-1.673-2.688-1.673h-8.411
		c-1.142,0-2.184,0.649-2.688,1.673l-2.932,5.959c-0.98,1.992,0.469,4.319,2.688,4.319h14.275
		C177.49,380.974,178.939,378.647,177.96,376.655z"/>
	<path style="fill:#D5D6DB;" d="M210.966,376.655l-2.932-5.959c-0.504-1.024-1.547-1.673-2.688-1.673h-8.411
		c-1.142,0-2.184,0.649-2.688,1.673l-2.932,5.959c-0.98,1.992,0.469,4.319,2.688,4.319h14.275
		C210.496,380.974,211.945,378.647,210.966,376.655z"/>
	<path style="fill:#D5D6DB;" d="M243.972,376.655l-2.932-5.959c-0.504-1.024-1.547-1.673-2.688-1.673h-8.411
		c-1.142,0-2.184,0.649-2.688,1.673l-2.932,5.959c-0.98,1.992,0.469,4.319,2.688,4.319h14.275
		C243.503,380.974,244.951,378.647,243.972,376.655z"/>
	<path style="fill:#D5D6DB;" d="M276.978,376.655l-2.932-5.959c-0.504-1.024-1.547-1.673-2.688-1.673h-8.411
		c-1.142,0-2.184,0.649-2.688,1.673l-2.932,5.959c-0.98,1.992,0.469,4.319,2.688,4.319h14.275
		C276.509,380.974,277.957,378.647,276.978,376.655z"/>
	<path style="fill:#D5D6DB;" d="M309.984,376.655l-2.932-5.959c-0.504-1.024-1.547-1.673-2.688-1.673h-8.411
		c-1.142,0-2.184,0.649-2.688,1.673l-2.932,5.959c-0.98,1.992,0.469,4.319,2.688,4.319h14.275
		C309.515,380.974,310.964,378.647,309.984,376.655z"/>
	<path style="fill:#D5D6DB;" d="M342.99,376.655l-2.932-5.959c-0.504-1.024-1.547-1.673-2.688-1.673h-8.411
		c-1.142,0-2.184,0.649-2.688,1.673l-2.932,5.959c-0.98,1.992,0.469,4.319,2.688,4.319h14.275
		C342.521,380.974,343.97,378.647,342.99,376.655z"/>
	<path style="fill:#D5D6DB;" d="M375.996,376.655l-2.932-5.959c-0.504-1.024-1.547-1.673-2.688-1.673h-8.411
		c-1.142,0-2.184,0.649-2.688,1.673l-2.932,5.959c-0.98,1.992,0.469,4.319,2.688,4.319h14.275
		C375.527,380.974,376.976,378.647,375.996,376.655z"/>
	<path style="fill:#D5D6DB;" d="M409.002,376.655l-2.932-5.959c-0.504-1.024-1.547-1.673-2.688-1.673h-8.411
		c-1.142,0-2.184,0.649-2.688,1.673l-2.932,5.959c-0.98,1.992,0.469,4.319,2.688,4.319h14.275
		C408.533,380.974,409.982,378.647,409.002,376.655z"/>
</g>
<path style="fill:#CE412D;" d="M234.145,114.071c-28.266,0-51.181,22.916-51.181,51.182s51.181,84.624,51.181,84.624
	s51.182-56.357,51.182-84.624S262.413,114.071,234.145,114.071z"/>
<path style="fill:#EBF0F3;" d="M234.146,136.903c-15.657,0-28.35,12.693-28.35,28.35s12.692,28.35,28.35,28.35
	c15.657,0,28.35-12.693,28.35-28.35S249.803,136.903,234.146,136.903z"/>
<g>
</g>
<g>
</g>
<g>
</g>
<g>
</g>
<g>
</g>
<g>
</g>
<g>
</g>
<g>
</g>
<g>
</g>
<g>
</g>
<g>
</g>
<g>
</g>
<g>
</g>
<g>
</g>
<g>
</g>
</svg>
