<?xml version="1.0" encoding="iso-8859-1"?>
<!-- Generator: Adobe Illustrator 19.0.0, SVG Export Plug-In . SVG Version: 6.00 Build 0)  -->
<svg version="1.1" id="Capa_1" xmlns="http://www.w3.org/2000/svg" xmlns:xlink="http://www.w3.org/1999/xlink" x="0px" y="0px"
	 viewBox="0 0 468.293 468.293" style="enable-background:new 0 0 468.293 468.293;" xml:space="preserve">
<path style="fill:#2F4859;" d="M77.097,20.651v426.991c0,11.405,9.246,20.651,20.651,20.651h272.797
	c11.405,0,20.651-9.246,20.651-20.651V20.651C391.196,9.246,381.95,0,370.545,0H97.748C86.343,0,77.097,9.246,77.097,20.651z"/>
<rect x="108.906" y="31.813" style="fill:#EBF0F3;" width="250.505" height="349.908"/>
<path style="fill:#D5D6DB;" d="M234.147,403.571c-11.834,0-21.427,9.593-21.427,21.427c0,11.834,9.593,21.426,21.427,21.426
	c11.833,0,21.426-9.592,21.426-21.426C255.573,413.164,245.98,403.571,234.147,403.571z"/>
<path style="fill:#CE412D;" d="M234.145,114.864c-31.475,0-56.99,25.516-56.99,56.99c0,31.476,56.99,96.972,56.99,96.972
	s56.99-65.496,56.99-96.972C291.136,140.38,265.62,114.864,234.145,114.864z"/>
<circle style="fill:#D5D6DB;" cx="234.146" cy="171.832" r="25.4"/>
<g>
</g>
<g>
</g>
<g>
</g>
<g>
</g>
<g>
</g>
<g>
</g>
<g>
</g>
<g>
</g>
<g>
</g>
<g>
</g>
<g>
</g>
<g>
</g>
<g>
</g>
<g>
</g>
<g>
</g>
</svg>
