<?xml version="1.0" encoding="iso-8859-1"?>
<!-- Generator: Adobe Illustrator 19.0.0, SVG Export Plug-In . SVG Version: 6.00 Build 0)  -->
<svg version="1.1" id="Capa_1" xmlns="http://www.w3.org/2000/svg" xmlns:xlink="http://www.w3.org/1999/xlink" x="0px" y="0px"
	 viewBox="0 0 468.293 468.293" style="enable-background:new 0 0 468.293 468.293;" xml:space="preserve">
<g>
	<polygon style="fill:#FCD462;" points="425.288,97.194 424.622,0 43.671,0 43.005,97.194 	"/>
	<path style="fill:#FCD462;" d="M460.378,407.241L424.622,75.872H43.671L7.915,407.241c-3.486,32.3,22.335,61.051,54.463,61.051
		h343.538C438.042,468.293,463.863,439.542,460.378,407.241z"/>
</g>
<polygon style="fill:#F7BE56;" points="424.622,0 43.671,0 80.724,38.185 43.671,75.872 424.622,75.872 387.569,38.185 "/>
<path style="fill:#DC8744;" d="M361.801,126.111h-58.436c-7.982,0-14.458,6.476-14.458,14.458c0,7.982,6.476,14.458,14.458,14.458
	h15.117v84.341c0,46.51-37.831,84.341-84.341,84.341s-84.341-37.831-84.341-84.341v-84.341h15.127
	c7.982,0,14.458-6.476,14.458-14.458c0-7.982-6.476-14.458-14.458-14.458h-58.436c-7.982,0-14.458,6.476-14.458,14.458
	c0,7.982,6.476,14.458,14.458,14.458h14.392v84.341c0,62.446,50.811,113.257,113.257,113.257s113.257-50.811,113.257-113.257
	v-84.341h14.402c7.982,0,14.458-6.476,14.458-14.458C376.259,132.587,369.783,126.111,361.801,126.111z"/>
<g>
</g>
<g>
</g>
<g>
</g>
<g>
</g>
<g>
</g>
<g>
</g>
<g>
</g>
<g>
</g>
<g>
</g>
<g>
</g>
<g>
</g>
<g>
</g>
<g>
</g>
<g>
</g>
<g>
</g>
</svg>
