<?xml version="1.0" encoding="iso-8859-1"?>
<!-- Generator: Adobe Illustrator 19.0.0, SVG Export Plug-In . SVG Version: 6.00 Build 0)  -->
<svg version="1.1" id="Capa_1" xmlns="http://www.w3.org/2000/svg" xmlns:xlink="http://www.w3.org/1999/xlink" x="0px" y="0px"
	 viewBox="0 0 468.293 468.293" style="enable-background:new 0 0 468.293 468.293;" xml:space="preserve">
<g>
	<path style="fill:#64798A;" d="M454.398,0H13.894C6.221,0,0,7.349,0,16.414v103.349c0,9.066,6.221,16.414,13.894,16.414h440.504
		c7.673,0,13.894-7.349,13.894-16.414V16.414C468.293,7.349,462.072,0,454.398,0z"/>
	<path style="fill:#64798A;" d="M400.207,43.227H68.086c-13.73,0-24.861,11.131-24.861,24.861s11.131,24.861,24.861,24.861h332.121
		c13.73,0,24.861-11.131,24.861-24.861S413.937,43.227,400.207,43.227z"/>
</g>
<path style="fill:#31978C;" d="M76.026,42.146v404.663c0,11.866,9.618,21.484,21.484,21.484h273.273
	c11.865,0,21.484-9.618,21.484-21.484V42.146H76.026z"/>
<path style="fill:#44C4A1;" d="M287.687,42.146H180.605c-10.817,32.23-41.205,55.48-77.079,55.48v261.815
	c44.93,0,81.351,36.422,81.351,81.352h98.538c0-44.93,36.423-81.352,81.353-81.352V97.626
	C328.893,97.626,298.504,74.376,287.687,42.146z"/>
<g>
	<circle style="fill:#D5D6DB;" cx="234.146" cy="113.383" r="20.624"/>
	<circle style="fill:#D5D6DB;" cx="234.146" cy="343.664" r="20.624"/>
	<path style="fill:#D5D6DB;" d="M268.021,233.553h-30.039c-2.677,9.368-6.727,16.238-12.152,20.612
		c-5.425,4.373-12.008,6.56-19.751,6.56c-7.838,0-14.422-2.473-19.751-7.42c-5.329-4.947-8.4-11.531-9.212-19.751h-7.098v-10.395
		h7.098c0.908-7.599,3.501-13.645,7.779-18.138c4.278-4.493,10.001-7.36,17.17-8.603l2.366,18.138
		c-5.64,1.099-9.463,3.967-11.471,8.603h28.032c3.107-11.471,7.133-19.285,12.08-23.443c4.947-4.158,11.292-6.237,19.034-6.237
		c8.651,0,15.94,2.617,21.866,7.85s9.559,12.51,10.897,21.83h13.406v10.395h-13.048c-1.004,8.269-4.086,14.984-9.248,20.146
		c-5.162,5.162-12.451,8.46-21.866,9.894l-2.007-18.712c3.824-0.765,7.121-2.199,9.894-4.302
		C264.771,238.476,266.778,236.134,268.021,233.553z M192.744,233.553c0.956,2.82,2.581,5.066,4.875,6.739
		c2.294,1.673,4.827,2.509,7.599,2.509c2.533,0,4.887-0.765,7.062-2.294c2.175-1.529,3.931-3.847,5.269-6.954H192.744z
		 M269.025,223.158c-0.669-3.585-2.33-6.5-4.983-8.746c-2.653-2.246-5.771-3.37-9.356-3.37c-3.202,0-5.962,0.944-8.28,2.832
		c-2.318,1.888-4.098,4.983-5.341,9.284H269.025z"/>
</g>
<g>
</g>
<g>
</g>
<g>
</g>
<g>
</g>
<g>
</g>
<g>
</g>
<g>
</g>
<g>
</g>
<g>
</g>
<g>
</g>
<g>
</g>
<g>
</g>
<g>
</g>
<g>
</g>
<g>
</g>
</svg>
