<?xml version="1.0" encoding="iso-8859-1"?>
<!-- Generator: Adobe Illustrator 19.0.0, SVG Export Plug-In . SVG Version: 6.00 Build 0)  -->
<svg version="1.1" id="Capa_1" xmlns="http://www.w3.org/2000/svg" xmlns:xlink="http://www.w3.org/1999/xlink" x="0px" y="0px"
	 viewBox="0 0 468.293 468.293" style="enable-background:new 0 0 468.293 468.293;" xml:space="preserve">
<g>
	<path style="fill:#2F4859;" d="M395.168,407.424v31.826c0,5.003,4.055,9.058,9.058,9.058h22.768c5.003,0,9.058-4.055,9.058-9.058
		v-31.826H395.168z"/>
	<path style="fill:#2F4859;" d="M41.299,448.308h22.768c5.003,0,9.058-4.055,9.058-9.058v-31.826H32.241v31.826
		C32.241,444.253,36.296,448.308,41.299,448.308z"/>
</g>
<path style="fill:#DC8744;" d="M390.732,189.009V36.082c0-8.89-7.207-16.097-16.097-16.097h-0.001
	c-8.89,0-16.097,7.207-16.097,16.097v75.732c-75.163-68.302-169.748-68.302-248.78,0V36.082c0-8.89-7.207-16.097-16.097-16.097
	h-0.001c-8.89,0-16.097,7.207-16.097,16.097v152.928H390.732z"/>
<polygon style="fill:#FCD462;" points="390.732,153.887 77.561,153.887 0,295.289 468.293,295.289 "/>
<path style="fill:#DC8744;" d="M0,283.491v143.872h468.293V283.491c0-10.658-8.64-19.299-19.299-19.299H19.299
	C8.64,264.192,0,272.832,0,283.491z"/>
<g>
	<path style="fill:#2D93BA;" d="M135.485,170.894c9.769,7.86,46.579,8.646,55.263,0c6.645-6.613,6.645-27.402,0-34.015
		c-8.684-8.646-45.494-7.86-55.263,0C128.009,142.891,128.009,164.883,135.485,170.894z"/>
	<path style="fill:#2D93BA;" d="M278.168,170.894c9.769,7.86,46.579,8.646,55.263,0c6.645-6.613,6.645-27.402,0-34.015
		c-8.684-8.646-45.494-7.86-55.263,0C270.692,142.891,270.692,164.883,278.168,170.894z"/>
</g>
<g>
	<path style="fill:#2E9AE1;" d="M195.687,153.156c-0.115-6.6-1.736-13.089-4.939-16.277c-8.684-8.645-45.494-7.859-55.263,0
		c-3.606,2.9-5.431,9.526-5.558,16.277H195.687z"/>
	<path style="fill:#2E9AE1;" d="M338.37,153.156c-0.115-6.6-1.736-13.089-4.939-16.277c-8.683-8.645-45.494-7.859-55.263,0
		c-3.606,2.9-5.431,9.526-5.558,16.277H338.37z"/>
</g>
<g>
</g>
<g>
</g>
<g>
</g>
<g>
</g>
<g>
</g>
<g>
</g>
<g>
</g>
<g>
</g>
<g>
</g>
<g>
</g>
<g>
</g>
<g>
</g>
<g>
</g>
<g>
</g>
<g>
</g>
</svg>
