<?xml version="1.0" encoding="iso-8859-1"?>
<!-- Generator: Adobe Illustrator 19.0.0, SVG Export Plug-In . SVG Version: 6.00 Build 0)  -->
<svg version="1.1" id="Capa_1" xmlns="http://www.w3.org/2000/svg" xmlns:xlink="http://www.w3.org/1999/xlink" x="0px" y="0px"
	 viewBox="0 0 468.293 468.293" style="enable-background:new 0 0 468.293 468.293;" xml:space="preserve">
<circle style="fill:#2E9AE1;" cx="234.146" cy="234.146" r="234.146"/>
<g>
	<circle style="fill:#D5D6DB;" cx="234.146" cy="234.146" r="199.805"/>
	<path style="fill:#D5D6DB;" d="M246.091,34.69v42.19c0,6.499-5.357,11.858-11.944,11.858s-11.944-5.358-11.944-11.858V34.69
		c3.952-0.264,7.904-0.352,11.944-0.352S242.138,34.426,246.091,34.69z"/>
</g>
<g>
	<path style="fill:#2F4859;" d="M246.091,34.69v42.19c0,6.499-5.357,11.858-11.944,11.858s-11.944-5.358-11.944-11.858V34.69
		c3.952-0.264,7.904-0.352,11.944-0.352S242.138,34.426,246.091,34.69z"/>
	<path style="fill:#2F4859;" d="M101.555,84.663l29.833,29.833c4.596,4.596,4.596,12.173-0.061,16.831
		c-4.658,4.658-12.235,4.657-16.831,0.061l-29.833-29.833c2.608-2.981,5.34-5.838,8.197-8.695S98.574,87.271,101.555,84.663z"/>
	<path style="fill:#2F4859;" d="M34.69,222.202h42.19c6.499,0,11.858,5.357,11.858,11.944s-5.358,11.944-11.858,11.944H34.69
		c-0.264-3.952-0.352-7.904-0.352-11.944S34.426,226.154,34.69,222.202z"/>
	<path style="fill:#2F4859;" d="M84.663,366.737l29.833-29.833c4.596-4.596,12.173-4.596,16.831,0.061
		c4.658,4.658,4.657,12.235,0.061,16.831l-29.833,29.833c-2.981-2.608-5.838-5.34-8.695-8.197S87.271,369.719,84.663,366.737z"/>
	<path style="fill:#2F4859;" d="M222.202,433.603v-42.19c0-6.499,5.357-11.858,11.944-11.858s11.944,5.358,11.944,11.858v42.19
		c-3.952,0.264-7.904,0.352-11.944,0.352S226.154,433.867,222.202,433.603z"/>
	<path style="fill:#2F4859;" d="M366.737,383.63l-29.833-29.833c-4.596-4.596-4.596-12.173,0.061-16.831s12.235-4.657,16.831-0.061
		l29.833,29.833c-2.608,2.981-5.34,5.838-8.197,8.695S369.719,381.021,366.737,383.63z"/>
	<path style="fill:#2F4859;" d="M433.603,246.091h-42.19c-6.499,0-11.858-5.357-11.858-11.944s5.358-11.944,11.858-11.944h42.19
		c0.264,3.952,0.352,7.904,0.352,11.944S433.867,242.138,433.603,246.091z"/>
	<path style="fill:#2F4859;" d="M383.63,101.555l-29.833,29.833c-4.596,4.596-12.173,4.596-16.831-0.061
		c-4.658-4.658-4.657-12.235-0.061-16.831l29.833-29.833c2.981,2.608,5.838,5.34,8.695,8.197S381.021,98.574,383.63,101.555z"/>
	<path style="fill:#2F4859;" d="M186.204,293.209c-2.845,0-5.691-1.086-7.862-3.258c-4.344-4.344-4.344-11.381,0-15.725
		l44.684-44.684V125.824c0-6.139,4.981-11.12,11.12-11.12s11.12,4.981,11.12,11.12v108.323c0,2.947-1.173,5.777-3.258,7.862
		l-47.942,47.942C191.895,292.123,189.049,293.209,186.204,293.209z"/>
</g>
<circle style="fill:#E56353;" cx="234.146" cy="234.146" r="23.864"/>
<g>
</g>
<g>
</g>
<g>
</g>
<g>
</g>
<g>
</g>
<g>
</g>
<g>
</g>
<g>
</g>
<g>
</g>
<g>
</g>
<g>
</g>
<g>
</g>
<g>
</g>
<g>
</g>
<g>
</g>
</svg>
