<?xml version="1.0" encoding="iso-8859-1"?>
<!-- Generator: Adobe Illustrator 19.0.0, SVG Export Plug-In . SVG Version: 6.00 Build 0)  -->
<svg version="1.1" id="Capa_1" xmlns="http://www.w3.org/2000/svg" xmlns:xlink="http://www.w3.org/1999/xlink" x="0px" y="0px"
	 viewBox="0 0 468.293 468.293" style="enable-background:new 0 0 468.293 468.293;" xml:space="preserve">
<path style="fill:#31978C;" d="M70.764,141.036v186.22c0,8.085,6.555,14.64,14.64,14.64h297.484c8.085,0,14.64-6.555,14.64-14.64
	v-186.22c0-8.085-6.555-14.64-14.64-14.64H85.404C77.319,126.396,70.764,132.951,70.764,141.036z"/>
<path style="fill:#44C4A1;" d="M323.353,145.135H144.94c0,30.617-24.819,55.436-55.436,55.436v67.148
	c30.617,0,55.436,24.82,55.436,55.437h178.413c0-30.617,24.819-55.437,55.436-55.437v-67.148
	C348.172,200.572,323.353,175.752,323.353,145.135z"/>
<g>
	<circle style="fill:#31978C;" cx="312.632" cy="234.146" r="14.055"/>
	<circle style="fill:#31978C;" cx="155.673" cy="234.146" r="14.055"/>
	<path style="fill:#31978C;" d="M230.726,257.23v-20.47c-6.384-1.824-11.066-4.584-14.046-8.281c-2.98-3.697-4.47-8.183-4.47-13.459
		c0-5.341,1.685-9.828,5.056-13.459c3.371-3.632,7.857-5.724,13.459-6.278v-4.837h7.084v4.837c5.179,0.619,9.299,2.386,12.36,5.301
		s5.016,6.815,5.863,11.701l-12.36,1.612c-0.749-3.843-2.703-6.449-5.863-7.817v19.102c7.817,2.117,13.142,4.861,15.975,8.232
		c2.834,3.371,4.25,7.695,4.25,12.971c0,5.895-1.783,10.862-5.35,14.901c-3.566,4.039-8.525,6.514-14.876,7.426v9.136h-7.084v-8.892
		c-5.635-0.684-10.211-2.785-13.728-6.302c-3.518-3.517-5.765-8.484-6.742-14.901l12.751-1.368c0.521,2.606,1.498,4.853,2.931,6.742
		C227.372,255.015,228.968,256.383,230.726,257.23z M230.726,205.933c-1.922,0.651-3.452,1.759-4.592,3.322
		c-1.14,1.563-1.71,3.29-1.71,5.179c0,1.726,0.521,3.33,1.563,4.812c1.042,1.482,2.622,2.679,4.739,3.591V205.933z M237.81,257.914
		c2.443-0.456,4.429-1.588,5.96-3.395c1.531-1.808,2.296-3.933,2.296-6.376c0-2.182-0.643-4.063-1.93-5.643
		c-1.286-1.58-3.395-2.793-6.327-3.64V257.914z"/>
</g>
<g>
	<path style="fill:#D5D6DB;" d="M132.417,28.611C68.258,23.736,10.404,69.177,1.236,133.791c-2.13,15.017-1.467,29.835,1.687,43.82
		c22.662-41.485,68.119-67.308,117.368-63.55l-3.962,27.921l91.509-59.436L136.476,0L132.417,28.611z"/>
	<path style="fill:#D5D6DB;" d="M465.369,290.68c-22.661,41.486-68.119,67.309-117.367,63.552l3.962-27.921l-91.509,59.436
		l71.361,82.546l4.061-28.613c64.157,4.877,122.011-40.564,131.18-105.178C469.187,319.485,468.524,304.666,465.369,290.68z"/>
</g>
<g>
</g>
<g>
</g>
<g>
</g>
<g>
</g>
<g>
</g>
<g>
</g>
<g>
</g>
<g>
</g>
<g>
</g>
<g>
</g>
<g>
</g>
<g>
</g>
<g>
</g>
<g>
</g>
<g>
</g>
</svg>
