<?xml version="1.0" encoding="iso-8859-1"?>
<!-- Generator: Adobe Illustrator 19.0.0, SVG Export Plug-In . SVG Version: 6.00 Build 0)  -->
<svg version="1.1" id="Capa_1" xmlns="http://www.w3.org/2000/svg" xmlns:xlink="http://www.w3.org/1999/xlink" x="0px" y="0px"
	 viewBox="0 0 468.293 468.293" style="enable-background:new 0 0 468.293 468.293;" xml:space="preserve">
<g>
	<polygon style="fill:#2F4859;" points="348.218,200.601 348.218,311.676 468.293,381.963 468.293,130.313 	"/>
	<path style="fill:#2F4859;" d="M218.354,422.547H104.022c-3.457,0-6.265-2.808-6.265-6.265v-29.106H66.433v29.106
		c0,20.728,16.861,37.589,37.589,37.589h114.332c8.651,0,15.662-7.011,15.662-15.662
		C234.016,429.558,227.005,422.547,218.354,422.547z"/>
</g>
<path style="fill:#3A556A;" d="M0,142.328v227.62c0,14.128,11.453,25.581,25.581,25.581h327.857
	c14.128,0,25.581-11.453,25.581-25.581v-227.62c0-14.128-11.453-25.581-25.581-25.581H25.581C11.453,116.747,0,128.2,0,142.328z"/>
<path style="fill:#2F4859;" d="M259.597,14.422c-34.744,0-62.909,28.166-62.909,62.908c0,34.744,28.165,62.909,62.909,62.909
	c34.743,0,62.909-28.166,62.909-62.909C322.506,42.588,294.341,14.422,259.597,14.422z"/>
<path style="fill:#D5D6DB;" d="M259.597,50.966c-14.561,0-26.365,11.804-26.365,26.364c0,14.561,11.804,26.365,26.365,26.365
	c14.561,0,26.365-11.804,26.365-26.365C285.962,62.77,274.158,50.966,259.597,50.966z"/>
<path style="fill:#2F4859;" d="M101.15,50.966c-24.652,0-44.637,19.985-44.637,44.636c0,24.652,19.984,44.637,44.637,44.637
	c24.652,0,44.637-19.985,44.637-44.637C145.787,70.951,125.802,50.966,101.15,50.966z"/>
<g>
	<path style="fill:#D5D6DB;" d="M101.15,76.896c-10.332,0-18.707,8.375-18.707,18.707c0,10.332,8.375,18.707,18.707,18.707
		c10.332,0,18.707-8.375,18.707-18.707C119.857,85.271,111.482,76.896,101.15,76.896z"/>
	<path style="fill:#D5D6DB;" d="M156.228,287.533H44.376c-7.208,0-13.052,5.843-13.052,13.051v50.569
		c0,7.21,5.843,13.053,13.052,13.053h111.853c7.208,0,13.051-5.843,13.051-13.053v-50.569
		C169.28,293.375,163.437,287.533,156.228,287.533z"/>
</g>
<path style="fill:#CE412D;" d="M315.32,339.654c-6.78,0-12.276,5.496-12.276,12.277c0,6.779,5.496,12.275,12.276,12.275
	c6.779,0,12.276-5.496,12.276-12.275C327.596,345.15,322.1,339.654,315.32,339.654z"/>
<path style="fill:#FCD462;" d="M274.571,339.654c-6.78,0-12.276,5.496-12.276,12.277c0,6.779,5.496,12.275,12.276,12.275
	c6.78,0,12.276-5.496,12.276-12.275C286.847,345.15,281.35,339.654,274.571,339.654z"/>
<g>
</g>
<g>
</g>
<g>
</g>
<g>
</g>
<g>
</g>
<g>
</g>
<g>
</g>
<g>
</g>
<g>
</g>
<g>
</g>
<g>
</g>
<g>
</g>
<g>
</g>
<g>
</g>
<g>
</g>
</svg>
