<?xml version="1.0" encoding="iso-8859-1"?>
<!-- Generator: Adobe Illustrator 19.0.0, SVG Export Plug-In . SVG Version: 6.00 Build 0)  -->
<svg version="1.1" id="Capa_1" xmlns="http://www.w3.org/2000/svg" xmlns:xlink="http://www.w3.org/1999/xlink" x="0px" y="0px"
	 viewBox="0 0 468.293 468.293" style="enable-background:new 0 0 468.293 468.293;" xml:space="preserve">
<path style="fill:#2F4859;" d="M163.902,105.513v-61.5c0-4.661,3.786-8.447,8.447-8.447h123.594c4.661,0,8.447,3.786,8.447,8.447
	v61.5h35.567v-61.5C339.957,19.742,320.215,0,295.943,0H172.349c-24.271,0-44.014,19.742-44.014,44.014v61.5H163.902z"/>
<path style="fill:#64798A;" d="M14.523,183.76v265.564c0,10.476,8.493,18.969,18.969,18.969h401.309
	c10.476,0,18.969-8.493,18.969-18.969V183.76H14.523z"/>
<polygon style="fill:#EBF0F3;" points="60.019,194.43 60.019,262.896 88.768,291.644 117.518,262.896 117.518,194.43 "/>
<path style="fill:#64798A;" d="M88.768,236.073c-7.94,0-14.376,6.436-14.376,14.374c0,7.938,6.436,14.374,14.376,14.374
	c7.939,0,14.375-6.436,14.375-14.374C103.143,242.509,96.707,236.073,88.768,236.073z"/>
<polygon style="fill:#EBF0F3;" points="350.775,194.43 350.775,262.896 379.525,291.644 408.274,262.896 408.274,194.43 "/>
<path style="fill:#64798A;" d="M379.525,236.073c-7.94,0-14.376,6.436-14.376,14.374c0,7.938,6.436,14.374,14.376,14.374
	c7.939,0,14.375-6.436,14.375-14.374C393.9,242.509,387.464,236.073,379.525,236.073z"/>
<path style="fill:#2F4859;" d="M449.027,84.471H19.265c-10.476,0-18.969,8.492-18.969,18.968V215.04h467.7V103.438
	C467.996,92.963,459.504,84.471,449.027,84.471z"/>
<g>
</g>
<g>
</g>
<g>
</g>
<g>
</g>
<g>
</g>
<g>
</g>
<g>
</g>
<g>
</g>
<g>
</g>
<g>
</g>
<g>
</g>
<g>
</g>
<g>
</g>
<g>
</g>
<g>
</g>
</svg>
